<?xml version="1.0" standalone="no"?>
<!DOCTYPE svg PUBLIC "-//W3C//DTD SVG 1.1//EN" "http://www.w3.org/Graphics/SVG/1.1/DTD/svg11.dtd" >
<svg xmlns="http://www.w3.org/2000/svg" xmlns:xlink="http://www.w3.org/1999/xlink" version="1.1">
<metadata>
Created by FontForge 20170731 at Sat Jun 13 17:02:48 2015
 By Aleksey,,,
(c) 2015 Apple Inc. All rights reserved.
</metadata>
<defs>
<font id="SFUIText-MediumItalic" horiz-adv-x="0" >
  <font-face 
    font-family="SF UI Text"
    font-weight="373"
    font-style="italic"
    font-stretch="normal"
    units-per-em="2048"
    panose-1="0 0 4 0 0 0 0 0 0 0"
    ascent="1638"
    descent="-410"
    x-height="1089"
    cap-height="1443"
    bbox="-557 -572 2954 2197"
    underline-thickness="50"
    underline-position="-175"
    slope="-12"
    unicode-range="U+0020-FB02"
  />
<missing-glyph horiz-adv-x="1293" 
d="M344 1365h1053l-290 -1365h-1053zM544 231q31 -28 80 -28q52 0 84 29q33 28 33 74t-31 74q-32 29 -83 29q-50 0 -82 -29q-32 -30 -32 -77q0 -44 31 -72zM620 908q9 57 50 90q40 33 100 33q62 0 101 -31t39 -80q0 -37 -28 -65q-29 -28 -122 -81q-93 -52 -131 -100
q-38 -47 -49 -121l-6 -42h150l7 39q7 43 34 68q26 26 118 79q189 106 189 232q0 106 -81 171q-82 64 -216 64q-132 0 -215 -69t-92 -187h152z" />
    <glyph glyph-name=".notdef" horiz-adv-x="1293" 
d="M344 1365h1053l-290 -1365h-1053zM544 231q31 -28 80 -28q52 0 84 29q33 28 33 74t-31 74q-32 29 -83 29q-50 0 -82 -29q-32 -30 -32 -77q0 -44 31 -72zM620 908q9 57 50 90q40 33 100 33q62 0 101 -31t39 -80q0 -37 -28 -65q-29 -28 -122 -81q-93 -52 -131 -100
q-38 -47 -49 -121l-6 -42h150l7 39q7 43 34 68q26 26 118 79q189 106 189 232q0 106 -81 171q-82 64 -216 64q-132 0 -215 -69t-92 -187h152z" />
    <glyph glyph-name="glyph1" 
 />
    <glyph glyph-name="glyph2" 
 />
    <glyph glyph-name="space" unicode=" " horiz-adv-x="560" 
 />
    <glyph glyph-name="exclam" unicode="!" horiz-adv-x="669" 
d="M697 1444l-226 -966h-202l185 966h243zM184 21q-43 42 -43 106q0 67 43 111q43 45 111 45t112 -44q42 -43 42 -107q0 -67 -42 -111q-44 -44 -112 -44t-111 44z" />
    <glyph glyph-name="quotedbl" unicode="&#x22;" horiz-adv-x="939" 
d="M290 872l120 571h192l-120 -571h-192zM697 872l120 571h193l-120 -571h-193z" />
    <glyph glyph-name="numbersign" unicode="#" horiz-adv-x="1319" 
d="M1128 882l-131 -304h209l-69 -178h-210l-167 -400h-179l168 400h-274l-168 -400h-178l167 400h-208l70 178h209l130 304h-207l68 177h209l162 384h178l-161 -384h273l162 384h180l-163 -384h210l-70 -177h-210zM536 567h285l138 324h-287z" />
    <glyph glyph-name="dollar" unicode="$" horiz-adv-x="1360" 
d="M720 170q130 3 207 66q74 61 74 157q0 71 -47 121q-43 46 -142 89zM818 1272q-115 -2 -189 -62q-72 -58 -72 -146q0 -122 176 -195zM886 809q344 -134 344 -388q0 -202 -151 -324q-148 -121 -385 -121h-15l-25 -116h-136l28 132q-166 37 -270 146q-108 112 -115 264h218
q24 -167 208 -217l99 467l-53 20q-305 116 -305 374q0 185 141 302q144 119 376 119h15l27 128h136l-31 -146q153 -38 246 -147q94 -109 96 -250h-215q-23 153 -169 201l-92 -433z" />
    <glyph glyph-name="percent" unicode="%" horiz-adv-x="1680" 
d="M488 1241q-51 -75 -51 -176q0 -68 30 -109t81 -41q69 0 119 75t50 178q0 68 -29 108q-29 39 -79 39q-70 0 -121 -74zM146 0l718 756l626 687h233l-730 -768l-613 -675h-234zM333 842q-77 84 -77 223q0 170 104 289q104 118 255 118q128 0 205 -84q78 -84 78 -223
q0 -169 -105 -288t-254 -119q-128 0 -206 84zM1204 455q-51 -75 -51 -176q0 -69 30 -110q31 -41 81 -41q69 0 120 75q50 75 50 178q0 69 -29 109q-29 39 -80 39q-70 0 -121 -74zM1050 55q-78 84 -78 224q0 170 105 288q104 118 254 118q128 0 205 -84q78 -84 78 -223
q0 -169 -104 -288q-105 -119 -254 -119q-129 0 -206 84z" />
    <glyph glyph-name="ampersand" unicode="&#x26;" horiz-adv-x="1482" 
d="M724 890q141 44 213 119q65 67 65 147q0 67 -48 107t-123 40q-85 0 -145 -58q-61 -59 -61 -141t99 -214zM928 239l-300 443q-48 -16 -54 -19q-255 -92 -255 -273q0 -104 80 -169q82 -68 217 -68q185 0 312 86zM1023 87q-178 -114 -421 -114q-209 0 -352 114
q-144 115 -144 285q0 284 368 428l66 27q-116 168 -116 290q0 149 117 251q119 104 294 104q158 0 262 -84t104 -212q0 -281 -389 -417l265 -377q112 134 128 335l4 45h195l-4 -51q-26 -288 -218 -492l145 -219h-246z" />
    <glyph glyph-name="quotesingle" unicode="'" horiz-adv-x="531" 
d="M290 872l120 571h192l-120 -571h-192z" />
    <glyph glyph-name="parenleft" unicode="(" horiz-adv-x="755" 
d="M302 -277q-115 242 -115 594q0 316 119 613q120 299 335 513h234q-222 -224 -343 -517q-125 -299 -125 -622q0 -307 90 -581h-195z" />
    <glyph glyph-name="parenright" unicode=")" horiz-adv-x="754" 
d="M561 1443q115 -238 115 -594q0 -316 -119 -612q-120 -300 -335 -514h-233q221 224 343 517q124 299 124 622q0 305 -90 581h195z" />
    <glyph glyph-name="asterisk" unicode="*" horiz-adv-x="1032" 
d="M704 916l-42 -311l-165 9l91 314l-299 -159l-52 161l315 107l-257 158l115 145l221 -208l44 316l165 -9l-93 -318l300 160l52 -160l-314 -106l256 -159l-114 -145z" />
    <glyph glyph-name="plus" unicode="+" horiz-adv-x="1359" 
d="M721 60h-191l91 424h-423l40 196h421l91 423h191l-90 -423h426l-41 -196h-424z" />
    <glyph glyph-name="comma" unicode="," horiz-adv-x="662" 
d="M43 -376l215 598h233l-268 -598h-180z" />
    <glyph glyph-name="hyphen" unicode="-" horiz-adv-x="976" 
d="M195 476l43 211h656l-42 -211h-657z" />
    <glyph glyph-name="period" unicode="." horiz-adv-x="645" 
d="M158 26q-42 43 -42 103q0 64 42 108t105 44t105 -43t42 -104q0 -64 -42 -107q-42 -44 -105 -44q-62 0 -105 43z" />
    <glyph glyph-name="slash" unicode="/" horiz-adv-x="734" 
d="M-78 -309l804 1752h197l-807 -1752h-194z" />
    <glyph glyph-name="zero" unicode="0" horiz-adv-x="1330" 
d="M318 111q-123 145 -123 389q0 418 196 700q194 278 475 278q209 0 332 -147q123 -145 123 -390q0 -420 -195 -699q-193 -277 -476 -277q-209 0 -332 146zM483 250q64 -88 179 -88q176 0 305 233q130 233 130 553q0 155 -63 243q-64 89 -177 89q-177 0 -307 -234
q-131 -234 -131 -552q0 -156 64 -244z" />
    <glyph glyph-name="one" unicode="1" horiz-adv-x="989" 
d="M690 1184h-17l-417 -253l50 244l437 268h224l-307 -1443h-224z" />
    <glyph glyph-name="two" unicode="2" horiz-adv-x="1266" 
d="M293 1047q20 190 165 310q145 121 354 121q194 0 323 -108q129 -107 129 -270q0 -127 -87 -243q-85 -113 -331 -321l-387 -319l-4 -17h676l-40 -200h-998l35 176l594 503q196 167 255 241q61 77 61 157q0 90 -69 148q-68 58 -175 58q-109 0 -188 -64t-99 -170v-3z" />
    <glyph glyph-name="three" unicode="3" horiz-adv-x="1314" 
d="M583 835h203q125 0 208 72q84 72 84 180q0 88 -70 142q-70 55 -183 55q-98 0 -177 -56t-107 -145h-214q38 179 179 287t339 108t328 -103q130 -104 130 -261q0 -142 -93 -245q-92 -103 -241 -128l-3 -17q249 -54 249 -293q0 -205 -156 -335q-156 -131 -400 -131
q-217 0 -360 114q-144 114 -145 286q0 19 3 44h213v-6q-3 -105 80 -172q84 -68 218 -68q145 0 233 75q87 74 87 199q0 94 -80 153q-79 59 -205 59h-157z" />
    <glyph glyph-name="four" unicode="4" horiz-adv-x="1352" 
d="M816 279h-706l36 218q232 305 799 946h333l-206 -964h199l-40 -200h-199l-61 -279h-216zM366 474h492l166 772h-13q-376 -418 -643 -758z" />
    <glyph glyph-name="five" unicode="5" horiz-adv-x="1301" 
d="M315 82q-142 117 -142 290q0 12 2 32h214v-5q1 -106 81 -171q79 -66 206 -66q147 0 239 97t92 247q0 119 -78 192q-76 70 -195 70q-170 0 -273 -120h-213l243 795h833l-42 -200h-649l-125 -398l16 -2q113 105 279 105q179 0 302 -117q124 -119 124 -298q0 -250 -153 -407
q-156 -161 -410 -161q-210 0 -351 117z" />
    <glyph glyph-name="six" unicode="6" horiz-adv-x="1341" 
d="M1099 128q-164 -163 -405 -163q-231 0 -365 147q-135 148 -135 401q0 379 178 661q191 304 518 304q200 0 333 -115q133 -116 140 -296h-225q-11 98 -82 155q-71 58 -182 58q-156 0 -269 -135q-114 -136 -165 -382l17 -1q139 186 376 186q189 0 309 -117
q121 -117 121 -300q0 -239 -164 -403zM522 665q-101 -98 -101 -239q0 -118 78 -191q77 -73 203 -73q141 0 239 100q97 100 97 245q0 113 -76 185q-75 71 -194 71q-145 0 -246 -98z" />
    <glyph glyph-name="seven" unicode="7" horiz-adv-x="1193" 
d="M1038 1227l3 17h-725l41 199h958l-41 -203l-894 -1240h-244z" />
    <glyph glyph-name="eight" unicode="8" horiz-adv-x="1347" 
d="M1077 94q-161 -129 -409 -129q-231 0 -379 109t-148 281q0 163 110 281t282 139l4 17q-88 39 -137 111q-50 72 -50 158q0 180 146 299q145 118 365 118q197 0 332 -103q135 -104 135 -256q0 -140 -89 -241q-89 -102 -234 -128l-4 -17q111 -41 174 -123q63 -83 63 -189
q0 -199 -161 -327zM470 582q-94 -79 -94 -200q0 -106 82 -168q81 -62 220 -62q144 0 238 78q94 79 94 200q0 103 -84 168q-84 64 -218 64q-144 0 -238 -80zM637 897q70 -56 182 -56q122 0 203 72t81 181q0 88 -70 143q-71 55 -184 55q-123 0 -202 -70q-80 -71 -80 -181
q0 -89 70 -144z" />
    <glyph glyph-name="nine" unicode="9" horiz-adv-x="1341" 
d="M993 777q101 98 101 240q0 118 -77 190t-204 72q-141 0 -238 -99q-97 -100 -97 -245q0 -113 75 -185q76 -71 195 -71q144 0 245 98zM416 1316q164 162 407 162q231 0 364 -147q134 -147 134 -402q0 -377 -178 -661q-190 -303 -517 -303q-198 0 -332 114
q-134 113 -142 290h225q9 -94 81 -150t185 -56q157 0 272 135q113 135 163 380l-17 2q-138 -186 -375 -186q-190 0 -312 118q-122 117 -122 301q0 241 164 403z" />
    <glyph glyph-name="colon" unicode=":" horiz-adv-x="645" 
d="M158 26q-42 43 -42 103q0 64 42 108t105 44t105 -43t42 -104q0 -64 -42 -107q-42 -44 -105 -44q-62 0 -105 43zM317 782q-42 43 -42 103q0 63 42 107t105 44t105 -43t42 -104q0 -63 -42 -107t-105 -44q-62 0 -105 44z" />
    <glyph glyph-name="semicolon" unicode=";" horiz-adv-x="645" 
d="M-20 -376l215 598h233l-268 -598h-180zM318 782q-42 43 -42 103q0 63 42 107t105 44t105 -43t42 -104q0 -63 -42 -107t-105 -44q-62 0 -105 44z" />
    <glyph glyph-name="less" unicode="&#x3c;" horiz-adv-x="1359" 
d="M1067 -29l-799 561l37 183l1014 445l-49 -239l-766 -306l-3 -17l612 -396z" />
    <glyph glyph-name="equal" unicode="=" horiz-adv-x="1360" 
d="M158 270l39 197h1032l-40 -197h-1031zM246 698l40 197h1031l-39 -197h-1032z" />
    <glyph glyph-name="greater" unicode="&#x3e;" horiz-adv-x="1360" 
d="M400 1160l798 -561l-36 -182l-1014 -446l48 240l766 306l3 17l-612 395z" />
    <glyph glyph-name="question" unicode="?" horiz-adv-x="1083" 
d="M240 1073q32 175 154 277q127 106 323 106q193 0 314 -99q119 -97 119 -244q0 -127 -79 -234q-78 -104 -209 -163q-109 -49 -155 -94q-46 -47 -60 -122l-10 -52h-212l16 74q25 126 86 196q55 64 176 118q217 100 217 256q0 72 -55 120q-60 51 -161 51q-93 0 -160 -50
q-68 -51 -94 -140h-210zM357 19q-44 42 -44 108q0 69 44 113q43 44 112 44q67 0 110 -42q44 -42 44 -108q0 -67 -43 -112t-111 -45q-69 0 -112 42z" />
    <glyph glyph-name="at" unicode="@" horiz-adv-x="1887" 
d="M1694 1252q214 -189 214 -474q0 -273 -136 -459t-335 -186q-98 0 -162 47q-64 48 -64 121l1 20l-17 -1q-78 -140 -241 -140q-139 0 -223 92t-84 244q0 211 118 356q117 146 288 146q88 0 156 -46t84 -116l17 -1l26 125h175l-128 -583q-4 -24 -4 -34q0 -87 100 -87
q107 0 191 152q84 151 84 343q0 230 -171 379q-172 148 -438 148q-320 0 -543 -229q-222 -229 -222 -558q0 -275 192 -442q191 -167 506 -166q125 0 193 20l-30 -142q-103 -21 -214 -21q-352 0 -576 206q-224 205 -224 529q0 407 265 676q266 269 667 269q322 0 535 -188z
M1204 799q-49 55 -129 55q-101 0 -172 -95q-71 -96 -71 -232q0 -86 47 -137q46 -51 124 -51q104 0 177 92q73 93 73 223q0 91 -49 145z" />
    <glyph glyph-name="A" unicode="A" horiz-adv-x="1423" 
d="M1012 383h-554l-215 -383h-237l836 1443h232l212 -1443h-224zM554 571h440l-82 608h-16z" />
    <glyph glyph-name="B" unicode="B" horiz-adv-x="1373" 
d="M114 0l307 1443h532q185 0 297 -86t112 -229q0 -139 -88 -241q-87 -102 -229 -128l-4 -17q118 -21 185 -97q68 -76 68 -188q0 -200 -156 -328q-156 -129 -398 -129h-626zM517 834h277q150 0 245 68q94 68 94 176q0 177 -262 177h-262zM718 193q148 0 246 74q98 75 98 188
q0 203 -274 203h-308l-101 -465h339z" />
    <glyph glyph-name="C" unicode="C" horiz-adv-x="1488" 
d="M1299 966q1 1 1 7q-10 134 -105 214q-96 80 -246 80q-222 0 -374 -198t-152 -489q0 -187 99 -296q98 -109 266 -109q138 0 244 66q107 66 145 175h229q-52 -208 -224 -329q-172 -122 -416 -122q-259 0 -416 163q-158 162 -158 432q0 398 220 659q219 259 553 259
q239 0 399 -140q159 -140 159 -350q0 -14 -1 -22h-223z" />
    <glyph glyph-name="D" unicode="D" horiz-adv-x="1504" 
d="M863 1443q291 0 453 -163q162 -162 162 -449q0 -358 -214 -595q-214 -236 -535 -236h-614l306 1443h442zM382 202h342q226 0 374 171q149 173 149 438q0 202 -110 316t-308 114h-221z" />
    <glyph glyph-name="E" unicode="E" horiz-adv-x="1238" 
d="M1032 0h-918l307 1443h917l-41 -204h-690l-91 -408h654l-40 -194h-653l-96 -433h691z" />
    <glyph glyph-name="F" unicode="F" horiz-adv-x="1193" 
d="M114 0l307 1443h902l-42 -204h-674l-98 -443h618l-40 -198h-619l-127 -598h-227z" />
    <glyph glyph-name="G" unicode="G" horiz-adv-x="1540" 
d="M1465 556q-59 -288 -235 -440q-176 -151 -450 -151q-263 0 -425 165q-161 166 -161 437q0 397 218 654q217 257 553 257q230 0 389 -130q158 -130 169 -328q1 -8 1 -35h-223q-9 128 -105 205t-247 77q-224 0 -374 -194q-150 -195 -150 -486q0 -190 103 -301
q102 -110 279 -110q161 0 278 93q117 94 149 248l9 42h-367l39 188h590z" />
    <glyph glyph-name="H" unicode="H" horiz-adv-x="1552" 
d="M1077 0l137 633h-738l-136 -633h-226l307 1443h227l-130 -606h737l130 606h228l-307 -1443h-229z" />
    <glyph glyph-name="I" unicode="I" horiz-adv-x="587" 
d="M114 0l307 1443h227l-307 -1443h-227z" />
    <glyph glyph-name="J" unicode="J" horiz-adv-x="1148" 
d="M322 370v-4q1 -86 57 -137q56 -50 150 -50q193 0 246 243l218 1021h223l-225 -1063q-42 -201 -164 -307q-123 -108 -317 -108q-187 0 -303 111t-107 281v13h222z" />
    <glyph glyph-name="K" unicode="K" horiz-adv-x="1387" 
d="M114 0l307 1443h223l-145 -672h17l731 672h279l-690 -643l425 -800h-257l-349 657l-216 -194l-102 -463h-223z" />
    <glyph glyph-name="L" unicode="L" horiz-adv-x="1184" 
d="M1015 0h-901l307 1443h227l-266 -1237h675z" />
    <glyph glyph-name="M" unicode="M" horiz-adv-x="1823" 
d="M114 0l307 1443h252l223 -1096h17l696 1096h275l-307 -1443h-212l225 1042h-14l-639 -1000h-170l-204 1000h-13l-225 -1042h-211z" />
    <glyph glyph-name="N" unicode="N" horiz-adv-x="1539" 
d="M114 0l307 1443h196l514 -1055h17l229 1055h223l-307 -1443h-198l-514 1051h-17l-228 -1051h-222z" />
    <glyph glyph-name="O" unicode="O" horiz-adv-x="1593" 
d="M361 137q-168 170 -168 432q0 394 224 652q222 257 560 257q264 0 431 -171q165 -170 165 -433q0 -397 -222 -654q-221 -255 -559 -255q-263 0 -431 172zM1236 1153q-104 113 -272 113q-229 0 -383 -195q-155 -195 -155 -484q0 -185 105 -298q104 -113 275 -113
q230 0 382 193q152 194 152 486q0 184 -104 298z" />
    <glyph glyph-name="P" unicode="P" horiz-adv-x="1327" 
d="M935 1443q190 0 311 -110q124 -112 124 -294q0 -253 -170 -406q-163 -147 -422 -147h-333l-104 -486h-227l307 1443h514zM485 683h284q169 0 268 88q102 91 102 247q0 108 -73 168q-71 59 -197 59h-261z" />
    <glyph glyph-name="Q" unicode="Q" horiz-adv-x="1593" 
d="M1093 -153l-77 149q-101 -31 -224 -31q-262 0 -431 172q-168 170 -168 432q0 395 224 653q223 256 560 256q263 0 430 -171q166 -170 166 -433q0 -255 -99 -461q-99 -205 -275 -323l120 -243h-226zM928 189l-128 254h223l79 -142q239 184 239 555q0 185 -104 299
q-105 113 -273 113q-229 0 -384 -196t-155 -485q0 -185 105 -299q105 -113 275 -113q67 0 123 14z" />
    <glyph glyph-name="R" unicode="R" horiz-adv-x="1367" 
d="M421 1443h524q198 0 319 -108q120 -109 120 -286q0 -165 -102 -292q-103 -129 -274 -176l204 -581h-243l-182 550h-328l-118 -550h-227zM497 741h318q149 0 243 81q94 80 94 206q0 101 -63 160q-63 58 -172 58h-309z" />
    <glyph glyph-name="S" unicode="S" horiz-adv-x="1307" 
d="M335 405q22 -110 117 -176q94 -65 230 -65q140 0 226 62q86 63 86 164q0 78 -57 131t-189 96l-142 48q-152 51 -235 150q-84 100 -84 231q0 186 151 309t379 123q217 0 363 -121q145 -120 159 -311h-219q-23 108 -106 171q-84 63 -208 63t-205 -60q-82 -59 -82 -150
q0 -137 218 -211l137 -47q352 -120 352 -391q0 -204 -156 -330t-406 -126q-231 0 -378 117q-149 118 -172 323h221z" />
    <glyph glyph-name="T" unicode="T" horiz-adv-x="1312" 
d="M476 0l266 1239h-452l41 204h1131l-41 -204h-452l-265 -1239h-228z" />
    <glyph glyph-name="U" unicode="U" horiz-adv-x="1538" 
d="M363 97q-136 125 -138 326q-1 58 13 127l187 893h228l-186 -882q-13 -64 -12 -120q4 -124 85 -193q84 -72 237 -72q150 0 255 86q106 86 139 239l201 942h227l-210 -992q-50 -232 -210 -357q-165 -129 -429 -129q-245 0 -387 132z" />
    <glyph glyph-name="V" unicode="V" horiz-adv-x="1415" 
d="M521 0l-210 1443h224l155 -1159h17l629 1159h250l-820 -1443h-245z" />
    <glyph glyph-name="W" unicode="W" horiz-adv-x="2013" 
d="M629 0h-216l-83 1443h214l43 -1105h14l539 1105h192l81 -1105h14l506 1105h231l-689 -1443h-218l-88 1059h-13z" />
    <glyph glyph-name="X" unicode="X" horiz-adv-x="1427" 
d="M669 749l-318 694h254l236 -539h16l469 539h253l-644 -729l329 -714h-245l-251 542h-16l-478 -542h-250z" />
    <glyph glyph-name="Y" unicode="Y" horiz-adv-x="1383" 
d="M512 0l126 582l-327 861h234l242 -631h17l497 631h251l-693 -881l-120 -562h-227z" />
    <glyph glyph-name="Z" unicode="Z" horiz-adv-x="1365" 
d="M107 161l1000 1061l3 17h-746l41 204h1041l-32 -161l-998 -1061l-2 -17h785l-41 -204h-1083z" />
    <glyph glyph-name="bracketleft" unicode="[" horiz-adv-x="791" 
d="M930 1444l-35 -174h-288l-288 -1337h300l-35 -173h-508l358 1684h496z" />
    <glyph glyph-name="backslash" unicode="\" horiz-adv-x="733" 
d="M300 1443h189l52 -1752h-187z" />
    <glyph glyph-name="bracketright" unicode="]" horiz-adv-x="790" 
d="M481 -240h-499l35 174h290l288 1337h-297l35 172h506z" />
    <glyph glyph-name="asciicircum" unicode="^" horiz-adv-x="885" 
d="M367 818h-204l411 606h210l153 -606h-193l-88 424h-17z" />
    <glyph glyph-name="underscore" unicode="_" horiz-adv-x="926" 
d="M-129 -278l33 171h941l-34 -171h-940z" />
    <glyph glyph-name="grave" unicode="`" horiz-adv-x="1085" 
d="M778 1271l-222 344h247l191 -344h-216z" />
    <glyph glyph-name="a" unicode="a" horiz-adv-x="1153" 
d="M701 225q85 63 107 159l25 112l-265 -12q-120 -5 -188 -52q-67 -46 -67 -122q0 -65 54 -107q53 -42 138 -42q110 0 196 64zM191 68q-94 85 -94 213q0 163 123 258q124 95 351 103l295 12l15 71q6 32 6 46q0 71 -57 112q-57 40 -157 40q-173 0 -222 -119h-215
q35 141 158 224q123 82 296 82q186 0 299 -85q113 -86 113 -227q0 -46 -9 -88l-150 -710h-209l30 139h-17q-115 -157 -321 -157q-141 0 -235 86z" />
    <glyph glyph-name="b" unicode="b" horiz-adv-x="1288" 
d="M487 43q-92 60 -123 156h-17l-43 -199h-208l322 1514h215l-121 -575h17q121 168 336 168q165 0 272 -116q108 -118 108 -303q0 -301 -159 -504q-159 -202 -392 -202q-114 0 -207 61zM918 313q103 136 103 339q0 125 -64 195q-64 68 -176 68q-154 0 -261 -136
q-107 -137 -107 -332q0 -126 68 -198q67 -72 182 -72q152 0 255 136z" />
    <glyph glyph-name="c" unicode="c" horiz-adv-x="1161" 
d="M950 737q-7 80 -74 131q-66 50 -162 50q-150 0 -249 -131q-98 -130 -98 -325q0 -137 69 -215q66 -75 179 -75q198 0 257 165h215q-32 -158 -164 -257q-135 -101 -324 -101q-205 0 -328 126q-124 126 -124 334q0 289 164 480q165 191 419 191q170 0 291 -96
q116 -93 137 -231q2 -14 4 -46h-212z" />
    <glyph glyph-name="d" unicode="d" horiz-adv-x="1293" 
d="M256 99q-113 120 -113 317q0 297 162 495q159 196 395 196q118 0 206 -59q86 -59 114 -153h17l131 619h218l-322 -1514h-208l32 150h-17q-126 -168 -339 -168q-167 0 -276 117zM874 311q105 135 105 331q0 126 -68 198t-182 72q-154 0 -257 -130q-105 -131 -105 -330
q0 -125 69 -202q68 -76 178 -76q154 0 260 137z" />
    <glyph glyph-name="e" unicode="e" horiz-adv-x="1203" 
d="M280 99q-132 126 -132 341q0 299 161 485q159 185 413 185q184 0 304 -118q125 -124 126 -329q0 -78 -14 -170h-775q-1 -14 -1 -44q0 -140 80 -216q70 -66 176 -66q185 0 252 126h218q-36 -140 -162 -225q-132 -89 -322 -89q-199 0 -324 120zM936 651q3 18 3 43
q0 100 -59 164q-64 69 -172 69q-114 0 -200 -76q-84 -74 -119 -200h547z" />
    <glyph glyph-name="f" unicode="f" horiz-adv-x="775" 
d="M356 903h-178l37 181h176l22 114q31 161 125 234q91 72 260 72q66 0 143 -15l-34 -171q-37 10 -110 10q-141 0 -170 -149l-19 -95h239l-36 -181h-237l-190 -903h-219z" />
    <glyph glyph-name="g" unicode="g" horiz-adv-x="1276" 
d="M185 -321q-126 90 -132 225h221q10 -62 75 -101q70 -42 178 -42q254 0 306 219l46 197l-17 1q-114 -160 -325 -160q-167 0 -277 118q-112 119 -112 307q0 287 156 476q154 188 384 188q114 0 207 -60q94 -60 125 -154h17l42 196h209l-245 -1138q-36 -171 -174 -267
q-141 -99 -357 -99q-197 0 -327 94zM869 323q102 126 102 319q0 124 -69 197t-185 73q-151 0 -248 -120q-98 -122 -98 -318q0 -128 66 -202t179 -74q152 0 253 125z" />
    <glyph glyph-name="h" unicode="h" horiz-adv-x="1267" 
d="M419 1510h217l-127 -584h17q124 183 337 183q154 0 251 -95q94 -92 94 -226q0 -57 -14 -127l-140 -661h-217l133 623q12 60 12 96q0 90 -60 143q-60 54 -162 54q-115 0 -200 -73q-82 -71 -107 -185l-140 -658h-217z" />
    <glyph glyph-name="i" unicode="i" horiz-adv-x="546" 
d="M330 1089h218l-232 -1089h-219zM408 1318q-40 37 -40 92q0 56 40 94q39 39 99 39t100 -38q39 -37 39 -92q0 -56 -39 -94q-40 -39 -100 -39t-99 38z" />
    <glyph glyph-name="j" unicode="j" horiz-adv-x="546" 
d="M296 -84q-64 -303 -367 -303q-57 0 -99 7l38 184q40 -4 57 -4q71 0 108 33q38 33 54 110l245 1146h215zM409 1318q-40 37 -40 92q0 56 40 94q39 39 99 39t100 -38q39 -37 39 -92q0 -56 -39 -94q-40 -39 -100 -39t-99 38z" />
    <glyph glyph-name="k" unicode="k" horiz-adv-x="1131" 
d="M979 1089h268l-552 -472l350 -617h-244l-280 490l-123 -94l-85 -396h-217l322 1514h216l-182 -854h17z" />
    <glyph glyph-name="l" unicode="l" horiz-adv-x="544" 
d="M418 1514h218l-321 -1514h-219z" />
    <glyph glyph-name="m" unicode="m" horiz-adv-x="1822" 
d="M318 1093h209l-36 -173h16q47 85 129 137q83 53 175 53q112 0 192 -61q73 -55 93 -136h17q122 197 349 197q133 0 219 -84q87 -85 87 -215q0 -57 -14 -127l-145 -684h-217l138 647q12 62 12 96q0 75 -47 123q-49 50 -132 50q-92 0 -165 -64q-76 -67 -100 -178l-143 -674
h-213l137 647q12 62 12 96q0 75 -47 123q-49 50 -132 50q-91 0 -164 -63q-76 -66 -99 -171l-145 -682h-217z" />
    <glyph glyph-name="n" unicode="n" horiz-adv-x="1249" 
d="M318 1093h209l-35 -167h17q121 184 340 184q152 0 249 -95q93 -92 93 -227q0 -59 -15 -127l-139 -661h-217l132 623q12 54 12 96q0 88 -59 142q-59 55 -158 55q-113 0 -196 -73q-82 -71 -107 -185l-140 -658h-217z" />
    <glyph glyph-name="o" unicode="o" horiz-adv-x="1243" 
d="M440 251q69 -80 187 -80q136 0 236 127q104 131 104 321q0 141 -66 221q-65 79 -180 79q-157 0 -254 -133q-94 -130 -94 -330q0 -127 67 -205zM273 107q-126 128 -126 334q0 283 159 472q166 197 431 197q206 0 332 -128q125 -128 125 -333q0 -279 -157 -469
q-165 -201 -431 -201q-206 0 -333 128z" />
    <glyph glyph-name="p" unicode="p" horiz-adv-x="1283" 
d="M913 313q103 136 103 339q0 125 -64 195q-64 68 -176 68q-154 0 -261 -136q-107 -137 -107 -332q0 -126 68 -198q67 -72 181 -72q153 0 256 136zM15 -353l307 1442h208l-31 -150h16q127 168 343 168q165 0 273 -116q109 -119 109 -303q0 -301 -159 -504
q-159 -202 -394 -202q-117 0 -205 61q-86 59 -115 156h-16l-120 -552h-216z" />
    <glyph glyph-name="q" unicode="q" horiz-adv-x="1282" 
d="M867 311q107 136 107 331q0 126 -68 198q-67 72 -181 72q-153 0 -256 -132q-103 -133 -103 -331q0 -131 65 -203q63 -72 175 -72q154 0 261 137zM771 -353l106 503h-17q-123 -168 -337 -168q-165 0 -272 120q-108 120 -108 311q0 295 160 495q159 199 393 199
q115 0 208 -60q91 -60 122 -152h16l42 194h208l-306 -1442h-215z" />
    <glyph glyph-name="r" unicode="r" horiz-adv-x="833" 
d="M312 1089h208l-30 -143h17q101 161 283 161q89 0 132 -18l-45 -210q-64 20 -147 20q-240 0 -300 -274l-133 -625h-217z" />
    <glyph glyph-name="s" unicode="s" horiz-adv-x="1087" 
d="M306 301q18 -66 79 -106q64 -42 156 -42q101 0 164 41q63 40 63 105q0 88 -127 129l-167 56q-254 85 -254 289q0 150 120 244q118 93 303 93q180 0 294 -85q112 -83 130 -224h-206q-14 62 -73 98t-147 36q-91 0 -150 -40q-59 -39 -59 -100q0 -85 141 -130l157 -54
q135 -44 196 -114q61 -69 61 -177q0 -150 -127 -245q-126 -96 -324 -96q-190 0 -313 89q-122 89 -132 233h215z" />
    <glyph glyph-name="t" unicode="t" horiz-adv-x="781" 
d="M299 47q-80 58 -80 168q0 41 11 94l128 590h-179l37 181h179l56 269h217l-57 -269h244l-36 -181h-244l-116 -535q-11 -49 -11 -82q0 -108 142 -108q33 0 63 3l-37 -179q-53 -8 -103 -8q-138 0 -214 57z" />
    <glyph glyph-name="u" unicode="u" horiz-adv-x="1247" 
d="M1029 0h-208l34 155h-17q-106 -176 -343 -176q-148 0 -242 89q-94 88 -94 228q0 63 15 140l136 653h218l-131 -618q-13 -63 -13 -106q0 -189 207 -189q117 0 204 75q84 73 110 192l138 646h216z" />
    <glyph glyph-name="v" unicode="v" horiz-adv-x="1136" 
d="M444 1089l103 -835h17l441 835h235l-618 -1089h-237l-158 1089h217z" />
    <glyph glyph-name="w" unicode="w" horiz-adv-x="1640" 
d="M1208 0h-224l-57 797h-17l-391 -797h-221l-68 1089h202l34 -824h16l391 824h214l46 -831h16l374 831h216z" />
    <glyph glyph-name="x" unicode="x" horiz-adv-x="1117" 
d="M571 383l-316 -383h-246l476 550l-248 539h235l160 -382h17l313 382h248l-475 -545l248 -544h-226l-169 383h-17z" />
    <glyph glyph-name="y" unicode="y" horiz-adv-x="1146" 
d="M24 -388l33 185q31 -9 95 -9q123 0 207 155l33 60l-164 1086h216l105 -842h17l448 842h233l-666 -1173q-97 -177 -197 -247q-94 -66 -237 -66q-57 0 -123 9z" />
    <glyph glyph-name="z" unicode="z" horiz-adv-x="1124" 
d="M95 146l737 744l2 17h-571l38 182h852l-34 -157l-719 -733l-3 -17h567l-37 -182h-862z" />
    <glyph glyph-name="braceleft" unicode="{" horiz-adv-x="860" 
d="M362 604q147 -28 147 -165q0 -33 -10 -83l-65 -301q-11 -50 -11 -83q0 -71 46 -104q45 -33 144 -33h45l-35 -171h-66q-159 0 -254 69q-93 68 -93 181q0 57 14 117l56 258q12 57 12 96q0 61 -34 88q-33 25 -108 25l47 229q97 0 146 46q47 46 73 165l53 239q39 183 161 266
q114 77 321 77h67l-35 -175h-45q-122 0 -185 -50t-88 -167l-59 -270q-47 -219 -241 -237z" />
    <glyph glyph-name="bar" unicode="|" horiz-adv-x="703" 
d="M123 -310l373 1753h191l-373 -1753h-191z" />
    <glyph glyph-name="braceright" unicode="}" horiz-adv-x="860" 
d="M618 581q-147 28 -147 164q0 33 10 83l66 301q10 53 10 83q0 71 -45 104t-145 33h-45l35 171h66q160 0 254 -69q93 -68 93 -180q0 -56 -13 -118l-57 -258q-12 -55 -12 -95q0 -62 34 -88q33 -26 108 -26l-46 -229q-98 0 -146 -46t-74 -164l-53 -240q-39 -183 -161 -266
q-114 -77 -320 -77h-68l35 175h45q122 0 185 50q64 50 89 167l59 270q46 219 240 238z" />
    <glyph glyph-name="asciitilde" unicode="~" horiz-adv-x="1210" 
d="M523 613q-66 72 -74 79q-40 36 -77 36q-101 0 -132 -163h-192q23 175 115 274q88 93 212 93q112 0 217 -115q65 -72 73 -80q40 -36 77 -36q102 0 133 164h192q-23 -176 -113 -274q-87 -93 -212 -93q-114 0 -219 115z" />
    <glyph glyph-name="uni00A0" unicode="&#xa0;" horiz-adv-x="560" 
 />
    <glyph glyph-name="exclamdown" unicode="&#xa1;" horiz-adv-x="669" 
d="M75 -333l226 966h202l-185 -966h-243zM589 1090q42 -43 42 -106q0 -67 -42 -111q-44 -45 -112 -45t-111 44q-43 43 -43 107q0 67 43 111t111 44t112 -44z" />
    <glyph glyph-name="cent" unicode="&#xa2;" horiz-adv-x="1359" 
d="M1214 513q-30 -148 -148 -244q-121 -99 -294 -112l-38 -180h-197l42 200q-142 42 -223 158q-82 118 -82 284q0 276 151 464q152 188 390 206l33 156h197l-37 -176q114 -37 188 -119t89 -187q2 -13 4 -45h-212q-7 80 -73 131q-66 50 -162 50q-150 0 -249 -132
q-98 -130 -98 -325q0 -138 68 -216q66 -77 179 -77q198 0 257 164h215z" />
    <glyph glyph-name="sterling" unicode="&#xa3;" horiz-adv-x="1360" 
d="M1173 2h-1084l39 198q140 18 250 115q126 110 131 267q0 31 -4 64h-313l35 175h264q-13 128 -13 174q0 227 139 352q146 131 425 131q224 0 370 -70l-41 -193q-114 65 -315 65q-164 0 -254 -70q-96 -74 -96 -217q0 -62 11 -172h412l-35 -175h-366q2 -30 2 -43
q-3 -302 -260 -385l-3 -16h746z" />
    <glyph glyph-name="currency" unicode="&#xa4;" horiz-adv-x="1359" 
d="M544 476q75 -74 179 -74t179 74q74 74 74 177q0 102 -74 176q-75 74 -179 74t-179 -74t-75 -176q0 -103 75 -177zM1089 844q46 -90 46 -191q0 -144 -86 -257l103 -132l-150 -129l-106 137q-83 -39 -173 -39q-147 0 -260 94l-230 -192l-104 138l226 189q-45 90 -45 191
q0 144 87 256l-105 133l150 129l107 -138q83 39 174 39q144 0 258 -93l230 191l104 -138z" />
    <glyph glyph-name="yen" unicode="&#xa5;" horiz-adv-x="1360" 
d="M780 242l-51 -242h-228l52 242h-275l31 150h276l32 152h-275l31 150h215l-288 749h233l242 -631h17l497 631h252l-594 -749h200l-32 -150h-272l-33 -152h273l-32 -150h-271z" />
    <glyph glyph-name="brokenbar" unicode="&#xa6;" horiz-adv-x="703" 
d="M354 774l142 669h191l-142 -669h-191zM123 -310l142 669h191l-142 -669h-191z" />
    <glyph glyph-name="section" unicode="&#xa7;" horiz-adv-x="1032" 
d="M595 387q88 17 141 67t53 118q0 100 -118 146l-93 40q-91 -11 -151 -61q-61 -51 -61 -122q0 -93 132 -145zM166 -182q-118 91 -125 234h204q15 -66 71 -107q59 -42 143 -42q93 0 151 42t58 108q0 91 -117 136l-152 64q-237 97 -237 288q0 108 74 186q72 75 193 101l3 18
q-151 95 -151 239q0 146 113 238q112 90 287 90q168 0 276 -87q105 -85 122 -228h-199q-11 64 -66 102q-54 39 -135 39q-84 0 -138 -41q-54 -40 -54 -103q0 -85 129 -135l136 -60q124 -51 182 -116q62 -70 62 -171q0 -105 -69 -186q-72 -84 -193 -111l-3 -14
q146 -94 146 -239q0 -146 -120 -240q-119 -94 -304 -94q-171 0 -287 89z" />
    <glyph glyph-name="dieresis" unicode="&#xa8;" horiz-adv-x="1085" 
d="M464 1304q-38 38 -38 95t38 96q39 39 95 39q57 0 96 -39q38 -39 38 -96t-38 -95q-39 -39 -96 -39q-56 0 -95 39zM891 1304q-38 38 -38 95t38 96q39 39 95 39q57 0 96 -39q38 -39 38 -96t-38 -95q-39 -39 -96 -39q-56 0 -95 39z" />
    <glyph glyph-name="copyright" unicode="&#xa9;" horiz-adv-x="1742" 
d="M376 52q-214 208 -214 509q0 370 252 619q252 250 625 250q315 0 526 -204q211 -205 211 -510q0 -371 -251 -621q-252 -250 -627 -250q-309 0 -522 207zM1417 200q207 206 207 502q0 250 -170 414q-170 165 -428 165q-297 0 -504 -206q-208 -206 -208 -501
q0 -247 172 -413q172 -167 426 -167q298 0 505 206zM1180 779q-4 62 -53 102q-49 39 -121 39q-109 0 -182 -95q-74 -96 -74 -237q0 -100 49 -158q49 -57 135 -57q140 0 186 113h155q-27 -115 -123 -183q-95 -68 -228 -68q-148 0 -238 95q-91 94 -91 248q0 206 119 342
q119 135 301 135q138 0 226 -76q86 -77 90 -200h-151z" />
    <glyph glyph-name="ordfeminine" unicode="&#xaa;" horiz-adv-x="974" 
d="M584 933q-95 -5 -148 -40q-53 -36 -53 -96q0 -52 42 -85t110 -33q86 0 153 49q66 49 83 125l19 88zM260 589q-78 71 -78 181q0 137 103 216t291 85l243 8q9 45 13 57q5 30 4 38q1 56 -44 88q-44 31 -122 31q-135 0 -174 -92h-198q31 122 133 192q102 69 250 69
q162 0 259 -73q97 -74 97 -196q0 -41 -7 -73l-126 -590h-194l23 111l-15 1q-92 -125 -261 -125q-119 0 -197 72z" />
    <glyph glyph-name="guillemotleft" unicode="&#xab;" horiz-adv-x="1410" 
d="M921 552l-3 -14l249 -390h-216l-262 413l2 8l435 414h243zM432 554l-2 -13l247 -393h-216l-262 413l2 8l431 414h248z" />
    <glyph glyph-name="logicalnot" unicode="&#xac;" horiz-adv-x="1360" 
d="M1127 97h-186l82 387h-797l39 196h983z" />
    <glyph glyph-name="registered" unicode="&#xae;" horiz-adv-x="1261" 
d="M493 659l105 494h243q66 0 111 -42q44 -40 44 -97q0 -66 -41 -111q-40 -44 -105 -56l91 -188h-128l-85 175h-90l-38 -175h-107zM657 923h116q102 0 102 77q0 57 -72 57h-117zM381 1263q153 152 372 152q223 0 374 -151q151 -150 151 -373q0 -218 -153 -371
q-152 -152 -372 -152q-222 0 -373 151q-152 150 -152 372q0 219 153 372zM1046 1182q-118 117 -293 117q-171 0 -290 -118q-120 -119 -120 -290q0 -173 117 -291q117 -117 291 -117q172 0 292 119q121 119 121 289q0 174 -118 291z" />
    <glyph glyph-name="macron" unicode="&#xaf;" horiz-adv-x="1086" 
d="M404 1299l32 155h696l-32 -155h-696z" />
    <glyph glyph-name="degree" unicode="&#xb0;" horiz-adv-x="815" 
d="M387 980q-84 85 -84 207t84 207q85 86 206 86t206 -86q85 -85 85 -207t-85 -207q-85 -86 -206 -86t-206 86zM699 1084q44 43 44 103q0 61 -44 103q-44 43 -106 43q-60 0 -104 -43q-45 -43 -45 -103t45 -103q44 -43 104 -43q62 0 106 43z" />
    <glyph glyph-name="plusminus" unicode="&#xb1;" horiz-adv-x="1360" 
d="M129 94l36 182h1011l-37 -182h-1010zM789 390h-188l58 267h-411l35 174h411l59 266h188l-59 -266h412l-35 -174h-412z" />
    <glyph glyph-name="uni00B2" unicode="&#xb2;" horiz-adv-x="877" 
d="M352 1538q11 131 112 215q102 84 250 84q136 0 224 -72t88 -182q0 -83 -55 -155q-55 -73 -209 -190q-192 -149 -205 -158l-2 -11h388l-35 -171h-673l32 155l344 269q128 99 169 147q41 47 41 94t-35 76q-35 30 -90 30q-58 0 -100 -35t-53 -94v-2h-191z" />
    <glyph glyph-name="uni00B3" unicode="&#xb3;" horiz-adv-x="895" 
d="M578 1444h119q69 0 113 36q43 35 43 90q0 46 -36 74t-96 28q-52 0 -93 -28t-56 -74h-190q25 122 122 194q97 73 234 73q138 0 227 -68q89 -69 89 -174q0 -89 -60 -153q-61 -65 -156 -76l-1 -12q159 -36 159 -189q0 -128 -103 -210t-265 -82t-262 88q-99 89 -83 220h195
q0 -60 41 -97q42 -37 110 -37q74 0 118 38q44 37 44 99q0 48 -40 79q-40 30 -104 30h-99z" />
    <glyph glyph-name="acute" unicode="&#xb4;" horiz-adv-x="1085" 
d="M818 1615h252l-354 -344h-222z" />
    <glyph glyph-name="paragraph" unicode="&#xb6;" horiz-adv-x="1399" 
d="M573 -237l164 762q-183 7 -296 118q-114 109 -114 277q0 229 163 374q162 145 423 149h233l-357 -1680h-216zM1300 1443h216l-356 -1680h-216z" />
    <glyph glyph-name="periodcentered" unicode="&#xb7;" horiz-adv-x="663" 
d="M309 624q-43 43 -43 110q0 70 43 115q44 46 114 46q69 0 112 -45q43 -44 43 -111q0 -70 -43 -115t-112 -45q-70 0 -114 45z" />
    <glyph glyph-name="cedilla" unicode="&#xb8;" horiz-adv-x="1086" 
d="M281 -131l107 166h156l-105 -165q172 -23 172 -160q0 -90 -71 -146q-70 -56 -182 -56q-100 0 -179 36l25 119q63 -27 145 -27q99 0 99 64q0 67 -127 67h-54z" />
    <glyph glyph-name="uni00B9" unicode="&#xb9;" horiz-adv-x="708" 
d="M593 1603h-12l-254 -150l41 199l269 160h207l-194 -914h-208z" />
    <glyph glyph-name="ordmasculine" unicode="&#xba;" horiz-adv-x="1053" 
d="M513 1183q-79 -102 -79 -254q0 -116 52 -182q52 -65 144 -65q115 0 195 106q81 107 81 259q0 111 -53 175t-144 64q-117 0 -196 -103zM327 614q-106 112 -106 302q0 235 145 393q145 157 362 157q181 0 285 -111q105 -111 105 -303q0 -235 -144 -392q-145 -157 -360 -157
q-181 0 -287 111z" />
    <glyph glyph-name="guillemotright" unicode="&#xbb;" horiz-adv-x="1413" 
d="M351 983h216l262 -414l-2 -8l-434 -413h-244l449 431l2 14zM843 983h217l262 -414l-2 -8l-432 -413h-247l447 429l3 13z" />
    <glyph glyph-name="onequarter" unicode="&#xbc;" horiz-adv-x="2135" 
d="M1705 153h-449l34 192q136 185 473 569h300l-126 -589h116l-34 -172h-117l-33 -153h-197zM1473 318h270l94 437h-10q-203 -229 -352 -427zM607 1234h-12l-254 -150l41 199l269 160h207l-194 -914h-208zM1047 757l450 686h210l-502 -733l-464 -710h-210z" />
    <glyph glyph-name="onehalf" unicode="&#xbd;" horiz-adv-x="2126" 
d="M1431 640q11 131 112 215q102 84 250 84q136 0 224 -72t88 -182q0 -83 -55 -155q-55 -73 -209 -190q-192 -149 -205 -158l-2 -11h388l-35 -171h-673l32 155l344 269q128 99 169 147q41 47 41 94t-35 76q-35 30 -90 30q-58 0 -100 -35t-53 -94v-2h-191zM607 1234h-12
l-254 -150l41 199l269 160h207l-194 -914h-208zM1047 757l450 686h210l-502 -733l-464 -710h-210z" />
    <glyph glyph-name="threequarters" unicode="&#xbe;" horiz-adv-x="2270" 
d="M520 1075h119q69 0 113 36q43 35 43 90q0 46 -36 74t-96 28q-52 0 -93 -28t-56 -74h-190q25 122 122 194q97 73 234 73q138 0 227 -68q89 -69 89 -174q0 -89 -60 -153q-61 -65 -156 -76l-1 -12q159 -36 159 -189q0 -128 -103 -210t-265 -82t-262 88q-99 89 -83 220h195
q0 -60 41 -97q42 -37 110 -37q74 0 118 38q44 37 44 99q0 48 -40 79q-40 30 -104 30h-99zM1854 153h-449l34 192q137 185 473 569h300l-126 -589h116l-34 -172h-117l-33 -153h-197zM1622 318h270l94 437h-10q-202 -229 -352 -427zM1196 757l450 686h210l-502 -733l-464 -710
h-210z" />
    <glyph glyph-name="questiondown" unicode="&#xbf;" horiz-adv-x="1082" 
d="M829 1092q43 -42 43 -107q0 -69 -43 -113q-44 -45 -112 -45t-111 42q-44 42 -44 108q0 67 43 112q44 45 112 45t112 -42zM945 37q-31 -174 -153 -276q-127 -106 -323 -106q-193 0 -315 100q-119 96 -119 243q0 127 80 234q77 104 208 163q110 49 155 94q47 46 61 121
l10 52h212l-16 -73q-25 -127 -86 -196q-56 -64 -176 -118q-218 -102 -218 -256q0 -72 56 -120q60 -51 161 -51q93 0 160 50t93 139h210z" />
    <glyph glyph-name="Agrave" unicode="&#xc0;" horiz-adv-x="1423" 
d="M1012 383h-554l-215 -383h-237l836 1443h232l212 -1443h-224zM554 571h440l-82 608h-16zM1088 1582h-213l-210 306h242z" />
    <glyph glyph-name="Aacute" unicode="&#xc1;" horiz-adv-x="1423" 
d="M1012 383h-554l-215 -383h-237l836 1443h232l212 -1443h-224zM554 571h440l-82 608h-16zM1238 1888h258l-390 -306h-230z" />
    <glyph glyph-name="Acircumflex" unicode="&#xc2;" horiz-adv-x="1423" 
d="M1012 383h-554l-215 -383h-237l836 1443h232l212 -1443h-224zM554 571h440l-82 608h-16zM1343 1582h-208l-100 188h-17l-179 -188h-231l316 314h234z" />
    <glyph glyph-name="Atilde" unicode="&#xc3;" horiz-adv-x="1423" 
d="M1012 383h-554l-215 -383h-237l836 1443h232l212 -1443h-224zM554 571h440l-82 608h-16zM991 1654q-88 77 -122 77q-86 0 -108 -112h-156q19 123 93 194q71 70 170 70q92 0 180 -77q88 -78 123 -78q86 0 108 112h156q-18 -122 -92 -194q-71 -70 -170 -70q-93 0 -182 78z
" />
    <glyph glyph-name="Adieresis" unicode="&#xc4;" horiz-adv-x="1423" 
d="M1012 383h-554l-215 -383h-237l836 1443h232l212 -1443h-224zM554 571h440l-82 608h-16zM706 1616q-38 38 -38 95t38 96q39 39 95 39q57 0 96 -39q38 -39 38 -96t-38 -95q-39 -39 -96 -39q-56 0 -95 39zM1133 1616q-38 38 -38 95t38 96q39 39 95 39q57 0 96 -39
q38 -39 38 -96t-38 -95q-39 -39 -96 -39q-56 0 -95 39z" />
    <glyph glyph-name="Aring" unicode="&#xc5;" horiz-adv-x="1423" 
d="M1012 383h-554l-215 -383h-237l836 1443h232l212 -1443h-224zM554 571h440l-82 608h-16zM867 1641q-69 68 -69 167t69 166q68 67 168 67t168 -67q69 -67 69 -166t-69 -167q-69 -67 -168 -67t-168 67zM1118 1726q33 32 33 82q0 49 -33 81q-33 33 -83 33t-83 -33
q-33 -32 -33 -81q0 -50 33 -82q33 -33 83 -33t83 33z" />
    <glyph glyph-name="AE" unicode="&#xc6;" horiz-adv-x="1999" 
d="M1056 1253l-427 -647h429l139 647h-141zM1020 417h-505l-280 -417h-230l938 1443h1163l-42 -204h-655l-91 -415h619l-40 -195h-618l-95 -425h656l-41 -204h-871z" />
    <glyph glyph-name="Ccedilla" unicode="&#xc7;" horiz-adv-x="1490" 
d="M1299 966q1 1 1 7q-10 134 -105 214q-96 80 -246 80q-222 0 -374 -198t-152 -489q0 -187 99 -296q98 -109 266 -109q138 0 244 66q107 66 145 175h229q-47 -190 -197 -309q-149 -119 -365 -139l-63 -99q172 -23 172 -160q0 -90 -71 -146q-70 -56 -182 -56q-100 0 -179 36
l25 119q63 -27 145 -27q99 0 99 64q0 67 -127 67h-54l14 102l65 101q-227 25 -361 183q-135 160 -135 408q0 398 220 659q219 259 553 259q239 0 399 -140q159 -140 159 -350q0 -14 -1 -22h-223z" />
    <glyph glyph-name="Egrave" unicode="&#xc8;" horiz-adv-x="1239" 
d="M1009 1582h-213l-210 306h242zM1032 0h-918l307 1443h917l-41 -204h-690l-91 -408h654l-40 -194h-653l-96 -433h691z" />
    <glyph glyph-name="Eacute" unicode="&#xc9;" horiz-adv-x="1239" 
d="M1159 1888h258l-390 -306h-230zM1032 0h-918l307 1443h917l-41 -204h-690l-91 -408h654l-40 -194h-653l-96 -433h691z" />
    <glyph glyph-name="Ecircumflex" unicode="&#xca;" horiz-adv-x="1239" 
d="M1264 1582h-208l-100 188h-17l-179 -188h-231l316 314h234zM1032 0h-918l307 1443h917l-41 -204h-690l-91 -408h654l-40 -194h-653l-96 -433h691z" />
    <glyph glyph-name="Edieresis" unicode="&#xcb;" horiz-adv-x="1239" 
d="M627 1616q-38 38 -38 95t38 96q39 39 95 39q57 0 96 -39q38 -39 38 -96t-38 -95q-39 -39 -96 -39q-56 0 -95 39zM1054 1616q-38 38 -38 95t38 96q39 39 95 39q57 0 96 -39q38 -39 38 -96t-38 -95q-39 -39 -96 -39q-56 0 -95 39zM1032 0h-918l307 1443h917l-41 -204h-690
l-91 -408h654l-40 -194h-653l-96 -433h691z" />
    <glyph glyph-name="Igrave" unicode="&#xcc;" horiz-adv-x="587" 
d="M114 0l307 1443h227l-307 -1443h-227zM665 1582h-213l-210 306h242z" />
    <glyph glyph-name="Iacute" unicode="&#xcd;" horiz-adv-x="587" 
d="M114 0l307 1443h227l-307 -1443h-227zM815 1888h258l-390 -306h-230z" />
    <glyph glyph-name="Icircumflex" unicode="&#xce;" horiz-adv-x="587" 
d="M114 0l307 1443h227l-307 -1443h-227zM920 1582h-208l-100 188h-17l-179 -188h-231l316 314h234z" />
    <glyph glyph-name="Idieresis" unicode="&#xcf;" horiz-adv-x="587" 
d="M114 0l307 1443h227l-307 -1443h-227zM283 1616q-38 38 -38 95t38 96q39 39 95 39q57 0 96 -39q38 -39 38 -96t-38 -95q-39 -39 -96 -39q-56 0 -95 39zM710 1616q-38 38 -38 95t38 96q39 39 95 39q57 0 96 -39q38 -39 38 -96t-38 -95q-39 -39 -96 -39q-56 0 -95 39z" />
    <glyph glyph-name="Eth" unicode="&#xd0;" horiz-adv-x="1497" 
d="M724 202q226 0 374 171q149 173 149 438q0 202 -110 316t-308 114h-221l-89 -407h192l-39 -191h-194l-96 -441h342zM863 1443q291 0 453 -163q162 -162 162 -449q0 -358 -214 -595q-214 -236 -535 -236h-614l136 643h-190l39 191h192l129 609h442z" />
    <glyph glyph-name="Ntilde" unicode="&#xd1;" horiz-adv-x="1539" 
d="M1043 1654q-88 77 -122 77q-86 0 -108 -112h-156q19 123 93 194q71 70 170 70q92 0 180 -77q88 -78 123 -78q86 0 108 112h156q-18 -122 -92 -194q-71 -70 -170 -70q-93 0 -182 78zM114 0l307 1443h196l514 -1055h17l229 1055h223l-307 -1443h-198l-514 1051h-17
l-228 -1051h-222z" />
    <glyph glyph-name="Ograve" unicode="&#xd2;" horiz-adv-x="1593" 
d="M1105 1580h-213l-210 306h242zM361 137q-168 170 -168 432q0 394 224 652q222 257 560 257q264 0 431 -171q165 -170 165 -433q0 -397 -222 -654q-221 -255 -559 -255q-263 0 -431 172zM1236 1153q-104 113 -272 113q-229 0 -383 -195q-155 -195 -155 -484
q0 -185 105 -298q104 -113 275 -113q230 0 382 193q152 194 152 486q0 184 -104 298z" />
    <glyph glyph-name="Oacute" unicode="&#xd3;" horiz-adv-x="1593" 
d="M1255 1886h258l-390 -306h-230zM361 137q-168 170 -168 432q0 394 224 652q222 257 560 257q264 0 431 -171q165 -170 165 -433q0 -397 -222 -654q-221 -255 -559 -255q-263 0 -431 172zM1236 1153q-104 113 -272 113q-229 0 -383 -195q-155 -195 -155 -484
q0 -185 105 -298q104 -113 275 -113q230 0 382 193q152 194 152 486q0 184 -104 298z" />
    <glyph glyph-name="Ocircumflex" unicode="&#xd4;" horiz-adv-x="1593" 
d="M1360 1580h-208l-100 188h-17l-179 -188h-231l316 314h234zM361 137q-168 170 -168 432q0 394 224 652q222 257 560 257q264 0 431 -171q165 -170 165 -433q0 -397 -222 -654q-221 -255 -559 -255q-263 0 -431 172zM1236 1153q-104 113 -272 113q-229 0 -383 -195
q-155 -195 -155 -484q0 -185 105 -298q104 -113 275 -113q230 0 382 193q152 194 152 486q0 184 -104 298z" />
    <glyph glyph-name="Otilde" unicode="&#xd5;" horiz-adv-x="1593" 
d="M361 137q-168 170 -168 432q0 394 224 652q222 257 560 257q264 0 431 -171q165 -170 165 -433q0 -397 -222 -654q-221 -255 -559 -255q-263 0 -431 172zM1236 1153q-104 113 -272 113q-229 0 -383 -195q-155 -195 -155 -484q0 -185 105 -298q104 -113 275 -113
q230 0 382 193q152 194 152 486q0 184 -104 298zM1008 1652q-88 77 -122 77q-86 0 -108 -112h-156q19 123 93 194q71 70 170 70q92 0 180 -77q88 -78 123 -78q86 0 108 112h156q-18 -122 -92 -194q-71 -70 -170 -70q-93 0 -182 78z" />
    <glyph glyph-name="Odieresis" unicode="&#xd6;" horiz-adv-x="1593" 
d="M723 1614q-38 38 -38 95t38 96q39 39 95 39q57 0 96 -39q38 -39 38 -96t-38 -95q-39 -39 -96 -39q-56 0 -95 39zM1150 1614q-38 38 -38 95t38 96q39 39 95 39q57 0 96 -39q38 -39 38 -96t-38 -95q-39 -39 -96 -39q-56 0 -95 39zM361 137q-168 170 -168 432q0 394 224 652
q222 257 560 257q264 0 431 -171q165 -170 165 -433q0 -397 -222 -654q-221 -255 -559 -255q-263 0 -431 172zM1236 1153q-104 113 -272 113q-229 0 -383 -195q-155 -195 -155 -484q0 -185 105 -298q104 -113 275 -113q230 0 382 193q152 194 152 486q0 184 -104 298z" />
    <glyph glyph-name="multiply" unicode="&#xd7;" horiz-adv-x="1359" 
d="M715 437l-368 -295l-112 155l368 295l-237 311l157 127l235 -306l369 295l112 -156l-368 -295l234 -311l-157 -127z" />
    <glyph glyph-name="Oslash" unicode="&#xd8;" horiz-adv-x="1566" 
d="M600 232q89 -56 206 -56q230 0 382 193q152 194 152 486q0 166 -86 277zM1164 1212q-86 54 -200 54q-229 0 -383 -195q-155 -195 -155 -484q0 -162 83 -272zM1392 1322q181 -171 181 -448q0 -397 -222 -654q-221 -255 -559 -255q-181 0 -323 86l-78 -107l-101 71l81 111
q-178 172 -178 443q0 394 224 652q222 257 560 257q180 0 320 -84l74 102l101 -64z" />
    <glyph glyph-name="Ugrave" unicode="&#xd9;" horiz-adv-x="1538" 
d="M1140 1582h-213l-210 306h242zM363 97q-136 125 -138 326q-1 58 13 127l187 893h228l-186 -882q-13 -64 -12 -120q4 -124 85 -193q84 -72 237 -72q150 0 255 86q106 86 139 239l201 942h227l-210 -992q-50 -232 -210 -357q-165 -129 -429 -129q-245 0 -387 132z" />
    <glyph glyph-name="Uacute" unicode="&#xda;" horiz-adv-x="1538" 
d="M1290 1888h258l-390 -306h-230zM363 97q-136 125 -138 326q-1 58 13 127l187 893h228l-186 -882q-13 -64 -12 -120q4 -124 85 -193q84 -72 237 -72q150 0 255 86q106 86 139 239l201 942h227l-210 -992q-50 -232 -210 -357q-165 -129 -429 -129q-245 0 -387 132z" />
    <glyph glyph-name="Ucircumflex" unicode="&#xdb;" horiz-adv-x="1538" 
d="M1395 1582h-208l-100 188h-17l-179 -188h-231l316 314h234zM363 97q-136 125 -138 326q-1 58 13 127l187 893h228l-186 -882q-13 -64 -12 -120q4 -124 85 -193q84 -72 237 -72q150 0 255 86q106 86 139 239l201 942h227l-210 -992q-50 -232 -210 -357
q-165 -129 -429 -129q-245 0 -387 132z" />
    <glyph glyph-name="Udieresis" unicode="&#xdc;" horiz-adv-x="1538" 
d="M759 1616q-39 38 -39 95t39 96q38 39 94 39q57 0 96 -39q38 -39 38 -96t-38 -95q-39 -39 -96 -39q-56 0 -94 39zM1186 1616q-39 38 -39 95t39 96q38 39 94 39q57 0 96 -39q38 -39 38 -96t-38 -95q-39 -39 -96 -39q-56 0 -94 39zM363 97q-136 125 -138 326q-1 58 13 127
l187 893h228l-186 -882q-13 -64 -12 -120q4 -124 85 -193q84 -72 237 -72q150 0 255 86q106 86 139 239l201 942h227l-210 -992q-50 -232 -210 -357q-165 -129 -429 -129q-245 0 -387 132z" />
    <glyph glyph-name="Yacute" unicode="&#xdd;" horiz-adv-x="1383" 
d="M512 0l126 582l-327 861h234l242 -631h17l497 631h251l-693 -881l-120 -562h-227zM1211 1888h258l-390 -306h-230z" />
    <glyph glyph-name="Thorn" unicode="&#xde;" horiz-adv-x="1317" 
d="M422 1443h223l-55 -251h310q177 0 289 -104q113 -105 113 -270q0 -218 -156 -356q-157 -139 -407 -139h-331l-70 -323h-223zM448 521h274q164 0 257 73t93 201q0 94 -62 145q-63 53 -183 53h-277z" />
    <glyph glyph-name="germandbls" unicode="&#xdf;" horiz-adv-x="1362" 
d="M142 0l230 1079q35 166 162 261q127 96 314 96q185 0 306 -98t121 -248q0 -136 -89 -231q-90 -95 -231 -111l-4 -19q142 -19 224 -99q82 -82 82 -205q0 -195 -142 -319t-363 -124q-125 0 -223 37l39 188q76 -33 178 -33q125 0 210 73q86 73 86 180q0 95 -77 151
q-77 55 -207 55h-72l41 202h77q105 0 180 63q74 64 74 155q0 85 -61 137q-60 52 -158 52q-103 0 -173 -61q-69 -62 -94 -175l-214 -1006h-216z" />
    <glyph glyph-name="agrave" unicode="&#xe0;" horiz-adv-x="1153" 
d="M701 225q85 63 107 159l25 112l-265 -12q-120 -5 -188 -52q-67 -46 -67 -122q0 -65 54 -107q53 -42 138 -42q110 0 196 64zM191 68q-94 85 -94 213q0 163 123 258q124 95 351 103l295 12l15 71q6 32 6 46q0 71 -57 112q-57 40 -157 40q-173 0 -222 -119h-215
q35 141 158 224q123 82 296 82q186 0 299 -85q113 -86 113 -227q0 -46 -9 -88l-150 -710h-209l30 139h-17q-115 -157 -321 -157q-141 0 -235 86zM618 1271l-222 344h247l191 -344h-216z" />
    <glyph glyph-name="aacute" unicode="&#xe1;" horiz-adv-x="1153" 
d="M701 225q85 63 107 159l25 112l-265 -12q-120 -5 -188 -52q-67 -46 -67 -122q0 -65 54 -107q53 -42 138 -42q110 0 196 64zM191 68q-94 85 -94 213q0 163 123 258q124 95 351 103l295 12l15 71q6 32 6 46q0 71 -57 112q-57 40 -157 40q-173 0 -222 -119h-215
q35 141 158 224q123 82 296 82q186 0 299 -85q113 -86 113 -227q0 -46 -9 -88l-150 -710h-209l30 139h-17q-115 -157 -321 -157q-141 0 -235 86zM959 1615h252l-354 -344h-222z" />
    <glyph glyph-name="acircumflex" unicode="&#xe2;" horiz-adv-x="1153" 
d="M701 225q85 63 107 159l25 112l-265 -12q-120 -5 -188 -52q-67 -46 -67 -122q0 -65 54 -107q53 -42 138 -42q110 0 196 64zM191 68q-94 85 -94 213q0 163 123 258q124 95 351 103l295 12l15 71q6 32 6 46q0 71 -57 112q-57 40 -157 40q-173 0 -222 -119h-215
q35 141 158 224q123 82 296 82q186 0 299 -85q113 -86 113 -227q0 -46 -9 -88l-150 -710h-209l30 139h-17q-115 -157 -321 -157q-141 0 -235 86zM1122 1238h-210l-120 219h-17l-213 -219h-233l352 346h234z" />
    <glyph glyph-name="atilde" unicode="&#xe3;" horiz-adv-x="1153" 
d="M701 225q85 63 107 159l25 112l-265 -12q-120 -5 -188 -52q-67 -46 -67 -122q0 -65 54 -107q53 -42 138 -42q110 0 196 64zM191 68q-94 85 -94 213q0 163 123 258q124 95 351 103l295 12l15 71q6 32 6 46q0 71 -57 112q-57 40 -157 40q-173 0 -222 -119h-215
q35 141 158 224q123 82 296 82q186 0 299 -85q113 -86 113 -227q0 -46 -9 -88l-150 -710h-209l30 139h-17q-115 -157 -321 -157q-141 0 -235 86zM755 1318q-83 87 -120 87q-83 0 -107 -132h-157q15 133 89 210q72 74 176 74q96 0 179 -87q83 -88 121 -88q84 0 108 132h157
q-16 -132 -89 -209q-72 -75 -177 -75q-96 0 -180 88z" />
    <glyph glyph-name="adieresis" unicode="&#xe4;" horiz-adv-x="1153" 
d="M701 225q85 63 107 159l25 112l-265 -12q-120 -5 -188 -52q-67 -46 -67 -122q0 -65 54 -107q53 -42 138 -42q110 0 196 64zM191 68q-94 85 -94 213q0 163 123 258q124 95 351 103l295 12l15 71q6 32 6 46q0 71 -57 112q-57 40 -157 40q-173 0 -222 -119h-215
q35 141 158 224q123 82 296 82q186 0 299 -85q113 -86 113 -227q0 -46 -9 -88l-150 -710h-209l30 139h-17q-115 -157 -321 -157q-141 0 -235 86zM456 1277q-38 38 -38 95t38 96q39 39 95 39q57 0 96 -39q38 -39 38 -96t-38 -95q-39 -39 -96 -39q-56 0 -95 39zM883 1277
q-38 38 -38 95t38 96q39 39 95 39q57 0 96 -39q38 -39 38 -96t-38 -95q-39 -39 -96 -39q-56 0 -95 39z" />
    <glyph glyph-name="aring" unicode="&#xe5;" horiz-adv-x="1153" 
d="M701 225q85 63 107 159l25 112l-265 -12q-120 -5 -188 -52q-67 -46 -67 -122q0 -65 54 -107q53 -42 138 -42q110 0 196 64zM191 68q-94 85 -94 213q0 163 123 258q124 95 351 103l295 12l15 71q6 32 6 46q0 71 -57 112q-57 40 -157 40q-173 0 -222 -119h-215
q35 141 158 224q123 82 296 82q186 0 299 -85q113 -86 113 -227q0 -46 -9 -88l-150 -710h-209l30 139h-17q-115 -157 -321 -157q-141 0 -235 86zM631 1305q-69 68 -69 167t69 166q68 67 168 67t168 -67q69 -67 69 -166t-69 -167q-69 -67 -168 -67t-168 67zM882 1390
q33 32 33 82q0 49 -33 81q-33 33 -83 33t-83 -33q-33 -32 -33 -81q0 -50 33 -82q33 -33 83 -33t83 33z" />
    <glyph glyph-name="ae" unicode="&#xe6;" horiz-adv-x="1887" 
d="M1048 40q-110 62 -153 162h-16q-59 -95 -168 -157q-118 -66 -249 -66q-160 0 -263 88q-102 86 -102 216q0 166 123 260t352 102l294 12l16 68q5 25 5 46q0 71 -57 112q-56 40 -156 40q-173 0 -222 -119h-216q36 142 158 225q121 81 294 81q252 0 343 -163h17
q141 163 363 163q180 0 300 -118q125 -125 126 -329q0 -84 -15 -170h-774q-2 -28 -2 -45q0 -140 81 -215q69 -66 176 -66q184 0 251 126h218q-35 -140 -163 -225q-134 -89 -329 -89q-125 0 -232 61zM1621 651q2 12 2 43q0 100 -59 164q-63 69 -171 69q-114 0 -200 -76
q-84 -74 -119 -200h547zM702 223q85 64 107 161l25 112l-266 -12q-120 -5 -187 -51q-68 -46 -68 -123q0 -66 54 -109t138 -43q111 0 197 65z" />
    <glyph glyph-name="ccedilla" unicode="&#xe7;" horiz-adv-x="1170" 
d="M950 737q-7 80 -74 131q-66 50 -162 50q-150 0 -249 -131q-98 -130 -98 -325q0 -137 69 -215q66 -75 179 -75q198 0 257 165h215q-30 -152 -154 -249q-125 -100 -304 -108l-70 -111q172 -23 172 -160q0 -90 -71 -146q-70 -56 -182 -56q-100 0 -179 36l25 119
q63 -27 145 -27q99 0 99 64q0 67 -127 67h-54l14 102l80 123q-155 35 -244 153q-90 120 -90 295q0 289 164 480q165 191 419 191q170 0 291 -96q116 -93 137 -231q2 -14 4 -46h-212z" />
    <glyph glyph-name="egrave" unicode="&#xe8;" horiz-adv-x="1198" 
d="M616 1271l-222 344h247l191 -344h-216zM280 99q-132 126 -132 341q0 299 161 485q159 185 413 185q184 0 304 -118q125 -124 126 -329q0 -78 -14 -170h-775q-1 -14 -1 -44q0 -140 80 -216q70 -66 176 -66q185 0 252 126h218q-36 -140 -162 -225q-132 -89 -322 -89
q-199 0 -324 120zM936 651q3 18 3 43q0 100 -59 164q-64 69 -172 69q-114 0 -200 -76q-84 -74 -119 -200h547z" />
    <glyph glyph-name="eacute" unicode="&#xe9;" horiz-adv-x="1198" 
d="M957 1615h252l-354 -344h-222zM280 99q-132 126 -132 341q0 299 161 485q159 185 413 185q184 0 304 -118q125 -124 126 -329q0 -78 -14 -170h-775q-1 -14 -1 -44q0 -140 80 -216q70 -66 176 -66q185 0 252 126h218q-36 -140 -162 -225q-132 -89 -322 -89
q-199 0 -324 120zM936 651q3 18 3 43q0 100 -59 164q-64 69 -172 69q-114 0 -200 -76q-84 -74 -119 -200h547z" />
    <glyph glyph-name="ecircumflex" unicode="&#xea;" horiz-adv-x="1198" 
d="M1132 1238h-210l-120 219h-17l-213 -219h-233l352 346h234zM280 99q-132 126 -132 341q0 299 161 485q159 185 413 185q184 0 304 -118q125 -124 126 -329q0 -78 -14 -170h-775q-1 -14 -1 -44q0 -140 80 -216q70 -66 176 -66q185 0 252 126h218q-36 -140 -162 -225
q-132 -89 -322 -89q-199 0 -324 120zM936 651q3 18 3 43q0 100 -59 164q-64 69 -172 69q-114 0 -200 -76q-84 -74 -119 -200h547z" />
    <glyph glyph-name="edieresis" unicode="&#xeb;" horiz-adv-x="1198" 
d="M280 99q-132 126 -132 341q0 299 161 485q159 185 413 185q184 0 304 -118q125 -124 126 -329q0 -78 -14 -170h-775q-1 -14 -1 -44q0 -140 80 -216q70 -66 176 -66q185 0 252 126h218q-36 -140 -162 -225q-132 -89 -322 -89q-199 0 -324 120zM936 651q3 18 3 43
q0 100 -59 164q-64 69 -172 69q-114 0 -200 -76q-84 -74 -119 -200h547zM466 1277q-38 38 -38 95t38 96q39 39 95 39q57 0 96 -39q38 -39 38 -96t-38 -95q-39 -39 -96 -39q-56 0 -95 39zM893 1277q-38 38 -38 95t38 96q39 39 95 39q57 0 96 -39q38 -39 38 -96t-38 -95
q-39 -39 -96 -39q-56 0 -95 39z" />
    <glyph glyph-name="igrave" unicode="&#xec;" horiz-adv-x="546" 
d="M338 1271l-222 344h247l191 -344h-216zM330 1089h215l-231 -1089h-215z" />
    <glyph glyph-name="iacute" unicode="&#xed;" horiz-adv-x="546" 
d="M679 1615h252l-354 -344h-222zM330 1089h215l-231 -1089h-215z" />
    <glyph glyph-name="icircumflex" unicode="&#xee;" horiz-adv-x="546" 
d="M854 1238h-210l-120 219h-17l-213 -219h-233l352 346h234zM330 1089h215l-231 -1089h-215z" />
    <glyph glyph-name="idieresis" unicode="&#xef;" horiz-adv-x="546" 
d="M330 1089h215l-231 -1089h-215zM188 1277q-38 38 -38 95t38 96q39 39 95 39q57 0 96 -39q38 -39 38 -96t-38 -95q-39 -39 -96 -39q-56 0 -95 39zM615 1277q-38 38 -38 95t38 96q39 39 95 39q57 0 96 -39q38 -39 38 -96t-38 -95q-39 -39 -96 -39q-56 0 -95 39z" />
    <glyph glyph-name="eth" unicode="&#xf0;" horiz-adv-x="1229" 
d="M266 105q-131 126 -131 317q0 273 150 458q151 185 375 185q112 0 205 -50q94 -51 128 -130l16 -1q-6 167 -108 354l-337 -101l-13 138l274 83q-44 59 -135 152h241q53 -59 78 -93l240 75l14 -139l-183 -56q128 -252 128 -507q0 -171 -41 -315q-63 -232 -212 -363
q-150 -133 -352 -133q-205 0 -337 126zM895 803q-76 75 -195 75q-144 0 -241 -126q-98 -125 -98 -307q0 -124 70 -197q69 -73 188 -73q138 0 245 131q107 132 107 302q0 119 -76 195z" />
    <glyph glyph-name="ntilde" unicode="&#xf1;" horiz-adv-x="1247" 
d="M817 1320q-83 87 -120 87q-83 0 -107 -132h-157q15 133 89 210q72 74 176 74q96 0 179 -87q83 -88 121 -88q84 0 108 132h157q-16 -132 -89 -209q-72 -75 -177 -75q-96 0 -180 88zM318 1093h209l-35 -167h17q121 184 340 184q152 0 249 -95q93 -92 93 -227
q0 -59 -15 -127l-139 -661h-217l132 623q12 54 12 96q0 88 -59 142q-59 55 -158 55q-113 0 -196 -73q-82 -71 -107 -185l-140 -658h-217z" />
    <glyph glyph-name="ograve" unicode="&#xf2;" horiz-adv-x="1238" 
d="M633 1271l-222 344h247l191 -344h-216zM440 251q69 -80 187 -80q136 0 236 127q104 131 104 321q0 141 -66 221q-65 79 -180 79q-157 0 -254 -133q-94 -130 -94 -330q0 -127 67 -205zM273 107q-126 128 -126 334q0 283 159 472q166 197 431 197q206 0 332 -128
q125 -128 125 -333q0 -279 -157 -469q-165 -201 -431 -201q-206 0 -333 128z" />
    <glyph glyph-name="oacute" unicode="&#xf3;" horiz-adv-x="1238" 
d="M974 1615h252l-354 -344h-222zM440 251q69 -80 187 -80q136 0 236 127q104 131 104 321q0 141 -66 221q-65 79 -180 79q-157 0 -254 -133q-94 -130 -94 -330q0 -127 67 -205zM273 107q-126 128 -126 334q0 283 159 472q166 197 431 197q206 0 332 -128q125 -128 125 -333
q0 -279 -157 -469q-165 -201 -431 -201q-206 0 -333 128z" />
    <glyph glyph-name="ocircumflex" unicode="&#xf4;" horiz-adv-x="1238" 
d="M1149 1238h-210l-120 219h-17l-213 -219h-233l352 346h234zM440 251q69 -80 187 -80q136 0 236 127q104 131 104 321q0 141 -66 221q-65 79 -180 79q-157 0 -254 -133q-94 -130 -94 -330q0 -127 67 -205zM273 107q-126 128 -126 334q0 283 159 472q166 197 431 197
q206 0 332 -128q125 -128 125 -333q0 -279 -157 -469q-165 -201 -431 -201q-206 0 -333 128z" />
    <glyph glyph-name="otilde" unicode="&#xf5;" horiz-adv-x="1238" 
d="M782 1318q-83 87 -120 87q-83 0 -107 -132h-157q15 133 89 210q72 74 176 74q96 0 179 -87q83 -88 121 -88q84 0 108 132h157q-16 -132 -89 -209q-72 -75 -177 -75q-96 0 -180 88zM440 251q69 -80 187 -80q136 0 236 127q104 131 104 321q0 141 -66 221q-65 79 -180 79
q-157 0 -254 -133q-94 -130 -94 -330q0 -127 67 -205zM273 107q-126 128 -126 334q0 283 159 472q166 197 431 197q206 0 332 -128q125 -128 125 -333q0 -279 -157 -469q-165 -201 -431 -201q-206 0 -333 128z" />
    <glyph glyph-name="odieresis" unicode="&#xf6;" horiz-adv-x="1238" 
d="M483 1277q-38 38 -38 95t38 96q39 39 95 39q57 0 96 -39q38 -39 38 -96t-38 -95q-39 -39 -96 -39q-56 0 -95 39zM910 1277q-38 38 -38 95t38 96q39 39 95 39q57 0 96 -39q38 -39 38 -96t-38 -95q-39 -39 -96 -39q-56 0 -95 39zM440 251q69 -80 187 -80q136 0 236 127
q104 131 104 321q0 141 -66 221q-65 79 -180 79q-157 0 -254 -133q-94 -130 -94 -330q0 -127 67 -205zM273 107q-126 128 -126 334q0 283 159 472q166 197 431 197q206 0 332 -128q125 -128 125 -333q0 -279 -157 -469q-165 -201 -431 -201q-206 0 -333 128z" />
    <glyph glyph-name="divide" unicode="&#xf7;" horiz-adv-x="1360" 
d="M199 491l36 182h1041l-37 -182h-1040zM706 853q-39 39 -39 99q0 62 39 102q40 41 101 41t100 -40t39 -99q0 -62 -39 -103q-39 -40 -100 -40t-101 40zM550 108q-39 40 -39 99q0 62 39 103q40 41 101 41t100 -40t39 -99q0 -63 -39 -103q-39 -41 -100 -41t-101 40z" />
    <glyph glyph-name="oslash" unicode="&#xf8;" horiz-adv-x="1243" 
d="M465 227q64 -56 162 -56q136 0 236 127q104 131 104 321q0 90 -28 157zM874 867q-61 52 -153 52q-157 0 -254 -133q-94 -130 -94 -330q0 -76 26 -137zM1093 955q101 -123 101 -306q0 -279 -157 -469q-165 -201 -431 -201q-164 0 -282 85l-101 -117l-89 67l110 127
q-97 122 -97 300q0 283 159 472q166 197 431 197q163 0 277 -82l99 114l88 -62z" />
    <glyph glyph-name="ugrave" unicode="&#xf9;" horiz-adv-x="1247" 
d="M679 1271l-222 344h247l191 -344h-216zM1029 0h-208l34 155h-17q-106 -176 -343 -176q-148 0 -242 89q-94 88 -94 228q0 63 15 140l136 653h218l-131 -618q-13 -63 -13 -106q0 -189 207 -189q117 0 204 75q84 73 110 192l138 646h216z" />
    <glyph glyph-name="uacute" unicode="&#xfa;" horiz-adv-x="1247" 
d="M1020 1615h252l-354 -344h-222zM1029 0h-208l34 155h-17q-106 -176 -343 -176q-148 0 -242 89q-94 88 -94 228q0 63 15 140l136 653h218l-131 -618q-13 -63 -13 -106q0 -189 207 -189q117 0 204 75q84 73 110 192l138 646h216z" />
    <glyph glyph-name="ucircumflex" unicode="&#xfb;" horiz-adv-x="1247" 
d="M1195 1238h-210l-120 219h-17l-213 -219h-233l352 346h234zM1029 0h-208l34 155h-17q-106 -176 -343 -176q-148 0 -242 89q-94 88 -94 228q0 63 15 140l136 653h218l-131 -618q-13 -63 -13 -106q0 -189 207 -189q117 0 204 75q84 73 110 192l138 646h216z" />
    <glyph glyph-name="udieresis" unicode="&#xfc;" horiz-adv-x="1247" 
d="M1029 0h-208l34 155h-17q-106 -176 -343 -176q-148 0 -242 89q-94 88 -94 228q0 63 15 140l136 653h218l-131 -618q-13 -63 -13 -106q0 -189 207 -189q117 0 204 75q84 73 110 192l138 646h216zM529 1277q-38 38 -38 95t38 96q39 39 95 39q57 0 96 -39q38 -39 38 -96
t-38 -95q-39 -39 -96 -39q-56 0 -95 39zM956 1277q-38 38 -38 95t38 96q39 39 95 39q57 0 96 -39q38 -39 38 -96t-38 -95q-39 -39 -96 -39q-56 0 -95 39z" />
    <glyph glyph-name="yacute" unicode="&#xfd;" horiz-adv-x="1146" 
d="M24 -388l33 185q31 -9 95 -9q123 0 207 155l33 60l-164 1086h216l105 -842h17l448 842h233l-666 -1173q-97 -177 -197 -247q-94 -66 -237 -66q-57 0 -123 9zM979 1615h252l-354 -344h-222z" />
    <glyph glyph-name="thorn" unicode="&#xfe;" horiz-adv-x="1288" 
d="M917 313q103 136 103 339q0 125 -64 195q-64 68 -176 68q-154 0 -261 -136q-107 -137 -107 -332q0 -126 68 -198q67 -72 182 -72q152 0 255 136zM235 -353h-216l397 1859h214l-119 -567h17q123 169 336 169q164 0 271 -117q109 -118 109 -303q0 -301 -159 -504
q-159 -202 -394 -202q-117 0 -204 61q-87 59 -115 156h-17z" />
    <glyph glyph-name="ydieresis" unicode="&#xff;" horiz-adv-x="1146" 
d="M24 -388l33 185q31 -9 95 -9q123 0 207 155l33 60l-164 1086h216l105 -842h17l448 842h233l-666 -1173q-97 -177 -197 -247q-94 -66 -237 -66q-57 0 -123 9zM488 1277q-38 38 -38 95t38 96q39 39 95 39q57 0 96 -39q38 -39 38 -96t-38 -95q-39 -39 -96 -39q-56 0 -95 39z
M915 1277q-38 38 -38 95t38 96q39 39 95 39q57 0 96 -39q38 -39 38 -96t-38 -95q-39 -39 -96 -39q-56 0 -95 39z" />
    <glyph glyph-name="Amacron" unicode="&#x100;" horiz-adv-x="1423" 
d="M1012 383h-554l-215 -383h-237l836 1443h232l212 -1443h-224zM554 571h440l-82 608h-16zM647 1625l32 156h699l-32 -156h-699z" />
    <glyph glyph-name="amacron" unicode="&#x101;" horiz-adv-x="1153" 
d="M701 225q85 63 107 159l25 112l-265 -12q-120 -5 -188 -52q-67 -46 -67 -122q0 -65 54 -107q53 -42 138 -42q110 0 196 64zM191 68q-94 85 -94 213q0 163 123 258q124 95 351 103l295 12l15 71q6 32 6 46q0 71 -57 112q-57 40 -157 40q-173 0 -222 -119h-215
q35 141 158 224q123 82 296 82q186 0 299 -85q113 -86 113 -227q0 -46 -9 -88l-150 -710h-209l30 139h-17q-115 -157 -321 -157q-141 0 -235 86zM402 1299l32 155h696l-32 -155h-696z" />
    <glyph glyph-name="Abreve" unicode="&#x102;" horiz-adv-x="1423" 
d="M1012 383h-554l-215 -383h-237l836 1443h232l212 -1443h-224zM554 571h440l-82 608h-16zM646 1891h170v-16q0 -65 55 -108q54 -43 135 -43q174 0 215 167h172q-25 -144 -131 -229t-260 -85q-158 0 -257 83q-99 82 -99 212v19z" />
    <glyph glyph-name="abreve" unicode="&#x103;" horiz-adv-x="1153" 
d="M701 225q85 63 107 159l25 112l-265 -12q-120 -5 -188 -52q-67 -46 -67 -122q0 -65 54 -107q53 -42 138 -42q110 0 196 64zM191 68q-94 85 -94 213q0 163 123 258q124 95 351 103l295 12l15 71q6 32 6 46q0 71 -57 112q-57 40 -157 40q-173 0 -222 -119h-215
q35 141 158 224q123 82 296 82q186 0 299 -85q113 -86 113 -227q0 -46 -9 -88l-150 -710h-209l30 139h-17q-115 -157 -321 -157q-141 0 -235 86zM572 1576q-2 -16 -2 -30q0 -73 53 -117q52 -44 139 -44q200 0 229 191h174q-15 -154 -124 -245q-111 -93 -286 -93
q-164 0 -262 84q-95 82 -95 210q0 22 3 44h171z" />
    <glyph glyph-name="Aogonek" unicode="&#x104;" horiz-adv-x="1423" 
d="M554 571h440l-82 608h-16zM1224 -428q-42 -15 -101 -15q-108 0 -170 52t-62 141q0 154 186 267l1 5h-19l-47 361h-554l-215 -383h-237l836 1443h232l209 -1419q-206 -105 -206 -226q0 -90 110 -90q46 0 65 7z" />
    <glyph glyph-name="aogonek" unicode="&#x105;" horiz-adv-x="1153" 
d="M604 -380q-62 64 -44 165q22 131 190 220l1 5h-13l26 129h-17q-114 -157 -321 -157q-140 0 -235 86q-94 86 -94 213q0 164 124 258q124 95 350 103l295 12l15 71q6 29 6 46q0 71 -57 112q-57 40 -157 40q-173 0 -222 -119h-215q35 141 158 224q123 82 296 82
q186 0 299 -85q113 -86 113 -227q0 -46 -9 -88l-145 -686q-186 -94 -204 -204q-9 -52 19 -82q27 -30 82 -30q51 0 72 7l-29 -143q-43 -15 -108 -15q-115 0 -176 63zM701 224q85 63 107 160l25 112l-265 -12q-120 -5 -187 -51q-68 -46 -68 -123q0 -66 54 -107q53 -42 138 -42
q110 0 196 63z" />
    <glyph glyph-name="Cacute" unicode="&#x106;" horiz-adv-x="1490" 
d="M1238 1890h258l-390 -306h-230zM1299 966q1 1 1 7q-10 134 -105 214q-96 80 -246 80q-222 0 -374 -198t-152 -489q0 -187 99 -296q98 -109 266 -109q138 0 244 66q107 66 145 175h229q-52 -208 -224 -329q-172 -122 -416 -122q-259 0 -416 163q-158 162 -158 432
q0 398 220 659q219 259 553 259q239 0 399 -140q159 -140 159 -350q0 -14 -1 -22h-223z" />
    <glyph glyph-name="cacute" unicode="&#x107;" horiz-adv-x="1172" 
d="M950 737q-7 80 -74 131q-66 50 -162 50q-150 0 -249 -131q-98 -130 -98 -325q0 -137 69 -215q66 -75 179 -75q198 0 257 165h215q-32 -158 -164 -257q-135 -101 -324 -101q-205 0 -328 126q-124 126 -124 334q0 289 164 480q165 191 419 191q170 0 291 -96
q116 -93 137 -231q2 -14 4 -46h-212zM993 1615h252l-354 -344h-222z" />
    <glyph glyph-name="Ccircumflex" unicode="&#x108;" horiz-adv-x="1490" 
d="M1299 966q1 1 1 7q-10 134 -105 214q-96 80 -246 80q-222 0 -374 -198t-152 -489q0 -187 99 -296q98 -109 266 -109q138 0 244 66q107 66 145 175h229q-52 -208 -224 -329q-172 -122 -416 -122q-259 0 -416 163q-158 162 -158 432q0 398 220 659q219 259 553 259
q239 0 399 -140q159 -140 159 -350q0 -14 -1 -22h-223zM1343 1584h-208l-100 188h-17l-179 -188h-231l316 314h234z" />
    <glyph glyph-name="ccircumflex" unicode="&#x109;" horiz-adv-x="1172" 
d="M1168 1238h-210l-120 219h-17l-213 -219h-233l352 346h234zM950 737q-7 80 -74 131q-66 50 -162 50q-150 0 -249 -131q-98 -130 -98 -325q0 -137 69 -215q66 -75 179 -75q198 0 257 165h215q-32 -158 -164 -257q-135 -101 -324 -101q-205 0 -328 126q-124 126 -124 334
q0 289 164 480q165 191 419 191q170 0 291 -96q116 -93 137 -231q2 -14 4 -46h-212z" />
    <glyph glyph-name="Cdotaccent" unicode="&#x10a;" horiz-adv-x="1490" 
d="M921 1619q-39 39 -39 97t39 97q38 40 95 40t96 -40q38 -39 38 -97t-38 -97q-39 -40 -96 -40t-95 40zM1299 966q1 1 1 7q-10 134 -105 214q-96 80 -246 80q-222 0 -374 -198t-152 -489q0 -187 99 -296q98 -109 266 -109q138 0 244 66q107 66 145 175h229
q-52 -208 -224 -329q-172 -122 -416 -122q-259 0 -416 163q-158 162 -158 432q0 398 220 659q219 259 553 259q239 0 399 -140q159 -140 159 -350q0 -14 -1 -22h-223z" />
    <glyph glyph-name="cdotaccent" unicode="&#x10b;" horiz-adv-x="1172" 
d="M950 737q-7 80 -74 131q-66 50 -162 50q-150 0 -249 -131q-98 -130 -98 -325q0 -137 69 -215q66 -75 179 -75q198 0 257 165h215q-32 -158 -164 -257q-135 -101 -324 -101q-205 0 -328 126q-124 126 -124 334q0 289 164 480q165 191 419 191q170 0 291 -96
q116 -93 137 -231q2 -14 4 -46h-212zM724 1323q-41 42 -41 102t41 102q41 41 99 41q59 0 99 -41q41 -42 41 -102t-41 -102t-99 -42t-99 42z" />
    <glyph glyph-name="Ccaron" unicode="&#x10c;" horiz-adv-x="1490" 
d="M1299 966q1 1 1 7q-10 134 -105 214q-96 80 -246 80q-222 0 -374 -198t-152 -489q0 -187 99 -296q98 -109 266 -109q138 0 244 66q107 66 145 175h229q-52 -208 -224 -329q-172 -122 -416 -122q-259 0 -416 163q-158 162 -158 432q0 398 220 659q219 259 553 259
q239 0 399 -140q159 -140 159 -350q0 -14 -1 -22h-223zM696 1898h208l101 -188h16l179 188h232l-317 -314h-234z" />
    <glyph glyph-name="ccaron" unicode="&#x10d;" horiz-adv-x="1172" 
d="M680 1238l-206 346h208l120 -219h16l214 219h235l-353 -346h-234zM950 737q-7 80 -74 131q-66 50 -162 50q-150 0 -249 -131q-98 -130 -98 -325q0 -137 69 -215q66 -75 179 -75q198 0 257 165h215q-32 -158 -164 -257q-135 -101 -324 -101q-205 0 -328 126
q-124 126 -124 334q0 289 164 480q165 191 419 191q170 0 291 -96q116 -93 137 -231q2 -14 4 -46h-212z" />
    <glyph glyph-name="Dcaron" unicode="&#x10e;" horiz-adv-x="1504" 
d="M539 1896h208l101 -188h16l179 188h232l-317 -314h-234zM863 1443q291 0 453 -163q162 -162 162 -449q0 -358 -214 -595q-214 -236 -535 -236h-614l306 1443h442zM382 202h342q226 0 374 171q149 173 149 438q0 202 -110 316t-308 114h-221z" />
    <glyph glyph-name="dcaron" unicode="&#x10f;" horiz-adv-x="1430" 
d="M1709 1514l-155 -496h-149l105 496h199zM256 99q-113 120 -113 317q0 297 162 495q159 196 395 196q118 0 206 -59q86 -59 114 -153h17l131 619h218l-322 -1514h-208l32 150h-17q-126 -168 -339 -168q-167 0 -276 117zM874 311q105 135 105 331q0 126 -68 198t-182 72
q-154 0 -257 -130q-105 -131 -105 -330q0 -125 69 -202q68 -76 178 -76q154 0 260 137z" />
    <glyph glyph-name="Dcroat" unicode="&#x110;" horiz-adv-x="1476" 
d="M724 202q226 0 374 171q149 173 149 438q0 202 -110 316t-308 114h-221l-89 -407h201l-39 -191h-203l-96 -441h342zM863 1443q291 0 453 -163q162 -162 162 -449q0 -358 -214 -595q-214 -236 -535 -236h-614l136 643h-181l40 191h182l129 609h442z" />
    <glyph glyph-name="dcroat" unicode="&#x111;" horiz-adv-x="1289" 
d="M874 311q105 135 105 331q0 126 -68 198t-182 72q-154 0 -257 -130q-105 -131 -105 -330q0 -125 69 -202q68 -76 178 -76q154 0 260 137zM1480 1275h-145l-271 -1275h-208l32 150h-17q-126 -168 -339 -168q-167 0 -276 117q-113 120 -113 317q0 297 162 495
q159 196 395 196q118 0 206 -59q86 -59 114 -153h17l80 380h-211l28 136h212l22 103h218l-22 -103h144z" />
    <glyph glyph-name="Emacron" unicode="&#x112;" horiz-adv-x="1239" 
d="M1032 0h-918l307 1443h917l-41 -204h-690l-91 -408h654l-40 -194h-653l-96 -433h691zM568 1625l32 156h699l-32 -156h-699z" />
    <glyph glyph-name="emacron" unicode="&#x113;" horiz-adv-x="1198" 
d="M280 99q-132 126 -132 341q0 299 161 485q159 185 413 185q184 0 304 -118q125 -124 126 -329q0 -78 -14 -170h-775q-1 -14 -1 -44q0 -140 80 -216q70 -66 176 -66q185 0 252 126h218q-36 -140 -162 -225q-132 -89 -322 -89q-199 0 -324 120zM936 651q3 18 3 43
q0 100 -59 164q-64 69 -172 69q-114 0 -200 -76q-84 -74 -119 -200h547zM412 1299l32 155h696l-32 -155h-696z" />
    <glyph glyph-name="Ebreve" unicode="&#x114;" horiz-adv-x="1239" 
d="M1032 0h-918l307 1443h917l-41 -204h-690l-91 -408h654l-40 -194h-653l-96 -433h691zM567 1891h170v-16q0 -65 55 -108q54 -43 135 -43q174 0 215 167h172q-25 -144 -131 -229t-260 -85q-158 0 -257 83q-99 82 -99 212v19z" />
    <glyph glyph-name="ebreve" unicode="&#x115;" horiz-adv-x="1198" 
d="M280 99q-132 126 -132 341q0 299 161 485q159 185 413 185q184 0 304 -118q125 -124 126 -329q0 -78 -14 -170h-775q-1 -14 -1 -44q0 -140 80 -216q70 -66 176 -66q185 0 252 126h218q-36 -140 -162 -225q-132 -89 -322 -89q-199 0 -324 120zM936 651q3 18 3 43
q0 100 -59 164q-64 69 -172 69q-114 0 -200 -76q-84 -74 -119 -200h547zM582 1576q-2 -16 -2 -30q0 -73 53 -117q52 -44 139 -44q200 0 229 191h174q-15 -154 -124 -245q-111 -93 -286 -93q-164 0 -262 84q-95 82 -95 210q0 22 3 44h171z" />
    <glyph glyph-name="Edotaccent" unicode="&#x116;" horiz-adv-x="1239" 
d="M842 1617q-39 39 -39 97t39 97q38 40 95 40t96 -40q38 -39 38 -97t-38 -97q-39 -40 -96 -40t-95 40zM1032 0h-918l307 1443h917l-41 -204h-690l-91 -408h654l-40 -194h-653l-96 -433h691z" />
    <glyph glyph-name="edotaccent" unicode="&#x117;" horiz-adv-x="1198" 
d="M688 1323q-41 42 -41 102t41 102q41 41 99 41q59 0 99 -41q41 -42 41 -102t-41 -102t-99 -42t-99 42zM280 99q-132 126 -132 341q0 299 161 485q159 185 413 185q184 0 304 -118q125 -124 126 -329q0 -78 -14 -170h-775q-1 -14 -1 -44q0 -140 80 -216q70 -66 176 -66
q185 0 252 126h218q-36 -140 -162 -225q-132 -89 -322 -89q-199 0 -324 120zM936 651q3 18 3 43q0 100 -59 164q-64 69 -172 69q-114 0 -200 -76q-84 -74 -119 -200h547z" />
    <glyph glyph-name="Eogonek" unicode="&#x118;" horiz-adv-x="1239" 
d="M670 -391q-62 52 -62 141q0 139 151 245v5h-645l307 1443h917l-41 -204h-690l-91 -408h654l-40 -194h-653l-96 -433h691l-35 -165q-243 -92 -243 -241q0 -41 30 -65q30 -25 79 -25q45 0 66 7l-28 -143q-42 -15 -101 -15q-108 0 -170 52z" />
    <glyph glyph-name="eogonek" unicode="&#x119;" horiz-adv-x="1203" 
d="M562 -389q-64 52 -64 133q0 130 115 219l-1 16h-15q-203 3 -326 129t-123 332q0 298 160 484q159 186 414 186q190 0 310 -124q119 -125 120 -323q0 -82 -14 -170h-775q-1 -21 -1 -44q0 -128 70 -205t186 -77q185 0 252 126h218q-36 -138 -237 -276q-168 -116 -168 -218
q0 -95 124 -95q32 0 45 3l-29 -140q-32 -10 -87 -10q-109 0 -174 54zM936 651q3 18 3 43q0 104 -64 169q-64 64 -167 64q-112 0 -198 -74q-85 -74 -121 -202h547z" />
    <glyph glyph-name="Ecaron" unicode="&#x11a;" horiz-adv-x="1239" 
d="M617 1896h208l101 -188h16l179 188h232l-317 -314h-234zM1032 0h-918l307 1443h917l-41 -204h-690l-91 -408h654l-40 -194h-653l-96 -433h691z" />
    <glyph glyph-name="ecaron" unicode="&#x11b;" horiz-adv-x="1198" 
d="M644 1238l-206 346h208l120 -219h16l214 219h235l-353 -346h-234zM280 99q-132 126 -132 341q0 299 161 485q159 185 413 185q184 0 304 -118q125 -124 126 -329q0 -78 -14 -170h-775q-1 -14 -1 -44q0 -140 80 -216q70 -66 176 -66q185 0 252 126h218q-36 -140 -162 -225
q-132 -89 -322 -89q-199 0 -324 120zM936 651q3 18 3 43q0 100 -59 164q-64 69 -172 69q-114 0 -200 -76q-84 -74 -119 -200h547z" />
    <glyph glyph-name="Gcircumflex" unicode="&#x11c;" horiz-adv-x="1542" 
d="M1340 1582h-208l-100 188h-17l-179 -188h-231l316 314h234zM1465 556q-59 -288 -235 -440q-176 -151 -450 -151q-263 0 -425 165q-161 166 -161 437q0 397 218 654q217 257 553 257q230 0 389 -130q158 -130 169 -328q1 -8 1 -35h-223q-9 128 -105 205t-247 77
q-224 0 -374 -194q-150 -195 -150 -486q0 -190 103 -301q102 -110 279 -110q161 0 278 93q117 94 149 248l9 42h-367l39 188h590z" />
    <glyph glyph-name="gcircumflex" unicode="&#x11d;" horiz-adv-x="1276" 
d="M1163 1238h-210l-120 219h-17l-213 -219h-233l352 346h234zM185 -321q-126 90 -132 225h221q10 -62 75 -101q70 -42 178 -42q254 0 306 219l46 197l-17 1q-114 -160 -325 -160q-167 0 -277 118q-112 119 -112 307q0 287 156 476q154 188 384 188q114 0 207 -60
q94 -60 125 -154h17l42 196h209l-245 -1138q-36 -171 -174 -267q-141 -99 -357 -99q-197 0 -327 94zM869 323q102 126 102 319q0 124 -69 197t-185 73q-151 0 -248 -120q-98 -122 -98 -318q0 -128 66 -202t179 -74q152 0 253 125z" />
    <glyph glyph-name="Gbreve" unicode="&#x11e;" horiz-adv-x="1542" 
d="M1465 556q-59 -288 -235 -440q-176 -151 -450 -151q-263 0 -425 165q-161 166 -161 437q0 397 218 654q217 257 553 257q230 0 389 -130q158 -130 169 -328q1 -8 1 -35h-223q-9 128 -105 205t-247 77q-224 0 -374 -194q-150 -195 -150 -486q0 -190 103 -301
q102 -110 279 -110q161 0 278 93q117 94 149 248l9 42h-367l39 188h590zM643 1891h170v-16q0 -65 55 -108q54 -43 135 -43q174 0 215 167h172q-25 -144 -131 -229t-260 -85q-158 0 -257 83q-99 82 -99 212v19z" />
    <glyph glyph-name="gbreve" unicode="&#x11f;" horiz-adv-x="1276" 
d="M613 1576q-2 -16 -2 -30q0 -73 53 -117q52 -44 139 -44q200 0 229 191h174q-15 -154 -124 -245q-111 -93 -286 -93q-164 0 -262 84q-95 82 -95 210q0 22 3 44h171zM185 -321q-126 90 -132 225h221q10 -62 75 -101q70 -42 178 -42q254 0 306 219l46 197l-17 1
q-114 -160 -325 -160q-167 0 -277 118q-112 119 -112 307q0 287 156 476q154 188 384 188q114 0 207 -60q94 -60 125 -154h17l42 196h209l-245 -1138q-36 -171 -174 -267q-141 -99 -357 -99q-197 0 -327 94zM869 323q102 126 102 319q0 124 -69 197t-185 73
q-151 0 -248 -120q-98 -122 -98 -318q0 -128 66 -202t179 -74q152 0 253 125z" />
    <glyph glyph-name="Gdotaccent" unicode="&#x120;" horiz-adv-x="1542" 
d="M918 1617q-39 39 -39 97t39 97q38 40 95 40t96 -40q38 -39 38 -97t-38 -97q-39 -40 -96 -40t-95 40zM1465 556q-59 -288 -235 -440q-176 -151 -450 -151q-263 0 -425 165q-161 166 -161 437q0 397 218 654q217 257 553 257q230 0 389 -130q158 -130 169 -328q1 -8 1 -35
h-223q-9 128 -105 205t-247 77q-224 0 -374 -194q-150 -195 -150 -486q0 -190 103 -301q102 -110 279 -110q161 0 278 93q117 94 149 248l9 42h-367l39 188h590z" />
    <glyph glyph-name="gdotaccent" unicode="&#x121;" horiz-adv-x="1276" 
d="M719 1323q-41 42 -41 102t41 102q41 41 99 41q59 0 99 -41q41 -42 41 -102t-41 -102t-99 -42t-99 42zM185 -321q-126 90 -132 225h221q10 -62 75 -101q70 -42 178 -42q254 0 306 219l46 197l-17 1q-114 -160 -325 -160q-167 0 -277 118q-112 119 -112 307q0 287 156 476
q154 188 384 188q114 0 207 -60q94 -60 125 -154h17l42 196h209l-245 -1138q-36 -171 -174 -267q-141 -99 -357 -99q-197 0 -327 94zM869 323q102 126 102 319q0 124 -69 197t-185 73q-151 0 -248 -120q-98 -122 -98 -318q0 -128 66 -202t179 -74q152 0 253 125z" />
    <glyph glyph-name="uni0122" unicode="&#x122;" horiz-adv-x="1542" 
d="M491 -514l178 368h222l-200 -368h-200zM1465 556q-59 -288 -235 -440q-176 -151 -450 -151q-263 0 -425 165q-161 166 -161 437q0 397 218 654q217 257 553 257q230 0 389 -130q158 -130 169 -328q1 -8 1 -35h-223q-9 128 -105 205t-247 77q-224 0 -374 -194
q-150 -195 -150 -486q0 -190 103 -301q102 -110 279 -110q161 0 278 93q117 94 149 248l9 42h-367l39 188h590z" />
    <glyph glyph-name="uni0123" unicode="&#x123;" horiz-adv-x="1277" 
d="M1289 1657l-178 -368h-222l200 368h200zM185 -321q-126 90 -132 225h221q10 -62 75 -101q70 -42 178 -42q254 0 306 219l46 197l-17 1q-114 -160 -325 -160q-167 0 -277 118q-112 119 -112 307q0 287 156 476q154 188 384 188q114 0 207 -60q94 -60 125 -154h17l42 196
h209l-245 -1138q-36 -171 -174 -267q-141 -99 -357 -99q-197 0 -327 94zM869 323q102 126 102 319q0 124 -69 197t-185 73q-151 0 -248 -120q-98 -122 -98 -318q0 -128 66 -202t179 -74q152 0 253 125z" />
    <glyph glyph-name="Hcircumflex" unicode="&#x124;" horiz-adv-x="1552" 
d="M1077 0l137 633h-738l-136 -633h-226l307 1443h227l-130 -606h737l130 606h228l-307 -1443h-229zM1401 1582h-208l-100 188h-17l-179 -188h-231l316 314h234z" />
    <glyph glyph-name="hcircumflex" unicode="&#x125;" horiz-adv-x="1267" 
d="M419 1510h217l-127 -584h17q124 183 337 183q154 0 251 -95q94 -92 94 -226q0 -57 -14 -127l-140 -661h-217l133 623q12 60 12 96q0 90 -60 143q-60 54 -162 54q-115 0 -200 -73q-82 -71 -107 -185l-140 -658h-217zM911 1649h-208l-100 188h-17l-179 -188h-231l316 314
h234z" />
    <glyph glyph-name="Hbar" unicode="&#x126;" horiz-adv-x="1503" 
d="M1281 1066h-737l-49 -229h737zM1640 1066h-130l-227 -1066h-229l137 633h-738l-136 -633h-226l227 1066h-133l34 171h135l44 206h227l-44 -206h737l44 206h228l-44 -206h128z" />
    <glyph glyph-name="hbar" unicode="&#x127;" horiz-adv-x="1283" 
d="M526 926q124 183 337 183q154 0 251 -95q94 -92 94 -226q0 -57 -14 -127l-140 -661h-217l133 623q12 60 12 96q0 90 -60 143q-60 54 -162 54q-115 0 -200 -73q-82 -71 -107 -185l-140 -658h-217l273 1275h-156l29 139h156l21 96h217l-21 -96h228l-29 -139h-229l-76 -349
h17z" />
    <glyph glyph-name="Itilde" unicode="&#x128;" horiz-adv-x="587" 
d="M114 0l307 1443h227l-307 -1443h-227zM568 1654q-88 77 -122 77q-86 0 -108 -112h-156q19 123 93 194q71 70 170 70q92 0 180 -77q88 -78 123 -78q86 0 108 112h156q-18 -122 -92 -194q-71 -70 -170 -70q-93 0 -182 78z" />
    <glyph glyph-name="itilde" unicode="&#x129;" horiz-adv-x="546" 
d="M330 1089h215l-231 -1089h-215zM487 1318q-83 87 -120 87q-83 0 -107 -132h-157q15 133 89 210q72 74 176 74q96 0 179 -87q83 -88 121 -88q84 0 108 132h157q-16 -132 -89 -209q-72 -75 -177 -75q-96 0 -180 88z" />
    <glyph glyph-name="Imacron" unicode="&#x12a;" horiz-adv-x="587" 
d="M114 0l307 1443h227l-307 -1443h-227zM224 1625l32 156h699l-32 -156h-699z" />
    <glyph glyph-name="imacron" unicode="&#x12b;" horiz-adv-x="546" 
d="M330 1089h215l-231 -1089h-215zM134 1299l32 155h696l-32 -155h-696z" />
    <glyph glyph-name="Ibreve" unicode="&#x12c;" horiz-adv-x="587" 
d="M114 0l307 1443h227l-307 -1443h-227zM223 1891h170v-16q0 -65 55 -108q54 -43 135 -43q174 0 215 167h172q-25 -144 -131 -229t-260 -85q-158 0 -257 83q-99 82 -99 212v19z" />
    <glyph glyph-name="ibreve" unicode="&#x12d;" horiz-adv-x="546" 
d="M330 1089h215l-231 -1089h-215zM304 1576q-2 -16 -2 -30q0 -73 53 -117q52 -44 139 -44q200 0 229 191h174q-15 -154 -124 -245q-111 -93 -286 -93q-164 0 -262 84q-95 82 -95 210q0 22 3 44h171z" />
    <glyph glyph-name="Iogonek" unicode="&#x12e;" horiz-adv-x="587" 
d="M649 1443l-299 -1404q-218 -104 -218 -233q0 -46 29 -72t80 -26q45 0 66 7l-29 -143q-42 -15 -100 -15q-106 0 -169 55q-64 54 -64 145q0 157 196 282l1 4h-18l298 1400h227z" />
    <glyph glyph-name="iogonek" unicode="&#x12f;" horiz-adv-x="546" 
d="M409 1317q-40 38 -40 93q0 56 40 95q40 38 99 38t99 -37q40 -38 40 -93q0 -56 -40 -95q-40 -38 -99 -38t-99 37zM-13 -388q-64 54 -64 145q0 154 202 282l1 4h-18l223 1046h219l-224 -1050q-216 -102 -216 -233q0 -46 29 -72q30 -26 80 -26q45 0 66 7l-29 -143
q-42 -15 -100 -15q-106 0 -169 55z" />
    <glyph glyph-name="Idotaccent" unicode="&#x130;" horiz-adv-x="587" 
d="M114 0l307 1443h227l-307 -1443h-227zM497 1617q-39 39 -39 97t39 97q38 40 95 40t96 -40q38 -39 38 -97t-38 -97q-39 -40 -96 -40t-95 40z" />
    <glyph glyph-name="dotlessi" unicode="&#x131;" horiz-adv-x="546" 
d="M330 1089h215l-231 -1089h-215z" />
    <glyph glyph-name="IJ" unicode="&#x132;" horiz-adv-x="1733" 
d="M114 0l307 1443h227l-307 -1443h-227zM899 370v-4q2 -86 57 -137q56 -50 150 -50q194 0 246 243l218 1021h223l-225 -1063q-42 -201 -164 -307q-123 -108 -317 -108q-187 0 -303 111t-107 281v13h222z" />
    <glyph glyph-name="ij" unicode="&#x133;" horiz-adv-x="1092" 
d="M330 1089h218l-232 -1089h-219zM408 1318q-40 37 -40 92q0 56 40 94q39 39 99 39t100 -38q39 -37 39 -92q0 -56 -39 -94q-40 -39 -100 -39t-99 38zM841 -84q-64 -303 -367 -303q-57 0 -99 7l38 184q40 -4 57 -4q71 0 108 33q38 33 54 110l245 1146h215zM954 1318
q-40 37 -40 92q0 56 40 94q39 39 99 39t100 -38q39 -37 39 -92q0 -56 -39 -94q-40 -39 -100 -39t-99 38z" />
    <glyph glyph-name="Jcircumflex" unicode="&#x134;" horiz-adv-x="1148" 
d="M322 370v-4q1 -86 57 -137q56 -50 150 -50q193 0 246 243l218 1021h223l-225 -1063q-42 -201 -164 -307q-123 -108 -317 -108q-187 0 -303 111t-107 281v13h222zM1489 1582h-208l-100 188h-17l-179 -188h-231l316 314h234z" />
    <glyph glyph-name="jcircumflex" unicode="&#x135;" horiz-adv-x="546" 
d="M296 -84q-64 -303 -367 -303q-57 0 -99 7l38 184q40 -4 57 -4q71 0 108 33q38 33 54 110l245 1146h215zM856 1238h-210l-120 219h-17l-213 -219h-233l352 346h234z" />
    <glyph glyph-name="uni0136" unicode="&#x136;" horiz-adv-x="1387" 
d="M114 0l307 1443h223l-145 -672h17l731 672h279l-690 -643l425 -800h-257l-349 657l-216 -194l-102 -463h-223zM351 -514l178 368h222l-200 -368h-200z" />
    <glyph glyph-name="uni0137" unicode="&#x137;" horiz-adv-x="1152" 
d="M979 1089h268l-552 -472l350 -617h-244l-280 490l-123 -94l-85 -396h-217l322 1514h216l-182 -854h17zM250 -514l178 368h222l-200 -368h-200z" />
    <glyph glyph-name="Lacute" unicode="&#x139;" horiz-adv-x="1184" 
d="M814 1888h258l-390 -306h-230zM1015 0h-901l307 1443h227l-266 -1237h675z" />
    <glyph glyph-name="lacute" unicode="&#x13a;" horiz-adv-x="545" 
d="M807 1958h258l-390 -306h-230zM418 1514h218l-321 -1514h-219z" />
    <glyph glyph-name="uni013B" unicode="&#x13b;" horiz-adv-x="1184" 
d="M261 -514l178 368h222l-200 -368h-200zM1015 0h-901l307 1443h227l-266 -1237h675z" />
    <glyph glyph-name="uni013C" unicode="&#x13c;" horiz-adv-x="545" 
d="M-96 -514l178 368h222l-200 -368h-200zM419 1514h218l-321 -1514h-219z" />
    <glyph glyph-name="Lcaron" unicode="&#x13d;" horiz-adv-x="1184" 
d="M1053 1443l-155 -495h-147l105 495h197zM1015 0h-901l307 1443h227l-266 -1237h675z" />
    <glyph glyph-name="lcaron" unicode="&#x13e;" horiz-adv-x="686" 
d="M961 1514l-155 -496h-149l105 496h199zM418 1514h218l-321 -1514h-219z" />
    <glyph glyph-name="Lslash" unicode="&#x141;" horiz-adv-x="1154" 
d="M1067 206l-42 -206h-901l148 696l-180 -79l34 170l183 80l122 576h227l-100 -466l292 129l-34 -171l-295 -130l-129 -599h675z" />
    <glyph glyph-name="lslash" unicode="&#x142;" horiz-adv-x="544" 
d="M623 866l-138 -64l-170 -802h-219l146 689l-132 -62l34 170l135 63l139 654h218l-115 -542l137 64z" />
    <glyph glyph-name="Nacute" unicode="&#x143;" horiz-adv-x="1539" 
d="M1290 1888h258l-390 -306h-230zM114 0l307 1443h196l514 -1055h17l229 1055h223l-307 -1443h-198l-514 1051h-17l-228 -1051h-222z" />
    <glyph glyph-name="nacute" unicode="&#x144;" horiz-adv-x="1247" 
d="M1009 1617h252l-354 -344h-222zM318 1093h209l-35 -167h17q121 184 340 184q152 0 249 -95q93 -92 93 -227q0 -59 -15 -127l-139 -661h-217l132 623q12 54 12 96q0 88 -59 142q-59 55 -158 55q-113 0 -196 -73q-82 -71 -107 -185l-140 -658h-217z" />
    <glyph glyph-name="uni0145" unicode="&#x145;" horiz-adv-x="1539" 
d="M408 -514l178 368h222l-200 -368h-200zM114 0l307 1443h196l514 -1055h17l229 1055h223l-307 -1443h-198l-514 1051h-17l-228 -1051h-222z" />
    <glyph glyph-name="uni0146" unicode="&#x146;" horiz-adv-x="1247" 
d="M258 -514l178 368h222l-200 -368h-200zM318 1093h209l-35 -167h17q121 184 340 184q152 0 249 -95q93 -92 93 -227q0 -59 -15 -127l-139 -661h-217l132 623q12 54 12 96q0 88 -59 142q-59 55 -158 55q-113 0 -196 -73q-82 -71 -107 -185l-140 -658h-217z" />
    <glyph glyph-name="Ncaron" unicode="&#x147;" horiz-adv-x="1539" 
d="M748 1896h208l101 -188h16l179 188h232l-317 -314h-234zM114 0l307 1443h196l514 -1055h17l229 1055h223l-307 -1443h-198l-514 1051h-17l-228 -1051h-222z" />
    <glyph glyph-name="ncaron" unicode="&#x148;" horiz-adv-x="1247" 
d="M696 1240l-206 346h208l120 -219h16l214 219h235l-353 -346h-234zM318 1093h209l-35 -167h17q121 184 340 184q152 0 249 -95q93 -92 93 -227q0 -59 -15 -127l-139 -661h-217l132 623q12 54 12 96q0 88 -59 142q-59 55 -158 55q-113 0 -196 -73q-82 -71 -107 -185
l-140 -658h-217z" />
    <glyph glyph-name="Omacron" unicode="&#x14c;" horiz-adv-x="1593" 
d="M361 137q-168 170 -168 432q0 394 224 652q222 257 560 257q264 0 431 -171q165 -170 165 -433q0 -397 -222 -654q-221 -255 -559 -255q-263 0 -431 172zM1236 1153q-104 113 -272 113q-229 0 -383 -195q-155 -195 -155 -484q0 -185 105 -298q104 -113 275 -113
q230 0 382 193q152 194 152 486q0 184 -104 298zM664 1623l32 156h699l-32 -156h-699z" />
    <glyph glyph-name="omacron" unicode="&#x14d;" horiz-adv-x="1238" 
d="M429 1299l32 155h696l-32 -155h-696zM440 251q69 -80 187 -80q136 0 236 127q104 131 104 321q0 141 -66 221q-65 79 -180 79q-157 0 -254 -133q-94 -130 -94 -330q0 -127 67 -205zM273 107q-126 128 -126 334q0 283 159 472q166 197 431 197q206 0 332 -128
q125 -128 125 -333q0 -279 -157 -469q-165 -201 -431 -201q-206 0 -333 128z" />
    <glyph glyph-name="Obreve" unicode="&#x14e;" horiz-adv-x="1593" 
d="M361 137q-168 170 -168 432q0 394 224 652q222 257 560 257q264 0 431 -171q165 -170 165 -433q0 -397 -222 -654q-221 -255 -559 -255q-263 0 -431 172zM1236 1153q-104 113 -272 113q-229 0 -383 -195q-155 -195 -155 -484q0 -185 105 -298q104 -113 275 -113
q230 0 382 193q152 194 152 486q0 184 -104 298zM663 1889h170v-16q0 -65 55 -108q54 -43 135 -43q174 0 215 167h172q-25 -144 -131 -229t-260 -85q-158 0 -257 83q-99 82 -99 212v19z" />
    <glyph glyph-name="obreve" unicode="&#x14f;" horiz-adv-x="1238" 
d="M599 1576q-2 -16 -2 -30q0 -73 53 -117q52 -44 139 -44q200 0 229 191h174q-15 -154 -124 -245q-111 -93 -286 -93q-164 0 -262 84q-95 82 -95 210q0 22 3 44h171zM440 251q69 -80 187 -80q136 0 236 127q104 131 104 321q0 141 -66 221q-65 79 -180 79q-157 0 -254 -133
q-94 -130 -94 -330q0 -127 67 -205zM273 107q-126 128 -126 334q0 283 159 472q166 197 431 197q206 0 332 -128q125 -128 125 -333q0 -279 -157 -469q-165 -201 -431 -201q-206 0 -333 128z" />
    <glyph glyph-name="Ohungarumlaut" unicode="&#x150;" horiz-adv-x="1593" 
d="M1433 1886h242l-377 -306h-219zM1011 1886h241l-376 -306h-219zM361 137q-168 170 -168 432q0 394 224 652q222 257 560 257q264 0 431 -171q165 -170 165 -433q0 -397 -222 -654q-221 -255 -559 -255q-263 0 -431 172zM1236 1153q-104 113 -272 113q-229 0 -383 -195
q-155 -195 -155 -484q0 -185 105 -298q104 -113 275 -113q230 0 382 193q152 194 152 486q0 184 -104 298z" />
    <glyph glyph-name="ohungarumlaut" unicode="&#x151;" horiz-adv-x="1238" 
d="M1187 1615h228l-339 -344h-200zM774 1615h228l-339 -344h-200zM440 251q69 -80 187 -80q136 0 236 127q104 131 104 321q0 141 -66 221q-65 79 -180 79q-157 0 -254 -133q-94 -130 -94 -330q0 -127 67 -205zM273 107q-126 128 -126 334q0 283 159 472q166 197 431 197
q206 0 332 -128q125 -128 125 -333q0 -279 -157 -469q-165 -201 -431 -201q-206 0 -333 128z" />
    <glyph glyph-name="OE" unicode="&#x152;" horiz-adv-x="2320" 
d="M1239 1155q-105 113 -273 113q-229 0 -384 -196t-155 -485q0 -186 105 -299q104 -113 275 -113q231 0 384 194q152 194 152 487q0 185 -104 299zM1236 123h-15q-163 -158 -427 -158q-261 0 -430 170q-170 170 -170 434q0 393 223 651t562 258q159 0 286 -73
q121 -70 185 -187l17 1l49 224h898l-42 -204h-690l-91 -408h654l-40 -194h-652l-96 -433h690l-40 -204h-898z" />
    <glyph glyph-name="oe" unicode="&#x153;" horiz-adv-x="2012" 
d="M1036 186h-16q-153 -207 -416 -207q-205 0 -331 127t-126 334q0 293 166 481q166 189 423 189q263 0 368 -214h17q145 214 410 214q190 0 310 -124q119 -125 120 -323q0 -87 -15 -170h-774l-2 -45q0 -129 70 -205t187 -76q184 0 251 126h219q-37 -143 -168 -229
q-132 -85 -316 -85q-261 0 -377 207zM1745 651q2 12 2 43q0 104 -63 169q-64 64 -167 64q-113 0 -198 -74q-86 -74 -121 -202h547zM442 248q70 -78 185 -78q140 0 240 132t100 317q0 140 -65 220q-66 80 -181 80q-154 0 -251 -130q-97 -129 -97 -333q0 -130 69 -208z" />
    <glyph glyph-name="Racute" unicode="&#x154;" horiz-adv-x="1367" 
d="M1112 1888h258l-390 -306h-230zM421 1443h524q198 0 319 -108q120 -109 120 -286q0 -165 -102 -292q-103 -129 -274 -176l204 -581h-243l-182 550h-328l-118 -550h-227zM497 741h318q149 0 243 81q94 80 94 206q0 101 -63 160q-63 58 -172 58h-309z" />
    <glyph glyph-name="racute" unicode="&#x155;" horiz-adv-x="804" 
d="M822 1615h252l-354 -344h-222zM312 1089h208l-30 -143h17q101 161 283 161q89 0 132 -18l-45 -210q-64 20 -147 20q-240 0 -300 -274l-133 -625h-217z" />
    <glyph glyph-name="uni0156" unicode="&#x156;" horiz-adv-x="1367" 
d="M421 1443h524q198 0 319 -108q120 -109 120 -286q0 -165 -102 -292q-103 -129 -274 -176l204 -581h-243l-182 550h-328l-118 -550h-227zM497 741h318q149 0 243 81q94 80 94 206q0 101 -63 160q-63 58 -172 58h-309zM348 -514l178 368h222l-200 -368h-200z" />
    <glyph glyph-name="uni0157" unicode="&#x157;" horiz-adv-x="804" 
d="M313 1089h208l-30 -143h17q101 161 283 161q89 0 132 -18l-45 -210q-64 20 -147 20q-240 0 -300 -274l-133 -625h-217zM-106 -514l178 368h222l-200 -368h-200z" />
    <glyph glyph-name="Rcaron" unicode="&#x158;" horiz-adv-x="1367" 
d="M421 1443h524q198 0 319 -108q120 -109 120 -286q0 -165 -102 -292q-103 -129 -274 -176l204 -581h-243l-182 550h-328l-118 -550h-227zM497 741h318q149 0 243 81q94 80 94 206q0 101 -63 160q-63 58 -172 58h-309zM570 1896h208l101 -188h16l179 188h232l-317 -314
h-234z" />
    <glyph glyph-name="rcaron" unicode="&#x159;" horiz-adv-x="804" 
d="M509 1238l-206 346h208l120 -219h16l214 219h235l-353 -346h-234zM312 1089h208l-30 -143h17q101 161 283 161q89 0 132 -18l-45 -210q-64 20 -147 20q-240 0 -300 -274l-133 -625h-217z" />
    <glyph glyph-name="Sacute" unicode="&#x15a;" horiz-adv-x="1307" 
d="M1135 1888h258l-390 -306h-230zM335 405q22 -110 117 -176q94 -65 230 -65q140 0 226 62q86 63 86 164q0 78 -57 131t-189 96l-142 48q-152 51 -235 150q-84 100 -84 231q0 186 151 309t379 123q217 0 363 -121q145 -120 159 -311h-219q-23 108 -106 171q-84 63 -208 63
t-205 -60q-82 -59 -82 -150q0 -137 218 -211l137 -47q352 -120 352 -391q0 -204 -156 -330t-406 -126q-231 0 -378 117q-149 118 -172 323h221z" />
    <glyph glyph-name="sacute" unicode="&#x15b;" horiz-adv-x="1087" 
d="M306 301q18 -66 79 -106q64 -42 156 -42q101 0 164 41q63 40 63 105q0 88 -127 129l-167 56q-254 85 -254 289q0 150 120 244q118 93 303 93q180 0 294 -85q112 -83 130 -224h-206q-14 62 -73 98t-147 36q-91 0 -150 -40q-59 -39 -59 -100q0 -85 141 -130l157 -54
q135 -44 196 -114q61 -69 61 -177q0 -150 -127 -245q-126 -96 -324 -96q-190 0 -313 89q-122 89 -132 233h215zM897 1615h252l-354 -344h-222z" />
    <glyph glyph-name="Scircumflex" unicode="&#x15c;" horiz-adv-x="1307" 
d="M335 405q22 -110 117 -176q94 -65 230 -65q140 0 226 62q86 63 86 164q0 78 -57 131t-189 96l-142 48q-152 51 -235 150q-84 100 -84 231q0 186 151 309t379 123q217 0 363 -121q145 -120 159 -311h-219q-23 108 -106 171q-84 63 -208 63t-205 -60q-82 -59 -82 -150
q0 -137 218 -211l137 -47q352 -120 352 -391q0 -204 -156 -330t-406 -126q-231 0 -378 117q-149 118 -172 323h221zM1240 1582h-208l-100 188h-17l-179 -188h-231l316 314h234z" />
    <glyph glyph-name="scircumflex" unicode="&#x15d;" horiz-adv-x="1087" 
d="M1072 1238h-210l-120 219h-17l-213 -219h-233l352 346h234zM306 301q18 -66 79 -106q64 -42 156 -42q101 0 164 41q63 40 63 105q0 88 -127 129l-167 56q-254 85 -254 289q0 150 120 244q118 93 303 93q180 0 294 -85q112 -83 130 -224h-206q-14 62 -73 98t-147 36
q-91 0 -150 -40q-59 -39 -59 -100q0 -85 141 -130l157 -54q135 -44 196 -114q61 -69 61 -177q0 -150 -127 -245q-126 -96 -324 -96q-190 0 -313 89q-122 89 -132 233h215z" />
    <glyph glyph-name="Scedilla" unicode="&#x15e;" horiz-adv-x="1307" 
d="M874 812q352 -120 352 -391q0 -188 -135 -312q-134 -123 -356 -141l-63 -99q172 -23 172 -160q0 -90 -71 -146q-70 -56 -182 -56q-100 0 -179 36l25 119q63 -27 145 -27q99 0 99 64q0 67 -127 67h-54l14 102l65 101q-197 21 -320 136q-124 115 -145 300h221
q22 -110 117 -176q94 -65 230 -65q140 0 226 62q86 63 86 164q0 78 -57 131t-189 96l-142 48q-152 51 -235 150q-84 100 -84 231q0 186 151 309t379 123q217 0 363 -121q145 -120 159 -311h-219q-23 108 -106 171q-84 63 -208 63t-205 -60q-82 -59 -82 -150q0 -137 218 -211
z" />
    <glyph glyph-name="scedilla" unicode="&#x15f;" horiz-adv-x="1087" 
d="M730 611q135 -44 196 -114q61 -69 61 -177q0 -139 -110 -232t-287 -107l-71 -112q172 -23 172 -160q0 -90 -71 -146q-70 -56 -182 -56q-100 0 -179 36l25 119q63 -27 145 -27q99 0 99 64q0 67 -127 67h-54l14 102l76 118q-151 22 -244 106q-94 85 -102 209h215
q18 -66 79 -106q64 -42 156 -42q101 0 164 41q63 40 63 105q0 88 -127 129l-167 56q-254 85 -254 289q0 150 120 244q118 93 303 93q180 0 294 -85q112 -83 130 -224h-206q-14 62 -73 98t-147 36q-91 0 -150 -40q-59 -39 -59 -100q0 -85 141 -130z" />
    <glyph glyph-name="Scaron" unicode="&#x160;" horiz-adv-x="1307" 
d="M335 405q22 -110 117 -176q94 -65 230 -65q140 0 226 62q86 63 86 164q0 78 -57 131t-189 96l-142 48q-152 51 -235 150q-84 100 -84 231q0 186 151 309t379 123q217 0 363 -121q145 -120 159 -311h-219q-23 108 -106 171q-84 63 -208 63t-205 -60q-82 -59 -82 -150
q0 -137 218 -211l137 -47q352 -120 352 -391q0 -204 -156 -330t-406 -126q-231 0 -378 117q-149 118 -172 323h221zM593 1896h208l101 -188h16l179 188h232l-317 -314h-234z" />
    <glyph glyph-name="scaron" unicode="&#x161;" horiz-adv-x="1087" 
d="M584 1238l-206 346h208l120 -219h16l214 219h235l-353 -346h-234zM306 301q18 -66 79 -106q64 -42 156 -42q101 0 164 41q63 40 63 105q0 88 -127 129l-167 56q-254 85 -254 289q0 150 120 244q118 93 303 93q180 0 294 -85q112 -83 130 -224h-206q-14 62 -73 98t-147 36
q-91 0 -150 -40q-59 -39 -59 -100q0 -85 141 -130l157 -54q135 -44 196 -114q61 -69 61 -177q0 -150 -127 -245q-126 -96 -324 -96q-190 0 -313 89q-122 89 -132 233h215z" />
    <glyph glyph-name="uni0162" unicode="&#x162;" horiz-adv-x="1318" 
d="M1462 1443l-41 -204h-452l-265 -1239h-36l-83 -131q172 -23 172 -160q0 -90 -71 -146q-70 -56 -182 -56q-100 0 -179 36l25 119q63 -27 145 -27q99 0 99 64q0 67 -127 67h-54l14 102l85 132h-36l266 1239h-452l41 204h1131z" />
    <glyph glyph-name="uni0163" unicode="&#x163;" horiz-adv-x="781" 
d="M459 364q-11 -49 -11 -82q0 -108 142 -108q33 0 63 3l-37 -179q-53 -8 -103 -8q-19 0 -53 2l-79 -123q172 -23 172 -160q0 -90 -71 -146q-70 -56 -182 -56q-100 0 -179 36l25 119q63 -27 145 -27q99 0 99 64q0 67 -127 67h-54l14 102l104 161q-108 56 -108 186
q0 41 11 94l128 590h-179l37 181h179l56 269h217l-57 -269h244l-36 -181h-244z" />
    <glyph glyph-name="Tcaron" unicode="&#x164;" horiz-adv-x="1318" 
d="M640 1896h208l101 -188h16l179 188h232l-317 -314h-234zM476 0l266 1239h-452l41 204h1131l-41 -204h-452l-265 -1239h-228z" />
    <glyph glyph-name="tcaron" unicode="&#x165;" horiz-adv-x="781" 
d="M788 1232l105 495h199l-155 -495h-149zM299 47q-80 58 -80 168q0 41 11 94l128 590h-179l37 181h179l56 269h217l-57 -269h244l-36 -181h-244l-116 -535q-11 -49 -11 -82q0 -108 142 -108q33 0 63 3l-37 -179q-53 -8 -103 -8q-138 0 -214 57z" />
    <glyph glyph-name="Tbar" unicode="&#x166;" horiz-adv-x="1317" 
d="M969 1239l-95 -443h297l-35 -175h-299l-133 -621h-228l133 621h-291l35 175h294l95 443h-452l41 204h1131l-41 -204h-452z" />
    <glyph glyph-name="tbar" unicode="&#x167;" horiz-adv-x="776" 
d="M575 899l-55 -254h231l-32 -151h-232l-28 -130q-11 -49 -11 -82q0 -108 142 -108q33 0 63 3l-37 -179q-53 -8 -103 -8q-138 0 -214 57q-80 58 -80 168q0 41 11 94l40 185h-178l32 151h179l55 254h-179l37 181h179l56 269h217l-57 -269h244l-36 -181h-244z" />
    <glyph glyph-name="Utilde" unicode="&#x168;" horiz-adv-x="1538" 
d="M363 97q-136 125 -138 326q-1 58 13 127l187 893h228l-186 -882q-13 -64 -12 -120q4 -124 85 -193q84 -72 237 -72q150 0 255 86q106 86 139 239l201 942h227l-210 -992q-50 -232 -210 -357q-165 -129 -429 -129q-245 0 -387 132zM1044 1654q-88 77 -123 77
q-86 0 -108 -112h-156q20 123 93 194q71 70 170 70q92 0 180 -77q88 -78 123 -78q87 0 108 112h156q-18 -122 -91 -194q-71 -70 -171 -70q-93 0 -181 78z" />
    <glyph glyph-name="utilde" unicode="&#x169;" horiz-adv-x="1247" 
d="M1029 0h-208l34 155h-17q-106 -176 -343 -176q-148 0 -242 89q-94 88 -94 228q0 63 15 140l136 653h218l-131 -618q-13 -63 -13 -106q0 -189 207 -189q117 0 204 75q84 73 110 192l138 646h216zM828 1318q-83 87 -120 87q-83 0 -107 -132h-157q15 133 89 210
q72 74 176 74q96 0 179 -87q83 -88 121 -88q84 0 108 132h157q-16 -132 -89 -209q-72 -75 -177 -75q-96 0 -180 88z" />
    <glyph glyph-name="Umacron" unicode="&#x16a;" horiz-adv-x="1538" 
d="M363 97q-136 125 -138 326q-1 58 13 127l187 893h228l-186 -882q-13 -64 -12 -120q4 -124 85 -193q84 -72 237 -72q150 0 255 86q106 86 139 239l201 942h227l-210 -992q-50 -232 -210 -357q-165 -129 -429 -129q-245 0 -387 132zM699 1625l32 156h699l-32 -156h-699z
" />
    <glyph glyph-name="umacron" unicode="&#x16b;" horiz-adv-x="1247" 
d="M1029 0h-208l34 155h-17q-106 -176 -343 -176q-148 0 -242 89q-94 88 -94 228q0 63 15 140l136 653h218l-131 -618q-13 -63 -13 -106q0 -189 207 -189q117 0 204 75q84 73 110 192l138 646h216zM475 1299l32 155h696l-32 -155h-696z" />
    <glyph glyph-name="Ubreve" unicode="&#x16c;" horiz-adv-x="1538" 
d="M363 97q-136 125 -138 326q-1 58 13 127l187 893h228l-186 -882q-13 -64 -12 -120q4 -124 85 -193q84 -72 237 -72q150 0 255 86q106 86 139 239l201 942h227l-210 -992q-50 -232 -210 -357q-165 -129 -429 -129q-245 0 -387 132zM698 1891h170v-16q0 -65 55 -108
t135 -43q174 0 215 167h172q-24 -144 -131 -229q-106 -85 -260 -85q-157 0 -257 83q-99 82 -99 212v19z" />
    <glyph glyph-name="ubreve" unicode="&#x16d;" horiz-adv-x="1247" 
d="M1029 0h-208l34 155h-17q-106 -176 -343 -176q-148 0 -242 89q-94 88 -94 228q0 63 15 140l136 653h218l-131 -618q-13 -63 -13 -106q0 -189 207 -189q117 0 204 75q84 73 110 192l138 646h216zM645 1576q-2 -16 -2 -30q0 -73 53 -117q52 -44 139 -44q200 0 229 191h174
q-15 -154 -124 -245q-111 -93 -286 -93q-164 0 -262 84q-95 82 -95 210q0 22 3 44h171z" />
    <glyph glyph-name="Uring" unicode="&#x16e;" horiz-adv-x="1538" 
d="M919 1641q-69 68 -69 167t69 166q68 67 168 67t168 -67q69 -67 69 -166t-69 -167q-68 -67 -168 -67q-99 0 -168 67zM1171 1726q32 32 32 82q0 49 -33 81q-33 33 -83 33t-83 -33q-33 -32 -33 -81q0 -50 33 -82q33 -33 83 -33q51 0 84 33zM363 97q-136 125 -138 326
q-1 58 13 127l187 893h228l-186 -882q-13 -64 -12 -120q4 -124 85 -193q84 -72 237 -72q150 0 255 86q106 86 139 239l201 942h227l-210 -992q-50 -232 -210 -357q-165 -129 -429 -129q-245 0 -387 132z" />
    <glyph glyph-name="uring" unicode="&#x16f;" horiz-adv-x="1247" 
d="M1029 0h-208l34 155h-17q-106 -176 -343 -176q-148 0 -242 89q-94 88 -94 228q0 63 15 140l136 653h218l-131 -618q-13 -63 -13 -106q0 -189 207 -189q117 0 204 75q84 73 110 192l138 646h216zM692 1305q-69 68 -69 167t69 166q68 67 168 67t168 -67q69 -67 69 -166
t-69 -167q-69 -67 -168 -67t-168 67zM943 1390q33 32 33 82q0 49 -33 81q-33 33 -83 33t-83 -33q-33 -32 -33 -81q0 -50 33 -82q33 -33 83 -33t83 33z" />
    <glyph glyph-name="Uhungarumlaut" unicode="&#x170;" horiz-adv-x="1538" 
d="M363 97q-136 125 -138 326q-1 58 13 127l187 893h228l-186 -882q-13 -64 -12 -120q4 -124 85 -193q84 -72 237 -72q150 0 255 86q106 86 139 239l201 942h227l-210 -992q-50 -232 -210 -357q-165 -129 -429 -129q-245 0 -387 132zM1469 1888h242l-377 -306h-219z
M1047 1888h241l-376 -306h-219z" />
    <glyph glyph-name="uhungarumlaut" unicode="&#x171;" horiz-adv-x="1247" 
d="M1233 1615h228l-339 -344h-200zM820 1615h228l-339 -344h-200zM1029 0h-208l34 155h-17q-106 -176 -343 -176q-148 0 -242 89q-94 88 -94 228q0 63 15 140l136 653h218l-131 -618q-13 -63 -13 -106q0 -189 207 -189q117 0 204 75q84 73 110 192l138 646h216z" />
    <glyph glyph-name="Uogonek" unicode="&#x172;" horiz-adv-x="1538" 
d="M787 -390q-63 53 -63 147q0 108 105 198l2 17q-21 -5 -84 -5q-237 1 -380 125t-143 330q0 70 13 128l187 893h228l-186 -882q-12 -55 -12 -120q0 -126 86 -196q85 -69 236 -69q150 0 256 87q105 87 138 238l201 942h227l-210 -992q-60 -279 -289 -407q-80 -48 -134 -114
q-57 -70 -57 -130q0 -96 125 -96q32 0 44 3l-29 -140q-32 -10 -87 -10q-112 0 -174 53z" />
    <glyph glyph-name="uogonek" unicode="&#x173;" horiz-adv-x="1247" 
d="M703 -392q-62 52 -62 138q0 157 195 258v5h-13l32 146h-17q-106 -176 -343 -176q-148 0 -242 89t-94 228q0 58 15 140l136 653h218l-131 -618q-13 -67 -13 -106q0 -189 207 -189q116 0 202 73q87 73 112 194l138 646h216l-225 -1065q-206 -103 -206 -227q0 -42 28 -65
q27 -24 75 -24q52 0 72 7l-29 -143q-47 -15 -108 -15q-102 0 -163 51z" />
    <glyph glyph-name="Wcircumflex" unicode="&#x174;" horiz-adv-x="2013" 
d="M1631 1582h-208l-100 188h-17l-179 -188h-231l316 314h234zM629 0h-216l-83 1443h214l43 -1105h14l539 1105h192l81 -1105h14l506 1105h231l-689 -1443h-218l-88 1059h-13z" />
    <glyph glyph-name="wcircumflex" unicode="&#x175;" horiz-adv-x="1640" 
d="M1396 1238h-210l-120 219h-17l-213 -219h-233l352 346h234zM1208 0h-224l-57 797h-17l-391 -797h-221l-68 1089h202l34 -824h16l391 824h214l46 -831h16l374 831h216z" />
    <glyph glyph-name="Ycircumflex" unicode="&#x176;" horiz-adv-x="1383" 
d="M512 0l126 582l-327 861h234l242 -631h17l497 631h251l-693 -881l-120 -562h-227zM1316 1582h-208l-100 188h-17l-179 -188h-231l316 314h234z" />
    <glyph glyph-name="ycircumflex" unicode="&#x177;" horiz-adv-x="1146" 
d="M24 -388l33 185q31 -9 95 -9q123 0 207 155l33 60l-164 1086h216l105 -842h17l448 842h233l-666 -1173q-97 -177 -197 -247q-94 -66 -237 -66q-57 0 -123 9zM1154 1238h-210l-120 219h-17l-213 -219h-233l352 346h234z" />
    <glyph glyph-name="Ydieresis" unicode="&#x178;" horiz-adv-x="1383" 
d="M512 0l126 582l-327 861h234l242 -631h17l497 631h251l-693 -881l-120 -562h-227zM679 1616q-38 38 -38 95t38 96q39 39 95 39q57 0 96 -39q38 -39 38 -96t-38 -95q-39 -39 -96 -39q-56 0 -95 39zM1106 1616q-38 38 -38 95t38 96q39 39 95 39q57 0 96 -39q38 -39 38 -96
t-38 -95q-39 -39 -96 -39q-56 0 -95 39z" />
    <glyph glyph-name="Zacute" unicode="&#x179;" horiz-adv-x="1365" 
d="M1197 1888h258l-390 -306h-230zM107 161l1000 1061l3 17h-746l41 204h1041l-32 -161l-998 -1061l-2 -17h785l-41 -204h-1083z" />
    <glyph glyph-name="zacute" unicode="&#x17a;" horiz-adv-x="1124" 
d="M968 1615h252l-354 -344h-222zM95 146l737 744l2 17h-571l38 182h852l-34 -157l-719 -733l-3 -17h567l-37 -182h-862z" />
    <glyph glyph-name="Zdotaccent" unicode="&#x17b;" horiz-adv-x="1365" 
d="M880 1617q-39 39 -39 97t39 97q38 40 95 40t96 -40q38 -39 38 -97t-38 -97q-39 -40 -96 -40t-95 40zM107 161l1000 1061l3 17h-746l41 204h1041l-32 -161l-998 -1061l-2 -17h785l-41 -204h-1083z" />
    <glyph glyph-name="zdotaccent" unicode="&#x17c;" horiz-adv-x="1124" 
d="M699 1323q-41 42 -41 102t41 102q41 41 99 41q59 0 99 -41q41 -42 41 -102t-41 -102t-99 -42t-99 42zM95 146l737 744l2 17h-571l38 182h852l-34 -157l-719 -733l-3 -17h567l-37 -182h-862z" />
    <glyph glyph-name="Zcaron" unicode="&#x17d;" horiz-adv-x="1365" 
d="M107 161l1000 1061l3 17h-746l41 204h1041l-32 -161l-998 -1061l-2 -17h785l-41 -204h-1083zM655 1896h208l101 -188h16l179 188h232l-317 -314h-234z" />
    <glyph glyph-name="zcaron" unicode="&#x17e;" horiz-adv-x="1124" 
d="M655 1238l-206 346h208l120 -219h16l214 219h235l-353 -346h-234zM95 146l737 744l2 17h-571l38 182h852l-34 -157l-719 -733l-3 -17h567l-37 -182h-862z" />
    <glyph glyph-name="florin" unicode="&#x192;" horiz-adv-x="1360" 
d="M34 21l42 194q91 -39 194 -39q97 0 156 44q60 45 97 147l125 334h-332l36 176h357l77 210q135 380 502 380q119 0 212 -35l-41 -187q-81 29 -184 29q-108 0 -174 -52q-62 -49 -101 -156l-70 -189h358l-36 -176h-384l-129 -348q-70 -196 -186 -285q-115 -88 -299 -88
q-90 0 -220 41z" />
    <glyph glyph-name="Ohorn" unicode="&#x1a0;" horiz-adv-x="1675" 
d="M363 137q-168 172 -168 440q0 387 224 645q224 257 561 257q189 0 335 -94q145 -95 151 -95q67 0 104 31t53 105l37 173h184l-49 -231q-24 -112 -91 -171q-63 -54 -152 -54q-14 0 -40 7l-2 -16q65 -119 65 -266q0 -391 -222 -647t-561 -256q-261 0 -429 172zM1239 1153
q-103 114 -272 114q-229 0 -384 -195t-155 -481q0 -187 104 -301q105 -114 275 -114q230 0 383 193t153 483q0 186 -104 301z" />
    <glyph glyph-name="ohorn" unicode="&#x1a1;" horiz-adv-x="1398" 
d="M438 251q69 -80 187 -80q136 0 236 127q104 131 104 321q0 141 -66 221q-65 79 -180 79q-157 0 -254 -133q-94 -130 -94 -330q0 -127 67 -205zM1036 180q-166 -201 -431 -201q-206 0 -333 128t-127 334q0 283 159 472q166 197 431 197q142 0 257 -74q115 -75 139 -75
q116 0 147 139l36 173h184l-49 -234q-48 -223 -243 -223q-15 0 -38 7l-2 -14q27 -76 27 -160q0 -278 -157 -469z" />
    <glyph glyph-name="Uhorn" unicode="&#x1af;" horiz-adv-x="1785" 
d="M2003 1601l-48 -224q-54 -258 -297 -258q-75 0 -121 29l-148 -697q-50 -232 -210 -357q-165 -129 -429 -129q-245 0 -387 132q-136 125 -138 326q-1 58 13 127l187 893h228l-186 -882q-13 -64 -12 -120q4 -124 85 -193q84 -72 237 -72q150 0 255 86q106 86 139 239
l201 942h227l-27 -129q30 -22 76 -22q56 0 87 30q31 31 47 106l37 173h184z" />
    <glyph glyph-name="uhorn" unicode="&#x1b0;" horiz-adv-x="1500" 
d="M1654 1295l-48 -224q-55 -258 -297 -258q-61 0 -104 20l-176 -833h-208l34 155h-17q-106 -176 -343 -176q-148 0 -242 89q-94 88 -94 228q0 63 15 140l136 653h218l-131 -618q-13 -63 -13 -106q0 -189 207 -189q117 0 204 75q84 73 110 192l138 646h216l-19 -91
q26 -12 59 -12q56 0 86 30q32 31 48 106l37 173h184z" />
    <glyph glyph-name="uni01C4" unicode="&#x1c4;" horiz-adv-x="2874" 
d="M863 1443q291 0 453 -163q162 -162 162 -449q0 -358 -214 -595q-214 -236 -535 -236h-614l306 1443h442zM382 202h342q226 0 374 171q149 173 149 438q0 202 -110 316t-308 114h-221zM1615 161l1000 1061l3 17h-746l41 204h1041l-32 -161l-998 -1061l-2 -17h785l-41 -204
h-1083zM2163 1896h208l101 -188h16l179 188h232l-317 -314h-234z" />
    <glyph glyph-name="uni01C5" unicode="&#x1c5;" horiz-adv-x="2632" 
d="M863 1443q291 0 453 -163q162 -162 162 -449q0 -358 -214 -595q-214 -236 -535 -236h-614l306 1443h442zM382 202h342q226 0 374 171q149 173 149 438q0 202 -110 316t-308 114h-221zM2163 1238l-206 346h208l120 -219h16l214 219h235l-353 -346h-234zM1603 146l737 744
l2 17h-571l38 182h852l-34 -157l-719 -733l-3 -17h567l-37 -182h-862z" />
    <glyph glyph-name="uni01C6" unicode="&#x1c6;" horiz-adv-x="2410" 
d="M256 99q-113 120 -113 317q0 297 162 495q159 196 395 196q118 0 206 -59q86 -59 114 -153h17l131 619h218l-322 -1514h-208l32 150h-17q-126 -168 -339 -168q-167 0 -276 117zM874 311q105 135 105 331q0 126 -68 198t-182 72q-154 0 -257 -130q-105 -131 -105 -330
q0 -125 69 -202q68 -76 178 -76q154 0 260 137zM1941 1238l-206 346h208l120 -219h16l214 219h235l-353 -346h-234zM1381 146l737 744l2 17h-571l38 182h852l-34 -157l-719 -733l-3 -17h567l-37 -182h-862z" />
    <glyph glyph-name="uni01C7" unicode="&#x1c7;" horiz-adv-x="2331" 
d="M1496 370v-4q2 -86 57 -137q56 -50 150 -50q194 0 246 243l218 1021h223l-225 -1063q-42 -201 -164 -307q-123 -108 -317 -108q-187 0 -303 111t-107 281v13h222zM1015 0h-901l307 1443h227l-266 -1237h675z" />
    <glyph glyph-name="uni01C8" unicode="&#x1c8;" horiz-adv-x="1729" 
d="M1478 -84q-64 -303 -367 -303q-57 0 -99 7l38 184q40 -4 57 -4q71 0 108 33q38 33 54 110l245 1146h215zM1591 1318q-40 37 -40 92q0 56 40 94q39 39 99 39t100 -38q39 -37 39 -92q0 -56 -39 -94q-40 -39 -100 -39t-99 38zM1015 0h-901l307 1443h227l-266 -1237h675z" />
    <glyph glyph-name="uni01C9" unicode="&#x1c9;" horiz-adv-x="1090" 
d="M839 -84q-64 -303 -367 -303q-57 0 -99 7l38 184q40 -4 57 -4q71 0 108 33q38 33 54 110l245 1146h215zM952 1318q-40 37 -40 92q0 56 40 94q39 39 99 39t100 -38q39 -37 39 -92q0 -56 -39 -94q-40 -39 -100 -39t-99 38zM418 1514h218l-321 -1514h-219z" />
    <glyph glyph-name="uni01CA" unicode="&#x1ca;" horiz-adv-x="2687" 
d="M1852 370v-4q2 -86 57 -137q56 -50 150 -50q194 0 246 243l218 1021h223l-225 -1063q-42 -201 -164 -307q-123 -108 -317 -108q-187 0 -303 111t-107 281v13h222zM114 0l307 1443h196l514 -1055h17l229 1055h223l-307 -1443h-198l-514 1051h-17l-228 -1051h-222z" />
    <glyph glyph-name="uni01CB" unicode="&#x1cb;" horiz-adv-x="2085" 
d="M1834 -84q-64 -303 -367 -303q-57 0 -99 7l38 184q40 -4 57 -4q71 0 108 33q38 33 54 110l245 1146h215zM1947 1318q-40 37 -40 92q0 56 40 94q39 39 99 39t100 -38q39 -37 39 -92q0 -56 -39 -94q-40 -39 -100 -39t-99 38zM114 0l307 1443h196l514 -1055h17l229 1055h223
l-307 -1443h-198l-514 1051h-17l-228 -1051h-222z" />
    <glyph glyph-name="uni01CC" unicode="&#x1cc;" horiz-adv-x="1798" 
d="M1547 -84q-64 -303 -367 -303q-57 0 -99 7l38 184q40 -4 57 -4q71 0 108 33q38 33 54 110l245 1146h215zM1660 1318q-40 37 -40 92q0 56 40 94q39 39 99 39t100 -38q39 -37 39 -92q0 -56 -39 -94q-40 -39 -100 -39t-99 38zM318 1093h209l-35 -167h17q121 184 340 184
q152 0 249 -95q93 -92 93 -227q0 -59 -15 -127l-139 -661h-217l132 623q12 54 12 96q0 88 -59 142q-59 55 -158 55q-113 0 -196 -73q-82 -71 -107 -185l-140 -658h-217z" />
    <glyph glyph-name="uni01CD" unicode="&#x1cd;" horiz-adv-x="1423" 
d="M1012 383h-554l-215 -383h-237l836 1443h232l212 -1443h-224zM554 571h440l-82 608h-16zM696 1896h208l101 -188h16l179 188h232l-317 -314h-234z" />
    <glyph glyph-name="uni01CE" unicode="&#x1ce;" horiz-adv-x="1153" 
d="M701 225q85 63 107 159l25 112l-265 -12q-120 -5 -188 -52q-67 -46 -67 -122q0 -65 54 -107q53 -42 138 -42q110 0 196 64zM191 68q-94 85 -94 213q0 163 123 258q124 95 351 103l295 12l15 71q6 32 6 46q0 71 -57 112q-57 40 -157 40q-173 0 -222 -119h-215
q35 141 158 224q123 82 296 82q186 0 299 -85q113 -86 113 -227q0 -46 -9 -88l-150 -710h-209l30 139h-17q-115 -157 -321 -157q-141 0 -235 86zM634 1238l-206 346h208l120 -219h16l214 219h235l-353 -346h-234z" />
    <glyph glyph-name="uni01CF" unicode="&#x1cf;" horiz-adv-x="587" 
d="M114 0l307 1443h227l-307 -1443h-227zM273 1896h208l101 -188h16l179 188h232l-317 -314h-234z" />
    <glyph glyph-name="uni01D0" unicode="&#x1d0;" horiz-adv-x="546" 
d="M366 1238l-206 346h208l120 -219h16l214 219h235l-353 -346h-234zM330 1089h215l-231 -1089h-215z" />
    <glyph glyph-name="uni01D1" unicode="&#x1d1;" horiz-adv-x="1593" 
d="M713 1894h208l101 -188h16l179 188h232l-317 -314h-234zM361 137q-168 170 -168 432q0 394 224 652q222 257 560 257q264 0 431 -171q165 -170 165 -433q0 -397 -222 -654q-221 -255 -559 -255q-263 0 -431 172zM1236 1153q-104 113 -272 113q-229 0 -383 -195
q-155 -195 -155 -484q0 -185 105 -298q104 -113 275 -113q230 0 382 193q152 194 152 486q0 184 -104 298z" />
    <glyph glyph-name="uni01D2" unicode="&#x1d2;" horiz-adv-x="1238" 
d="M661 1238l-206 346h208l120 -219h16l214 219h235l-353 -346h-234zM440 251q69 -80 187 -80q136 0 236 127q104 131 104 321q0 141 -66 221q-65 79 -180 79q-157 0 -254 -133q-94 -130 -94 -330q0 -127 67 -205zM273 107q-126 128 -126 334q0 283 159 472q166 197 431 197
q206 0 332 -128q125 -128 125 -333q0 -279 -157 -469q-165 -201 -431 -201q-206 0 -333 128z" />
    <glyph glyph-name="uni01D3" unicode="&#x1d3;" horiz-adv-x="1538" 
d="M748 1896h208l101 -188h16l179 188h232l-317 -314h-234zM363 97q-136 125 -138 326q-1 58 13 127l187 893h228l-186 -882q-13 -64 -12 -120q4 -124 85 -193q84 -72 237 -72q150 0 255 86q106 86 139 239l201 942h227l-210 -992q-50 -232 -210 -357q-165 -129 -429 -129
q-245 0 -387 132z" />
    <glyph glyph-name="uni01D4" unicode="&#x1d4;" horiz-adv-x="1247" 
d="M707 1238l-206 346h208l120 -219h16l214 219h235l-353 -346h-234zM1029 0h-208l34 155h-17q-106 -176 -343 -176q-148 0 -242 89q-94 88 -94 228q0 63 15 140l136 653h218l-131 -618q-13 -63 -13 -106q0 -189 207 -189q117 0 204 75q84 73 110 192l138 646h216z" />
    <glyph glyph-name="uni01D5" unicode="&#x1d5;" horiz-adv-x="1538" 
d="M363 97q-136 125 -138 326q-1 58 13 127l187 893h228l-186 -882q-13 -64 -12 -120q4 -124 85 -193q84 -72 237 -72q150 0 255 86q106 86 139 239l201 942h227l-210 -992q-50 -232 -210 -357q-165 -129 -429 -129q-245 0 -387 132zM799 2107h700l-31 -147h-700zM763 1615
q-38 37 -38 93t38 94q37 38 92 38t93 -38q37 -38 37 -94q0 -55 -37 -93q-38 -38 -93 -38t-92 38zM1190 1615q-38 37 -38 93t38 94q37 38 92 38q56 0 93 -38t37 -94t-37 -93q-37 -38 -93 -38q-55 0 -92 38z" />
    <glyph glyph-name="uni01D6" unicode="&#x1d6;" horiz-adv-x="1247" 
d="M1029 0h-208l34 155h-17q-106 -176 -343 -176q-148 0 -242 89q-94 88 -94 228q0 63 15 140l136 653h218l-131 -618q-13 -63 -13 -106q0 -189 207 -189q117 0 204 75q84 73 110 192l138 646h216zM537 1276q-37 37 -37 91q0 55 37 92q36 38 90 38t91 -38q36 -37 36 -92
q0 -54 -36 -91q-37 -38 -91 -38t-90 38zM954 1276q-36 37 -36 91q0 55 36 92q37 38 91 38t91 -38q36 -37 36 -92q0 -54 -36 -91q-37 -38 -91 -38t-91 38zM548 1645l32 155h696l-32 -155h-696z" />
    <glyph glyph-name="uni01D7" unicode="&#x1d7;" horiz-adv-x="1538" 
d="M1224 2132h250l-306 -231h-199zM759 1616q-39 38 -39 95t39 96q38 39 94 39q57 0 96 -39q38 -39 38 -96t-38 -95q-39 -39 -96 -39q-56 0 -94 39zM1186 1616q-39 38 -39 95t39 96q38 39 94 39q57 0 96 -39q38 -39 38 -96t-38 -95q-39 -39 -96 -39q-56 0 -94 39zM363 97
q-136 125 -138 326q-1 58 13 127l187 893h228l-186 -882q-13 -64 -12 -120q4 -124 85 -193q84 -72 237 -72q150 0 255 86q106 86 139 239l201 942h227l-210 -992q-50 -232 -210 -357q-165 -129 -429 -129q-245 0 -387 132z" />
    <glyph glyph-name="uni01D8" unicode="&#x1d8;" horiz-adv-x="1247" 
d="M1006 1910h228l-293 -299h-195zM529 1280q-38 38 -38 95t38 96q39 39 95 39q57 0 96 -39q38 -39 38 -96t-38 -95q-39 -39 -96 -39q-56 0 -95 39zM956 1280q-38 38 -38 95t38 96q39 39 95 39q57 0 96 -39q38 -39 38 -96t-38 -95q-39 -39 -96 -39q-56 0 -95 39zM1029 0
h-208l34 155h-17q-106 -176 -343 -176q-148 0 -242 89q-94 88 -94 228q0 63 15 140l136 653h218l-131 -618q-13 -63 -13 -106q0 -189 207 -189q117 0 204 75q84 73 110 192l138 646h216z" />
    <glyph glyph-name="uni01D9" unicode="&#x1d9;" horiz-adv-x="1538" 
d="M760 1608q-38 37 -38 91q0 55 38 92q37 37 91 37q55 0 92 -37t37 -92q0 -54 -37 -91q-37 -38 -92 -38q-54 0 -91 38zM1187 1608q-38 37 -38 91q0 55 38 92q37 37 91 37q55 0 92 -37t37 -92q0 -54 -37 -91q-37 -38 -92 -38q-54 0 -91 38zM762 2145h230l125 -150h17
l186 150h253l-343 -262h-234zM363 97q-136 125 -138 326q-1 58 13 127l187 893h228l-186 -882q-13 -64 -12 -120q4 -124 85 -193q84 -72 237 -72q150 0 255 86q106 86 139 239l201 942h227l-210 -992q-50 -232 -210 -357q-165 -129 -429 -129q-245 0 -387 132z" />
    <glyph glyph-name="uni01DA" unicode="&#x1da;" horiz-adv-x="1247" 
d="M537 1276q-37 37 -37 91q0 55 37 92q36 38 91 38q54 0 91 -38q36 -37 36 -92q0 -54 -36 -91q-37 -38 -91 -38t-91 38zM955 1276q-37 37 -37 91q0 55 37 92q36 38 90 38q55 0 91 -38q37 -37 37 -92q0 -54 -37 -91q-37 -38 -91 -38t-90 38zM540 1926h207l111 -204h17
l197 204h235l-336 -331h-234zM1029 0h-208l34 155h-17q-106 -176 -343 -176q-148 0 -242 89q-94 88 -94 228q0 63 15 140l136 653h218l-131 -618q-13 -63 -13 -106q0 -189 207 -189q117 0 204 75q84 73 110 192l138 646h216z" />
    <glyph glyph-name="uni01DB" unicode="&#x1db;" horiz-adv-x="1538" 
d="M975 1901l-210 231h251l158 -231h-199zM759 1616q-39 38 -39 95t39 96q38 39 94 39q57 0 96 -39q38 -39 38 -96t-38 -95q-39 -39 -96 -39q-56 0 -94 39zM1186 1616q-39 38 -39 95t39 96q38 39 94 39q57 0 96 -39q38 -39 38 -96t-38 -95q-39 -39 -96 -39q-56 0 -94 39z
M363 97q-136 125 -138 326q-1 58 13 127l187 893h228l-186 -882q-13 -64 -12 -120q4 -124 85 -193q84 -72 237 -72q150 0 255 86q106 86 139 239l201 942h227l-210 -992q-50 -232 -210 -357q-165 -129 -429 -129q-245 0 -387 132z" />
    <glyph glyph-name="uni01DC" unicode="&#x1dc;" horiz-adv-x="1247" 
d="M753 1611l-164 299h228l131 -299h-195zM529 1280q-38 38 -38 95t38 96q39 39 95 39q57 0 96 -39q38 -39 38 -96t-38 -95q-39 -39 -96 -39q-56 0 -95 39zM956 1280q-38 38 -38 95t38 96q39 39 95 39q57 0 96 -39q38 -39 38 -96t-38 -95q-39 -39 -96 -39q-56 0 -95 39z
M1029 0h-208l34 155h-17q-106 -176 -343 -176q-148 0 -242 89q-94 88 -94 228q0 63 15 140l136 653h218l-131 -618q-13 -63 -13 -106q0 -189 207 -189q117 0 204 75q84 73 110 192l138 646h216z" />
    <glyph glyph-name="uni01DE" unicode="&#x1de;" horiz-adv-x="1423" 
d="M1012 383h-554l-215 -383h-237l836 1443h232l212 -1443h-224zM554 571h440l-82 608h-16zM747 2107h700l-31 -147h-700zM710 1615q-37 37 -37 93t37 94q38 38 93 38t92 -38q38 -38 38 -94q0 -55 -38 -93q-37 -38 -92 -38t-93 38zM1137 1615q-37 37 -37 93t37 94
q38 38 93 38t93 -38q37 -38 37 -94t-37 -93q-38 -38 -93 -38t-93 38z" />
    <glyph glyph-name="uni01DF" unicode="&#x1df;" horiz-adv-x="1153" 
d="M701 225q85 63 107 159l25 112l-265 -12q-120 -5 -188 -52q-67 -46 -67 -122q0 -65 54 -107q53 -42 138 -42q110 0 196 64zM191 68q-94 85 -94 213q0 163 123 258q124 95 351 103l295 12l15 71q6 32 6 46q0 71 -57 112q-57 40 -157 40q-173 0 -222 -119h-215
q35 141 158 224q123 82 296 82q186 0 299 -85q113 -86 113 -227q0 -46 -9 -88l-150 -710h-209l30 139h-17q-115 -157 -321 -157q-141 0 -235 86zM464 1276q-37 37 -37 91q0 55 37 92q36 38 90 38t91 -38q36 -37 36 -92q0 -54 -36 -91q-37 -38 -91 -38t-90 38zM881 1276
q-36 37 -36 91q0 55 36 92q37 38 91 38t91 -38q36 -37 36 -92q0 -54 -36 -91q-37 -38 -91 -38t-91 38zM475 1645l32 155h696l-32 -155h-696z" />
    <glyph glyph-name="uni01E0" unicode="&#x1e0;" horiz-adv-x="1423" 
d="M1012 383h-554l-215 -383h-237l836 1443h232l212 -1443h-224zM554 571h440l-82 608h-16zM716 1960l31 147h700l-31 -147h-700zM920 1614q-38 38 -38 94t38 94t94 38t94 -38t38 -94t-38 -94t-94 -38t-94 38z" />
    <glyph glyph-name="uni01E1" unicode="&#x1e1;" horiz-adv-x="1153" 
d="M701 225q85 63 107 159l25 112l-265 -12q-120 -5 -188 -52q-67 -46 -67 -122q0 -65 54 -107q53 -42 138 -42q110 0 196 64zM191 68q-94 85 -94 213q0 163 123 258q124 95 351 103l295 12l15 71q6 32 6 46q0 71 -57 112q-57 40 -157 40q-173 0 -222 -119h-215
q35 141 158 224q123 82 296 82q186 0 299 -85q113 -86 113 -227q0 -46 -9 -88l-150 -710h-209l30 139h-17q-115 -157 -321 -157q-141 0 -235 86zM668 1276q-37 38 -37 94t37 95q38 38 93 38q56 0 94 -38q37 -39 37 -95t-37 -94q-38 -38 -94 -38q-55 0 -93 38zM475 1645
l32 155h696l-32 -155h-696z" />
    <glyph glyph-name="uni01E2" unicode="&#x1e2;" horiz-adv-x="1999" 
d="M1056 1253l-427 -647h429l139 647h-141zM1020 417h-505l-280 -417h-230l938 1443h1163l-42 -204h-655l-91 -415h619l-40 -195h-618l-95 -425h656l-41 -204h-871zM1147 1625l32 156h699l-32 -156h-699z" />
    <glyph glyph-name="uni01E3" unicode="&#x1e3;" horiz-adv-x="1893" 
d="M1048 40q-110 62 -153 162h-16q-59 -95 -168 -157q-118 -66 -249 -66q-160 0 -263 88q-102 86 -102 216q0 166 123 260t352 102l294 12l16 68q5 25 5 46q0 71 -57 112q-56 40 -156 40q-173 0 -222 -119h-216q36 142 158 225q121 81 294 81q252 0 343 -163h17
q141 163 363 163q180 0 300 -118q125 -125 126 -329q0 -84 -15 -170h-774q-2 -28 -2 -45q0 -140 81 -215q69 -66 176 -66q184 0 251 126h218q-35 -140 -163 -225q-134 -89 -329 -89q-125 0 -232 61zM1621 651q2 12 2 43q0 100 -59 164q-63 69 -171 69q-114 0 -200 -76
q-84 -74 -119 -200h547zM702 223q85 64 107 161l25 112l-266 -12q-120 -5 -187 -51q-68 -46 -68 -123q0 -66 54 -109t138 -43q111 0 197 65zM740 1299l32 155h696l-32 -155h-696z" />
    <glyph glyph-name="Gcaron" unicode="&#x1e6;" horiz-adv-x="1542" 
d="M693 1896h208l101 -188h16l179 188h232l-317 -314h-234zM1465 556q-59 -288 -235 -440q-176 -151 -450 -151q-263 0 -425 165q-161 166 -161 437q0 397 218 654q217 257 553 257q230 0 389 -130q158 -130 169 -328q1 -8 1 -35h-223q-9 128 -105 205t-247 77
q-224 0 -374 -194q-150 -195 -150 -486q0 -190 103 -301q102 -110 279 -110q161 0 278 93q117 94 149 248l9 42h-367l39 188h590z" />
    <glyph glyph-name="gcaron" unicode="&#x1e7;" horiz-adv-x="1276" 
d="M675 1238l-206 346h208l120 -219h16l214 219h235l-353 -346h-234zM185 -321q-126 90 -132 225h221q10 -62 75 -101q70 -42 178 -42q254 0 306 219l46 197l-17 1q-114 -160 -325 -160q-167 0 -277 118q-112 119 -112 307q0 287 156 476q154 188 384 188q114 0 207 -60
q94 -60 125 -154h17l42 196h209l-245 -1138q-36 -171 -174 -267q-141 -99 -357 -99q-197 0 -327 94zM869 323q102 126 102 319q0 124 -69 197t-185 73q-151 0 -248 -120q-98 -122 -98 -318q0 -128 66 -202t179 -74q152 0 253 125z" />
    <glyph glyph-name="uni01E8" unicode="&#x1e8;" horiz-adv-x="1387" 
d="M114 0l307 1443h223l-145 -672h17l731 672h279l-690 -643l425 -800h-257l-349 657l-216 -194l-102 -463h-223zM647 1896h208l101 -188h16l179 188h232l-317 -314h-234z" />
    <glyph glyph-name="uni01E9" unicode="&#x1e9;" horiz-adv-x="1152" 
d="M979 1089h268l-552 -472l350 -617h-244l-280 490l-123 -94l-85 -396h-217l322 1514h216l-182 -854h17zM219 1967h208l101 -188h16l179 188h232l-317 -314h-234z" />
    <glyph glyph-name="uni01EA" unicode="&#x1ea;" horiz-adv-x="1596" 
d="M811 -390q-63 53 -63 147q0 112 103 196l-1 17q-19 -4 -65 -4q-257 3 -424 173t-167 430q0 393 223 652q223 258 562 258q261 0 429 -169q167 -170 167 -435q0 -519 -410 -811q-233 -172 -233 -264q0 -96 125 -96q32 0 44 3l-28 -140q-32 -10 -88 -10q-111 0 -174 53z
M1238 1153q-104 114 -273 114q-228 0 -383 -196q-154 -196 -154 -484q0 -184 104 -297q105 -114 275 -114q230 0 383 194q152 194 152 486q0 184 -104 297z" />
    <glyph glyph-name="uni01EB" unicode="&#x1eb;" horiz-adv-x="1238" 
d="M560 -390q-63 53 -63 147q0 117 116 206l-1 16h-14q-202 4 -326 131q-125 127 -125 331q0 292 166 480q167 189 424 189q205 0 331 -127t126 -334q0 -196 -84 -357q-84 -160 -228 -243q-201 -121 -201 -250q0 -95 125 -95q32 0 44 3l-28 -140q-32 -10 -88 -10
q-111 0 -174 53zM442 249q69 -78 185 -78q140 0 240 132q100 131 100 316q0 140 -65 220q-66 80 -181 80q-154 0 -251 -130q-97 -129 -97 -333q0 -130 69 -207z" />
    <glyph glyph-name="uni01EC" unicode="&#x1ec;" horiz-adv-x="1596" 
d="M811 -390q-63 53 -63 147q0 112 103 196l-1 17q-19 -4 -65 -4q-257 3 -424 173t-167 430q0 393 223 652q223 258 562 258q261 0 429 -169q167 -170 167 -435q0 -519 -410 -811q-233 -172 -233 -264q0 -96 125 -96q32 0 44 3l-28 -140q-32 -10 -88 -10q-111 0 -174 53z
M1238 1153q-104 114 -273 114q-228 0 -383 -196q-154 -196 -154 -484q0 -184 104 -297q105 -114 275 -114q230 0 383 194q152 194 152 486q0 184 -104 297zM664 1623l32 156h699l-32 -156h-699z" />
    <glyph glyph-name="uni01ED" unicode="&#x1ed;" horiz-adv-x="1238" 
d="M429 1299l32 155h696l-32 -155h-696zM560 -390q-63 53 -63 147q0 117 116 206l-1 16h-14q-202 4 -326 131q-125 127 -125 331q0 292 166 480q167 189 424 189q205 0 331 -127t126 -334q0 -196 -84 -357q-84 -160 -228 -243q-201 -121 -201 -250q0 -95 125 -95q32 0 44 3
l-28 -140q-32 -10 -88 -10q-111 0 -174 53zM442 249q69 -78 185 -78q140 0 240 132q100 131 100 316q0 140 -65 220q-66 80 -181 80q-154 0 -251 -130q-97 -129 -97 -333q0 -130 69 -207z" />
    <glyph glyph-name="uni01F1" unicode="&#x1f1;" horiz-adv-x="2874" 
d="M1615 161l1000 1061l3 17h-746l41 204h1041l-32 -161l-998 -1061l-2 -17h785l-41 -204h-1083zM863 1443q291 0 453 -163q162 -162 162 -449q0 -358 -214 -595q-214 -236 -535 -236h-614l306 1443h442zM382 202h342q226 0 374 171q149 173 149 438q0 202 -110 316
t-308 114h-221z" />
    <glyph glyph-name="uni01F2" unicode="&#x1f2;" horiz-adv-x="2632" 
d="M1603 146l737 744l2 17h-571l38 182h852l-34 -157l-719 -733l-3 -17h567l-37 -182h-862zM863 1443q291 0 453 -163q162 -162 162 -449q0 -358 -214 -595q-214 -236 -535 -236h-614l306 1443h442zM382 202h342q226 0 374 171q149 173 149 438q0 202 -110 316t-308 114
h-221z" />
    <glyph glyph-name="uni01F3" unicode="&#x1f3;" horiz-adv-x="2410" 
d="M1381 146l737 744l2 17h-571l38 182h852l-34 -157l-719 -733l-3 -17h567l-37 -182h-862zM256 99q-113 120 -113 317q0 297 162 495q159 196 395 196q118 0 206 -59q86 -59 114 -153h17l131 619h218l-322 -1514h-208l32 150h-17q-126 -168 -339 -168q-167 0 -276 117z
M874 311q105 135 105 331q0 126 -68 198t-182 72q-154 0 -257 -130q-105 -131 -105 -330q0 -125 69 -202q68 -76 178 -76q154 0 260 137z" />
    <glyph glyph-name="uni01F4" unicode="&#x1f4;" horiz-adv-x="1542" 
d="M1235 1888h258l-390 -306h-230zM1465 556q-59 -288 -235 -440q-176 -151 -450 -151q-263 0 -425 165q-161 166 -161 437q0 397 218 654q217 257 553 257q230 0 389 -130q158 -130 169 -328q1 -8 1 -35h-223q-9 128 -105 205t-247 77q-224 0 -374 -194
q-150 -195 -150 -486q0 -190 103 -301q102 -110 279 -110q161 0 278 93q117 94 149 248l9 42h-367l39 188h590z" />
    <glyph glyph-name="uni01F5" unicode="&#x1f5;" horiz-adv-x="1276" 
d="M988 1615h252l-354 -344h-222zM185 -321q-126 90 -132 225h221q10 -62 75 -101q70 -42 178 -42q254 0 306 219l46 197l-17 1q-114 -160 -325 -160q-167 0 -277 118q-112 119 -112 307q0 287 156 476q154 188 384 188q114 0 207 -60q94 -60 125 -154h17l42 196h209
l-245 -1138q-36 -171 -174 -267q-141 -99 -357 -99q-197 0 -327 94zM869 323q102 126 102 319q0 124 -69 197t-185 73q-151 0 -248 -120q-98 -122 -98 -318q0 -128 66 -202t179 -74q152 0 253 125z" />
    <glyph glyph-name="uni01F8" unicode="&#x1f8;" horiz-adv-x="1539" 
d="M1140 1582h-213l-210 306h242zM114 0l307 1443h196l514 -1055h17l229 1055h223l-307 -1443h-198l-514 1051h-17l-228 -1051h-222z" />
    <glyph glyph-name="uni01F9" unicode="&#x1f9;" horiz-adv-x="1247" 
d="M668 1273l-222 344h247l191 -344h-216zM318 1093h209l-35 -167h17q121 184 340 184q152 0 249 -95q93 -92 93 -227q0 -59 -15 -127l-139 -661h-217l132 623q12 54 12 96q0 88 -59 142q-59 55 -158 55q-113 0 -196 -73q-82 -71 -107 -185l-140 -658h-217z" />
    <glyph glyph-name="Aringacute" unicode="&#x1fa;" horiz-adv-x="1423" 
d="M1012 383h-554l-215 -383h-237l836 1443h232l212 -1443h-224zM554 571h440l-82 608h-16zM952 1691q20 -27 55 -34q34 -7 62 10q27 18 33 50q5 33 -15 60q-19 27 -54 35q-35 7 -62 -10q-28 -18 -33 -51q-6 -32 14 -60zM873 1591q-60 58 -60 145q0 86 60 144t147 58
t146 -58q60 -58 60 -144q0 -87 -60 -145q-59 -59 -146 -59t-147 59zM1292 2191l-167 -186h-188l141 186h214z" />
    <glyph glyph-name="aringacute" unicode="&#x1fb;" horiz-adv-x="1153" 
d="M701 225q85 63 107 159l25 112l-265 -12q-120 -5 -188 -52q-67 -46 -67 -122q0 -65 54 -107q53 -42 138 -42q110 0 196 64zM191 68q-94 85 -94 213q0 163 123 258q124 95 351 103l295 12l15 71q6 32 6 46q0 71 -57 112q-57 40 -157 40q-173 0 -222 -119h-215
q35 141 158 224q123 82 296 82q186 0 299 -85q113 -86 113 -227q0 -46 -9 -88l-150 -710h-209l30 139h-17q-115 -157 -321 -157q-141 0 -235 86zM636 1267q-61 60 -61 148t61 149q61 60 150 60t150 -60q61 -61 61 -149t-61 -148t-150 -60t-150 60zM717 1345q28 -28 69 -28
t69 28t28 70q0 41 -28 69t-69 28t-69 -28t-28 -69q0 -42 28 -70zM911 1938h218l-244 -231h-186z" />
    <glyph glyph-name="AEacute" unicode="&#x1fc;" horiz-adv-x="1999" 
d="M1738 1888h258l-390 -306h-230zM1056 1253l-427 -647h429l139 647h-141zM1020 417h-505l-280 -417h-230l938 1443h1163l-42 -204h-655l-91 -415h619l-40 -195h-618l-95 -425h656l-41 -204h-871z" />
    <glyph glyph-name="aeacute" unicode="&#x1fd;" horiz-adv-x="1893" 
d="M1285 1615h252l-354 -344h-222zM1048 40q-110 62 -153 162h-16q-59 -95 -168 -157q-118 -66 -249 -66q-160 0 -263 88q-102 86 -102 216q0 166 123 260t352 102l294 12l16 68q5 25 5 46q0 71 -57 112q-56 40 -156 40q-173 0 -222 -119h-216q36 142 158 225q121 81 294 81
q252 0 343 -163h17q141 163 363 163q180 0 300 -118q125 -125 126 -329q0 -84 -15 -170h-774q-2 -28 -2 -45q0 -140 81 -215q69 -66 176 -66q184 0 251 126h218q-35 -140 -163 -225q-134 -89 -329 -89q-125 0 -232 61zM1621 651q2 12 2 43q0 100 -59 164q-63 69 -171 69
q-114 0 -200 -76q-84 -74 -119 -200h547zM702 223q85 64 107 161l25 112l-266 -12q-120 -5 -187 -51q-68 -46 -68 -123q0 -66 54 -109t138 -43q111 0 197 65z" />
    <glyph glyph-name="Oslashacute" unicode="&#x1fe;" horiz-adv-x="1566" 
d="M1088 1580h-230l362 306h258zM600 232q89 -56 206 -56q230 0 382 193q152 194 152 486q0 166 -86 277zM1164 1212q-86 54 -200 54q-229 0 -383 -195q-155 -195 -155 -484q0 -162 83 -272zM1392 1322q181 -171 181 -448q0 -397 -222 -654q-221 -255 -559 -255
q-181 0 -323 86l-78 -107l-101 71l81 111q-178 172 -178 443q0 394 224 652q222 257 560 257q180 0 320 -84l74 102l101 -64z" />
    <glyph glyph-name="oslashacute" unicode="&#x1ff;" horiz-adv-x="1233" 
d="M837 1271h-222l324 344h252zM465 227q64 -56 162 -56q136 0 236 127q104 131 104 321q0 90 -28 157zM874 867q-61 52 -153 52q-157 0 -254 -133q-94 -130 -94 -330q0 -76 26 -137zM1093 955q101 -123 101 -306q0 -279 -157 -469q-165 -201 -431 -201q-164 0 -282 85
l-101 -117l-89 67l110 127q-97 122 -97 300q0 283 159 472q166 197 431 197q163 0 277 -82l99 114l88 -62z" />
    <glyph glyph-name="uni0200" unicode="&#x200;" horiz-adv-x="1423" 
d="M1012 383h-554l-215 -383h-237l836 1443h232l212 -1443h-224zM554 571h440l-82 608h-16zM695 1582l-196 306h242l173 -306h-219zM1118 1582l-197 306h242l173 -306h-218z" />
    <glyph glyph-name="uni0201" unicode="&#x201;" horiz-adv-x="1153" 
d="M701 225q85 63 107 159l25 112l-265 -12q-120 -5 -188 -52q-67 -46 -67 -122q0 -65 54 -107q53 -42 138 -42q110 0 196 64zM191 68q-94 85 -94 213q0 163 123 258q124 95 351 103l295 12l15 71q6 32 6 46q0 71 -57 112q-57 40 -157 40q-173 0 -222 -119h-215
q35 141 158 224q123 82 296 82q186 0 299 -85q113 -86 113 -227q0 -46 -9 -88l-150 -710h-209l30 139h-17q-115 -157 -321 -157q-141 0 -235 86zM414 1271l-193 344h221l165 -344h-193zM827 1271l-194 344h222l165 -344h-193z" />
    <glyph glyph-name="uni0202" unicode="&#x202;" horiz-adv-x="1423" 
d="M1012 383h-554l-215 -383h-237l836 1443h232l212 -1443h-224zM554 571h440l-82 608h-16zM1389 1577h-170v17q0 65 -55 108q-54 42 -135 42q-82 0 -139 -44q-56 -44 -76 -123h-172q25 143 131 228q107 86 260 86q158 0 257 -83q99 -82 99 -212v-19z" />
    <glyph glyph-name="uni0203" unicode="&#x203;" horiz-adv-x="1153" 
d="M701 225q85 63 107 159l25 112l-265 -12q-120 -5 -188 -52q-67 -46 -67 -122q0 -65 54 -107q53 -42 138 -42q110 0 196 64zM191 68q-94 85 -94 213q0 163 123 258q124 95 351 103l295 12l15 71q6 32 6 46q0 71 -57 112q-57 40 -157 40q-173 0 -222 -119h-215
q35 141 158 224q123 82 296 82q186 0 299 -85q113 -86 113 -227q0 -46 -9 -88l-150 -710h-209l30 139h-17q-115 -157 -321 -157q-141 0 -235 86zM981 1238q2 16 2 30q0 73 -52 117q-53 44 -140 44q-200 0 -229 -191h-174q15 154 124 245q111 93 286 93q158 0 258 -84
q99 -83 99 -210q0 -24 -4 -44h-170z" />
    <glyph glyph-name="uni0204" unicode="&#x204;" horiz-adv-x="1239" 
d="M616 1582l-196 306h242l173 -306h-219zM1039 1582l-197 306h242l173 -306h-218zM1032 0h-918l307 1443h917l-41 -204h-690l-91 -408h654l-40 -194h-653l-96 -433h691z" />
    <glyph glyph-name="uni0205" unicode="&#x205;" horiz-adv-x="1198" 
d="M280 99q-132 126 -132 341q0 299 161 485q159 185 413 185q184 0 304 -118q125 -124 126 -329q0 -78 -14 -170h-775q-1 -14 -1 -44q0 -140 80 -216q70 -66 176 -66q185 0 252 126h218q-36 -140 -162 -225q-132 -89 -322 -89q-199 0 -324 120zM936 651q3 18 3 43
q0 100 -59 164q-64 69 -172 69q-114 0 -200 -76q-84 -74 -119 -200h547zM424 1271l-193 344h221l165 -344h-193zM837 1271l-194 344h222l165 -344h-193z" />
    <glyph glyph-name="uni0206" unicode="&#x206;" horiz-adv-x="1239" 
d="M1032 0h-918l307 1443h917l-41 -204h-690l-91 -408h654l-40 -194h-653l-96 -433h691zM1310 1577h-170v17q0 65 -55 108q-54 42 -135 42q-82 0 -139 -44q-56 -44 -76 -123h-172q25 143 131 228q107 86 260 86q158 0 257 -83q99 -82 99 -212v-19z" />
    <glyph glyph-name="uni0207" unicode="&#x207;" horiz-adv-x="1198" 
d="M280 99q-132 126 -132 341q0 299 161 485q159 185 413 185q184 0 304 -118q125 -124 126 -329q0 -78 -14 -170h-775q-1 -14 -1 -44q0 -140 80 -216q70 -66 176 -66q185 0 252 126h218q-36 -140 -162 -225q-132 -89 -322 -89q-199 0 -324 120zM936 651q3 18 3 43
q0 100 -59 164q-64 69 -172 69q-114 0 -200 -76q-84 -74 -119 -200h547zM991 1238q2 16 2 30q0 73 -52 117q-53 44 -140 44q-200 0 -229 -191h-174q15 154 124 245q111 93 286 93q158 0 258 -84q99 -83 99 -210q0 -24 -4 -44h-170z" />
    <glyph glyph-name="uni0208" unicode="&#x208;" horiz-adv-x="587" 
d="M114 0l307 1443h227l-307 -1443h-227zM272 1582l-196 306h242l173 -306h-219zM695 1582l-197 306h242l173 -306h-218z" />
    <glyph glyph-name="uni0209" unicode="&#x209;" horiz-adv-x="546" 
d="M331 1089h215l-231 -1089h-215zM147 1271l-193 344h221l165 -344h-193zM560 1271l-194 344h222l165 -344h-193z" />
    <glyph glyph-name="uni020A" unicode="&#x20a;" horiz-adv-x="587" 
d="M114 0l307 1443h227l-307 -1443h-227zM966 1577h-170v17q0 65 -55 108q-54 42 -135 42q-82 0 -139 -44q-56 -44 -76 -123h-172q25 143 131 228q107 86 260 86q158 0 257 -83q99 -82 99 -212v-19z" />
    <glyph glyph-name="uni020B" unicode="&#x20b;" horiz-adv-x="546" 
d="M330 1089h215l-231 -1089h-215zM713 1238q2 16 2 30q0 73 -52 117q-53 44 -140 44q-200 0 -229 -191h-174q15 154 124 245q111 93 286 93q158 0 258 -84q99 -83 99 -210q0 -24 -4 -44h-170z" />
    <glyph glyph-name="uni020C" unicode="&#x20c;" horiz-adv-x="1593" 
d="M712 1580l-196 306h242l173 -306h-219zM1135 1580l-197 306h242l173 -306h-218zM361 137q-168 170 -168 432q0 394 224 652q222 257 560 257q264 0 431 -171q165 -170 165 -433q0 -397 -222 -654q-221 -255 -559 -255q-263 0 -431 172zM1236 1153q-104 113 -272 113
q-229 0 -383 -195q-155 -195 -155 -484q0 -185 105 -298q104 -113 275 -113q230 0 382 193q152 194 152 486q0 184 -104 298z" />
    <glyph glyph-name="uni020D" unicode="&#x20d;" horiz-adv-x="1238" 
d="M440 251q69 -80 187 -80q136 0 236 127q104 131 104 321q0 141 -66 221q-65 79 -180 79q-157 0 -254 -133q-94 -130 -94 -330q0 -127 67 -205zM273 107q-126 128 -126 334q0 283 159 472q166 197 431 197q206 0 332 -128q125 -128 125 -333q0 -279 -157 -469
q-165 -201 -431 -201q-206 0 -333 128zM441 1271l-193 344h221l165 -344h-193zM854 1271l-194 344h222l165 -344h-193z" />
    <glyph glyph-name="uni020E" unicode="&#x20e;" horiz-adv-x="1593" 
d="M1406 1575h-170v17q0 65 -55 108q-54 42 -135 42q-82 0 -139 -44q-56 -44 -76 -123h-172q25 143 131 228q107 86 260 86q158 0 257 -83q99 -82 99 -212v-19zM361 137q-168 170 -168 432q0 394 224 652q222 257 560 257q264 0 431 -171q165 -170 165 -433
q0 -397 -222 -654q-221 -255 -559 -255q-263 0 -431 172zM1236 1153q-104 113 -272 113q-229 0 -383 -195q-155 -195 -155 -484q0 -185 105 -298q104 -113 275 -113q230 0 382 193q152 194 152 486q0 184 -104 298z" />
    <glyph glyph-name="uni020F" unicode="&#x20f;" horiz-adv-x="1238" 
d="M440 251q69 -80 187 -80q136 0 236 127q104 131 104 321q0 141 -66 221q-65 79 -180 79q-157 0 -254 -133q-94 -130 -94 -330q0 -127 67 -205zM273 107q-126 128 -126 334q0 283 159 472q166 197 431 197q206 0 332 -128q125 -128 125 -333q0 -279 -157 -469
q-165 -201 -431 -201q-206 0 -333 128zM1008 1238q2 16 2 30q0 73 -52 117q-53 44 -140 44q-200 0 -229 -191h-174q15 154 124 245q111 93 286 93q158 0 258 -84q99 -83 99 -210q0 -24 -4 -44h-170z" />
    <glyph glyph-name="uni0210" unicode="&#x210;" horiz-adv-x="1367" 
d="M569 1582l-196 306h242l173 -306h-219zM992 1582l-197 306h242l173 -306h-218zM421 1443h524q198 0 319 -108q120 -109 120 -286q0 -165 -102 -292q-103 -129 -274 -176l204 -581h-243l-182 550h-328l-118 -550h-227zM497 741h318q149 0 243 81q94 80 94 206
q0 101 -63 160q-63 58 -172 58h-309z" />
    <glyph glyph-name="uni0211" unicode="&#x211;" horiz-adv-x="804" 
d="M312 1089h208l-30 -143h17q101 161 283 161q89 0 132 -18l-45 -210q-64 20 -147 20q-240 0 -300 -274l-133 -625h-217zM289 1271l-193 344h221l165 -344h-193zM702 1271l-194 344h222l165 -344h-193z" />
    <glyph glyph-name="uni0212" unicode="&#x212;" horiz-adv-x="1367" 
d="M421 1443h524q198 0 319 -108q120 -109 120 -286q0 -165 -102 -292q-103 -129 -274 -176l204 -581h-243l-182 550h-328l-118 -550h-227zM497 741h318q149 0 243 81q94 80 94 206q0 101 -63 160q-63 58 -172 58h-309zM1263 1577h-170v17q0 65 -55 108q-54 42 -135 42
q-82 0 -139 -44q-56 -44 -76 -123h-172q25 143 131 228q107 86 260 86q158 0 257 -83q99 -82 99 -212v-19z" />
    <glyph glyph-name="uni0213" unicode="&#x213;" horiz-adv-x="804" 
d="M312 1089h208l-30 -143h17q101 161 283 161q89 0 132 -18l-45 -210q-64 20 -147 20q-240 0 -300 -274l-133 -625h-217zM856 1238q2 16 2 30q0 73 -52 117q-53 44 -140 44q-200 0 -229 -191h-174q15 154 124 245q111 93 286 93q158 0 258 -84q99 -83 99 -210q0 -24 -4 -44
h-170z" />
    <glyph glyph-name="uni0214" unicode="&#x214;" horiz-adv-x="1538" 
d="M747 1582l-196 306h242l173 -306h-219zM1170 1582l-197 306h242l173 -306h-218zM363 97q-136 125 -138 326q-1 58 13 127l187 893h228l-186 -882q-13 -64 -12 -120q4 -124 85 -193q84 -72 237 -72q150 0 255 86q106 86 139 239l201 942h227l-210 -992q-50 -232 -210 -357
q-165 -129 -429 -129q-245 0 -387 132z" />
    <glyph glyph-name="uni0215" unicode="&#x215;" horiz-adv-x="1247" 
d="M1029 0h-208l34 155h-17q-106 -176 -343 -176q-148 0 -242 89q-94 88 -94 228q0 63 15 140l136 653h218l-131 -618q-13 -63 -13 -106q0 -189 207 -189q117 0 204 75q84 73 110 192l138 646h216zM487 1271l-193 344h221l165 -344h-193zM900 1271l-194 344h222l165 -344
h-193z" />
    <glyph glyph-name="uni0216" unicode="&#x216;" horiz-adv-x="1538" 
d="M363 97q-136 125 -138 326q-1 58 13 127l187 893h228l-186 -882q-13 -64 -12 -120q4 -124 85 -193q84 -72 237 -72q150 0 255 86q106 86 139 239l201 942h227l-210 -992q-50 -232 -210 -357q-165 -129 -429 -129q-245 0 -387 132zM1441 1577h-170v17q0 65 -54 108
q-55 42 -136 42q-82 0 -139 -44q-56 -44 -76 -123h-172q25 143 131 228q107 86 260 86q158 0 258 -83q98 -82 98 -212v-19z" />
    <glyph glyph-name="uni0217" unicode="&#x217;" horiz-adv-x="1247" 
d="M1029 0h-208l34 155h-17q-106 -176 -343 -176q-148 0 -242 89q-94 88 -94 228q0 63 15 140l136 653h218l-131 -618q-13 -63 -13 -106q0 -189 207 -189q117 0 204 75q84 73 110 192l138 646h216zM1054 1238q2 16 2 30q0 73 -52 117q-53 44 -140 44q-200 0 -229 -191h-174
q15 154 124 245q111 93 286 93q158 0 258 -84q99 -83 99 -210q0 -24 -4 -44h-170z" />
    <glyph glyph-name="uni0218" unicode="&#x218;" horiz-adv-x="1307" 
d="M335 405q22 -110 117 -176q94 -65 230 -65q140 0 226 62q86 63 86 164q0 78 -57 131t-189 96l-142 48q-152 51 -235 150q-84 100 -84 231q0 186 151 309t379 123q217 0 363 -121q145 -120 159 -311h-219q-23 108 -106 171q-84 63 -208 63t-205 -60q-82 -59 -82 -150
q0 -137 218 -211l137 -47q352 -120 352 -391q0 -204 -156 -330t-406 -126q-231 0 -378 117q-149 118 -172 323h221zM368 -514l178 368h222l-200 -368h-200z" />
    <glyph glyph-name="uni0219" unicode="&#x219;" horiz-adv-x="1087" 
d="M306 301q18 -66 79 -106q64 -42 156 -42q101 0 164 41q63 40 63 105q0 88 -127 129l-167 56q-254 85 -254 289q0 150 120 244q118 93 303 93q180 0 294 -85q112 -83 130 -224h-206q-14 62 -73 98t-147 36q-91 0 -150 -40q-59 -39 -59 -100q0 -85 141 -130l157 -54
q135 -44 196 -114q61 -69 61 -177q0 -150 -127 -245q-126 -96 -324 -96q-190 0 -313 89q-122 89 -132 233h215zM215 -514l178 368h222l-200 -368h-200z" />
    <glyph glyph-name="uni021A" unicode="&#x21a;" horiz-adv-x="1318" 
d="M289 -514l178 368h222l-200 -368h-200zM476 0l266 1239h-452l41 204h1131l-41 -204h-452l-265 -1239h-228z" />
    <glyph glyph-name="uni021B" unicode="&#x21b;" horiz-adv-x="781" 
d="M90 -514l178 368h222l-200 -368h-200zM299 47q-80 58 -80 168q0 41 11 94l128 590h-179l37 181h179l56 269h217l-57 -269h244l-36 -181h-244l-116 -535q-11 -49 -11 -82q0 -108 142 -108q33 0 63 3l-37 -179q-53 -8 -103 -8q-138 0 -214 57z" />
    <glyph glyph-name="uni021E" unicode="&#x21e;" horiz-adv-x="1552" 
d="M1077 0l137 633h-738l-136 -633h-226l307 1443h227l-130 -606h737l130 606h228l-307 -1443h-229zM754 1896h208l101 -188h16l179 188h232l-317 -314h-234z" />
    <glyph glyph-name="uni021F" unicode="&#x21f;" horiz-adv-x="1267" 
d="M419 1510h217l-127 -584h17q124 183 337 183q154 0 251 -95q94 -92 94 -226q0 -57 -14 -127l-140 -661h-217l133 623q12 60 12 96q0 90 -60 143q-60 54 -162 54q-115 0 -200 -73q-82 -71 -107 -185l-140 -658h-217zM264 1963h208l101 -188h16l179 188h232l-317 -314h-234
z" />
    <glyph glyph-name="uni0226" unicode="&#x226;" horiz-adv-x="1423" 
d="M1012 383h-554l-215 -383h-237l836 1443h232l212 -1443h-224zM554 571h440l-82 608h-16zM921 1617q-39 39 -39 97t39 97q38 40 95 40t96 -40q38 -39 38 -97t-38 -97q-39 -40 -96 -40t-95 40z" />
    <glyph glyph-name="uni0227" unicode="&#x227;" horiz-adv-x="1153" 
d="M701 225q85 63 107 159l25 112l-265 -12q-120 -5 -188 -52q-67 -46 -67 -122q0 -65 54 -107q53 -42 138 -42q110 0 196 64zM191 68q-94 85 -94 213q0 163 123 258q124 95 351 103l295 12l15 71q6 32 6 46q0 71 -57 112q-57 40 -157 40q-173 0 -222 -119h-215
q35 141 158 224q123 82 296 82q186 0 299 -85q113 -86 113 -227q0 -46 -9 -88l-150 -710h-209l30 139h-17q-115 -157 -321 -157q-141 0 -235 86zM678 1323q-41 42 -41 102t41 102q41 41 99 41q59 0 99 -41q41 -42 41 -102t-41 -102t-99 -42t-99 42z" />
    <glyph glyph-name="uni0228" unicode="&#x228;" horiz-adv-x="1238" 
d="M607 1239l-91 -408h654l-40 -194h-653l-96 -433h691l-40 -204h-372l-83 -131q172 -23 172 -160q0 -90 -71 -146q-70 -56 -182 -56q-100 0 -179 36l25 119q63 -27 145 -27q99 0 99 64q0 67 -127 67h-54l14 102l85 132h-390l307 1443h917l-41 -204h-690z" />
    <glyph glyph-name="uni0229" unicode="&#x229;" horiz-adv-x="1198" 
d="M936 651q3 18 3 43q0 100 -59 164q-64 69 -172 69q-114 0 -200 -76q-84 -74 -119 -200h547zM363 493q-1 -14 -1 -44q0 -140 80 -216q70 -66 176 -66q185 0 252 126h218q-33 -126 -140 -209q-111 -86 -274 -102l-72 -113q172 -23 172 -160q0 -90 -71 -146
q-70 -56 -182 -56q-100 0 -179 36l25 119q63 -27 145 -27q99 0 99 64q0 67 -127 67h-54l14 102l76 117q-167 26 -267 142q-105 123 -105 313q0 299 161 485q159 185 413 185q184 0 304 -118q125 -124 126 -329q0 -78 -14 -170h-775z" />
    <glyph glyph-name="uni022A" unicode="&#x22a;" horiz-adv-x="1593" 
d="M361 137q-168 170 -168 432q0 394 224 652q222 257 560 257q264 0 431 -171q165 -170 165 -433q0 -397 -222 -654q-221 -255 -559 -255q-263 0 -431 172zM1236 1153q-104 113 -272 113q-229 0 -383 -195q-155 -195 -155 -484q0 -185 105 -298q104 -113 275 -113
q230 0 382 193q152 194 152 486q0 184 -104 298zM764 2105h700l-31 -147h-700zM727 1613q-37 37 -37 93t37 94q38 38 93 38t92 -38q38 -38 38 -94q0 -55 -38 -93q-37 -38 -92 -38t-93 38zM1154 1613q-37 37 -37 93t37 94q38 38 93 38t93 -38q37 -38 37 -94t-37 -93
q-38 -38 -93 -38t-93 38z" />
    <glyph glyph-name="uni022B" unicode="&#x22b;" horiz-adv-x="1238" 
d="M491 1276q-37 37 -37 91q0 55 37 92q36 38 90 38t91 -38q36 -37 36 -92q0 -54 -36 -91q-37 -38 -91 -38t-90 38zM908 1276q-36 37 -36 91q0 55 36 92q37 38 91 38t91 -38q36 -37 36 -92q0 -54 -36 -91q-37 -38 -91 -38t-91 38zM502 1645l32 155h696l-32 -155h-696z
M440 251q69 -80 187 -80q136 0 236 127q104 131 104 321q0 141 -66 221q-65 79 -180 79q-157 0 -254 -133q-94 -130 -94 -330q0 -127 67 -205zM273 107q-126 128 -126 334q0 283 159 472q166 197 431 197q206 0 332 -128q125 -128 125 -333q0 -279 -157 -469
q-165 -201 -431 -201q-206 0 -333 128z" />
    <glyph glyph-name="uni022C" unicode="&#x22c;" horiz-adv-x="1593" 
d="M733 1954l31 151h699l-31 -151h-699zM1014 1636q-78 62 -111 62q-81 0 -109 -96h-155q18 116 94 184q71 64 165 64q76 0 154 -62q79 -63 112 -63q82 0 108 97h156q-19 -117 -94 -185q-71 -64 -165 -64q-77 0 -155 63zM361 137q-168 170 -168 432q0 394 224 652
q222 257 560 257q264 0 431 -171q165 -170 165 -433q0 -397 -222 -654q-221 -255 -559 -255q-263 0 -431 172zM1236 1153q-104 113 -272 113q-229 0 -383 -195q-155 -195 -155 -484q0 -185 105 -298q104 -113 275 -113q230 0 382 193q152 194 152 486q0 184 -104 298z" />
    <glyph glyph-name="uni022D" unicode="&#x22d;" horiz-adv-x="1238" 
d="M781 1318q-83 87 -120 87q-83 0 -107 -132h-157q15 133 89 210q72 74 176 74q96 0 179 -87q83 -88 121 -88q84 0 108 132h157q-16 -132 -89 -209q-72 -75 -177 -75q-96 0 -180 88zM492 1650l32 155h696l-32 -155h-696zM440 251q69 -80 187 -80q136 0 236 127
q104 131 104 321q0 141 -66 221q-65 79 -180 79q-157 0 -254 -133q-94 -130 -94 -330q0 -127 67 -205zM273 107q-126 128 -126 334q0 283 159 472q166 197 431 197q206 0 332 -128q125 -128 125 -333q0 -279 -157 -469q-165 -201 -431 -201q-206 0 -333 128z" />
    <glyph glyph-name="uni022E" unicode="&#x22e;" horiz-adv-x="1593" 
d="M938 1615q-39 39 -39 97t39 97q38 40 95 40t96 -40q38 -39 38 -97t-38 -97q-39 -40 -96 -40t-95 40zM361 137q-168 170 -168 432q0 394 224 652q222 257 560 257q264 0 431 -171q165 -170 165 -433q0 -397 -222 -654q-221 -255 -559 -255q-263 0 -431 172zM1236 1153
q-104 113 -272 113q-229 0 -383 -195q-155 -195 -155 -484q0 -185 105 -298q104 -113 275 -113q230 0 382 193q152 194 152 486q0 184 -104 298z" />
    <glyph glyph-name="uni022F" unicode="&#x22f;" horiz-adv-x="1238" 
d="M705 1323q-41 42 -41 102t41 102q41 41 99 41q59 0 99 -41q41 -42 41 -102t-41 -102t-99 -42t-99 42zM440 251q69 -80 187 -80q136 0 236 127q104 131 104 321q0 141 -66 221q-65 79 -180 79q-157 0 -254 -133q-94 -130 -94 -330q0 -127 67 -205zM273 107
q-126 128 -126 334q0 283 159 472q166 197 431 197q206 0 332 -128q125 -128 125 -333q0 -279 -157 -469q-165 -201 -431 -201q-206 0 -333 128z" />
    <glyph glyph-name="uni0230" unicode="&#x230;" horiz-adv-x="1593" 
d="M733 1958l31 147h700l-31 -147h-700zM937 1612q-38 38 -38 94t38 94t94 38t94 -38t38 -94t-38 -94t-94 -38t-94 38zM361 137q-168 170 -168 432q0 394 224 652q222 257 560 257q264 0 431 -171q165 -170 165 -433q0 -397 -222 -654q-221 -255 -559 -255q-263 0 -431 172z
M1236 1153q-104 113 -272 113q-229 0 -383 -195q-155 -195 -155 -484q0 -185 105 -298q104 -113 275 -113q230 0 382 193q152 194 152 486q0 184 -104 298z" />
    <glyph glyph-name="uni0231" unicode="&#x231;" horiz-adv-x="1238" 
d="M440 251q69 -80 187 -80q136 0 236 127q104 131 104 321q0 141 -66 221q-65 79 -180 79q-157 0 -254 -133q-94 -130 -94 -330q0 -127 67 -205zM273 107q-126 128 -126 334q0 283 159 472q166 197 431 197q206 0 332 -128q125 -128 125 -333q0 -279 -157 -469
q-165 -201 -431 -201q-206 0 -333 128zM695 1276q-37 38 -37 94t37 95q38 38 93 38q56 0 94 -38q37 -39 37 -95t-37 -94q-38 -38 -94 -38q-55 0 -93 38zM502 1645l32 155h696l-32 -155h-696z" />
    <glyph glyph-name="uni0232" unicode="&#x232;" horiz-adv-x="1383" 
d="M512 0l126 582l-327 861h234l242 -631h17l497 631h251l-693 -881l-120 -562h-227zM620 1625l32 156h699l-32 -156h-699z" />
    <glyph glyph-name="uni0233" unicode="&#x233;" horiz-adv-x="1146" 
d="M24 -388l33 185q31 -9 95 -9q123 0 207 155l33 60l-164 1086h216l105 -842h17l448 842h233l-666 -1173q-97 -177 -197 -247q-94 -66 -237 -66q-57 0 -123 9zM434 1299l32 155h696l-32 -155h-696z" />
    <glyph glyph-name="uni0237" unicode="&#x237;" horiz-adv-x="546" 
d="M296 -84q-64 -303 -367 -303q-57 0 -99 7l38 184q40 -4 57 -4q71 0 108 33q38 33 54 110l245 1146h215z" />
    <glyph glyph-name="circumflex" unicode="&#x2c6;" horiz-adv-x="1086" 
d="M1136 1238h-210l-120 219h-17l-213 -219h-233l352 346h234z" />
    <glyph glyph-name="caron" unicode="&#x2c7;" horiz-adv-x="1086" 
d="M622 1238l-206 346h208l120 -219h16l214 219h235l-353 -346h-234z" />
    <glyph glyph-name="breve" unicode="&#x2d8;" horiz-adv-x="1086" 
d="M611 1576q-2 -16 -2 -30q0 -73 53 -117q52 -44 139 -44q200 0 229 191h174q-15 -154 -124 -245q-111 -93 -286 -93q-164 0 -262 84q-95 82 -95 210q0 22 3 44h171z" />
    <glyph glyph-name="dotaccent" unicode="&#x2d9;" horiz-adv-x="1086" 
d="M680 1323q-41 42 -41 102t41 102q41 41 99 41q59 0 99 -41q41 -42 41 -102t-41 -102t-99 -42t-99 42z" />
    <glyph glyph-name="ring" unicode="&#x2da;" horiz-adv-x="1086" 
d="M621 1305q-69 68 -69 167t69 166q68 67 168 67t168 -67q69 -67 69 -166t-69 -167q-69 -67 -168 -67t-168 67zM872 1390q33 32 33 82q0 49 -33 81q-33 33 -83 33t-83 -33q-33 -32 -33 -81q0 -50 33 -82q33 -33 83 -33t83 33z" />
    <glyph glyph-name="ogonek" unicode="&#x2db;" horiz-adv-x="1086" 
d="M573 -431q-28 -11 -88 -11q-111 0 -174 53q-63 52 -63 144q0 87 66 173q67 89 174 139l136 -24q-87 -50 -139 -116q-53 -67 -53 -126q0 -95 125 -95q26 0 44 2z" />
    <glyph glyph-name="tilde" unicode="&#x2dc;" horiz-adv-x="1086" 
d="M761 1342q-83 87 -120 87q-83 0 -107 -132h-157q15 133 89 210q72 74 176 74q96 0 179 -87q83 -88 121 -88q84 0 108 132h157q-16 -132 -89 -209q-72 -75 -177 -75q-96 0 -180 88z" />
    <glyph glyph-name="hungarumlaut" unicode="&#x2dd;" horiz-adv-x="1085" 
d="M1030 1615h228l-339 -344h-200zM617 1615h228l-339 -344h-200z" />
    <glyph glyph-name="gravecomb" unicode="&#x300;" 
d="M66 1271l-222 344h247l191 -344h-216z" />
    <glyph glyph-name="acutecomb" unicode="&#x301;" 
d="M406 1615h252l-354 -344h-222z" />
    <glyph glyph-name="uni0302" unicode="&#x302;" 
d="M582 1238h-210l-120 219h-17l-213 -219h-233l352 346h234z" />
    <glyph glyph-name="tildecomb" unicode="&#x303;" 
d="M215 1318q-83 87 -120 87q-83 0 -107 -132h-157q15 133 89 210q72 74 176 74q96 0 179 -87q83 -88 121 -88q84 0 108 132h157q-16 -132 -89 -209q-72 -75 -177 -75q-96 0 -180 88z" />
    <glyph glyph-name="uni0304" unicode="&#x304;" 
d="M-138 1299l32 155h696l-32 -155h-696z" />
    <glyph glyph-name="uni0306" unicode="&#x306;" 
d="M32 1576q-2 -16 -2 -30q0 -73 53 -117q52 -44 139 -44q200 0 229 191h174q-15 -154 -124 -245q-111 -93 -286 -93q-164 0 -262 84q-95 82 -95 210q0 22 3 44h171z" />
    <glyph glyph-name="uni0307" unicode="&#x307;" 
d="M137 1323q-41 42 -41 102t41 102q41 41 99 41q59 0 99 -41q41 -42 41 -102t-41 -102t-99 -42t-99 42z" />
    <glyph glyph-name="uni0308" unicode="&#x308;" 
d="M-84 1277q-38 38 -38 95t38 96q39 39 95 39q57 0 96 -39q38 -39 38 -96t-38 -95q-39 -39 -96 -39q-56 0 -95 39zM343 1277q-38 38 -38 95t38 96q39 39 95 39q57 0 96 -39q38 -39 38 -96t-38 -95q-39 -39 -96 -39q-56 0 -95 39z" />
    <glyph glyph-name="hookabovecomb" unicode="&#x309;" 
d="M107 1616q45 15 110 15q108 0 173 -51q64 -52 64 -139q0 -176 -229 -243l-62 113q127 30 127 108q0 34 -29 54q-29 21 -78 21q-51 0 -96 -12z" />
    <glyph glyph-name="uni030A" unicode="&#x30a;" 
d="M79 1305q-69 68 -69 167t69 166q68 67 168 67t168 -67q69 -67 69 -166t-69 -167q-69 -67 -168 -67t-168 67zM330 1390q33 32 33 82q0 49 -33 81q-33 33 -83 33t-83 -33q-33 -32 -33 -81q0 -50 33 -82q33 -33 83 -33t83 33z" />
    <glyph glyph-name="uni030B" unicode="&#x30b;" 
d="M620 1615h228l-339 -344h-200zM207 1615h228l-339 -344h-200z" />
    <glyph glyph-name="uni030C" unicode="&#x30c;" 
d="M94 1238l-206 346h208l120 -219h16l214 219h235l-353 -346h-234z" />
    <glyph glyph-name="uni030F" unicode="&#x30f;" 
d="M-126 1271l-193 344h221l165 -344h-193zM287 1271l-194 344h222l165 -344h-193z" />
    <glyph glyph-name="uni0311" unicode="&#x311;" 
d="M441 1238q2 16 2 30q0 73 -52 117q-53 44 -140 44q-200 0 -229 -191h-174q15 154 124 245q111 93 286 93q158 0 258 -84q99 -83 99 -210q0 -24 -4 -44h-170z" />
    <glyph glyph-name="uni031B" unicode="&#x31b;" 
d="M-23 1114q30 -33 88 -33q56 0 86 30q32 31 48 106l37 173h184l-48 -224q-55 -258 -297 -258q-89 0 -132 37z" />
    <glyph glyph-name="dotbelowcomb" unicode="&#x323;" 
d="M-221 -372q-38 37 -38 92t38 92t96 37q57 0 95 -37t38 -92t-38 -92t-95 -37q-58 0 -96 37z" />
    <glyph glyph-name="uni0324" unicode="&#x324;" 
d="M-439 -395q-38 37 -38 92t38 92t96 37q57 0 95 -37t38 -92t-38 -92t-95 -37q-58 0 -96 37zM-13 -395q-38 37 -38 92t38 92t96 37t96 -37t38 -92t-38 -92t-96 -37t-96 37z" />
    <glyph glyph-name="uni0325" unicode="&#x325;" 
d="M-305 -505q-69 68 -69 167t69 166q68 67 168 67t168 -67q69 -67 69 -166t-69 -167q-69 -67 -168 -67t-168 67zM-54 -420q33 32 33 82q0 49 -33 81q-33 33 -83 33t-83 -33q-33 -32 -33 -81q0 -50 33 -82q33 -33 83 -33t83 33z" />
    <glyph glyph-name="uni0326" unicode="&#x326;" 
d="M-369 -514l178 368h222l-200 -368h-200z" />
    <glyph glyph-name="uni0327" unicode="&#x327;" 
d="M-223 -132l107 166h156l-105 -165q172 -23 172 -160q0 -90 -71 -146q-70 -56 -182 -56q-100 0 -179 36l25 119q63 -27 145 -27q99 0 99 64q0 67 -127 67h-54z" />
    <glyph glyph-name="uni0328" unicode="&#x328;" 
d="M-19 -432q-28 -11 -88 -11q-111 0 -174 53q-63 52 -63 144q0 87 66 173q67 89 174 139l136 -24q-87 -50 -139 -116q-53 -67 -53 -126q0 -95 125 -95q26 0 44 2z" />
    <glyph glyph-name="uni032D" unicode="&#x32d;" 
d="M235 -432h-224l-124 167h-16l-198 -167h-230l350 286h218z" />
    <glyph glyph-name="uni032E" unicode="&#x32e;" 
d="M239 -125q-25 -140 -132 -224q-106 -83 -259 -83q-157 0 -257 83q-99 83 -99 212v12h172q4 -72 55 -116q52 -44 134 -44t138 42t75 118h173z" />
    <glyph glyph-name="uni0330" unicode="&#x330;" 
d="M-149 -353q-86 77 -125 77q-88 0 -108 -115h-156q20 128 93 199q70 67 169 67q91 0 177 -78q87 -78 126 -78q88 0 109 117h156q-20 -130 -94 -200q-69 -67 -169 -67q-92 0 -178 78z" />
    <glyph glyph-name="uni0331" unicode="&#x331;" 
d="M-493 -372l32 156h699l-32 -156h-699z" />
    <glyph glyph-name="uni037E" unicode="&#x37e;" horiz-adv-x="645" 
d="M-20 -376l215 598h233l-268 -598h-180zM318 782q-42 43 -42 103q0 63 42 107t105 44t105 -43t42 -104q0 -63 -42 -107t-105 -44q-62 0 -105 44z" />
    <glyph glyph-name="tonos" unicode="&#x384;" horiz-adv-x="937" 
d="M507 1265l162 355h239l-210 -355h-191z" />
    <glyph glyph-name="dieresistonos" unicode="&#x385;" horiz-adv-x="1388" 
d="M781 1265l105 355h224l-154 -355h-175zM493 1298q-33 33 -33 84q0 60 40 100q41 42 105 42q51 0 84 -33q32 -33 32 -83q0 -60 -40 -101q-41 -42 -104 -42q-51 0 -84 33zM1153 1298q-33 33 -33 84q0 60 40 100q41 42 104 42q52 0 84 -33q33 -32 33 -83q0 -60 -40 -101
q-41 -42 -104 -42q-51 0 -84 33z" />
    <glyph glyph-name="Alphatonos" unicode="&#x386;" horiz-adv-x="1455" 
d="M1043 383h-554l-215 -383h-237l836 1443h232l212 -1443h-224zM585 571h440l-82 608h-16zM237 1087l162 356h239l-210 -356h-191z" />
    <glyph glyph-name="anoteleia" unicode="&#x387;" horiz-adv-x="663" 
d="M351 822q-43 43 -43 110q0 70 43 115q44 46 114 46q69 0 112 -45q43 -44 43 -111q0 -70 -43 -115t-112 -45q-70 0 -114 45z" />
    <glyph glyph-name="Epsilontonos" unicode="&#x388;" horiz-adv-x="1643" 
d="M245 1087l162 356h239l-210 -356h-191zM1435 0h-918l307 1443h917l-41 -204h-690l-91 -408h654l-40 -194h-653l-96 -433h691z" />
    <glyph glyph-name="Etatonos" unicode="&#x389;" horiz-adv-x="1954" 
d="M245 1087l162 356h239l-210 -356h-191zM1480 0l137 633h-738l-136 -633h-226l307 1443h227l-130 -606h737l130 606h228l-307 -1443h-229z" />
    <glyph glyph-name="Iotatonos" unicode="&#x38a;" horiz-adv-x="989" 
d="M517 0l307 1443h227l-307 -1443h-227zM245 1087l162 356h239l-210 -356h-191z" />
    <glyph glyph-name="Omicrontonos" unicode="&#x38c;" horiz-adv-x="1897" 
d="M663 137q-168 170 -168 432q0 394 224 652q222 257 560 257q264 0 431 -171q165 -170 165 -433q0 -397 -222 -654q-221 -255 -559 -255q-263 0 -431 172zM1538 1153q-104 113 -272 113q-229 0 -383 -195q-155 -195 -155 -484q0 -185 105 -298q104 -113 275 -113
q230 0 382 193q152 194 152 486q0 184 -104 298zM245 1087l162 356h239l-210 -356h-191z" />
    <glyph glyph-name="Upsilontonos" unicode="&#x38e;" horiz-adv-x="1783" 
d="M245 1087l162 356h239l-210 -356h-191zM913 0l126 582l-327 861h234l242 -631h17l497 631h251l-693 -881l-120 -562h-227z" />
    <glyph glyph-name="Omegatonos" unicode="&#x38f;" horiz-adv-x="1950" 
d="M1270 251q400 216 400 635q0 176 -103 278q-105 104 -289 104q-233 0 -374 -158q-140 -158 -140 -419q0 -294 252 -440l-51 -251h-545l41 199h302l4 18q-231 163 -231 479q0 349 213 566q213 216 556 216q274 0 436 -156q161 -155 161 -413q0 -213 -107 -400
q-107 -189 -288 -292l-4 -18h306l-41 -199h-550zM245 1087l162 356h239l-210 -356h-191z" />
    <glyph glyph-name="iotadieresistonos" unicode="&#x390;" horiz-adv-x="617" 
d="M364 367q-10 -44 -10 -81q0 -107 130 -107q55 0 84 4l-37 -179q-61 -10 -129 -10q-133 0 -205 58q-73 59 -73 167q0 37 11 94l166 776h217zM356 1265l105 355h224l-154 -355h-175zM68 1298q-33 33 -33 84q0 60 40 100q41 42 105 42q51 0 84 -33q32 -33 32 -83
q0 -60 -40 -101q-41 -42 -104 -42q-51 0 -84 33zM728 1298q-33 33 -33 84q0 60 40 100q41 42 104 42q52 0 84 -33q33 -32 33 -83q0 -60 -40 -101q-41 -42 -104 -42q-51 0 -84 33z" />
    <glyph glyph-name="Alpha" unicode="&#x391;" horiz-adv-x="1423" 
d="M1012 383h-554l-215 -383h-237l836 1443h232l212 -1443h-224zM554 571h440l-82 608h-16z" />
    <glyph glyph-name="Beta" unicode="&#x392;" horiz-adv-x="1373" 
d="M114 0l307 1443h532q185 0 297 -86t112 -229q0 -139 -88 -241q-87 -102 -229 -128l-4 -17q118 -21 185 -97q68 -76 68 -188q0 -200 -156 -328q-156 -129 -398 -129h-626zM517 834h277q150 0 245 68q94 68 94 176q0 177 -262 177h-262zM718 193q148 0 246 74q98 75 98 188
q0 203 -274 203h-308l-101 -465h339z" />
    <glyph glyph-name="Gamma" unicode="&#x393;" horiz-adv-x="1161" 
d="M114 0l307 1443h882l-42 -204h-654l-265 -1239h-228z" />
    <glyph glyph-name="uni0394" unicode="&#x394;" horiz-adv-x="1416" 
d="M33 0l30 148l773 1295h233l211 -1296l-30 -147h-1217zM330 220l-3 -16h723l4 14l-148 974h-9z" />
    <glyph glyph-name="Epsilon" unicode="&#x395;" horiz-adv-x="1239" 
d="M1032 0h-918l307 1443h917l-41 -204h-690l-91 -408h654l-40 -194h-653l-96 -433h691z" />
    <glyph glyph-name="Zeta" unicode="&#x396;" horiz-adv-x="1365" 
d="M107 161l1000 1061l3 17h-746l41 204h1041l-32 -161l-998 -1061l-2 -17h785l-41 -204h-1083z" />
    <glyph glyph-name="Eta" unicode="&#x397;" horiz-adv-x="1552" 
d="M1077 0l137 633h-738l-136 -633h-226l307 1443h227l-130 -606h737l130 606h228l-307 -1443h-229z" />
    <glyph glyph-name="Theta" unicode="&#x398;" horiz-adv-x="1619" 
d="M589 617l41 202h571l-41 -202h-571zM347 123q-153 158 -153 443q0 406 225 659t586 253q286 0 439 -157t153 -450q0 -402 -228 -654t-591 -252q-277 0 -431 158zM1269 1163q-99 108 -289 108q-244 0 -400 -193q-157 -192 -157 -491q0 -199 100 -307t286 -108
q242 0 401 192q158 192 158 485q0 206 -99 314z" />
    <glyph glyph-name="Iota" unicode="&#x399;" horiz-adv-x="587" 
d="M114 0l307 1443h227l-307 -1443h-227z" />
    <glyph glyph-name="Kappa" unicode="&#x39a;" horiz-adv-x="1387" 
d="M114 0l307 1443h223l-145 -672h17l731 672h279l-690 -643l425 -800h-257l-349 657l-216 -194l-102 -463h-223z" />
    <glyph glyph-name="Lambda" unicode="&#x39b;" horiz-adv-x="1406" 
d="M253 0h-237l816 1443h233l192 -1443h-225l-129 1179h-17z" />
    <glyph glyph-name="Mu" unicode="&#x39c;" horiz-adv-x="1824" 
d="M114 0l307 1443h252l223 -1096h17l696 1096h275l-307 -1443h-212l225 1042h-14l-639 -1000h-170l-204 1000h-13l-225 -1042h-211z" />
    <glyph glyph-name="Nu" unicode="&#x39d;" horiz-adv-x="1539" 
d="M114 0l307 1443h196l514 -1055h17l229 1055h223l-307 -1443h-198l-514 1051h-17l-228 -1051h-222z" />
    <glyph glyph-name="Xi" unicode="&#x39e;" horiz-adv-x="1353" 
d="M1452 1443l-42 -210h-1070l42 210h1070zM298 631l42 201h895l-42 -201h-895zM1188 210l-42 -210h-1070l42 210h1070z" />
    <glyph glyph-name="Omicron" unicode="&#x39f;" horiz-adv-x="1595" 
d="M362 137q-168 170 -168 432q0 394 224 652q222 257 560 257q264 0 431 -171q165 -170 165 -433q0 -397 -222 -654q-221 -255 -559 -255q-263 0 -431 172zM1237 1153q-104 113 -272 113q-229 0 -383 -195q-155 -195 -155 -484q0 -185 105 -298q104 -113 275 -113
q230 0 382 193q152 194 152 486q0 184 -104 298z" />
    <glyph glyph-name="Pi" unicode="&#x3a0;" horiz-adv-x="1532" 
d="M1058 0l266 1239h-717l-267 -1239h-226l307 1443h1172l-307 -1443h-228z" />
    <glyph glyph-name="Rho" unicode="&#x3a1;" horiz-adv-x="1330" 
d="M935 1443q190 0 311 -110q124 -112 124 -294q0 -253 -170 -406q-163 -147 -422 -147h-333l-104 -486h-227l307 1443h514zM485 683h284q169 0 268 88q102 91 102 247q0 108 -73 168q-71 59 -197 59h-261z" />
    <glyph glyph-name="Sigma" unicode="&#x3a3;" horiz-adv-x="1365" 
d="M401 204h798l-41 -204h-1083l31 155l519 587l-252 531l34 170h1038l-40 -204h-758l-3 -10l219 -468l-8 -38l-451 -509z" />
    <glyph glyph-name="Tau" unicode="&#x3a4;" horiz-adv-x="1318" 
d="M476 0l266 1239h-452l41 204h1131l-41 -204h-452l-265 -1239h-228z" />
    <glyph glyph-name="Upsilon" unicode="&#x3a5;" horiz-adv-x="1383" 
d="M512 0l126 582l-327 861h234l242 -631h17l497 631h251l-693 -881l-120 -562h-227z" />
    <glyph glyph-name="Phi" unicode="&#x3a6;" horiz-adv-x="1777" 
d="M727 65q-255 28 -395 173q-139 145 -139 377q0 319 223 529q225 211 586 224l32 147h218l-31 -150q255 -27 395 -172q139 -144 139 -379q0 -319 -223 -528q-225 -211 -585 -223l-31 -144h-219zM961 1169q-243 -8 -391 -155q-150 -148 -150 -386q0 -160 90 -255
q90 -94 257 -109zM987 262q245 8 393 155q148 148 148 386q0 161 -91 255q-90 94 -256 108z" />
    <glyph glyph-name="Chi" unicode="&#x3a7;" horiz-adv-x="1427" 
d="M669 749l-318 694h254l236 -539h16l469 539h253l-644 -729l329 -714h-245l-251 542h-16l-478 -542h-250z" />
    <glyph glyph-name="Psi" unicode="&#x3a8;" horiz-adv-x="1725" 
d="M686 0l69 324q-479 47 -479 433q0 57 14 127l116 559h222l-114 -543q-16 -77 -16 -132q0 -222 299 -239l195 914h222l-196 -918q367 7 443 361l117 557h222l-119 -574q-57 -268 -214 -396q-167 -136 -490 -152l-69 -321h-222z" />
    <glyph glyph-name="uni03A9" unicode="&#x3a9;" horiz-adv-x="1617" 
d="M937 251q400 216 400 635q0 176 -103 278q-105 104 -289 104q-233 0 -374 -158q-140 -158 -140 -419q0 -294 252 -440l-51 -251h-545l41 199h302l4 18q-231 163 -231 479q0 349 213 566q213 216 556 216q274 0 436 -156q161 -155 161 -413q0 -213 -107 -400
q-107 -189 -288 -292l-4 -18h306l-41 -199h-550z" />
    <glyph glyph-name="Iotadieresis" unicode="&#x3aa;" horiz-adv-x="586" 
d="M114 0l307 1443h227l-307 -1443h-227zM283 1616q-38 38 -38 95t38 96q39 39 95 39q57 0 96 -39q38 -39 38 -96t-38 -95q-39 -39 -96 -39q-56 0 -95 39zM710 1616q-38 38 -38 95t38 96q39 39 95 39q57 0 96 -39q38 -39 38 -96t-38 -95q-39 -39 -96 -39q-56 0 -95 39z" />
    <glyph glyph-name="Upsilondieresis" unicode="&#x3ab;" horiz-adv-x="1383" 
d="M512 0l126 582l-327 861h234l242 -631h17l497 631h251l-693 -881l-120 -562h-227zM679 1616q-38 38 -38 95t38 96q39 39 95 39q57 0 96 -39q38 -39 38 -96t-38 -95q-39 -39 -96 -39q-56 0 -95 39zM1106 1616q-38 38 -38 95t38 96q39 39 95 39q57 0 96 -39q38 -39 38 -96
t-38 -95q-39 -39 -96 -39q-56 0 -95 39z" />
    <glyph glyph-name="alphatonos" unicode="&#x3ac;" horiz-adv-x="1304" 
d="M230 101q-102 119 -102 312q0 296 152 495t378 199q264 0 331 -221l17 -1l43 204h211l-168 -788q-8 -32 -8 -59q0 -36 20 -51t68 -15q27 0 52 5l-36 -178q-50 -13 -104 -13q-112 0 -161 45q-51 45 -51 146v11h-17q-52 -99 -147 -154q-95 -56 -212 -56q-164 0 -266 119z
M830 304q105 130 105 317q0 136 -65 215q-66 78 -179 78q-145 0 -241 -133t-96 -334q0 -123 60 -197q60 -75 160 -75q152 0 256 129zM643 1265l162 355h239l-210 -355h-191z" />
    <glyph glyph-name="epsilontonos" unicode="&#x3ad;" horiz-adv-x="1143" 
d="M619 1265l162 355h239l-210 -355h-191zM234 54q-127 79 -127 221q0 105 68 178q64 70 175 98l4 17q-140 65 -140 202q0 157 129 250q126 90 335 90q442 0 476 -337h-217q-36 149 -264 149q-114 0 -179 -44q-60 -42 -60 -110q0 -128 198 -128h157l-37 -181h-183
q-111 0 -173 -42q-60 -40 -60 -110q0 -66 61 -102q61 -37 171 -37q118 0 204 46q87 47 119 129h222q-41 -167 -192 -265q-154 -99 -377 -99q-191 0 -310 75z" />
    <glyph glyph-name="etatonos" unicode="&#x3ae;" horiz-adv-x="1309" 
d="M1030 630q8 39 8 81q0 94 -55 149q-55 56 -149 56q-117 0 -197 -72t-109 -201l-137 -643h-217l168 786q8 40 8 59q0 37 -20 53q-20 15 -67 15q-36 0 -55 -5l37 178q50 13 107 13q99 0 148 -38q47 -38 60 -124l5 -29h17q121 202 360 202q145 0 234 -93t89 -245
q0 -58 -12 -120l-214 -1005h-217zM665 1265l162 355h239l-210 -355h-191z" />
    <glyph glyph-name="iotatonos" unicode="&#x3af;" horiz-adv-x="609" 
d="M364 367q-10 -44 -10 -81q0 -107 130 -107q55 0 84 4l-37 -179q-61 -10 -129 -10q-133 0 -205 58q-73 59 -73 167q0 37 11 94l166 776h217zM350 1265l162 355h239l-210 -355h-191z" />
    <glyph glyph-name="upsilondieresistonos" unicode="&#x3b0;" horiz-adv-x="1187" 
d="M626 1265l105 355h224l-154 -355h-175zM338 1298q-33 33 -33 84q0 60 40 100q41 42 105 42q51 0 84 -33q32 -33 32 -83q0 -60 -40 -101q-41 -42 -104 -42q-51 0 -84 33zM998 1298q-33 33 -33 84q0 60 40 100q41 42 104 42q52 0 84 -33q33 -32 33 -83q0 -60 -40 -101
q-41 -42 -104 -42q-51 0 -84 33zM1122 1089q30 -114 30 -284q0 -394 -171 -614q-164 -212 -444 -212q-187 0 -290 90q-102 89 -102 251q0 66 18 156l129 613h209l-129 -614q-18 -73 -16 -137q1 -160 196 -160q183 0 286 172q99 166 99 452q0 165 -28 287h213z" />
    <glyph glyph-name="alpha" unicode="&#x3b1;" horiz-adv-x="1304" 
d="M230 101q-102 119 -102 312q0 296 152 495t378 199q264 0 331 -221l17 -1l43 204h211l-168 -788q-8 -32 -8 -59q0 -36 20 -51t68 -15q27 0 52 5l-36 -178q-50 -13 -104 -13q-112 0 -161 45q-51 45 -51 146v11h-17q-52 -99 -147 -154q-95 -56 -212 -56q-164 0 -266 119z
M830 304q105 130 105 317q0 136 -65 215q-66 78 -179 78q-145 0 -241 -133t-96 -334q0 -123 60 -197q60 -75 160 -75q152 0 256 129z" />
    <glyph glyph-name="beta" unicode="&#x3b2;" horiz-adv-x="1283" 
d="M307 1052q51 247 172 363q124 120 343 120q184 0 296 -95t112 -252q0 -257 -251 -357l-4 -18q249 -87 249 -334q0 -212 -145 -354q-146 -143 -366 -143q-275 0 -356 217h-17l-118 -552h-215zM649 902h84q129 0 207 71q77 70 77 184q0 187 -211 187q-220 0 -282 -284
l-111 -514q-16 -72 -16 -107q0 -123 79 -194q79 -70 211 -70q136 0 225 86q88 84 88 211q0 117 -75 182q-76 64 -214 64h-100z" />
    <glyph glyph-name="gamma" unicode="&#x3b3;" horiz-adv-x="1135" 
d="M559 -34l-67 -312h-216l66 304l-141 1131h224l85 -883h19q431 489 431 822q0 40 -5 61h209q5 -22 5 -69q0 -400 -610 -1054z" />
    <glyph glyph-name="delta" unicode="&#x3b4;" horiz-adv-x="1200" 
d="M235 97q-124 119 -124 319q0 225 127 381q131 161 354 192l4 19q-165 91 -165 232q0 136 110 215q110 80 301 80q253 0 373 -99l-44 -176q-156 94 -343 94q-176 0 -176 -110q0 -43 31 -75q33 -34 131 -88q190 -116 268 -225q79 -111 79 -267q0 -255 -172 -432
q-173 -178 -422 -178q-208 0 -332 118zM836 281q100 120 100 303q0 125 -68 198q-69 74 -186 74q-147 0 -245 -119q-102 -122 -102 -313q0 -121 67 -192q67 -72 182 -72q152 0 252 121z" />
    <glyph glyph-name="epsilon" unicode="&#x3b5;" horiz-adv-x="1143" 
d="M234 54q-127 79 -127 221q0 105 68 178q64 70 175 98l4 17q-140 65 -140 202q0 157 129 250q126 90 335 90q442 0 476 -337h-217q-36 149 -264 149q-114 0 -179 -44q-60 -42 -60 -110q0 -128 198 -128h157l-37 -181h-183q-111 0 -173 -42q-60 -40 -60 -110q0 -66 61 -102
q61 -37 171 -37q118 0 204 46q87 47 119 129h222q-41 -167 -192 -265q-154 -99 -377 -99q-191 0 -310 75z" />
    <glyph glyph-name="zeta" unicode="&#x3b6;" horiz-adv-x="959" 
d="M567 -315q99 121 99 212q0 49 -33 82q-35 35 -124 73q-215 91 -306 197q-90 106 -90 267q0 426 639 787l4 17h-434l40 194h748l9 -183q-782 -380 -782 -780q0 -105 53 -167q54 -64 198 -126q174 -75 236 -141q57 -61 57 -160q0 -167 -159 -333z" />
    <glyph glyph-name="eta" unicode="&#x3b7;" horiz-adv-x="1309" 
d="M1030 630q8 39 8 81q0 94 -55 149q-55 56 -149 56q-117 0 -197 -72t-109 -201l-137 -643h-217l168 786q8 40 8 59q0 37 -20 53q-20 15 -67 15q-36 0 -55 -5l37 178q50 13 107 13q99 0 148 -38q47 -38 60 -124l5 -29h17q121 202 360 202q145 0 234 -93t89 -245
q0 -58 -12 -120l-214 -1005h-217z" />
    <glyph glyph-name="theta" unicode="&#x3b8;" horiz-adv-x="1256" 
d="M276 113q-112 134 -112 390q0 125 27 273q65 369 229 564t408 195q212 0 322 -134q111 -133 111 -389q0 -117 -26 -275q-64 -369 -228 -564q-163 -194 -407 -194q-212 0 -324 134zM851 287q95 122 150 383h-606q-16 -109 -16 -192q0 -146 55 -227q60 -87 176 -87
q146 0 241 123zM1032 859q12 83 12 165q0 326 -235 326q-276 0 -382 -491h605z" />
    <glyph glyph-name="iota" unicode="&#x3b9;" horiz-adv-x="609" 
d="M364 367q-10 -44 -10 -81q0 -107 130 -107q55 0 84 4l-37 -179q-61 -10 -129 -10q-133 0 -205 58q-73 59 -73 167q0 37 11 94l166 776h217z" />
    <glyph glyph-name="kappa" unicode="&#x3ba;" horiz-adv-x="1159" 
d="M1221 1086l-36 -178q-38 5 -57 5q-66 0 -143 -77l-201 -196l281 -640h-216l-217 504l-289 -274l-48 -230h-215l230 1089h216l-114 -525h17l377 368q105 103 165 135t149 32q56 0 101 -13z" />
    <glyph glyph-name="lambda" unicode="&#x3bb;" horiz-adv-x="1138" 
d="M1110 179l-36 -176q-40 -13 -106 -13q-111 0 -164 53q-52 52 -69 178l-66 487h-16l-430 -708h-241l645 1028l-14 92q-25 150 -56 190q-31 39 -121 39q-19 0 -52 -5l36 178q46 13 103 13q143 0 202 -78q58 -78 91 -314l121 -856q8 -64 36 -89q26 -25 86 -25q27 0 51 6z
" />
    <glyph glyph-name="uni03BC" unicode="&#x3bc;" horiz-adv-x="1310" 
d="M311 1089h218l-126 -594q-17 -81 -17 -123q0 -194 198 -194q112 0 204 84q91 83 119 210l130 617h215l-168 -788q-7 -33 -7 -57q0 -37 20 -53q20 -15 68 -15q32 0 52 4l-36 -179q-47 -11 -104 -11q-206 0 -206 190v6h-17q-51 -87 -132 -143q-93 -64 -195 -64
q-69 0 -121 32q-54 33 -69 88h-16l-99 -452h-215z" />
    <glyph glyph-name="nu" unicode="&#x3bd;" horiz-adv-x="1135" 
d="M1019 554q-135 -230 -429 -554h-253l-136 1089h224l85 -883h19q431 487 431 822q0 40 -5 61h209q5 -22 5 -69q0 -212 -150 -466z" />
    <glyph glyph-name="xi" unicode="&#x3be;" horiz-adv-x="973" 
d="M563 -315q98 119 98 207q0 50 -33 85q-36 38 -125 75q-230 95 -321 182q-90 87 -90 209q0 261 340 341l3 16q-168 70 -168 230q0 198 245 274l3 16h-204l39 194h726l9 -176l-139 -13q-465 -47 -465 -251q0 -84 88 -129q86 -44 245 -44h114l-38 -189h-131q-204 0 -318 -54
q-120 -57 -120 -166q0 -67 56 -118q57 -53 206 -117q171 -75 231 -137q62 -63 62 -166q0 -172 -157 -330z" />
    <glyph glyph-name="omicron" unicode="&#x3bf;" horiz-adv-x="1206" 
d="M263 104q-130 129 -130 342q0 279 160 467q168 197 439 197q197 0 321 -133q119 -128 119 -322q0 -299 -170 -490q-166 -186 -414 -186q-199 0 -325 125zM841 297q104 132 104 323q0 135 -62 216q-64 83 -178 83q-154 0 -252 -133q-94 -128 -94 -321q0 -138 71 -219
q67 -76 172 -76q138 0 239 127z" />
    <glyph glyph-name="pi" unicode="&#x3c0;" horiz-adv-x="1413" 
d="M1015 895h-412l-192 -895h-206l191 895h-197l40 194h1243l-39 -194h-221l-126 -580q-10 -52 -10 -67q0 -39 20 -55q21 -17 72 -17q29 0 57 5l-37 -178q-42 -13 -116 -13q-212 0 -212 190q0 34 17 119z" />
    <glyph glyph-name="rho" unicode="&#x3c1;" horiz-adv-x="1236" 
d="M878 295q106 127 106 329q0 138 -69 217q-69 78 -187 78q-151 0 -248 -129t-97 -328q0 -132 73 -211q71 -76 183 -76q140 0 239 120zM1085 978q123 -128 123 -336q0 -279 -159 -469q-158 -191 -388 -191q-119 0 -211 63q-89 61 -116 154h-16l-118 -552h-216l192 898
q117 565 568 565q215 0 341 -132z" />
    <glyph glyph-name="sigma1" unicode="&#x3c2;" horiz-adv-x="1135" 
d="M747 -376l-156 61q100 121 100 211q0 50 -34 84t-125 72q-214 89 -304 200q-90 110 -90 284q0 246 144 404q156 170 426 170q197 0 321 -114q116 -106 124 -267h-210q-16 83 -78 134q-66 55 -164 55q-163 0 -254 -109q-84 -100 -84 -253q0 -108 58 -176q55 -64 190 -122
q172 -75 233 -137q62 -63 62 -166q0 -163 -159 -331z" />
    <glyph glyph-name="sigma" unicode="&#x3c3;" horiz-adv-x="1302" 
d="M255 105q-124 125 -124 332q0 278 158 460q166 192 441 192h642l-39 -194h-279l-3 -17q101 -96 101 -257q0 -265 -156 -450q-162 -192 -411 -192q-206 0 -330 126zM845 299q93 128 93 330q0 128 -55 197q-55 68 -159 68q-163 0 -266 -129t-103 -333q0 -128 61 -196
t174 -68q159 0 255 131z" />
    <glyph glyph-name="tau" unicode="&#x3c4;" horiz-adv-x="1085" 
d="M794 5q-57 -11 -154 -11q-129 0 -202 56q-76 58 -76 169q0 46 11 94l126 582h-338l39 194h953l-39 -194h-398l-115 -528q-10 -44 -10 -81q0 -107 131 -107q61 0 109 6z" />
    <glyph glyph-name="upsilon" unicode="&#x3c5;" horiz-adv-x="1187" 
d="M1122 1089q30 -114 30 -284q0 -394 -171 -614q-164 -212 -444 -212q-187 0 -290 90q-102 89 -102 251q0 66 18 156l129 613h209l-129 -614q-18 -73 -16 -137q1 -160 196 -160q183 0 286 172q99 166 99 452q0 165 -28 287h213z" />
    <glyph glyph-name="phi" unicode="&#x3c6;" horiz-adv-x="1556" 
d="M608 -15q-220 22 -346 146q-127 124 -127 318q0 293 199 478q199 184 512 184l60 280h206l-62 -288q216 -20 343 -147q127 -126 127 -318q0 -289 -199 -475q-199 -185 -509 -186l-71 -330h-205zM812 930q-208 -4 -335 -131q-127 -126 -127 -328q0 -129 76 -208
q77 -78 220 -97zM845 158q210 8 335 133q124 125 124 327q0 126 -76 206q-77 79 -217 97z" />
    <glyph glyph-name="chi" unicode="&#x3c7;" horiz-adv-x="1158" 
d="M756 -325q-51 38 -78 127l-111 354h-16l-380 -509h-223l556 730l-134 425q-22 67 -49 90q-27 22 -84 22q-25 0 -49 -6l37 178q49 13 108 13q92 0 142 -39t79 -135l110 -355h16l382 519h224l-556 -739l128 -413q21 -69 50 -93q26 -22 85 -22q20 0 50 5l-37 -177
q-40 -13 -104 -13q-94 0 -146 38z" />
    <glyph glyph-name="psi" unicode="&#x3c8;" horiz-adv-x="1522" 
d="M509 -353l71 330q-434 14 -434 339q0 73 19 171l127 602h209l-129 -607q-17 -80 -17 -130q0 -87 63 -129q62 -42 201 -47l262 1215h206l-263 -1220q446 12 446 623q0 175 -29 295h212q33 -101 33 -292q0 -391 -170 -602q-179 -222 -531 -222l-70 -326h-206z" />
    <glyph glyph-name="omega" unicode="&#x3c9;" horiz-adv-x="1616" 
d="M1418 170q-141 -191 -346 -191q-110 0 -173 53q-62 53 -90 169h-18q-104 -222 -325 -222q-162 0 -248 103q-87 102 -87 294q0 189 76 386q76 196 200 327h224q-283 -315 -283 -707q0 -96 41 -150t113 -54q173 0 222 217l83 382h205l-73 -347q-9 -36 -9 -81q0 -81 40 -126
t112 -45q117 0 189 130t72 342q0 250 -119 439h224q111 -173 111 -449q0 -279 -141 -470z" />
    <glyph glyph-name="iotadieresis" unicode="&#x3ca;" horiz-adv-x="617" 
d="M144 1277q-38 38 -38 95t38 96q39 39 95 39q57 0 96 -39q38 -39 38 -96t-38 -95q-39 -39 -96 -39q-56 0 -95 39zM571 1277q-38 38 -38 95t38 96q39 39 95 39q57 0 96 -39q38 -39 38 -96t-38 -95q-39 -39 -96 -39q-56 0 -95 39zM364 367q-10 -44 -10 -81q0 -107 130 -107
q55 0 84 4l-37 -179q-61 -10 -129 -10q-133 0 -205 58q-73 59 -73 167q0 37 11 94l166 776h217z" />
    <glyph glyph-name="upsilondieresis" unicode="&#x3cb;" horiz-adv-x="1187" 
d="M447 1277q-38 38 -38 95t38 96q39 39 95 39q57 0 96 -39q38 -39 38 -96t-38 -95q-39 -39 -96 -39q-56 0 -95 39zM874 1277q-38 38 -38 95t38 96q39 39 95 39q57 0 96 -39q38 -39 38 -96t-38 -95q-39 -39 -96 -39q-56 0 -95 39zM1122 1089q30 -114 30 -284
q0 -394 -171 -614q-164 -212 -444 -212q-187 0 -290 90q-102 89 -102 251q0 66 18 156l129 613h209l-129 -614q-18 -73 -16 -137q1 -160 196 -160q183 0 286 172q99 166 99 452q0 165 -28 287h213z" />
    <glyph glyph-name="omicrontonos" unicode="&#x3cc;" horiz-adv-x="1205" 
d="M263 104q-130 129 -130 342q0 279 160 467q168 197 439 197q197 0 321 -133q119 -128 119 -322q0 -299 -170 -490q-166 -186 -414 -186q-199 0 -325 125zM841 297q104 132 104 323q0 135 -62 216q-64 83 -178 83q-154 0 -252 -133q-94 -128 -94 -321q0 -138 71 -219
q67 -76 172 -76q138 0 239 127zM640 1265l162 355h239l-210 -355h-191z" />
    <glyph glyph-name="upsilontonos" unicode="&#x3cd;" horiz-adv-x="1187" 
d="M633 1265l162 355h239l-210 -355h-191zM1122 1089q30 -114 30 -284q0 -394 -171 -614q-164 -212 -444 -212q-187 0 -290 90q-102 89 -102 251q0 66 18 156l129 613h209l-129 -614q-18 -73 -16 -137q1 -160 196 -160q183 0 286 172q99 166 99 452q0 165 -28 287h213z" />
    <glyph glyph-name="omegatonos" unicode="&#x3ce;" horiz-adv-x="1617" 
d="M1418 170q-141 -191 -346 -191q-110 0 -173 53q-62 53 -90 169h-18q-104 -222 -325 -222q-162 0 -248 103q-87 102 -87 294q0 189 76 386q76 196 200 327h224q-283 -315 -283 -707q0 -96 41 -150t113 -54q173 0 222 217l83 382h205l-73 -347q-9 -36 -9 -81q0 -81 40 -126
t112 -45q117 0 189 130t72 342q0 250 -119 439h224q111 -173 111 -449q0 -279 -141 -470zM868 1265l162 355h239l-210 -355h-191z" />
    <glyph glyph-name="uni0401" unicode="&#x401;" horiz-adv-x="1259" 
d="M637 1616q-38 38 -38 95t38 96q39 39 95 39q57 0 96 -39q38 -39 38 -96t-38 -95q-39 -39 -96 -39q-56 0 -95 39zM1064 1616q-38 38 -38 95t38 96q39 39 95 39q57 0 96 -39q38 -39 38 -96t-38 -95q-39 -39 -96 -39q-56 0 -95 39zM1042 0h-918l307 1443h917l-41 -204h-690
l-91 -408h654l-40 -194h-653l-96 -433h691z" />
    <glyph glyph-name="uni0402" unicode="&#x402;" horiz-adv-x="1762" 
d="M1516 110q-155 -150 -394 -150q-120 0 -164 17l41 198q37 -15 123 -15q140 0 230 88q87 85 87 213q0 109 -61 171q-65 67 -193 67q-111 0 -218 -60q-93 -53 -144 -127l-111 -512h-227l265 1239h-448l42 204h1124l-42 -204h-448l-102 -466h13q136 134 341 134
q212 0 329 -121q110 -114 110 -308q0 -220 -153 -368z" />
    <glyph glyph-name="uni0403" unicode="&#x403;" horiz-adv-x="1188" 
d="M1076 1881h258l-390 -306h-230zM124 0l307 1443h892l-42 -204h-664l-265 -1239h-228z" />
    <glyph glyph-name="uni0404" unicode="&#x404;" horiz-adv-x="1505" 
d="M1454 435q-66 -217 -237 -343q-173 -127 -405 -127q-302 0 -449 207q-152 215 -83 585q53 325 250 520q205 201 506 201q219 0 373 -132q159 -136 163 -344v-19h-224q-7 130 -101 208q-92 77 -233 77q-176 0 -310 -120q-132 -118 -185 -315h623l-40 -196h-614
q-21 -216 72 -339q93 -124 276 -124q137 0 245 76q100 70 149 185h224z" />
    <glyph glyph-name="uni0405" unicode="&#x405;" horiz-adv-x="1331" 
d="M347 405q22 -110 117 -176q94 -65 230 -65q140 0 226 62q86 63 86 164q0 78 -57 131t-189 96l-142 48q-152 51 -235 150q-84 100 -84 231q0 186 151 309t379 123q217 0 363 -121q145 -120 159 -311h-219q-23 108 -106 171q-84 63 -208 63t-205 -60q-82 -59 -82 -150
q0 -137 218 -211l137 -47q352 -120 352 -391q0 -204 -156 -330t-406 -126q-231 0 -378 117q-149 118 -172 323h221z" />
    <glyph glyph-name="uni0406" unicode="&#x406;" horiz-adv-x="607" 
d="M124 0l307 1443h227l-307 -1443h-227z" />
    <glyph glyph-name="uni0407" unicode="&#x407;" horiz-adv-x="608" 
d="M124 0l307 1443h227l-307 -1443h-227zM293 1616q-38 38 -38 95t38 96q39 39 95 39q57 0 96 -39q38 -39 38 -96t-38 -95q-39 -39 -96 -39q-56 0 -95 39zM720 1616q-38 38 -38 95t38 96q39 39 95 39q57 0 96 -39q38 -39 38 -96t-38 -95q-39 -39 -96 -39q-56 0 -95 39z" />
    <glyph glyph-name="uni0408" unicode="&#x408;" horiz-adv-x="1168" 
d="M332 370v-4q1 -86 57 -137q56 -50 150 -50q193 0 246 243l218 1021h223l-225 -1063q-42 -201 -164 -307q-123 -108 -317 -108q-187 0 -303 111t-107 281v13h222z" />
    <glyph glyph-name="uni0409" unicode="&#x409;" horiz-adv-x="2188" 
d="M571 554q-78 -290 -181 -416q-122 -149 -330 -149q-48 0 -82 12l42 209q28 -7 58 -7q107 0 178 103q58 84 106 262l236 875h915l-106 -491h253q213 0 341 -113q131 -115 131 -308q0 -218 -158 -371q-164 -160 -414 -160h-581l266 1239h-484zM1368 754l-122 -557h299
q152 0 255 88q102 88 102 217q0 125 -80 191q-75 61 -209 61h-245z" />
    <glyph glyph-name="uni040A" unicode="&#x40a;" horiz-adv-x="2209" 
d="M1151 641h-664l-137 -641h-226l307 1443h227l-129 -601h663l129 601h227l-129 -601h275q201 0 324 -100q123 -101 123 -269q0 -196 -147 -331q-155 -142 -400 -142h-580zM1581 197q151 0 242 72q88 69 88 179q0 98 -72 150q-68 48 -189 48h-271l-98 -449h300z" />
    <glyph glyph-name="uni040B" unicode="&#x40b;" horiz-adv-x="1785" 
d="M979 645q-96 -52 -156 -133l-111 -512h-227l265 1239h-448l42 204h1124l-42 -204h-448l-102 -465h16q163 133 356 133q231 0 337 -146q106 -145 55 -381l-81 -380h-228l83 385q32 147 -26 230q-60 84 -200 84q-107 0 -209 -54z" />
    <glyph glyph-name="uni040C" unicode="&#x40c;" horiz-adv-x="1390" 
d="M1049 1575h-230l362 306h258zM736 725l522 -725h-257l-470 636h-44l-136 -636h-227l307 1443h227l-133 -622h43l691 622h279z" />
    <glyph glyph-name="uni040E" unicode="&#x40e;" horiz-adv-x="1367" 
d="M812 1892q-16 -76 24 -123q40 -46 117 -46q78 0 137 46q60 47 76 123h179q-30 -145 -141 -227q-109 -81 -266 -81q-163 0 -248 84q-86 86 -56 224h178zM194 2l40 203q27 -9 80 -9q150 0 255 129l-248 1118h235l171 -867h17l535 867h250l-682 -1061q-132 -207 -244 -292
q-133 -101 -318 -101q-65 0 -91 13z" />
    <glyph glyph-name="uni040F" unicode="&#x40f;" horiz-adv-x="1550" 
d="M124 0l307 1443h224l-266 -1238h720l265 1238h226l-307 -1443h-480l-61 -285h-209l61 285h-480z" />
    <glyph glyph-name="uni0410" unicode="&#x410;" horiz-adv-x="1444" 
d="M1021 383h-554l-215 -383h-237l836 1443h232l212 -1443h-224zM563 571h440l-82 608h-16z" />
    <glyph glyph-name="uni0411" unicode="&#x411;" horiz-adv-x="1350" 
d="M124 0l307 1443h894l-42 -204h-666l-78 -355h266q213 0 341 -103q131 -105 131 -282q0 -205 -158 -349q-164 -150 -414 -150h-581zM690 197q152 0 255 80q102 79 102 194q0 109 -79 165q-74 54 -207 54h-262l-108 -493h299z" />
    <glyph glyph-name="uni0412" unicode="&#x412;" horiz-adv-x="1393" 
d="M124 0l307 1443h532q185 0 297 -86t112 -229q0 -139 -88 -241q-87 -102 -229 -128l-4 -17q118 -21 185 -97q68 -76 68 -188q0 -200 -156 -328q-156 -129 -398 -129h-626zM527 834h277q150 0 245 68q94 68 94 176q0 177 -262 177h-262zM728 193q148 0 246 74q98 75 98 188
q0 203 -274 203h-308l-101 -465h339z" />
    <glyph glyph-name="uni0413" unicode="&#x413;" horiz-adv-x="1188" 
d="M124 0l307 1443h892l-42 -204h-664l-265 -1239h-228z" />
    <glyph glyph-name="uni0414" unicode="&#x414;" horiz-adv-x="1543" 
d="M559 567q-71 -252 -172 -349l-3 -14h661l224 1035h-519zM119 -285h-205l101 489h105q151 80 231 375l239 864h948l-266 -1239h180l-102 -489h-205l61 285h-1026z" />
    <glyph glyph-name="uni0415" unicode="&#x415;" horiz-adv-x="1259" 
d="M1042 0h-918l307 1443h917l-41 -204h-690l-91 -408h654l-40 -194h-653l-96 -433h691z" />
    <glyph glyph-name="uni0416" unicode="&#x416;" horiz-adv-x="2105" 
d="M278 0h-288l816 764l-432 679h246l392 -625h44l134 625h223l-134 -625h44l660 625h279l-767 -721l473 -722h-257l-423 637h-45l-137 -637h-223l138 637h-45z" />
    <glyph glyph-name="uni0417" unicode="&#x417;" horiz-adv-x="1309" 
d="M552 838h197q141 0 232 70q91 69 91 175q0 94 -60 146q-61 53 -178 53q-119 0 -207 -60q-89 -61 -122 -166h-212q52 198 205 311q151 111 362 111q208 0 328 -106q114 -100 114 -260q0 -144 -93 -243q-92 -98 -247 -124l-4 -17q121 -24 188 -99q68 -78 68 -200
q0 -199 -161 -331q-163 -133 -415 -133q-240 0 -376 125q-129 118 -131 311h214q2 -103 76 -168q81 -70 222 -70q149 0 244 73t95 188q0 216 -282 216h-188z" />
    <glyph glyph-name="uni0418" unicode="&#x418;" horiz-adv-x="1571" 
d="M1320 1057h-17l-957 -1057h-222l307 1443h223l-229 -1060h16l958 1060h222l-307 -1443h-224z" />
    <glyph glyph-name="uni0419" unicode="&#x419;" horiz-adv-x="1571" 
d="M907 1892q-16 -76 24 -123q40 -46 117 -46q78 0 137 46q60 47 76 123h179q-30 -145 -141 -227q-109 -81 -266 -81q-163 0 -248 84q-86 86 -56 224h178zM1320 1057h-17l-957 -1057h-222l307 1443h223l-229 -1060h16l958 1060h222l-307 -1443h-224z" />
    <glyph glyph-name="uni041A" unicode="&#x41a;" horiz-adv-x="1392" 
d="M736 725l522 -725h-257l-470 636h-44l-136 -636h-227l307 1443h227l-133 -622h43l691 622h279z" />
    <glyph glyph-name="uni041B" unicode="&#x41b;" horiz-adv-x="1470" 
d="M987 0l265 1239h-491l-190 -685q-77 -288 -181 -415q-122 -150 -330 -150q-48 0 -82 12l42 209q28 -7 58 -7q107 0 178 103q57 83 106 262l236 875h923l-307 -1443h-227z" />
    <glyph glyph-name="uni041C" unicode="&#x41c;" horiz-adv-x="1844" 
d="M124 0l307 1443h252l223 -1096h17l696 1096h275l-307 -1443h-212l225 1042h-14l-639 -1000h-170l-204 1000h-13l-225 -1042h-211z" />
    <glyph glyph-name="uni041D" unicode="&#x41d;" horiz-adv-x="1572" 
d="M1087 0l137 633h-738l-136 -633h-226l307 1443h227l-130 -606h737l130 606h228l-307 -1443h-229z" />
    <glyph glyph-name="uni041E" unicode="&#x41e;" horiz-adv-x="1619" 
d="M373 137q-168 170 -168 432q0 394 224 652q222 257 560 257q264 0 431 -171q165 -170 165 -433q0 -397 -222 -654q-221 -255 -559 -255q-263 0 -431 172zM1248 1153q-104 113 -272 113q-229 0 -383 -195q-155 -195 -155 -484q0 -185 105 -298q104 -113 275 -113
q230 0 382 193q152 194 152 486q0 184 -104 298z" />
    <glyph glyph-name="uni041F" unicode="&#x41f;" horiz-adv-x="1550" 
d="M1070 0l265 1238h-720l-265 -1238h-226l307 1443h1169l-307 -1443h-223z" />
    <glyph glyph-name="uni0420" unicode="&#x420;" horiz-adv-x="1349" 
d="M944 1443q190 0 311 -110q124 -112 124 -294q0 -253 -170 -406q-163 -147 -422 -147h-333l-104 -486h-227l307 1443h514zM494 683h284q169 0 268 88q102 91 102 247q0 108 -73 168q-71 59 -197 59h-261z" />
    <glyph glyph-name="uni0421" unicode="&#x421;" horiz-adv-x="1513" 
d="M366 128q-157 165 -157 441q0 394 217 652q217 257 549 257q243 0 402 -142q159 -141 159 -358v-7h-224q-10 136 -105 216t-246 80q-221 0 -371 -196q-151 -196 -151 -484q0 -191 99 -303q98 -112 267 -112q138 0 242 66q105 66 143 178h230q-54 -211 -225 -332
q-171 -122 -414 -122q-259 0 -415 166z" />
    <glyph glyph-name="uni0422" unicode="&#x422;" horiz-adv-x="1338" 
d="M486 0l266 1239h-452l41 204h1131l-41 -204h-452l-265 -1239h-228z" />
    <glyph glyph-name="uni0423" unicode="&#x423;" horiz-adv-x="1367" 
d="M194 2l40 203q27 -9 80 -9q150 0 255 129l-248 1118h235l171 -867h17l535 867h250l-682 -1061q-132 -207 -244 -292q-133 -101 -318 -101q-65 0 -91 13z" />
    <glyph glyph-name="uni0424" unicode="&#x424;" horiz-adv-x="1760" 
d="M698 -25l32 153q-247 10 -390 144q-143 135 -143 357q0 295 221 489t566 205l30 145h222l-31 -145q247 -10 390 -145t143 -357q0 -294 -220 -488q-221 -194 -566 -205l-33 -153h-221zM518 416q91 -82 253 -88l173 795q-225 -10 -371 -147q-147 -138 -147 -340
q0 -138 92 -220zM1418 1035q-92 82 -254 88l-173 -795q225 10 372 147t147 337q0 140 -92 223z" />
    <glyph glyph-name="uni0425" unicode="&#x425;" horiz-adv-x="1447" 
d="M679 749l-318 694h254l236 -539h16l469 539h253l-644 -729l329 -714h-245l-251 542h-16l-478 -542h-250z" />
    <glyph glyph-name="uni0426" unicode="&#x426;" horiz-adv-x="1607" 
d="M1208 -285l61 285h-1146l309 1443h223l-265 -1238h719l266 1238h226l-266 -1239h180l-102 -489h-205z" />
    <glyph glyph-name="uni0427" unicode="&#x427;" horiz-adv-x="1455" 
d="M1012 0l140 650h-17q-167 -132 -384 -132q-238 0 -354 157q-115 155 -64 396l79 372h224l-79 -373q-34 -154 28 -245q66 -97 223 -97q128 0 239 57q102 52 160 135l112 523h224l-307 -1443h-224z" />
    <glyph glyph-name="uni0428" unicode="&#x428;" horiz-adv-x="2019" 
d="M431 1443h227l-266 -1239h478l266 1239h228l-267 -1239h479l266 1239h227l-307 -1443h-1638z" />
    <glyph glyph-name="uni0429" unicode="&#x429;" horiz-adv-x="2076" 
d="M1677 -285l61 285h-1613l307 1443h227l-267 -1239h479l266 1239h227l-266 -1239h478l267 1239h227l-266 -1239h180l-102 -489h-205z" />
    <glyph glyph-name="uni042A" unicode="&#x42a;" horiz-adv-x="1540" 
d="M330 0l266 1239h-332l42 204h558l-106 -491h252q213 0 342 -113q131 -115 131 -308q0 -218 -158 -371q-164 -160 -415 -160h-580zM719 754l-122 -557h299q152 0 254 88t102 217q0 125 -79 191q-75 61 -209 61h-245z" />
    <glyph glyph-name="uni042B" unicode="&#x42b;" horiz-adv-x="1823" 
d="M1339 0l307 1443h227l-307 -1443h-227zM513 754l-122 -557h299q152 0 255 88q102 88 102 217q0 125 -80 191q-75 61 -209 61h-245zM431 1443h227l-106 -491h252q213 0 342 -113q131 -115 131 -308q0 -218 -158 -371q-164 -160 -415 -160h-580z" />
    <glyph glyph-name="uni042C" unicode="&#x42c;" horiz-adv-x="1334" 
d="M513 754l-122 -557h299q152 0 255 88q102 88 102 217q0 125 -80 191q-75 61 -209 61h-245zM431 1443h227l-106 -491h252q213 0 342 -113q131 -115 131 -308q0 -218 -158 -371q-164 -160 -415 -160h-580z" />
    <glyph glyph-name="uni042D" unicode="&#x42d;" horiz-adv-x="1504" 
d="M324 93q-157 133 -168 342h225q16 -120 107 -190t224 -70q183 0 320 128q134 125 183 334h-623l40 196h609q14 204 -79 320q-94 116 -272 116q-143 0 -252 -80q-104 -77 -154 -206h-225q66 235 242 366q173 129 413 129q302 0 449 -207q152 -215 84 -585
q-53 -325 -250 -519q-205 -202 -506 -202q-216 0 -367 128z" />
    <glyph glyph-name="uni042E" unicode="&#x42e;" horiz-adv-x="2137" 
d="M1719 375q152 199 152 475q0 193 -106 309q-101 110 -262 110q-223 0 -375 -192q-152 -193 -152 -475q0 -200 106 -317q102 -111 264 -111q219 0 373 201zM775 837q68 287 264 461q203 180 478 180q250 0 415 -166q169 -170 169 -437q0 -378 -211 -640
q-218 -270 -547 -270q-263 0 -427 161q-170 167 -170 451q0 37 1 56h-261l-136 -633h-226l307 1443h227l-130 -606h247z" />
    <glyph glyph-name="uni042F" unicode="&#x42f;" horiz-adv-x="1393" 
d="M1060 714l116 532h-302q-152 0 -255 -85q-102 -85 -102 -208q0 -119 80 -181q74 -58 208 -58h255zM310 0h-281l516 563q-121 46 -189 140q-69 97 -69 228q0 209 159 357q165 155 415 155h582l-307 -1443h-227l112 523h-230z" />
    <glyph glyph-name="uni0430" unicode="&#x430;" horiz-adv-x="1173" 
d="M711 225q85 63 107 159l25 112l-265 -12q-120 -5 -188 -52q-67 -46 -67 -122q0 -65 54 -107q53 -42 138 -42q110 0 196 64zM201 68q-94 85 -94 213q0 163 123 258q124 95 351 103l295 12l15 71q6 32 6 46q0 71 -57 112q-57 40 -157 40q-173 0 -222 -119h-215
q35 141 158 224q123 82 296 82q186 0 299 -85q113 -86 113 -227q0 -46 -9 -88l-150 -710h-209l30 139h-17q-115 -157 -321 -157q-141 0 -235 86z" />
    <glyph glyph-name="uni0431" unicode="&#x431;" horiz-adv-x="1260" 
d="M473 751q-94 -120 -94 -302q0 -130 68 -204q69 -75 190 -75q137 0 237 117q100 119 100 287q0 142 -65 221q-66 79 -184 79q-155 0 -252 -123zM1019 1464q108 5 211 29q78 18 84 24l-38 -190q-77 -48 -285 -57l-137 -5q-184 -8 -290 -113q-87 -85 -153 -276h16
q132 184 349 184q193 0 310 -126q113 -124 113 -321q0 -272 -151 -449q-161 -188 -434 -188q-197 0 -320 123q-123 122 -130 322q-4 154 60 389q87 320 220 466q157 171 436 183z" />
    <glyph glyph-name="uni0432" unicode="&#x432;" horiz-adv-x="1161" 
d="M328 1089h457q151 0 235 -66t84 -182q0 -96 -69 -168q-68 -72 -174 -91l-3 -17q96 -12 150 -70q51 -55 51 -137q0 -158 -124 -257q-127 -101 -338 -101h-500zM416 484l-68 -319h255q107 0 171 50q63 50 63 132q0 137 -192 137h-229zM511 924l-62 -282h210q106 0 167 50
q55 45 55 116q0 116 -152 116h-218z" />
    <glyph glyph-name="uni0433" unicode="&#x433;" horiz-adv-x="958" 
d="M510 908l-195 -908h-218l231 1089h704l-36 -181h-486z" />
    <glyph glyph-name="uni0434" unicode="&#x434;" horiz-adv-x="1304" 
d="M994 908h-387l-121 -410q-61 -209 -147 -300l-4 -17h501zM-91 -285l98 466h88q124 71 195 328l165 580h793l-194 -908h169l-98 -466h-199l61 285h-817l-61 -285h-200z" />
    <glyph glyph-name="uni0435" unicode="&#x435;" horiz-adv-x="1218" 
d="M289 99q-132 126 -132 341q0 299 161 485q159 185 413 185q184 0 304 -118q125 -124 126 -329q0 -78 -14 -170h-775q-1 -14 -1 -44q0 -140 80 -216q70 -66 176 -66q185 0 252 126h218q-36 -140 -162 -225q-132 -89 -322 -89q-199 0 -324 120zM945 651q3 18 3 43
q0 100 -59 164q-64 69 -172 69q-114 0 -200 -76q-84 -74 -119 -200h547z" />
    <glyph glyph-name="uni0436" unicode="&#x436;" horiz-adv-x="1675" 
d="M1232 560l332 -560h-240l-289 480h-50l-103 -480h-214l103 480h-55l-467 -480h-266l572 597l-285 492h224l256 -446h54l95 446h214l-95 -446h49l450 446h259z" />
    <glyph glyph-name="uni0437" unicode="&#x437;" horiz-adv-x="1120" 
d="M881 86q-136 -107 -340 -107q-182 0 -300 102q-120 103 -123 269h209q3 -82 66 -132q61 -48 157 -48q107 0 177 50q68 50 71 128q4 131 -189 131h-160l37 167h157q91 0 148 42q55 42 57 105q5 129 -167 129q-197 0 -274 -173h-208q57 168 186 263q134 98 320 98
q174 0 273 -77q98 -76 94 -204q-2 -90 -63 -158q-60 -69 -150 -86l-4 -17q170 -44 165 -216q-4 -160 -139 -266z" />
    <glyph glyph-name="uni0438" unicode="&#x438;" horiz-adv-x="1280" 
d="M97 0l231 1089h215l-163 -749h16l669 749h216l-231 -1089h-214l163 754h-16l-669 -754h-217z" />
    <glyph glyph-name="uni0439" unicode="&#x439;" horiz-adv-x="1280" 
d="M699 1582q-17 -84 18 -140q37 -59 118 -59q84 0 146 59q58 56 76 140h178q-32 -154 -136 -242q-111 -96 -283 -96q-157 0 -240 96q-82 96 -51 242h174zM97 0l231 1089h215l-163 -749h16l669 749h216l-231 -1089h-214l163 754h-16l-669 -754h-217z" />
    <glyph glyph-name="uni043A" unicode="&#x43a;" horiz-adv-x="1122" 
d="M656 567l354 -567h-248l-300 476h-45l-102 -476h-218l231 1089h218l-95 -442h45l463 442h261z" />
    <glyph glyph-name="uni043B" unicode="&#x43b;" horiz-adv-x="1215" 
d="M500 492q-79 -279 -172 -388q-99 -115 -272 -115q-40 0 -72 12l40 201q22 -8 56 -8q135 0 223 310l164 585h750l-231 -1089h-218l195 908h-342z" />
    <glyph glyph-name="uni043C" unicode="&#x43c;" horiz-adv-x="1582" 
d="M97 0l231 1089h269l182 -779h17l521 779h265l-230 -1089h-212l160 751h-19l-470 -707h-159l-167 707h-19l-160 -751h-209z" />
    <glyph glyph-name="uni043D" unicode="&#x43d;" horiz-adv-x="1258" 
d="M328 1089h218l-93 -436h494l94 436h218l-231 -1089h-218l101 472h-494l-102 -472h-218z" />
    <glyph glyph-name="uni043E" unicode="&#x43e;" horiz-adv-x="1262" 
d="M452 251q69 -80 187 -80q136 0 236 127q104 131 104 321q0 141 -66 221q-65 79 -180 79q-157 0 -254 -133q-94 -130 -94 -330q0 -127 67 -205zM285 107q-126 128 -126 334q0 283 159 472q166 197 431 197q206 0 332 -128q125 -128 125 -333q0 -279 -157 -469
q-165 -201 -431 -201q-206 0 -333 128z" />
    <glyph glyph-name="uni043F" unicode="&#x43f;" horiz-adv-x="1248" 
d="M995 908h-485l-195 -908h-218l231 1089h921l-231 -1089h-218z" />
    <glyph glyph-name="uni0440" unicode="&#x440;" horiz-adv-x="1294" 
d="M919 313q103 136 103 339q0 125 -64 195q-64 68 -176 68q-154 0 -261 -136q-107 -137 -107 -332q0 -126 68 -198q67 -72 181 -72q153 0 256 136zM21 -353l307 1442h208l-31 -150h16q127 168 343 168q165 0 273 -116q109 -119 109 -303q0 -301 -159 -504
q-159 -202 -394 -202q-117 0 -205 61q-86 59 -115 156h-16l-120 -552h-216z" />
    <glyph glyph-name="uni0441" unicode="&#x441;" horiz-adv-x="1189" 
d="M962 738q-11 76 -76 127q-66 52 -153 52q-162 0 -261 -130q-93 -123 -93 -307q0 -148 63 -227q64 -81 189 -81q175 0 260 175h219q-61 -170 -184 -266q-130 -102 -307 -102q-227 0 -345 132q-113 127 -113 361q0 263 154 445q163 192 423 192q186 0 309 -111
q115 -105 126 -260h-211z" />
    <glyph glyph-name="uni0442" unicode="&#x442;" horiz-adv-x="996" 
d="M1072 908h-337l-194 -908h-219l195 908h-337l36 181h892z" />
    <glyph glyph-name="uni0443" unicode="&#x443;" horiz-adv-x="1166" 
d="M34 -388l33 185q31 -9 95 -9q123 0 207 155l33 60l-164 1086h216l105 -842h17l448 842h233l-666 -1173q-97 -177 -197 -247q-94 -66 -237 -66q-57 0 -123 9z" />
    <glyph glyph-name="uni0444" unicode="&#x444;" horiz-adv-x="1615" 
d="M556 -353l71 334q-210 8 -341 132q-134 127 -134 333q0 283 186 466q196 192 528 196l73 341h214l-73 -341q211 -8 342 -132q134 -127 134 -333q0 -283 -186 -466q-196 -192 -528 -196l-72 -334h-214zM1254 841q-78 79 -212 82l-164 -757q211 8 337 144q118 126 118 309
q0 141 -79 222zM454 248q77 -79 212 -82l163 757q-211 -8 -337 -144q-118 -126 -118 -309q0 -141 80 -222z" />
    <glyph glyph-name="uni0445" unicode="&#x445;" horiz-adv-x="1137" 
d="M580 383l-316 -383h-246l476 550l-248 539h235l160 -382h17l313 382h248l-475 -545l248 -544h-226l-169 383h-17z" />
    <glyph glyph-name="uni0446" unicode="&#x446;" horiz-adv-x="1306" 
d="M927 -285l61 285h-891l231 1089h218l-195 -908h485l195 908h218l-195 -908h170l-97 -466h-200z" />
    <glyph glyph-name="uni0447" unicode="&#x447;" horiz-adv-x="1181" 
d="M761 0l102 478h-17q-130 -110 -281 -110q-175 0 -259 115q-85 116 -45 307l63 299h218l-63 -297q-25 -109 16 -168q41 -60 147 -60q157 0 265 124l85 401h218l-231 -1089h-218z" />
    <glyph glyph-name="uni0448" unicode="&#x448;" horiz-adv-x="1721" 
d="M328 1089h219l-194 -908h369l194 908h218l-194 -908h370l194 908h218l-231 -1089h-1394z" />
    <glyph glyph-name="uni0449" unicode="&#x449;" horiz-adv-x="1778" 
d="M1399 -285l61 285h-1363l231 1089h219l-194 -908h369l194 908h218l-194 -908h370l194 908h218l-194 -908h168l-97 -466h-200z" />
    <glyph glyph-name="uni044A" unicode="&#x44a;" horiz-adv-x="1265" 
d="M266 0l193 908h-284l36 181h503l-71 -334h199q162 0 258 -86q93 -83 93 -219q0 -196 -138 -322q-141 -128 -364 -128h-425zM607 575l-86 -394h190q117 0 192 72q71 70 71 171q0 71 -46 111q-47 40 -131 40h-190z" />
    <glyph glyph-name="uni044B" unicode="&#x44b;" horiz-adv-x="1510" 
d="M1293 1089h218l-231 -1089h-218zM438 575l-86 -394h187q117 0 192 72q72 70 72 171q0 71 -47 111t-131 40h-187zM328 1089h218l-71 -334h196q162 0 257 -86q93 -83 93 -219q0 -196 -138 -322q-141 -128 -364 -128h-422z" />
    <glyph glyph-name="uni044C" unicode="&#x44c;" horiz-adv-x="1093" 
d="M438 575l-86 -394h187q117 0 192 72q72 70 72 171q0 71 -47 111t-131 40h-187zM328 1089h218l-71 -334h196q162 0 257 -86q93 -83 93 -219q0 -196 -138 -322q-141 -128 -364 -128h-422z" />
    <glyph glyph-name="uni044D" unicode="&#x44d;" horiz-adv-x="1215" 
d="M191 738q55 174 184 272q132 100 319 100q205 0 327 -124q123 -125 123 -336q0 -289 -155 -476q-162 -195 -428 -195q-199 0 -313 106q-108 99 -115 262h211q7 -78 67 -126q61 -50 156 -50q132 0 224 86q88 82 115 219h-462l34 167h447q2 128 -66 201q-68 74 -188 74
q-186 0 -270 -180h-210z" />
    <glyph glyph-name="uni044E" unicode="&#x44e;" horiz-adv-x="1733" 
d="M750 100q-123 123 -127 325q0 15 2 47h-208l-102 -472h-218l231 1089h218l-93 -436h196q52 206 195 328q150 129 361 129q204 0 328 -129q123 -128 123 -337q0 -281 -153 -469q-163 -199 -427 -199q-202 0 -326 124zM1329 295q102 129 102 317q0 143 -65 225
q-66 82 -179 82q-154 0 -249 -134q-92 -130 -92 -329q0 -129 67 -207q68 -79 185 -79q133 0 231 125z" />
    <glyph glyph-name="uni044F" unicode="&#x44f;" horiz-adv-x="1132" 
d="M803 546l80 362h-191q-115 0 -188 -61q-71 -60 -71 -149q0 -71 47 -111q48 -41 132 -41h191zM768 373h-147l-343 -373h-267l387 415q-184 76 -184 272q0 170 128 282q137 120 370 120h425l-231 -1089h-218z" />
    <glyph glyph-name="uni0451" unicode="&#x451;" horiz-adv-x="1218" 
d="M289 99q-132 126 -132 341q0 299 161 485q159 185 413 185q184 0 304 -118q125 -124 126 -329q0 -78 -14 -170h-775q-1 -14 -1 -44q0 -140 80 -216q70 -66 176 -66q185 0 252 126h218q-36 -140 -162 -225q-132 -89 -322 -89q-199 0 -324 120zM945 651q3 18 3 43
q0 100 -59 164q-64 69 -172 69q-114 0 -200 -76q-84 -74 -119 -200h547zM475 1277q-38 38 -38 95t38 96q39 39 95 39q57 0 96 -39q38 -39 38 -96t-38 -95q-39 -39 -96 -39q-56 0 -95 39zM902 1277q-38 38 -38 95t38 96q39 39 95 39q57 0 96 -39q38 -39 38 -96t-38 -95
q-39 -39 -96 -39q-56 0 -95 39z" />
    <glyph glyph-name="uni0452" unicode="&#x452;" horiz-adv-x="1302" 
d="M539 937q130 173 341 173q146 0 240 -90q99 -93 99 -247q0 -57 -13 -115l-157 -735q-33 -158 -116 -233q-88 -78 -243 -78l-109 1l42 192l53 -1q129 0 159 137l146 685q8 38 10 78q2 100 -59 157q-58 55 -157 55q-114 0 -195 -66q-87 -72 -117 -207l-137 -643h-218
l273 1275h-158l29 139h158l21 96h215l-21 -96h230l-29 -139h-231l-73 -338h17z" />
    <glyph glyph-name="uni0453" unicode="&#x453;" horiz-adv-x="971" 
d="M885 1615h252l-354 -344h-222zM518 908l-195 -908h-218l231 1089h704l-36 -181h-486z" />
    <glyph glyph-name="uni0454" unicode="&#x454;" horiz-adv-x="1190" 
d="M1111 347q-61 -170 -184 -266q-130 -102 -307 -102q-227 0 -345 132q-114 127 -114 361q0 263 155 445q163 192 423 192q186 0 309 -111q115 -105 126 -260h-211q-11 76 -76 127q-66 52 -153 52q-127 0 -217 -78q-86 -73 -116 -193h465l-34 -167h-453q-2 -146 61 -225
q66 -82 192 -82q175 0 260 175h219z" />
    <glyph glyph-name="uni0455" unicode="&#x455;" horiz-adv-x="1106" 
d="M316 301q18 -66 79 -106q64 -42 156 -42q101 0 164 41q63 40 63 105q0 88 -127 129l-167 56q-254 85 -254 289q0 150 120 244q118 93 303 93q180 0 294 -85q112 -83 130 -224h-206q-14 62 -73 98t-147 36q-91 0 -150 -40q-59 -39 -59 -100q0 -85 141 -130l157 -54
q135 -44 196 -114q61 -69 61 -177q0 -150 -127 -245q-126 -96 -324 -96q-190 0 -313 89q-122 89 -132 233h215z" />
    <glyph glyph-name="uni0456" unicode="&#x456;" horiz-adv-x="566" 
d="M340 1089h218l-232 -1089h-219zM418 1318q-40 37 -40 92q0 56 40 94q39 39 99 39t100 -38q39 -37 39 -92q0 -56 -39 -94q-40 -39 -100 -39t-99 38z" />
    <glyph glyph-name="uni0457" unicode="&#x457;" horiz-adv-x="553" 
d="M356 1089h215l-231 -1089h-215zM214 1277q-38 38 -38 95t38 96q39 39 95 39q57 0 96 -39q38 -39 38 -96t-38 -95q-39 -39 -96 -39q-56 0 -95 39zM641 1277q-38 38 -38 95t38 96q39 39 95 39q57 0 96 -39q38 -39 38 -96t-38 -95q-39 -39 -96 -39q-56 0 -95 39z" />
    <glyph glyph-name="uni0458" unicode="&#x458;" horiz-adv-x="560" 
d="M306 -84q-64 -303 -367 -303q-57 0 -99 7l38 184q40 -4 57 -4q71 0 108 33q38 33 54 110l245 1146h215zM419 1318q-40 37 -40 92q0 56 40 94q39 39 99 39t100 -38q39 -37 39 -92q0 -56 -39 -94q-40 -39 -100 -39t-99 38z" />
    <glyph glyph-name="uni0459" unicode="&#x459;" horiz-adv-x="1762" 
d="M-16 1l40 201q22 -8 56 -8q135 0 223 307l164 588h750l-72 -334h196q162 0 258 -86q93 -83 93 -219q0 -196 -138 -322q-141 -128 -365 -128h-422l194 908h-340l-121 -416q-79 -280 -172 -389q-99 -114 -272 -114q-40 0 -72 12zM1109 575l-86 -394h187q116 0 191 72
q72 70 72 171q0 71 -47 111t-130 40h-187z" />
    <glyph glyph-name="uni045A" unicode="&#x45a;" horiz-adv-x="1805" 
d="M1250 179q113 0 186 57q69 54 69 131q0 134 -169 134h-203l-70 -322h187zM97 0l231 1089h218l-88 -411h493l88 411h218l-88 -410h206q162 0 257 -82q92 -78 92 -203q0 -169 -135 -280q-139 -114 -359 -114h-422l107 499h-493l-107 -499h-218z" />
    <glyph glyph-name="uni045B" unicode="&#x45b;" horiz-adv-x="1298" 
d="M536 926q124 183 337 183q154 0 251 -95q94 -92 94 -226q0 -57 -14 -127l-140 -661h-217l133 623q12 60 12 96q0 90 -60 143q-60 54 -162 54q-115 0 -200 -73q-82 -71 -107 -185l-140 -658h-217l273 1275h-156l29 139h156l21 96h217l-21 -96h228l-29 -139h-229l-76 -349
h17z" />
    <glyph glyph-name="uni045C" unicode="&#x45c;" horiz-adv-x="1123" 
d="M857 1271h-222l324 344h252zM656 567l354 -567h-248l-300 476h-45l-102 -476h-218l231 1089h218l-95 -442h45l463 442h261z" />
    <glyph glyph-name="uni045E" unicode="&#x45e;" horiz-adv-x="1166" 
d="M642 1582q-17 -84 18 -140q37 -59 118 -59q84 0 146 59q58 56 76 140h178q-32 -154 -136 -242q-111 -96 -283 -96q-157 0 -240 96q-82 96 -51 242h174zM34 -388l33 185q31 -9 95 -9q123 0 207 155l33 60l-164 1086h216l105 -842h17l448 842h233l-666 -1173
q-97 -177 -197 -247q-94 -66 -237 -66q-57 0 -123 9z" />
    <glyph glyph-name="uni045F" unicode="&#x45f;" horiz-adv-x="1248" 
d="M657 0l-61 -285h-199l61 285h-361l231 1089h218l-195 -908h485l195 908h218l-231 -1089h-361z" />
    <glyph glyph-name="uni0490" unicode="&#x490;" horiz-adv-x="1188" 
d="M352 0h-228l307 1443h683l60 285h209l-101 -489h-665z" />
    <glyph glyph-name="uni0491" unicode="&#x491;" horiz-adv-x="958" 
d="M510 908l-195 -908h-218l231 1089h505l60 285h200l-97 -466h-486z" />
    <glyph glyph-name="uni0E3F" unicode="&#xe3f;" horiz-adv-x="1359" 
d="M662 193q140 2 231 76q92 74 92 186q0 188 -224 202zM526 193l99 465h-161l-101 -465h163zM501 834h161l90 421h-160zM799 838q120 15 189 80q68 64 68 160q0 148 -169 172zM962 742q113 -22 182 -97q70 -78 70 -188q0 -200 -151 -328q-151 -129 -387 -129h-55l-30 -140
h-136l30 140h-385l307 1443h385l32 152h136l-33 -153q163 -10 259 -94q96 -85 96 -220q0 -139 -88 -241q-87 -102 -229 -128z" />
    <glyph glyph-name="uni1E00" unicode="&#x1e00;" horiz-adv-x="1424" 
d="M1012 383h-554l-215 -383h-237l836 1443h232l212 -1443h-224zM554 571h440l-82 608h-16zM413 -505q-69 68 -69 167t69 166q68 67 168 67t168 -67q69 -67 69 -166t-69 -167q-69 -67 -168 -67t-168 67zM664 -420q33 32 33 82q0 49 -33 81q-33 33 -83 33t-83 -33
q-33 -32 -33 -81q0 -50 33 -82q33 -33 83 -33t83 33z" />
    <glyph glyph-name="uni1E01" unicode="&#x1e01;" horiz-adv-x="1153" 
d="M701 225q85 63 107 159l25 112l-265 -12q-120 -5 -188 -52q-67 -46 -67 -122q0 -65 54 -107q53 -42 138 -42q110 0 196 64zM191 68q-94 85 -94 213q0 163 123 258q124 95 351 103l295 12l15 71q6 32 6 46q0 71 -57 112q-57 40 -157 40q-173 0 -222 -119h-215
q35 141 158 224q123 82 296 82q186 0 299 -85q113 -86 113 -227q0 -46 -9 -88l-150 -710h-209l30 139h-17q-115 -157 -321 -157q-141 0 -235 86zM305 -505q-69 68 -69 167t69 166q68 67 168 67t168 -67q69 -67 69 -166t-69 -167q-69 -67 -168 -67t-168 67zM556 -420
q33 32 33 82q0 49 -33 81q-33 33 -83 33t-83 -33q-33 -32 -33 -81q0 -50 33 -82q33 -33 83 -33t83 33z" />
    <glyph glyph-name="uni1E02" unicode="&#x1e02;" horiz-adv-x="1373" 
d="M814 1617q-39 39 -39 97t39 97q38 40 95 40t96 -40q38 -39 38 -97t-38 -97q-39 -40 -96 -40t-95 40zM114 0l307 1443h532q185 0 297 -86t112 -229q0 -139 -88 -241q-87 -102 -229 -128l-4 -17q118 -21 185 -97q68 -76 68 -188q0 -200 -156 -328q-156 -129 -398 -129h-626
zM517 834h277q150 0 245 68q94 68 94 176q0 177 -262 177h-262zM718 193q148 0 246 74q98 75 98 188q0 203 -274 203h-308l-101 -465h339z" />
    <glyph glyph-name="uni1E03" unicode="&#x1e03;" horiz-adv-x="1287" 
d="M487 1688q-39 39 -39 97t39 97q38 40 95 40t96 -40q38 -39 38 -97t-38 -97q-39 -40 -96 -40t-95 40zM487 43q-92 60 -123 156h-17l-43 -199h-208l322 1514h215l-121 -575h17q121 168 336 168q165 0 272 -116q108 -118 108 -303q0 -301 -159 -504q-159 -202 -392 -202
q-114 0 -207 61zM918 313q103 136 103 339q0 125 -64 195q-64 68 -176 68q-154 0 -261 -136q-107 -137 -107 -332q0 -126 68 -198q67 -72 182 -72q152 0 255 136z" />
    <glyph glyph-name="uni1E04" unicode="&#x1e04;" horiz-adv-x="1373" 
d="M424 -372q-38 37 -38 92t38 92t96 37q57 0 95 -37t38 -92t-38 -92t-95 -37q-58 0 -96 37zM114 0l307 1443h532q185 0 297 -86t112 -229q0 -139 -88 -241q-87 -102 -229 -128l-4 -17q118 -21 185 -97q68 -76 68 -188q0 -200 -156 -328q-156 -129 -398 -129h-626zM517 834
h277q150 0 245 68q94 68 94 176q0 177 -262 177h-262zM718 193q148 0 246 74q98 75 98 188q0 203 -274 203h-308l-101 -465h339z" />
    <glyph glyph-name="uni1E05" unicode="&#x1e05;" horiz-adv-x="1287" 
d="M435 -371q-38 37 -38 92t38 92t96 37q57 0 95 -37t38 -92t-38 -92t-95 -37q-58 0 -96 37zM487 43q-92 60 -123 156h-17l-43 -199h-208l322 1514h215l-121 -575h17q121 168 336 168q165 0 272 -116q108 -118 108 -303q0 -301 -159 -504q-159 -202 -392 -202
q-114 0 -207 61zM918 313q103 136 103 339q0 125 -64 195q-64 68 -176 68q-154 0 -261 -136q-107 -137 -107 -332q0 -126 68 -198q67 -72 182 -72q152 0 255 136z" />
    <glyph glyph-name="uni1E06" unicode="&#x1e06;" horiz-adv-x="1373" 
d="M114 0l307 1443h532q185 0 297 -86t112 -229q0 -139 -88 -241q-87 -102 -229 -128l-4 -17q118 -21 185 -97q68 -76 68 -188q0 -200 -156 -328q-156 -129 -398 -129h-626zM517 834h277q150 0 245 68q94 68 94 176q0 177 -262 177h-262zM718 193q148 0 246 74q98 75 98 188
q0 203 -274 203h-308l-101 -465h339zM152 -372l32 156h699l-32 -156h-699z" />
    <glyph glyph-name="uni1E07" unicode="&#x1e07;" horiz-adv-x="1287" 
d="M163 -371l32 156h699l-32 -156h-699zM487 43q-92 60 -123 156h-17l-43 -199h-208l322 1514h215l-121 -575h17q121 168 336 168q165 0 272 -116q108 -118 108 -303q0 -301 -159 -504q-159 -202 -392 -202q-114 0 -207 61zM918 313q103 136 103 339q0 125 -64 195
q-64 68 -176 68q-154 0 -261 -136q-107 -137 -107 -332q0 -126 68 -198q67 -72 182 -72q152 0 255 136z" />
    <glyph glyph-name="uni1E08" unicode="&#x1e08;" horiz-adv-x="1490" 
d="M1106 1584h-230l362 306h258zM1299 966q1 1 1 7q-10 134 -105 214q-96 80 -246 80q-222 0 -374 -198t-152 -489q0 -187 99 -296q98 -109 266 -109q138 0 244 66q107 66 145 175h229q-47 -190 -197 -309q-149 -119 -365 -139l-63 -99q172 -23 172 -160q0 -90 -71 -146
q-70 -56 -182 -56q-100 0 -179 36l25 119q63 -27 145 -27q99 0 99 64q0 67 -127 67h-54l14 102l65 101q-227 25 -361 183q-135 160 -135 408q0 398 220 659q219 259 553 259q239 0 399 -140q159 -140 159 -350q0 -14 -1 -22h-223z" />
    <glyph glyph-name="uni1E09" unicode="&#x1e09;" horiz-adv-x="1170" 
d="M890 1271h-222l324 344h252zM950 737q-7 80 -74 131q-66 50 -162 50q-150 0 -249 -131q-98 -130 -98 -325q0 -137 69 -215q66 -75 179 -75q198 0 257 165h215q-30 -152 -154 -249q-125 -100 -304 -108l-70 -111q172 -23 172 -160q0 -90 -71 -146q-70 -56 -182 -56
q-100 0 -179 36l25 119q63 -27 145 -27q99 0 99 64q0 67 -127 67h-54l14 102l80 123q-155 35 -244 153q-90 120 -90 295q0 289 164 480q165 191 419 191q170 0 291 -96q116 -93 137 -231q2 -14 4 -46h-212z" />
    <glyph glyph-name="uni1E0A" unicode="&#x1e0a;" horiz-adv-x="1504" 
d="M764 1617q-39 39 -39 97t39 97q38 40 95 40t96 -40q38 -39 38 -97t-38 -97q-39 -40 -96 -40t-95 40zM863 1443q291 0 453 -163q162 -162 162 -449q0 -358 -214 -595q-214 -236 -535 -236h-614l306 1443h442zM382 202h342q226 0 374 171q149 173 149 438q0 202 -110 316
t-308 114h-221z" />
    </font>
</defs>
</svg>
