<?xml version="1.0" standalone="no"?>
<!DOCTYPE svg PUBLIC "-//W3C//DTD SVG 1.1//EN" "http://www.w3.org/Graphics/SVG/1.1/DTD/svg11.dtd" >
<svg xmlns="http://www.w3.org/2000/svg" xmlns:xlink="http://www.w3.org/1999/xlink" version="1.1">
<metadata>
Created by FontForge 20170731 at Sat Jun 13 17:00:57 2015
 By Aleksey,,,
(c) 2015 Apple Inc. All rights reserved.
</metadata>
<defs>
<font id="SFUIText-Italic" horiz-adv-x="0" >
  <font-face 
    font-family="SF UI Text"
    font-weight="400"
    font-style="italic"
    font-stretch="normal"
    units-per-em="2048"
    panose-1="0 0 5 0 0 0 0 0 0 0"
    ascent="1638"
    descent="-410"
    x-height="1078"
    cap-height="1443"
    bbox="-534 -573 2926 2173"
    underline-thickness="50"
    underline-position="-175"
    slope="-12"
    unicode-range="U+0020-FB02"
  />
<missing-glyph horiz-adv-x="1293" 
d="M349 1365h1053l-290 -1365h-1053zM549 231q31 -28 80 -28q52 0 84 29q33 28 33 74t-31 74q-32 29 -83 29q-50 0 -82 -29q-32 -30 -32 -77q0 -44 31 -72zM625 908q9 57 50 90q40 33 100 33q62 0 101 -31t39 -80q0 -37 -28 -65q-29 -28 -122 -81q-93 -52 -131 -100
q-38 -47 -49 -121l-6 -42h150l7 39q7 43 34 68q26 26 118 79q189 106 189 232q0 106 -81 171q-82 64 -216 64q-132 0 -215 -69t-92 -187h152z" />
    <glyph glyph-name=".notdef" horiz-adv-x="1293" 
d="M349 1365h1053l-290 -1365h-1053zM549 231q31 -28 80 -28q52 0 84 29q33 28 33 74t-31 74q-32 29 -83 29q-50 0 -82 -29q-32 -30 -32 -77q0 -44 31 -72zM625 908q9 57 50 90q40 33 100 33q62 0 101 -31t39 -80q0 -37 -28 -65q-29 -28 -122 -81q-93 -52 -131 -100
q-38 -47 -49 -121l-6 -42h150l7 39q7 43 34 68q26 26 118 79q189 106 189 232q0 106 -81 171q-82 64 -216 64q-132 0 -215 -69t-92 -187h152z" />
    <glyph glyph-name="glyph1" 
 />
    <glyph glyph-name="glyph2" 
 />
    <glyph glyph-name="space" unicode=" " horiz-adv-x="578" 
 />
    <glyph glyph-name="exclam" unicode="!" horiz-adv-x="636" 
d="M662 1444l-222 -964h-166l188 964h200zM183 22q-39 39 -39 99t39 100q40 40 100 40t99 -40t39 -100t-39 -99q-39 -40 -99 -40t-100 40z" />
    <glyph glyph-name="quotedbl" unicode="&#x22;" horiz-adv-x="895" 
d="M310 904l115 539h160l-115 -539h-160zM687 904l115 539h160l-115 -539h-160z" />
    <glyph glyph-name="numbersign" unicode="#" horiz-adv-x="1296" 
d="M1114 901l-144 -344h212l-59 -144h-212l-172 -413h-152l173 413h-299l-172 -413h-151l172 413h-212l61 144h212l143 344h-212l59 143h212l167 399h151l-166 -399h298l167 399h152l-168 -399h212l-60 -143h-212zM519 554h301l145 349h-302z" />
    <glyph glyph-name="dollar" unicode="$" horiz-adv-x="1328" 
d="M702 129q144 1 228 73q81 70 81 181q0 84 -52 142q-47 53 -152 101zM819 1313q-126 0 -208 -68q-81 -68 -81 -168q0 -76 50 -130q44 -47 142 -91zM862 796q169 -73 250 -161q90 -98 90 -231q0 -197 -148 -319q-145 -119 -372 -119h-15l-23 -108h-134l27 126
q-158 38 -261 147q-106 112 -114 259h182q27 -191 227 -245l113 533l-51 21q-293 121 -293 367q0 179 137 293q141 117 367 117h10l26 124h134l-30 -142q147 -38 238 -146t93 -244h-181q-27 173 -185 226l-104 -491z" />
    <glyph glyph-name="percent" unicode="%" horiz-adv-x="1610" 
d="M475 1257q-56 -82 -56 -192q0 -75 33 -120q33 -46 88 -46q74 0 129 83q54 82 54 195q0 75 -32 119q-31 43 -86 43q-75 0 -130 -82zM129 0l1364 1443h188l-1362 -1443h-190zM335 851q-74 81 -74 215q0 167 102 284q103 118 248 118q121 0 195 -81q75 -82 75 -214
q0 -166 -102 -284q-103 -119 -247 -119q-122 0 -197 81zM1147 462q-56 -82 -56 -192q0 -75 33 -120q33 -46 88 -46q74 0 129 83q54 82 54 195q0 75 -32 119q-31 43 -86 43q-75 0 -130 -82zM1007 56q-74 81 -74 215q0 167 102 284q103 118 248 118q121 0 195 -81
q75 -82 75 -214q0 -166 -102 -284q-103 -119 -247 -119q-122 0 -197 81z" />
    <glyph glyph-name="ampersand" unicode="&#x26;" horiz-adv-x="1457" 
d="M708 885q152 46 231 130q70 73 70 159q0 73 -52 116q-51 43 -132 43q-91 0 -156 -63q-65 -64 -65 -154q0 -89 104 -231zM948 225l-322 487l-57 -21q-278 -102 -278 -303q0 -115 85 -188q87 -76 231 -76q203 0 341 101zM1032 96q-178 -123 -433 -123q-204 0 -345 116
q-143 117 -143 287q0 287 375 433l62 24q-116 170 -116 288q0 148 115 251q116 105 285 105q151 0 249 -82q99 -82 99 -207q0 -130 -94 -235q-102 -114 -301 -181l291 -427q120 136 137 363l4 54h168l-5 -61q-24 -293 -212 -493l139 -208h-213z" />
    <glyph glyph-name="quotesingle" unicode="'" horiz-adv-x="518" 
d="M310 904l115 539h160l-115 -539h-160z" />
    <glyph glyph-name="parenleft" unicode="(" horiz-adv-x="728" 
d="M304 -277q-113 245 -113 607q0 312 117 606q118 297 328 507h192q-462 -478 -462 -1116q0 -319 92 -604h-154z" />
    <glyph glyph-name="parenright" unicode=")" horiz-adv-x="728" 
d="M549 1443q113 -245 113 -607q0 -312 -116 -606q-118 -297 -328 -507h-192q461 477 461 1116q0 319 -92 604h154z" />
    <glyph glyph-name="asterisk" unicode="*" horiz-adv-x="1032" 
d="M708 920l-52 -323l-144 12l85 322l-309 -154l-46 135l319 121l-257 171l101 122l233 -202l53 325l144 -12l-85 -323l309 154l45 -134l-318 -121l256 -171l-100 -123z" />
    <glyph glyph-name="plus" unicode="+" horiz-adv-x="1328" 
d="M694 71h-152l93 435h-433l33 148h431l92 435h152l-92 -435h433l-33 -148h-431z" />
    <glyph glyph-name="comma" unicode="," horiz-adv-x="628" 
d="M49 -367l217 569h202l-269 -569h-150z" />
    <glyph glyph-name="hyphen" unicode="-" horiz-adv-x="966" 
d="M200 499l35 163h656l-35 -163h-656z" />
    <glyph glyph-name="period" unicode="." horiz-adv-x="608" 
d="M151 28q-38 39 -38 92q0 54 38 92q39 38 92 38q54 0 92 -38t38 -92q0 -53 -38 -92q-38 -38 -92 -38q-53 0 -92 38z" />
    <glyph glyph-name="slash" unicode="/" horiz-adv-x="712" 
d="M-69 -325l816 1768h154l-818 -1768h-152z" />
    <glyph glyph-name="zero" unicode="0" horiz-adv-x="1290" 
d="M318 108q-116 140 -116 374q0 422 194 711q191 284 463 284q195 0 312 -143q116 -143 116 -377q0 -424 -192 -710q-189 -281 -463 -281q-196 0 -314 142zM451 221q69 -97 194 -97q188 0 325 245t137 587q0 168 -68 265q-69 97 -191 97q-189 0 -327 -246
q-139 -247 -139 -587q0 -169 69 -264z" />
    <glyph glyph-name="one" unicode="1" horiz-adv-x="955" 
d="M705 1223h-16l-423 -262l44 206l443 276h179l-307 -1443h-180z" />
    <glyph glyph-name="two" unicode="2" horiz-adv-x="1237" 
d="M307 1067q21 182 159 296q139 114 338 114q185 0 309 -105t124 -261q0 -121 -84 -236q-83 -115 -321 -324l-426 -373l-4 -16h702l-34 -162h-970l29 139l615 545q191 170 250 247q58 77 58 160q0 99 -74 164t-187 65q-119 0 -203 -69t-104 -184v-1z" />
    <glyph glyph-name="three" unicode="3" horiz-adv-x="1284" 
d="M573 819h209q130 0 220 83q90 82 90 202q0 96 -74 156q-75 59 -195 59q-104 0 -190 -63q-86 -62 -115 -160h-177q37 172 173 276q137 105 325 105q190 0 315 -101t125 -253q0 -143 -90 -246t-240 -132l-3 -16q119 -26 183 -101t64 -189q0 -209 -152 -341t-393 -132
q-205 0 -345 112q-140 111 -141 274q0 10 2 32h174v-8q0 -112 90 -182q89 -71 231 -71q160 0 254 83q95 83 95 224q0 104 -87 170q-87 65 -224 65h-156z" />
    <glyph glyph-name="four" unicode="4" horiz-adv-x="1318" 
d="M823 299h-703l27 171q280 360 821 973h274l-209 -983h205l-34 -161h-205l-64 -299h-176zM338 459h520l173 817h-12q-316 -352 -679 -805z" />
    <glyph glyph-name="five" unicode="5" horiz-adv-x="1267" 
d="M312 80q-137 113 -137 278q0 14 2 28h178v-7q0 -113 84 -184q85 -71 219 -71q159 0 258 107q97 106 97 274q0 130 -84 208q-80 76 -207 76q-183 0 -292 -129h-178l244 783h796l-35 -161h-646l-133 -437l16 -2q110 97 273 97q180 0 304 -116q127 -119 127 -297
q0 -247 -147 -402q-151 -159 -399 -159q-202 0 -340 114z" />
    <glyph glyph-name="six" unicode="6" horiz-adv-x="1305" 
d="M1073 131q-162 -165 -400 -165q-218 0 -347 142t-129 383q0 375 170 666q187 320 515 320q191 0 319 -112t136 -286h-186q-10 109 -87 173q-77 65 -198 65q-166 0 -285 -144t-177 -414l16 -2q144 191 384 191q189 0 310 -115t121 -296q0 -242 -162 -406zM494 684
q-110 -110 -110 -269q0 -130 83 -209q82 -80 218 -80q152 0 258 113q105 113 105 277q0 124 -80 201t-207 77q-157 0 -267 -110z" />
    <glyph glyph-name="seven" unicode="7" horiz-adv-x="1167" 
d="M1066 1266l3 16h-737l35 161h925l-36 -167l-913 -1276h-197z" />
    <glyph glyph-name="eight" unicode="8" horiz-adv-x="1308" 
d="M1049 97q-156 -131 -395 -131q-223 0 -365 107q-143 106 -143 274q0 167 110 287q110 121 277 137l4 16q-181 87 -181 270q0 181 141 301q140 119 352 119q189 0 318 -100q128 -100 128 -248q0 -142 -87 -245q-88 -103 -231 -131l-4 -16q109 -41 170 -123q62 -82 62 -185
q0 -202 -156 -332zM436 593q-102 -88 -102 -222q0 -116 88 -183t240 -67q157 0 258 86q102 86 102 220q0 113 -91 183t-237 70q-156 0 -258 -87zM608 888q76 -60 198 -60q133 0 219 79q87 79 87 200q0 97 -76 156q-75 59 -199 59q-135 0 -220 -77t-85 -200q0 -97 76 -157z
" />
    <glyph glyph-name="nine" unicode="9" horiz-adv-x="1306" 
d="M996 760q110 111 110 270q0 130 -83 208q-82 79 -218 79q-152 0 -258 -112q-105 -113 -105 -276q0 -124 80 -202t207 -78q157 0 267 111zM417 1313q162 164 400 164q218 0 347 -141t129 -382q0 -379 -170 -670q-186 -318 -515 -318q-191 0 -319 111t-136 285h186
q10 -109 87 -172q77 -64 198 -64q166 0 285 144t177 414l-16 2q-144 -191 -384 -191q-189 0 -310 116t-121 297q0 241 162 405z" />
    <glyph glyph-name="colon" unicode=":" horiz-adv-x="608" 
d="M151 28q-38 39 -38 92q0 54 38 92q39 38 92 38q54 0 92 -38t38 -92q0 -53 -38 -92q-38 -38 -92 -38q-53 0 -92 38zM312 797q-38 39 -38 92q0 54 38 92q39 38 92 38q54 0 92 -38t38 -92q0 -53 -38 -92q-38 -38 -92 -38q-53 0 -92 38z" />
    <glyph glyph-name="semicolon" unicode=";" horiz-adv-x="608" 
d="M-24 -367l217 569h202l-269 -569h-150zM313 797q-38 39 -38 92q0 54 38 92q39 38 92 38q54 0 92 -38t38 -92q0 -53 -38 -92q-38 -38 -92 -38q-53 0 -92 38z" />
    <glyph glyph-name="less" unicode="&#x3c;" horiz-adv-x="1328" 
d="M1046 -21l-771 585l30 142l988 433l-40 -188l-790 -327l-3 -16l625 -445z" />
    <glyph glyph-name="equal" unicode="=" horiz-adv-x="1329" 
d="M166 312l32 149h1008l-32 -149h-1008zM248 700l32 149h1008l-32 -149h-1008z" />
    <glyph glyph-name="greater" unicode="&#x3e;" horiz-adv-x="1328" 
d="M398 1139l771 -585l-30 -142l-988 -433l40 188l790 327l3 16l-625 445z" />
    <glyph glyph-name="question" unicode="?" horiz-adv-x="1050" 
d="M246 1089q34 169 151 266q122 101 312 101q183 0 300 -97q114 -95 114 -233q0 -128 -82 -236q-79 -104 -208 -162q-108 -48 -153 -96q-47 -47 -61 -126l-11 -60h-179l18 82q27 122 90 191q56 61 178 116q217 101 217 272q0 80 -60 134q-65 58 -175 58q-102 0 -175 -55
q-73 -56 -102 -155h-174zM355 21q-39 39 -39 100t39 101q39 39 100 39t99 -39q39 -39 39 -101q0 -61 -39 -100q-38 -39 -99 -39t-100 39z" />
    <glyph glyph-name="at" unicode="@" horiz-adv-x="1880" 
d="M1706 1251q214 -187 214 -465q0 -277 -136 -468t-333 -191q-94 0 -155 49q-62 49 -62 123l1 16l-16 1q-79 -138 -244 -138q-142 0 -227 90t-85 240q0 215 118 363q119 147 292 147q88 0 158 -47t86 -116h16l26 124h157l-131 -603q-4 -21 -4 -31q0 -91 107 -91
q114 0 205 161q90 161 90 364q0 231 -177 382t-448 151q-325 0 -552 -236q-227 -237 -227 -576q0 -277 194 -446q194 -170 511 -170q142 0 215 25l-27 -126q-108 -25 -235 -25q-348 0 -572 204q-224 203 -224 520q0 413 265 685q264 271 667 271q318 0 533 -187zM1228 818
q-53 60 -141 60q-110 0 -186 -104t-76 -253q0 -94 50 -149t135 -55q112 0 192 101q80 100 80 241q0 98 -54 159z" />
    <glyph glyph-name="A" unicode="A" horiz-adv-x="1380" 
d="M1015 413h-579l-232 -413h-193l845 1443h167l226 -1443h-176zM522 566h473l-95 641h-16z" />
    <glyph glyph-name="B" unicode="B" horiz-adv-x="1346" 
d="M122 0l307 1443h501q185 0 295 -87q111 -86 111 -231q0 -136 -85 -237q-85 -100 -227 -131l-4 -16q116 -20 183 -96q66 -75 66 -187q0 -200 -157 -329q-156 -129 -400 -129h-590zM480 821h298q165 0 268 74t103 193q0 196 -288 196h-283zM706 159q159 0 266 81
q106 82 106 203q0 223 -296 223h-335l-108 -507h367z" />
    <glyph glyph-name="C" unicode="C" horiz-adv-x="1463" 
d="M1323 992v2q-11 145 -113 230q-102 86 -263 86q-236 0 -398 -212q-162 -213 -162 -525q0 -203 106 -322q106 -118 287 -118q146 0 258 68q112 67 151 179h190q-54 -193 -219 -303q-165 -111 -400 -111q-252 0 -406 161q-154 162 -154 427q0 399 217 661q216 262 544 262
q235 0 390 -136q155 -137 155 -343v-6h-183z" />
    <glyph glyph-name="D" unicode="D" horiz-adv-x="1486" 
d="M832 1443q299 0 465 -168q164 -167 164 -463q0 -347 -215 -580q-215 -232 -531 -232h-591l305 1443h403zM340 160h382q238 0 395 183q158 183 158 460q0 227 -120 353q-121 127 -337 127h-239z" />
    <glyph glyph-name="E" unicode="E" horiz-adv-x="1219" 
d="M1018 0h-896l307 1443h896l-35 -162h-711l-100 -463h675l-34 -160h-674l-106 -496h712z" />
    <glyph glyph-name="F" unicode="F" horiz-adv-x="1170" 
d="M122 0l307 1443h878l-35 -162h-693l-107 -496h637l-34 -160h-637l-131 -625h-185z" />
    <glyph glyph-name="G" unicode="G" horiz-adv-x="1525" 
d="M1448 540q-60 -280 -233 -427q-172 -147 -440 -147q-257 0 -416 164q-158 164 -158 432q0 397 216 656t545 259q225 0 377 -126q153 -126 167 -323q1 -8 1 -36h-183q-11 146 -112 232q-102 86 -264 86q-238 0 -399 -210q-161 -209 -161 -519q0 -208 111 -328t302 -120
q172 0 298 107q127 107 162 283l11 55h-400l34 158h584z" />
    <glyph glyph-name="H" unicode="H" horiz-adv-x="1522" 
d="M1093 0l140 657h-788l-140 -657h-183l307 1443h184l-133 -624h788l133 624h184l-307 -1443h-185z" />
    <glyph glyph-name="I" unicode="I" horiz-adv-x="550" 
d="M122 0l307 1443h184l-307 -1443h-184z" />
    <glyph glyph-name="J" unicode="J" horiz-adv-x="1102" 
d="M287 337q2 -94 62 -148q59 -54 161 -54q208 0 265 269l221 1039h179l-228 -1080q-41 -191 -157 -293q-118 -104 -302 -104q-174 0 -284 106q-109 107 -98 265h181z" />
    <glyph glyph-name="K" unicode="K" horiz-adv-x="1349" 
d="M122 0l307 1443h179l-149 -701h16l772 701h235l-702 -635l449 -808h-210l-381 697l-229 -204l-107 -493h-180z" />
    <glyph glyph-name="L" unicode="L" horiz-adv-x="1164" 
d="M1000 0h-878l307 1443h184l-273 -1281h694z" />
    <glyph glyph-name="M" unicode="M" horiz-adv-x="1792" 
d="M122 0l307 1443h200l242 -1194h16l746 1194h222l-307 -1443h-172l234 1102h-12l-685 -1092h-152l-221 1092h-12l-234 -1102h-172z" />
    <glyph glyph-name="N" unicode="N" horiz-adv-x="1520" 
d="M122 0l307 1443h177l534 -1153h16l245 1153h182l-307 -1443h-179l-533 1150h-16l-244 -1150h-182z" />
    <glyph glyph-name="O" unicode="O" horiz-adv-x="1579" 
d="M366 136q-166 169 -166 427q0 394 222 654t559 260q253 0 417 -169q165 -169 165 -428q0 -397 -220 -655q-220 -259 -557 -259q-253 0 -420 170zM1261 1186q-113 124 -294 124q-247 0 -412 -209q-165 -210 -165 -522q0 -200 113 -323t297 -123q248 0 411 207
q162 207 162 524q0 199 -112 322z" />
    <glyph glyph-name="P" unicode="P" horiz-adv-x="1304" 
d="M936 1443q177 0 293 -105q121 -110 121 -285q0 -246 -167 -395q-160 -143 -408 -143h-360l-109 -515h-184l307 1443h507zM449 675h315q182 0 288 94q110 97 110 268q0 116 -78 182q-78 64 -211 64h-294z" />
    <glyph glyph-name="Q" unicode="Q" horiz-adv-x="1579" 
d="M1104 -163l-85 164q-105 -35 -233 -35q-253 0 -419 169q-167 170 -167 428q0 394 223 654q222 260 558 260q252 0 417 -169t165 -428q0 -263 -103 -476t-287 -329l123 -238h-192zM941 151l-136 262h194l96 -186q131 95 205 263q73 168 73 374q0 199 -113 323
q-112 123 -293 123q-246 0 -411 -209q-166 -210 -166 -522q0 -200 114 -323q113 -123 296 -123q77 0 141 18z" />
    <glyph glyph-name="R" unicode="R" horiz-adv-x="1338" 
d="M429 1443h499q196 0 314 -104q117 -104 117 -278q0 -168 -105 -294q-106 -126 -282 -168l207 -599h-196l-188 571h-368l-121 -571h-184zM461 731h348q159 0 260 88q100 87 100 225q0 110 -66 174q-67 65 -180 65h-344z" />
    <glyph glyph-name="S" unicode="S" horiz-adv-x="1276" 
d="M300 400q26 -125 126 -198q101 -73 247 -73q149 0 242 71q92 70 92 185q0 89 -62 150q-61 61 -201 110l-137 48q-148 52 -229 149q-82 97 -82 221q0 178 145 296q146 118 364 118q206 0 348 -118t158 -302h-181q-28 122 -116 189q-89 68 -220 68q-134 0 -221 -66
q-87 -67 -87 -169q0 -150 232 -234l130 -47q350 -126 350 -390q0 -196 -151 -319q-150 -123 -389 -123q-222 0 -366 116q-145 116 -174 318h182z" />
    <glyph glyph-name="T" unicode="T" horiz-adv-x="1291" 
d="M493 0l272 1281h-463l34 162h1110l-34 -162h-463l-272 -1281h-184z" />
    <glyph glyph-name="U" unicode="U" horiz-adv-x="1524" 
d="M363 96q-127 122 -130 318q-1 60 13 130l188 899h184l-186 -887q-14 -68 -13 -133q6 -137 91 -212q90 -79 258 -79q162 0 277 95q117 97 152 264l203 952h184l-210 -987q-50 -236 -208 -360q-164 -130 -430 -130q-236 0 -373 130z" />
    <glyph glyph-name="V" unicode="V" horiz-adv-x="1380" 
d="M541 0l-226 1443h170l186 -1204h16l671 1204h199l-838 -1443h-178z" />
    <glyph glyph-name="W" unicode="W" horiz-adv-x="1982" 
d="M600 0h-177l-87 1443h165l58 -1173h12l572 1173h162l94 -1173h12l541 1173h186l-692 -1443h-177l-97 1139h-12z" />
    <glyph glyph-name="X" unicode="X" horiz-adv-x="1390" 
d="M685 752l-323 691h206l249 -574h16l508 574h205l-649 -727l332 -716h-194l-268 586h-16l-517 -586h-204z" />
    <glyph glyph-name="Y" unicode="Y" horiz-adv-x="1344" 
d="M520 0l132 621l-336 822h187l268 -649h16l526 649h207l-692 -848l-124 -595h-184z" />
    <glyph glyph-name="Z" unicode="Z" horiz-adv-x="1355" 
d="M110 128l1048 1137l4 16h-779l34 162h1022l-27 -128l-1045 -1137l-3 -16h820l-34 -162h-1067z" />
    <glyph glyph-name="bracketleft" unicode="[" horiz-adv-x="758" 
d="M892 1444l-29 -136h-284l-300 -1413h296l-29 -135h-464l358 1684h452z" />
    <glyph glyph-name="backslash" unicode="\" horiz-adv-x="712" 
d="M310 1443h144l64 -1768h-142z" />
    <glyph glyph-name="bracketright" unicode="]" horiz-adv-x="758" 
d="M453 -240h-452l29 136h284l300 1413h-296l29 134h464z" />
    <glyph glyph-name="asciicircum" unicode="^" horiz-adv-x="828" 
d="M336 815h-169l396 609h184l138 -609h-161l-88 463h-16z" />
    <glyph glyph-name="underscore" unicode="_" horiz-adv-x="916" 
d="M-120 -235l27 128h936l-27 -128h-936z" />
    <glyph glyph-name="grave" unicode="`" horiz-adv-x="1094" 
d="M799 1263l-206 338h214l180 -338h-188z" />
    <glyph glyph-name="a" unicode="a" horiz-adv-x="1126" 
d="M703 202q93 71 117 181l27 124l-287 -14q-132 -7 -205 -58q-73 -52 -73 -137q0 -74 58 -121t149 -47q121 0 214 72zM200 67q-95 86 -95 212q0 159 120 251q121 92 345 102l306 14l16 73q6 33 6 51q0 82 -61 127q-61 46 -170 46q-186 0 -239 -135h-182q36 133 153 211
q118 78 282 78q178 0 285 -82q107 -83 107 -220q0 -43 -9 -88l-150 -707h-167l30 141h-16q-121 -160 -326 -160q-141 0 -235 86z" />
    <glyph glyph-name="b" unicode="b" horiz-adv-x="1259" 
d="M459 42q-93 62 -125 157h-16l-44 -199h-165l320 1506h172l-120 -575h16q123 166 338 166q163 0 272 -118q110 -119 110 -299q0 -295 -159 -497q-160 -202 -393 -202q-112 0 -206 61zM927 284q110 148 110 370q0 136 -68 212q-69 76 -191 76q-167 0 -282 -147t-115 -361
q0 -137 73 -218q73 -80 198 -80q165 0 275 148z" />
    <glyph glyph-name="c" unicode="c" horiz-adv-x="1135" 
d="M966 748q-8 84 -81 139q-72 55 -175 55q-160 0 -267 -138t-107 -343q0 -150 73 -237q72 -86 197 -86q210 0 275 170h179q-33 -147 -162 -237t-307 -90q-197 0 -316 125q-120 125 -120 332q0 284 161 471q162 188 408 188q159 0 274 -85q114 -84 139 -217q3 -15 5 -47
h-176z" />
    <glyph glyph-name="d" unicode="d" horiz-adv-x="1265" 
d="M267 99q-115 123 -115 319q0 291 161 486q160 193 395 193q116 0 206 -61q88 -60 117 -157h16l133 627h175l-320 -1506h-166l31 147h-16q-127 -166 -340 -166q-166 0 -277 118zM879 283q113 147 113 361q0 137 -73 218q-73 80 -198 80q-166 0 -277 -140
q-112 -142 -112 -358q0 -137 74 -222q74 -86 193 -86q167 0 280 147z" />
    <glyph glyph-name="e" unicode="e" horiz-adv-x="1176" 
d="M285 97q-129 124 -129 335q0 297 157 482q156 183 404 183q174 0 288 -113q121 -120 122 -323q0 -86 -13 -162h-777q-2 -36 -2 -54q0 -154 86 -237q74 -70 184 -70q197 0 271 137h183q-34 -129 -155 -209q-127 -85 -310 -85q-188 0 -309 116zM945 638q2 12 2 45
q0 112 -62 184q-67 78 -184 78q-122 0 -214 -84q-89 -82 -127 -223h585z" />
    <glyph glyph-name="f" unicode="f" horiz-adv-x="741" 
d="M367 934h-179l30 144h179l20 105q31 165 122 239q89 74 253 74q62 0 121 -10l-29 -144q-40 9 -109 9q-150 0 -183 -173l-19 -100h245l-30 -144h-245l-194 -934h-176z" />
    <glyph glyph-name="g" unicode="g" horiz-adv-x="1247" 
d="M195 -321q-120 88 -130 215h183q12 -68 80 -111q74 -47 188 -47q272 0 329 242l47 200h-16q-116 -162 -326 -162q-167 0 -278 119q-114 122 -114 312q0 286 154 469q151 181 382 181q114 0 209 -61q96 -62 128 -157h16l42 199h167l-244 -1130q-36 -167 -168 -263
q-135 -98 -342 -98q-182 0 -307 92zM875 299q109 134 109 345q0 137 -75 218q-75 80 -202 80q-162 0 -265 -127q-104 -130 -104 -342q0 -143 71 -224t194 -81q165 0 272 131z" />
    <glyph glyph-name="h" unicode="h" horiz-adv-x="1236" 
d="M431 1506h175l-127 -589h16q126 180 333 180q153 0 252 -98q94 -93 94 -226q0 -56 -14 -124l-138 -649h-175l132 619q13 63 13 105q0 99 -63 158q-64 60 -174 60q-125 0 -216 -81q-88 -78 -115 -203l-140 -658h-175z" />
    <glyph glyph-name="i" unicode="i" horiz-adv-x="516" 
d="M340 1078h176l-231 -1078h-176zM413 1332q-35 36 -35 85q0 50 35 85q36 35 85 35q50 0 85 -35t35 -85q0 -49 -35 -85q-35 -35 -85 -35q-49 0 -85 35z" />
    <glyph glyph-name="j" unicode="j" horiz-adv-x="516" 
d="M262 -107q-32 -151 -116 -221q-83 -69 -229 -70q-44 0 -81 4l33 152q32 -3 53 -3q76 0 115 36t58 125l247 1162h172zM414 1332q-35 36 -35 85q0 50 35 85q36 35 85 35q50 0 85 -35t35 -85q0 -49 -35 -85q-35 -35 -85 -35q-49 0 -85 35z" />
    <glyph glyph-name="k" unicode="k" horiz-adv-x="1086" 
d="M980 1078h227l-565 -465l363 -613h-201l-301 516l-130 -94l-90 -422h-174l320 1506h174l-185 -870h16z" />
    <glyph glyph-name="l" unicode="l" horiz-adv-x="516" 
d="M429 1506h176l-320 -1506h-176z" />
    <glyph glyph-name="m" unicode="m" horiz-adv-x="1782" 
d="M328 1078h167l-35 -166h16q44 81 125 132q84 53 173 53q112 0 193 -61q73 -56 92 -136h16q123 197 346 197q132 0 218 -82q87 -84 87 -212q0 -56 -14 -124l-144 -679h-175l138 649q13 63 13 105q0 80 -50 133q-53 55 -142 55q-99 0 -178 -71q-83 -74 -109 -195l-144 -676
h-175l138 649q13 63 13 105q0 80 -50 133q-53 55 -142 55q-98 0 -178 -70q-83 -71 -107 -184l-146 -688h-175z" />
    <glyph glyph-name="n" unicode="n" horiz-adv-x="1218" 
d="M328 1078h167l-34 -161h16q126 180 337 180q151 0 249 -98q93 -93 93 -226q0 -56 -14 -124l-138 -649h-175l132 619q13 63 13 105q0 98 -62 158q-64 60 -171 60q-122 0 -213 -81q-87 -78 -114 -203l-140 -658h-175z" />
    <glyph glyph-name="o" unicode="o" horiz-adv-x="1212" 
d="M411 225q77 -89 206 -89q145 0 253 133q111 139 111 343q0 154 -72 242q-73 88 -199 88q-171 0 -273 -141q-100 -137 -100 -353q0 -137 74 -223zM276 106q-122 124 -122 321q0 283 151 472q160 198 421 198q197 0 319 -125q120 -123 120 -319q0 -277 -149 -467
q-161 -205 -421 -205q-197 0 -319 125z" />
    <glyph glyph-name="p" unicode="p" horiz-adv-x="1254" 
d="M922 284q110 148 110 370q0 136 -68 212q-69 76 -191 76q-167 0 -282 -147t-115 -361q0 -137 73 -218q73 -80 198 -80q165 0 275 148zM27 -360l306 1438h166l-31 -147h16q127 166 344 166q164 0 273 -118q111 -119 111 -299q0 -295 -159 -497q-160 -202 -393 -202
q-116 0 -206 61q-88 60 -117 157h-16l-121 -559h-173z" />
    <glyph glyph-name="q" unicode="q" horiz-adv-x="1251" 
d="M872 283q115 147 115 361q0 137 -73 218q-73 80 -198 80q-165 0 -275 -144q-110 -143 -110 -358q0 -144 68 -224q69 -80 191 -80q167 0 282 147zM781 -360l106 507h-16q-123 -166 -338 -166q-164 0 -272 122q-110 124 -110 311q0 288 159 486q160 197 393 197
q112 0 206 -61q93 -62 125 -157h16l42 199h167l-306 -1438h-172z" />
    <glyph glyph-name="r" unicode="r" horiz-adv-x="791" 
d="M320 1078h166l-29 -137h16q104 156 289 156q87 0 126 -15l-37 -165q-58 13 -136 13q-252 0 -315 -293l-135 -637h-174z" />
    <glyph glyph-name="s" unicode="s" horiz-adv-x="1052" 
d="M274 289q21 -73 86 -117q68 -46 167 -46q109 0 179 47t70 121q0 103 -135 146l-165 53q-250 81 -250 282q0 143 115 233q114 89 289 89q169 0 278 -81q105 -79 127 -214h-171q-17 70 -79 109q-64 40 -158 40q-99 0 -163 -45q-65 -45 -65 -115q0 -97 151 -146l146 -47
q135 -43 196 -113q61 -69 61 -178q0 -142 -123 -234t-311 -92q-177 0 -294 85q-116 85 -128 223h177z" />
    <glyph glyph-name="t" unicode="t" horiz-adv-x="744" 
d="M298 46q-73 58 -73 164q0 40 11 93l135 631h-181l30 144h182l55 269h175l-57 -269h250l-30 -144h-250l-123 -578q-12 -57 -12 -97q0 -116 136 -116q38 0 69 4l-31 -145q-58 -10 -101 -10q-117 0 -185 54z" />
    <glyph glyph-name="u" unicode="u" horiz-adv-x="1215" 
d="M996 0h-166l33 146h-16q-106 -165 -344 -165q-146 0 -239 90q-93 88 -93 223q0 67 15 140l135 644h175l-131 -619q-14 -68 -14 -121q0 -202 219 -202q128 0 223 83q93 81 120 211l138 648h174z" />
    <glyph glyph-name="v" unicode="v" horiz-adv-x="1110" 
d="M410 1078l126 -856h16l468 856h191l-622 -1078h-183l-169 1078h173z" />
    <glyph glyph-name="w" unicode="w" horiz-adv-x="1586" 
d="M1154 0h-175l-70 827h-16l-411 -827h-174l-72 1078h157l49 -853h16l411 853h175l57 -862h16l396 862h173z" />
    <glyph glyph-name="x" unicode="x" horiz-adv-x="1076" 
d="M561 405l-339 -405h-205l484 548l-258 530h188l179 -401h16l337 401h205l-481 -539l256 -539h-181l-185 405h-16z" />
    <glyph glyph-name="y" unicode="y" horiz-adv-x="1112" 
d="M39 -380l26 147q39 -13 102 -13q108 0 205 181l39 73l-175 1070h171l128 -857h16l472 857h189l-686 -1196q-91 -159 -177 -219q-77 -55 -192 -55q-37 0 -118 12z" />
    <glyph glyph-name="z" unicode="z" horiz-adv-x="1104" 
d="M103 126l764 792l3 16h-594l32 144h826l-29 -129l-758 -789l-3 -16h593l-31 -144h-830z" />
    <glyph glyph-name="braceleft" unicode="{" horiz-adv-x="823" 
d="M332 606q138 -32 138 -157q0 -32 -10 -84l-71 -334q-10 -50 -10 -80q0 -149 195 -149h45l-29 -136h-48q-152 0 -243 68q-90 66 -90 175q0 52 13 110l61 289q12 56 12 95q0 63 -35 90q-33 26 -110 26l41 191q100 0 149 47q48 47 74 166l59 275q69 324 462 324h50l-30 -141
h-45q-125 0 -191 -52t-91 -173l-63 -296q-47 -220 -230 -238z" />
    <glyph glyph-name="bar" unicode="|" horiz-adv-x="676" 
d="M134 -326l376 1769h148l-376 -1769h-148z" />
    <glyph glyph-name="braceright" unicode="}" horiz-adv-x="824" 
d="M623 582q-138 32 -138 157q0 32 10 84l71 334q10 50 10 80q0 149 -195 149h-45l29 136h48q152 0 243 -67q90 -67 90 -176q0 -52 -13 -110l-61 -289q-12 -55 -12 -95q0 -63 35 -90q33 -26 110 -26l-41 -191q-100 0 -149 -47q-48 -47 -74 -166l-59 -275q-69 -324 -462 -324
h-50l30 141h45q125 0 191 52t91 173l63 296q47 220 230 238z" />
    <glyph glyph-name="asciitilde" unicode="~" horiz-adv-x="1202" 
d="M509 626q-65 72 -72 78q-39 36 -75 36q-106 0 -136 -167h-171q18 155 109 245q85 84 203 84q111 0 214 -114q64 -71 72 -78q39 -36 75 -36q108 0 138 167h171q-18 -155 -109 -245q-85 -84 -203 -84q-112 0 -216 114z" />
    <glyph glyph-name="uni00A0" unicode="&#xa0;" horiz-adv-x="578" 
 />
    <glyph glyph-name="exclamdown" unicode="&#xa1;" horiz-adv-x="636" 
d="M86 -342l222 964h166l-188 -964h-200zM565 1080q39 -39 39 -99t-39 -100q-40 -40 -100 -40t-99 40t-39 100t39 99q39 40 99 40t100 -40z" />
    <glyph glyph-name="cent" unicode="&#xa2;" horiz-adv-x="1328" 
d="M1187 504q-31 -139 -149 -228q-117 -88 -282 -98l-38 -178h-172l41 194q-141 39 -223 156q-82 119 -82 288q0 275 152 461q152 185 388 197l31 147h172l-35 -165q109 -32 182 -106q73 -76 92 -177q4 -29 5 -47h-176q-8 84 -81 139q-72 55 -175 55q-160 0 -267 -138
t-107 -343q0 -151 73 -239t197 -88q210 0 275 170h179z" />
    <glyph glyph-name="sterling" unicode="&#xa3;" horiz-adv-x="1328" 
d="M1155 0h-1062l32 152q140 24 252 127q132 122 132 289q0 30 -5 85h-314l30 144h269q-10 116 -10 171q0 240 136 370q145 139 432 139q210 0 342 -65l-35 -158q-111 64 -312 64q-174 0 -271 -78q-102 -83 -102 -240q0 -73 11 -203h428l-30 -144h-389q2 -40 2 -57
q0 -335 -271 -426l-3 -16h771z" />
    <glyph glyph-name="currency" unicode="&#xa4;" horiz-adv-x="1328" 
d="M523 470q77 -78 186 -78t186 78q78 77 78 186t-78 186q-77 78 -186 78t-186 -78q-78 -77 -78 -186t78 -186zM1050 847q50 -89 50 -191q0 -142 -93 -253l109 -138l-123 -98l-110 139q-82 -41 -174 -41q-143 0 -252 93l-239 -198l-87 110l236 196q-49 90 -49 190
q0 143 93 252l-111 140l123 98l111 -141q81 42 175 42q142 0 252 -92l237 196l87 -110z" />
    <glyph glyph-name="yen" unicode="&#xa5;" horiz-adv-x="1328" 
d="M752 269l-55 -269h-185l57 269h-278l29 136h278l35 166h-278l29 136h225l-301 736h187l268 -649h16l526 649h207l-601 -736h207l-29 -136h-274l-35 -166h274l-29 -136h-273z" />
    <glyph glyph-name="brokenbar" unicode="&#xa6;" horiz-adv-x="676" 
d="M368 774l142 669h148l-142 -669h-148zM134 -326l142 669h148l-142 -669h-148z" />
    <glyph glyph-name="section" unicode="&#xa7;" horiz-adv-x="1032" 
d="M591 373q100 17 159 74q60 57 60 137q0 110 -125 156l-86 31q-103 -9 -171 -66q-70 -59 -70 -142q0 -103 141 -156zM180 -172q-115 87 -124 223h177q18 -73 78 -117q63 -46 155 -46q102 0 166 47q63 47 63 121q0 100 -125 146l-145 53q-240 88 -240 284q0 108 74 185
q72 76 191 100l4 18q-154 91 -154 239q0 142 109 230q107 86 275 86q161 0 265 -83q101 -79 120 -212h-171q-14 67 -72 108q-59 41 -145 41q-91 0 -150 -45q-58 -45 -58 -115q0 -93 141 -146l126 -47q126 -47 184 -109q63 -67 63 -172t-68 -186q-71 -85 -192 -114l-3 -12
q148 -91 148 -240q0 -141 -117 -232q-116 -90 -297 -90q-165 0 -278 85z" />
    <glyph glyph-name="dieresis" unicode="&#xa8;" horiz-adv-x="1094" 
d="M492 1298q-35 36 -35 86t35 86q36 35 86 35t86 -35q35 -36 35 -86t-35 -86q-36 -35 -86 -35t-86 35zM896 1298q-35 36 -35 86t35 86q36 35 86 35t86 -35q35 -36 35 -86t-35 -86q-36 -35 -86 -35t-86 35z" />
    <glyph glyph-name="copyright" unicode="&#xa9;" horiz-adv-x="1742" 
d="M379 33q-212 203 -212 495q0 385 255 640t640 255q311 0 520 -200q209 -199 209 -497q0 -386 -255 -642q-255 -255 -641 -255q-304 0 -516 204zM1434 183q213 214 213 525q0 248 -171 412q-171 163 -430 163q-308 0 -522 -214q-213 -213 -213 -523q0 -245 173 -411
t428 -166q309 0 522 214zM1208 795q-6 63 -60 105q-55 41 -132 41q-120 0 -200 -103q-81 -104 -81 -258q0 -113 55 -179q54 -66 148 -66q157 0 206 127h134q-25 -110 -121 -178q-97 -67 -230 -67q-147 0 -237 95t-90 251q0 213 121 354q121 140 305 140q135 0 220 -71
t94 -191h-132z" />
    <glyph glyph-name="ordfeminine" unicode="&#xaa;" horiz-adv-x="942" 
d="M571 949q-104 -5 -163 -46q-58 -40 -58 -107q0 -58 46 -95t119 -37q96 0 170 55q74 56 93 142l21 99zM262 599q-79 71 -79 177q0 134 102 211q103 78 291 85l249 11l13 60q5 31 4 40q1 64 -48 101q-49 36 -135 36q-148 0 -191 -107h-168q29 114 130 181t242 67
q153 0 245 -70t92 -186q0 -42 -7 -73l-126 -591h-160l25 117h-14q-97 -130 -270 -130q-117 0 -195 71z" />
    <glyph glyph-name="guillemotleft" unicode="&#xab;" horiz-adv-x="1390" 
d="M891 553l-3 -16l248 -392h-190l-262 416l2 8l439 416h219zM413 553l-3 -16l248 -392h-190l-262 416l2 8l439 416h219z" />
    <glyph glyph-name="logicalnot" unicode="&#xac;" horiz-adv-x="1328" 
d="M1104 126h-148l81 380h-800l31 148h948z" />
    <glyph glyph-name="registered" unicode="&#xae;" horiz-adv-x="1261" 
d="M496 655l106 499h241q65 0 110 -40q43 -39 43 -93q0 -69 -42 -115q-41 -44 -109 -55l96 -196h-120l-90 183h-98l-39 -183h-98zM651 922h124q109 0 109 83q0 60 -76 60h-127zM388 1258q152 151 370 151q219 0 371 -151q151 -152 151 -371q0 -218 -151 -370
q-152 -152 -371 -152q-218 0 -370 152t-152 370q0 219 152 371zM1055 1184q-121 121 -297 121q-175 0 -296 -121q-122 -122 -122 -297t120 -296q121 -122 295 -122q176 0 298 122q123 121 123 296q0 176 -121 297z" />
    <glyph glyph-name="macron" unicode="&#xaf;" horiz-adv-x="1094" 
d="M422 1286l29 136h674l-29 -136h-674z" />
    <glyph glyph-name="degree" unicode="&#xb0;" horiz-adv-x="820" 
d="M400 992q-82 83 -82 202t82 202q83 83 202 83t202 -83t83 -202q0 -118 -83 -202q-83 -83 -202 -83t-202 83zM714 1084q46 46 46 110q0 65 -46 111t-112 46q-63 0 -110 -46t-47 -111q0 -63 47 -110q47 -46 110 -46q66 0 112 46z" />
    <glyph glyph-name="plusminus" unicode="&#xb1;" horiz-adv-x="1328" 
d="M118 112l31 148h1018l-31 -148h-1018zM758 371h-152l62 291h-433l29 136h433l63 291h152l-63 -291h433l-29 -136h-433z" />
    <glyph glyph-name="uni00B2" unicode="&#xb2;" horiz-adv-x="855" 
d="M365 1547q11 122 106 201q96 79 235 79q128 0 213 -69q84 -69 84 -173q0 -80 -55 -152t-217 -203l-212 -178l-2 -11h403l-30 -141h-646l27 126l356 297q126 104 165 151q38 47 38 95q0 53 -39 86q-38 34 -99 34q-62 0 -108 -38q-45 -38 -57 -101v-3h-162z" />
    <glyph glyph-name="uni00B3" unicode="&#xb3;" horiz-adv-x="867" 
d="M571 1429h123q73 0 121 41t48 104q0 52 -40 84t-105 32q-57 0 -102 -32t-61 -85h-161q24 116 116 185t222 69q131 0 216 -66t85 -167q0 -88 -60 -153q-59 -65 -152 -79l-1 -11q156 -34 156 -186q0 -126 -100 -207q-100 -82 -255 -82q-156 0 -251 83t-79 206h165
q0 -66 46 -106q46 -41 122 -41q81 0 130 43q50 44 50 115q0 55 -45 89q-45 35 -115 35h-99z" />
    <glyph glyph-name="acute" unicode="&#xb4;" horiz-adv-x="1094" 
d="M842 1601h220l-350 -338h-194z" />
    <glyph glyph-name="paragraph" unicode="&#xb6;" horiz-adv-x="1321" 
d="M593 -220l169 795q-181 0 -297 105q-116 106 -116 270q0 218 162 355q161 138 416 138h200l-354 -1663h-180zM1274 1443h180l-354 -1663h-180z" />
    <glyph glyph-name="periodcentered" unicode="&#xb7;" horiz-adv-x="630" 
d="M310 637q-40 40 -40 102t40 102t102 40q61 0 101 -40q39 -40 39 -102t-39 -102q-40 -40 -101 -40q-62 0 -102 40z" />
    <glyph glyph-name="cedilla" unicode="&#xb8;" horiz-adv-x="1094" 
d="M293 -143l113 182h141l-111 -179q179 -20 179 -156q0 -85 -69 -140q-70 -55 -178 -55q-95 0 -175 36l23 108q65 -28 147 -28q104 0 104 70q0 72 -134 72h-53z" />
    <glyph glyph-name="uni00B9" unicode="&#xb9;" horiz-adv-x="680" 
d="M603 1625h-11l-256 -155l36 169l270 164h173l-192 -903h-174z" />
    <glyph glyph-name="ordmasculine" unicode="&#xba;" horiz-adv-x="1024" 
d="M487 1208q-85 -107 -85 -267q0 -130 58 -204t161 -74q125 0 212 112t87 274q0 123 -59 195q-59 71 -160 71q-128 0 -214 -107zM327 624q-102 109 -102 294q0 232 143 388q143 157 354 157q173 0 274 -108t101 -293q0 -231 -143 -389q-142 -158 -351 -158q-173 0 -276 109
z" />
    <glyph glyph-name="guillemotright" unicode="&#xbb;" horiz-adv-x="1393" 
d="M372 985h190l262 -416l-2 -8l-439 -416h-219l453 432l3 16zM853 985h190l262 -416l-2 -8l-439 -416h-219l453 432l3 16z" />
    <glyph glyph-name="onequarter" unicode="&#xbc;" horiz-adv-x="2046" 
d="M1472 1443h173l-944 -1443h-173zM1657 166h-443l28 156q164 216 484 581h254l-127 -596h120l-30 -141h-120l-35 -166h-166zM1402 303h288l98 465h-9q-180 -204 -375 -456zM615 1265h-11l-256 -155l36 169l270 164h173l-192 -903h-174z" />
    <glyph glyph-name="onehalf" unicode="&#xbd;" horiz-adv-x="2036" 
d="M1386 647q11 122 106 201q96 79 235 79q128 0 213 -69q84 -69 84 -173q0 -80 -55 -152t-217 -203l-212 -178l-2 -11h403l-30 -141h-646l27 126l356 297q126 104 165 151q38 47 38 95q0 53 -39 86q-38 34 -99 34q-62 0 -108 -38q-45 -38 -57 -101v-3h-162zM615 1265h-11
l-256 -155l36 169l270 164h173l-192 -903h-174zM1472 1443h173l-944 -1443h-173z" />
    <glyph glyph-name="threequarters" unicode="&#xbe;" horiz-adv-x="2182" 
d="M1622 1443h173l-944 -1443h-173zM1807 166h-443l28 156q163 216 484 581h254l-127 -596h120l-30 -141h-120l-35 -166h-166zM1552 303h288l98 465h-9q-180 -204 -375 -456zM494 1069h123q73 0 121 41t48 104q0 52 -40 84t-105 32q-57 0 -102 -32t-61 -85h-161
q24 116 116 185t222 69q131 0 216 -66t85 -167q0 -88 -60 -153q-59 -65 -152 -79l-1 -11q156 -34 156 -186q0 -126 -100 -207q-100 -82 -255 -82q-156 0 -251 83t-79 206h165q0 -66 46 -106q46 -41 122 -41q81 0 130 43q50 44 50 115q0 55 -45 89q-45 35 -115 35h-99z" />
    <glyph glyph-name="questiondown" unicode="&#xbf;" horiz-adv-x="1049" 
d="M807 1081q39 -39 39 -100t-39 -101q-39 -39 -100 -39t-99 39q-39 39 -39 101q0 61 39 100q38 39 99 39t100 -39zM916 13q-34 -169 -151 -266q-122 -101 -312 -101q-183 0 -300 98q-114 94 -114 232q0 128 82 237q79 103 208 161q108 48 154 96q46 47 60 126l11 60h179
l-18 -82q-27 -122 -90 -191q-56 -61 -178 -116q-217 -101 -217 -272q0 -80 60 -133q65 -59 175 -59q102 0 175 56q73 55 102 154h174z" />
    <glyph glyph-name="Agrave" unicode="&#xc0;" horiz-adv-x="1380" 
d="M1015 413h-579l-232 -413h-193l845 1443h167l226 -1443h-176zM522 566h473l-95 641h-16zM1049 1575h-184l-206 298h206z" />
    <glyph glyph-name="Aacute" unicode="&#xc1;" horiz-adv-x="1380" 
d="M1015 413h-579l-232 -413h-193l845 1443h167l226 -1443h-176zM522 566h473l-95 641h-16zM1250 1873h226l-395 -298h-204z" />
    <glyph glyph-name="Acircumflex" unicode="&#xc2;" horiz-adv-x="1380" 
d="M1015 413h-579l-232 -413h-193l845 1443h167l226 -1443h-176zM522 566h473l-95 641h-16zM1304 1575h-185l-105 186h-16l-183 -186h-207l310 298h202z" />
    <glyph glyph-name="Atilde" unicode="&#xc3;" horiz-adv-x="1380" 
d="M1015 413h-579l-232 -413h-193l845 1443h167l226 -1443h-176zM522 566h473l-95 641h-16zM970 1657q-87 81 -122 81q-89 0 -114 -118h-142q20 118 92 187q71 66 167 66q93 0 180 -81q87 -82 122 -82q90 0 115 118h142q-20 -118 -92 -186q-71 -67 -167 -67q-94 0 -181 82z
" />
    <glyph glyph-name="Adieresis" unicode="&#xc4;" horiz-adv-x="1380" 
d="M1015 413h-579l-232 -413h-193l845 1443h167l226 -1443h-176zM522 566h473l-95 641h-16zM705 1610q-35 36 -35 86t35 86q36 35 86 35t86 -35q35 -36 35 -86t-35 -86q-36 -35 -86 -35t-86 35zM1109 1610q-35 36 -35 86t35 86q36 35 86 35t86 -35q35 -36 35 -86t-35 -86
q-36 -35 -86 -35t-86 35z" />
    <glyph glyph-name="Aring" unicode="&#xc5;" horiz-adv-x="1380" 
d="M1015 413h-579l-232 -413h-193l845 1443h167l226 -1443h-176zM522 566h473l-95 641h-16zM851 1637q-68 67 -68 163t68 163q68 66 164 66t164 -66q68 -67 68 -163t-68 -163q-68 -66 -164 -66t-164 66zM1102 1712q35 35 35 88t-35 88t-87 35t-87 -35t-35 -88t35 -88t87 -35
t87 35z" />
    <glyph glyph-name="AE" unicode="&#xc6;" horiz-adv-x="1966" 
d="M1060 1292l-455 -680h457l145 680h-147zM1030 459h-527l-307 -459h-187l958 1443h1110l-35 -162h-658l-100 -473h621l-34 -160h-621l-104 -486h658l-34 -162h-838z" />
    <glyph glyph-name="Ccedilla" unicode="&#xc7;" horiz-adv-x="1466" 
d="M1323 992v2q-11 145 -113 230q-102 86 -263 86q-236 0 -398 -212q-162 -213 -162 -525q0 -203 106 -322q106 -118 287 -118q146 0 258 68q112 67 151 179h190q-49 -177 -194 -286q-145 -108 -352 -125l-68 -109q179 -20 179 -156q0 -85 -69 -140q-70 -55 -178 -55
q-95 0 -175 36l23 108q65 -28 147 -28q104 0 104 70q0 72 -134 72h-53l13 90l70 112q-224 23 -358 180q-134 159 -134 405q0 399 217 661q216 262 544 262q235 0 390 -136q155 -137 155 -343v-6h-183z" />
    <glyph glyph-name="Egrave" unicode="&#xc8;" horiz-adv-x="1219" 
d="M1018 0h-896l307 1443h896l-35 -162h-711l-100 -463h675l-34 -160h-674l-106 -496h712zM986 1575h-184l-206 298h206z" />
    <glyph glyph-name="Eacute" unicode="&#xc9;" horiz-adv-x="1219" 
d="M1018 0h-896l307 1443h896l-35 -162h-711l-100 -463h675l-34 -160h-674l-106 -496h712zM1187 1873h226l-395 -298h-204z" />
    <glyph glyph-name="Ecircumflex" unicode="&#xca;" horiz-adv-x="1219" 
d="M1018 0h-896l307 1443h896l-35 -162h-711l-100 -463h675l-34 -160h-674l-106 -496h712zM1241 1575h-185l-105 186h-16l-183 -186h-207l310 298h202z" />
    <glyph glyph-name="Edieresis" unicode="&#xcb;" horiz-adv-x="1219" 
d="M1018 0h-896l307 1443h896l-35 -162h-711l-100 -463h675l-34 -160h-674l-106 -496h712zM642 1610q-35 36 -35 86t35 86q36 35 86 35t86 -35q35 -36 35 -86t-35 -86q-36 -35 -86 -35t-86 35zM1046 1610q-35 36 -35 86t35 86q36 35 86 35t86 -35q35 -36 35 -86t-35 -86
q-36 -35 -86 -35t-86 35z" />
    <glyph glyph-name="Igrave" unicode="&#xcc;" horiz-adv-x="550" 
d="M122 0l307 1443h184l-307 -1443h-184zM631 1575h-184l-206 298h206z" />
    <glyph glyph-name="Iacute" unicode="&#xcd;" horiz-adv-x="550" 
d="M122 0l307 1443h184l-307 -1443h-184zM832 1873h226l-395 -298h-204z" />
    <glyph glyph-name="Icircumflex" unicode="&#xce;" horiz-adv-x="550" 
d="M122 0l307 1443h184l-307 -1443h-184zM886 1575h-185l-105 186h-16l-183 -186h-207l310 298h202z" />
    <glyph glyph-name="Idieresis" unicode="&#xcf;" horiz-adv-x="550" 
d="M122 0l307 1443h184l-307 -1443h-184zM287 1610q-35 36 -35 86t35 86q36 35 86 35t86 -35q35 -36 35 -86t-35 -86q-36 -35 -86 -35t-86 35zM691 1610q-35 36 -35 86t35 86q36 35 86 35t86 -35q35 -36 35 -86t-35 -86q-36 -35 -86 -35t-86 35z" />
    <glyph glyph-name="Eth" unicode="&#xd0;" horiz-adv-x="1486" 
d="M722 160q238 0 395 183q158 183 158 460q0 227 -120 353q-121 127 -337 127h-239l-97 -457h202l-35 -163h-202l-107 -503h382zM832 1443q299 0 465 -168q164 -167 164 -463q0 -347 -215 -580q-215 -232 -531 -232h-591l140 663h-201l35 163h201l130 617h403z" />
    <glyph glyph-name="Ntilde" unicode="&#xd1;" horiz-adv-x="1520" 
d="M122 0l307 1443h177l534 -1153h16l245 1153h182l-307 -1443h-179l-533 1150h-16l-244 -1150h-182zM1046 1657q-87 81 -122 81q-89 0 -114 -118h-142q20 118 92 187q71 66 167 66q93 0 180 -81q87 -82 122 -82q90 0 115 118h142q-20 -118 -92 -186q-71 -67 -167 -67
q-94 0 -181 82z" />
    <glyph glyph-name="Ograve" unicode="&#xd2;" horiz-adv-x="1579" 
d="M366 136q-166 169 -166 427q0 394 222 654t559 260q253 0 417 -169q165 -169 165 -428q0 -397 -220 -655q-220 -259 -557 -259q-253 0 -420 170zM1261 1186q-113 124 -294 124q-247 0 -412 -209q-165 -210 -165 -522q0 -200 113 -323t297 -123q248 0 411 207
q162 207 162 524q0 199 -112 322zM1086 1573h-184l-206 298h206z" />
    <glyph glyph-name="Oacute" unicode="&#xd3;" horiz-adv-x="1579" 
d="M366 136q-166 169 -166 427q0 394 222 654t559 260q253 0 417 -169q165 -169 165 -428q0 -397 -220 -655q-220 -259 -557 -259q-253 0 -420 170zM1261 1186q-113 124 -294 124q-247 0 -412 -209q-165 -210 -165 -522q0 -200 113 -323t297 -123q248 0 411 207
q162 207 162 524q0 199 -112 322zM1287 1871h226l-395 -298h-204z" />
    <glyph glyph-name="Ocircumflex" unicode="&#xd4;" horiz-adv-x="1579" 
d="M366 136q-166 169 -166 427q0 394 222 654t559 260q253 0 417 -169q165 -169 165 -428q0 -397 -220 -655q-220 -259 -557 -259q-253 0 -420 170zM1261 1186q-113 124 -294 124q-247 0 -412 -209q-165 -210 -165 -522q0 -200 113 -323t297 -123q248 0 411 207
q162 207 162 524q0 199 -112 322zM1341 1573h-185l-105 186h-16l-183 -186h-207l310 298h202z" />
    <glyph glyph-name="Otilde" unicode="&#xd5;" horiz-adv-x="1579" 
d="M366 136q-166 169 -166 427q0 394 222 654t559 260q253 0 417 -169q165 -169 165 -428q0 -397 -220 -655q-220 -259 -557 -259q-253 0 -420 170zM1261 1186q-113 124 -294 124q-247 0 -412 -209q-165 -210 -165 -522q0 -200 113 -323t297 -123q248 0 411 207
q162 207 162 524q0 199 -112 322zM1007 1655q-87 81 -122 81q-89 0 -114 -118h-142q20 118 92 187q71 66 167 66q93 0 180 -81q87 -82 122 -82q90 0 115 118h142q-20 -118 -92 -186q-71 -67 -167 -67q-94 0 -181 82z" />
    <glyph glyph-name="Odieresis" unicode="&#xd6;" horiz-adv-x="1579" 
d="M366 136q-166 169 -166 427q0 394 222 654t559 260q253 0 417 -169q165 -169 165 -428q0 -397 -220 -655q-220 -259 -557 -259q-253 0 -420 170zM1261 1186q-113 124 -294 124q-247 0 -412 -209q-165 -210 -165 -522q0 -200 113 -323t297 -123q248 0 411 207
q162 207 162 524q0 199 -112 322zM742 1608q-35 36 -35 86t35 86q36 35 86 35t86 -35q35 -36 35 -86t-35 -86q-36 -35 -86 -35t-86 35zM1146 1608q-35 36 -35 86t35 86q36 35 86 35t86 -35q35 -36 35 -86t-35 -86q-36 -35 -86 -35t-86 35z" />
    <glyph glyph-name="multiply" unicode="&#xd7;" horiz-adv-x="1328" 
d="M710 467l-373 -307l-94 116l373 308l-238 304l126 104l239 -303l373 307l94 -116l-372 -308l233 -300l-126 -104z" />
    <glyph glyph-name="Oslash" unicode="&#xd8;" horiz-adv-x="1551" 
d="M557 208q103 -75 243 -75q248 0 411 207q162 207 162 524q0 175 -88 294zM1197 1242q-97 68 -230 68q-247 0 -412 -209q-165 -210 -165 -522q0 -165 79 -280zM1399 1307q164 -169 164 -427q0 -397 -220 -655q-220 -259 -557 -259q-190 0 -338 101l-87 -114l-100 76
l93 120q-154 167 -154 414q0 394 222 654t559 260q182 0 325 -93l81 104l98 -69z" />
    <glyph glyph-name="Ugrave" unicode="&#xd9;" horiz-adv-x="1524" 
d="M363 96q-127 122 -130 318q-1 60 13 130l188 899h184l-186 -887q-14 -68 -13 -133q6 -137 91 -212q90 -79 258 -79q162 0 277 95q117 97 152 264l203 952h184l-210 -987q-50 -236 -208 -360q-164 -130 -430 -130q-236 0 -373 130zM1118 1575h-184l-206 298h206z" />
    <glyph glyph-name="Uacute" unicode="&#xda;" horiz-adv-x="1524" 
d="M363 96q-127 122 -130 318q-1 60 13 130l188 899h184l-186 -887q-14 -68 -13 -133q6 -137 91 -212q90 -79 258 -79q162 0 277 95q117 97 152 264l203 952h184l-210 -987q-50 -236 -208 -360q-164 -130 -430 -130q-236 0 -373 130zM1319 1873h226l-395 -298h-204z" />
    <glyph glyph-name="Ucircumflex" unicode="&#xdb;" horiz-adv-x="1524" 
d="M363 96q-127 122 -130 318q-1 60 13 130l188 899h184l-186 -887q-14 -68 -13 -133q6 -137 91 -212q90 -79 258 -79q162 0 277 95q117 97 152 264l203 952h184l-210 -987q-50 -236 -208 -360q-164 -130 -430 -130q-236 0 -373 130zM1373 1575h-185l-105 186h-16l-183 -186
h-207l310 298h202z" />
    <glyph glyph-name="Udieresis" unicode="&#xdc;" horiz-adv-x="1524" 
d="M363 96q-127 122 -130 318q-1 60 13 130l188 899h184l-186 -887q-14 -68 -13 -133q6 -137 91 -212q90 -79 258 -79q162 0 277 95q117 97 152 264l203 952h184l-210 -987q-50 -236 -208 -360q-164 -130 -430 -130q-236 0 -373 130zM775 1610q-36 36 -36 86t36 86
q35 35 85 35q51 0 86 -35q35 -36 35 -86t-35 -86q-35 -35 -86 -35q-50 0 -85 35zM1179 1610q-36 36 -36 86t36 86q35 35 85 35q51 0 86 -35q35 -36 35 -86t-35 -86q-35 -35 -86 -35q-50 0 -85 35z" />
    <glyph glyph-name="Yacute" unicode="&#xdd;" horiz-adv-x="1344" 
d="M520 0l132 621l-336 822h187l268 -649h16l526 649h207l-692 -848l-124 -595h-184zM1228 1873h226l-395 -298h-204z" />
    <glyph glyph-name="Thorn" unicode="&#xde;" horiz-adv-x="1280" 
d="M430 1443h179l-57 -266h332q171 0 278 -99q108 -99 108 -257q0 -212 -152 -342q-153 -130 -401 -130h-340l-74 -349h-180zM411 509h295q178 0 277 78t99 218q0 99 -65 155q-68 57 -194 57h-304z" />
    <glyph glyph-name="germandbls" unicode="&#xdf;" horiz-adv-x="1338" 
d="M164 0l228 1072q35 166 156 259q121 94 299 94q170 0 283 -93q113 -92 113 -232t-92 -235q-92 -96 -238 -109l-4 -18q146 -15 231 -98q86 -83 86 -209q0 -194 -142 -322q-143 -127 -361 -127q-119 0 -208 34l33 152q80 -32 184 -32q134 0 228 84t94 205q0 106 -82 169
q-83 63 -220 63h-71l36 170h79q113 0 193 71t80 171q0 91 -64 147t-168 56q-109 0 -183 -65q-73 -66 -99 -186l-217 -1021h-174z" />
    <glyph glyph-name="agrave" unicode="&#xe0;" horiz-adv-x="1126" 
d="M703 202q93 71 117 181l27 124l-287 -14q-132 -7 -205 -58q-73 -52 -73 -137q0 -74 58 -121t149 -47q121 0 214 72zM200 67q-95 86 -95 212q0 159 120 251q121 92 345 102l306 14l16 73q6 33 6 51q0 82 -61 127q-61 46 -170 46q-186 0 -239 -135h-182q36 133 153 211
q118 78 282 78q178 0 285 -82q107 -83 107 -220q0 -43 -9 -88l-150 -707h-167l30 141h-16q-121 -160 -326 -160q-141 0 -235 86zM608 1263l-206 338h214l180 -338h-188z" />
    <glyph glyph-name="aacute" unicode="&#xe1;" horiz-adv-x="1126" 
d="M703 202q93 71 117 181l27 124l-287 -14q-132 -7 -205 -58q-73 -52 -73 -137q0 -74 58 -121t149 -47q121 0 214 72zM200 67q-95 86 -95 212q0 159 120 251q121 92 345 102l306 14l16 73q6 33 6 51q0 82 -61 127q-61 46 -170 46q-186 0 -239 -135h-182q36 133 153 211
q118 78 282 78q178 0 285 -82q107 -83 107 -220q0 -43 -9 -88l-150 -707h-167l30 141h-16q-121 -160 -326 -160q-141 0 -235 86zM964 1601h220l-350 -338h-194z" />
    <glyph glyph-name="acircumflex" unicode="&#xe2;" horiz-adv-x="1126" 
d="M703 202q93 71 117 181l27 124l-287 -14q-132 -7 -205 -58q-73 -52 -73 -137q0 -74 58 -121t149 -47q121 0 214 72zM200 67q-95 86 -95 212q0 159 120 251q121 92 345 102l306 14l16 73q6 33 6 51q0 82 -61 127q-61 46 -170 46q-186 0 -239 -135h-182q36 133 153 211
q118 78 282 78q178 0 285 -82q107 -83 107 -220q0 -43 -9 -88l-150 -707h-167l30 141h-16q-121 -160 -326 -160q-141 0 -235 86zM1102 1228h-187l-129 227h-16l-225 -227h-209l354 340h202z" />
    <glyph glyph-name="atilde" unicode="&#xe3;" horiz-adv-x="1126" 
d="M703 202q93 71 117 181l27 124l-287 -14q-132 -7 -205 -58q-73 -52 -73 -137q0 -74 58 -121t149 -47q121 0 214 72zM200 67q-95 86 -95 212q0 159 120 251q121 92 345 102l306 14l16 73q6 33 6 51q0 82 -61 127q-61 46 -170 46q-186 0 -239 -135h-182q36 133 153 211
q118 78 282 78q178 0 285 -82q107 -83 107 -220q0 -43 -9 -88l-150 -707h-167l30 141h-16q-121 -160 -326 -160q-141 0 -235 86zM747 1309l-57 63q-31 29 -63 29q-88 0 -114 -139h-142q15 130 89 204q71 70 174 70q97 0 178 -92q50 -57 57 -63q31 -29 63 -29q89 0 115 139
h142q-15 -130 -89 -204q-71 -70 -174 -70q-98 0 -179 92z" />
    <glyph glyph-name="adieresis" unicode="&#xe4;" horiz-adv-x="1126" 
d="M703 202q93 71 117 181l27 124l-287 -14q-132 -7 -205 -58q-73 -52 -73 -137q0 -74 58 -121t149 -47q121 0 214 72zM200 67q-95 86 -95 212q0 159 120 251q121 92 345 102l306 14l16 73q6 33 6 51q0 82 -61 127q-61 46 -170 46q-186 0 -239 -135h-182q36 133 153 211
q118 78 282 78q178 0 285 -82q107 -83 107 -220q0 -43 -9 -88l-150 -707h-167l30 141h-16q-121 -160 -326 -160q-141 0 -235 86zM467 1263q-35 36 -35 86t35 86q36 35 86 35t86 -35q35 -36 35 -86t-35 -86q-36 -35 -86 -35t-86 35zM871 1263q-35 36 -35 86t35 86
q36 35 86 35t86 -35q35 -36 35 -86t-35 -86q-36 -35 -86 -35t-86 35z" />
    <glyph glyph-name="aring" unicode="&#xe5;" horiz-adv-x="1126" 
d="M703 202q93 71 117 181l27 124l-287 -14q-132 -7 -205 -58q-73 -52 -73 -137q0 -74 58 -121t149 -47q121 0 214 72zM200 67q-95 86 -95 212q0 159 120 251q121 92 345 102l306 14l16 73q6 33 6 51q0 82 -61 127q-61 46 -170 46q-186 0 -239 -135h-182q36 133 153 211
q118 78 282 78q178 0 285 -82q107 -83 107 -220q0 -43 -9 -88l-150 -707h-167l30 141h-16q-121 -160 -326 -160q-141 0 -235 86zM615 1294q-68 67 -68 163t68 163q68 66 164 66t164 -66q68 -67 68 -163t-68 -163q-68 -66 -164 -66t-164 66zM866 1369q35 35 35 88t-35 88
t-87 35t-87 -35t-35 -88t35 -88t87 -35t87 35z" />
    <glyph glyph-name="ae" unicode="&#xe6;" horiz-adv-x="1866" 
d="M1039 46q-109 66 -152 175h-15q-59 -102 -169 -168q-118 -72 -248 -72q-154 0 -253 86q-97 84 -97 212q0 160 120 252q121 91 345 101l306 14l16 73q6 33 6 51q0 82 -61 127q-61 46 -170 46q-186 0 -239 -135h-182q36 133 153 211q118 78 282 78q254 0 346 -168h16
q141 168 364 168q174 0 288 -113q121 -120 122 -323q0 -86 -13 -162h-777q-2 -36 -2 -56q0 -154 86 -236q73 -69 184 -69q197 0 271 137h183q-34 -129 -157 -209q-130 -85 -320 -85q-126 0 -233 65zM1635 638q2 12 2 45q0 112 -62 184q-67 78 -184 78q-122 0 -214 -84
q-89 -82 -127 -223h585zM703 202q93 71 117 181l27 124l-287 -14q-132 -7 -205 -58q-73 -52 -73 -137q0 -74 58 -121t149 -47q121 0 214 72z" />
    <glyph glyph-name="ccedilla" unicode="&#xe7;" horiz-adv-x="1146" 
d="M966 748q-8 84 -81 139q-72 55 -175 55q-160 0 -267 -138t-107 -343q0 -150 73 -237q72 -86 197 -86q210 0 275 170h179q-32 -144 -156 -233t-297 -94l-75 -121q179 -20 179 -156q0 -85 -69 -140q-70 -55 -178 -55q-95 0 -175 36l23 108q65 -28 147 -28q104 0 104 70
q0 72 -134 72h-53l13 90l85 137q-147 35 -233 152q-86 119 -86 292q0 284 161 471q162 188 408 188q159 0 274 -85q114 -84 139 -217q3 -15 5 -47h-176z" />
    <glyph glyph-name="egrave" unicode="&#xe8;" horiz-adv-x="1170" 
d="M285 97q-129 124 -129 335q0 297 157 482q156 183 404 183q174 0 288 -113q121 -120 122 -323q0 -86 -13 -162h-777q-2 -36 -2 -54q0 -154 86 -237q74 -70 184 -70q197 0 271 137h183q-34 -129 -155 -209q-127 -85 -310 -85q-188 0 -309 116zM945 638q2 12 2 45
q0 112 -62 184q-67 78 -184 78q-122 0 -214 -84q-89 -82 -127 -223h585zM619 1263l-206 338h214l180 -338h-188z" />
    <glyph glyph-name="eacute" unicode="&#xe9;" horiz-adv-x="1170" 
d="M285 97q-129 124 -129 335q0 297 157 482q156 183 404 183q174 0 288 -113q121 -120 122 -323q0 -86 -13 -162h-777q-2 -36 -2 -54q0 -154 86 -237q74 -70 184 -70q197 0 271 137h183q-34 -129 -155 -209q-127 -85 -310 -85q-188 0 -309 116zM945 638q2 12 2 45
q0 112 -62 184q-67 78 -184 78q-122 0 -214 -84q-89 -82 -127 -223h585zM975 1601h220l-350 -338h-194z" />
    <glyph glyph-name="ecircumflex" unicode="&#xea;" horiz-adv-x="1170" 
d="M285 97q-129 124 -129 335q0 297 157 482q156 183 404 183q174 0 288 -113q121 -120 122 -323q0 -86 -13 -162h-777q-2 -36 -2 -54q0 -154 86 -237q74 -70 184 -70q197 0 271 137h183q-34 -129 -155 -209q-127 -85 -310 -85q-188 0 -309 116zM945 638q2 12 2 45
q0 112 -62 184q-67 78 -184 78q-122 0 -214 -84q-89 -82 -127 -223h585zM1113 1228h-187l-129 227h-16l-225 -227h-209l354 340h202z" />
    <glyph glyph-name="edieresis" unicode="&#xeb;" horiz-adv-x="1170" 
d="M285 97q-129 124 -129 335q0 297 157 482q156 183 404 183q174 0 288 -113q121 -120 122 -323q0 -86 -13 -162h-777q-2 -36 -2 -54q0 -154 86 -237q74 -70 184 -70q197 0 271 137h183q-34 -129 -155 -209q-127 -85 -310 -85q-188 0 -309 116zM945 638q2 12 2 45
q0 112 -62 184q-67 78 -184 78q-122 0 -214 -84q-89 -82 -127 -223h585zM478 1263q-35 36 -35 86t35 86q36 35 86 35t86 -35q35 -36 35 -86t-35 -86q-36 -35 -86 -35t-86 35zM882 1263q-35 36 -35 86t35 86q36 35 86 35t86 -35q35 -36 35 -86t-35 -86q-36 -35 -86 -35
t-86 35z" />
    <glyph glyph-name="igrave" unicode="&#xec;" horiz-adv-x="516" 
d="M340 1078h172l-229 -1078h-172zM336 1263l-206 338h214l180 -338h-188z" />
    <glyph glyph-name="iacute" unicode="&#xed;" horiz-adv-x="516" 
d="M340 1078h172l-229 -1078h-172zM692 1601h220l-350 -338h-194z" />
    <glyph glyph-name="icircumflex" unicode="&#xee;" horiz-adv-x="516" 
d="M340 1078h172l-229 -1078h-172zM830 1228h-187l-129 227h-16l-225 -227h-209l354 340h202z" />
    <glyph glyph-name="idieresis" unicode="&#xef;" horiz-adv-x="516" 
d="M340 1078h172l-229 -1078h-172zM195 1263q-35 36 -35 86t35 86q36 35 86 35t86 -35q35 -36 35 -86t-35 -86q-36 -35 -86 -35t-86 35zM599 1263q-35 36 -35 86t35 86q36 35 86 35t86 -35q35 -36 35 -86t-35 -86q-36 -35 -86 -35t-86 35z" />
    <glyph glyph-name="eth" unicode="&#xf0;" horiz-adv-x="1188" 
d="M265 102q-125 119 -125 301q0 279 150 469t375 190q115 0 212 -56q95 -56 130 -143l15 -1q-6 184 -112 385l-351 -106l-7 128l292 89q-36 52 -122 149h191q58 -69 81 -104l233 71l8 -128l-181 -55q119 -249 119 -494q0 -171 -39 -321q-61 -231 -204 -362
q-146 -133 -343 -133q-196 0 -322 121zM898 820q-83 83 -212 83q-156 0 -260 -134q-104 -135 -104 -335q0 -137 75 -217q76 -80 204 -80q148 0 263 143q116 143 116 327q0 130 -82 213z" />
    <glyph glyph-name="ntilde" unicode="&#xf1;" horiz-adv-x="1215" 
d="M328 1078h167l-34 -161h16q126 180 337 180q151 0 249 -98q93 -93 93 -226q0 -56 -14 -124l-138 -649h-175l132 619q13 63 13 105q0 98 -62 158q-64 60 -171 60q-122 0 -213 -81q-87 -78 -114 -203l-140 -658h-175zM830 1309l-57 63q-31 29 -63 29q-88 0 -114 -139h-142
q15 130 89 204q71 70 174 70q97 0 178 -92q50 -57 57 -63q31 -29 63 -29q89 0 115 139h142q-15 -130 -89 -204q-71 -70 -174 -70q-98 0 -179 92z" />
    <glyph glyph-name="ograve" unicode="&#xf2;" horiz-adv-x="1210" 
d="M411 225q77 -89 206 -89q145 0 253 133q111 139 111 343q0 154 -72 242q-73 88 -199 88q-171 0 -273 -141q-100 -137 -100 -353q0 -137 74 -223zM276 106q-122 124 -122 321q0 283 151 472q160 198 421 198q197 0 319 -125q120 -123 120 -319q0 -277 -149 -467
q-161 -205 -421 -205q-197 0 -319 125zM634 1263l-206 338h214l180 -338h-188z" />
    <glyph glyph-name="oacute" unicode="&#xf3;" horiz-adv-x="1210" 
d="M411 225q77 -89 206 -89q145 0 253 133q111 139 111 343q0 154 -72 242q-73 88 -199 88q-171 0 -273 -141q-100 -137 -100 -353q0 -137 74 -223zM276 106q-122 124 -122 321q0 283 151 472q160 198 421 198q197 0 319 -125q120 -123 120 -319q0 -277 -149 -467
q-161 -205 -421 -205q-197 0 -319 125zM990 1601h220l-350 -338h-194z" />
    <glyph glyph-name="ocircumflex" unicode="&#xf4;" horiz-adv-x="1210" 
d="M411 225q77 -89 206 -89q145 0 253 133q111 139 111 343q0 154 -72 242q-73 88 -199 88q-171 0 -273 -141q-100 -137 -100 -353q0 -137 74 -223zM276 106q-122 124 -122 321q0 283 151 472q160 198 421 198q197 0 319 -125q120 -123 120 -319q0 -277 -149 -467
q-161 -205 -421 -205q-197 0 -319 125zM1128 1228h-187l-129 227h-16l-225 -227h-209l354 340h202z" />
    <glyph glyph-name="otilde" unicode="&#xf5;" horiz-adv-x="1210" 
d="M411 225q77 -89 206 -89q145 0 253 133q111 139 111 343q0 154 -72 242q-73 88 -199 88q-171 0 -273 -141q-100 -137 -100 -353q0 -137 74 -223zM276 106q-122 124 -122 321q0 283 151 472q160 198 421 198q197 0 319 -125q120 -123 120 -319q0 -277 -149 -467
q-161 -205 -421 -205q-197 0 -319 125zM773 1309l-57 63q-31 29 -63 29q-88 0 -114 -139h-142q15 130 89 204q71 70 174 70q97 0 178 -92q50 -57 57 -63q31 -29 63 -29q89 0 115 139h142q-15 -130 -89 -204q-71 -70 -174 -70q-98 0 -179 92z" />
    <glyph glyph-name="odieresis" unicode="&#xf6;" horiz-adv-x="1210" 
d="M411 225q77 -89 206 -89q145 0 253 133q111 139 111 343q0 154 -72 242q-73 88 -199 88q-171 0 -273 -141q-100 -137 -100 -353q0 -137 74 -223zM276 106q-122 124 -122 321q0 283 151 472q160 198 421 198q197 0 319 -125q120 -123 120 -319q0 -277 -149 -467
q-161 -205 -421 -205q-197 0 -319 125zM493 1263q-35 36 -35 86t35 86q36 35 86 35t86 -35q35 -36 35 -86t-35 -86q-36 -35 -86 -35t-86 35zM897 1263q-35 36 -35 86t35 86q36 35 86 35t86 -35q35 -36 35 -86t-35 -86q-36 -35 -86 -35t-86 35z" />
    <glyph glyph-name="divide" unicode="&#xf7;" horiz-adv-x="1328" 
d="M202 506l31 148h1018l-31 -148h-1018zM705 847q-36 36 -36 90t36 90q36 35 90 35q53 0 89 -35q35 -36 35 -90t-35 -90q-35 -35 -89 -35t-90 35zM554 133q-36 36 -36 90t36 90q36 35 90 35q53 0 89 -35q35 -36 35 -90t-35 -90q-35 -35 -89 -35t-90 35z" />
    <glyph glyph-name="oslash" unicode="&#xf8;" horiz-adv-x="1212" 
d="M432 204q73 -68 185 -68q145 0 253 133q111 139 111 343q0 99 -31 173zM887 877q-70 65 -177 65q-171 0 -273 -141q-100 -137 -100 -353q0 -82 29 -151zM1080 931q85 -114 85 -278q0 -277 -149 -467q-161 -205 -421 -205q-165 0 -281 91l-97 -109l-89 69l108 121
q-82 115 -82 274q0 283 151 472q160 198 421 198q166 0 278 -89l99 110l86 -64z" />
    <glyph glyph-name="ugrave" unicode="&#xf9;" horiz-adv-x="1215" 
d="M996 0h-166l33 146h-16q-106 -165 -344 -165q-146 0 -239 90q-93 88 -93 223q0 67 15 140l135 644h175l-131 -619q-14 -68 -14 -121q0 -202 219 -202q128 0 223 83q93 81 120 211l138 648h174zM675 1263l-206 338h214l180 -338h-188z" />
    <glyph glyph-name="uacute" unicode="&#xfa;" horiz-adv-x="1215" 
d="M996 0h-166l33 146h-16q-106 -165 -344 -165q-146 0 -239 90q-93 88 -93 223q0 67 15 140l135 644h175l-131 -619q-14 -68 -14 -121q0 -202 219 -202q128 0 223 83q93 81 120 211l138 648h174zM1031 1601h220l-350 -338h-194z" />
    <glyph glyph-name="ucircumflex" unicode="&#xfb;" horiz-adv-x="1215" 
d="M996 0h-166l33 146h-16q-106 -165 -344 -165q-146 0 -239 90q-93 88 -93 223q0 67 15 140l135 644h175l-131 -619q-14 -68 -14 -121q0 -202 219 -202q128 0 223 83q93 81 120 211l138 648h174zM1169 1228h-187l-129 227h-16l-225 -227h-209l354 340h202z" />
    <glyph glyph-name="udieresis" unicode="&#xfc;" horiz-adv-x="1215" 
d="M996 0h-166l33 146h-16q-106 -165 -344 -165q-146 0 -239 90q-93 88 -93 223q0 67 15 140l135 644h175l-131 -619q-14 -68 -14 -121q0 -202 219 -202q128 0 223 83q93 81 120 211l138 648h174zM534 1263q-35 36 -35 86t35 86q36 35 86 35t86 -35q35 -36 35 -86t-35 -86
q-36 -35 -86 -35t-86 35zM938 1263q-35 36 -35 86t35 86q36 35 86 35t86 -35q35 -36 35 -86t-35 -86q-36 -35 -86 -35t-86 35z" />
    <glyph glyph-name="yacute" unicode="&#xfd;" horiz-adv-x="1112" 
d="M39 -380l26 147q39 -13 102 -13q108 0 205 181l39 73l-175 1070h171l128 -857h16l472 857h189l-686 -1196q-91 -159 -177 -219q-77 -55 -192 -55q-37 0 -118 12zM991 1601h220l-350 -338h-194z" />
    <glyph glyph-name="thorn" unicode="&#xfe;" horiz-adv-x="1260" 
d="M927 284q110 148 110 370q0 136 -68 212q-69 76 -191 76q-167 0 -282 -147t-115 -361q0 -137 73 -218q73 -80 198 -80q165 0 275 148zM205 -360h-173l397 1866h172l-120 -575h16q123 166 338 166q163 0 272 -118q110 -119 110 -299q0 -295 -159 -497q-160 -202 -393 -202
q-116 0 -206 61q-88 60 -117 157h-16z" />
    <glyph glyph-name="ydieresis" unicode="&#xff;" horiz-adv-x="1112" 
d="M39 -380l26 147q39 -13 102 -13q108 0 205 181l39 73l-175 1070h171l128 -857h16l472 857h189l-686 -1196q-91 -159 -177 -219q-77 -55 -192 -55q-37 0 -118 12zM494 1263q-35 36 -35 86t35 86q36 35 86 35t86 -35q35 -36 35 -86t-35 -86q-36 -35 -86 -35t-86 35z
M898 1263q-35 36 -35 86t35 86q36 35 86 35t86 -35q35 -36 35 -86t-35 -86q-36 -35 -86 -35t-86 35z" />
    <glyph glyph-name="Amacron" unicode="&#x100;" horiz-adv-x="1380" 
d="M1015 413h-579l-232 -413h-193l845 1443h167l226 -1443h-176zM522 566h473l-95 641h-16zM640 1620l29 136h674l-29 -136h-674z" />
    <glyph glyph-name="amacron" unicode="&#x101;" horiz-adv-x="1126" 
d="M703 202q93 71 117 181l27 124l-287 -14q-132 -7 -205 -58q-73 -52 -73 -137q0 -74 58 -121t149 -47q121 0 214 72zM200 67q-95 86 -95 212q0 159 120 251q121 92 345 102l306 14l16 73q6 33 6 51q0 82 -61 127q-61 46 -170 46q-186 0 -239 -135h-182q36 133 153 211
q118 78 282 78q178 0 285 -82q107 -83 107 -220q0 -43 -9 -88l-150 -707h-167l30 141h-16q-121 -160 -326 -160q-141 0 -235 86zM405 1286l29 136h674l-29 -136h-674z" />
    <glyph glyph-name="Abreve" unicode="&#x102;" horiz-adv-x="1380" 
d="M1015 413h-579l-232 -413h-193l845 1443h167l226 -1443h-176zM522 566h473l-95 641h-16zM639 1873h150v-13q0 -67 57 -112q56 -44 139 -44q84 0 142 45t78 124h154q-26 -137 -130 -218q-103 -80 -248 -80q-152 0 -247 80t-95 208v10z" />
    <glyph glyph-name="abreve" unicode="&#x103;" horiz-adv-x="1126" 
d="M703 202q93 71 117 181l27 124l-287 -14q-132 -7 -205 -58q-73 -52 -73 -137q0 -74 58 -121t149 -47q121 0 214 72zM200 67q-95 86 -95 212q0 159 120 251q121 92 345 102l306 14l16 73q6 33 6 51q0 82 -61 127q-61 46 -170 46q-186 0 -239 -135h-182q36 133 153 211
q118 78 282 78q178 0 285 -82q107 -83 107 -220q0 -43 -9 -88l-150 -707h-167l30 141h-16q-121 -160 -326 -160q-141 0 -235 86zM552 1556q-2 -16 -2 -31q0 -77 54 -123q53 -45 144 -45q208 0 237 199h156q-14 -148 -122 -237q-108 -91 -278 -91q-161 0 -254 82
q-89 79 -89 204q0 20 3 42h151z" />
    <glyph glyph-name="Aogonek" unicode="&#x104;" horiz-adv-x="1380" 
d="M522 566h473l-95 641h-16zM1197 -416q-39 -16 -96 -16q-103 0 -162 50q-58 49 -58 137q0 158 188 274l-54 384h-579l-232 -413h-193l845 1443h167l223 -1424q-197 -110 -197 -227q0 -90 103 -90q48 0 71 9z" />
    <glyph glyph-name="aogonek" unicode="&#x105;" horiz-adv-x="1126" 
d="M595 -367q-58 66 -36 169q28 128 193 211l25 128h-16q-120 -160 -326 -160q-140 0 -235 86q-95 85 -95 212q0 160 121 252q121 91 344 101l306 14l16 73q6 31 6 51q0 82 -61 127q-61 46 -170 46q-186 0 -239 -135h-182q36 133 153 211q118 78 282 78q178 0 285 -82
q107 -83 107 -220q0 -43 -9 -88l-146 -688q-172 -95 -194 -199q-11 -54 14 -86q26 -32 79 -32q54 0 78 9l-26 -127q-41 -16 -105 -16q-112 0 -169 65zM703 201q93 72 117 182l27 124l-287 -14q-131 -7 -205 -58q-73 -52 -73 -137q0 -74 58 -121t149 -47q121 0 214 71z" />
    <glyph glyph-name="Cacute" unicode="&#x106;" horiz-adv-x="1466" 
d="M1323 992v2q-11 145 -113 230q-102 86 -263 86q-236 0 -398 -212q-162 -213 -162 -525q0 -203 106 -322q106 -118 287 -118q146 0 258 68q112 67 151 179h190q-54 -193 -219 -303q-165 -111 -400 -111q-252 0 -406 161q-154 162 -154 427q0 399 217 661q216 262 544 262
q235 0 390 -136q155 -137 155 -343v-6h-183zM1266 1875h226l-395 -298h-204z" />
    <glyph glyph-name="cacute" unicode="&#x107;" horiz-adv-x="1146" 
d="M966 748q-8 84 -81 139q-72 55 -175 55q-160 0 -267 -138t-107 -343q0 -150 73 -237q72 -86 197 -86q210 0 275 170h179q-33 -147 -162 -237t-307 -90q-197 0 -316 125q-120 125 -120 332q0 284 161 471q162 188 408 188q159 0 274 -85q114 -84 139 -217q3 -15 5 -47
h-176zM1017 1601h220l-350 -338h-194z" />
    <glyph glyph-name="Ccircumflex" unicode="&#x108;" horiz-adv-x="1466" 
d="M1323 992v2q-11 145 -113 230q-102 86 -263 86q-236 0 -398 -212q-162 -213 -162 -525q0 -203 106 -322q106 -118 287 -118q146 0 258 68q112 67 151 179h190q-54 -193 -219 -303q-165 -111 -400 -111q-252 0 -406 161q-154 162 -154 427q0 399 217 661q216 262 544 262
q235 0 390 -136q155 -137 155 -343v-6h-183zM1320 1577h-185l-105 186h-16l-183 -186h-207l310 298h202z" />
    <glyph glyph-name="ccircumflex" unicode="&#x109;" horiz-adv-x="1146" 
d="M966 748q-8 84 -81 139q-72 55 -175 55q-160 0 -267 -138t-107 -343q0 -150 73 -237q72 -86 197 -86q210 0 275 170h179q-33 -147 -162 -237t-307 -90q-197 0 -316 125q-120 125 -120 332q0 284 161 471q162 188 408 188q159 0 274 -85q114 -84 139 -217q3 -15 5 -47
h-176zM1155 1228h-187l-129 227h-16l-225 -227h-209l354 340h202z" />
    <glyph glyph-name="Cdotaccent" unicode="&#x10a;" horiz-adv-x="1466" 
d="M1323 992v2q-11 145 -113 230q-102 86 -263 86q-236 0 -398 -212q-162 -213 -162 -525q0 -203 106 -322q106 -118 287 -118q146 0 258 68q112 67 151 179h190q-54 -193 -219 -303q-165 -111 -400 -111q-252 0 -406 161q-154 162 -154 427q0 399 217 661q216 262 544 262
q235 0 390 -136q155 -137 155 -343v-6h-183zM924 1612q-35 36 -35 86t35 86q36 35 86 35t86 -35q35 -36 35 -86t-35 -86q-36 -35 -86 -35t-86 35z" />
    <glyph glyph-name="cdotaccent" unicode="&#x10b;" horiz-adv-x="1146" 
d="M966 748q-8 84 -81 139q-72 55 -175 55q-160 0 -267 -138t-107 -343q0 -150 73 -237q72 -86 197 -86q210 0 275 170h179q-33 -147 -162 -237t-307 -90q-197 0 -316 125q-120 125 -120 332q0 284 161 471q162 188 408 188q159 0 274 -85q114 -84 139 -217q3 -15 5 -47
h-176zM733 1325q-38 38 -38 90t38 90q37 37 90 37t90 -37q38 -38 38 -90t-38 -90q-37 -38 -90 -38q-52 0 -90 38z" />
    <glyph glyph-name="Ccaron" unicode="&#x10c;" horiz-adv-x="1466" 
d="M1323 992v2q-11 145 -113 230q-102 86 -263 86q-236 0 -398 -212q-162 -213 -162 -525q0 -203 106 -322q106 -118 287 -118q146 0 258 68q112 67 151 179h190q-54 -193 -219 -303q-165 -111 -400 -111q-252 0 -406 161q-154 162 -154 427q0 399 217 661q216 262 544 262
q235 0 390 -136q155 -137 155 -343v-6h-183zM709 1875h185l105 -186h16l183 186h207l-310 -298h-202z" />
    <glyph glyph-name="ccaron" unicode="&#x10d;" horiz-adv-x="1146" 
d="M966 748q-8 84 -81 139q-72 55 -175 55q-160 0 -267 -138t-107 -343q0 -150 73 -237q72 -86 197 -86q210 0 275 170h179q-33 -147 -162 -237t-307 -90q-197 0 -316 125q-120 125 -120 332q0 284 161 471q162 188 408 188q159 0 274 -85q114 -84 139 -217q3 -15 5 -47
h-176zM695 1228l-210 340h185l129 -227h16l225 227h211l-354 -340h-202z" />
    <glyph glyph-name="Dcaron" unicode="&#x10e;" horiz-adv-x="1486" 
d="M832 1443q299 0 465 -168q164 -167 164 -463q0 -347 -215 -580q-215 -232 -531 -232h-591l305 1443h403zM340 160h382q238 0 395 183q158 183 158 460q0 227 -120 353q-121 127 -337 127h-239zM535 1873h185l105 -186h16l183 186h207l-310 -298h-202z" />
    <glyph glyph-name="dcaron" unicode="&#x10f;" horiz-adv-x="1357" 
d="M1646 1506l-154 -488h-120l104 488h170zM267 99q-115 123 -115 319q0 291 161 486q160 193 395 193q116 0 206 -61q88 -60 117 -157h16l133 627h175l-320 -1506h-166l31 147h-16q-127 -166 -340 -166q-166 0 -277 118zM879 283q113 147 113 361q0 137 -73 218
q-73 80 -198 80q-166 0 -277 -140q-112 -142 -112 -358q0 -137 74 -222q74 -86 193 -86q167 0 280 147z" />
    <glyph glyph-name="Dcroat" unicode="&#x110;" horiz-adv-x="1452" 
d="M722 160q238 0 395 183q158 183 158 460q0 227 -120 353q-121 127 -337 127h-239l-97 -457h200l-35 -163h-200l-107 -503h382zM832 1443q299 0 465 -168q164 -167 164 -463q0 -347 -215 -580q-215 -232 -531 -232h-591l140 663h-203l35 163h203l130 617h403z" />
    <glyph glyph-name="dcroat" unicode="&#x111;" horiz-adv-x="1258" 
d="M879 283q113 147 113 361q0 137 -73 218q-73 80 -198 80q-166 0 -277 -140q-112 -142 -112 -358q0 -137 74 -222q74 -86 193 -86q167 0 280 147zM1459 1287h-151l-273 -1287h-166l31 147h-16q-127 -166 -340 -166q-166 0 -277 118q-115 123 -115 319q0 291 161 486
q160 193 395 193q116 0 206 -61q88 -60 117 -157h16l87 408h-231l26 124h231l20 95h175l-20 -95h150z" />
    <glyph glyph-name="Emacron" unicode="&#x112;" horiz-adv-x="1219" 
d="M1018 0h-896l307 1443h896l-35 -162h-711l-100 -463h675l-34 -160h-674l-106 -496h712zM577 1620l29 136h674l-29 -136h-674z" />
    <glyph glyph-name="emacron" unicode="&#x113;" horiz-adv-x="1170" 
d="M285 97q-129 124 -129 335q0 297 157 482q156 183 404 183q174 0 288 -113q121 -120 122 -323q0 -86 -13 -162h-777q-2 -36 -2 -54q0 -154 86 -237q74 -70 184 -70q197 0 271 137h183q-34 -129 -155 -209q-127 -85 -310 -85q-188 0 -309 116zM945 638q2 12 2 45
q0 112 -62 184q-67 78 -184 78q-122 0 -214 -84q-89 -82 -127 -223h585zM416 1286l29 136h674l-29 -136h-674z" />
    <glyph glyph-name="Ebreve" unicode="&#x114;" horiz-adv-x="1219" 
d="M1018 0h-896l307 1443h896l-35 -162h-711l-100 -463h675l-34 -160h-674l-106 -496h712zM576 1873h150v-13q0 -67 57 -112q56 -44 139 -44q84 0 142 45t78 124h154q-26 -137 -130 -218q-103 -80 -248 -80q-152 0 -247 80t-95 208v10z" />
    <glyph glyph-name="ebreve" unicode="&#x115;" horiz-adv-x="1170" 
d="M285 97q-129 124 -129 335q0 297 157 482q156 183 404 183q174 0 288 -113q121 -120 122 -323q0 -86 -13 -162h-777q-2 -36 -2 -54q0 -154 86 -237q74 -70 184 -70q197 0 271 137h183q-34 -129 -155 -209q-127 -85 -310 -85q-188 0 -309 116zM945 638q2 12 2 45
q0 112 -62 184q-67 78 -184 78q-122 0 -214 -84q-89 -82 -127 -223h585zM563 1556q-2 -16 -2 -31q0 -77 54 -123q53 -45 144 -45q208 0 237 199h156q-14 -148 -122 -237q-108 -91 -278 -91q-161 0 -254 82q-89 79 -89 204q0 20 3 42h151z" />
    <glyph glyph-name="Edotaccent" unicode="&#x116;" horiz-adv-x="1219" 
d="M1018 0h-896l307 1443h896l-35 -162h-711l-100 -463h675l-34 -160h-674l-106 -496h712zM845 1610q-35 36 -35 86t35 86q36 35 86 35t86 -35q35 -36 35 -86t-35 -86q-36 -35 -86 -35t-86 35z" />
    <glyph glyph-name="edotaccent" unicode="&#x117;" horiz-adv-x="1170" 
d="M285 97q-129 124 -129 335q0 297 157 482q156 183 404 183q174 0 288 -113q121 -120 122 -323q0 -86 -13 -162h-777q-2 -36 -2 -54q0 -154 86 -237q74 -70 184 -70q197 0 271 137h183q-34 -129 -155 -209q-127 -85 -310 -85q-188 0 -309 116zM945 638q2 12 2 45
q0 112 -62 184q-67 78 -184 78q-122 0 -214 -84q-89 -82 -127 -223h585zM691 1325q-38 38 -38 90t38 90q37 37 90 37t90 -37q38 -38 38 -90t-38 -90q-37 -38 -90 -38q-52 0 -90 38z" />
    <glyph glyph-name="Eogonek" unicode="&#x118;" horiz-adv-x="1219" 
d="M671 -382q-58 49 -58 137q0 138 145 245h-636l307 1443h896l-35 -162h-711l-100 -463h675l-34 -160h-674l-106 -496h712l-29 -123q-242 -92 -242 -247q0 -41 28 -65q29 -25 75 -25q48 0 71 9l-26 -127q-39 -16 -96 -16q-103 0 -162 50z" />
    <glyph glyph-name="eogonek" unicode="&#x119;" horiz-adv-x="1176" 
d="M569 -379q-59 51 -59 130q0 118 100 214v16h-16q-197 0 -317 124q-121 125 -121 327q0 295 156 480t405 185q181 0 295 -121t115 -315q0 -90 -13 -162h-777l-2 -54q0 -139 74 -223t196 -84q197 0 271 137h183q-33 -120 -234 -266q-150 -108 -150 -214q0 -97 122 -97
q32 0 45 3l-26 -123q-23 -10 -80 -10q-104 0 -167 53zM945 638q2 12 2 45q0 118 -67 190q-68 72 -179 72q-120 0 -211 -82t-130 -225h585z" />
    <glyph glyph-name="Ecaron" unicode="&#x11a;" horiz-adv-x="1219" 
d="M1018 0h-896l307 1443h896l-35 -162h-711l-100 -463h675l-34 -160h-674l-106 -496h712zM630 1873h185l105 -186h16l183 186h207l-310 -298h-202z" />
    <glyph glyph-name="ecaron" unicode="&#x11b;" horiz-adv-x="1170" 
d="M285 97q-129 124 -129 335q0 297 157 482q156 183 404 183q174 0 288 -113q121 -120 122 -323q0 -86 -13 -162h-777q-2 -36 -2 -54q0 -154 86 -237q74 -70 184 -70q197 0 271 137h183q-34 -129 -155 -209q-127 -85 -310 -85q-188 0 -309 116zM945 638q2 12 2 45
q0 112 -62 184q-67 78 -184 78q-122 0 -214 -84q-89 -82 -127 -223h585zM653 1228l-210 340h185l129 -227h16l225 227h211l-354 -340h-202z" />
    <glyph glyph-name="Gcircumflex" unicode="&#x11c;" horiz-adv-x="1528" 
d="M1448 540q-60 -280 -233 -427q-172 -147 -440 -147q-257 0 -416 164q-158 164 -158 432q0 397 216 656t545 259q225 0 377 -126q153 -126 167 -323q1 -8 1 -36h-183q-11 146 -112 232q-102 86 -264 86q-238 0 -399 -210q-161 -209 -161 -519q0 -208 111 -328t302 -120
q172 0 298 107q127 107 162 283l11 55h-400l34 158h584zM1317 1575h-185l-105 186h-16l-183 -186h-207l310 298h202z" />
    <glyph glyph-name="gcircumflex" unicode="&#x11d;" horiz-adv-x="1247" 
d="M195 -321q-120 88 -130 215h183q12 -68 80 -111q74 -47 188 -47q272 0 329 242l47 200h-16q-116 -162 -326 -162q-167 0 -278 119q-114 122 -114 312q0 286 154 469q151 181 382 181q114 0 209 -61q96 -62 128 -157h16l42 199h167l-244 -1130q-36 -167 -168 -263
q-135 -98 -342 -98q-182 0 -307 92zM875 299q109 134 109 345q0 137 -75 218q-75 80 -202 80q-162 0 -265 -127q-104 -130 -104 -342q0 -143 71 -224t194 -81q165 0 272 131zM1153 1228h-187l-129 227h-16l-225 -227h-209l354 340h202z" />
    <glyph glyph-name="Gbreve" unicode="&#x11e;" horiz-adv-x="1528" 
d="M1448 540q-60 -280 -233 -427q-172 -147 -440 -147q-257 0 -416 164q-158 164 -158 432q0 397 216 656t545 259q225 0 377 -126q153 -126 167 -323q1 -8 1 -36h-183q-11 146 -112 232q-102 86 -264 86q-238 0 -399 -210q-161 -209 -161 -519q0 -208 111 -328t302 -120
q172 0 298 107q127 107 162 283l11 55h-400l34 158h584zM652 1873h150v-13q0 -67 57 -112q56 -44 139 -44q84 0 142 45t78 124h154q-26 -137 -130 -218q-103 -80 -248 -80q-152 0 -247 80t-95 208v10z" />
    <glyph glyph-name="gbreve" unicode="&#x11f;" horiz-adv-x="1247" 
d="M195 -321q-120 88 -130 215h183q12 -68 80 -111q74 -47 188 -47q272 0 329 242l47 200h-16q-116 -162 -326 -162q-167 0 -278 119q-114 122 -114 312q0 286 154 469q151 181 382 181q114 0 209 -61q96 -62 128 -157h16l42 199h167l-244 -1130q-36 -167 -168 -263
q-135 -98 -342 -98q-182 0 -307 92zM875 299q109 134 109 345q0 137 -75 218q-75 80 -202 80q-162 0 -265 -127q-104 -130 -104 -342q0 -143 71 -224t194 -81q165 0 272 131zM603 1556q-2 -16 -2 -31q0 -77 54 -123q53 -45 144 -45q208 0 237 199h156q-14 -148 -122 -237
q-108 -91 -278 -91q-161 0 -254 82q-89 79 -89 204q0 20 3 42h151z" />
    <glyph glyph-name="Gdotaccent" unicode="&#x120;" horiz-adv-x="1528" 
d="M1448 540q-60 -280 -233 -427q-172 -147 -440 -147q-257 0 -416 164q-158 164 -158 432q0 397 216 656t545 259q225 0 377 -126q153 -126 167 -323q1 -8 1 -36h-183q-11 146 -112 232q-102 86 -264 86q-238 0 -399 -210q-161 -209 -161 -519q0 -208 111 -328t302 -120
q172 0 298 107q127 107 162 283l11 55h-400l34 158h584zM921 1610q-35 36 -35 86t35 86q36 35 86 35t86 -35q35 -36 35 -86t-35 -86q-36 -35 -86 -35t-86 35z" />
    <glyph glyph-name="gdotaccent" unicode="&#x121;" horiz-adv-x="1247" 
d="M195 -321q-120 88 -130 215h183q12 -68 80 -111q74 -47 188 -47q272 0 329 242l47 200h-16q-116 -162 -326 -162q-167 0 -278 119q-114 122 -114 312q0 286 154 469q151 181 382 181q114 0 209 -61q96 -62 128 -157h16l42 199h167l-244 -1130q-36 -167 -168 -263
q-135 -98 -342 -98q-182 0 -307 92zM875 299q109 134 109 345q0 137 -75 218q-75 80 -202 80q-162 0 -265 -127q-104 -130 -104 -342q0 -143 71 -224t194 -81q165 0 272 131zM731 1325q-38 38 -38 90t38 90q37 37 90 37t90 -37q38 -38 38 -90t-38 -90q-37 -38 -90 -38
q-52 0 -90 38z" />
    <glyph glyph-name="uni0122" unicode="&#x122;" horiz-adv-x="1528" 
d="M1448 540q-60 -280 -233 -427q-172 -147 -440 -147q-257 0 -416 164q-158 164 -158 432q0 397 216 656t545 259q225 0 377 -126q153 -126 167 -323q1 -8 1 -36h-183q-11 146 -112 232q-102 86 -264 86q-238 0 -399 -210q-161 -209 -161 -519q0 -208 111 -328t302 -120
q172 0 298 107q127 107 162 283l11 55h-400l34 158h584zM502 -518l182 377h182l-197 -377h-167z" />
    <glyph glyph-name="uni0123" unicode="&#x123;" horiz-adv-x="1248" 
d="M195 -321q-120 88 -130 215h183q12 -68 80 -111q74 -47 188 -47q272 0 329 242l47 200h-16q-116 -162 -326 -162q-167 0 -278 119q-114 122 -114 312q0 286 154 469q151 181 382 181q114 0 209 -61q96 -62 128 -157h16l42 199h167l-244 -1130q-36 -167 -168 -263
q-135 -98 -342 -98q-182 0 -307 92zM875 299q109 134 109 345q0 137 -75 218q-75 80 -202 80q-162 0 -265 -127q-104 -130 -104 -342q0 -143 71 -224t194 -81q165 0 272 131zM1254 1663l-182 -377h-182l197 377h167z" />
    <glyph glyph-name="Hcircumflex" unicode="&#x124;" horiz-adv-x="1522" 
d="M1093 0l140 657h-788l-140 -657h-183l307 1443h184l-133 -624h788l133 624h184l-307 -1443h-185zM1371 1575h-185l-105 186h-16l-183 -186h-207l310 298h202z" />
    <glyph glyph-name="hcircumflex" unicode="&#x125;" horiz-adv-x="1236" 
d="M431 1506h175l-127 -589h16q126 180 333 180q153 0 252 -98q94 -93 94 -226q0 -56 -14 -124l-138 -649h-175l132 619q13 63 13 105q0 99 -63 158q-64 60 -174 60q-125 0 -216 -81q-88 -78 -115 -203l-140 -658h-175zM882 1638h-185l-105 186h-16l-183 -186h-207l310 298
h202z" />
    <glyph glyph-name="Hbar" unicode="&#x126;" horiz-adv-x="1473" 
d="M1300 1075h-788l-55 -256h788zM1616 1075h-132l-229 -1075h-185l140 657h-788l-140 -657h-183l229 1075h-136l30 143h136l48 225h184l-48 -225h788l48 225h184l-48 -225h132z" />
    <glyph glyph-name="hbar" unicode="&#x127;" horiz-adv-x="1252" 
d="M495 917q126 180 333 180q153 0 252 -98q94 -93 94 -226q0 -56 -14 -124l-138 -649h-175l132 619q13 63 13 105q0 99 -63 158q-64 60 -174 60q-125 0 -216 -81q-88 -78 -115 -203l-140 -658h-175l275 1287h-147l26 124h148l20 95h175l-20 -95h233l-26 -124h-234l-80 -370
h16z" />
    <glyph glyph-name="Itilde" unicode="&#x128;" horiz-adv-x="550" 
d="M122 0l307 1443h184l-307 -1443h-184zM552 1657q-87 81 -122 81q-89 0 -114 -118h-142q20 118 92 187q71 66 167 66q93 0 180 -81q87 -82 122 -82q90 0 115 118h142q-20 -118 -92 -186q-71 -67 -167 -67q-94 0 -181 82z" />
    <glyph glyph-name="itilde" unicode="&#x129;" horiz-adv-x="516" 
d="M340 1078h172l-229 -1078h-172zM475 1309l-57 63q-31 29 -63 29q-88 0 -114 -139h-142q15 130 89 204q71 70 174 70q97 0 178 -92q50 -57 57 -63q31 -29 63 -29q89 0 115 139h142q-15 -130 -89 -204q-71 -70 -174 -70q-98 0 -179 92z" />
    <glyph glyph-name="Imacron" unicode="&#x12a;" horiz-adv-x="550" 
d="M122 0l307 1443h184l-307 -1443h-184zM222 1620l29 136h674l-29 -136h-674z" />
    <glyph glyph-name="imacron" unicode="&#x12b;" horiz-adv-x="516" 
d="M340 1078h172l-229 -1078h-172zM133 1286l29 136h674l-29 -136h-674z" />
    <glyph glyph-name="Ibreve" unicode="&#x12c;" horiz-adv-x="550" 
d="M122 0l307 1443h184l-307 -1443h-184zM221 1873h150v-13q0 -67 57 -112q56 -44 139 -44q84 0 142 45t78 124h154q-26 -137 -130 -218q-103 -80 -248 -80q-152 0 -247 80t-95 208v10z" />
    <glyph glyph-name="ibreve" unicode="&#x12d;" horiz-adv-x="516" 
d="M340 1078h172l-229 -1078h-172zM280 1556q-2 -16 -2 -31q0 -77 54 -123q53 -45 144 -45q208 0 237 199h156q-14 -148 -122 -237q-108 -91 -278 -91q-161 0 -254 82q-89 79 -89 204q0 20 3 42h151z" />
    <glyph glyph-name="Iogonek" unicode="&#x12e;" horiz-adv-x="550" 
d="M614 1443l-299 -1404q-114 -58 -163 -113t-49 -124q0 -47 28 -73q27 -27 75 -27t71 9l-26 -127q-39 -16 -96 -16q-101 0 -160 54q-60 53 -60 143q0 88 46 154q45 67 154 138l295 1386h184z" />
    <glyph glyph-name="iogonek" unicode="&#x12f;" horiz-adv-x="516" 
d="M414 1332q-35 36 -35 85q0 50 35 85q36 35 85 35q50 0 85 -35t35 -85q0 -49 -35 -85q-35 -35 -85 -35q-49 0 -85 35zM-25 -378q-60 53 -60 143q0 86 49 154q47 65 158 138l219 1021h177l-223 -1039q-114 -58 -163 -113t-49 -124q0 -47 28 -73q27 -27 75 -27t71 9
l-26 -127q-39 -16 -96 -16q-101 0 -160 54z" />
    <glyph glyph-name="Idotaccent" unicode="&#x130;" horiz-adv-x="550" 
d="M122 0l307 1443h184l-307 -1443h-184zM489 1610q-35 36 -35 86t35 86q36 35 86 35t86 -35q35 -36 35 -86t-35 -86q-36 -35 -86 -35t-86 35z" />
    <glyph glyph-name="dotlessi" unicode="&#x131;" horiz-adv-x="516" 
d="M340 1078h172l-229 -1078h-172z" />
    <glyph glyph-name="IJ" unicode="&#x132;" horiz-adv-x="1650" 
d="M122 0l307 1443h184l-307 -1443h-184zM824 337q2 -94 62 -148t161 -54q208 0 265 269l221 1039h179l-228 -1080q-40 -191 -156 -293q-119 -104 -303 -104q-174 0 -283 106q-110 107 -99 265h181z" />
    <glyph glyph-name="ij" unicode="&#x133;" horiz-adv-x="1032" 
d="M340 1078h176l-231 -1078h-176zM413 1332q-35 36 -35 85q0 50 35 85q36 35 85 35q50 0 85 -35t35 -85q0 -49 -35 -85q-35 -35 -85 -35q-49 0 -85 35zM777 -107q-32 -151 -116 -221q-83 -69 -229 -70q-44 0 -81 4l33 152q32 -3 53 -3q76 0 115 36t58 125l247 1162h172z
M929 1332q-35 36 -35 85q0 50 35 85q36 35 85 35q50 0 85 -35t35 -85q0 -49 -35 -85q-35 -35 -85 -35q-49 0 -85 35z" />
    <glyph glyph-name="Jcircumflex" unicode="&#x134;" horiz-adv-x="1102" 
d="M287 337q2 -94 62 -148q59 -54 161 -54q208 0 265 269l221 1039h179l-228 -1080q-41 -191 -157 -293q-118 -104 -302 -104q-174 0 -284 106q-109 107 -98 265h181zM1449 1575h-185l-105 186h-16l-183 -186h-207l310 298h202z" />
    <glyph glyph-name="jcircumflex" unicode="&#x135;" horiz-adv-x="516" 
d="M262 -107q-32 -151 -116 -221q-83 -69 -229 -70q-44 0 -81 4l33 152q32 -3 53 -3q76 0 115 36t58 125l247 1162h172zM832 1228h-187l-129 227h-16l-225 -227h-209l354 340h202z" />
    <glyph glyph-name="uni0136" unicode="&#x136;" horiz-adv-x="1349" 
d="M122 0l307 1443h179l-149 -701h16l772 701h235l-702 -635l449 -808h-210l-381 697l-229 -204l-107 -493h-180zM353 -518l182 377h182l-197 -377h-167z" />
    <glyph glyph-name="uni0137" unicode="&#x137;" horiz-adv-x="1112" 
d="M980 1078h227l-565 -465l363 -613h-201l-301 516l-130 -94l-90 -422h-174l320 1506h174l-185 -870h16zM254 -518l182 377h182l-197 -377h-167z" />
    <glyph glyph-name="Lacute" unicode="&#x139;" horiz-adv-x="1164" 
d="M1000 0h-878l307 1443h184l-273 -1281h694zM831 1873h226l-395 -298h-204z" />
    <glyph glyph-name="lacute" unicode="&#x13a;" horiz-adv-x="518" 
d="M429 1506h176l-320 -1506h-176zM828 1936h226l-395 -298h-204z" />
    <glyph glyph-name="uni013B" unicode="&#x13b;" horiz-adv-x="1164" 
d="M1000 0h-878l307 1443h184l-273 -1281h694zM273 -518l182 377h182l-197 -377h-167z" />
    <glyph glyph-name="uni013C" unicode="&#x13c;" horiz-adv-x="518" 
d="M430 1506h176l-320 -1506h-176zM-89 -518l182 377h182l-197 -377h-167z" />
    <glyph glyph-name="Lcaron" unicode="&#x13d;" horiz-adv-x="1164" 
d="M982 1443l-154 -488h-120l104 488h170zM1000 0h-878l307 1443h184l-273 -1281h694z" />
    <glyph glyph-name="lcaron" unicode="&#x13e;" horiz-adv-x="615" 
d="M898 1506l-154 -488h-120l104 488h170zM429 1506h176l-320 -1506h-176z" />
    <glyph glyph-name="Lslash" unicode="&#x141;" horiz-adv-x="1115" 
d="M1034 162l-34 -162h-878l153 718l-181 -75l30 143l181 75l124 582h184l-106 -498l317 132l-30 -143l-318 -132l-136 -640h694z" />
    <glyph glyph-name="lslash" unicode="&#x142;" horiz-adv-x="516" 
d="M595 851l-142 -62l-168 -789h-176l150 705l-136 -59l30 143l136 59l140 658h176l-122 -574l142 62z" />
    <glyph glyph-name="Nacute" unicode="&#x143;" horiz-adv-x="1520" 
d="M122 0l307 1443h177l534 -1153h16l245 1153h182l-307 -1443h-179l-533 1150h-16l-244 -1150h-182zM1326 1873h226l-395 -298h-204z" />
    <glyph glyph-name="nacute" unicode="&#x144;" horiz-adv-x="1215" 
d="M328 1078h167l-34 -161h16q126 180 337 180q151 0 249 -98q93 -93 93 -226q0 -56 -14 -124l-138 -649h-175l132 619q13 63 13 105q0 98 -62 158q-64 60 -171 60q-122 0 -213 -81q-87 -78 -114 -203l-140 -658h-175zM1047 1601h220l-350 -338h-194z" />
    <glyph glyph-name="uni0145" unicode="&#x145;" horiz-adv-x="1520" 
d="M122 0l307 1443h177l534 -1153h16l245 1153h182l-307 -1443h-179l-533 1150h-16l-244 -1150h-182zM411 -518l182 377h182l-197 -377h-167z" />
    <glyph glyph-name="uni0146" unicode="&#x146;" horiz-adv-x="1215" 
d="M328 1078h167l-34 -161h16q126 180 337 180q151 0 249 -98q93 -93 93 -226q0 -56 -14 -124l-138 -649h-175l132 619q13 63 13 105q0 98 -62 158q-64 60 -171 60q-122 0 -213 -81q-87 -78 -114 -203l-140 -658h-175zM263 -518l182 377h182l-197 -377h-167z" />
    <glyph glyph-name="Ncaron" unicode="&#x147;" horiz-adv-x="1520" 
d="M122 0l307 1443h177l534 -1153h16l245 1153h182l-307 -1443h-179l-533 1150h-16l-244 -1150h-182zM769 1873h185l105 -186h16l183 186h207l-310 -298h-202z" />
    <glyph glyph-name="ncaron" unicode="&#x148;" horiz-adv-x="1215" 
d="M328 1078h167l-34 -161h16q126 180 337 180q151 0 249 -98q93 -93 93 -226q0 -56 -14 -124l-138 -649h-175l132 619q13 63 13 105q0 98 -62 158q-64 60 -171 60q-122 0 -213 -81q-87 -78 -114 -203l-140 -658h-175zM725 1228l-210 340h185l129 -227h16l225 227h211
l-354 -340h-202z" />
    <glyph glyph-name="Omacron" unicode="&#x14c;" horiz-adv-x="1579" 
d="M366 136q-166 169 -166 427q0 394 222 654t559 260q253 0 417 -169q165 -169 165 -428q0 -397 -220 -655q-220 -259 -557 -259q-253 0 -420 170zM1261 1186q-113 124 -294 124q-247 0 -412 -209q-165 -210 -165 -522q0 -200 113 -323t297 -123q248 0 411 207
q162 207 162 524q0 199 -112 322zM677 1618l29 136h674l-29 -136h-674z" />
    <glyph glyph-name="omacron" unicode="&#x14d;" horiz-adv-x="1210" 
d="M411 225q77 -89 206 -89q145 0 253 133q111 139 111 343q0 154 -72 242q-73 88 -199 88q-171 0 -273 -141q-100 -137 -100 -353q0 -137 74 -223zM276 106q-122 124 -122 321q0 283 151 472q160 198 421 198q197 0 319 -125q120 -123 120 -319q0 -277 -149 -467
q-161 -205 -421 -205q-197 0 -319 125zM431 1286l29 136h674l-29 -136h-674z" />
    <glyph glyph-name="Obreve" unicode="&#x14e;" horiz-adv-x="1579" 
d="M366 136q-166 169 -166 427q0 394 222 654t559 260q253 0 417 -169q165 -169 165 -428q0 -397 -220 -655q-220 -259 -557 -259q-253 0 -420 170zM1261 1186q-113 124 -294 124q-247 0 -412 -209q-165 -210 -165 -522q0 -200 113 -323t297 -123q248 0 411 207
q162 207 162 524q0 199 -112 322zM676 1871h150v-13q0 -67 57 -112q56 -44 139 -44q84 0 142 45t78 124h154q-26 -137 -130 -218q-103 -80 -248 -80q-152 0 -247 80t-95 208v10z" />
    <glyph glyph-name="obreve" unicode="&#x14f;" horiz-adv-x="1210" 
d="M411 225q77 -89 206 -89q145 0 253 133q111 139 111 343q0 154 -72 242q-73 88 -199 88q-171 0 -273 -141q-100 -137 -100 -353q0 -137 74 -223zM276 106q-122 124 -122 321q0 283 151 472q160 198 421 198q197 0 319 -125q120 -123 120 -319q0 -277 -149 -467
q-161 -205 -421 -205q-197 0 -319 125zM578 1556q-2 -16 -2 -31q0 -77 54 -123q53 -45 144 -45q208 0 237 199h156q-14 -148 -122 -237q-108 -91 -278 -91q-161 0 -254 82q-89 79 -89 204q0 20 3 42h151z" />
    <glyph glyph-name="Ohungarumlaut" unicode="&#x150;" horiz-adv-x="1579" 
d="M366 136q-166 169 -166 427q0 394 222 654t559 260q253 0 417 -169q165 -169 165 -428q0 -397 -220 -655q-220 -259 -557 -259q-253 0 -420 170zM1261 1186q-113 124 -294 124q-247 0 -412 -209q-165 -210 -165 -522q0 -200 113 -323t297 -123q248 0 411 207
q162 207 162 524q0 199 -112 322zM1475 1871h226l-395 -298h-204zM1061 1871h226l-395 -298h-204z" />
    <glyph glyph-name="ohungarumlaut" unicode="&#x151;" horiz-adv-x="1210" 
d="M411 225q77 -89 206 -89q145 0 253 133q111 139 111 343q0 154 -72 242q-73 88 -199 88q-171 0 -273 -141q-100 -137 -100 -353q0 -137 74 -223zM276 106q-122 124 -122 321q0 283 151 472q160 198 421 198q197 0 319 -125q120 -123 120 -319q0 -277 -149 -467
q-161 -205 -421 -205q-197 0 -319 125zM1197 1601h210l-352 -338h-182zM797 1601h210l-352 -338h-182z" />
    <glyph glyph-name="OE" unicode="&#x152;" horiz-adv-x="2325" 
d="M1260 1187q-112 123 -293 123q-246 0 -411 -209q-166 -210 -166 -522q0 -200 114 -323q113 -123 296 -123q248 0 411 207q162 207 162 524q0 199 -113 323zM1250 140l-16 -1q-178 -173 -448 -173q-253 0 -419 169q-167 170 -167 428q0 394 223 654q222 260 558 260
q162 0 292 -80q122 -75 185 -200l17 1l52 245h896l-35 -162h-711l-100 -463h675l-34 -160h-674l-106 -496h712l-34 -162h-896z" />
    <glyph glyph-name="oe" unicode="&#x153;" horiz-adv-x="1991" 
d="M1031 203h-16q-156 -222 -423 -222q-195 0 -316 124q-122 123 -122 322q0 294 160 482q161 188 412 188q268 0 369 -232h16q144 232 421 232q181 0 295 -121t115 -315q0 -90 -13 -162h-777l-2 -56q0 -138 74 -222q74 -83 196 -83q197 0 271 137h183q-35 -134 -162 -214
t-303 -80q-268 0 -378 222zM1760 638q2 12 2 45q0 118 -67 190q-68 72 -179 72q-120 0 -211 -82t-130 -225h585zM414 222q77 -86 203 -86q151 0 257 140q107 139 107 336q0 154 -72 242t-199 88q-167 0 -270 -136q-103 -137 -103 -358q0 -140 77 -226z" />
    <glyph glyph-name="Racute" unicode="&#x154;" horiz-adv-x="1338" 
d="M429 1443h499q196 0 314 -104q117 -104 117 -278q0 -168 -105 -294q-106 -126 -282 -168l207 -599h-196l-188 571h-368l-121 -571h-184zM461 731h348q159 0 260 88q100 87 100 225q0 110 -66 174q-67 65 -180 65h-344zM1143 1873h226l-395 -298h-204z" />
    <glyph glyph-name="racute" unicode="&#x155;" horiz-adv-x="765" 
d="M320 1078h166l-29 -137h16q104 156 289 156q87 0 126 -15l-37 -165q-58 13 -136 13q-252 0 -315 -293l-135 -637h-174zM834 1601h220l-350 -338h-194z" />
    <glyph glyph-name="uni0156" unicode="&#x156;" horiz-adv-x="1338" 
d="M429 1443h499q196 0 314 -104q117 -104 117 -278q0 -168 -105 -294q-106 -126 -282 -168l207 -599h-196l-188 571h-368l-121 -571h-184zM461 731h348q159 0 260 88q100 87 100 225q0 110 -66 174q-67 65 -180 65h-344zM357 -518l182 377h182l-197 -377h-167z" />
    <glyph glyph-name="uni0157" unicode="&#x157;" horiz-adv-x="765" 
d="M321 1078h166l-29 -137h16q104 156 289 156q87 0 126 -15l-37 -165q-58 13 -136 13q-252 0 -315 -293l-135 -637h-174zM-100 -518l182 377h182l-197 -377h-167z" />
    <glyph glyph-name="Rcaron" unicode="&#x158;" horiz-adv-x="1338" 
d="M429 1443h499q196 0 314 -104q117 -104 117 -278q0 -168 -105 -294q-106 -126 -282 -168l207 -599h-196l-188 571h-368l-121 -571h-184zM461 731h348q159 0 260 88q100 87 100 225q0 110 -66 174q-67 65 -180 65h-344zM586 1873h185l105 -186h16l183 186h207l-310 -298
h-202z" />
    <glyph glyph-name="rcaron" unicode="&#x159;" horiz-adv-x="765" 
d="M320 1078h166l-29 -137h16q104 156 289 156q87 0 126 -15l-37 -165q-58 13 -136 13q-252 0 -315 -293l-135 -637h-174zM512 1228l-210 340h185l129 -227h16l225 227h211l-354 -340h-202z" />
    <glyph glyph-name="Sacute" unicode="&#x15a;" horiz-adv-x="1276" 
d="M300 400q26 -125 126 -198q101 -73 247 -73q149 0 242 71q92 70 92 185q0 89 -62 150q-61 61 -201 110l-137 48q-148 52 -229 149q-82 97 -82 221q0 178 145 296q146 118 364 118q206 0 348 -118t158 -302h-181q-28 122 -116 189q-89 68 -220 68q-134 0 -221 -66
q-87 -67 -87 -169q0 -150 232 -234l130 -47q350 -126 350 -390q0 -196 -151 -319q-150 -123 -389 -123q-222 0 -366 116q-145 116 -174 318h182zM1166 1873h226l-395 -298h-204z" />
    <glyph glyph-name="sacute" unicode="&#x15b;" horiz-adv-x="1052" 
d="M274 289q21 -73 86 -117q68 -46 167 -46q109 0 179 47t70 121q0 103 -135 146l-165 53q-250 81 -250 282q0 143 115 233q114 89 289 89q169 0 278 -81q105 -79 127 -214h-171q-17 70 -79 109q-64 40 -158 40q-99 0 -163 -45q-65 -45 -65 -115q0 -97 151 -146l146 -47
q135 -43 196 -113q61 -69 61 -178q0 -142 -123 -234t-311 -92q-177 0 -294 85q-116 85 -128 223h177zM915 1601h220l-350 -338h-194z" />
    <glyph glyph-name="Scircumflex" unicode="&#x15c;" horiz-adv-x="1276" 
d="M300 400q26 -125 126 -198q101 -73 247 -73q149 0 242 71q92 70 92 185q0 89 -62 150q-61 61 -201 110l-137 48q-148 52 -229 149q-82 97 -82 221q0 178 145 296q146 118 364 118q206 0 348 -118t158 -302h-181q-28 122 -116 189q-89 68 -220 68q-134 0 -221 -66
q-87 -67 -87 -169q0 -150 232 -234l130 -47q350 -126 350 -390q0 -196 -151 -319q-150 -123 -389 -123q-222 0 -366 116q-145 116 -174 318h182zM1220 1575h-185l-105 186h-16l-183 -186h-207l310 298h202z" />
    <glyph glyph-name="scircumflex" unicode="&#x15d;" horiz-adv-x="1052" 
d="M274 289q21 -73 86 -117q68 -46 167 -46q109 0 179 47t70 121q0 103 -135 146l-165 53q-250 81 -250 282q0 143 115 233q114 89 289 89q169 0 278 -81q105 -79 127 -214h-171q-17 70 -79 109q-64 40 -158 40q-99 0 -163 -45q-65 -45 -65 -115q0 -97 151 -146l146 -47
q135 -43 196 -113q61 -69 61 -178q0 -142 -123 -234t-311 -92q-177 0 -294 85q-116 85 -128 223h177zM1053 1228h-187l-129 227h-16l-225 -227h-209l354 340h202z" />
    <glyph glyph-name="Scedilla" unicode="&#x15e;" horiz-adv-x="1276" 
d="M848 798q350 -126 350 -390q0 -182 -133 -303q-132 -120 -347 -137l-67 -108q179 -20 179 -156q0 -85 -69 -140q-70 -55 -178 -55q-95 0 -175 36l23 108q65 -28 147 -28q104 0 104 70q0 72 -134 72h-53l13 90l70 113q-190 20 -311 134q-123 114 -149 296h182
q26 -125 126 -198q101 -73 247 -73q149 0 242 71q92 70 92 185q0 89 -62 150q-61 61 -201 110l-137 48q-148 52 -229 149q-82 97 -82 221q0 178 145 296q146 118 364 118q206 0 348 -118t158 -302h-181q-28 122 -116 189q-89 68 -220 68q-134 0 -221 -66q-87 -67 -87 -169
q0 -150 232 -234z" />
    <glyph glyph-name="scedilla" unicode="&#x15f;" horiz-adv-x="1052" 
d="M696 598q135 -43 196 -113q61 -69 61 -178q0 -132 -109 -223q-109 -90 -279 -101l-76 -123q179 -20 179 -156q0 -85 -69 -140q-70 -55 -178 -55q-95 0 -175 36l23 108q65 -28 147 -28q104 0 104 70q0 72 -134 72h-53l13 90l81 131q-141 21 -230 102q-90 81 -100 199h177
q21 -73 86 -117q68 -46 167 -46q109 0 179 47t70 121q0 103 -135 146l-165 53q-250 81 -250 282q0 143 115 233q114 89 289 89q169 0 278 -81q105 -79 127 -214h-171q-17 70 -79 109q-64 40 -158 40q-99 0 -163 -45q-65 -45 -65 -115q0 -97 151 -146z" />
    <glyph glyph-name="Scaron" unicode="&#x160;" horiz-adv-x="1276" 
d="M300 400q26 -125 126 -198q101 -73 247 -73q149 0 242 71q92 70 92 185q0 89 -62 150q-61 61 -201 110l-137 48q-148 52 -229 149q-82 97 -82 221q0 178 145 296q146 118 364 118q206 0 348 -118t158 -302h-181q-28 122 -116 189q-89 68 -220 68q-134 0 -221 -66
q-87 -67 -87 -169q0 -150 232 -234l130 -47q350 -126 350 -390q0 -196 -151 -319q-150 -123 -389 -123q-222 0 -366 116q-145 116 -174 318h182zM609 1873h185l105 -186h16l183 186h207l-310 -298h-202z" />
    <glyph glyph-name="scaron" unicode="&#x161;" horiz-adv-x="1052" 
d="M274 289q21 -73 86 -117q68 -46 167 -46q109 0 179 47t70 121q0 103 -135 146l-165 53q-250 81 -250 282q0 143 115 233q114 89 289 89q169 0 278 -81q105 -79 127 -214h-171q-17 70 -79 109q-64 40 -158 40q-99 0 -163 -45q-65 -45 -65 -115q0 -97 151 -146l146 -47
q135 -43 196 -113q61 -69 61 -178q0 -142 -123 -234t-311 -92q-177 0 -294 85q-116 85 -128 223h177zM593 1228l-210 340h185l129 -227h16l225 227h211l-354 -340h-202z" />
    <glyph glyph-name="uni0162" unicode="&#x162;" horiz-adv-x="1298" 
d="M1446 1443l-34 -162h-463l-272 -1281h-22l-87 -140q179 -20 179 -156q0 -85 -69 -140q-70 -55 -178 -55q-95 0 -175 36l23 108q65 -28 147 -28q104 0 104 70q0 72 -134 72h-53l13 90l89 143h-21l272 1281h-463l34 162h1110z" />
    <glyph glyph-name="uni0163" unicode="&#x163;" horiz-adv-x="744" 
d="M422 356q-12 -57 -12 -97q0 -116 136 -116q38 0 69 4l-31 -145q-58 -10 -101 -10q-26 0 -52 3l-84 -135q179 -20 179 -156q0 -85 -69 -140q-70 -55 -178 -55q-95 0 -175 36l23 108q65 -28 147 -28q104 0 104 70q0 72 -134 72h-53l13 90l110 178q-89 57 -89 175
q0 40 11 93l135 631h-181l30 144h182l55 269h175l-57 -269h250l-30 -144h-250z" />
    <glyph glyph-name="Tcaron" unicode="&#x164;" horiz-adv-x="1298" 
d="M493 0l272 1281h-463l34 162h1110l-34 -162h-463l-272 -1281h-184zM652 1873h185l105 -186h16l183 186h207l-310 -298h-202z" />
    <glyph glyph-name="tcaron" unicode="&#x165;" horiz-adv-x="744" 
d="M758 1232l104 488h170l-154 -488h-120zM298 46q-73 58 -73 164q0 40 11 93l135 631h-181l30 144h182l55 269h175l-57 -269h250l-30 -144h-250l-123 -578q-12 -57 -12 -97q0 -116 136 -116q38 0 69 4l-31 -145q-58 -10 -101 -10q-117 0 -185 54z" />
    <glyph glyph-name="Tbar" unicode="&#x166;" horiz-adv-x="1298" 
d="M949 1281l-104 -488h307l-30 -143h-307l-138 -650h-184l138 650h-299l30 143h299l104 488h-463l34 162h1110l-34 -162h-463z" />
    <glyph glyph-name="tbar" unicode="&#x167;" horiz-adv-x="739" 
d="M545 934l-63 -295h232l-31 -144h-231l-30 -139q-12 -57 -12 -97q0 -116 136 -116q38 0 69 4l-31 -145q-58 -10 -101 -10q-117 0 -185 54q-73 58 -73 164q0 40 11 93l41 192h-180l31 144h180l63 295h-181l30 144h182l55 269h175l-57 -269h250l-30 -144h-250z" />
    <glyph glyph-name="Utilde" unicode="&#x168;" horiz-adv-x="1524" 
d="M363 96q-127 122 -130 318q-1 60 13 130l188 899h184l-186 -887q-14 -68 -13 -133q6 -137 91 -212q90 -79 258 -79q162 0 277 95q117 97 152 264l203 952h184l-210 -987q-50 -236 -208 -360q-164 -130 -430 -130q-236 0 -373 130zM1039 1657q-87 81 -122 81
q-89 0 -114 -118h-142q20 118 93 187q70 66 166 66q94 0 181 -81q87 -82 121 -82q90 0 115 118h142q-19 -118 -92 -186q-70 -67 -167 -67q-94 0 -181 82z" />
    <glyph glyph-name="utilde" unicode="&#x169;" horiz-adv-x="1215" 
d="M996 0h-166l33 146h-16q-106 -165 -344 -165q-146 0 -239 90q-93 88 -93 223q0 67 15 140l135 644h175l-131 -619q-14 -68 -14 -121q0 -202 219 -202q128 0 223 83q93 81 120 211l138 648h174zM814 1309l-57 63q-31 29 -63 29q-88 0 -114 -139h-142q15 130 89 204
q71 70 174 70q97 0 178 -92q50 -57 57 -63q31 -29 63 -29q89 0 115 139h142q-15 -130 -89 -204q-71 -70 -174 -70q-98 0 -179 92z" />
    <glyph glyph-name="Umacron" unicode="&#x16a;" horiz-adv-x="1524" 
d="M363 96q-127 122 -130 318q-1 60 13 130l188 899h184l-186 -887q-14 -68 -13 -133q6 -137 91 -212q90 -79 258 -79q162 0 277 95q117 97 152 264l203 952h184l-210 -987q-50 -236 -208 -360q-164 -130 -430 -130q-236 0 -373 130zM709 1620l29 136h674l-29 -136h-674z
" />
    <glyph glyph-name="umacron" unicode="&#x16b;" horiz-adv-x="1215" 
d="M996 0h-166l33 146h-16q-106 -165 -344 -165q-146 0 -239 90q-93 88 -93 223q0 67 15 140l135 644h175l-131 -619q-14 -68 -14 -121q0 -202 219 -202q128 0 223 83q93 81 120 211l138 648h174zM472 1286l29 136h674l-29 -136h-674z" />
    <glyph glyph-name="Ubreve" unicode="&#x16c;" horiz-adv-x="1524" 
d="M363 96q-127 122 -130 318q-1 60 13 130l188 899h184l-186 -887q-14 -68 -13 -133q6 -137 91 -212q90 -79 258 -79q162 0 277 95q117 97 152 264l203 952h184l-210 -987q-50 -236 -208 -360q-164 -130 -430 -130q-236 0 -373 130zM708 1873h150v-13q0 -67 57 -112
q56 -44 139 -44q84 0 142 45t78 124h154q-26 -137 -130 -218q-102 -80 -248 -80q-152 0 -247 80t-95 208v10z" />
    <glyph glyph-name="ubreve" unicode="&#x16d;" horiz-adv-x="1215" 
d="M996 0h-166l33 146h-16q-106 -165 -344 -165q-146 0 -239 90q-93 88 -93 223q0 67 15 140l135 644h175l-131 -619q-14 -68 -14 -121q0 -202 219 -202q128 0 223 83q93 81 120 211l138 648h174zM619 1556q-2 -16 -2 -31q0 -77 54 -123q53 -45 144 -45q208 0 237 199h156
q-14 -148 -122 -237q-108 -91 -278 -91q-161 0 -254 82q-89 79 -89 204q0 20 3 42h151z" />
    <glyph glyph-name="Uring" unicode="&#x16e;" horiz-adv-x="1524" 
d="M363 96q-127 122 -130 318q-1 60 13 130l188 899h184l-186 -887q-14 -68 -13 -133q6 -137 91 -212q90 -79 258 -79q162 0 277 95q117 97 152 264l203 952h184l-210 -987q-50 -236 -208 -360q-164 -130 -430 -130q-236 0 -373 130zM920 1637q-68 67 -68 163t68 163
q68 66 164 66q97 0 164 -66q68 -67 68 -163t-68 -163q-67 -66 -164 -66q-96 0 -164 66zM1172 1712q34 35 34 88t-34 88q-35 35 -88 35q-52 0 -87 -35t-35 -88t35 -88t87 -35q53 0 88 35z" />
    <glyph glyph-name="uring" unicode="&#x16f;" horiz-adv-x="1215" 
d="M996 0h-166l33 146h-16q-106 -165 -344 -165q-146 0 -239 90q-93 88 -93 223q0 67 15 140l135 644h175l-131 -619q-14 -68 -14 -121q0 -202 219 -202q128 0 223 83q93 81 120 211l138 648h174zM682 1294q-68 67 -68 163t68 163q68 66 164 66t164 -66q68 -67 68 -163
t-68 -163q-68 -66 -164 -66t-164 66zM933 1369q35 35 35 88t-35 88t-87 35t-87 -35t-35 -88t35 -88t87 -35t87 35z" />
    <glyph glyph-name="Uhungarumlaut" unicode="&#x170;" horiz-adv-x="1524" 
d="M363 96q-127 122 -130 318q-1 60 13 130l188 899h184l-186 -887q-14 -68 -13 -133q6 -137 91 -212q90 -79 258 -79q162 0 277 95q117 97 152 264l203 952h184l-210 -987q-50 -236 -208 -360q-164 -130 -430 -130q-236 0 -373 130zM1507 1873h226l-395 -298h-204z
M1093 1873h226l-395 -298h-204z" />
    <glyph glyph-name="uhungarumlaut" unicode="&#x171;" horiz-adv-x="1215" 
d="M996 0h-166l33 146h-16q-106 -165 -344 -165q-146 0 -239 90q-93 88 -93 223q0 67 15 140l135 644h175l-131 -619q-14 -68 -14 -121q0 -202 219 -202q128 0 223 83q93 81 120 211l138 648h174zM1238 1601h210l-352 -338h-182zM838 1601h210l-352 -338h-182z" />
    <glyph glyph-name="Uogonek" unicode="&#x172;" horiz-adv-x="1524" 
d="M800 -381q-59 50 -59 142q0 99 93 195v16q-30 -6 -99 -6q-227 0 -365 122q-138 123 -138 326q0 69 13 130l188 899h184l-186 -887q-13 -58 -13 -133q0 -140 93 -216q91 -75 256 -75q163 0 278 97q116 96 151 262l203 952h184l-210 -987q-62 -288 -293 -415
q-70 -38 -122 -112q-52 -73 -52 -134q0 -97 122 -97q32 0 45 3l-26 -123q-23 -10 -80 -10q-107 0 -167 51z" />
    <glyph glyph-name="uogonek" unicode="&#x173;" horiz-adv-x="1215" 
d="M693 -383q-58 50 -58 133q0 161 198 262l30 134h-16q-106 -165 -344 -165q-144 0 -238 89q-94 88 -94 224q0 65 15 140l135 644h175l-131 -619q-14 -72 -14 -121q0 -202 219 -202q126 0 221 81q94 81 122 213l138 648h174l-225 -1059q-197 -107 -197 -229q0 -41 26 -65
q26 -23 70 -23q54 0 78 9l-26 -127q-44 -16 -105 -16q-96 0 -153 49z" />
    <glyph glyph-name="Wcircumflex" unicode="&#x174;" horiz-adv-x="1982" 
d="M600 0h-177l-87 1443h165l58 -1173h12l572 1173h162l94 -1173h12l541 1173h186l-692 -1443h-177l-97 1139h-12zM1601 1575h-185l-105 186h-16l-183 -186h-207l310 298h202z" />
    <glyph glyph-name="wcircumflex" unicode="&#x175;" horiz-adv-x="1586" 
d="M1154 0h-175l-70 827h-16l-411 -827h-174l-72 1078h157l49 -853h16l411 853h175l57 -862h16l396 862h173zM1359 1228h-187l-129 227h-16l-225 -227h-209l354 340h202z" />
    <glyph glyph-name="Ycircumflex" unicode="&#x176;" horiz-adv-x="1344" 
d="M520 0l132 621l-336 822h187l268 -649h16l526 649h207l-692 -848l-124 -595h-184zM1282 1575h-185l-105 186h-16l-183 -186h-207l310 298h202z" />
    <glyph glyph-name="ycircumflex" unicode="&#x177;" horiz-adv-x="1112" 
d="M39 -380l26 147q39 -13 102 -13q108 0 205 181l39 73l-175 1070h171l128 -857h16l472 857h189l-686 -1196q-91 -159 -177 -219q-77 -55 -192 -55q-37 0 -118 12zM1129 1228h-187l-129 227h-16l-225 -227h-209l354 340h202z" />
    <glyph glyph-name="Ydieresis" unicode="&#x178;" horiz-adv-x="1344" 
d="M520 0l132 621l-336 822h187l268 -649h16l526 649h207l-692 -848l-124 -595h-184zM683 1610q-35 36 -35 86t35 86q36 35 86 35t86 -35q35 -36 35 -86t-35 -86q-36 -35 -86 -35t-86 35zM1087 1610q-35 36 -35 86t35 86q36 35 86 35t86 -35q35 -36 35 -86t-35 -86
q-36 -35 -86 -35t-86 35z" />
    <glyph glyph-name="Zacute" unicode="&#x179;" horiz-adv-x="1355" 
d="M110 128l1048 1137l4 16h-779l34 162h1022l-27 -128l-1045 -1137l-3 -16h820l-34 -162h-1067zM1228 1873h226l-395 -298h-204z" />
    <glyph glyph-name="zacute" unicode="&#x17a;" horiz-adv-x="1104" 
d="M103 126l764 792l3 16h-594l32 144h826l-29 -129l-758 -789l-3 -16h593l-31 -144h-830zM987 1601h220l-350 -338h-194z" />
    <glyph glyph-name="Zdotaccent" unicode="&#x17b;" horiz-adv-x="1355" 
d="M110 128l1048 1137l4 16h-779l34 162h1022l-27 -128l-1045 -1137l-3 -16h820l-34 -162h-1067zM886 1610q-35 36 -35 86t35 86q36 35 86 35t86 -35q35 -36 35 -86t-35 -86q-36 -35 -86 -35t-86 35z" />
    <glyph glyph-name="zdotaccent" unicode="&#x17c;" horiz-adv-x="1104" 
d="M103 126l764 792l3 16h-594l32 144h826l-29 -129l-758 -789l-3 -16h593l-31 -144h-830zM703 1325q-38 38 -38 90t38 90q37 37 90 37t90 -37q38 -38 38 -90t-38 -90q-37 -38 -90 -38q-52 0 -90 38z" />
    <glyph glyph-name="Zcaron" unicode="&#x17d;" horiz-adv-x="1355" 
d="M110 128l1048 1137l4 16h-779l34 162h1022l-27 -128l-1045 -1137l-3 -16h820l-34 -162h-1067zM671 1873h185l105 -186h16l183 186h207l-310 -298h-202z" />
    <glyph glyph-name="zcaron" unicode="&#x17e;" horiz-adv-x="1104" 
d="M103 126l764 792l3 16h-594l32 144h826l-29 -129l-758 -789l-3 -16h593l-31 -144h-830zM665 1228l-210 340h185l129 -227h16l225 227h211l-354 -340h-202z" />
    <glyph glyph-name="florin" unicode="&#x192;" horiz-adv-x="1328" 
d="M31 26l37 159q98 -45 203 -45q100 0 159 45q60 46 99 155l141 395h-336l31 144h356l81 227q130 366 464 366q120 0 217 -39l-35 -149q-84 32 -193 32q-112 0 -180 -56q-63 -51 -103 -165l-77 -216h369l-31 -144h-390l-144 -408q-66 -183 -172 -265q-105 -81 -274 -81
q-87 0 -222 45z" />
    <glyph glyph-name="Ohorn" unicode="&#x1a0;" horiz-adv-x="1662" 
d="M366 136q-166 169 -166 427q0 394 222 654t559 260q188 0 332 -98t150 -98q74 0 113 34q39 35 57 119l37 176h158l-47 -224q-24 -114 -94 -173q-65 -56 -158 -56q-10 0 -30 2v-16q64 -122 64 -263q0 -397 -220 -655q-220 -259 -557 -259q-253 0 -420 170zM1261 1186
q-113 124 -294 124q-247 0 -412 -209q-165 -210 -165 -522q0 -200 113 -323t297 -123q248 0 411 207q162 207 162 524q0 199 -112 322z" />
    <glyph glyph-name="ohorn" unicode="&#x1a1;" horiz-adv-x="1374" 
d="M411 225q77 -89 206 -89q145 0 253 133q111 139 111 343q0 154 -72 242q-73 88 -199 88q-171 0 -273 -141q-100 -137 -100 -353q0 -137 74 -223zM1016 186q-161 -205 -421 -205q-197 0 -319 125q-122 124 -122 321q0 283 151 472q160 198 421 198q141 0 253 -76
q111 -76 138 -76q125 0 158 156l37 176h158l-47 -224q-24 -114 -94 -173q-65 -56 -158 -56q-10 0 -30 2v-15q24 -72 24 -158q0 -277 -149 -467z" />
    <glyph glyph-name="Uhorn" unicode="&#x1af;" horiz-adv-x="1770" 
d="M1986 1620l-48 -224q-52 -245 -292 -245q-72 0 -117 31l-155 -726q-50 -236 -208 -360q-164 -130 -430 -130q-236 0 -373 130q-127 122 -130 318q-1 60 13 130l188 899h184l-186 -887q-14 -68 -13 -133q6 -137 91 -212q90 -79 258 -79q162 0 277 95q117 97 152 264
l203 952h184l-26 -125q32 -27 85 -27q63 0 96 34q35 35 52 119l37 176h158z" />
    <glyph glyph-name="uhorn" unicode="&#x1b0;" horiz-adv-x="1461" 
d="M1610 1272l-48 -224q-53 -245 -292 -245q-57 0 -99 21l-175 -824h-166l33 146h-16q-106 -165 -344 -165q-146 0 -239 90q-93 88 -93 223q0 67 15 140l135 644h175l-131 -619q-14 -68 -14 -121q0 -202 219 -202q128 0 223 83q93 81 120 211l138 648h174l-25 -120
q29 -15 67 -15q62 0 96 34q34 35 52 119l37 176h158z" />
    <glyph glyph-name="uni01C4" unicode="&#x1c4;" horiz-adv-x="2842" 
d="M832 1443q299 0 465 -168q164 -167 164 -463q0 -347 -215 -580q-215 -232 -531 -232h-591l305 1443h403zM340 160h382q238 0 395 183q158 183 158 460q0 227 -120 353q-121 127 -337 127h-239zM1597 128l1048 1137l4 16h-779l34 162h1022l-27 -128l-1045 -1137l-3 -16
h820l-34 -162h-1067zM2158 1873h185l105 -186h16l183 186h207l-310 -298h-202z" />
    <glyph glyph-name="uni01C5" unicode="&#x1c5;" horiz-adv-x="2591" 
d="M832 1443q299 0 465 -168q164 -167 164 -463q0 -347 -215 -580q-215 -232 -531 -232h-591l305 1443h403zM340 160h382q238 0 395 183q158 183 158 460q0 227 -120 353q-121 127 -337 127h-239zM1590 126l764 792l3 16h-594l32 144h826l-29 -129l-758 -789l-3 -16h593
l-31 -144h-830zM2152 1228l-210 340h185l129 -227h16l225 227h211l-354 -340h-202z" />
    <glyph glyph-name="uni01C6" unicode="&#x1c6;" horiz-adv-x="2362" 
d="M267 99q-115 123 -115 319q0 291 161 486q160 193 395 193q116 0 206 -61q88 -60 117 -157h16l133 627h175l-320 -1506h-166l31 147h-16q-127 -166 -340 -166q-166 0 -277 118zM879 283q113 147 113 361q0 137 -73 218q-73 80 -198 80q-166 0 -277 -140
q-112 -142 -112 -358q0 -137 74 -222q74 -86 193 -86q167 0 280 147zM1361 126l764 792l3 16h-594l32 144h826l-29 -129l-758 -789l-3 -16h593l-31 -144h-830zM1923 1228l-210 340h185l129 -227h16l225 227h211l-354 -340h-202z" />
    <glyph glyph-name="uni01C7" unicode="&#x1c7;" horiz-adv-x="2265" 
d="M1000 0h-878l307 1443h184l-273 -1281h694zM1439 337q2 -94 62 -148t161 -54q208 0 265 269l221 1039h179l-228 -1080q-40 -191 -156 -293q-119 -104 -303 -104q-174 0 -283 106q-110 107 -99 265h181z" />
    <glyph glyph-name="uni01C8" unicode="&#x1c8;" horiz-adv-x="1679" 
d="M1000 0h-878l307 1443h184l-273 -1281h694zM1424 -107q-32 -151 -116 -221q-83 -69 -229 -70q-44 0 -81 4l33 152q32 -3 53 -3q76 0 115 36t58 125l247 1162h172zM1576 1332q-35 36 -35 85q0 50 35 85q36 35 85 35q50 0 85 -35t35 -85q0 -49 -35 -85q-35 -35 -85 -35
q-49 0 -85 35z" />
    <glyph glyph-name="uni01C9" unicode="&#x1c9;" horiz-adv-x="1032" 
d="M429 1506h176l-320 -1506h-176zM777 -107q-32 -151 -116 -221q-83 -69 -229 -70q-44 0 -81 4l33 152q32 -3 53 -3q76 0 115 36t58 125l247 1162h172zM929 1332q-35 36 -35 85q0 50 35 85q36 35 85 35q50 0 85 -35t35 -85q0 -49 -35 -85q-35 -35 -85 -35q-49 0 -85 35z
" />
    <glyph glyph-name="uni01CA" unicode="&#x1ca;" horiz-adv-x="2622" 
d="M122 0l307 1443h177l534 -1153h16l245 1153h182l-307 -1443h-179l-533 1150h-16l-244 -1150h-182zM1796 337q2 -94 62 -148t161 -54q208 0 265 269l221 1039h179l-228 -1080q-40 -191 -156 -293q-119 -104 -303 -104q-174 0 -283 106q-110 107 -99 265h181z" />
    <glyph glyph-name="uni01CB" unicode="&#x1cb;" horiz-adv-x="2036" 
d="M122 0l307 1443h177l534 -1153h16l245 1153h182l-307 -1443h-179l-533 1150h-16l-244 -1150h-182zM1781 -107q-32 -151 -116 -221q-83 -69 -229 -70q-44 0 -81 4l33 152q32 -3 53 -3q76 0 115 36t58 125l247 1162h172zM1933 1332q-35 36 -35 85q0 50 35 85q36 35 85 35
q50 0 85 -35t35 -85q0 -49 -35 -85q-35 -35 -85 -35q-49 0 -85 35z" />
    <glyph glyph-name="uni01CC" unicode="&#x1cc;" horiz-adv-x="1737" 
d="M328 1078h167l-34 -161h16q126 180 337 180q151 0 249 -98q93 -93 93 -226q0 -56 -14 -124l-138 -649h-175l132 619q13 63 13 105q0 98 -62 158q-64 60 -171 60q-122 0 -213 -81q-87 -78 -114 -203l-140 -658h-175zM1482 -107q-32 -151 -116 -221q-83 -69 -229 -70
q-44 0 -81 4l33 152q32 -3 53 -3q76 0 115 36t58 125l247 1162h172zM1634 1332q-35 36 -35 85q0 50 35 85q36 35 85 35q50 0 85 -35t35 -85q0 -49 -35 -85q-35 -35 -85 -35q-49 0 -85 35z" />
    <glyph glyph-name="uni01CD" unicode="&#x1cd;" horiz-adv-x="1380" 
d="M1015 413h-579l-232 -413h-193l845 1443h167l226 -1443h-176zM522 566h473l-95 641h-16zM693 1873h185l105 -186h16l183 186h207l-310 -298h-202z" />
    <glyph glyph-name="uni01CE" unicode="&#x1ce;" horiz-adv-x="1126" 
d="M703 202q93 71 117 181l27 124l-287 -14q-132 -7 -205 -58q-73 -52 -73 -137q0 -74 58 -121t149 -47q121 0 214 72zM200 67q-95 86 -95 212q0 159 120 251q121 92 345 102l306 14l16 73q6 33 6 51q0 82 -61 127q-61 46 -170 46q-186 0 -239 -135h-182q36 133 153 211
q118 78 282 78q178 0 285 -82q107 -83 107 -220q0 -43 -9 -88l-150 -707h-167l30 141h-16q-121 -160 -326 -160q-141 0 -235 86zM642 1228l-210 340h185l129 -227h16l225 227h211l-354 -340h-202z" />
    <glyph glyph-name="uni01CF" unicode="&#x1cf;" horiz-adv-x="550" 
d="M122 0l307 1443h184l-307 -1443h-184zM275 1873h185l105 -186h16l183 186h207l-310 -298h-202z" />
    <glyph glyph-name="uni01D0" unicode="&#x1d0;" horiz-adv-x="516" 
d="M340 1078h172l-229 -1078h-172zM370 1228l-210 340h185l129 -227h16l225 227h211l-354 -340h-202z" />
    <glyph glyph-name="uni01D1" unicode="&#x1d1;" horiz-adv-x="1579" 
d="M366 136q-166 169 -166 427q0 394 222 654t559 260q253 0 417 -169q165 -169 165 -428q0 -397 -220 -655q-220 -259 -557 -259q-253 0 -420 170zM1261 1186q-113 124 -294 124q-247 0 -412 -209q-165 -210 -165 -522q0 -200 113 -323t297 -123q248 0 411 207
q162 207 162 524q0 199 -112 322zM730 1871h185l105 -186h16l183 186h207l-310 -298h-202z" />
    <glyph glyph-name="uni01D2" unicode="&#x1d2;" horiz-adv-x="1210" 
d="M411 225q77 -89 206 -89q145 0 253 133q111 139 111 343q0 154 -72 242q-73 88 -199 88q-171 0 -273 -141q-100 -137 -100 -353q0 -137 74 -223zM276 106q-122 124 -122 321q0 283 151 472q160 198 421 198q197 0 319 -125q120 -123 120 -319q0 -277 -149 -467
q-161 -205 -421 -205q-197 0 -319 125zM668 1228l-210 340h185l129 -227h16l225 227h211l-354 -340h-202z" />
    <glyph glyph-name="uni01D3" unicode="&#x1d3;" horiz-adv-x="1524" 
d="M363 96q-127 122 -130 318q-1 60 13 130l188 899h184l-186 -887q-14 -68 -13 -133q6 -137 91 -212q90 -79 258 -79q162 0 277 95q117 97 152 264l203 952h184l-210 -987q-50 -236 -208 -360q-164 -130 -430 -130q-236 0 -373 130zM762 1873h185l105 -186h16l183 186h207
l-310 -298h-202z" />
    <glyph glyph-name="uni01D4" unicode="&#x1d4;" horiz-adv-x="1215" 
d="M996 0h-166l33 146h-16q-106 -165 -344 -165q-146 0 -239 90q-93 88 -93 223q0 67 15 140l135 644h175l-131 -619q-14 -68 -14 -121q0 -202 219 -202q128 0 223 83q93 81 120 211l138 648h174zM709 1228l-210 340h185l129 -227h16l225 227h211l-354 -340h-202z" />
    <glyph glyph-name="uni01D5" unicode="&#x1d5;" horiz-adv-x="1524" 
d="M363 96q-127 122 -130 318q-1 60 13 130l188 899h184l-186 -887q-14 -68 -13 -133q6 -137 91 -212q90 -79 258 -79q162 0 277 95q117 97 152 264l203 952h184l-210 -987q-50 -236 -208 -360q-164 -130 -430 -130q-236 0 -373 130zM803 2062h674l-28 -130h-674zM781 1609
q-35 34 -35 83t35 83q34 34 82 34q49 0 83 -34t34 -83t-34 -83t-83 -34q-48 0 -82 34zM1185 1609q-35 34 -35 83t35 83q34 34 82 34q49 0 83 -34t34 -83t-34 -83t-83 -34q-48 0 -82 34z" />
    <glyph glyph-name="uni01D6" unicode="&#x1d6;" horiz-adv-x="1215" 
d="M996 0h-166l33 146h-16q-106 -165 -344 -165q-146 0 -239 90q-93 88 -93 223q0 67 15 140l135 644h175l-131 -619q-14 -68 -14 -121q0 -202 219 -202q128 0 223 83q93 81 120 211l138 648h174zM536 1262q-34 34 -34 83t34 83t83 34t83 -34t34 -83t-34 -83t-83 -34t-83 34
zM940 1262q-34 34 -34 83t34 83t83 34t83 -34t34 -83t-34 -83t-83 -34t-83 34zM543 1620l29 136h674l-29 -136h-674z" />
    <glyph glyph-name="uni01D7" unicode="&#x1d7;" horiz-adv-x="1524" 
d="M363 96q-127 122 -130 318q-1 60 13 130l188 899h184l-186 -887q-14 -68 -13 -133q6 -137 91 -212q90 -79 258 -79q162 0 277 95q117 97 152 264l203 952h184l-210 -987q-50 -236 -208 -360q-164 -130 -430 -130q-236 0 -373 130zM1251 2095h227l-328 -222h-176z
M775 1610q-36 36 -36 86t36 86q35 35 85 35q51 0 86 -35q35 -36 35 -86t-35 -86q-35 -35 -86 -35q-50 0 -85 35zM1179 1610q-36 36 -36 86t36 86q35 35 85 35q51 0 86 -35q35 -36 35 -86t-35 -86q-35 -35 -86 -35q-50 0 -85 35z" />
    <glyph glyph-name="uni01D8" unicode="&#x1d8;" horiz-adv-x="1215" 
d="M996 0h-166l33 146h-16q-106 -165 -344 -165q-146 0 -239 90q-93 88 -93 223q0 67 15 140l135 644h175l-131 -619q-14 -68 -14 -121q0 -202 219 -202q128 0 223 83q93 81 120 211l138 648h174zM999 1873h198l-281 -298h-170zM534 1263q-35 36 -35 86t35 86q36 35 86 35
t86 -35q35 -36 35 -86t-35 -86q-36 -35 -86 -35t-86 35zM938 1263q-35 36 -35 86t35 86q36 35 86 35t86 -35q35 -36 35 -86t-35 -86q-36 -35 -86 -35t-86 35z" />
    <glyph glyph-name="uni01D9" unicode="&#x1d9;" horiz-adv-x="1524" 
d="M363 96q-127 122 -130 318q-1 60 13 130l188 899h184l-186 -887q-14 -68 -13 -133q6 -137 91 -212q90 -79 258 -79q162 0 277 95q117 97 152 264l203 952h184l-210 -987q-50 -236 -208 -360q-164 -130 -430 -130q-236 0 -373 130zM778 1609q-35 34 -35 83t35 83
q34 34 82 34q49 0 83 -34t34 -83t-34 -83t-83 -34q-48 0 -82 34zM1182 1609q-35 34 -35 83t35 83q34 34 82 34q49 0 83 -34t34 -83t-34 -83t-83 -34q-48 0 -82 34zM763 2095h212l135 -136h16l192 136h233l-342 -233h-202z" />
    <glyph glyph-name="uni01DA" unicode="&#x1da;" horiz-adv-x="1215" 
d="M996 0h-166l33 146h-16q-106 -165 -344 -165q-146 0 -239 90q-93 88 -93 223q0 67 15 140l135 644h175l-131 -619q-14 -68 -14 -121q0 -202 219 -202q128 0 223 83q93 81 120 211l138 648h174zM536 1262q-34 34 -34 83t34 83t83 34t83 -34t34 -83t-34 -83t-83 -34t-83 34
zM940 1262q-34 34 -34 83t34 83t83 34t83 -34t34 -83t-34 -83t-83 -34t-83 34zM530 1895h184l118 -207h16l205 207h211l-334 -320h-202z" />
    <glyph glyph-name="uni01DB" unicode="&#x1db;" horiz-adv-x="1524" 
d="M363 96q-127 122 -130 318q-1 60 13 130l188 899h184l-186 -887q-14 -68 -13 -133q6 -137 91 -212q90 -79 258 -79q162 0 277 95q117 97 152 264l203 952h184l-210 -987q-50 -236 -208 -360q-164 -130 -430 -130q-236 0 -373 130zM982 1873l-234 222h227l183 -222h-176z
M775 1610q-36 36 -36 86t36 86q35 35 85 35q51 0 86 -35q35 -36 35 -86t-35 -86q-35 -35 -86 -35q-50 0 -85 35zM1179 1610q-36 36 -36 86t36 86q35 35 85 35q51 0 86 -35q35 -36 35 -86t-35 -86q-35 -35 -86 -35q-50 0 -85 35z" />
    <glyph glyph-name="uni01DC" unicode="&#x1dc;" horiz-adv-x="1215" 
d="M996 0h-166l33 146h-16q-106 -165 -344 -165q-146 0 -239 90q-93 88 -93 223q0 67 15 140l135 644h175l-131 -619q-14 -68 -14 -121q0 -202 219 -202q128 0 223 83q93 81 120 211l138 648h174zM746 1575l-155 298h198l127 -298h-170zM534 1263q-35 36 -35 86t35 86
q36 35 86 35t86 -35q35 -36 35 -86t-35 -86q-36 -35 -86 -35t-86 35zM938 1263q-35 36 -35 86t35 86q36 35 86 35t86 -35q35 -36 35 -86t-35 -86q-36 -35 -86 -35t-86 35z" />
    <glyph glyph-name="uni01DE" unicode="&#x1de;" horiz-adv-x="1380" 
d="M1015 413h-579l-232 -413h-193l845 1443h167l226 -1443h-176zM522 566h473l-95 641h-16zM734 2062h674l-28 -130h-674zM711 1609q-34 34 -34 83t34 83t83 34t83 -34t34 -83t-34 -83t-83 -34t-83 34zM1115 1609q-34 34 -34 83t34 83t83 34t83 -34t34 -83t-34 -83t-83 -34
t-83 34z" />
    <glyph glyph-name="uni01DF" unicode="&#x1df;" horiz-adv-x="1126" 
d="M703 202q93 71 117 181l27 124l-287 -14q-132 -7 -205 -58q-73 -52 -73 -137q0 -74 58 -121t149 -47q121 0 214 72zM200 67q-95 86 -95 212q0 159 120 251q121 92 345 102l306 14l16 73q6 33 6 51q0 82 -61 127q-61 46 -170 46q-186 0 -239 -135h-182q36 133 153 211
q118 78 282 78q178 0 285 -82q107 -83 107 -220q0 -43 -9 -88l-150 -707h-167l30 141h-16q-121 -160 -326 -160q-141 0 -235 86zM469 1262q-34 34 -34 83t34 83t83 34t83 -34t34 -83t-34 -83t-83 -34t-83 34zM873 1262q-34 34 -34 83t34 83t83 34t83 -34t34 -83t-34 -83
t-83 -34t-83 34zM476 1620l29 136h674l-29 -136h-674z" />
    <glyph glyph-name="uni01E0" unicode="&#x1e0;" horiz-adv-x="1380" 
d="M1015 413h-579l-232 -413h-193l845 1443h167l226 -1443h-176zM522 566h473l-95 641h-16zM706 1932l28 130h674l-28 -130h-674zM909 1612q-35 35 -35 84q0 50 35 84q35 35 84 35q50 0 84 -35q35 -34 35 -84q0 -49 -35 -84q-34 -35 -84 -35q-49 0 -84 35z" />
    <glyph glyph-name="uni01E1" unicode="&#x1e1;" horiz-adv-x="1126" 
d="M703 202q93 71 117 181l27 124l-287 -14q-132 -7 -205 -58q-73 -52 -73 -137q0 -74 58 -121t149 -47q121 0 214 72zM200 67q-95 86 -95 212q0 159 120 251q121 92 345 102l306 14l16 73q6 33 6 51q0 82 -61 127q-61 46 -170 46q-186 0 -239 -135h-182q36 133 153 211
q118 78 282 78q178 0 285 -82q107 -83 107 -220q0 -43 -9 -88l-150 -707h-167l30 141h-16q-121 -160 -326 -160q-141 0 -235 86zM666 1262q-34 35 -34 85t34 85q35 34 85 34t85 -34q34 -35 34 -85t-34 -85q-35 -34 -85 -34t-85 34zM476 1620l29 136h674l-29 -136h-674z" />
    <glyph glyph-name="uni01E2" unicode="&#x1e2;" horiz-adv-x="1966" 
d="M1060 1292l-455 -680h457l145 680h-147zM1030 459h-527l-307 -459h-187l958 1443h1110l-35 -162h-658l-100 -473h621l-34 -160h-621l-104 -486h658l-34 -162h-838zM1079 1620l29 136h674l-29 -136h-674z" />
    <glyph glyph-name="uni01E3" unicode="&#x1e3;" horiz-adv-x="1874" 
d="M1039 46q-109 66 -152 175h-15q-59 -102 -169 -168q-118 -72 -248 -72q-154 0 -253 86q-97 84 -97 212q0 160 120 252q121 91 345 101l306 14l16 73q6 33 6 51q0 82 -61 127q-61 46 -170 46q-186 0 -239 -135h-182q36 133 153 211q118 78 282 78q254 0 346 -168h16
q141 168 364 168q174 0 288 -113q121 -120 122 -323q0 -86 -13 -162h-777q-2 -36 -2 -56q0 -154 86 -236q73 -69 184 -69q197 0 271 137h183q-34 -129 -157 -209q-130 -85 -320 -85q-126 0 -233 65zM1635 638q2 12 2 45q0 112 -62 184q-67 78 -184 78q-122 0 -214 -84
q-89 -82 -127 -223h585zM703 202q93 71 117 181l27 124l-287 -14q-132 -7 -205 -58q-73 -52 -73 -137q0 -74 58 -121t149 -47q121 0 214 72zM774 1286l29 136h674l-29 -136h-674z" />
    <glyph glyph-name="Gcaron" unicode="&#x1e6;" horiz-adv-x="1528" 
d="M1448 540q-60 -280 -233 -427q-172 -147 -440 -147q-257 0 -416 164q-158 164 -158 432q0 397 216 656t545 259q225 0 377 -126q153 -126 167 -323q1 -8 1 -36h-183q-11 146 -112 232q-102 86 -264 86q-238 0 -399 -210q-161 -209 -161 -519q0 -208 111 -328t302 -120
q172 0 298 107q127 107 162 283l11 55h-400l34 158h584zM706 1873h185l105 -186h16l183 186h207l-310 -298h-202z" />
    <glyph glyph-name="gcaron" unicode="&#x1e7;" horiz-adv-x="1247" 
d="M195 -321q-120 88 -130 215h183q12 -68 80 -111q74 -47 188 -47q272 0 329 242l47 200h-16q-116 -162 -326 -162q-167 0 -278 119q-114 122 -114 312q0 286 154 469q151 181 382 181q114 0 209 -61q96 -62 128 -157h16l42 199h167l-244 -1130q-36 -167 -168 -263
q-135 -98 -342 -98q-182 0 -307 92zM875 299q109 134 109 345q0 137 -75 218q-75 80 -202 80q-162 0 -265 -127q-104 -130 -104 -342q0 -143 71 -224t194 -81q165 0 272 131zM693 1228l-210 340h185l129 -227h16l225 227h211l-354 -340h-202z" />
    <glyph glyph-name="uni01E8" unicode="&#x1e8;" horiz-adv-x="1349" 
d="M122 0l307 1443h179l-149 -701h16l772 701h235l-702 -635l449 -808h-210l-381 697l-229 -204l-107 -493h-180zM641 1873h185l105 -186h16l183 186h207l-310 -298h-202z" />
    <glyph glyph-name="uni01E9" unicode="&#x1e9;" horiz-adv-x="1112" 
d="M980 1078h227l-565 -465l363 -613h-201l-301 516l-130 -94l-90 -422h-174l320 1506h174l-185 -870h16zM215 1936h185l105 -186h16l183 186h207l-310 -298h-202z" />
    <glyph glyph-name="uni01EA" unicode="&#x1ea;" horiz-adv-x="1579" 
d="M829 -381q-59 50 -59 142q0 105 91 193v16q-21 -4 -75 -4q-253 0 -420 170q-166 169 -166 427q0 394 222 654t559 260q253 0 417 -169q165 -169 165 -428q0 -524 -422 -831q-206 -150 -206 -254q0 -97 122 -97q32 0 45 3l-26 -123q-23 -10 -80 -10q-107 0 -167 51z
M1261 1186q-113 124 -294 124q-247 0 -412 -209q-165 -210 -165 -522q0 -200 113 -323t297 -123q248 0 411 207q162 207 162 524q0 199 -112 322z" />
    <glyph glyph-name="uni01EB" unicode="&#x1eb;" horiz-adv-x="1210" 
d="M567 -381q-59 50 -59 142q0 114 102 204v16h-15q-196 0 -318 124q-123 124 -123 322q0 294 160 482q161 188 412 188q196 0 317 -123q122 -123 122 -321q0 -196 -81 -357q-81 -162 -221 -245q-82 -49 -136 -122q-54 -72 -54 -134q0 -97 122 -97q32 0 45 3l-26 -123
q-23 -10 -80 -10q-107 0 -167 51zM414 222q77 -86 203 -86q151 0 257 140q107 139 107 336q0 154 -72 242t-199 88q-167 0 -270 -136q-103 -137 -103 -358q0 -140 77 -226z" />
    <glyph glyph-name="uni01EC" unicode="&#x1ec;" horiz-adv-x="1579" 
d="M829 -381q-59 50 -59 142q0 105 91 193v16q-21 -4 -75 -4q-253 0 -420 170q-166 169 -166 427q0 394 222 654t559 260q253 0 417 -169q165 -169 165 -428q0 -524 -422 -831q-206 -150 -206 -254q0 -97 122 -97q32 0 45 3l-26 -123q-23 -10 -80 -10q-107 0 -167 51z
M1261 1186q-113 124 -294 124q-247 0 -412 -209q-165 -210 -165 -522q0 -200 113 -323t297 -123q248 0 411 207q162 207 162 524q0 199 -112 322zM677 1618l29 136h674l-29 -136h-674z" />
    <glyph glyph-name="uni01ED" unicode="&#x1ed;" horiz-adv-x="1210" 
d="M431 1286l29 136h674l-29 -136h-674zM567 -381q-59 50 -59 142q0 114 102 204v16h-15q-196 0 -318 124q-123 124 -123 322q0 294 160 482q161 188 412 188q196 0 317 -123q122 -123 122 -321q0 -196 -81 -357q-81 -162 -221 -245q-82 -49 -136 -122q-54 -72 -54 -134
q0 -97 122 -97q32 0 45 3l-26 -123q-23 -10 -80 -10q-107 0 -167 51zM414 222q77 -86 203 -86q151 0 257 140q107 139 107 336q0 154 -72 242t-199 88q-167 0 -270 -136q-103 -137 -103 -358q0 -140 77 -226z" />
    <glyph glyph-name="uni01F1" unicode="&#x1f1;" horiz-adv-x="2842" 
d="M832 1443q299 0 465 -168q164 -167 164 -463q0 -347 -215 -580q-215 -232 -531 -232h-591l305 1443h403zM340 160h382q238 0 395 183q158 183 158 460q0 227 -120 353q-121 127 -337 127h-239zM1597 128l1048 1137l4 16h-779l34 162h1022l-27 -128l-1045 -1137l-3 -16
h820l-34 -162h-1067z" />
    <glyph glyph-name="uni01F2" unicode="&#x1f2;" horiz-adv-x="2591" 
d="M832 1443q299 0 465 -168q164 -167 164 -463q0 -347 -215 -580q-215 -232 -531 -232h-591l305 1443h403zM340 160h382q238 0 395 183q158 183 158 460q0 227 -120 353q-121 127 -337 127h-239zM1590 126l764 792l3 16h-594l32 144h826l-29 -129l-758 -789l-3 -16h593
l-31 -144h-830z" />
    <glyph glyph-name="uni01F3" unicode="&#x1f3;" horiz-adv-x="2362" 
d="M267 99q-115 123 -115 319q0 291 161 486q160 193 395 193q116 0 206 -61q88 -60 117 -157h16l133 627h175l-320 -1506h-166l31 147h-16q-127 -166 -340 -166q-166 0 -277 118zM879 283q113 147 113 361q0 137 -73 218q-73 80 -198 80q-166 0 -277 -140
q-112 -142 -112 -358q0 -137 74 -222q74 -86 193 -86q167 0 280 147zM1361 126l764 792l3 16h-594l32 144h826l-29 -129l-758 -789l-3 -16h593l-31 -144h-830z" />
    <glyph glyph-name="uni01F4" unicode="&#x1f4;" horiz-adv-x="1528" 
d="M1448 540q-60 -280 -233 -427q-172 -147 -440 -147q-257 0 -416 164q-158 164 -158 432q0 397 216 656t545 259q225 0 377 -126q153 -126 167 -323q1 -8 1 -36h-183q-11 146 -112 232q-102 86 -264 86q-238 0 -399 -210q-161 -209 -161 -519q0 -208 111 -328t302 -120
q172 0 298 107q127 107 162 283l11 55h-400l34 158h584zM1263 1873h226l-395 -298h-204z" />
    <glyph glyph-name="uni01F5" unicode="&#x1f5;" horiz-adv-x="1247" 
d="M195 -321q-120 88 -130 215h183q12 -68 80 -111q74 -47 188 -47q272 0 329 242l47 200h-16q-116 -162 -326 -162q-167 0 -278 119q-114 122 -114 312q0 286 154 469q151 181 382 181q114 0 209 -61q96 -62 128 -157h16l42 199h167l-244 -1130q-36 -167 -168 -263
q-135 -98 -342 -98q-182 0 -307 92zM875 299q109 134 109 345q0 137 -75 218q-75 80 -202 80q-162 0 -265 -127q-104 -130 -104 -342q0 -143 71 -224t194 -81q165 0 272 131zM1015 1601h220l-350 -338h-194z" />
    <glyph glyph-name="uni01F8" unicode="&#x1f8;" horiz-adv-x="1520" 
d="M122 0l307 1443h177l534 -1153h16l245 1153h182l-307 -1443h-179l-533 1150h-16l-244 -1150h-182zM1125 1575h-184l-206 298h206z" />
    <glyph glyph-name="uni01F9" unicode="&#x1f9;" horiz-adv-x="1215" 
d="M328 1078h167l-34 -161h16q126 180 337 180q151 0 249 -98q93 -93 93 -226q0 -56 -14 -124l-138 -649h-175l132 619q13 63 13 105q0 98 -62 158q-64 60 -171 60q-122 0 -213 -81q-87 -78 -114 -203l-140 -658h-175zM691 1263l-206 338h214l180 -338h-188z" />
    <glyph glyph-name="Aringacute" unicode="&#x1fa;" horiz-adv-x="1380" 
d="M1015 413h-579l-232 -413h-193l845 1443h167l226 -1443h-176zM522 566h473l-95 641h-16zM929 1658q28 -30 71 -30t71 30q29 29 29 72t-29 72q-28 30 -71 30t-71 -30q-29 -29 -29 -72t29 -72zM857 1590q-59 58 -59 141t59 141q59 57 143 57t143 -57q59 -58 59 -141
t-59 -141q-59 -57 -143 -57t-143 57zM1257 2173l-174 -181h-161l148 181h187z" />
    <glyph glyph-name="aringacute" unicode="&#x1fb;" horiz-adv-x="1126" 
d="M703 202q93 71 117 181l27 124l-287 -14q-132 -7 -205 -58q-73 -52 -73 -137q0 -74 58 -121t149 -47q121 0 214 72zM200 67q-95 86 -95 212q0 159 120 251q121 92 345 102l306 14l16 73q6 33 6 51q0 82 -61 127q-61 46 -170 46q-186 0 -239 -135h-182q36 133 153 211
q118 78 282 78q178 0 285 -82q107 -83 107 -220q0 -43 -9 -88l-150 -707h-167l30 141h-16q-121 -160 -326 -160q-141 0 -235 86zM623 1258q-59 58 -59 140t59 140t143 58t143 -58t59 -140t-59 -140t-143 -58t-143 58zM695 1324q29 -29 71 -29t71 29q29 30 29 73t-29 73
q-29 29 -71 29t-71 -29q-29 -30 -29 -73t29 -73zM895 1909h199l-242 -226h-171z" />
    <glyph glyph-name="AEacute" unicode="&#x1fc;" horiz-adv-x="1966" 
d="M1060 1292l-455 -680h457l145 680h-147zM1030 459h-527l-307 -459h-187l958 1443h1110l-35 -162h-658l-100 -473h621l-34 -160h-621l-104 -486h658l-34 -162h-838zM1689 1873h226l-395 -298h-204z" />
    <glyph glyph-name="aeacute" unicode="&#x1fd;" horiz-adv-x="1874" 
d="M1039 46q-109 66 -152 175h-15q-59 -102 -169 -168q-118 -72 -248 -72q-154 0 -253 86q-97 84 -97 212q0 160 120 252q121 91 345 101l306 14l16 73q6 33 6 51q0 82 -61 127q-61 46 -170 46q-186 0 -239 -135h-182q36 133 153 211q118 78 282 78q254 0 346 -168h16
q141 168 364 168q174 0 288 -113q121 -120 122 -323q0 -86 -13 -162h-777q-2 -36 -2 -56q0 -154 86 -236q73 -69 184 -69q197 0 271 137h183q-34 -129 -157 -209q-130 -85 -320 -85q-126 0 -233 65zM1635 638q2 12 2 45q0 112 -62 184q-67 78 -184 78q-122 0 -214 -84
q-89 -82 -127 -223h585zM703 202q93 71 117 181l27 124l-287 -14q-132 -7 -205 -58q-73 -52 -73 -137q0 -74 58 -121t149 -47q121 0 214 72zM1333 1601h220l-350 -338h-194z" />
    <glyph glyph-name="Oslashacute" unicode="&#x1fe;" horiz-adv-x="1551" 
d="M1118 1573h-204l373 298h226zM557 208q103 -75 243 -75q248 0 411 207q162 207 162 524q0 175 -88 294zM1197 1242q-97 68 -230 68q-247 0 -412 -209q-165 -210 -165 -522q0 -165 79 -280zM1399 1307q164 -169 164 -427q0 -397 -220 -655q-220 -259 -557 -259
q-190 0 -338 101l-87 -114l-100 76l93 120q-154 167 -154 414q0 394 222 654t559 260q182 0 325 -93l81 104l98 -69z" />
    <glyph glyph-name="oslashacute" unicode="&#x1ff;" horiz-adv-x="1212" 
d="M860 1263h-194l324 338h220zM432 204q73 -68 185 -68q145 0 253 133q111 139 111 343q0 99 -31 173zM887 877q-70 65 -177 65q-171 0 -273 -141q-100 -137 -100 -353q0 -82 29 -151zM1189 1054l-109 -123q85 -114 85 -278q0 -277 -149 -467q-161 -205 -421 -205
q-165 0 -281 91l-97 -109l-89 69l108 121q-82 115 -82 274q0 283 151 472q160 198 421 198q166 0 278 -89l99 110z" />
    <glyph glyph-name="uni0200" unicode="&#x200;" horiz-adv-x="1380" 
d="M1015 413h-579l-232 -413h-193l845 1443h167l226 -1443h-176zM522 566h473l-95 641h-16zM669 1575l-206 298h226l184 -298h-204zM1083 1575l-206 298h226l184 -298h-204z" />
    <glyph glyph-name="uni0201" unicode="&#x201;" horiz-adv-x="1126" 
d="M703 202q93 71 117 181l27 124l-287 -14q-132 -7 -205 -58q-73 -52 -73 -137q0 -74 58 -121t149 -47q121 0 214 72zM200 67q-95 86 -95 212q0 159 120 251q121 92 345 102l306 14l16 73q6 33 6 51q0 82 -61 127q-61 46 -170 46q-186 0 -239 -135h-182q36 133 153 211
q118 78 282 78q178 0 285 -82q107 -83 107 -220q0 -43 -9 -88l-150 -707h-167l30 141h-16q-121 -160 -326 -160q-141 0 -235 86zM414 1263l-208 338h204l180 -338h-176zM814 1263l-208 338h204l180 -338h-176z" />
    <glyph glyph-name="uni0202" unicode="&#x202;" horiz-adv-x="1380" 
d="M1015 413h-579l-232 -413h-193l845 1443h167l226 -1443h-176zM522 566h473l-95 641h-16zM1359 1575h-150v13q0 67 -57 112q-56 44 -139 44q-84 0 -142 -45t-78 -124h-154q26 137 130 218q103 80 248 80q152 0 247 -80t95 -208v-10z" />
    <glyph glyph-name="uni0203" unicode="&#x203;" horiz-adv-x="1126" 
d="M703 202q93 71 117 181l27 124l-287 -14q-132 -7 -205 -58q-73 -52 -73 -137q0 -74 58 -121t149 -47q121 0 214 72zM200 67q-95 86 -95 212q0 159 120 251q121 92 345 102l306 14l16 73q6 33 6 51q0 82 -61 127q-61 46 -170 46q-186 0 -239 -135h-182q36 133 153 211
q118 78 282 78q178 0 285 -82q107 -83 107 -220q0 -43 -9 -88l-150 -707h-167l30 141h-16q-121 -160 -326 -160q-141 0 -235 86zM979 1228q2 16 2 31q0 77 -54 123q-53 45 -144 45q-208 0 -237 -199h-156q14 148 122 238t278 90q152 0 249 -82q94 -81 94 -204q0 -19 -3 -42
h-151z" />
    <glyph glyph-name="uni0204" unicode="&#x204;" horiz-adv-x="1219" 
d="M1018 0h-896l307 1443h896l-35 -162h-711l-100 -463h675l-34 -160h-674l-106 -496h712zM606 1575l-206 298h226l184 -298h-204zM1020 1575l-206 298h226l184 -298h-204z" />
    <glyph glyph-name="uni0205" unicode="&#x205;" horiz-adv-x="1170" 
d="M285 97q-129 124 -129 335q0 297 157 482q156 183 404 183q174 0 288 -113q121 -120 122 -323q0 -86 -13 -162h-777q-2 -36 -2 -54q0 -154 86 -237q74 -70 184 -70q197 0 271 137h183q-34 -129 -155 -209q-127 -85 -310 -85q-188 0 -309 116zM945 638q2 12 2 45
q0 112 -62 184q-67 78 -184 78q-122 0 -214 -84q-89 -82 -127 -223h585zM425 1263l-208 338h204l180 -338h-176zM825 1263l-208 338h204l180 -338h-176z" />
    <glyph glyph-name="uni0206" unicode="&#x206;" horiz-adv-x="1219" 
d="M1018 0h-896l307 1443h896l-35 -162h-711l-100 -463h675l-34 -160h-674l-106 -496h712zM1296 1575h-150v13q0 67 -57 112q-56 44 -139 44q-84 0 -142 -45t-78 -124h-154q26 137 130 218q103 80 248 80q152 0 247 -80t95 -208v-10z" />
    <glyph glyph-name="uni0207" unicode="&#x207;" horiz-adv-x="1170" 
d="M285 97q-129 124 -129 335q0 297 157 482q156 183 404 183q174 0 288 -113q121 -120 122 -323q0 -86 -13 -162h-777q-2 -36 -2 -54q0 -154 86 -237q74 -70 184 -70q197 0 271 137h183q-34 -129 -155 -209q-127 -85 -310 -85q-188 0 -309 116zM945 638q2 12 2 45
q0 112 -62 184q-67 78 -184 78q-122 0 -214 -84q-89 -82 -127 -223h585zM990 1228q2 16 2 31q0 77 -54 123q-53 45 -144 45q-208 0 -237 -199h-156q14 148 122 238t278 90q152 0 249 -82q94 -81 94 -204q0 -19 -3 -42h-151z" />
    <glyph glyph-name="uni0208" unicode="&#x208;" horiz-adv-x="550" 
d="M122 0l307 1443h184l-307 -1443h-184zM251 1575l-206 298h226l184 -298h-204zM665 1575l-206 298h226l184 -298h-204z" />
    <glyph glyph-name="uni0209" unicode="&#x209;" horiz-adv-x="516" 
d="M341 1078h172l-229 -1078h-172zM143 1263l-208 338h204l180 -338h-176zM543 1263l-208 338h204l180 -338h-176z" />
    <glyph glyph-name="uni020A" unicode="&#x20a;" horiz-adv-x="550" 
d="M122 0l307 1443h184l-307 -1443h-184zM941 1575h-150v13q0 67 -57 112q-56 44 -139 44q-84 0 -142 -45t-78 -124h-154q26 137 130 218q103 80 248 80q152 0 247 -80t95 -208v-10z" />
    <glyph glyph-name="uni020B" unicode="&#x20b;" horiz-adv-x="516" 
d="M340 1078h172l-229 -1078h-172zM707 1228q2 16 2 31q0 77 -54 123q-53 45 -144 45q-208 0 -237 -199h-156q14 148 122 238t278 90q152 0 249 -82q94 -81 94 -204q0 -19 -3 -42h-151z" />
    <glyph glyph-name="uni020C" unicode="&#x20c;" horiz-adv-x="1579" 
d="M366 136q-166 169 -166 427q0 394 222 654t559 260q253 0 417 -169q165 -169 165 -428q0 -397 -220 -655q-220 -259 -557 -259q-253 0 -420 170zM1261 1186q-113 124 -294 124q-247 0 -412 -209q-165 -210 -165 -522q0 -200 113 -323t297 -123q248 0 411 207
q162 207 162 524q0 199 -112 322zM706 1573l-206 298h226l184 -298h-204zM1120 1573l-206 298h226l184 -298h-204z" />
    <glyph glyph-name="uni020D" unicode="&#x20d;" horiz-adv-x="1210" 
d="M411 225q77 -89 206 -89q145 0 253 133q111 139 111 343q0 154 -72 242q-73 88 -199 88q-171 0 -273 -141q-100 -137 -100 -353q0 -137 74 -223zM276 106q-122 124 -122 321q0 283 151 472q160 198 421 198q197 0 319 -125q120 -123 120 -319q0 -277 -149 -467
q-161 -205 -421 -205q-197 0 -319 125zM440 1263l-208 338h204l180 -338h-176zM840 1263l-208 338h204l180 -338h-176z" />
    <glyph glyph-name="uni020E" unicode="&#x20e;" horiz-adv-x="1579" 
d="M366 136q-166 169 -166 427q0 394 222 654t559 260q253 0 417 -169q165 -169 165 -428q0 -397 -220 -655q-220 -259 -557 -259q-253 0 -420 170zM1261 1186q-113 124 -294 124q-247 0 -412 -209q-165 -210 -165 -522q0 -200 113 -323t297 -123q248 0 411 207
q162 207 162 524q0 199 -112 322zM1396 1573h-150v13q0 67 -57 112q-56 44 -139 44q-84 0 -142 -45t-78 -124h-154q26 137 130 218q103 80 248 80q152 0 247 -80t95 -208v-10z" />
    <glyph glyph-name="uni020F" unicode="&#x20f;" horiz-adv-x="1210" 
d="M411 225q77 -89 206 -89q145 0 253 133q111 139 111 343q0 154 -72 242q-73 88 -199 88q-171 0 -273 -141q-100 -137 -100 -353q0 -137 74 -223zM276 106q-122 124 -122 321q0 283 151 472q160 198 421 198q197 0 319 -125q120 -123 120 -319q0 -277 -149 -467
q-161 -205 -421 -205q-197 0 -319 125zM1005 1228q2 16 2 31q0 77 -54 123q-53 45 -144 45q-208 0 -237 -199h-156q14 148 122 238t278 90q152 0 249 -82q94 -81 94 -204q0 -19 -3 -42h-151z" />
    <glyph glyph-name="uni0210" unicode="&#x210;" horiz-adv-x="1338" 
d="M429 1443h499q196 0 314 -104q117 -104 117 -278q0 -168 -105 -294q-106 -126 -282 -168l207 -599h-196l-188 571h-368l-121 -571h-184zM461 731h348q159 0 260 88q100 87 100 225q0 110 -66 174q-67 65 -180 65h-344zM562 1575l-206 298h226l184 -298h-204zM976 1575
l-206 298h226l184 -298h-204z" />
    <glyph glyph-name="uni0211" unicode="&#x211;" horiz-adv-x="765" 
d="M320 1078h166l-29 -137h16q104 156 289 156q87 0 126 -15l-37 -165q-58 13 -136 13q-252 0 -315 -293l-135 -637h-174zM284 1263l-208 338h204l180 -338h-176zM684 1263l-208 338h204l180 -338h-176z" />
    <glyph glyph-name="uni0212" unicode="&#x212;" horiz-adv-x="1338" 
d="M429 1443h499q196 0 314 -104q117 -104 117 -278q0 -168 -105 -294q-106 -126 -282 -168l207 -599h-196l-188 571h-368l-121 -571h-184zM461 731h348q159 0 260 88q100 87 100 225q0 110 -66 174q-67 65 -180 65h-344zM1252 1575h-150v13q0 67 -57 112q-56 44 -139 44
q-84 0 -142 -45t-78 -124h-154q26 137 130 218q103 80 248 80q152 0 247 -80t95 -208v-10z" />
    <glyph glyph-name="uni0213" unicode="&#x213;" horiz-adv-x="765" 
d="M320 1078h166l-29 -137h16q104 156 289 156q87 0 126 -15l-37 -165q-58 13 -136 13q-252 0 -315 -293l-135 -637h-174zM849 1228q2 16 2 31q0 77 -54 123q-53 45 -144 45q-208 0 -237 -199h-156q14 148 122 238t278 90q152 0 249 -82q94 -81 94 -204q0 -19 -3 -42h-151z
" />
    <glyph glyph-name="uni0214" unicode="&#x214;" horiz-adv-x="1524" 
d="M363 96q-127 122 -130 318q-1 60 13 130l188 899h184l-186 -887q-14 -68 -13 -133q6 -137 91 -212q90 -79 258 -79q162 0 277 95q117 97 152 264l203 952h184l-210 -987q-50 -236 -208 -360q-164 -130 -430 -130q-236 0 -373 130zM738 1575l-206 298h226l184 -298h-204z
M1152 1575l-206 298h226l184 -298h-204z" />
    <glyph glyph-name="uni0215" unicode="&#x215;" horiz-adv-x="1215" 
d="M996 0h-166l33 146h-16q-106 -165 -344 -165q-146 0 -239 90q-93 88 -93 223q0 67 15 140l135 644h175l-131 -619q-14 -68 -14 -121q0 -202 219 -202q128 0 223 83q93 81 120 211l138 648h174zM481 1263l-208 338h204l180 -338h-176zM881 1263l-208 338h204l180 -338
h-176z" />
    <glyph glyph-name="uni0216" unicode="&#x216;" horiz-adv-x="1524" 
d="M363 96q-127 122 -130 318q-1 60 13 130l188 899h184l-186 -887q-14 -68 -13 -133q6 -137 91 -212q90 -79 258 -79q162 0 277 95q117 97 152 264l203 952h184l-210 -987q-50 -236 -208 -360q-164 -130 -430 -130q-236 0 -373 130zM1428 1575h-150v13q0 67 -56 112
q-57 44 -140 44t-141 -45t-79 -124h-154q26 137 131 218q102 80 247 80q153 0 248 -80q94 -80 94 -208v-10z" />
    <glyph glyph-name="uni0217" unicode="&#x217;" horiz-adv-x="1215" 
d="M996 0h-166l33 146h-16q-106 -165 -344 -165q-146 0 -239 90q-93 88 -93 223q0 67 15 140l135 644h175l-131 -619q-14 -68 -14 -121q0 -202 219 -202q128 0 223 83q93 81 120 211l138 648h174zM1046 1228q2 16 2 31q0 77 -54 123q-53 45 -144 45q-208 0 -237 -199h-156
q14 148 122 238t278 90q152 0 249 -82q94 -81 94 -204q0 -19 -3 -42h-151z" />
    <glyph glyph-name="uni0218" unicode="&#x218;" horiz-adv-x="1276" 
d="M300 400q26 -125 126 -198q101 -73 247 -73q149 0 242 71q92 70 92 185q0 89 -62 150q-61 61 -201 110l-137 48q-148 52 -229 149q-82 97 -82 221q0 178 145 296q146 118 364 118q206 0 348 -118t158 -302h-181q-28 122 -116 189q-89 68 -220 68q-134 0 -221 -66
q-87 -67 -87 -169q0 -150 232 -234l130 -47q350 -126 350 -390q0 -196 -151 -319q-150 -123 -389 -123q-222 0 -366 116q-145 116 -174 318h182zM373 -518l182 377h182l-197 -377h-167z" />
    <glyph glyph-name="uni0219" unicode="&#x219;" horiz-adv-x="1052" 
d="M274 289q21 -73 86 -117q68 -46 167 -46q109 0 179 47t70 121q0 103 -135 146l-165 53q-250 81 -250 282q0 143 115 233q114 89 289 89q169 0 278 -81q105 -79 127 -214h-171q-17 70 -79 109q-64 40 -158 40q-99 0 -163 -45q-65 -45 -65 -115q0 -97 151 -146l146 -47
q135 -43 196 -113q61 -69 61 -178q0 -142 -123 -234t-311 -92q-177 0 -294 85q-116 85 -128 223h177zM211 -518l182 377h182l-197 -377h-167z" />
    <glyph glyph-name="uni021A" unicode="&#x21a;" horiz-adv-x="1298" 
d="M493 0l272 1281h-463l34 162h1110l-34 -162h-463l-272 -1281h-184zM300 -518l182 377h182l-197 -377h-167z" />
    <glyph glyph-name="uni021B" unicode="&#x21b;" horiz-adv-x="744" 
d="M298 46q-73 58 -73 164q0 40 11 93l135 631h-181l30 144h182l55 269h175l-57 -269h250l-30 -144h-250l-123 -578q-12 -57 -12 -97q0 -116 136 -116q38 0 69 4l-31 -145q-58 -10 -101 -10q-117 0 -185 54zM67 -518l182 377h182l-197 -377h-167z" />
    <glyph glyph-name="uni021E" unicode="&#x21e;" horiz-adv-x="1522" 
d="M1093 0l140 657h-788l-140 -657h-183l307 1443h184l-133 -624h788l133 624h184l-307 -1443h-185zM760 1873h185l105 -186h16l183 186h207l-310 -298h-202z" />
    <glyph glyph-name="uni021F" unicode="&#x21f;" horiz-adv-x="1236" 
d="M431 1506h175l-127 -589h16q126 180 333 180q153 0 252 -98q94 -93 94 -226q0 -56 -14 -124l-138 -649h-175l132 619q13 63 13 105q0 99 -63 158q-64 60 -174 60q-125 0 -216 -81q-88 -78 -115 -203l-140 -658h-175zM271 1936h185l105 -186h16l183 186h207l-310 -298
h-202z" />
    <glyph glyph-name="uni0226" unicode="&#x226;" horiz-adv-x="1380" 
d="M1015 413h-579l-232 -413h-193l845 1443h167l226 -1443h-176zM522 566h473l-95 641h-16zM908 1610q-35 36 -35 86t35 86q36 35 86 35t86 -35q35 -36 35 -86t-35 -86q-36 -35 -86 -35t-86 35z" />
    <glyph glyph-name="uni0227" unicode="&#x227;" horiz-adv-x="1126" 
d="M703 202q93 71 117 181l27 124l-287 -14q-132 -7 -205 -58q-73 -52 -73 -137q0 -74 58 -121t149 -47q121 0 214 72zM200 67q-95 86 -95 212q0 159 120 251q121 92 345 102l306 14l16 73q6 33 6 51q0 82 -61 127q-61 46 -170 46q-186 0 -239 -135h-182q36 133 153 211
q118 78 282 78q178 0 285 -82q107 -83 107 -220q0 -43 -9 -88l-150 -707h-167l30 141h-16q-121 -160 -326 -160q-141 0 -235 86zM680 1325q-38 38 -38 90t38 90q37 37 90 37t90 -37q38 -38 38 -90t-38 -90q-37 -38 -90 -38q-52 0 -90 38z" />
    <glyph glyph-name="uni0228" unicode="&#x228;" horiz-adv-x="1219" 
d="M579 1281l-100 -463h675l-34 -160h-674l-106 -496h712l-34 -162h-371l-87 -140q179 -20 179 -156q0 -85 -69 -140q-70 -55 -178 -55q-95 0 -175 36l23 108q65 -28 147 -28q104 0 104 70q0 72 -134 72h-53l13 90l89 143h-384l307 1443h896l-35 -162h-711z" />
    <glyph glyph-name="uni0229" unicode="&#x229;" horiz-adv-x="1170" 
d="M945 638q2 12 2 45q0 112 -62 184q-67 78 -184 78q-122 0 -214 -84q-89 -82 -127 -223h585zM337 499q-2 -36 -2 -54q0 -154 86 -237q74 -70 184 -70q197 0 271 137h183q-31 -117 -135 -195q-109 -82 -267 -96l-77 -124q179 -20 179 -156q0 -85 -69 -140q-70 -55 -178 -55
q-95 0 -175 36l23 108q65 -28 147 -28q104 0 104 70q0 72 -134 72h-53l13 90l80 130q-159 23 -257 137q-104 120 -104 308q0 297 157 482q156 183 404 183q174 0 288 -113q121 -120 122 -323q0 -86 -13 -162h-777z" />
    <glyph glyph-name="uni022A" unicode="&#x22a;" horiz-adv-x="1579" 
d="M366 136q-166 169 -166 427q0 394 222 654t559 260q253 0 417 -169q165 -169 165 -428q0 -397 -220 -655q-220 -259 -557 -259q-253 0 -420 170zM1261 1186q-113 124 -294 124q-247 0 -412 -209q-165 -210 -165 -522q0 -200 113 -323t297 -123q248 0 411 207
q162 207 162 524q0 199 -112 322zM771 2060h674l-28 -130h-674zM748 1607q-34 34 -34 83t34 83t83 34t83 -34t34 -83t-34 -83t-83 -34t-83 34zM1152 1607q-34 34 -34 83t34 83t83 34t83 -34t34 -83t-34 -83t-83 -34t-83 34z" />
    <glyph glyph-name="uni022B" unicode="&#x22b;" horiz-adv-x="1210" 
d="M411 225q77 -89 206 -89q145 0 253 133q111 139 111 343q0 154 -72 242q-73 88 -199 88q-171 0 -273 -141q-100 -137 -100 -353q0 -137 74 -223zM276 106q-122 124 -122 321q0 283 151 472q160 198 421 198q197 0 319 -125q120 -123 120 -319q0 -277 -149 -467
q-161 -205 -421 -205q-197 0 -319 125zM495 1262q-34 34 -34 83t34 83t83 34t83 -34t34 -83t-34 -83t-83 -34t-83 34zM899 1262q-34 34 -34 83t34 83t83 34t83 -34t34 -83t-34 -83t-83 -34t-83 34zM502 1620l29 136h674l-29 -136h-674z" />
    <glyph glyph-name="uni022C" unicode="&#x22c;" horiz-adv-x="1579" 
d="M366 136q-166 169 -166 427q0 394 222 654t559 260q253 0 417 -169q165 -169 165 -428q0 -397 -220 -655q-220 -259 -557 -259q-253 0 -420 170zM1261 1186q-113 124 -294 124q-247 0 -412 -209q-165 -210 -165 -522q0 -200 113 -323t297 -123q248 0 411 207
q162 207 162 524q0 199 -112 322zM743 1930l28 130h674l-28 -130h-674zM1013 1634q-75 62 -108 62q-83 0 -114 -98h-142q19 110 95 174q69 59 160 59q74 0 149 -62t108 -62q83 0 114 98h142q-19 -110 -95 -174q-69 -59 -160 -59q-74 0 -149 62z" />
    <glyph glyph-name="uni022D" unicode="&#x22d;" horiz-adv-x="1210" 
d="M411 225q77 -89 206 -89q145 0 253 133q111 139 111 343q0 154 -72 242q-73 88 -199 88q-171 0 -273 -141q-100 -137 -100 -353q0 -137 74 -223zM276 106q-122 124 -122 321q0 283 151 472q160 198 421 198q197 0 319 -125q120 -123 120 -319q0 -277 -149 -467
q-161 -205 -421 -205q-197 0 -319 125zM773 1309l-57 63q-31 29 -63 29q-88 0 -114 -139h-142q15 130 89 204q71 70 174 70q97 0 178 -92q50 -57 57 -63q31 -29 63 -29q89 0 115 139h142q-15 -130 -89 -204q-71 -70 -174 -70q-98 0 -179 92zM490 1626l29 136h674l-29 -136
h-674z" />
    <glyph glyph-name="uni022E" unicode="&#x22e;" horiz-adv-x="1579" 
d="M366 136q-166 169 -166 427q0 394 222 654t559 260q253 0 417 -169q165 -169 165 -428q0 -397 -220 -655q-220 -259 -557 -259q-253 0 -420 170zM1261 1186q-113 124 -294 124q-247 0 -412 -209q-165 -210 -165 -522q0 -200 113 -323t297 -123q248 0 411 207
q162 207 162 524q0 199 -112 322zM945 1608q-35 36 -35 86t35 86q36 35 86 35t86 -35q35 -36 35 -86t-35 -86q-36 -35 -86 -35t-86 35z" />
    <glyph glyph-name="uni022F" unicode="&#x22f;" horiz-adv-x="1210" 
d="M411 225q77 -89 206 -89q145 0 253 133q111 139 111 343q0 154 -72 242q-73 88 -199 88q-171 0 -273 -141q-100 -137 -100 -353q0 -137 74 -223zM276 106q-122 124 -122 321q0 283 151 472q160 198 421 198q197 0 319 -125q120 -123 120 -319q0 -277 -149 -467
q-161 -205 -421 -205q-197 0 -319 125zM706 1325q-38 38 -38 90t38 90q37 37 90 37t90 -37q38 -38 38 -90t-38 -90q-37 -38 -90 -38q-52 0 -90 38z" />
    <glyph glyph-name="uni0230" unicode="&#x230;" horiz-adv-x="1579" 
d="M366 136q-166 169 -166 427q0 394 222 654t559 260q253 0 417 -169q165 -169 165 -428q0 -397 -220 -655q-220 -259 -557 -259q-253 0 -420 170zM1261 1186q-113 124 -294 124q-247 0 -412 -209q-165 -210 -165 -522q0 -200 113 -323t297 -123q248 0 411 207
q162 207 162 524q0 199 -112 322zM743 1930l28 130h674l-28 -130h-674zM946 1610q-35 35 -35 84q0 50 35 84q35 35 84 35q50 0 84 -35q35 -34 35 -84q0 -49 -35 -84q-34 -35 -84 -35q-49 0 -84 35z" />
    <glyph glyph-name="uni0231" unicode="&#x231;" horiz-adv-x="1210" 
d="M411 225q77 -89 206 -89q145 0 253 133q111 139 111 343q0 154 -72 242q-73 88 -199 88q-171 0 -273 -141q-100 -137 -100 -353q0 -137 74 -223zM276 106q-122 124 -122 321q0 283 151 472q160 198 421 198q197 0 319 -125q120 -123 120 -319q0 -277 -149 -467
q-161 -205 -421 -205q-197 0 -319 125zM692 1262q-34 35 -34 85t34 85q35 34 85 34t85 -34q34 -35 34 -85t-34 -85q-35 -34 -85 -34t-85 34zM502 1620l29 136h674l-29 -136h-674z" />
    <glyph glyph-name="uni0232" unicode="&#x232;" horiz-adv-x="1344" 
d="M520 0l132 621l-336 822h187l268 -649h16l526 649h207l-692 -848l-124 -595h-184zM618 1620l29 136h674l-29 -136h-674z" />
    <glyph glyph-name="uni0233" unicode="&#x233;" horiz-adv-x="1112" 
d="M39 -380l26 147q39 -13 102 -13q108 0 205 181l39 73l-175 1070h171l128 -857h16l472 857h189l-686 -1196q-91 -159 -177 -219q-77 -55 -192 -55q-37 0 -118 12zM432 1286l29 136h674l-29 -136h-674z" />
    <glyph glyph-name="uni0237" unicode="&#x237;" horiz-adv-x="516" 
d="M262 -107q-32 -151 -116 -221q-83 -69 -229 -70q-44 0 -81 4l33 152q32 -3 53 -3q76 0 115 36t58 125l247 1162h172z" />
    <glyph glyph-name="circumflex" unicode="&#x2c6;" horiz-adv-x="1094" 
d="M1130 1228h-187l-129 227h-16l-225 -227h-209l354 340h202z" />
    <glyph glyph-name="caron" unicode="&#x2c7;" horiz-adv-x="1094" 
d="M646 1228l-210 340h185l129 -227h16l225 227h211l-354 -340h-202z" />
    <glyph glyph-name="breve" unicode="&#x2d8;" horiz-adv-x="1094" 
d="M610 1556q-2 -16 -2 -31q0 -77 54 -123q53 -45 144 -45q208 0 237 199h156q-14 -148 -122 -237q-108 -91 -278 -91q-161 0 -254 82q-89 79 -89 204q0 20 3 42h151z" />
    <glyph glyph-name="dotaccent" unicode="&#x2d9;" horiz-adv-x="1094" 
d="M697 1325q-38 38 -38 90t38 90q37 37 90 37t90 -37q38 -38 38 -90t-38 -90q-37 -38 -90 -38q-52 0 -90 38z" />
    <glyph glyph-name="ring" unicode="&#x2da;" horiz-adv-x="1095" 
d="M632 1294q-68 67 -68 163t68 163q68 66 164 66t164 -66q68 -67 68 -163t-68 -163q-68 -66 -164 -66t-164 66zM883 1369q35 35 35 88t-35 88t-87 35t-87 -35t-35 -88t35 -88t87 -35t87 35z" />
    <glyph glyph-name="ogonek" unicode="&#x2db;" horiz-adv-x="1094" 
d="M571 -422q-23 -10 -80 -10q-107 0 -167 51q-59 50 -59 142q0 86 66 174t170 140l119 -24q-83 -51 -137 -123q-53 -72 -53 -133q0 -97 122 -97q30 0 45 3z" />
    <glyph glyph-name="tilde" unicode="&#x2dc;" horiz-adv-x="1094" 
d="M770 1341l-57 63q-31 29 -63 29q-88 0 -114 -139h-142q15 130 89 204q71 70 174 70q97 0 178 -92q50 -57 57 -63q31 -29 63 -29q89 0 115 139h142q-15 -130 -89 -204q-71 -70 -174 -70q-98 0 -179 92z" />
    <glyph glyph-name="hungarumlaut" unicode="&#x2dd;" horiz-adv-x="1094" 
d="M1047 1601h210l-352 -338h-182zM647 1601h210l-352 -338h-182z" />
    <glyph glyph-name="gravecomb" unicode="&#x300;" 
d="M79 1263l-206 338h214l180 -338h-188z" />
    <glyph glyph-name="acutecomb" unicode="&#x301;" 
d="M434 1601h220l-350 -338h-194z" />
    <glyph glyph-name="uni0302" unicode="&#x302;" 
d="M573 1228h-187l-129 227h-16l-225 -227h-209l354 340h202z" />
    <glyph glyph-name="tildecomb" unicode="&#x303;" 
d="M218 1309l-57 63q-31 29 -63 29q-88 0 -114 -139h-142q15 130 89 204q71 70 174 70q97 0 178 -92q50 -57 57 -63q31 -29 63 -29q89 0 115 139h142q-15 -130 -89 -204q-71 -70 -174 -70q-98 0 -179 92z" />
    <glyph glyph-name="uni0304" unicode="&#x304;" 
d="M-124 1286l29 136h674l-29 -136h-674z" />
    <glyph glyph-name="uni0306" unicode="&#x306;" 
d="M23 1556q-2 -16 -2 -31q0 -77 54 -123q53 -45 144 -45q208 0 237 199h156q-14 -148 -122 -237q-108 -91 -278 -91q-161 0 -254 82q-89 79 -89 204q0 20 3 42h151z" />
    <glyph glyph-name="uni0307" unicode="&#x307;" 
d="M150 1325q-38 38 -38 90t38 90q37 37 90 37t90 -37q38 -38 38 -90t-38 -90q-37 -38 -90 -38q-52 0 -90 38z" />
    <glyph glyph-name="uni0308" unicode="&#x308;" 
d="M-62 1263q-35 36 -35 86t35 86q36 35 86 35t86 -35q35 -36 35 -86t-35 -86q-36 -35 -86 -35t-86 35zM342 1263q-35 36 -35 86t35 86q36 35 86 35t86 -35q35 -36 35 -86t-35 -86q-36 -35 -86 -35t-86 35z" />
    <glyph glyph-name="hookabovecomb" unicode="&#x309;" 
d="M125 1584q33 11 95 11q106 0 167 -47t61 -129t-61 -143q-62 -62 -170 -89l-52 107q132 28 132 109q0 33 -28 53q-29 20 -76 20q-50 0 -93 -10z" />
    <glyph glyph-name="uni030A" unicode="&#x30a;" 
d="M85 1294q-68 67 -68 163t68 163q68 66 164 66t164 -66q68 -67 68 -163t-68 -163q-68 -66 -164 -66t-164 66zM336 1369q35 35 35 88t-35 88t-87 35t-87 -35t-35 -88t35 -88t87 -35t87 35z" />
    <glyph glyph-name="uni030B" unicode="&#x30b;" 
d="M642 1601h210l-352 -338h-182zM242 1601h210l-352 -338h-182z" />
    <glyph glyph-name="uni030C" unicode="&#x30c;" 
d="M113 1228l-210 340h185l129 -227h16l225 227h211l-354 -340h-202z" />
    <glyph glyph-name="uni030F" unicode="&#x30f;" 
d="M-115 1263l-208 338h204l180 -338h-176zM285 1263l-208 338h204l180 -338h-176z" />
    <glyph glyph-name="uni0311" unicode="&#x311;" 
d="M450 1228q2 16 2 31q0 77 -54 123q-53 45 -144 45q-208 0 -237 -199h-156q14 148 122 238t278 90q152 0 249 -82q94 -81 94 -204q0 -19 -3 -42h-151z" />
    <glyph glyph-name="uni031B" unicode="&#x31b;" 
d="M-21 1111q31 -43 100 -43q62 0 96 34q34 35 52 119l37 176h158l-48 -224q-53 -245 -292 -245q-87 0 -133 44z" />
    <glyph glyph-name="dotbelowcomb" unicode="&#x323;" 
d="M-206 -367q-35 36 -35 86t35 86q36 35 86 35t86 -35q35 -36 35 -86t-35 -86q-36 -35 -86 -35t-86 35z" />
    <glyph glyph-name="uni0324" unicode="&#x324;" 
d="M-414 -397q-35 36 -35 86t35 86q36 35 86 35t86 -35q35 -36 35 -86t-35 -86q-36 -35 -86 -35t-86 35zM-10 -397q-35 36 -35 86t35 86q36 35 86 35t86 -35q35 -36 35 -86t-35 -86q-36 -35 -86 -35t-86 35z" />
    <glyph glyph-name="uni0325" unicode="&#x325;" 
d="M-297 -507q-68 67 -68 163t68 163q68 66 164 66t164 -66q68 -67 68 -163t-68 -163q-68 -66 -164 -66t-164 66zM-46 -432q35 35 35 88t-35 88t-87 35t-87 -35t-35 -88t35 -88t87 -35t87 35z" />
    <glyph glyph-name="uni0326" unicode="&#x326;" 
d="M-348 -518l182 377h182l-197 -377h-167z" />
    <glyph glyph-name="uni0327" unicode="&#x327;" 
d="M-213 -143l113 182h141l-111 -179q179 -20 179 -156q0 -85 -69 -140q-70 -55 -178 -55q-95 0 -175 36l23 108q65 -28 147 -28q104 0 104 70q0 72 -134 72h-53z" />
    <glyph glyph-name="uni0328" unicode="&#x328;" 
d="M-24 -422q-23 -10 -80 -10q-107 0 -167 51q-59 50 -59 142q0 86 66 174t170 140l119 -24q-83 -51 -137 -123q-53 -72 -53 -133q0 -97 122 -97q30 0 45 3z" />
    <glyph glyph-name="uni032D" unicode="&#x32d;" 
d="M230 -432h-202l-135 173h-16l-209 -173h-202l362 290h164z" />
    <glyph glyph-name="uni032E" unicode="&#x32e;" 
d="M216 -134q-26 -137 -130 -218q-103 -80 -248 -80q-152 0 -247 80t-95 208v10h152q4 -77 57 -123q52 -46 137 -46q84 0 142 45t78 124h154z" />
    <glyph glyph-name="uni0330" unicode="&#x330;" 
d="M-146 -345q-84 85 -125 85q-90 0 -114 -126h-142q21 127 94 197q68 64 165 64q93 0 177 -85q84 -86 125 -86q91 0 115 126h142q-21 -127 -94 -196q-68 -65 -165 -65q-94 0 -178 86z" />
    <glyph glyph-name="uni0331" unicode="&#x331;" 
d="M-471 -348l29 136h674l-29 -136h-674z" />
    <glyph glyph-name="uni037E" unicode="&#x37e;" horiz-adv-x="608" 
d="M-24 -367l217 569h202l-269 -569h-150zM313 797q-38 39 -38 92q0 54 38 92q39 38 92 38q54 0 92 -38t38 -92q0 -53 -38 -92q-38 -38 -92 -38q-53 0 -92 38z" />
    <glyph glyph-name="tonos" unicode="&#x384;" horiz-adv-x="936" 
d="M528 1263l160 338h206l-207 -338h-159z" />
    <glyph glyph-name="dieresistonos" unicode="&#x385;" horiz-adv-x="1355" 
d="M781 1263l110 338h196l-157 -338h-149zM507 1293q-30 30 -30 74q0 56 38 96q40 42 101 42q45 0 75 -30q30 -29 30 -73q0 -57 -38 -97q-40 -42 -101 -42q-45 0 -75 30zM1127 1293q-30 30 -30 74q0 56 38 96q40 42 101 42q45 0 75 -30q30 -29 30 -73q0 -57 -38 -97
q-40 -42 -101 -42q-45 0 -75 30z" />
    <glyph glyph-name="Alphatonos" unicode="&#x386;" horiz-adv-x="1382" 
d="M1017 413h-579l-232 -413h-193l845 1443h167l226 -1443h-176zM524 566h473l-95 641h-16zM246 1105l160 338h206l-207 -338h-159z" />
    <glyph glyph-name="anoteleia" unicode="&#x387;" horiz-adv-x="630" 
d="M352 834q-40 40 -40 102t40 102t102 40q61 0 101 -40q39 -40 39 -102t-39 -102q-40 -40 -101 -40q-62 0 -102 40z" />
    <glyph glyph-name="Epsilontonos" unicode="&#x388;" horiz-adv-x="1583" 
d="M1381 0h-896l307 1443h896l-35 -162h-711l-100 -463h675l-34 -160h-674l-106 -496h712zM247 1105l160 338h206l-207 -338h-159z" />
    <glyph glyph-name="Etatonos" unicode="&#x389;" horiz-adv-x="1883" 
d="M1456 0l140 657h-788l-140 -657h-183l307 1443h184l-133 -624h788l133 624h184l-307 -1443h-185zM247 1105l160 338h206l-207 -338h-159z" />
    <glyph glyph-name="Iotatonos" unicode="&#x38a;" horiz-adv-x="911" 
d="M485 0l307 1443h184l-307 -1443h-184zM247 1105l160 338h206l-207 -338h-159z" />
    <glyph glyph-name="Omicrontonos" unicode="&#x38c;" horiz-adv-x="1842" 
d="M628 136q-166 169 -166 427q0 394 222 654t559 260q253 0 417 -169q165 -169 165 -428q0 -397 -220 -655q-220 -259 -557 -259q-253 0 -420 170zM1523 1186q-113 124 -294 124q-247 0 -412 -209q-165 -210 -165 -522q0 -200 113 -323t297 -123q248 0 411 207
q162 207 162 524q0 199 -112 322zM247 1105l160 338h206l-207 -338h-159z" />
    <glyph glyph-name="Upsilontonos" unicode="&#x38e;" horiz-adv-x="1707" 
d="M883 0l132 621l-336 822h187l268 -649h16l526 649h207l-692 -848l-124 -595h-184zM247 1105l160 338h206l-207 -338h-159z" />
    <glyph glyph-name="Omegatonos" unicode="&#x38f;" horiz-adv-x="1887" 
d="M1228 204q423 249 423 689q0 192 -111 304q-112 113 -309 113q-249 0 -396 -168q-148 -168 -148 -451q0 -326 273 -487l-44 -204h-526l35 162h311l4 18q-239 177 -239 508q0 352 207 570q208 219 547 219q269 0 427 -156q156 -155 156 -415q0 -222 -109 -418
q-108 -196 -291 -308l-4 -18h311l-35 -162h-526zM247 1105l160 338h206l-207 -338h-159z" />
    <glyph glyph-name="iotadieresistonos" unicode="&#x390;" horiz-adv-x="583" 
d="M332 356q-12 -57 -12 -97q0 -116 135 -116q52 0 80 4l-31 -145q-61 -10 -112 -10q-121 0 -189 58q-68 57 -68 160q0 36 11 93l166 775h174zM361 1263l110 338h196l-157 -338h-149zM87 1293q-30 30 -30 74q0 56 38 96q40 42 101 42q45 0 75 -30q30 -29 30 -73
q0 -57 -38 -97q-40 -42 -101 -42q-45 0 -75 30zM707 1293q-30 30 -30 74q0 56 38 96q40 42 101 42q45 0 75 -30q30 -29 30 -73q0 -57 -38 -97q-40 -42 -101 -42q-45 0 -75 30z" />
    <glyph glyph-name="Alpha" unicode="&#x391;" horiz-adv-x="1380" 
d="M1015 413h-579l-232 -413h-193l845 1443h167l226 -1443h-176zM522 566h473l-95 641h-16z" />
    <glyph glyph-name="Beta" unicode="&#x392;" horiz-adv-x="1346" 
d="M122 0l307 1443h501q185 0 295 -87q111 -86 111 -231q0 -136 -85 -237q-85 -100 -227 -131l-4 -16q116 -20 183 -96q66 -75 66 -187q0 -200 -157 -329q-156 -129 -400 -129h-590zM480 821h298q165 0 268 74t103 193q0 196 -288 196h-283zM706 159q159 0 266 81
q106 82 106 203q0 223 -296 223h-335l-108 -507h367z" />
    <glyph glyph-name="Gamma" unicode="&#x393;" horiz-adv-x="1140" 
d="M122 0l307 1443h858l-35 -162h-673l-272 -1281h-185z" />
    <glyph glyph-name="uni0394" unicode="&#x394;" horiz-adv-x="1394" 
d="M44 0l27 126l791 1317h167l226 -1317l-27 -126h-1184zM290 177l-3 -15h784l3 13l-170 1046h-6z" />
    <glyph glyph-name="Epsilon" unicode="&#x395;" horiz-adv-x="1220" 
d="M1018 0h-896l307 1443h896l-35 -162h-711l-100 -463h675l-34 -160h-674l-106 -496h712z" />
    <glyph glyph-name="Zeta" unicode="&#x396;" horiz-adv-x="1355" 
d="M110 128l1048 1137l4 16h-779l34 162h1022l-27 -128l-1045 -1137l-3 -16h820l-34 -162h-1067z" />
    <glyph glyph-name="Eta" unicode="&#x397;" horiz-adv-x="1522" 
d="M1093 0l140 657h-788l-140 -657h-183l307 1443h184l-133 -624h788l133 624h184l-307 -1443h-185z" />
    <glyph glyph-name="Theta" unicode="&#x398;" horiz-adv-x="1581" 
d="M562 638l35 162h605l-35 -162h-605zM345 120q-146 153 -146 434q0 410 221 667q221 256 574 256q279 0 425 -153q146 -152 146 -444q0 -404 -225 -659t-581 -255q-268 0 -414 154zM1276 1195q-104 116 -305 116q-257 0 -422 -205q-164 -205 -164 -526q0 -215 105 -332
q105 -116 300 -116q256 0 422 204q167 205 167 519q0 224 -103 340z" />
    <glyph glyph-name="Iota" unicode="&#x399;" horiz-adv-x="550" 
d="M122 0l307 1443h184l-307 -1443h-184z" />
    <glyph glyph-name="Kappa" unicode="&#x39a;" horiz-adv-x="1349" 
d="M122 0l307 1443h179l-149 -701h16l772 701h235l-702 -635l449 -808h-210l-381 697l-229 -204l-107 -493h-180z" />
    <glyph glyph-name="Lambda" unicode="&#x39b;" horiz-adv-x="1368" 
d="M217 0h-193l825 1443h167l206 -1443h-176l-153 1207h-16z" />
    <glyph glyph-name="Mu" unicode="&#x39c;" horiz-adv-x="1792" 
d="M122 0l307 1443h200l242 -1194h16l746 1194h222l-307 -1443h-172l234 1102h-12l-685 -1092h-152l-221 1092h-12l-234 -1102h-172z" />
    <glyph glyph-name="Nu" unicode="&#x39d;" horiz-adv-x="1520" 
d="M122 0l307 1443h177l534 -1153h16l245 1153h182l-307 -1443h-179l-533 1150h-16l-244 -1150h-182z" />
    <glyph glyph-name="Xi" unicode="&#x39e;" horiz-adv-x="1343" 
d="M1447 1443l-35 -167h-1059l35 167h1059zM307 653l36 165h885l-36 -165h-885zM1176 167l-35 -167h-1059l35 167h1059z" />
    <glyph glyph-name="Omicron" unicode="&#x39f;" horiz-adv-x="1577" 
d="M365 136q-166 169 -166 427q0 394 222 654t559 260q253 0 417 -169q165 -169 165 -428q0 -397 -220 -655q-220 -259 -557 -259q-253 0 -420 170zM1260 1186q-113 124 -294 124q-247 0 -412 -209q-165 -210 -165 -522q0 -200 113 -323t297 -123q248 0 411 207
q162 207 162 524q0 199 -112 322z" />
    <glyph glyph-name="Pi" unicode="&#x3a0;" horiz-adv-x="1502" 
d="M1073 0l273 1281h-768l-273 -1281h-183l307 1443h1136l-307 -1443h-185z" />
    <glyph glyph-name="Rho" unicode="&#x3a1;" horiz-adv-x="1301" 
d="M936 1443q177 0 293 -105q121 -110 121 -285q0 -246 -167 -395q-160 -143 -408 -143h-360l-109 -515h-184l307 1443h507zM449 675h315q182 0 288 94q110 97 110 268q0 116 -78 182q-78 64 -211 64h-294z" />
    <glyph glyph-name="Sigma" unicode="&#x3a3;" horiz-adv-x="1355" 
d="M349 162h835l-34 -162h-1067l27 128l541 620l-263 561l28 134h1022l-34 -162h-799l-2 -7l239 -515l-7 -30l-484 -560z" />
    <glyph glyph-name="Tau" unicode="&#x3a4;" horiz-adv-x="1298" 
d="M493 0l272 1281h-463l34 162h1110l-34 -162h-463l-272 -1281h-184z" />
    <glyph glyph-name="Upsilon" unicode="&#x3a5;" horiz-adv-x="1344" 
d="M520 0l132 621l-336 822h187l268 -649h16l526 649h207l-692 -848l-124 -595h-184z" />
    <glyph glyph-name="Phi" unicode="&#x3a6;" horiz-adv-x="1715" 
d="M722 85q-249 24 -385 161q-136 138 -136 365q0 319 221 526q220 206 569 214l31 146h184l-31 -146q250 -25 385 -162q136 -137 136 -366q0 -318 -220 -524q-221 -206 -569 -214l-31 -143h-184zM956 1189q-254 0 -411 -156q-157 -155 -157 -403q0 -173 95 -272t273 -112z
M941 247q255 0 412 154q156 155 156 406q0 172 -95 271q-96 100 -273 112z" />
    <glyph glyph-name="Chi" unicode="&#x3a7;" horiz-adv-x="1390" 
d="M685 752l-323 691h206l249 -574h16l508 574h205l-649 -727l332 -716h-194l-268 586h-16l-517 -586h-204z" />
    <glyph glyph-name="Psi" unicode="&#x3a8;" horiz-adv-x="1676" 
d="M685 0l72 339q-472 51 -472 430q0 56 14 129l114 545h184l-113 -539q-16 -73 -16 -136q0 -241 325 -263l199 938h184l-199 -938q396 0 480 399l114 539h184l-115 -545q-58 -273 -211 -403q-166 -140 -487 -156l-72 -339h-185z" />
    <glyph glyph-name="uni03A9" unicode="&#x3a9;" horiz-adv-x="1590" 
d="M931 204q423 249 423 689q0 192 -111 304q-112 113 -309 113q-249 0 -396 -168q-148 -168 -148 -451q0 -326 273 -487l-44 -204h-526l35 162h311l4 18q-239 177 -239 508q0 352 207 570q208 219 547 219q269 0 427 -156q156 -155 156 -415q0 -222 -109 -418
q-108 -196 -291 -308l-4 -18h311l-35 -162h-526z" />
    <glyph glyph-name="Iotadieresis" unicode="&#x3aa;" horiz-adv-x="548" 
d="M122 0l307 1443h184l-307 -1443h-184zM287 1610q-35 36 -35 86t35 86q36 35 86 35t86 -35q35 -36 35 -86t-35 -86q-36 -35 -86 -35t-86 35zM691 1610q-35 36 -35 86t35 86q36 35 86 35t86 -35q35 -36 35 -86t-35 -86q-36 -35 -86 -35t-86 35z" />
    <glyph glyph-name="Upsilondieresis" unicode="&#x3ab;" horiz-adv-x="1344" 
d="M520 0l132 621l-336 822h187l268 -649h16l526 649h207l-692 -848l-124 -595h-184zM683 1610q-35 36 -35 86t35 86q36 35 86 35t86 -35q35 -36 35 -86t-35 -86q-36 -35 -86 -35t-86 35zM1087 1610q-35 36 -35 86t35 86q36 35 86 35t86 -35q35 -36 35 -86t-35 -86
q-36 -35 -86 -35t-86 35z" />
    <glyph glyph-name="alphatonos" unicode="&#x3ac;" horiz-adv-x="1265" 
d="M242 102q-103 122 -103 313q0 288 152 485q151 197 373 197q271 0 336 -219h16l43 200h167l-172 -809q-7 -27 -7 -59q0 -38 20 -54q21 -15 71 -15q29 0 50 4l-31 -145q-41 -10 -87 -10q-99 0 -144 44q-45 45 -45 145v11h-16q-111 -209 -357 -209q-163 0 -266 121z
M832 275q113 140 113 340q0 151 -71 239t-193 88q-156 0 -259 -144q-103 -145 -103 -363q0 -134 65 -217q66 -82 172 -82q163 0 276 139zM649 1263l160 338h206l-207 -338h-159z" />
    <glyph glyph-name="epsilontonos" unicode="&#x3ad;" horiz-adv-x="1110" 
d="M246 55q-127 81 -127 219q0 105 68 177q64 69 175 95l4 16q-140 64 -140 203q0 152 122 243q120 89 314 89q217 0 337 -92q107 -83 123 -225h-176q-41 162 -284 162q-125 0 -194 -51q-64 -47 -64 -123q0 -147 211 -147h161l-33 -154h-189q-119 0 -187 -48
q-64 -46 -64 -124q0 -74 67 -116q66 -42 186 -42q125 0 218 51q94 51 125 138h179q-40 -159 -180 -251q-144 -94 -357 -94q-177 0 -295 74zM626 1263l160 338h206l-207 -338h-159z" />
    <glyph glyph-name="etatonos" unicode="&#x3ae;" horiz-adv-x="1273" 
d="M1038 629q9 45 9 85q0 105 -59 167q-58 61 -158 61q-127 0 -214 -80q-86 -79 -117 -224l-136 -638h-176l172 810q8 40 8 59q0 37 -21 53q-20 15 -69 15q-32 0 -52 -4l31 145q41 10 85 10q89 0 133 -32q44 -33 57 -113l6 -35h17q123 189 356 189q143 0 232 -95
q88 -96 88 -250q0 -57 -12 -114l-213 -998h-176zM669 1263l160 338h206l-207 -338h-159z" />
    <glyph glyph-name="iotatonos" unicode="&#x3af;" horiz-adv-x="573" 
d="M332 356q-12 -57 -12 -97q0 -116 135 -116q52 0 80 4l-31 -145q-61 -10 -112 -10q-121 0 -189 58q-68 57 -68 160q0 36 11 93l166 775h174zM357 1263l160 338h206l-207 -338h-159z" />
    <glyph glyph-name="upsilondieresistonos" unicode="&#x3b0;" horiz-adv-x="1162" 
d="M1097 1078q28 -112 28 -285q0 -382 -170 -602q-163 -210 -429 -210q-178 0 -275 86t-97 242q0 65 14 134l133 635h171l-130 -618q-18 -81 -16 -151q1 -171 208 -171q195 0 305 173q109 172 109 479q0 166 -28 288h177zM634 1263l110 338h196l-157 -338h-149zM360 1293
q-30 30 -30 74q0 56 38 96q40 42 101 42q45 0 75 -30q30 -29 30 -73q0 -57 -38 -97q-40 -42 -101 -42q-45 0 -75 30zM980 1293q-30 30 -30 74q0 56 38 96q40 42 101 42q45 0 75 -30q30 -29 30 -73q0 -57 -38 -97q-40 -42 -101 -42q-45 0 -75 30z" />
    <glyph glyph-name="alpha" unicode="&#x3b1;" horiz-adv-x="1265" 
d="M242 102q-103 122 -103 313q0 288 152 485q151 197 373 197q271 0 336 -219h16l43 200h167l-172 -809q-7 -27 -7 -59q0 -38 20 -54q21 -15 71 -15q29 0 50 4l-31 -145q-41 -10 -87 -10q-99 0 -144 44q-45 45 -45 145v11h-16q-111 -209 -357 -209q-163 0 -266 121z
M832 275q113 140 113 340q0 151 -71 239t-193 88q-156 0 -259 -144q-103 -145 -103 -363q0 -134 65 -217q66 -82 172 -82q163 0 276 139z" />
    <glyph glyph-name="beta" unicode="&#x3b2;" horiz-adv-x="1258" 
d="M323 1079q48 225 161 333q120 113 326 113q176 0 283 -92q108 -91 108 -242q0 -265 -248 -361l-3 -17q245 -94 245 -334q0 -210 -146 -353q-147 -145 -365 -145q-278 0 -359 218h-16l-119 -559h-173zM631 889h90q136 0 220 77q83 76 83 197q0 207 -228 207
q-236 0 -303 -309l-112 -523q-17 -80 -17 -116q0 -132 86 -210q84 -76 226 -76q145 0 242 96q96 94 96 233q0 129 -80 199q-81 71 -228 71h-108z" />
    <glyph glyph-name="gamma" unicode="&#x3b3;" horiz-adv-x="1092" 
d="M520 -28l-69 -322h-173l70 329l-141 1099h183l92 -920h19q457 514 457 853q0 41 -6 67h171q5 -26 5 -77q0 -392 -608 -1029z" />
    <glyph glyph-name="delta" unicode="&#x3b4;" horiz-adv-x="1180" 
d="M243 98q-119 118 -119 315q0 230 125 387q131 163 358 191l4 19q-170 92 -170 234q0 131 106 206q107 75 292 75q244 0 353 -94l-38 -151q-149 94 -347 94q-92 0 -142 -31q-51 -31 -51 -89q0 -49 34 -84q36 -36 148 -99q187 -104 264 -208q80 -108 80 -265
q0 -256 -169 -437q-169 -180 -409 -180q-200 0 -319 117zM853 260q108 128 108 320q0 137 -76 219q-77 82 -206 82q-159 0 -265 -125q-109 -129 -109 -333q0 -132 74 -211q74 -80 200 -80q165 0 274 128z" />
    <glyph glyph-name="epsilon" unicode="&#x3b5;" horiz-adv-x="1110" 
d="M246 55q-127 81 -127 219q0 105 68 177q64 69 175 95l4 16q-140 64 -140 203q0 152 122 243q120 89 314 89q217 0 337 -92q107 -83 123 -225h-176q-41 162 -284 162q-125 0 -194 -51q-64 -47 -64 -123q0 -147 211 -147h161l-33 -154h-189q-119 0 -187 -48
q-64 -46 -64 -124q0 -74 67 -116q66 -42 186 -42q125 0 218 51q94 51 125 138h179q-40 -159 -180 -251q-144 -94 -357 -94q-177 0 -295 74z" />
    <glyph glyph-name="zeta" unicode="&#x3b6;" horiz-adv-x="929" 
d="M583 -314q95 119 95 211q0 94 -160 155q-213 81 -305 190q-92 108 -92 274q0 438 671 819l4 17h-460l33 154h721l8 -164q-796 -378 -796 -813q0 -112 55 -179q57 -68 205 -128q173 -71 235 -134q57 -59 57 -152q0 -156 -141 -297z" />
    <glyph glyph-name="eta" unicode="&#x3b7;" horiz-adv-x="1273" 
d="M1038 629q9 45 9 85q0 105 -59 167q-58 61 -158 61q-127 0 -214 -80q-86 -79 -117 -224l-136 -638h-176l172 810q8 40 8 59q0 37 -21 53q-20 15 -69 15q-32 0 -52 -4l31 145q41 10 85 10q89 0 133 -32q44 -33 57 -113l6 -35h17q123 189 356 189q143 0 232 -95
q88 -96 88 -250q0 -57 -12 -114l-213 -998h-176z" />
    <glyph glyph-name="theta" unicode="&#x3b8;" horiz-adv-x="1231" 
d="M285 114q-107 132 -107 383q0 123 26 273q65 366 225 561q159 194 394 194q202 0 307 -131q106 -131 106 -382q0 -125 -27 -280q-65 -363 -224 -557t-392 -194q-202 0 -308 133zM860 269q101 133 161 417h-652q-16 -115 -16 -203q0 -159 59 -249q65 -98 190 -98
q156 0 258 133zM1047 840q12 91 12 172q0 358 -255 358q-293 0 -408 -530h651z" />
    <glyph glyph-name="iota" unicode="&#x3b9;" horiz-adv-x="573" 
d="M332 356q-12 -57 -12 -97q0 -116 135 -116q52 0 80 4l-31 -145q-61 -10 -112 -10q-121 0 -189 58q-68 57 -68 160q0 36 11 93l166 775h174z" />
    <glyph glyph-name="kappa" unicode="&#x3ba;" horiz-adv-x="1116" 
d="M1183 1078l-31 -145q-33 4 -54 4q-63 0 -141 -78l-209 -206l287 -653h-179l-228 536l-311 -307l-48 -229h-174l228 1078h175l-119 -558h16l399 399q105 105 163 137q57 32 140 32q49 0 86 -10z" />
    <glyph glyph-name="lambda" unicode="&#x3bb;" horiz-adv-x="1100" 
d="M1078 145l-31 -145q-37 -10 -88 -10q-104 0 -153 51q-51 51 -67 175l-74 552h-15l-457 -768h-201l636 1018l-15 98q-28 173 -57 216q-29 42 -120 42q-17 0 -46 -4l31 145q39 10 90 10q131 0 185 -75t86 -302l125 -898q8 -61 36 -85q27 -24 86 -24q25 0 49 4z" />
    <glyph glyph-name="uni03BC" unicode="&#x3bc;" horiz-adv-x="1273" 
d="M321 1078h175l-126 -595q-19 -91 -19 -138q0 -207 211 -207q120 0 221 95q101 94 130 233l130 612h172l-172 -809q-7 -33 -7 -59q0 -38 20 -54q21 -15 71 -15q29 0 50 4l-31 -145q-41 -10 -87 -10q-189 0 -189 183v6h-16q-54 -87 -143 -141q-93 -57 -193 -57
q-76 0 -133 39q-60 41 -75 108h-16l-104 -488h-173z" />
    <glyph glyph-name="nu" unicode="&#x3bd;" horiz-adv-x="1093" 
d="M548 0h-203l-138 1078h183l92 -920h19q457 514 457 853q0 41 -6 67h171q5 -26 5 -77q0 -375 -580 -1001z" />
    <glyph glyph-name="xi" unicode="&#x3be;" horiz-adv-x="939" 
d="M582 -314q95 118 95 210q0 94 -161 156q-229 88 -324 177q-92 88 -92 213q0 272 355 360l3 14q-179 73 -179 238q0 198 251 283l3 15h-211l32 154h706l7 -137l-123 -11q-499 -53 -499 -281q0 -95 97 -146q95 -50 265 -50h97l-32 -154h-91q-232 0 -361 -61
q-137 -66 -137 -193q0 -74 60 -130q63 -58 217 -121q169 -69 231 -128q62 -60 62 -156q0 -155 -141 -299z" />
    <glyph glyph-name="omicron" unicode="&#x3bf;" horiz-adv-x="1179" 
d="M270 101q-127 126 -127 333q0 277 153 464q163 199 430 199q186 0 305 -131q113 -125 113 -305q0 -303 -165 -495q-160 -185 -400 -185q-188 0 -309 120zM848 269q112 139 112 344q0 147 -68 236q-71 93 -195 93q-168 0 -271 -140q-100 -136 -100 -342q0 -151 80 -241
q74 -83 187 -83q148 0 255 133z" />
    <glyph glyph-name="pi" unicode="&#x3c0;" horiz-adv-x="1371" 
d="M1030 924h-453l-197 -924h-166l196 924h-192l33 154h1195l-33 -154h-216l-136 -638q-11 -55 -11 -74q0 -40 19 -55q19 -16 71 -16q33 0 56 4l-31 -145q-39 -10 -103 -10q-185 0 -185 170q0 38 19 131z" />
    <glyph glyph-name="rho" unicode="&#x3c1;" horiz-adv-x="1208" 
d="M885 262q115 135 115 350q0 153 -77 242q-76 88 -204 88q-161 0 -265 -137q-103 -137 -103 -348q0 -145 81 -234q78 -87 198 -87q148 0 255 126zM1060 962q120 -129 120 -336q0 -273 -158 -459q-157 -186 -386 -186q-120 0 -215 65q-91 62 -118 153h-16l-119 -559h-173
l197 930q111 527 534 527q209 0 334 -135z" />
    <glyph glyph-name="sigma1" unicode="&#x3c2;" horiz-adv-x="1115" 
d="M739 -361l-130 47q95 119 95 211q0 50 -34 84q-37 37 -127 71q-212 80 -304 193q-92 112 -92 289q0 240 138 395q151 168 415 168q188 0 310 -110q112 -101 122 -246h-174q-19 86 -86 141q-73 60 -178 60q-178 0 -278 -123q-89 -110 -89 -278q0 -119 63 -193
q58 -69 197 -126q169 -69 231 -129q62 -61 62 -157q0 -156 -141 -297z" />
    <glyph glyph-name="sigma" unicode="&#x3c3;" horiz-adv-x="1265" 
d="M261 106q-119 123 -119 321q0 276 150 458q160 193 427 193h615l-32 -154h-286l-3 -16q113 -101 113 -283q0 -263 -152 -450q-157 -194 -395 -194q-198 0 -318 125zM853 277q100 137 100 358q0 137 -60 213q-61 75 -171 75q-178 0 -289 -139q-111 -138 -111 -361
q0 -138 66 -212q67 -75 189 -75q173 0 276 141z" />
    <glyph glyph-name="tau" unicode="&#x3c4;" horiz-adv-x="1054" 
d="M775 4q-52 -12 -145 -12q-117 0 -185 54q-73 58 -73 164q0 40 11 93l133 621h-343l32 154h918l-32 -154h-401l-121 -568q-12 -57 -12 -97q0 -116 136 -116q67 0 113 6z" />
    <glyph glyph-name="upsilon" unicode="&#x3c5;" horiz-adv-x="1162" 
d="M1097 1078q28 -112 28 -285q0 -382 -170 -602q-163 -210 -429 -210q-178 0 -275 86t-97 242q0 65 14 134l133 635h171l-130 -618q-18 -81 -16 -151q1 -171 208 -171q195 0 305 173q109 172 109 479q0 166 -28 288h177z" />
    <glyph glyph-name="phi" unicode="&#x3c6;" horiz-adv-x="1510" 
d="M609 -11q-217 24 -341 145q-123 121 -123 311q0 289 196 471q195 181 503 181l62 291h171l-64 -300q212 -22 336 -145t124 -311q0 -284 -196 -468q-196 -183 -500 -183l-72 -341h-170zM814 954q-221 -5 -357 -140q-135 -135 -135 -350q0 -137 82 -223t235 -108zM807 123
q223 11 356 144q133 134 133 348q0 134 -82 220q-83 86 -232 108z" />
    <glyph glyph-name="chi" unicode="&#x3c7;" horiz-adv-x="1114" 
d="M758 -335q-47 36 -72 121l-120 407h-16l-408 -553h-186l559 734l-136 454q-19 66 -47 88q-27 21 -88 21q-22 0 -45 -4l31 145q41 10 91 10q88 0 135 -37q46 -37 74 -130l117 -392h16l399 549h186l-549 -730l134 -458q19 -64 47 -87q27 -22 88 -22q20 0 45 4l-31 -145
q-39 -10 -86 -10q-90 0 -138 35z" />
    <glyph glyph-name="psi" unicode="&#x3c8;" horiz-adv-x="1469" 
d="M506 -360l72 339q-423 14 -423 325q0 81 20 178l126 596h171l-132 -626q-15 -69 -15 -125q0 -93 68 -139q68 -45 217 -52l268 1252h167l-269 -1259q231 8 352 171q124 167 124 482q0 181 -30 296h176q32 -99 32 -304q0 -366 -167 -576q-179 -225 -519 -225l-71 -333h-167
z" />
    <glyph glyph-name="omega" unicode="&#x3c9;" horiz-adv-x="1584" 
d="M1387 172q-138 -191 -336 -191q-103 0 -163 53q-59 52 -88 168h-18q-104 -221 -314 -221q-158 0 -242 99q-84 100 -84 288q0 190 75 386t197 324h188q-281 -306 -281 -716q0 -105 44 -164q45 -60 122 -60q188 0 241 244l84 387h172l-72 -341q-10 -44 -10 -91
q0 -94 45 -146q44 -53 122 -53q123 0 200 142t77 371q0 244 -117 427h188q108 -166 108 -442q0 -274 -138 -464z" />
    <glyph glyph-name="iotadieresis" unicode="&#x3ca;" horiz-adv-x="583" 
d="M332 356q-12 -57 -12 -97q0 -116 135 -116q52 0 80 4l-31 -145q-61 -10 -112 -10q-121 0 -189 58q-68 57 -68 160q0 36 11 93l166 775h174zM152 1263q-35 36 -35 86t35 86q36 35 86 35t86 -35q35 -36 35 -86t-35 -86q-36 -35 -86 -35t-86 35zM556 1263q-35 36 -35 86
t35 86q36 35 86 35t86 -35q35 -36 35 -86t-35 -86q-36 -35 -86 -35t-86 35z" />
    <glyph glyph-name="upsilondieresis" unicode="&#x3cb;" horiz-adv-x="1162" 
d="M1097 1078q28 -112 28 -285q0 -382 -170 -602q-163 -210 -429 -210q-178 0 -275 86t-97 242q0 65 14 134l133 635h171l-130 -618q-18 -81 -16 -151q1 -171 208 -171q195 0 305 173q109 172 109 479q0 166 -28 288h177zM461 1263q-35 36 -35 86t35 86q36 35 86 35t86 -35
q35 -36 35 -86t-35 -86q-36 -35 -86 -35t-86 35zM865 1263q-35 36 -35 86t35 86q36 35 86 35t86 -35q35 -36 35 -86t-35 -86q-36 -35 -86 -35t-86 35z" />
    <glyph glyph-name="omicrontonos" unicode="&#x3cc;" horiz-adv-x="1179" 
d="M270 101q-127 126 -127 333q0 277 153 464q163 199 430 199q186 0 305 -131q113 -125 113 -305q0 -303 -165 -495q-160 -185 -400 -185q-188 0 -309 120zM848 269q112 139 112 344q0 147 -68 236q-71 93 -195 93q-168 0 -271 -140q-100 -136 -100 -342q0 -151 80 -241
q74 -83 187 -83q148 0 255 133zM647 1263l160 338h206l-207 -338h-159z" />
    <glyph glyph-name="upsilontonos" unicode="&#x3cd;" horiz-adv-x="1162" 
d="M1097 1078q28 -112 28 -285q0 -382 -170 -602q-163 -210 -429 -210q-178 0 -275 86t-97 242q0 65 14 134l133 635h171l-130 -618q-18 -81 -16 -151q1 -171 208 -171q195 0 305 173q109 172 109 479q0 166 -28 288h177zM643 1263l160 338h206l-207 -338h-159z" />
    <glyph glyph-name="omegatonos" unicode="&#x3ce;" horiz-adv-x="1584" 
d="M1387 172q-138 -191 -336 -191q-103 0 -163 53q-59 52 -88 168h-18q-104 -221 -314 -221q-158 0 -242 99q-84 100 -84 288q0 190 75 386t197 324h188q-281 -306 -281 -716q0 -105 44 -164q45 -60 122 -60q188 0 241 244l84 387h172l-72 -341q-10 -44 -10 -91
q0 -94 45 -146q44 -53 122 -53q123 0 200 142t77 371q0 244 -117 427h188q108 -166 108 -442q0 -274 -138 -464zM879 1263l160 338h206l-207 -338h-159z" />
    <glyph glyph-name="uni0401" unicode="&#x401;" horiz-adv-x="1239" 
d="M1028 0h-896l307 1443h896l-35 -162h-711l-100 -463h675l-34 -160h-674l-106 -496h712zM652 1610q-35 36 -35 86t35 86q36 35 86 35t86 -35q35 -36 35 -86t-35 -86q-36 -35 -86 -35t-86 35zM1056 1610q-35 36 -35 86t35 86q36 35 86 35t86 -35q35 -36 35 -86t-35 -86
q-36 -35 -86 -35t-86 35z" />
    <glyph glyph-name="uni0402" unicode="&#x402;" horiz-adv-x="1739" 
d="M1499 126q-147 -142 -372 -142q-118 0 -159 18l35 161q39 -16 124 -16q148 0 243 97q92 95 92 236q0 122 -63 190q-69 75 -205 75q-120 0 -235 -69q-100 -59 -155 -141l-114 -535h-184l272 1281h-463l35 162h1110l-35 -162h-463l-110 -520h12q137 146 350 146
q210 0 324 -119q108 -113 108 -307q0 -214 -147 -355z" />
    <glyph glyph-name="uni0403" unicode="&#x403;" horiz-adv-x="1168" 
d="M132 0l307 1443h868l-35 -162h-683l-272 -1281h-185zM1089 1873h226l-395 -298h-204z" />
    <glyph glyph-name="uni0404" unicode="&#x404;" horiz-adv-x="1476" 
d="M1429 402q-69 -202 -235 -319t-387 -117q-305 0 -447 217q-149 227 -66 617q65 307 257 487q201 190 492 190q207 0 356 -126q154 -130 159 -328v-15h-183q-6 137 -107 221q-98 82 -248 82q-191 0 -336 -136q-141 -132 -200 -356h652l-34 -162h-647q-26 -245 72 -385
q99 -140 299 -140q145 0 261 80q107 73 159 190h183z" />
    <glyph glyph-name="uni0405" unicode="&#x405;" horiz-adv-x="1296" 
d="M310 400q26 -125 126 -198q101 -73 247 -73q149 0 242 71q92 70 92 185q0 89 -62 150q-61 61 -201 110l-137 48q-148 52 -229 149q-82 97 -82 221q0 178 145 296q146 118 364 118q206 0 348 -118t158 -302h-181q-28 122 -116 189q-89 68 -220 68q-134 0 -221 -66
q-87 -67 -87 -169q0 -150 232 -234l130 -47q350 -126 350 -390q0 -196 -151 -319q-150 -123 -389 -123q-222 0 -366 116q-145 116 -174 318h182z" />
    <glyph glyph-name="uni0406" unicode="&#x406;" horiz-adv-x="570" 
d="M132 0l307 1443h184l-307 -1443h-184z" />
    <glyph glyph-name="uni0407" unicode="&#x407;" horiz-adv-x="571" 
d="M132 0l307 1443h184l-307 -1443h-184zM297 1610q-35 36 -35 86t35 86q36 35 86 35t86 -35q35 -36 35 -86t-35 -86q-36 -35 -86 -35t-86 35zM701 1610q-35 36 -35 86t35 86q36 35 86 35t86 -35q35 -36 35 -86t-35 -86q-36 -35 -86 -35t-86 35z" />
    <glyph glyph-name="uni0408" unicode="&#x408;" horiz-adv-x="1122" 
d="M297 337q2 -94 62 -148q59 -54 161 -54q208 0 265 269l221 1039h179l-228 -1080q-41 -191 -157 -293q-118 -104 -302 -104q-174 0 -284 106q-109 107 -98 265h181z" />
    <glyph glyph-name="uni0409" unicode="&#x409;" horiz-adv-x="2157" 
d="M536 540q-77 -280 -175 -403q-117 -146 -313 -146q-41 0 -68 10l34 161q22 -6 53 -6q112 0 186 111q59 88 111 280l243 896h871l-110 -515h278q205 0 332 -111q129 -114 129 -300q0 -203 -152 -356q-161 -161 -398 -161h-570l273 1281h-521zM1335 768l-130 -608h333
q160 0 271 97q110 96 110 233q0 139 -86 211q-81 67 -224 67h-274z" />
    <glyph glyph-name="uni040A" unicode="&#x40a;" horiz-adv-x="2177" 
d="M1164 657h-709l-140 -657h-183l307 1443h184l-133 -624h708l133 624h184l-133 -625h301q191 0 310 -98q121 -100 121 -263q0 -182 -140 -315q-150 -142 -380 -142h-570zM1575 160q161 0 258 80q93 76 93 196q0 110 -78 168q-73 54 -202 54h-298l-106 -498h333z" />
    <glyph glyph-name="uni040B" unicode="&#x40b;" horiz-adv-x="1769" 
d="M973 684q-105 -58 -169 -149l-114 -535h-184l272 1281h-463l35 162h1110l-35 -162h-463l-110 -518h16q171 144 366 144q226 0 333 -140q107 -141 56 -380l-83 -387h-184l84 395q35 167 -28 258q-63 92 -213 92q-115 0 -226 -61z" />
    <glyph glyph-name="uni040C" unicode="&#x40c;" horiz-adv-x="1351" 
d="M1010 1575h-204l373 298h226zM660 731l560 -731h-210l-511 665h-42l-141 -665h-184l307 1443h184l-135 -634h42l731 634h235z" />
    <glyph glyph-name="uni040E" unicode="&#x40e;" horiz-adv-x="1333" 
d="M192 3l34 162q29 -8 78 -8q160 0 273 151l-251 1135h189l189 -929h16l574 929h205l-687 -1071q-130 -203 -237 -284q-128 -98 -306 -98q-55 0 -77 13zM785 1874q-17 -81 26 -131q41 -49 122 -49q82 0 145 49q64 50 81 131h156q-29 -139 -136 -219q-106 -79 -258 -79
q-157 0 -238 79q-83 82 -54 219h156z" />
    <glyph glyph-name="uni040F" unicode="&#x40f;" horiz-adv-x="1517" 
d="M132 0l307 1443h180l-272 -1279h768l272 1279h183l-307 -1443h-482l-61 -285h-167l61 285h-482z" />
    <glyph glyph-name="uni0410" unicode="&#x410;" horiz-adv-x="1400" 
d="M1024 413h-579l-232 -413h-193l845 1443h167l226 -1443h-176zM531 566h473l-95 641h-16z" />
    <glyph glyph-name="uni0411" unicode="&#x411;" horiz-adv-x="1321" 
d="M132 0l307 1443h855l-35 -162h-670l-88 -413h290q205 0 332 -103q129 -105 129 -278q0 -192 -152 -335q-161 -152 -398 -152h-570zM683 160q160 0 271 88q110 88 110 212t-86 188q-81 60 -224 60h-287l-117 -548h333z" />
    <glyph glyph-name="uni0412" unicode="&#x412;" horiz-adv-x="1366" 
d="M132 0l307 1443h501q185 0 295 -87q111 -86 111 -231q0 -136 -85 -237q-85 -100 -227 -131l-4 -16q116 -20 183 -96q66 -75 66 -187q0 -200 -157 -329q-156 -129 -400 -129h-590zM490 821h298q165 0 268 74t103 193q0 196 -288 196h-283zM716 159q159 0 266 81
q106 82 106 203q0 223 -296 223h-335l-108 -507h367z" />
    <glyph glyph-name="uni0413" unicode="&#x413;" horiz-adv-x="1168" 
d="M132 0l307 1443h868l-35 -162h-683l-272 -1281h-185z" />
    <glyph glyph-name="uni0414" unicode="&#x414;" horiz-adv-x="1510" 
d="M527 531q-70 -255 -177 -357l-3 -12h703l238 1119h-555zM86 -285h-167l95 447h107q154 74 235 373l248 908h903l-273 -1281h180l-95 -447h-167l61 285h-1066z" />
    <glyph glyph-name="uni0415" unicode="&#x415;" horiz-adv-x="1239" 
d="M1028 0h-896l307 1443h896l-35 -162h-711l-100 -463h675l-34 -160h-674l-106 -496h712z" />
    <glyph glyph-name="uni0416" unicode="&#x416;" horiz-adv-x="2067" 
d="M239 0h-244l859 765l-468 678h206l430 -637h42l136 637h180l-136 -637h42l702 637h235l-800 -710l514 -733h-210l-470 667h-42l-142 -667h-180l142 667h-42z" />
    <glyph glyph-name="uni0417" unicode="&#x417;" horiz-adv-x="1279" 
d="M535 821h195q152 0 251 79t99 197q0 104 -63 161q-66 59 -191 59t-218 -65q-95 -65 -131 -179h-175q54 191 202 298q146 106 345 106q197 0 313 -106q108 -99 108 -256q0 -143 -90 -241q-91 -99 -247 -126l-4 -16q255 -53 255 -307q0 -200 -158 -330q-158 -129 -398 -129
q-230 0 -362 122q-122 112 -131 292h174q5 -109 84 -179q87 -77 237 -77q161 0 263 80q103 81 103 212q0 117 -78 180q-79 63 -228 63h-189z" />
    <glyph glyph-name="uni0418" unicode="&#x418;" horiz-adv-x="1538" 
d="M1343 1132h-16l-1013 -1132h-182l307 1443h182l-242 -1136h16l1014 1136h182l-307 -1443h-182z" />
    <glyph glyph-name="uni0419" unicode="&#x419;" horiz-adv-x="1538" 
d="M1343 1132h-16l-1013 -1132h-182l307 1443h182l-242 -1136h16l1014 1136h182l-307 -1443h-182zM888 1874q-17 -81 26 -131q41 -49 122 -49q82 0 145 49q64 50 81 131h156q-29 -139 -136 -219q-106 -79 -258 -79q-157 0 -238 79q-83 82 -54 219h156z" />
    <glyph glyph-name="uni041A" unicode="&#x41a;" horiz-adv-x="1351" 
d="M660 731l560 -731h-210l-511 665h-42l-141 -665h-184l307 1443h184l-135 -634h42l731 634h235z" />
    <glyph glyph-name="uni041B" unicode="&#x41b;" horiz-adv-x="1434" 
d="M997 0l272 1281h-530l-203 -741q-77 -280 -175 -403q-117 -146 -313 -146q-41 0 -68 10l34 161q22 -6 53 -6q112 0 186 111q59 88 111 280l243 896h881l-307 -1443h-184z" />
    <glyph glyph-name="uni041C" unicode="&#x41c;" horiz-adv-x="1812" 
d="M132 0l307 1443h200l242 -1194h16l746 1194h222l-307 -1443h-172l234 1102h-12l-685 -1092h-152l-221 1092h-12l-234 -1102h-172z" />
    <glyph glyph-name="uni041D" unicode="&#x41d;" horiz-adv-x="1542" 
d="M1103 0l140 657h-788l-140 -657h-183l307 1443h184l-133 -624h788l133 624h184l-307 -1443h-185z" />
    <glyph glyph-name="uni041E" unicode="&#x41e;" horiz-adv-x="1599" 
d="M376 136q-166 169 -166 427q0 394 222 654t559 260q253 0 417 -169q165 -169 165 -428q0 -397 -220 -655q-220 -259 -557 -259q-253 0 -420 170zM1271 1186q-113 124 -294 124q-247 0 -412 -209q-165 -210 -165 -522q0 -200 113 -323t297 -123q248 0 411 207
q162 207 162 524q0 199 -112 322z" />
    <glyph glyph-name="uni041F" unicode="&#x41f;" horiz-adv-x="1517" 
d="M1083 0l272 1279h-768l-272 -1279h-183l307 1443h1131l-307 -1443h-180z" />
    <glyph glyph-name="uni0420" unicode="&#x420;" horiz-adv-x="1320" 
d="M945 1443q177 0 293 -105q121 -110 121 -285q0 -246 -167 -395q-160 -143 -408 -143h-360l-109 -515h-184l307 1443h507zM458 675h315q182 0 288 94q110 97 110 268q0 116 -78 182q-78 64 -211 64h-294z" />
    <glyph glyph-name="uni0421" unicode="&#x421;" horiz-adv-x="1486" 
d="M367 124q-154 163 -154 428q0 399 217 662q216 263 544 263q235 0 390 -138t155 -347h-183q-11 146 -113 232t-263 86q-236 0 -398 -213q-162 -214 -162 -526q0 -203 106 -323q106 -119 287 -119q146 0 258 68q112 67 151 179h190q-54 -193 -219 -303
q-165 -111 -400 -111q-252 0 -406 162z" />
    <glyph glyph-name="uni0422" unicode="&#x422;" horiz-adv-x="1319" 
d="M503 0l272 1281h-463l34 162h1110l-34 -162h-463l-272 -1281h-184z" />
    <glyph glyph-name="uni0423" unicode="&#x423;" horiz-adv-x="1333" 
d="M192 3l34 162q29 -8 78 -8q160 0 273 151l-251 1135h189l189 -929h16l574 929h205l-687 -1071q-130 -203 -237 -284q-128 -98 -306 -98q-55 0 -77 13z" />
    <glyph glyph-name="uni0424" unicode="&#x424;" horiz-adv-x="1700" 
d="M696 -20l32 151q-243 10 -383 143q-140 131 -140 349q0 293 220 491t556 208l30 141h178l-30 -141q243 -10 383 -142t140 -350q0 -293 -220 -491t-556 -208l-32 -151h-178zM488 387q99 -90 274 -95l185 869q-242 -10 -400 -161q-159 -152 -159 -373q0 -151 100 -240z
M1399 1066q-99 90 -274 95l-185 -869q242 10 401 161q158 152 158 373q0 151 -100 240z" />
    <glyph glyph-name="uni0425" unicode="&#x425;" horiz-adv-x="1410" 
d="M695 752l-323 691h206l249 -574h16l508 574h205l-649 -727l332 -716h-194l-268 586h-16l-517 -586h-204z" />
    <glyph glyph-name="uni0426" unicode="&#x426;" horiz-adv-x="1575" 
d="M1216 -285l61 285h-1146l309 1443h180l-272 -1279h768l272 1279h183l-273 -1281h180l-95 -447h-167z" />
    <glyph glyph-name="uni0427" unicode="&#x427;" horiz-adv-x="1419" 
d="M1021 0l145 680h-16q-171 -144 -399 -144q-237 0 -351 156q-112 152 -62 386l78 365h180l-78 -365q-36 -167 30 -268q70 -108 237 -108q138 0 259 65q110 59 172 151l112 525h180l-307 -1443h-180z" />
    <glyph glyph-name="uni0428" unicode="&#x428;" horiz-adv-x="1974" 
d="M439 1443h184l-273 -1281h518l273 1281h184l-273 -1281h518l273 1281h184l-307 -1443h-1588z" />
    <glyph glyph-name="uni0429" unicode="&#x429;" horiz-adv-x="2032" 
d="M1673 -285l61 285h-1601l307 1443h184l-273 -1281h518l273 1281h184l-273 -1281h518l273 1281h184l-273 -1281h180l-95 -447h-167z" />
    <glyph glyph-name="uni042A" unicode="&#x42a;" horiz-adv-x="1503" 
d="M332 0l273 1281h-330l35 162h513l-110 -515h278q205 0 332 -111q129 -114 129 -300q0 -203 -152 -356q-161 -161 -398 -161h-570zM680 768l-130 -608h333q160 0 271 97q110 96 110 233q0 139 -86 211q-81 67 -224 67h-274z" />
    <glyph glyph-name="uni042B" unicode="&#x42b;" horiz-adv-x="1760" 
d="M480 768l-130 -608h333q160 0 271 97q110 96 110 233q0 139 -86 211q-81 67 -224 67h-274zM439 1443h184l-110 -515h278q205 0 332 -111q129 -114 129 -300q0 -203 -152 -356q-161 -161 -398 -161h-570zM1322 0l307 1443h184l-307 -1443h-184z" />
    <glyph glyph-name="uni042C" unicode="&#x42c;" horiz-adv-x="1303" 
d="M480 768l-130 -608h333q160 0 271 97q110 96 110 233q0 139 -86 211q-81 67 -224 67h-274zM439 1443h184l-110 -515h278q205 0 332 -111q129 -114 129 -300q0 -203 -152 -356q-161 -161 -398 -161h-570z" />
    <glyph glyph-name="uni042D" unicode="&#x42d;" horiz-adv-x="1475" 
d="M324 84q-154 124 -167 318h185q18 -124 116 -198q96 -72 236 -72q198 0 346 146q145 142 198 379h-650l34 162h640q17 231 -82 361q-99 131 -292 131q-152 0 -271 -87q-112 -82 -165 -216h-183q68 224 240 348q168 121 398 121q305 0 447 -217q149 -227 66 -617
q-65 -307 -257 -487q-201 -190 -492 -190q-200 0 -347 118z" />
    <glyph glyph-name="uni042E" unicode="&#x42e;" horiz-adv-x="2096" 
d="M1718 350q162 214 162 512q0 207 -115 330q-110 118 -283 118q-240 0 -402 -205q-163 -206 -163 -511q0 -216 116 -342q110 -120 285 -120q236 0 400 218zM757 819q66 293 261 472q202 186 478 186q238 0 403 -163q168 -168 168 -423q0 -378 -208 -646
q-217 -279 -541 -279q-255 0 -417 156q-171 165 -171 443q0 47 3 92h-278l-140 -657h-183l307 1443h184l-133 -624h267z" />
    <glyph glyph-name="uni042F" unicode="&#x42f;" horiz-adv-x="1359" 
d="M1069 695l125 588h-333q-160 0 -271 -94q-110 -93 -110 -226q0 -134 86 -203q81 -65 224 -65h279zM275 0h-236l525 564q-127 43 -198 138q-74 99 -74 234q0 200 152 349q161 158 398 158h570l-307 -1443h-184l114 535h-263z" />
    <glyph glyph-name="uni0430" unicode="&#x430;" horiz-adv-x="1146" 
d="M713 202q93 71 117 181l27 124l-287 -14q-132 -7 -205 -58q-73 -52 -73 -137q0 -74 58 -121t149 -47q121 0 214 72zM210 67q-95 86 -95 212q0 159 120 251q121 92 345 102l306 14l16 73q6 33 6 51q0 82 -61 127q-61 46 -170 46q-186 0 -239 -135h-182q36 133 153 211
q118 78 282 78q178 0 285 -82q107 -83 107 -220q0 -43 -9 -88l-150 -707h-167l30 141h-16q-121 -160 -326 -160q-141 0 -235 86z" />
    <glyph glyph-name="uni0431" unicode="&#x431;" horiz-adv-x="1232" 
d="M440 769q-101 -129 -101 -329q0 -141 75 -222q75 -82 207 -82q148 0 256 127q108 128 108 309q0 157 -71 243q-71 87 -200 87q-170 0 -274 -133zM993 1454q107 5 210 32q76 19 83 26l-32 -154q-73 -55 -287 -64l-135 -6q-184 -8 -292 -121q-83 -89 -154 -289h16
q133 179 344 179q191 0 309 -127q114 -124 114 -317q0 -267 -144 -442q-157 -190 -426 -190q-195 0 -316 125q-121 124 -121 323q0 157 70 397q90 309 214 446q149 164 414 176z" />
    <glyph glyph-name="uni0432" unicode="&#x432;" horiz-adv-x="1123" 
d="M338 1078h416q147 0 229 -66q82 -65 82 -180q0 -95 -65 -166t-170 -91l-3 -16q95 -14 147 -72q50 -55 50 -135q0 -155 -120 -252q-124 -100 -331 -100h-464zM388 486l-72 -342h284q111 0 177 53t66 141q0 148 -204 148h-251zM484 934l-65 -304h232q112 0 176 54
q58 50 58 126q0 124 -160 124h-241z" />
    <glyph glyph-name="uni0433" unicode="&#x433;" horiz-adv-x="935" 
d="M484 934l-199 -934h-176l229 1078h675l-30 -144h-499z" />
    <glyph glyph-name="uni0434" unicode="&#x434;" horiz-adv-x="1267" 
d="M1003 934h-415l-132 -461q-64 -224 -153 -313l-3 -16h535zM-86 -285l92 429h90q127 81 198 333l170 601h745l-198 -934h172l-92 -429h-162l61 285h-853l-61 -285h-162z" />
    <glyph glyph-name="uni0435" unicode="&#x435;" horiz-adv-x="1190" 
d="M295 97q-129 124 -129 335q0 297 157 482q156 183 404 183q174 0 288 -113q121 -120 122 -323q0 -86 -13 -162h-777q-2 -36 -2 -54q0 -154 86 -237q74 -70 184 -70q197 0 271 137h183q-34 -129 -155 -209q-127 -85 -310 -85q-188 0 -309 116zM955 638q2 12 2 45
q0 112 -62 184q-67 78 -184 78q-122 0 -214 -84q-89 -82 -127 -223h585z" />
    <glyph glyph-name="uni0436" unicode="&#x436;" horiz-adv-x="1624" 
d="M1146 553l368 -553h-196l-327 494h-47l-105 -494h-173l105 494h-54l-502 -494h-222l596 585l-313 493h184l285 -454h54l96 454h173l-96 -454h48l483 454h217z" />
    <glyph glyph-name="uni0437" unicode="&#x437;" horiz-adv-x="1081" 
d="M847 84q-132 -103 -326 -103q-169 0 -281 96q-114 98 -117 253h171q2 -86 70 -141q66 -54 168 -54q116 0 192 59q75 57 78 144q3 78 -46 114t-159 36h-163l34 144h163q94 0 156 46q63 46 64 117q6 148 -182 148q-211 0 -296 -190h-171q57 161 182 251q128 93 302 93
q165 0 259 -74q93 -74 88 -199q-3 -90 -63 -159t-151 -86l-4 -16q174 -41 168 -219q-4 -157 -136 -260z" />
    <glyph glyph-name="uni0438" unicode="&#x438;" horiz-adv-x="1247" 
d="M109 0l229 1078h174l-172 -806h16l713 806h176l-229 -1078h-174l172 808h-16l-712 -808h-177z" />
    <glyph glyph-name="uni0439" unicode="&#x439;" horiz-adv-x="1247" 
d="M109 0l229 1078h174l-172 -806h16l713 806h176l-229 -1078h-174l172 808h-16l-712 -808h-177zM676 1556q-18 -86 19 -146q39 -64 124 -64q89 0 154 64q61 59 79 146h156q-32 -147 -130 -234q-108 -94 -274 -94q-152 0 -230 94q-78 93 -48 234h150z" />
    <glyph glyph-name="uni043A" unicode="&#x43a;" horiz-adv-x="1081" 
d="M587 559l383 -559h-205l-333 491h-43l-104 -491h-176l229 1078h176l-96 -451h43l493 451h219z" />
    <glyph glyph-name="uni043B" unicode="&#x43b;" horiz-adv-x="1183" 
d="M471 473q-79 -275 -169 -378q-91 -104 -251 -104q-36 0 -61 11l34 158q21 -8 52 -8q140 0 231 325l170 601h705l-229 -1078h-176l199 934h-373z" />
    <glyph glyph-name="uni043C" unicode="&#x43c;" horiz-adv-x="1542" 
d="M109 0l229 1078h209l208 -836h16l565 836h204l-229 -1078h-176l163 767h-19l-498 -737h-134l-184 737h-19l-163 -767h-172z" />
    <glyph glyph-name="uni043D" unicode="&#x43d;" horiz-adv-x="1222" 
d="M338 1078h176l-95 -446h530l95 446h176l-229 -1078h-176l104 488h-530l-104 -488h-176z" />
    <glyph glyph-name="uni043E" unicode="&#x43e;" horiz-adv-x="1230" 
d="M421 225q77 -89 206 -89q145 0 253 133q111 139 111 343q0 154 -72 242q-73 88 -199 88q-171 0 -273 -141q-100 -137 -100 -353q0 -137 74 -223zM286 106q-122 124 -122 321q0 283 151 472q160 198 421 198q197 0 319 -125q120 -123 120 -319q0 -277 -149 -467
q-161 -205 -421 -205q-197 0 -319 125z" />
    <glyph glyph-name="uni043F" unicode="&#x43f;" horiz-adv-x="1212" 
d="M1004 934h-520l-199 -934h-176l229 1078h872l-229 -1078h-176z" />
    <glyph glyph-name="uni0440" unicode="&#x440;" horiz-adv-x="1263" 
d="M927 284q110 148 110 370q0 136 -68 212q-69 76 -191 76q-167 0 -282 -147t-115 -361q0 -137 73 -218q73 -80 198 -80q165 0 275 148zM32 -360l306 1438h166l-31 -147h16q127 166 344 166q164 0 273 -118q111 -119 111 -299q0 -295 -159 -497q-160 -202 -393 -202
q-116 0 -206 61q-88 60 -117 157h-16l-121 -559h-173z" />
    <glyph glyph-name="uni0441" unicode="&#x441;" horiz-adv-x="1166" 
d="M979 748q-13 79 -84 135q-73 58 -165 58q-176 0 -282 -140q-100 -130 -100 -322q0 -164 68 -252q69 -91 205 -91q187 0 281 189h186q-66 -157 -182 -246q-127 -98 -292 -98q-222 0 -336 133q-109 126 -109 356q0 251 150 431q161 194 415 194q176 0 297 -110
q112 -101 123 -237h-175z" />
    <glyph glyph-name="uni0442" unicode="&#x442;" horiz-adv-x="962" 
d="M1050 934h-343l-199 -934h-176l199 934h-343l30 144h862z" />
    <glyph glyph-name="uni0443" unicode="&#x443;" horiz-adv-x="1132" 
d="M49 -380l26 147q39 -13 102 -13q108 0 205 181l39 73l-175 1070h171l128 -857h16l472 857h189l-686 -1196q-91 -159 -177 -219q-77 -55 -192 -55q-37 0 -118 12z" />
    <glyph glyph-name="uni0444" unicode="&#x444;" horiz-adv-x="1553" 
d="M551 -360l73 341q-204 8 -332 131q-133 126 -133 328q0 281 183 462q194 192 519 195l74 346h172l-74 -346q204 -8 332 -131q133 -126 133 -328q0 -281 -183 -462q-194 -192 -519 -195l-73 -341h-172zM1232 857q-85 85 -231 89l-173 -814q227 9 362 150q128 134 128 334
q0 153 -86 241zM426 221q84 -85 230 -89l173 814q-227 -9 -362 -150q-128 -134 -128 -334q0 -153 87 -241z" />
    <glyph glyph-name="uni0445" unicode="&#x445;" horiz-adv-x="1096" 
d="M571 405l-339 -405h-205l484 548l-258 530h188l179 -401h16l337 401h205l-481 -539l256 -539h-181l-185 405h-16z" />
    <glyph glyph-name="uni0446" unicode="&#x446;" horiz-adv-x="1269" 
d="M930 -285l61 285h-882l229 1078h176l-199 -934h520l199 934h176l-199 -934h172l-91 -429h-162z" />
    <glyph glyph-name="uni0447" unicode="&#x447;" horiz-adv-x="1137" 
d="M757 0l103 486h-16q-135 -102 -276 -102q-172 0 -254 111q-83 110 -45 293l61 290h176l-63 -296q-52 -245 172 -245q169 0 285 136l86 405h176l-229 -1078h-176z" />
    <glyph glyph-name="uni0448" unicode="&#x448;" horiz-adv-x="1672" 
d="M338 1078h177l-198 -934h401l198 934h176l-198 -934h402l198 934h176l-229 -1078h-1332z" />
    <glyph glyph-name="uni0449" unicode="&#x449;" horiz-adv-x="1730" 
d="M1391 -285l61 285h-1343l229 1078h177l-198 -934h401l198 934h176l-198 -934h402l198 934h176l-198 -934h172l-91 -429h-162z" />
    <glyph glyph-name="uni044A" unicode="&#x44a;" horiz-adv-x="1218" 
d="M276 0l198 934h-286l30 144h463l-73 -346h203q156 0 248 -83q89 -80 89 -209q0 -193 -134 -316q-137 -124 -359 -124h-379zM577 588l-94 -444h203q128 0 209 82q77 79 77 194q0 78 -51 123t-141 45h-203z" />
    <glyph glyph-name="uni044B" unicode="&#x44b;" horiz-adv-x="1436" 
d="M1258 1078h176l-229 -1078h-176zM410 588l-94 -444h199q128 0 209 82q77 79 77 194q0 78 -51 123t-141 45h-199zM338 1078h176l-73 -346h199q156 0 248 -83q89 -80 89 -209q0 -193 -134 -316q-137 -124 -359 -124h-375z" />
    <glyph glyph-name="uni044C" unicode="&#x44c;" horiz-adv-x="1047" 
d="M410 588l-94 -444h199q128 0 209 82q77 79 77 194q0 78 -51 123t-141 45h-199zM338 1078h176l-73 -346h199q156 0 248 -83q89 -80 89 -209q0 -193 -134 -316q-137 -124 -359 -124h-375z" />
    <glyph glyph-name="uni044D" unicode="&#x44d;" horiz-adv-x="1192" 
d="M201 748q57 161 181 253q129 96 306 96q196 0 316 -121q120 -122 120 -325q0 -284 -151 -471q-159 -199 -421 -199q-190 0 -303 103q-102 95 -108 241h174q8 -82 73 -134q67 -55 169 -55q146 0 246 97q95 93 125 252h-494l31 144h478q2 144 -71 228q-75 85 -206 85
q-199 0 -291 -194h-174z" />
    <glyph glyph-name="uni044E" unicode="&#x44e;" horiz-adv-x="1685" 
d="M730 106q-121 124 -121 321q0 21 2 61h-222l-104 -488h-176l229 1078h176l-95 -446h214q50 208 188 333q147 132 355 132q195 0 315 -125q119 -123 119 -319q0 -277 -148 -467q-159 -205 -417 -205q-194 0 -315 125zM1316 269q110 139 110 343q0 154 -71 242t-195 88
q-168 0 -271 -145q-99 -140 -99 -357q0 -136 74 -219q75 -85 203 -85q143 0 249 133z" />
    <glyph glyph-name="uni044F" unicode="&#x44f;" horiz-adv-x="1087" 
d="M797 530l86 404h-203q-124 0 -204 -69q-77 -67 -77 -166q0 -79 51 -124q52 -45 144 -45h203zM766 386h-169l-356 -386h-222l392 420q-88 32 -138 102q-50 71 -50 166q0 165 125 273q134 117 362 117h379l-229 -1078h-176z" />
    <glyph glyph-name="uni0451" unicode="&#x451;" horiz-adv-x="1190" 
d="M295 97q-129 124 -129 335q0 297 157 482q156 183 404 183q174 0 288 -113q121 -120 122 -323q0 -86 -13 -162h-777q-2 -36 -2 -54q0 -154 86 -237q74 -70 184 -70q197 0 271 137h183q-34 -129 -155 -209q-127 -85 -310 -85q-188 0 -309 116zM955 638q2 12 2 45
q0 112 -62 184q-67 78 -184 78q-122 0 -214 -84q-89 -82 -127 -223h585zM488 1263q-35 36 -35 86t35 86q36 35 86 35t86 -35q35 -36 35 -86t-35 -86q-36 -35 -86 -35t-86 35zM892 1263q-35 36 -35 86t35 86q36 35 86 35t86 -35q35 -36 35 -86t-35 -86q-36 -35 -86 -35
t-86 35z" />
    <glyph glyph-name="uni0452" unicode="&#x452;" horiz-adv-x="1268" 
d="M506 932q133 165 339 165q143 0 238 -90q100 -95 100 -253q0 -52 -12 -109l-160 -749q-33 -153 -104 -222q-76 -73 -218 -73h-105l37 162h55q130 0 163 152l150 708q8 41 10 81q3 114 -61 177q-62 61 -169 61q-124 0 -210 -72q-95 -79 -128 -232l-136 -638h-176l275 1287
h-147l26 124h148l20 95h173l-21 -95h236l-26 -124h-236l-77 -355h16z" />
    <glyph glyph-name="uni0453" unicode="&#x453;" horiz-adv-x="951" 
d="M494 934l-199 -934h-176l229 1078h675l-30 -144h-499zM886 1601h220l-350 -338h-194z" />
    <glyph glyph-name="uni0454" unicode="&#x454;" horiz-adv-x="1166" 
d="M1088 325q-66 -157 -182 -246q-127 -98 -292 -98q-222 0 -336 133q-109 126 -109 356q0 251 150 431q161 194 415 194q176 0 297 -110q112 -101 123 -237h-175q-13 79 -84 135q-73 58 -165 58q-138 0 -237 -89q-93 -83 -126 -220h497l-30 -144h-486q-3 -167 65 -258
q70 -94 208 -94q187 0 281 189h186z" />
    <glyph glyph-name="uni0455" unicode="&#x455;" horiz-adv-x="1072" 
d="M284 289q21 -73 86 -117q68 -46 167 -46q109 0 179 47t70 121q0 103 -135 146l-165 53q-250 81 -250 282q0 143 115 233q114 89 289 89q169 0 278 -81q105 -79 127 -214h-171q-17 70 -79 109q-64 40 -158 40q-99 0 -163 -45q-65 -45 -65 -115q0 -97 151 -146l146 -47
q135 -43 196 -113q61 -69 61 -178q0 -142 -123 -234t-311 -92q-177 0 -294 85q-116 85 -128 223h177z" />
    <glyph glyph-name="uni0456" unicode="&#x456;" horiz-adv-x="536" 
d="M350 1078h176l-231 -1078h-176zM423 1332q-35 36 -35 85q0 50 35 85q36 35 85 35q50 0 85 -35t35 -85q0 -49 -35 -85q-35 -35 -85 -35q-49 0 -85 35z" />
    <glyph glyph-name="uni0457" unicode="&#x457;" horiz-adv-x="523" 
d="M370 1078h172l-229 -1078h-172zM225 1263q-35 36 -35 86t35 86q36 35 86 35t86 -35q35 -36 35 -86t-35 -86q-36 -35 -86 -35t-86 35zM629 1263q-35 36 -35 86t35 86q36 35 86 35t86 -35q35 -36 35 -86t-35 -86q-36 -35 -86 -35t-86 35z" />
    <glyph glyph-name="uni0458" unicode="&#x458;" horiz-adv-x="536" 
d="M272 -107q-32 -151 -116 -221q-83 -69 -229 -70q-44 0 -81 4l33 152q32 -3 53 -3q76 0 115 36t58 125l247 1162h172zM424 1332q-35 36 -35 85q0 50 35 85q36 35 85 35q50 0 85 -35t35 -85q0 -49 -35 -85q-35 -35 -85 -35q-49 0 -85 35z" />
    <glyph glyph-name="uni0459" unicode="&#x459;" horiz-adv-x="1713" 
d="M-10 2l34 158q21 -8 52 -8q140 0 231 325l170 601h705l-74 -346h199q156 0 248 -83q89 -80 89 -209q0 -193 -134 -316q-137 -124 -359 -124h-375l198 934h-371l-132 -461q-79 -275 -169 -378q-91 -104 -251 -104q-36 0 -61 11zM1078 588l-94 -444h198q128 0 209 82
q77 79 77 194q0 78 -51 123t-141 45h-198z" />
    <glyph glyph-name="uni045A" unicode="&#x45a;" horiz-adv-x="1753" 
d="M1221 144q122 0 201 65q75 62 75 146q0 153 -182 153h-216l-77 -364h199zM109 0l229 1078h176l-90 -426h530l90 426h176l-90 -426h216q151 0 241 -79q86 -75 86 -192q0 -165 -132 -272q-134 -109 -351 -109h-375l108 508h-530l-108 -508h-176z" />
    <glyph glyph-name="uni045B" unicode="&#x45b;" horiz-adv-x="1266" 
d="M505 917q126 180 333 180q153 0 252 -98q94 -93 94 -226q0 -56 -14 -124l-138 -649h-175l132 619q13 63 13 105q0 99 -63 158q-64 60 -174 60q-125 0 -216 -81q-88 -78 -115 -203l-140 -658h-175l275 1287h-147l26 124h148l20 95h175l-20 -95h233l-26 -124h-234l-80 -370
h16z" />
    <glyph glyph-name="uni045C" unicode="&#x45c;" horiz-adv-x="1081" 
d="M824 1263h-194l324 338h220zM1173 1078l-586 -519l383 -559h-205l-333 491h-43l-104 -491h-176l229 1078h176l-96 -451h43l493 451h219z" />
    <glyph glyph-name="uni045E" unicode="&#x45e;" horiz-adv-x="1132" 
d="M49 -380l26 147q39 -13 102 -13q108 0 205 181l39 73l-175 1070h171l128 -857h16l472 857h189l-686 -1196q-91 -159 -177 -219q-77 -55 -192 -55q-37 0 -118 12zM616 1556q-18 -86 19 -146q39 -64 124 -64q89 0 154 64q61 59 79 146h156q-32 -147 -130 -234
q-108 -94 -274 -94q-152 0 -230 94q-78 93 -48 234h150z" />
    <glyph glyph-name="uni045F" unicode="&#x45f;" horiz-adv-x="1212" 
d="M626 0l-61 -285h-162l61 285h-355l229 1078h176l-199 -934h520l199 934h176l-229 -1078h-355z" />
    <glyph glyph-name="uni0490" unicode="&#x490;" horiz-adv-x="1168" 
d="M317 0h-185l307 1443h701l60 285h167l-95 -447h-683z" />
    <glyph glyph-name="uni0491" unicode="&#x491;" horiz-adv-x="935" 
d="M484 934l-199 -934h-176l229 1078h513l61 285h162l-91 -429h-499z" />
    <glyph glyph-name="uni0E3F" unicode="&#xe3f;" horiz-adv-x="1328" 
d="M639 159q151 1 250 82q100 81 100 202q0 209 -243 222zM505 159l108 507h-175l-108 -507h175zM471 821h175l98 463h-175zM780 825q132 16 206 87q74 70 74 176q0 163 -183 191zM931 741q111 -22 179 -96q70 -78 70 -187q0 -201 -150 -329q-151 -129 -387 -129h-38
l-30 -142h-134l30 142h-358l307 1443h358l33 157h134l-34 -159q156 -13 246 -97q90 -85 90 -219q0 -136 -85 -237q-85 -100 -227 -131z" />
    <glyph glyph-name="uni1E00" unicode="&#x1e00;" horiz-adv-x="1380" 
d="M1015 413h-579l-232 -413h-193l845 1443h167l226 -1443h-176zM522 566h473l-95 641h-16zM402 -507q-68 67 -68 163t68 163q68 66 164 66t164 -66q68 -67 68 -163t-68 -163q-68 -66 -164 -66t-164 66zM653 -432q35 35 35 88t-35 88t-87 35t-87 -35t-35 -88t35 -88t87 -35
t87 35z" />
    <glyph glyph-name="uni1E01" unicode="&#x1e01;" horiz-adv-x="1126" 
d="M703 202q93 71 117 181l27 124l-287 -14q-132 -7 -205 -58q-73 -52 -73 -137q0 -74 58 -121t149 -47q121 0 214 72zM200 67q-95 86 -95 212q0 159 120 251q121 92 345 102l306 14l16 73q6 33 6 51q0 82 -61 127q-61 46 -170 46q-186 0 -239 -135h-182q36 133 153 211
q118 78 282 78q178 0 285 -82q107 -83 107 -220q0 -43 -9 -88l-150 -707h-167l30 141h-16q-121 -160 -326 -160q-141 0 -235 86zM297 -507q-68 67 -68 163t68 163q68 66 164 66t164 -66q68 -67 68 -163t-68 -163q-68 -66 -164 -66t-164 66zM548 -432q35 35 35 88t-35 88
t-87 35t-87 -35t-35 -88t35 -88t87 -35t87 35z" />
    <glyph glyph-name="uni1E02" unicode="&#x1e02;" horiz-adv-x="1346" 
d="M122 0l307 1443h501q185 0 295 -87q111 -86 111 -231q0 -136 -85 -237q-85 -100 -227 -131l-4 -16q116 -20 183 -96q66 -75 66 -187q0 -200 -157 -329q-156 -129 -400 -129h-590zM480 821h298q165 0 268 74t103 193q0 196 -288 196h-283zM706 159q159 0 266 81
q106 82 106 203q0 223 -296 223h-335l-108 -507h367zM818 1610q-35 36 -35 86t35 86q36 35 86 35t86 -35q35 -36 35 -86t-35 -86q-36 -35 -86 -35t-86 35z" />
    <glyph glyph-name="uni1E03" unicode="&#x1e03;" horiz-adv-x="1258" 
d="M459 42q-93 62 -125 157h-16l-44 -199h-165l320 1506h172l-120 -575h16q123 166 338 166q163 0 272 -118q110 -119 110 -299q0 -295 -159 -497q-160 -202 -393 -202q-112 0 -206 61zM927 284q110 148 110 370q0 136 -68 212q-69 76 -191 76q-167 0 -282 -147t-115 -361
q0 -137 73 -218q73 -80 198 -80q165 0 275 148zM482 1673q-35 36 -35 86t35 86q36 35 86 35t86 -35q35 -36 35 -86t-35 -86q-36 -35 -86 -35t-86 35z" />
    <glyph glyph-name="uni1E04" unicode="&#x1e04;" horiz-adv-x="1346" 
d="M122 0l307 1443h501q185 0 295 -87q111 -86 111 -231q0 -136 -85 -237q-85 -100 -227 -131l-4 -16q116 -20 183 -96q66 -75 66 -187q0 -200 -157 -329q-156 -129 -400 -129h-590zM480 821h298q165 0 268 74t103 193q0 196 -288 196h-283zM706 159q159 0 266 81
q106 82 106 203q0 223 -296 223h-335l-108 -507h367zM437 -367q-35 36 -35 86t35 86q36 35 86 35t86 -35q35 -36 35 -86t-35 -86q-36 -35 -86 -35t-86 35z" />
    <glyph glyph-name="uni1E05" unicode="&#x1e05;" horiz-adv-x="1258" 
d="M459 42q-93 62 -125 157h-16l-44 -199h-165l320 1506h172l-120 -575h16q123 166 338 166q163 0 272 -118q110 -119 110 -299q0 -295 -159 -497q-160 -202 -393 -202q-112 0 -206 61zM927 284q110 148 110 370q0 136 -68 212q-69 76 -191 76q-167 0 -282 -147t-115 -361
q0 -137 73 -218q73 -80 198 -80q165 0 275 148zM454 -367q-35 36 -35 86t35 86q36 35 86 35t86 -35q35 -36 35 -86t-35 -86q-36 -35 -86 -35t-86 35z" />
    <glyph glyph-name="uni1E06" unicode="&#x1e06;" horiz-adv-x="1346" 
d="M122 0l307 1443h501q185 0 295 -87q111 -86 111 -231q0 -136 -85 -237q-85 -100 -227 -131l-4 -16q116 -20 183 -96q66 -75 66 -187q0 -200 -157 -329q-156 -129 -400 -129h-590zM480 821h298q165 0 268 74t103 193q0 196 -288 196h-283zM706 159q159 0 266 81
q106 82 106 203q0 223 -296 223h-335l-108 -507h367zM172 -348l29 136h674l-29 -136h-674z" />
    <glyph glyph-name="uni1E07" unicode="&#x1e07;" horiz-adv-x="1258" 
d="M459 42q-93 62 -125 157h-16l-44 -199h-165l320 1506h172l-120 -575h16q123 166 338 166q163 0 272 -118q110 -119 110 -299q0 -295 -159 -497q-160 -202 -393 -202q-112 0 -206 61zM927 284q110 148 110 370q0 136 -68 212q-69 76 -191 76q-167 0 -282 -147t-115 -361
q0 -137 73 -218q73 -80 198 -80q165 0 275 148zM189 -348l29 136h674l-29 -136h-674z" />
    <glyph glyph-name="uni1E08" unicode="&#x1e08;" horiz-adv-x="1466" 
d="M1097 1577h-204l373 298h226zM1323 992v2q-11 145 -113 230q-102 86 -263 86q-236 0 -398 -212q-162 -213 -162 -525q0 -203 106 -322q106 -118 287 -118q146 0 258 68q112 67 151 179h190q-49 -177 -194 -286q-145 -108 -352 -125l-68 -109q179 -20 179 -156
q0 -85 -69 -140q-70 -55 -178 -55q-95 0 -175 36l23 108q65 -28 147 -28q104 0 104 70q0 72 -134 72h-53l13 90l70 112q-224 23 -358 180q-134 159 -134 405q0 399 217 661q216 262 544 262q235 0 390 -136q155 -137 155 -343v-6h-183z" />
    <glyph glyph-name="uni1E09" unicode="&#x1e09;" horiz-adv-x="1146" 
d="M887 1263h-194l324 338h220zM966 748q-8 84 -81 139q-72 55 -175 55q-160 0 -267 -138t-107 -343q0 -150 73 -237q72 -86 197 -86q210 0 275 170h179q-32 -144 -156 -233t-297 -94l-75 -121q179 -20 179 -156q0 -85 -69 -140q-70 -55 -178 -55q-95 0 -175 36l23 108
q65 -28 147 -28q104 0 104 70q0 72 -134 72h-53l13 90l85 137q-147 35 -233 152q-86 119 -86 292q0 284 161 471q162 188 408 188q159 0 274 -85q114 -84 139 -217q3 -15 5 -47h-176z" />
    <glyph glyph-name="uni1E0A" unicode="&#x1e0a;" horiz-adv-x="1486" 
d="M832 1443q299 0 465 -168q164 -167 164 -463q0 -347 -215 -580q-215 -232 -531 -232h-591l305 1443h403zM340 160h382q238 0 395 183q158 183 158 460q0 227 -120 353q-121 127 -337 127h-239zM750 1610q-35 36 -35 86t35 86q36 35 86 35t86 -35q35 -36 35 -86t-35 -86
q-36 -35 -86 -35t-86 35z" />
    <glyph glyph-name="uni1E0B" unicode="&#x1e0b;" horiz-adv-x="1258" 
d="M267 99q-115 123 -115 319q0 291 161 486q160 193 395 193q116 0 206 -61q88 -60 117 -157h16l133 627h175l-320 -1506h-166l31 147h-16q-127 -166 -340 -166q-166 0 -277 118zM879 283q113 147 113 361q0 137 -73 218q-73 80 -198 80q-166 0 -277 -140
q-112 -142 -112 -358q0 -137 74 -222q74 -86 193 -86q167 0 280 147zM1228 1673q-35 36 -35 86t35 86q36 35 86 35t86 -35q35 -36 35 -86t-35 -86q-36 -35 -86 -35t-86 35z" />
    <glyph glyph-name="uni1E0C" unicode="&#x1e0c;" horiz-adv-x="1486" 
d="M832 1443q299 0 465 -168q164 -167 164 -463q0 -347 -215 -580q-215 -232 -531 -232h-591l305 1443h403zM340 160h382q238 0 395 183q158 183 158 460q0 227 -120 353q-121 127 -337 127h-239zM410 -367q-35 36 -35 86t35 86q36 35 86 35t86 -35q35 -36 35 -86t-35 -86
q-36 -35 -86 -35t-86 35z" />
    <glyph glyph-name="uni1E0D" unicode="&#x1e0d;" horiz-adv-x="1258" 
d="M267 99q-115 123 -115 319q0 291 161 486q160 193 395 193q116 0 206 -61q88 -60 117 -157h16l133 627h175l-320 -1506h-166l31 147h-16q-127 -166 -340 -166q-166 0 -277 118zM879 283q113 147 113 361q0 137 -73 218q-73 80 -198 80q-166 0 -277 -140
q-112 -142 -112 -358q0 -137 74 -222q74 -86 193 -86q167 0 280 147zM465 -367q-35 36 -35 86t35 86q36 35 86 35t86 -35q35 -36 35 -86t-35 -86q-36 -35 -86 -35t-86 35z" />
    </font>
</defs>
</svg>
