<?xml version="1.0" standalone="no"?>
<!DOCTYPE svg PUBLIC "-//W3C//DTD SVG 1.1//EN" "http://www.w3.org/Graphics/SVG/1.1/DTD/svg11.dtd" >
<svg xmlns="http://www.w3.org/2000/svg" xmlns:xlink="http://www.w3.org/1999/xlink" version="1.1">
<metadata>
Created by FontForge 20170731 at Sat Jun 13 17:01:57 2015
 By Aleksey,,,
(c) 2015 Apple Inc. All rights reserved.
</metadata>
<defs>
<font id="SFUIText-LightItalic" horiz-adv-x="0" >
  <font-face 
    font-family="SF UI Text"
    font-weight="354"
    font-style="italic"
    font-stretch="normal"
    units-per-em="2048"
    panose-1="0 0 4 0 0 0 0 0 0 0"
    ascent="1638"
    descent="-410"
    x-height="1077"
    cap-height="1443"
    bbox="-484 -549 2913 2138"
    underline-thickness="50"
    underline-position="-175"
    slope="-12"
    unicode-range="U+0020-FB02"
  />
<missing-glyph horiz-adv-x="1293" 
d="M368 1365h1053l-290 -1365h-1053zM568 231q31 -28 80 -28q52 0 84 29q33 28 33 74t-31 74q-32 29 -83 29q-50 0 -82 -29q-32 -30 -32 -77q0 -44 31 -72zM644 908q9 57 50 90q40 33 100 33q62 0 101 -31t39 -80q0 -37 -28 -65q-29 -28 -122 -81q-93 -52 -131 -100
q-38 -47 -49 -121l-6 -42h150l7 39q7 43 34 68q26 26 118 79q189 106 189 232q0 106 -81 171q-82 64 -216 64q-132 0 -215 -69t-92 -187h152z" />
    <glyph glyph-name=".notdef" horiz-adv-x="1293" 
d="M368 1365h1053l-290 -1365h-1053zM568 231q31 -28 80 -28q52 0 84 29q33 28 33 74t-31 74q-32 29 -83 29q-50 0 -82 -29q-32 -30 -32 -77q0 -44 31 -72zM644 908q9 57 50 90q40 33 100 33q62 0 101 -31t39 -80q0 -37 -28 -65q-29 -28 -122 -81q-93 -52 -131 -100
q-38 -47 -49 -121l-6 -42h150l7 39q7 43 34 68q26 26 118 79q189 106 189 232q0 106 -81 171q-82 64 -216 64q-132 0 -215 -69t-92 -187h152z" />
    <glyph glyph-name="glyph1" 
 />
    <glyph glyph-name="glyph2" 
 />
    <glyph glyph-name="space" unicode=" " horiz-adv-x="554" 
 />
    <glyph glyph-name="exclam" unicode="!" horiz-adv-x="616" 
d="M647 1444l-221 -987h-128l197 987h152zM204 18q-33 33 -33 83t33 84q34 34 84 34t83 -34t33 -84t-33 -83q-33 -34 -83 -34t-84 34z" />
    <glyph glyph-name="quotedbl" unicode="&#x22;" horiz-adv-x="802" 
d="M329 935l108 508h124l-109 -508h-123zM662 935l108 508h123l-108 -508h-123z" />
    <glyph glyph-name="numbersign" unicode="#" horiz-adv-x="1316" 
d="M1130 918l-159 -381h231l-46 -111h-230l-179 -426h-118l179 426h-334l-178 -426h-117l178 426h-226l46 111h227l158 381h-223l46 110h222l175 417h117l-174 -417h333l175 417h118l-175 -417h234l-46 -110h-234zM520 535h334l159 384h-335z" />
    <glyph glyph-name="dollar" unicode="$" horiz-adv-x="1321" 
d="M705 93h12q163 0 260 81q94 79 94 206q0 95 -62 161q-57 60 -185 113zM868 1348h-14q-144 0 -237 -77q-92 -76 -92 -191q0 -85 57 -145q53 -55 175 -107zM892 771q324 -136 324 -377q0 -191 -144 -309q-142 -116 -366 -116q-18 0 -27 1l-26 -123h-104l29 135
q-166 34 -274 142q-110 111 -117 260h138q11 -107 86 -182q74 -73 193 -98l125 589l-37 15q-311 128 -311 365q0 174 135 286q137 114 356 114h22l27 126h104l-30 -139q152 -34 248 -138t101 -239h-137q-28 199 -238 252l-116 -547z" />
    <glyph glyph-name="percent" unicode="%" horiz-adv-x="1610" 
d="M483 1276q-63 -87 -63 -206q0 -85 40 -136q40 -52 107 -52q86 0 148 88q63 88 63 208q0 85 -39 135q-40 50 -106 50q-86 0 -150 -87zM165 0l1370 1443h146l-1370 -1443h-146zM370 861q-71 79 -71 210q0 163 99 278t241 115q116 0 188 -80q72 -79 72 -209q0 -162 -99 -278
q-100 -116 -240 -116q-118 0 -190 80zM1131 474q-63 -87 -63 -206q0 -85 40 -136q40 -52 106 -52q86 0 149 88q62 88 62 208q0 85 -39 135t-106 50q-86 0 -149 -87zM1018 59q-72 79 -72 210q0 163 100 278q99 115 240 115q117 0 189 -80q72 -79 72 -209q0 -162 -100 -278
t-240 -116q-118 0 -189 80z" />
    <glyph glyph-name="ampersand" unicode="&#x26;" horiz-adv-x="1472" 
d="M718 864q172 57 261 145q81 79 81 172q0 81 -58 130t-151 49q-104 0 -178 -68q-75 -68 -75 -163q0 -96 120 -265zM998 222l-342 508l-83 -33q-295 -113 -295 -324q0 -122 92 -200q93 -81 244 -81q221 0 384 130zM1062 124q-195 -148 -454 -148q-196 0 -331 111
q-136 112 -136 274q0 280 370 428l85 34q-130 189 -130 308q0 141 112 240q114 100 279 100q145 0 240 -78q94 -79 94 -198q0 -272 -414 -419l319 -464q143 161 168 384l9 65h129l-10 -71q-32 -275 -226 -481l141 -209h-162z" />
    <glyph glyph-name="quotesingle" unicode="'" horiz-adv-x="469" 
d="M329 935l108 508h124l-109 -508h-123z" />
    <glyph glyph-name="parenleft" unicode="(" horiz-adv-x="711" 
d="M356 -268q-114 240 -114 591q0 310 121 608q122 300 337 512h148q-224 -226 -348 -518q-125 -295 -125 -601q0 -324 101 -592h-120z" />
    <glyph glyph-name="parenright" unicode=")" horiz-adv-x="710" 
d="M519 1443q114 -240 114 -591q0 -311 -121 -608q-122 -300 -337 -512h-148q224 225 348 518q125 294 125 601q0 324 -101 592h120z" />
    <glyph glyph-name="asterisk" unicode="*" horiz-adv-x="1037" 
d="M723 947l-60 -335l-111 9l83 334l-322 -156l-36 104l330 132l-263 181l77 94l246 -203l61 337l111 -9l-83 -335l322 156l34 -103l-328 -133l261 -180l-76 -95z" />
    <glyph glyph-name="plus" unicode="+" horiz-adv-x="1321" 
d="M691 67h-118l98 456h-443l26 114h441l95 448h117l-95 -448h442l-25 -114h-441z" />
    <glyph glyph-name="comma" unicode="," horiz-adv-x="607" 
d="M91 -339l198 531h162l-246 -531h-114z" />
    <glyph glyph-name="hyphen" unicode="-" horiz-adv-x="975" 
d="M227 520l27 124h656l-27 -124h-656z" />
    <glyph glyph-name="period" unicode="." horiz-adv-x="593" 
d="M177 23q-33 32 -33 77q0 46 33 78q32 32 77 32q46 0 78 -32t32 -78q0 -45 -32 -77q-32 -33 -78 -33q-45 0 -77 33z" />
    <glyph glyph-name="slash" unicode="/" horiz-adv-x="695" 
d="M-44 -327l819 1770h120l-820 -1770h-119z" />
    <glyph glyph-name="zero" unicode="0" horiz-adv-x="1282" 
d="M335 113q-116 142 -116 375q0 413 193 701q192 284 462 284q191 0 308 -144q116 -143 116 -377q0 -415 -192 -700q-190 -282 -462 -282q-193 0 -309 143zM435 199q80 -108 219 -108q206 0 356 253q151 254 151 604q0 185 -79 294q-80 109 -217 109q-206 0 -358 -254
q-152 -255 -152 -604q0 -186 80 -294z" />
    <glyph glyph-name="one" unicode="1" horiz-adv-x="913" 
d="M731 1278h-12q-23 -12 -210 -124l-221 -133l34 157l446 267h136l-307 -1445h-137z" />
    <glyph glyph-name="two" unicode="2" horiz-adv-x="1222" 
d="M327 1069q25 179 161 291q136 113 328 113q179 0 301 -103q121 -104 121 -257q0 -123 -83 -237q-83 -113 -326 -326l-477 -414l-3 -12h748l-25 -124h-954l22 107l620 544q209 183 273 269q65 85 65 179q0 109 -83 182q-83 72 -208 72q-131 0 -226 -79q-96 -78 -119 -205
h-135z" />
    <glyph glyph-name="three" unicode="3" horiz-adv-x="1260" 
d="M575 804h205q147 0 247 86q101 87 101 213q0 110 -83 180q-83 69 -214 69q-115 0 -207 -66q-93 -66 -127 -172h-135q39 162 171 261q132 98 310 98q183 0 305 -101q121 -101 121 -253q0 -144 -95 -246q-94 -102 -251 -128l-2 -12q126 -25 196 -104q69 -79 69 -199
q0 -202 -150 -331q-151 -129 -387 -129q-200 0 -337 108q-136 109 -136 267q0 24 4 46h132q-3 -13 -3 -27q0 -119 98 -197q99 -77 250 -77q174 0 282 91q107 92 107 241q0 118 -94 191q-94 72 -245 72h-156z" />
    <glyph glyph-name="four" unicode="4" horiz-adv-x="1312" 
d="M871 326h-725l21 129q310 386 870 990h205l-211 -996h215l-26 -123h-215l-70 -326h-134zM317 448h580l184 864h-10q-426 -452 -752 -855z" />
    <glyph glyph-name="five" unicode="5" horiz-adv-x="1256" 
d="M327 81q-134 110 -134 270q0 14 2 24h135v-7q0 -120 93 -198q93 -79 240 -79q176 0 289 119q112 117 112 298q0 139 -91 226q-90 85 -233 85q-207 0 -330 -154h-137l242 778h781l-26 -123h-667l-154 -506l12 -1q120 122 311 122q183 0 307 -116q125 -117 125 -293
q0 -242 -150 -398q-152 -158 -396 -158q-197 0 -331 111z" />
    <glyph glyph-name="six" unicode="6" horiz-adv-x="1288" 
d="M1074 134q-161 -164 -398 -164q-208 0 -334 135q-131 139 -131 376q0 353 160 641q192 351 524 351q185 0 308 -108q122 -107 129 -275h-141q-8 118 -92 189t-216 71q-184 0 -319 -166t-195 -470l12 -1q67 109 178 171q112 63 243 63q188 0 310 -116q122 -115 122 -293
q0 -241 -160 -404zM478 709q-124 -121 -124 -294q0 -143 92 -232q92 -90 239 -90q171 0 290 124q118 124 118 304q0 135 -90 222q-91 86 -231 86q-172 0 -294 -120z" />
    <glyph glyph-name="seven" unicode="7" horiz-adv-x="1161" 
d="M1134 1308l2 12h-775l27 123h919l-27 -128l-940 -1315h-153z" />
    <glyph glyph-name="eight" unicode="8" horiz-adv-x="1294" 
d="M1058 101q-155 -131 -395 -131q-221 0 -359 108q-135 106 -135 271q0 169 115 289q113 118 287 135l3 12q-93 37 -145 111q-53 72 -53 162q0 176 137 295q140 120 352 120q188 0 313 -99q123 -97 123 -243q0 -145 -94 -249q-92 -101 -240 -127l-3 -12q114 -39 179 -122
q67 -84 67 -191q0 -199 -152 -329zM423 607q-112 -95 -112 -238q0 -129 96 -204q96 -76 262 -76q177 0 290 96q112 96 112 243q0 121 -102 198q-101 76 -260 76q-173 0 -286 -95zM593 881q85 -66 225 -66q149 0 247 84q98 85 98 215q0 108 -84 174q-85 66 -223 66
q-153 0 -251 -87q-96 -86 -96 -215q0 -105 84 -171z" />
    <glyph glyph-name="nine" unicode="9" horiz-adv-x="1288" 
d="M1034 736q123 121 123 293q0 143 -93 232q-94 89 -241 89q-174 0 -290 -121q-115 -121 -115 -299q0 -136 90 -226q91 -90 231 -90q173 0 295 122zM435 1312q158 161 397 161q213 0 340 -138q128 -139 128 -371q0 -354 -160 -644q-190 -350 -524 -350q-185 0 -307 107
q-123 107 -130 275h141q8 -118 92 -189q84 -70 216 -70q185 0 319 167q135 166 195 469l-12 1q-68 -110 -180 -172q-111 -62 -241 -62q-187 0 -310 119q-122 119 -122 298q0 239 158 399z" />
    <glyph glyph-name="colon" unicode=":" horiz-adv-x="593" 
d="M177 23q-33 32 -33 77q0 46 33 78q32 32 77 32q46 0 78 -32t32 -78q0 -45 -32 -77q-32 -33 -78 -33q-45 0 -77 33zM347 796q-33 32 -33 78t33 78q32 32 77 32q46 0 78 -32t32 -78t-32 -78q-32 -33 -78 -33q-45 0 -77 33z" />
    <glyph glyph-name="semicolon" unicode=";" horiz-adv-x="593" 
d="M39 -339l199 531h162l-246 -531h-115zM347 796q-33 32 -33 78t33 78q32 32 77 32q46 0 78 -32t32 -78t-32 -78q-32 -33 -78 -33q-45 0 -77 33z" />
    <glyph glyph-name="less" unicode="&#x3c;" horiz-adv-x="1321" 
d="M1048 -35l-752 583l23 109l978 478l-30 -145l-826 -396l-2 -12l639 -476z" />
    <glyph glyph-name="equal" unicode="=" horiz-adv-x="1321" 
d="M191 331l25 115h995l-25 -115h-995zM272 714l25 115h995l-25 -115h-995z" />
    <glyph glyph-name="greater" unicode="&#x3e;" horiz-adv-x="1321" 
d="M422 1135l752 -583l-24 -109l-977 -478l30 145l826 396l2 12l-639 476z" />
    <glyph glyph-name="question" unicode="?" horiz-adv-x="1020" 
d="M273 1102q34 164 149 258q119 98 298 98q174 0 285 -96q108 -94 108 -232q0 -128 -80 -232q-77 -102 -211 -158q-107 -45 -156 -96q-49 -52 -65 -136l-16 -78h-136l20 94q26 118 88 186q57 62 177 113q235 102 235 293q0 94 -66 156q-71 66 -192 66q-113 0 -194 -63
q-80 -63 -112 -173h-132zM371 17q-33 34 -33 84q0 51 33 85q33 33 84 33q50 0 83 -33q33 -34 33 -85q0 -50 -33 -84q-33 -33 -83 -33q-51 0 -84 33z" />
    <glyph glyph-name="at" unicode="@" horiz-adv-x="1871" 
d="M1703 1251q210 -185 210 -470q0 -268 -132 -453q-131 -186 -321 -186q-92 0 -151 47t-59 120l1 23l-12 1q-90 -156 -266 -156q-138 0 -221 91q-84 91 -84 241q0 211 121 359q122 149 294 149q93 0 164 -52q72 -51 86 -130h12l31 147h121l-128 -593q-6 -33 -6 -46
q0 -102 123 -102q127 0 223 162q97 161 97 373q0 248 -181 405q-180 156 -467 156q-344 0 -578 -239q-234 -238 -234 -588q0 -296 199 -473q198 -178 528 -178q132 0 203 22l-21 -99q-94 -22 -216 -22q-355 0 -578 205t-223 532q0 406 264 672q264 267 667 267
q323 0 534 -185zM1245 843q-56 65 -151 65q-125 0 -214 -114q-88 -114 -88 -276q0 -107 56 -170q55 -63 149 -63q124 0 214 114q90 113 90 271q0 109 -56 173z" />
    <glyph glyph-name="A" unicode="A" horiz-adv-x="1363" 
d="M1044 443h-608l-254 -443h-149l851 1443h128l233 -1443h-134zM502 560h527l-110 702h-13z" />
    <glyph glyph-name="B" unicode="B" horiz-adv-x="1324" 
d="M142 0l307 1443h480q182 0 292 -86q108 -86 108 -225q0 -144 -92 -247q-91 -103 -240 -129l-3 -13q123 -20 195 -98q71 -78 71 -194q0 -195 -151 -322q-153 -129 -394 -129h-573zM453 807h347q170 0 278 83q109 83 109 214q0 104 -77 160q-79 58 -229 58h-319zM711 121
q175 0 291 93q114 91 114 226q0 119 -85 183q-85 65 -247 65h-357l-120 -567h404z" />
    <glyph glyph-name="C" unicode="C" horiz-adv-x="1461" 
d="M1377 990l1 15q-8 150 -121 245q-115 96 -293 96q-251 0 -425 -221q-174 -222 -174 -543q0 -226 115 -356q116 -129 316 -129q160 0 283 78q123 77 166 204h144q-54 -189 -217 -299q-164 -110 -390 -110q-255 0 -407 162t-152 435q0 389 215 648q214 258 536 258
q234 0 389 -134q153 -133 153 -331l-1 -18h-138z" />
    <glyph glyph-name="D" unicode="D" horiz-adv-x="1476" 
d="M862 1443q286 0 448 -163q160 -161 160 -444q0 -359 -223 -598q-222 -238 -555 -238h-548l305 1443h413zM308 122h390q272 0 452 201q180 202 180 506q0 230 -127 361q-128 131 -352 131h-288z" />
    <glyph glyph-name="E" unicode="E" horiz-adv-x="1196" 
d="M1015 0h-873l307 1443h873l-27 -124h-732l-112 -519h697l-26 -122h-696l-119 -554h734z" />
    <glyph glyph-name="F" unicode="F" horiz-adv-x="1153" 
d="M142 0l307 1443h858l-27 -124h-717l-117 -542h660l-26 -122h-660l-138 -655h-140z" />
    <glyph glyph-name="G" unicode="G" horiz-adv-x="1505" 
d="M1446 529q-56 -270 -225 -414q-169 -145 -427 -145t-413 165q-156 166 -156 441q0 387 213 642t535 255q224 0 375 -124q150 -124 160 -314q1 -7 1 -28h-138q-8 150 -119 244q-113 95 -289 95q-252 0 -424 -218t-172 -538q0 -230 119 -362q119 -131 326 -131
q186 0 320 115q135 115 172 307l16 81h-434l26 121h573z" />
    <glyph glyph-name="H" unicode="H" horiz-adv-x="1489" 
d="M1122 0l144 677h-841l-144 -677h-139l307 1443h140l-137 -642h841l137 642h139l-307 -1443h-140z" />
    <glyph glyph-name="I" unicode="I" horiz-adv-x="509" 
d="M142 0l307 1443h140l-307 -1443h-140z" />
    <glyph glyph-name="J" unicode="J" horiz-adv-x="1091" 
d="M268 330v-6q1 -103 70 -164q69 -62 182 -62q235 0 298 290l224 1055h136l-231 -1090q-39 -183 -153 -282q-115 -101 -290 -101q-169 0 -275 100q-106 101 -98 253v7h137z" />
    <glyph glyph-name="K" unicode="K" horiz-adv-x="1311" 
d="M142 0l307 1443h136l-158 -743h12l833 743h180l-706 -631l458 -812h-159l-407 728l-250 -221l-109 -507h-137z" />
    <glyph glyph-name="L" unicode="L" horiz-adv-x="1139" 
d="M1002 0h-860l307 1443h140l-282 -1319h721z" />
    <glyph glyph-name="M" unicode="M" horiz-adv-x="1763" 
d="M142 0l307 1443h150l267 -1256h12l797 1256h167l-307 -1443h-131l250 1177h-9l-745 -1170h-119l-248 1170h-10l-250 -1177h-131z" />
    <glyph glyph-name="N" unicode="N" horiz-adv-x="1492" 
d="M142 0l307 1443h135l579 -1218h12l259 1218h138l-307 -1443h-133l-581 1220h-12l-259 -1220h-138z" />
    <glyph glyph-name="O" unicode="O" horiz-adv-x="1564" 
d="M384 139q-161 170 -161 435q0 385 219 642t547 257q252 0 412 -169t160 -435q0 -387 -218 -643q-217 -256 -545 -256q-253 0 -414 169zM1298 1212q-121 134 -319 134q-260 0 -436 -219t-176 -542q0 -220 121 -354t320 -134q261 0 436 217q174 218 174 544q0 220 -120 354
z" />
    <glyph glyph-name="P" unicode="P" horiz-adv-x="1279" 
d="M929 1443q181 0 297 -104q117 -105 117 -273q0 -237 -161 -381q-156 -141 -403 -141h-382l-115 -544h-140l309 1443h478zM423 666h349q193 0 310 103q118 105 118 285q0 123 -84 195q-85 72 -232 72h-320z" />
    <glyph glyph-name="Q" unicode="Q" horiz-adv-x="1570" 
d="M1145 -169l-95 184q-116 -45 -251 -45q-254 0 -416 168q-162 167 -162 426q0 388 220 648q221 261 554 261q253 0 414 -168q161 -167 161 -427q0 -265 -108 -480q-107 -213 -294 -326l125 -241h-148zM991 129l-138 266h148l108 -207q147 97 231 275q86 181 86 403
q0 216 -121 348t-320 132q-264 0 -442 -222t-178 -547q0 -216 122 -348t322 -132q94 0 182 32z" />
    <glyph glyph-name="R" unicode="R" horiz-adv-x="1311" 
d="M451 1443h474q194 0 308 -101q113 -100 113 -273t-110 -298t-293 -159l220 -612h-150l-206 591h-398l-127 -591h-140zM434 714h376q174 0 283 95t109 247q0 124 -75 194q-75 71 -207 71h-356z" />
    <glyph glyph-name="S" unicode="S" horiz-adv-x="1267" 
d="M279 392q19 -134 130 -215q112 -82 276 -82q165 0 266 79q102 80 102 209q0 182 -263 274l-136 48q-319 112 -319 365q0 174 141 289q140 114 353 114q202 0 342 -112q139 -112 155 -286h-137q-23 124 -124 199q-100 74 -245 74q-148 0 -244 -75q-97 -76 -97 -192
q0 -168 257 -260l132 -47q329 -118 329 -376q0 -190 -146 -309q-145 -119 -377 -119q-222 0 -367 115t-166 307h138z" />
    <glyph glyph-name="T" unicode="T" horiz-adv-x="1275" 
d="M526 0l280 1319h-482l26 124h1104l-26 -124h-482l-281 -1319h-139z" />
    <glyph glyph-name="U" unicode="U" horiz-adv-x="1499" 
d="M381 99q-128 120 -130 315q-1 60 13 132l189 897h140l-188 -890q-14 -66 -13 -132q3 -152 101 -236q98 -85 276 -85q175 0 300 102q127 105 165 285l204 956h140l-210 -981q-50 -233 -208 -359q-161 -129 -413 -129q-232 0 -366 125z" />
    <glyph glyph-name="V" unicode="V" horiz-adv-x="1363" 
d="M572 0l-233 1443h130l202 -1259h12l719 1259h152l-846 -1443h-136z" />
    <glyph glyph-name="W" unicode="W" horiz-adv-x="1958" 
d="M584 0h-133l-91 1443h126l69 -1230h9l609 1230h122l100 -1230h10l581 1230h141l-698 -1443h-133l-103 1206h-9z" />
    <glyph glyph-name="X" unicode="X" horiz-adv-x="1367" 
d="M717 744l-338 699h156l282 -609h11l551 609h158l-659 -726l344 -717h-148l-295 618h-11l-558 -618h-157z" />
    <glyph glyph-name="Y" unicode="Y" horiz-adv-x="1321" 
d="M549 0l133 624l-342 819h143l289 -685h12l568 685h159l-695 -837l-127 -606h-140z" />
    <glyph glyph-name="Z" unicode="Z" horiz-adv-x="1328" 
d="M117 99l1111 1208l3 13h-826l26 123h1011l-21 -100l-1109 -1207l-2 -13h863l-26 -123h-1051z" />
    <glyph glyph-name="bracketleft" unicode="[" horiz-adv-x="733" 
d="M875 1444l-23 -106h-288l-313 -1472h302l-23 -104h-429l357 1682h417z" />
    <glyph glyph-name="backslash" unicode="\" horiz-adv-x="695" 
d="M335 1443h112l66 -1770h-110z" />
    <glyph glyph-name="bracketright" unicode="]" horiz-adv-x="733" 
d="M446 -238h-421l23 105h293l312 1472h-296l22 104h425z" />
    <glyph glyph-name="asciicircum" unicode="^" horiz-adv-x="840" 
d="M338 818h-133l406 604h137l149 -604h-124l-109 485h-11z" />
    <glyph glyph-name="underscore" unicode="_" horiz-adv-x="919" 
d="M-96 -222l21 100h934l-21 -100h-934z" />
    <glyph glyph-name="grave" unicode="`" horiz-adv-x="999" 
d="M789 1267l-199 327h163l180 -327h-144z" />
    <glyph glyph-name="a" unicode="a" horiz-adv-x="1126" 
d="M740 178q106 80 132 202l32 149l-321 -17q-152 -8 -235 -68q-83 -59 -83 -158q0 -83 65 -136q66 -53 170 -53q135 0 240 81zM224 65q-94 83 -94 208q0 156 119 246q120 91 341 101l337 16l17 81q8 42 8 64q0 92 -67 144q-68 52 -188 52q-106 0 -181 -45t-100 -122h-139
q33 130 151 207q117 78 280 78q171 0 274 -81q103 -80 103 -216q0 -39 -10 -89l-150 -709h-128l35 165h-12q-57 -84 -153 -133q-97 -50 -206 -50q-142 0 -237 83z" />
    <glyph glyph-name="b" unicode="b" horiz-adv-x="1257" 
d="M451 55q-99 74 -125 189h-12l-53 -244h-126l320 1506h131l-129 -613h13q133 202 371 202q167 0 276 -117q110 -118 110 -301q0 -290 -158 -491q-160 -204 -392 -204q-128 0 -226 73zM969 264q121 162 121 394q0 149 -78 234t-213 85q-189 0 -314 -171
q-117 -161 -117 -376q0 -151 82 -240q81 -89 219 -89q178 0 300 163z" />
    <glyph glyph-name="c" unicode="c" horiz-adv-x="1143" 
d="M1023 760q-11 95 -91 156q-81 61 -196 61q-178 0 -299 -153q-120 -153 -120 -378q0 -159 82 -252q81 -92 220 -92q112 0 195 50q84 50 117 138h136q-35 -139 -161 -223q-126 -85 -298 -85q-194 0 -311 122t-117 324q0 287 161 477q162 190 406 190q155 0 267 -81
q111 -81 137 -209q5 -22 6 -45h-134z" />
    <glyph glyph-name="d" unicode="d" horiz-adv-x="1265" 
d="M290 101q-113 122 -113 315q0 286 164 483q162 196 394 196q130 0 224 -72q95 -73 119 -189h12l142 672h134l-320 -1506h-127l39 185h-13q-63 -94 -163 -148q-101 -55 -214 -55q-167 0 -278 119zM918 262q124 158 124 385q0 151 -81 241q-81 89 -218 89q-178 0 -303 -156
q-126 -158 -126 -385q0 -150 81 -242q81 -93 213 -93q185 0 310 161z" />
    <glyph glyph-name="e" unicode="e" horiz-adv-x="1179" 
d="M304 98q-124 121 -124 326q0 294 159 483q158 188 402 188q172 0 286 -115q119 -120 119 -313q0 -87 -14 -154h-811q-5 -43 -5 -78q0 -162 91 -252q83 -81 214 -81q226 0 309 162h140q-38 -125 -158 -202q-126 -80 -300 -80q-189 0 -308 116zM1006 621q4 24 4 60
q0 127 -74 211q-79 87 -207 87q-138 0 -244 -99q-105 -98 -146 -259h667z" />
    <glyph glyph-name="f" unicode="f" horiz-adv-x="723" 
d="M404 966h-176l23 111h176l24 124q58 292 343 292q61 0 116 -12l-23 -111q-44 11 -106 11q-161 0 -196 -184l-24 -120h250l-24 -111h-249l-203 -966h-134z" />
    <glyph glyph-name="g" unicode="g" horiz-adv-x="1247" 
d="M231 -319q-118 82 -130 202h139q15 -75 92 -122q82 -50 205 -50q146 0 241 73q92 71 122 201l50 225h-12q-123 -199 -363 -199q-171 0 -281 119q-112 120 -112 311q0 281 156 468q156 186 387 186q129 0 227 -73q97 -72 123 -187h12l50 233l127 -1l-238 -1107
q-36 -171 -167 -267q-132 -96 -334 -96q-174 0 -294 84zM916 277q118 148 118 372q0 152 -83 241q-81 87 -218 87q-178 0 -295 -146q-119 -147 -119 -371q0 -156 79 -244q79 -89 216 -89q182 0 302 150z" />
    <glyph glyph-name="h" unicode="h" horiz-adv-x="1229" 
d="M457 1506h133l-131 -611h12q132 200 356 200q156 0 255 -96q95 -92 95 -230q0 -60 -12 -116l-139 -653h-133l134 630q12 59 12 104q0 110 -71 176q-72 67 -193 67q-137 0 -239 -91q-98 -88 -127 -224l-141 -662h-133z" />
    <glyph glyph-name="i" unicode="i" horiz-adv-x="489" 
d="M369 1077h133l-230 -1077h-134zM434 1346q-28 28 -28 69q0 40 28 68q29 29 69 29t69 -29q28 -28 28 -68q0 -41 -28 -69q-29 -29 -69 -29t-69 29z" />
    <glyph glyph-name="j" unicode="j" horiz-adv-x="487" 
d="M249 -103q-30 -144 -110 -210q-78 -64 -214 -64q-37 0 -76 3l25 117q30 -3 55 -3q83 0 127 40q45 40 65 134l247 1163h131zM433 1346q-29 29 -29 69t29 68q28 29 68 29t69 -29q29 -28 29 -68t-29 -69q-28 -29 -69 -29q-40 0 -68 29z" />
    <glyph glyph-name="k" unicode="k" horiz-adv-x="1074" 
d="M1022 1077h177l-583 -464l378 -613h-154l-330 539l-152 -112l-90 -427h-133l320 1506h133l-194 -912h12z" />
    <glyph glyph-name="l" unicode="l" horiz-adv-x="489" 
d="M455 1506h134l-320 -1506h-134z" />
    <glyph glyph-name="m" unicode="m" horiz-adv-x="1777" 
d="M354 1077h128l-39 -182h12q47 91 129 145q84 55 182 55q119 0 202 -68q76 -63 91 -155h12q49 94 132 153q98 70 221 70q134 0 220 -84q86 -83 86 -212q0 -64 -13 -125l-143 -674h-133l138 651q13 63 13 113q0 92 -57 151q-60 62 -160 62q-114 0 -200 -84
q-87 -84 -116 -221l-143 -672h-133l138 651q14 68 14 113q0 91 -58 151q-60 62 -160 62q-111 0 -198 -83q-88 -82 -115 -212l-146 -682h-133z" />
    <glyph glyph-name="n" unicode="n" horiz-adv-x="1212" 
d="M354 1077h128l-39 -183h12q131 201 360 201q153 0 251 -95q95 -93 95 -228q0 -58 -13 -119l-139 -653h-133l134 630q13 63 13 107q0 108 -70 173q-71 67 -190 67q-135 0 -237 -91q-98 -88 -127 -224l-141 -662h-133z" />
    <glyph glyph-name="o" unicode="o" horiz-adv-x="1218" 
d="M403 196q86 -95 230 -95q168 0 287 148q122 151 122 374q0 164 -83 259t-225 95q-186 0 -302 -155q-113 -150 -113 -380q0 -153 84 -246zM300 106q-120 123 -120 322q0 282 153 470q159 197 413 197q196 0 316 -123t120 -321q0 -278 -152 -468q-159 -201 -413 -201
q-196 0 -317 124z" />
    <glyph glyph-name="p" unicode="p" horiz-adv-x="1251" 
d="M961 264q122 162 122 394q0 149 -76 234q-77 85 -211 85q-186 0 -312 -166q-123 -160 -123 -381q0 -152 80 -240q81 -89 218 -89q179 0 302 163zM49 -371l308 1448h127l-39 -184h12q136 202 379 202q166 0 275 -117q109 -118 109 -301q0 -289 -160 -491
q-161 -204 -393 -204q-130 0 -224 73q-94 72 -117 189h-12l-133 -615h-132z" />
    <glyph glyph-name="q" unicode="q" horiz-adv-x="1252" 
d="M914 262q124 158 124 385q0 151 -81 241q-81 89 -218 89q-179 0 -303 -161q-123 -159 -123 -385q0 -154 77 -242t212 -88q186 0 312 161zM832 -371l116 556h-12q-133 -203 -375 -203q-167 0 -275 120q-110 122 -110 309q0 284 161 483q161 201 394 201q127 0 225 -73
q98 -74 123 -189h13l52 244h127l-308 -1448h-131z" />
    <glyph glyph-name="r" unicode="r" horiz-adv-x="774" 
d="M349 1077h127l-34 -157h13q108 175 300 175q91 0 135 -20l-28 -126q-51 19 -140 19q-127 0 -213 -81t-118 -232l-139 -655h-132z" />
    <glyph glyph-name="s" unicode="s" horiz-adv-x="1050" 
d="M260 281q19 -84 95 -135q78 -52 190 -52q121 0 200 55q78 55 78 141q0 116 -171 175l-143 48q-248 83 -248 273q0 136 112 223q111 86 280 86q161 0 267 -79q105 -77 123 -205h-130q-15 77 -87 125q-73 47 -177 47q-110 0 -182 -53q-73 -53 -73 -132q0 -111 174 -170
l129 -43q137 -47 199 -114q62 -68 62 -172q0 -138 -119 -227q-119 -90 -300 -90q-173 0 -288 83t-126 216h135z" />
    <glyph glyph-name="t" unicode="t" horiz-adv-x="724" 
d="M311 45q-68 53 -68 151q0 38 11 93l144 677h-173l24 111h173l57 276h134l-59 -276h257l-23 -111h-257l-137 -642q-11 -55 -11 -91q0 -123 149 -123q51 0 75 3l-24 -112q-42 -7 -96 -7q-112 0 -176 51z" />
    <glyph glyph-name="u" unicode="u" horiz-adv-x="1210" 
d="M1002 0h-127l38 173h-12q-118 -191 -365 -191q-150 0 -246 91q-94 89 -94 225q0 64 14 129l137 650h134l-134 -629q-14 -68 -14 -118q0 -110 66 -170q65 -59 185 -59q139 0 243 92q102 90 131 230l140 654h133z" />
    <glyph glyph-name="v" unicode="v" horiz-adv-x="1078" 
d="M386 1077l140 -912h13l513 912h146l-627 -1077h-145l-172 1077h132z" />
    <glyph glyph-name="w" unicode="w" horiz-adv-x="1567" 
d="M1151 0h-139l-80 890h-12l-451 -890h-138l-78 1077h122l59 -908h12l451 908h139l71 -914h12l434 914h134z" />
    <glyph glyph-name="x" unicode="x" horiz-adv-x="1049" 
d="M573 436l-384 -436h-157l495 546l-269 531h143l209 -432h12l382 432h158l-493 -539l268 -538h-138l-214 436h-12z" />
    <glyph glyph-name="y" unicode="y" horiz-adv-x="1079" 
d="M67 -364l20 114q37 -11 85 -11q116 0 220 188l40 72l-179 1078h131l143 -913h12l515 913h145l-691 -1193q-86 -149 -165 -205q-72 -52 -179 -52q-43 0 -97 9z" />
    <glyph glyph-name="z" unicode="z" horiz-adv-x="1082" 
d="M110 100l822 854l3 12h-639l24 111h816l-23 -101l-818 -853l-3 -12h640l-24 -111h-819z" />
    <glyph glyph-name="braceleft" unicode="{" horiz-adv-x="809" 
d="M334 610q135 -26 135 -146q0 -37 -10 -90l-77 -360q-9 -43 -9 -78q0 -155 200 -155h55l-22 -106h-49q-148 0 -232 63q-82 62 -82 169q0 49 13 108l66 309q13 63 13 107q0 58 -33 83q-34 26 -111 26l34 158q99 0 147 45t74 165l64 295q36 170 144 244q99 68 287 68h53
l-23 -109h-52q-131 0 -196 -51q-66 -52 -94 -180l-66 -313q-26 -118 -80 -173q-52 -53 -145 -62z" />
    <glyph glyph-name="bar" unicode="|" horiz-adv-x="661" 
d="M161 -328l377 1771h115l-377 -1771h-115z" />
    <glyph glyph-name="braceright" unicode="}" horiz-adv-x="809" 
d="M644 580q-135 26 -135 146q0 37 10 90l77 360q9 44 9 78q0 155 -200 155h-55l22 106h49q148 0 232 -63q82 -62 82 -169q0 -49 -13 -108l-66 -310q-12 -57 -12 -106q0 -58 33 -84t110 -26l-34 -157q-99 0 -147 -45q-48 -46 -74 -166l-63 -294q-37 -170 -144 -244
q-100 -68 -287 -68h-54l23 109h52q131 0 196 51q67 52 94 180l67 312q25 119 79 174q52 53 145 62z" />
    <glyph glyph-name="asciitilde" unicode="~" horiz-adv-x="1204" 
d="M578 642q-59 66 -73 79q-41 36 -80 36q-121 0 -154 -188h-130q17 143 99 229q79 83 189 83q102 0 204 -115q58 -67 73 -80q41 -36 80 -36q120 0 153 187h130q-18 -145 -98 -229q-78 -82 -188 -82q-103 0 -205 116z" />
    <glyph glyph-name="uni00A0" unicode="&#xa0;" horiz-adv-x="554" 
 />
    <glyph glyph-name="exclamdown" unicode="&#xa1;" horiz-adv-x="617" 
d="M119 -340l221 986h129l-198 -986h-152zM562 1085q33 -33 33 -83t-33 -83q-33 -34 -83 -34q-51 0 -83 34q-33 33 -33 83t33 83q32 34 83 34q50 0 83 -34z" />
    <glyph glyph-name="cent" unicode="&#xa2;" horiz-adv-x="1321" 
d="M1190 471q-34 -134 -152 -218q-118 -83 -281 -90q-2 0 -43 -192h-131l43 204q-149 32 -235 148q-88 117 -88 289q0 280 154 469q155 189 391 198l36 167h131l-38 -180q117 -24 196 -98q80 -74 101 -179q5 -22 6 -45h-134q-11 95 -91 156t-195 61q-179 0 -300 -153
q-120 -153 -120 -378q0 -160 82 -253q82 -94 221 -94q111 0 195 50q83 50 116 138h136z" />
    <glyph glyph-name="sterling" unicode="&#xa3;" horiz-adv-x="1321" 
d="M1164 0h-1063l24 116q161 28 277 144q130 131 130 312q0 25 -6 93h-298l23 112h263q-16 167 -16 214q0 229 133 354q138 131 402 131q206 0 346 -73l-24 -123q-128 74 -326 74q-181 0 -284 -88q-104 -90 -104 -253q0 -47 18 -236h438l-24 -112h-407q3 -37 3 -73
q0 -179 -83 -301q-79 -116 -215 -161l-3 -12h821z" />
    <glyph glyph-name="currency" unicode="&#xa4;" horiz-adv-x="1321" 
d="M537 454q85 -84 199 -84q118 0 202 84t84 202t-84 202t-202 84t-202 -84t-84 -202q0 -117 87 -202zM1065 858q57 -93 57 -202q0 -151 -104 -263l108 -137l-95 -75l-108 138q-89 -49 -187 -49q-149 0 -260 101l-239 -196l-68 85l237 196q-56 94 -56 200q0 149 102 261
l-110 139l95 76l110 -140q88 50 189 50q148 0 259 -101l235 195l68 -86z" />
    <glyph glyph-name="yen" unicode="&#xa5;" horiz-adv-x="1321" 
d="M754 310l-65 -310h-140l66 310h-305l22 105h305l39 184h-305l23 106h260l-315 738h143l291 -678h13l566 678h158l-619 -738h248l-23 -106h-302l-39 -184h302l-22 -105h-301z" />
    <glyph glyph-name="brokenbar" unicode="&#xa6;" horiz-adv-x="662" 
d="M394 765l144 678h115l-144 -678h-115zM161 -328l145 680h115l-145 -680h-115z" />
    <glyph glyph-name="section" unicode="&#xa7;" horiz-adv-x="1037" 
d="M622 355q113 14 182 75q70 62 70 151q0 123 -163 183l-96 35q-115 -6 -193 -70q-79 -64 -79 -154q0 -115 167 -177zM198 -166q-114 84 -124 215h136q17 -83 89 -134q74 -53 182 -53q115 0 190 55q74 55 74 141q0 117 -164 177l-130 48q-241 88 -241 275q0 110 82 189
q79 77 202 96l3 14q-158 85 -158 233q0 135 108 221q106 84 270 84q156 0 260 -80q101 -78 117 -204h-130q-13 75 -82 124q-70 48 -168 48q-104 0 -173 -53q-69 -52 -69 -132q0 -109 167 -171l116 -43q131 -49 190 -111q64 -68 64 -169q0 -108 -75 -189q-75 -82 -199 -107
l-2 -9q147 -92 147 -235q0 -137 -115 -226q-114 -88 -291 -88q-164 0 -276 84z" />
    <glyph glyph-name="dieresis" unicode="&#xa8;" horiz-adv-x="999" 
d="M491 1282q-30 29 -30 72t30 72q30 30 72 30q43 0 73 -30q30 -29 30 -72t-30 -72q-30 -30 -73 -30q-42 0 -72 30zM855 1282q-30 29 -30 72t30 72q29 30 72 30q42 0 72 -30q30 -29 30 -72t-30 -72q-30 -30 -72 -30q-43 0 -72 30z" />
    <glyph glyph-name="copyright" unicode="&#xa9;" horiz-adv-x="1742" 
d="M400 44q-210 204 -210 505q0 366 249 615q248 248 614 248q315 0 523 -201q207 -201 207 -507q0 -367 -249 -615q-249 -249 -615 -249q-310 0 -519 204zM1455 165q216 217 216 527q0 267 -177 439t-452 172q-308 0 -524 -216t-216 -525q0 -265 179 -439t450 -174
q308 0 524 216zM1251 788q-7 79 -70 129q-63 51 -155 51q-135 0 -226 -112q-91 -111 -91 -277q0 -127 65 -201q64 -75 173 -75q175 0 234 142h106q-31 -107 -126 -171t-222 -64q-152 0 -244 98t-92 259q0 211 123 352q124 141 308 141q136 0 224 -74q88 -75 96 -198h-103z
" />
    <glyph glyph-name="ordfeminine" unicode="&#xaa;" horiz-adv-x="943" 
d="M596 971q-120 -6 -186 -52t-66 -124q0 -66 52 -107q52 -42 134 -42q107 0 190 63q84 62 105 158l25 117zM294 609q-78 69 -78 172q0 129 100 203q99 75 283 83l271 13l14 65q6 34 5 50q1 73 -53 114q-53 41 -148 41q-83 0 -143 -35t-80 -96h-128q26 109 125 174
q99 66 236 66q145 0 232 -68q87 -67 87 -180q0 -38 -8 -73l-125 -587h-122l29 136h-11q-99 -146 -292 -146q-117 0 -194 68z" />
    <glyph glyph-name="guillemotleft" unicode="&#xab;" horiz-adv-x="1362" 
d="M864 557l-2 -13l259 -395h-147l-271 414l1 6l447 414h170zM414 557l-3 -13l260 -395h-148l-270 414l1 6l447 414h170z" />
    <glyph glyph-name="logicalnot" unicode="&#xac;" horiz-adv-x="1321" 
d="M1126 145h-115l89 418h-839l24 114h954z" />
    <glyph glyph-name="registered" unicode="&#xae;" horiz-adv-x="1260" 
d="M522 646l110 515h221q67 0 112 -41q43 -40 43 -99q0 -69 -43 -115q-42 -45 -113 -56l101 -204h-95l-97 194h-117l-42 -194h-80zM658 910h134q127 0 127 99q0 35 -23 56q-25 23 -68 23h-132zM411 1251q150 151 368 151q216 0 365 -147q148 -148 148 -362q0 -220 -150 -370
q-150 -151 -369 -151q-215 0 -363 148q-149 147 -149 361q0 220 150 370zM1084 1195q-124 123 -305 123q-183 0 -308 -126q-126 -126 -126 -311q0 -179 123 -302t303 -123q185 0 311 126q126 127 126 311q0 179 -124 302z" />
    <glyph glyph-name="macron" unicode="&#xaf;" horiz-adv-x="1018" 
d="M410 1292l22 106h663l-23 -106h-662z" />
    <glyph glyph-name="degree" unicode="&#xb0;" horiz-adv-x="803" 
d="M420 1006q-80 80 -80 194t80 194q79 80 193 80t194 -80t80 -194t-80 -194t-194 -80t-193 80zM736 1079q50 50 50 121t-50 122q-51 50 -123 50q-70 0 -120 -50q-52 -51 -52 -122q0 -70 52 -121q51 -51 120 -51q72 0 123 51z" />
    <glyph glyph-name="plusminus" unicode="&#xb1;" horiz-adv-x="1321" 
d="M141 112l24 114h1002l-24 -114h-1002zM752 354h-118l68 317h-442l22 105h442l67 309h118l-67 -309h442l-22 -105h-442z" />
    <glyph glyph-name="uni00B2" unicode="&#xb2;" horiz-adv-x="821" 
d="M386 1545q13 117 104 192q91 74 219 74q121 0 200 -66q80 -66 80 -165q0 -79 -53 -149t-211 -201l-250 -211l-2 -8h431l-24 -109h-617l21 97l362 304q130 109 171 160q40 51 40 105q0 59 -44 98q-45 39 -114 39q-71 0 -123 -43q-53 -44 -66 -115v-2h-124z" />
    <glyph glyph-name="uni00B3" unicode="&#xb3;" horiz-adv-x="833" 
d="M570 1410h121q83 0 138 45q54 45 54 114q0 61 -45 98q-45 38 -118 38q-63 0 -114 -35q-50 -36 -69 -94h-123q24 107 111 171q86 64 205 64q123 0 203 -64q79 -64 79 -162q0 -87 -59 -150q-60 -64 -155 -78l-1 -8q162 -33 162 -189q0 -122 -96 -200q-96 -79 -246 -79
q-147 0 -236 80q-89 79 -73 197h126q-6 -72 47 -120t139 -48q93 0 151 49q57 49 57 128q0 64 -50 103q-50 40 -131 40h-98z" />
    <glyph glyph-name="acute" unicode="&#xb4;" horiz-adv-x="1000" 
d="M837 1594h169l-340 -327h-149z" />
    <glyph glyph-name="paragraph" unicode="&#xb6;" horiz-adv-x="1316" 
d="M647 -195l163 769q-183 6 -298 113q-114 106 -114 268q0 217 161 354q158 134 401 134h172l-349 -1638h-136zM1291 1443h136l-348 -1638h-137z" />
    <glyph glyph-name="periodcentered" unicode="&#xb7;" horiz-adv-x="630" 
d="M329 637q-40 40 -40 102t40 102t102 40q61 0 101 -40q39 -40 39 -102t-39 -102q-40 -40 -101 -40q-62 0 -102 40z" />
    <glyph glyph-name="cedilla" unicode="&#xb8;" horiz-adv-x="1000" 
d="M288 -141l111 173l109 -2l-108 -169q179 -18 179 -155q0 -82 -65 -134q-66 -52 -167 -52q-96 0 -172 37l18 87q66 -32 151 -32q54 0 88 24q33 23 33 63q0 82 -137 87l-51 1z" />
    <glyph glyph-name="uni00B9" unicode="&#xb9;" horiz-adv-x="634" 
d="M623 1654h-9q-60 -32 -258 -153l28 131l141 84q116 70 129 76h131l-190 -890h-132z" />
    <glyph glyph-name="ordmasculine" unicode="&#xba;" horiz-adv-x="1032" 
d="M493 1230q-96 -116 -96 -289q0 -138 65 -216q66 -79 179 -79q140 0 236 120q96 119 96 293q0 133 -65 211q-65 77 -178 77q-142 0 -237 -117zM362 639q-99 106 -99 286q0 227 139 381t342 154q168 0 266 -106q98 -105 98 -286q0 -226 -139 -381q-138 -155 -341 -155
q-167 0 -266 107z" />
    <glyph glyph-name="guillemotright" unicode="&#xbb;" horiz-adv-x="1364" 
d="M396 983h148l271 -414l-2 -6l-447 -414h-169l456 426l3 12zM849 983h147l271 -414l-1 -6l-447 -414h-170l457 426l2 12z" />
    <glyph glyph-name="onequarter" unicode="&#xbc;" horiz-adv-x="1960" 
d="M1625 182h-446l22 119q166 214 509 589h193l-128 -599h126l-23 -109h-126l-39 -183h-127zM1326 287h324l105 496h-7q-226 -244 -420 -488zM610 1305h-9q-60 -32 -258 -153l28 131l141 84q116 70 129 76h131l-190 -890h-132zM1459 1443h134l-944 -1443h-134z" />
    <glyph glyph-name="onehalf" unicode="&#xbd;" horiz-adv-x="1990" 
d="M1384 643q13 117 104 192q91 74 219 74q121 0 200 -66q80 -66 80 -165q0 -79 -53 -149t-211 -201l-250 -211l-2 -8h431l-24 -109h-617l21 97l362 304q130 109 171 160q40 51 40 105q0 59 -44 98q-45 39 -114 39q-71 0 -123 -43q-53 -44 -66 -115v-2h-124zM610 1305h-9
q-60 -32 -258 -153l28 131l141 84q116 70 129 76h131l-190 -890h-132zM1459 1443h134l-944 -1443h-134z" />
    <glyph glyph-name="threequarters" unicode="&#xbe;" horiz-adv-x="2104" 
d="M495 1061h121q83 0 138 45q54 45 54 114q0 61 -45 98q-45 38 -118 38q-63 0 -114 -35q-50 -36 -69 -94h-123q24 107 111 171q86 64 205 64q123 0 203 -64q79 -64 79 -162q0 -87 -59 -150q-60 -64 -155 -78l-1 -8q162 -33 162 -189q0 -122 -96 -200q-96 -79 -246 -79
q-147 0 -236 80q-89 79 -73 197h126q-6 -72 47 -120t139 -48q93 0 151 49q57 49 57 128q0 64 -50 103q-50 40 -131 40h-98zM1783 182h-446l22 119q166 214 509 589h193l-128 -599h126l-23 -109h-126l-39 -183h-127zM1484 287h324l105 496h-7q-225 -244 -420 -488zM1617 1443
h134l-944 -1443h-134z" />
    <glyph glyph-name="questiondown" unicode="&#xbf;" horiz-adv-x="1019" 
d="M798 1086q33 -33 33 -84t-33 -84t-84 -33q-50 0 -83 33t-33 84q0 50 33 84q33 33 83 33q51 0 84 -33zM896 1q-34 -164 -149 -258q-119 -98 -298 -98q-174 0 -285 97q-108 93 -108 232q0 128 80 232q77 101 211 158q107 45 156 97q49 51 65 135l16 78h136l-20 -94
q-25 -119 -87 -186q-57 -62 -178 -113q-235 -102 -235 -293q0 -95 66 -157q71 -66 192 -66q113 0 194 63t112 173h132z" />
    <glyph glyph-name="Agrave" unicode="&#xc0;" horiz-adv-x="1363" 
d="M1044 443h-608l-254 -443h-149l851 1443h128l233 -1443h-134zM502 560h527l-110 702h-13zM1036 1577h-144l-200 297h160z" />
    <glyph glyph-name="Aacute" unicode="&#xc1;" horiz-adv-x="1363" 
d="M1044 443h-608l-254 -443h-149l851 1443h128l233 -1443h-134zM502 560h527l-110 702h-13zM1272 1874h174l-389 -297h-157z" />
    <glyph glyph-name="Acircumflex" unicode="&#xc2;" horiz-adv-x="1363" 
d="M1044 443h-608l-254 -443h-149l851 1443h128l233 -1443h-134zM502 560h527l-110 702h-13zM1294 1577h-143l-126 208h-12l-214 -208h-160l315 297h151z" />
    <glyph glyph-name="Atilde" unicode="&#xc3;" horiz-adv-x="1363" 
d="M1044 443h-608l-254 -443h-149l851 1443h128l233 -1443h-134zM502 560h527l-110 702h-13zM981 1659q-80 81 -119 81q-96 0 -123 -127h-110q18 107 84 170q65 61 152 61q85 0 164 -80q80 -81 119 -81q97 0 123 126h110q-19 -108 -85 -171q-63 -60 -149 -60t-166 81z" />
    <glyph glyph-name="Adieresis" unicode="&#xc4;" horiz-adv-x="1363" 
d="M1044 443h-608l-254 -443h-149l851 1443h128l233 -1443h-134zM502 560h527l-110 702h-13zM741 1598q-30 29 -30 72t30 72q30 30 72 30q43 0 73 -30q30 -29 30 -72t-30 -72q-30 -30 -73 -30q-42 0 -72 30zM1105 1598q-30 29 -30 72t30 72q29 30 72 30q42 0 72 -30
q30 -29 30 -72t-30 -72q-30 -30 -72 -30q-43 0 -72 30z" />
    <glyph glyph-name="Aring" unicode="&#xc5;" horiz-adv-x="1363" 
d="M1044 443h-608l-254 -443h-149l851 1443h128l233 -1443h-134zM502 560h527l-110 702h-13zM868 1631q-62 61 -62 150q0 88 62 149t150 61q89 0 151 -61t62 -149q0 -89 -62 -150t-151 -61q-88 0 -150 61zM1107 1691q36 37 36 90t-36 89t-89 36t-88 -36q-36 -36 -36 -89
t36 -90q36 -36 88 -36q53 0 89 36z" />
    <glyph glyph-name="AE" unicode="&#xc6;" horiz-adv-x="1955" 
d="M1086 1327l-528 -766h526l164 766h-162zM1060 443h-581l-303 -443h-144l984 1443h1068l-27 -124h-675l-111 -526h638l-26 -122h-639l-116 -547h675l-26 -124h-812z" />
    <glyph glyph-name="Ccedilla" unicode="&#xc7;" horiz-adv-x="1464" 
d="M1377 990l1 15q-8 150 -121 245q-115 96 -293 96q-251 0 -425 -221q-174 -222 -174 -543q0 -226 115 -356q116 -129 316 -129q160 0 283 78q123 77 166 204h144q-51 -180 -202 -288q-150 -109 -361 -120l-70 -110q179 -18 179 -155q0 -82 -65 -134q-66 -52 -167 -52
q-96 0 -172 37l18 87q66 -32 151 -32q54 0 88 24q33 23 33 63q0 82 -137 87l-51 1l11 72l73 114q-228 21 -361 180q-133 160 -133 414q0 389 215 648q214 258 536 258q234 0 389 -134q153 -133 153 -331l-1 -18h-138z" />
    <glyph glyph-name="Egrave" unicode="&#xc8;" horiz-adv-x="1196" 
d="M974 1577h-144l-200 297h160zM1015 0h-873l307 1443h873l-27 -124h-732l-112 -519h697l-26 -122h-696l-119 -554h734z" />
    <glyph glyph-name="Eacute" unicode="&#xc9;" horiz-adv-x="1196" 
d="M1210 1874h174l-389 -297h-157zM1015 0h-873l307 1443h873l-27 -124h-732l-112 -519h697l-26 -122h-696l-119 -554h734z" />
    <glyph glyph-name="Ecircumflex" unicode="&#xca;" horiz-adv-x="1196" 
d="M1241 1577h-143l-126 208h-12l-214 -208h-160l315 297h151zM1015 0h-873l307 1443h873l-27 -124h-732l-112 -519h697l-26 -122h-696l-119 -554h734z" />
    <glyph glyph-name="Edieresis" unicode="&#xcb;" horiz-adv-x="1196" 
d="M679 1598q-30 29 -30 72t30 72q30 30 72 30q43 0 73 -30q30 -29 30 -72t-30 -72q-30 -30 -73 -30q-42 0 -72 30zM1043 1598q-30 29 -30 72t30 72q29 30 72 30q42 0 72 -30q30 -29 30 -72t-30 -72q-30 -30 -72 -30q-43 0 -72 30zM1015 0h-873l307 1443h873l-27 -124h-732
l-112 -519h697l-26 -122h-696l-119 -554h734z" />
    <glyph glyph-name="Igrave" unicode="&#xcc;" horiz-adv-x="509" 
d="M142 0l307 1443h140l-307 -1443h-140zM608 1577h-144l-200 297h160z" />
    <glyph glyph-name="Iacute" unicode="&#xcd;" horiz-adv-x="509" 
d="M142 0l307 1443h140l-307 -1443h-140zM844 1874h174l-389 -297h-157z" />
    <glyph glyph-name="Icircumflex" unicode="&#xce;" horiz-adv-x="509" 
d="M142 0l307 1443h140l-307 -1443h-140zM875 1577h-143l-126 208h-12l-214 -208h-160l315 297h151z" />
    <glyph glyph-name="Idieresis" unicode="&#xcf;" horiz-adv-x="509" 
d="M142 0l307 1443h140l-307 -1443h-140zM313 1598q-30 29 -30 72t30 72q30 30 72 30q43 0 73 -30q30 -29 30 -72t-30 -72q-30 -30 -73 -30q-42 0 -72 30zM677 1598q-30 29 -30 72t30 72q29 30 72 30q42 0 72 -30q30 -29 30 -72t-30 -72q-30 -30 -72 -30q-43 0 -72 30z" />
    <glyph glyph-name="Eth" unicode="&#xd0;" horiz-adv-x="1470" 
d="M698 122q272 0 452 201q180 202 180 506q0 230 -127 361q-128 131 -352 131h-288l-110 -516h238l-27 -124h-237l-119 -559h390zM862 1443q286 0 448 -163q160 -161 160 -444q0 -359 -223 -598q-222 -238 -555 -238h-548l144 681h-196l27 124h195l135 638h413z" />
    <glyph glyph-name="Ntilde" unicode="&#xd1;" horiz-adv-x="1492" 
d="M1051 1659q-80 81 -119 81q-96 0 -123 -127h-110q18 107 84 170q65 61 152 61q85 0 164 -80q80 -81 119 -81q97 0 123 126h110q-19 -108 -85 -171q-63 -60 -149 -60t-166 81zM142 0l307 1443h135l579 -1218h12l259 1218h138l-307 -1443h-133l-581 1220h-12l-259 -1220
h-138z" />
    <glyph glyph-name="Ograve" unicode="&#xd2;" horiz-adv-x="1564" 
d="M1072 1576h-144l-200 297h160zM384 139q-161 170 -161 435q0 385 219 642t547 257q252 0 412 -169t160 -435q0 -387 -218 -643q-217 -256 -545 -256q-253 0 -414 169zM1298 1212q-121 134 -319 134q-260 0 -436 -219t-176 -542q0 -220 121 -354t320 -134q261 0 436 217
q174 218 174 544q0 220 -120 354z" />
    <glyph glyph-name="Oacute" unicode="&#xd3;" horiz-adv-x="1564" 
d="M1308 1873h174l-389 -297h-157zM384 139q-161 170 -161 435q0 385 219 642t547 257q252 0 412 -169t160 -435q0 -387 -218 -643q-217 -256 -545 -256q-253 0 -414 169zM1298 1212q-121 134 -319 134q-260 0 -436 -219t-176 -542q0 -220 121 -354t320 -134q261 0 436 217
q174 218 174 544q0 220 -120 354z" />
    <glyph glyph-name="Ocircumflex" unicode="&#xd4;" horiz-adv-x="1564" 
d="M1339 1576h-143l-126 208h-12l-214 -208h-160l315 297h151zM384 139q-161 170 -161 435q0 385 219 642t547 257q252 0 412 -169t160 -435q0 -387 -218 -643q-217 -256 -545 -256q-253 0 -414 169zM1298 1212q-121 134 -319 134q-260 0 -436 -219t-176 -542
q0 -220 121 -354t320 -134q261 0 436 217q174 218 174 544q0 220 -120 354z" />
    <glyph glyph-name="Otilde" unicode="&#xd5;" horiz-adv-x="1564" 
d="M384 139q-161 170 -161 435q0 385 219 642t547 257q252 0 412 -169t160 -435q0 -387 -218 -643q-217 -256 -545 -256q-253 0 -414 169zM1298 1212q-121 134 -319 134q-260 0 -436 -219t-176 -542q0 -220 121 -354t320 -134q261 0 436 217q174 218 174 544q0 220 -120 354
zM1017 1658q-80 81 -119 81q-96 0 -123 -127h-110q18 107 84 170q65 61 152 61q85 0 164 -80q80 -81 119 -81q97 0 123 126h110q-19 -108 -85 -171q-63 -60 -149 -60t-166 81z" />
    <glyph glyph-name="Odieresis" unicode="&#xd6;" horiz-adv-x="1564" 
d="M777 1597q-30 29 -30 72t30 72q30 30 72 30q43 0 73 -30q30 -29 30 -72t-30 -72q-30 -30 -73 -30q-42 0 -72 30zM1141 1597q-30 29 -30 72t30 72q29 30 72 30q42 0 72 -30q30 -29 30 -72t-30 -72q-30 -30 -72 -30q-43 0 -72 30zM384 139q-161 170 -161 435q0 385 219 642
t547 257q252 0 412 -169t160 -435q0 -387 -218 -643q-217 -256 -545 -256q-253 0 -414 169zM1298 1212q-121 134 -319 134q-260 0 -436 -219t-176 -542q0 -220 121 -354t320 -134q261 0 436 217q174 218 174 544q0 220 -120 354z" />
    <glyph glyph-name="multiply" unicode="&#xd7;" horiz-adv-x="1320" 
d="M729 493l-381 -314l-73 90l381 314l-244 311l97 80l245 -310l380 313l73 -89l-380 -315l240 -308l-97 -79z" />
    <glyph glyph-name="Oslash" unicode="&#xd8;" horiz-adv-x="1535" 
d="M508 207q116 -110 296 -110q261 0 436 217q174 218 174 544q0 192 -93 319zM1257 1247q-113 99 -282 99q-260 0 -436 -219t-176 -542q0 -179 82 -303zM1413 1286q144 -166 144 -417q0 -387 -218 -643q-217 -256 -545 -256q-220 0 -374 132l-144 -172l-78 59l154 183
q-133 163 -133 402q0 385 219 642t547 257q211 0 360 -121l135 160l76 -55z" />
    <glyph glyph-name="Ugrave" unicode="&#xd9;" horiz-adv-x="1499" 
d="M1104 1577h-144l-200 297h160zM381 99q-128 120 -130 315q-1 60 13 132l189 897h140l-188 -890q-14 -66 -13 -132q3 -152 101 -236q98 -85 276 -85q175 0 300 102q127 105 165 285l204 956h140l-210 -981q-50 -233 -208 -359q-161 -129 -413 -129q-232 0 -366 125z" />
    <glyph glyph-name="Uacute" unicode="&#xda;" horiz-adv-x="1499" 
d="M1340 1874h174l-389 -297h-157zM381 99q-128 120 -130 315q-1 60 13 132l189 897h140l-188 -890q-14 -66 -13 -132q3 -152 101 -236q98 -85 276 -85q175 0 300 102q127 105 165 285l204 956h140l-210 -981q-50 -233 -208 -359q-161 -129 -413 -129q-232 0 -366 125z" />
    <glyph glyph-name="Ucircumflex" unicode="&#xdb;" horiz-adv-x="1499" 
d="M1371 1577h-143l-126 208h-12l-214 -208h-160l315 297h151zM381 99q-128 120 -130 315q-1 60 13 132l189 897h140l-188 -890q-14 -66 -13 -132q3 -152 101 -236q98 -85 276 -85q175 0 300 102q127 105 165 285l204 956h140l-210 -981q-50 -233 -208 -359
q-161 -129 -413 -129q-232 0 -366 125z" />
    <glyph glyph-name="Udieresis" unicode="&#xdc;" horiz-adv-x="1499" 
d="M809 1598q-30 29 -30 72t30 72q30 30 72 30q43 0 73 -30q30 -29 30 -72t-30 -72q-30 -30 -73 -30q-42 0 -72 30zM1173 1598q-30 29 -30 72t30 72q30 30 72 30q43 0 72 -30q30 -29 30 -72t-30 -72q-29 -30 -72 -30q-42 0 -72 30zM381 99q-128 120 -130 315q-1 60 13 132
l189 897h140l-188 -890q-14 -66 -13 -132q3 -152 101 -236q98 -85 276 -85q175 0 300 102q127 105 165 285l204 956h140l-210 -981q-50 -233 -208 -359q-161 -129 -413 -129q-232 0 -366 125z" />
    <glyph glyph-name="Yacute" unicode="&#xdd;" horiz-adv-x="1321" 
d="M549 0l133 624l-342 819h143l289 -685h12l568 685h159l-695 -837l-127 -606h-140zM1249 1874h174l-389 -297h-157z" />
    <glyph glyph-name="Thorn" unicode="&#xde;" horiz-adv-x="1270" 
d="M449 1443h136l-59 -274h356q172 0 281 -99q106 -98 106 -250q0 -210 -149 -339q-150 -130 -398 -130h-369l-74 -351h-137zM379 473h338q191 0 301 91q109 90 109 243q0 108 -73 172q-77 67 -217 67h-336z" />
    <glyph glyph-name="germandbls" unicode="&#xdf;" horiz-adv-x="1283" 
d="M170 0l230 1079q34 163 150 256q115 92 285 92q164 0 272 -91q108 -90 108 -229q0 -140 -94 -239t-241 -113l-2 -13q143 -16 229 -103q86 -88 86 -218q0 -191 -138 -315q-139 -125 -351 -125q-119 0 -218 36l25 117q94 -34 197 -34q150 0 252 91q101 91 101 226
q0 119 -89 192q-90 72 -237 72h-82l28 129h94q126 0 217 81q90 81 90 193q0 100 -71 163q-70 63 -183 63q-116 0 -196 -71t-107 -198l-223 -1041h-132z" />
    <glyph glyph-name="agrave" unicode="&#xe0;" horiz-adv-x="1126" 
d="M740 178q106 80 132 202l32 149l-321 -17q-152 -8 -235 -68q-83 -59 -83 -158q0 -83 65 -136q66 -53 170 -53q135 0 240 81zM224 65q-94 83 -94 208q0 156 119 246q120 91 341 101l337 16l17 81q8 42 8 64q0 92 -67 144q-68 52 -188 52q-106 0 -181 -45t-100 -122h-139
q33 130 151 207q117 78 280 78q171 0 274 -81q103 -80 103 -216q0 -39 -10 -89l-150 -709h-128l35 165h-12q-57 -84 -153 -133q-97 -50 -206 -50q-142 0 -237 83zM670 1267l-199 327h163l180 -327h-144z" />
    <glyph glyph-name="aacute" unicode="&#xe1;" horiz-adv-x="1126" 
d="M740 178q106 80 132 202l32 149l-321 -17q-152 -8 -235 -68q-83 -59 -83 -158q0 -83 65 -136q66 -53 170 -53q135 0 240 81zM224 65q-94 83 -94 208q0 156 119 246q120 91 341 101l337 16l17 81q8 42 8 64q0 92 -67 144q-68 52 -188 52q-106 0 -181 -45t-100 -122h-139
q33 130 151 207q117 78 280 78q171 0 274 -81q103 -80 103 -216q0 -39 -10 -89l-150 -709h-128l35 165h-12q-57 -84 -153 -133q-97 -50 -206 -50q-142 0 -237 83zM996 1594h169l-340 -327h-149z" />
    <glyph glyph-name="acircumflex" unicode="&#xe2;" horiz-adv-x="1126" 
d="M740 178q106 80 132 202l32 149l-321 -17q-152 -8 -235 -68q-83 -59 -83 -158q0 -83 65 -136q66 -53 170 -53q135 0 240 81zM224 65q-94 83 -94 208q0 156 119 246q120 91 341 101l337 16l17 81q8 42 8 64q0 92 -67 144q-68 52 -188 52q-106 0 -181 -45t-100 -122h-139
q33 130 151 207q117 78 280 78q171 0 274 -81q103 -80 103 -216q0 -39 -10 -89l-150 -709h-128l35 165h-12q-57 -84 -153 -133q-97 -50 -206 -50q-142 0 -237 83zM1093 1228h-143l-142 243h-12l-244 -243h-163l346 332h154z" />
    <glyph glyph-name="atilde" unicode="&#xe3;" horiz-adv-x="1126" 
d="M740 178q106 80 132 202l32 149l-321 -17q-152 -8 -235 -68q-83 -59 -83 -158q0 -83 65 -136q66 -53 170 -53q135 0 240 81zM224 65q-94 83 -94 208q0 156 119 246q120 91 341 101l337 16l17 81q8 42 8 64q0 92 -67 144q-68 52 -188 52q-106 0 -181 -45t-100 -122h-139
q33 130 151 207q117 78 280 78q171 0 274 -81q103 -80 103 -216q0 -39 -10 -89l-150 -709h-128l35 165h-12q-57 -84 -153 -133q-97 -50 -206 -50q-142 0 -237 83zM766 1309q-44 54 -54 64q-31 29 -65 29q-93 0 -122 -142h-110q15 116 81 182q64 65 156 65q90 0 165 -93
q43 -54 55 -65q31 -29 65 -29q93 0 121 142h110q-16 -117 -81 -183q-63 -63 -154 -63t-167 93z" />
    <glyph glyph-name="adieresis" unicode="&#xe4;" horiz-adv-x="1126" 
d="M740 178q106 80 132 202l32 149l-321 -17q-152 -8 -235 -68q-83 -59 -83 -158q0 -83 65 -136q66 -53 170 -53q135 0 240 81zM224 65q-94 83 -94 208q0 156 119 246q120 91 341 101l337 16l17 81q8 42 8 64q0 92 -67 144q-68 52 -188 52q-106 0 -181 -45t-100 -122h-139
q33 130 151 207q117 78 280 78q171 0 274 -81q103 -80 103 -216q0 -39 -10 -89l-150 -709h-128l35 165h-12q-57 -84 -153 -133q-97 -50 -206 -50q-142 0 -237 83zM518 1258q-30 29 -30 72t30 72q30 30 72 30q43 0 73 -30q30 -29 30 -72t-30 -72q-30 -30 -73 -30
q-42 0 -72 30zM882 1258q-30 29 -30 72t30 72q29 30 72 30q42 0 72 -30q30 -29 30 -72t-30 -72q-30 -30 -72 -30q-43 0 -72 30z" />
    <glyph glyph-name="aring" unicode="&#xe5;" horiz-adv-x="1126" 
d="M740 178q106 80 132 202l32 149l-321 -17q-152 -8 -235 -68q-83 -59 -83 -158q0 -83 65 -136q66 -53 170 -53q135 0 240 81zM224 65q-94 83 -94 208q0 156 119 246q120 91 341 101l337 16l17 81q8 42 8 64q0 92 -67 144q-68 52 -188 52q-106 0 -181 -45t-100 -122h-139
q33 130 151 207q117 78 280 78q171 0 274 -81q103 -80 103 -216q0 -39 -10 -89l-150 -709h-128l35 165h-12q-57 -84 -153 -133q-97 -50 -206 -50q-142 0 -237 83zM645 1289q-62 61 -62 150q0 88 62 149t150 61q89 0 151 -61t62 -149q0 -89 -62 -150t-151 -61q-88 0 -150 61z
M884 1349q36 37 36 90t-36 89t-89 36t-88 -36q-36 -36 -36 -89t36 -90q36 -36 88 -36q53 0 89 36z" />
    <glyph glyph-name="ae" unicode="&#xe6;" horiz-adv-x="1898" 
d="M1075 55q-110 74 -147 198h-12q-56 -116 -175 -192q-125 -79 -266 -79q-152 0 -249 83q-96 82 -96 208q0 155 118 243t341 98l336 17l19 86q8 42 8 64q0 92 -67 144q-68 52 -188 52q-106 0 -181 -45t-100 -122h-139q33 130 151 207q117 78 280 78q133 0 224 -54t122 -152
h12q148 206 393 206q172 0 286 -115q119 -119 119 -313q0 -81 -13 -151h-812q-5 -48 -5 -83q0 -162 91 -251q83 -80 214 -80q226 0 309 162h140q-39 -126 -160 -202q-127 -80 -306 -80q-140 0 -247 73zM1725 623q3 18 3 58q0 127 -75 211q-78 87 -206 87q-137 0 -243 -98
q-104 -97 -146 -258h667zM740 178q106 80 132 202l31 143l-321 -16q-153 -8 -235 -65q-82 -58 -82 -156q0 -83 65 -136q66 -53 170 -53q134 0 240 81z" />
    <glyph glyph-name="ccedilla" unicode="&#xe7;" horiz-adv-x="1150" 
d="M1023 760q-11 95 -91 156q-81 61 -196 61q-178 0 -299 -153q-120 -153 -120 -378q0 -159 82 -252q81 -92 220 -92q112 0 195 50q84 50 117 138h136q-35 -137 -157 -221t-290 -87l-77 -121q179 -18 179 -155q0 -82 -65 -134q-66 -52 -167 -52q-96 0 -172 37l18 87
q66 -32 151 -32q54 0 88 24q33 23 33 63q0 82 -137 87l-51 1l11 72l84 131q-155 29 -244 145q-91 118 -91 293q0 287 161 477q162 190 406 190q155 0 267 -81q111 -81 137 -209q5 -22 6 -45h-134z" />
    <glyph glyph-name="egrave" unicode="&#xe8;" horiz-adv-x="1176" 
d="M687 1267l-199 327h163l180 -327h-144zM304 98q-124 121 -124 326q0 294 159 483q158 188 402 188q172 0 286 -115q119 -120 119 -313q0 -87 -14 -154h-811q-5 -43 -5 -78q0 -162 91 -252q83 -81 214 -81q226 0 309 162h140q-38 -125 -158 -202q-126 -80 -300 -80
q-189 0 -308 116zM1006 621q4 24 4 60q0 127 -74 211q-79 87 -207 87q-138 0 -244 -99q-105 -98 -146 -259h667z" />
    <glyph glyph-name="eacute" unicode="&#xe9;" horiz-adv-x="1176" 
d="M1013 1594h169l-340 -327h-149zM304 98q-124 121 -124 326q0 294 159 483q158 188 402 188q172 0 286 -115q119 -120 119 -313q0 -87 -14 -154h-811q-5 -43 -5 -78q0 -162 91 -252q83 -81 214 -81q226 0 309 162h140q-38 -125 -158 -202q-126 -80 -300 -80
q-189 0 -308 116zM1006 621q4 24 4 60q0 127 -74 211q-79 87 -207 87q-138 0 -244 -99q-105 -98 -146 -259h667z" />
    <glyph glyph-name="ecircumflex" unicode="&#xea;" horiz-adv-x="1176" 
d="M1110 1228h-143l-142 243h-12l-244 -243h-163l346 332h154zM304 98q-124 121 -124 326q0 294 159 483q158 188 402 188q172 0 286 -115q119 -120 119 -313q0 -87 -14 -154h-811q-5 -43 -5 -78q0 -162 91 -252q83 -81 214 -81q226 0 309 162h140q-38 -125 -158 -202
q-126 -80 -300 -80q-189 0 -308 116zM1006 621q4 24 4 60q0 127 -74 211q-79 87 -207 87q-138 0 -244 -99q-105 -98 -146 -259h667z" />
    <glyph glyph-name="edieresis" unicode="&#xeb;" horiz-adv-x="1176" 
d="M304 98q-124 121 -124 326q0 294 159 483q158 188 402 188q172 0 286 -115q119 -120 119 -313q0 -87 -14 -154h-811q-5 -43 -5 -78q0 -162 91 -252q83 -81 214 -81q226 0 309 162h140q-38 -125 -158 -202q-126 -80 -300 -80q-189 0 -308 116zM1006 621q4 24 4 60
q0 127 -74 211q-79 87 -207 87q-138 0 -244 -99q-105 -98 -146 -259h667zM535 1258q-30 29 -30 72t30 72q30 30 72 30q43 0 73 -30q30 -29 30 -72t-30 -72q-30 -30 -73 -30q-42 0 -72 30zM899 1258q-30 29 -30 72t30 72q29 30 72 30q42 0 72 -30q30 -29 30 -72t-30 -72
q-30 -30 -72 -30q-43 0 -72 30z" />
    <glyph glyph-name="igrave" unicode="&#xec;" horiz-adv-x="489" 
d="M385 1267l-199 327h163l180 -327h-144zM369 1077h131l-229 -1077h-131z" />
    <glyph glyph-name="iacute" unicode="&#xed;" horiz-adv-x="489" 
d="M711 1594h169l-340 -327h-149zM369 1077h131l-229 -1077h-131z" />
    <glyph glyph-name="icircumflex" unicode="&#xee;" horiz-adv-x="489" 
d="M808 1228h-143l-142 243h-12l-244 -243h-163l346 332h154zM369 1077h131l-229 -1077h-131z" />
    <glyph glyph-name="idieresis" unicode="&#xef;" horiz-adv-x="489" 
d="M369 1077h131l-229 -1077h-131zM233 1258q-30 29 -30 72t30 72q30 30 72 30q43 0 73 -30q30 -29 30 -72t-30 -72q-30 -30 -73 -30q-42 0 -72 30zM597 1258q-30 29 -30 72t30 72q29 30 72 30q42 0 72 -30q30 -29 30 -72t-30 -72q-30 -30 -72 -30q-43 0 -72 30z" />
    <glyph glyph-name="eth" unicode="&#xf0;" horiz-adv-x="1192" 
d="M289 101q-121 118 -121 299q0 281 152 470q153 189 383 189q123 0 221 -62q97 -61 131 -159h11q1 1 1 17q-5 206 -120 404l-341 -112l-7 99l296 98q-52 66 -142 153h151q70 -70 105 -118l256 88l8 -99l-216 -75q127 -235 127 -485q0 -158 -37 -315q-57 -238 -202 -374
q-145 -137 -346 -137q-189 0 -310 119zM942 850q-88 87 -227 87q-175 0 -291 -147q-117 -146 -117 -366q0 -148 82 -236q82 -87 222 -87q168 0 294 156q125 156 125 366q0 140 -88 227z" />
    <glyph glyph-name="ntilde" unicode="&#xf1;" horiz-adv-x="1210" 
d="M839 1309q-44 54 -54 64q-31 29 -65 29q-93 0 -122 -142h-110q15 116 81 182q64 65 156 65q90 0 165 -93q43 -54 55 -65q31 -29 65 -29q93 0 121 142h110q-16 -117 -81 -183q-63 -63 -154 -63t-167 93zM354 1077h128l-39 -183h12q131 201 360 201q153 0 251 -95
q95 -93 95 -228q0 -58 -13 -119l-139 -653h-133l134 630q13 63 13 107q0 108 -70 173q-71 67 -190 67q-135 0 -237 -91q-98 -88 -127 -224l-141 -662h-133z" />
    <glyph glyph-name="ograve" unicode="&#xf2;" horiz-adv-x="1216" 
d="M695 1267l-199 327h163l180 -327h-144zM403 196q86 -95 230 -95q168 0 287 148q122 151 122 374q0 164 -83 259t-225 95q-186 0 -302 -155q-113 -150 -113 -380q0 -153 84 -246zM300 106q-120 123 -120 322q0 282 153 470q159 197 413 197q196 0 316 -123t120 -321
q0 -278 -152 -468q-159 -201 -413 -201q-196 0 -317 124z" />
    <glyph glyph-name="oacute" unicode="&#xf3;" horiz-adv-x="1216" 
d="M1021 1594h169l-340 -327h-149zM403 196q86 -95 230 -95q168 0 287 148q122 151 122 374q0 164 -83 259t-225 95q-186 0 -302 -155q-113 -150 -113 -380q0 -153 84 -246zM300 106q-120 123 -120 322q0 282 153 470q159 197 413 197q196 0 316 -123t120 -321
q0 -278 -152 -468q-159 -201 -413 -201q-196 0 -317 124z" />
    <glyph glyph-name="ocircumflex" unicode="&#xf4;" horiz-adv-x="1216" 
d="M1118 1228h-143l-142 243h-12l-244 -243h-163l346 332h154zM403 196q86 -95 230 -95q168 0 287 148q122 151 122 374q0 164 -83 259t-225 95q-186 0 -302 -155q-113 -150 -113 -380q0 -153 84 -246zM300 106q-120 123 -120 322q0 282 153 470q159 197 413 197
q196 0 316 -123t120 -321q0 -278 -152 -468q-159 -201 -413 -201q-196 0 -317 124z" />
    <glyph glyph-name="otilde" unicode="&#xf5;" horiz-adv-x="1216" 
d="M791 1309q-44 54 -54 64q-31 29 -65 29q-93 0 -122 -142h-110q15 116 81 182q64 65 156 65q90 0 165 -93q43 -54 55 -65q31 -29 65 -29q93 0 121 142h110q-16 -117 -81 -183q-63 -63 -154 -63t-167 93zM403 196q86 -95 230 -95q168 0 287 148q122 151 122 374
q0 164 -83 259t-225 95q-186 0 -302 -155q-113 -150 -113 -380q0 -153 84 -246zM300 106q-120 123 -120 322q0 282 153 470q159 197 413 197q196 0 316 -123t120 -321q0 -278 -152 -468q-159 -201 -413 -201q-196 0 -317 124z" />
    <glyph glyph-name="odieresis" unicode="&#xf6;" horiz-adv-x="1216" 
d="M543 1258q-30 29 -30 72t30 72q30 30 72 30q43 0 73 -30q30 -29 30 -72t-30 -72q-30 -30 -73 -30q-42 0 -72 30zM907 1258q-30 29 -30 72t30 72q29 30 72 30q42 0 72 -30q30 -29 30 -72t-30 -72q-30 -30 -72 -30q-43 0 -72 30zM403 196q86 -95 230 -95q168 0 287 148
q122 151 122 374q0 164 -83 259t-225 95q-186 0 -302 -155q-113 -150 -113 -380q0 -153 84 -246zM300 106q-120 123 -120 322q0 282 153 470q159 197 413 197q196 0 316 -123t120 -321q0 -278 -152 -468q-159 -201 -413 -201q-196 0 -317 124z" />
    <glyph glyph-name="divide" unicode="&#xf7;" horiz-adv-x="1321" 
d="M238 523l24 114h983l-24 -114h-983zM733 852q-31 31 -31 77t31 76q30 30 76 30q45 0 76 -30q30 -30 30 -76t-30 -77q-31 -30 -76 -30q-46 0 -76 30zM582 146q-31 31 -31 77t31 76q31 31 77 31q45 0 76 -31q30 -30 30 -76t-30 -77q-31 -30 -76 -30q-46 0 -77 30z" />
    <glyph glyph-name="oslash" unicode="&#xf8;" horiz-adv-x="1218" 
d="M414 187q86 -86 222 -86q168 0 287 148q122 151 122 374q0 118 -45 203zM949 896q-83 81 -212 81q-186 0 -302 -155q-113 -150 -113 -380q0 -102 40 -182zM1098 933q87 -115 87 -282q0 -278 -152 -468q-159 -201 -413 -201q-179 0 -298 105l-132 -144l-70 55l143 156
q-80 115 -80 274q0 282 153 470q159 197 413 197q175 0 291 -100l128 139l68 -51z" />
    <glyph glyph-name="ugrave" unicode="&#xf9;" horiz-adv-x="1210" 
d="M728 1267l-199 327h163l180 -327h-144zM1002 0h-127l38 173h-12q-118 -191 -365 -191q-150 0 -246 91q-94 89 -94 225q0 64 14 129l137 650h134l-134 -629q-14 -68 -14 -118q0 -110 66 -170q65 -59 185 -59q139 0 243 92q102 90 131 230l140 654h133z" />
    <glyph glyph-name="uacute" unicode="&#xfa;" horiz-adv-x="1210" 
d="M1054 1594h169l-340 -327h-149zM1002 0h-127l38 173h-12q-118 -191 -365 -191q-150 0 -246 91q-94 89 -94 225q0 64 14 129l137 650h134l-134 -629q-14 -68 -14 -118q0 -110 66 -170q65 -59 185 -59q139 0 243 92q102 90 131 230l140 654h133z" />
    <glyph glyph-name="ucircumflex" unicode="&#xfb;" horiz-adv-x="1210" 
d="M1151 1228h-143l-142 243h-12l-244 -243h-163l346 332h154zM1002 0h-127l38 173h-12q-118 -191 -365 -191q-150 0 -246 91q-94 89 -94 225q0 64 14 129l137 650h134l-134 -629q-14 -68 -14 -118q0 -110 66 -170q65 -59 185 -59q139 0 243 92q102 90 131 230l140 654h133z
" />
    <glyph glyph-name="udieresis" unicode="&#xfc;" horiz-adv-x="1210" 
d="M1002 0h-127l38 173h-12q-118 -191 -365 -191q-150 0 -246 91q-94 89 -94 225q0 64 14 129l137 650h134l-134 -629q-14 -68 -14 -118q0 -110 66 -170q65 -59 185 -59q139 0 243 92q102 90 131 230l140 654h133zM576 1258q-30 29 -30 72t30 72q30 30 72 30q43 0 73 -30
q30 -29 30 -72t-30 -72q-30 -30 -73 -30q-42 0 -72 30zM940 1258q-30 29 -30 72t30 72q29 30 72 30q42 0 72 -30q30 -29 30 -72t-30 -72q-30 -30 -72 -30q-43 0 -72 30z" />
    <glyph glyph-name="yacute" unicode="&#xfd;" horiz-adv-x="1079" 
d="M67 -364l20 114q37 -11 85 -11q116 0 220 188l40 72l-179 1078h131l143 -913h12l515 913h145l-691 -1193q-86 -149 -165 -205q-72 -52 -179 -52q-43 0 -97 9zM1003 1594h169l-340 -327h-149z" />
    <glyph glyph-name="thorn" unicode="&#xfe;" horiz-adv-x="1255" 
d="M965 264q122 163 122 394q0 149 -77 234t-211 85q-185 0 -311 -166q-123 -160 -123 -381q0 -152 80 -240q81 -89 218 -89q178 0 302 163zM185 -371h-132l397 1867h131l-127 -603h13q133 202 374 202q166 0 274 -117q109 -118 109 -301q0 -289 -160 -491
q-161 -204 -393 -204q-130 0 -225 73q-94 72 -117 189h-12z" />
    <glyph glyph-name="ydieresis" unicode="&#xff;" horiz-adv-x="1079" 
d="M67 -364l20 114q37 -11 85 -11q116 0 220 188l40 72l-179 1078h131l143 -913h12l515 913h145l-691 -1193q-86 -149 -165 -205q-72 -52 -179 -52q-43 0 -97 9zM525 1258q-30 29 -30 72t30 72q30 30 72 30q43 0 73 -30q30 -29 30 -72t-30 -72q-30 -30 -73 -30q-42 0 -72 30
zM889 1258q-30 29 -30 72t30 72q29 30 72 30q42 0 72 -30q30 -29 30 -72t-30 -72q-30 -30 -72 -30q-43 0 -72 30z" />
    <glyph glyph-name="Amacron" unicode="&#x100;" horiz-adv-x="1363" 
d="M1044 443h-608l-254 -443h-149l851 1443h128l233 -1443h-134zM502 560h527l-110 702h-13zM663 1619l23 105h644l-22 -105h-645z" />
    <glyph glyph-name="amacron" unicode="&#x101;" horiz-adv-x="1126" 
d="M740 178q106 80 132 202l32 149l-321 -17q-152 -8 -235 -68q-83 -59 -83 -158q0 -83 65 -136q66 -53 170 -53q135 0 240 81zM224 65q-94 83 -94 208q0 156 119 246q120 91 341 101l337 16l17 81q8 42 8 64q0 92 -67 144q-68 52 -188 52q-106 0 -181 -45t-100 -122h-139
q33 130 151 207q117 78 280 78q171 0 274 -81q103 -80 103 -216q0 -39 -10 -89l-150 -709h-128l35 165h-12q-57 -84 -153 -133q-97 -50 -206 -50q-142 0 -237 83zM433 1292l22 106h663l-23 -106h-662z" />
    <glyph glyph-name="Abreve" unicode="&#x102;" horiz-adv-x="1363" 
d="M1044 443h-608l-254 -443h-149l851 1443h128l233 -1443h-134zM502 560h527l-110 702h-13zM676 1851h116q-1 -5 -1 -15q0 -69 56 -114t143 -45q86 0 145 47q58 47 74 127h119q-19 -125 -114 -200q-94 -74 -228 -74q-139 0 -225 72t-86 188q0 11 1 14z" />
    <glyph glyph-name="abreve" unicode="&#x103;" horiz-adv-x="1126" 
d="M740 178q106 80 132 202l32 149l-321 -17q-152 -8 -235 -68q-83 -59 -83 -158q0 -83 65 -136q66 -53 170 -53q135 0 240 81zM224 65q-94 83 -94 208q0 156 119 246q120 91 341 101l337 16l17 81q8 42 8 64q0 92 -67 144q-68 52 -188 52q-106 0 -181 -45t-100 -122h-139
q33 130 151 207q117 78 280 78q171 0 274 -81q103 -80 103 -216q0 -39 -10 -89l-150 -709h-128l35 165h-12q-57 -84 -153 -133q-97 -50 -206 -50q-142 0 -237 83zM580 1538q-2 -18 -2 -31q0 -77 54 -121q54 -45 146 -45q98 0 158 52q61 51 73 145h120q-12 -134 -108 -216
q-98 -82 -249 -82q-145 0 -229 74q-82 70 -82 185q0 11 2 39h117z" />
    <glyph glyph-name="Aogonek" unicode="&#x104;" horiz-adv-x="1363" 
d="M502 560h527l-110 702h-13zM1216 -404q-37 -17 -94 -17q-94 0 -148 48q-55 48 -55 130q0 152 189 267l-64 419h-608l-254 -443h-149l851 1443h128l231 -1430q-195 -111 -195 -230q0 -99 112 -99q48 0 77 11z" />
    <glyph glyph-name="aogonek" unicode="&#x105;" horiz-adv-x="1126" 
d="M647 -362q-54 59 -39 151q19 132 194 225l30 151h-12q-57 -85 -154 -134q-96 -49 -205 -49q-142 0 -237 83q-94 83 -94 208q0 156 120 246q119 90 340 101l337 16l17 81q8 39 8 64q0 92 -67 144q-68 52 -188 52q-106 0 -181 -45t-100 -122h-139q33 130 151 207
q117 78 280 78q171 0 274 -81q103 -80 103 -216q0 -45 -10 -89l-147 -696q-177 -100 -193 -211q-7 -54 21 -86q29 -32 84 -32q53 0 81 11l-20 -99q-39 -17 -100 -17q-100 0 -154 59zM740 177q106 81 132 203l32 149l-321 -17q-152 -8 -235 -67t-83 -159q0 -84 65 -136
q66 -53 170 -53q134 0 240 80z" />
    <glyph glyph-name="Cacute" unicode="&#x106;" horiz-adv-x="1464" 
d="M1301 1875h174l-389 -297h-157zM1377 990l1 15q-8 150 -121 245q-115 96 -293 96q-251 0 -425 -221q-174 -222 -174 -543q0 -226 115 -356q116 -129 316 -129q160 0 283 78q123 77 166 204h144q-54 -189 -217 -299q-164 -110 -390 -110q-255 0 -407 162t-152 435
q0 389 215 648q214 258 536 258q234 0 389 -134q153 -133 153 -331l-1 -18h-138z" />
    <glyph glyph-name="cacute" unicode="&#x107;" horiz-adv-x="1148" 
d="M1023 760q-11 95 -91 156q-81 61 -196 61q-178 0 -299 -153q-120 -153 -120 -378q0 -159 82 -252q81 -92 220 -92q112 0 195 50q84 50 117 138h136q-35 -139 -161 -223q-126 -85 -298 -85q-194 0 -311 122t-117 324q0 287 161 477q162 190 406 190q155 0 267 -81
q111 -81 137 -209q5 -22 6 -45h-134zM1043 1594h169l-340 -327h-149z" />
    <glyph glyph-name="Ccircumflex" unicode="&#x108;" horiz-adv-x="1464" 
d="M1377 990l1 15q-8 150 -121 245q-115 96 -293 96q-251 0 -425 -221q-174 -222 -174 -543q0 -226 115 -356q116 -129 316 -129q160 0 283 78q123 77 166 204h144q-54 -189 -217 -299q-164 -110 -390 -110q-255 0 -407 162t-152 435q0 389 215 648q214 258 536 258
q234 0 389 -134q153 -133 153 -331l-1 -18h-138zM1332 1578h-143l-126 208h-12l-214 -208h-160l315 297h151z" />
    <glyph glyph-name="ccircumflex" unicode="&#x109;" horiz-adv-x="1148" 
d="M1140 1228h-143l-142 243h-12l-244 -243h-163l346 332h154zM1023 760q-11 95 -91 156q-81 61 -196 61q-178 0 -299 -153q-120 -153 -120 -378q0 -159 82 -252q81 -92 220 -92q112 0 195 50q84 50 117 138h136q-35 -139 -161 -223q-126 -85 -298 -85q-194 0 -311 122
t-117 324q0 287 161 477q162 190 406 190q155 0 267 -81q111 -81 137 -209q5 -22 6 -45h-134z" />
    <glyph glyph-name="Cdotaccent" unicode="&#x10a;" horiz-adv-x="1464" 
d="M954 1608q-31 31 -31 74q0 44 31 74q31 31 74 31t73 -31q31 -31 31 -74t-31 -74q-30 -30 -73 -30q-44 0 -74 30zM1377 990l1 15q-8 150 -121 245q-115 96 -293 96q-251 0 -425 -221q-174 -222 -174 -543q0 -226 115 -356q116 -129 316 -129q160 0 283 78q123 77 166 204
h144q-54 -189 -217 -299q-164 -110 -390 -110q-255 0 -407 162t-152 435q0 389 215 648q214 258 536 258q234 0 389 -134q153 -133 153 -331l-1 -18h-138z" />
    <glyph glyph-name="cdotaccent" unicode="&#x10b;" horiz-adv-x="1148" 
d="M1023 760q-11 95 -91 156q-81 61 -196 61q-178 0 -299 -153q-120 -153 -120 -378q0 -159 82 -252q81 -92 220 -92q112 0 195 50q84 50 117 138h136q-35 -139 -161 -223q-126 -85 -298 -85q-194 0 -311 122t-117 324q0 287 161 477q162 190 406 190q155 0 267 -81
q111 -81 137 -209q5 -22 6 -45h-134zM755 1313q-32 32 -32 77t32 77t77 32t78 -32q32 -32 32 -77t-32 -77q-33 -33 -78 -33t-77 33z" />
    <glyph glyph-name="Ccaron" unicode="&#x10c;" horiz-adv-x="1464" 
d="M1377 990l1 15q-8 150 -121 245q-115 96 -293 96q-251 0 -425 -221q-174 -222 -174 -543q0 -226 115 -356q116 -129 316 -129q160 0 283 78q123 77 166 204h144q-54 -189 -217 -299q-164 -110 -390 -110q-255 0 -407 162t-152 435q0 389 215 648q214 258 536 258
q234 0 389 -134q153 -133 153 -331l-1 -18h-138zM749 1875h142l126 -208h12l214 208h161l-316 -297h-150z" />
    <glyph glyph-name="ccaron" unicode="&#x10d;" horiz-adv-x="1148" 
d="M731 1228l-205 332h143l142 -243h11l245 243h163l-346 -332h-153zM1023 760q-11 95 -91 156q-81 61 -196 61q-178 0 -299 -153q-120 -153 -120 -378q0 -159 82 -252q81 -92 220 -92q112 0 195 50q84 50 117 138h136q-35 -139 -161 -223q-126 -85 -298 -85
q-194 0 -311 122t-117 324q0 287 161 477q162 190 406 190q155 0 267 -81q111 -81 137 -209q5 -22 6 -45h-134z" />
    <glyph glyph-name="Dcaron" unicode="&#x10e;" horiz-adv-x="1476" 
d="M583 1874h142l126 -208h12l214 208h161l-316 -297h-150zM862 1443q286 0 448 -163q160 -161 160 -444q0 -359 -223 -598q-222 -238 -555 -238h-548l305 1443h413zM308 122h390q272 0 452 201q180 202 180 506q0 230 -127 361q-128 131 -352 131h-288z" />
    <glyph glyph-name="dcaron" unicode="&#x10f;" horiz-adv-x="1328" 
d="M1614 1496l-131 -444h-93l95 444h129zM290 101q-113 122 -113 315q0 286 164 483q162 196 394 196q130 0 224 -72q95 -73 119 -189h12l142 672h134l-320 -1506h-127l39 185h-13q-63 -94 -163 -148q-101 -55 -214 -55q-167 0 -278 119zM918 262q124 158 124 385
q0 151 -81 241q-81 89 -218 89q-178 0 -303 -156q-126 -158 -126 -385q0 -150 81 -242q81 -93 213 -93q185 0 310 161z" />
    <glyph glyph-name="Dcroat" unicode="&#x110;" horiz-adv-x="1452" 
d="M698 122q272 0 452 201q180 202 180 506q0 230 -127 361q-128 131 -352 131h-288l-110 -516h238l-27 -124h-237l-119 -559h390zM862 1443q286 0 448 -163q160 -161 160 -444q0 -359 -223 -598q-222 -238 -555 -238h-548l144 681h-195l27 124h194l135 638h413z" />
    <glyph glyph-name="dcroat" unicode="&#x111;" horiz-adv-x="1256" 
d="M918 262q124 158 124 385q0 151 -81 241q-81 89 -218 89q-178 0 -303 -156q-126 -158 -126 -385q0 -150 81 -242q81 -93 213 -93q185 0 310 161zM1466 1285h-147l-273 -1285h-127l39 185h-13q-63 -94 -163 -148q-101 -55 -214 -55q-167 0 -278 119q-113 122 -113 315
q0 286 164 483q162 196 394 196q130 0 224 -72q95 -73 119 -189h12l95 451h-255l21 98h255l26 123h134l-26 -123h146z" />
    <glyph glyph-name="Emacron" unicode="&#x112;" horiz-adv-x="1196" 
d="M1015 0h-873l307 1443h873l-27 -124h-732l-112 -519h697l-26 -122h-696l-119 -554h734zM600 1619l23 105h644l-22 -105h-645z" />
    <glyph glyph-name="emacron" unicode="&#x113;" horiz-adv-x="1176" 
d="M304 98q-124 121 -124 326q0 294 159 483q158 188 402 188q172 0 286 -115q119 -120 119 -313q0 -87 -14 -154h-811q-5 -43 -5 -78q0 -162 91 -252q83 -81 214 -81q226 0 309 162h140q-38 -125 -158 -202q-126 -80 -300 -80q-189 0 -308 116zM1006 621q4 24 4 60
q0 127 -74 211q-79 87 -207 87q-138 0 -244 -99q-105 -98 -146 -259h667zM450 1292l22 106h663l-23 -106h-662z" />
    <glyph glyph-name="Ebreve" unicode="&#x114;" horiz-adv-x="1196" 
d="M1015 0h-873l307 1443h873l-27 -124h-732l-112 -519h697l-26 -122h-696l-119 -554h734zM614 1851h116q-1 -5 -1 -15q0 -69 56 -114t143 -45q86 0 145 47q58 47 74 127h119q-19 -125 -114 -200q-94 -74 -228 -74q-139 0 -225 72t-86 188q0 11 1 14z" />
    <glyph glyph-name="ebreve" unicode="&#x115;" horiz-adv-x="1176" 
d="M304 98q-124 121 -124 326q0 294 159 483q158 188 402 188q172 0 286 -115q119 -120 119 -313q0 -87 -14 -154h-811q-5 -43 -5 -78q0 -162 91 -252q83 -81 214 -81q226 0 309 162h140q-38 -125 -158 -202q-126 -80 -300 -80q-189 0 -308 116zM1006 621q4 24 4 60
q0 127 -74 211q-79 87 -207 87q-138 0 -244 -99q-105 -98 -146 -259h667zM597 1538q-2 -18 -2 -31q0 -77 54 -121q54 -45 146 -45q98 0 158 52q61 51 73 145h120q-12 -134 -108 -216q-98 -82 -249 -82q-145 0 -229 74q-82 70 -82 185q0 11 2 39h117z" />
    <glyph glyph-name="Edotaccent" unicode="&#x116;" horiz-adv-x="1196" 
d="M863 1607q-31 31 -31 74q0 44 31 74q31 31 74 31t73 -31q31 -31 31 -74t-31 -74q-30 -30 -73 -30q-44 0 -74 30zM1015 0h-873l307 1443h873l-27 -124h-732l-112 -519h697l-26 -122h-696l-119 -554h734z" />
    <glyph glyph-name="edotaccent" unicode="&#x117;" horiz-adv-x="1176" 
d="M725 1313q-32 32 -32 77t32 77t77 32t78 -32q32 -32 32 -77t-32 -77q-33 -33 -78 -33t-77 33zM304 98q-124 121 -124 326q0 294 159 483q158 188 402 188q172 0 286 -115q119 -120 119 -313q0 -87 -14 -154h-811q-5 -43 -5 -78q0 -162 91 -252q83 -81 214 -81
q226 0 309 162h140q-38 -125 -158 -202q-126 -80 -300 -80q-189 0 -308 116zM1006 621q4 24 4 60q0 127 -74 211q-79 87 -207 87q-138 0 -244 -99q-105 -98 -146 -259h667z" />
    <glyph glyph-name="Eogonek" unicode="&#x118;" horiz-adv-x="1196" 
d="M714 -373q-55 48 -55 130q0 135 152 243h-669l307 1443h873l-27 -124h-732l-112 -519h697l-26 -122h-696l-119 -554h734l-22 -95q-231 -100 -231 -246q0 -45 31 -72t81 -27q48 0 77 11l-21 -99q-37 -17 -94 -17q-94 0 -148 48z" />
    <glyph glyph-name="eogonek" unicode="&#x119;" horiz-adv-x="1179" 
d="M599 -365q-55 48 -55 124q0 124 116 215v12q-24 -4 -48 -4q-195 0 -313 121q-119 121 -119 321q0 293 158 482t403 189q178 0 291 -121q114 -120 114 -307q0 -89 -14 -154h-811q-5 -55 -5 -78q0 -152 83 -242q83 -91 222 -91q226 0 309 162h140q-38 -120 -221 -246
q-179 -114 -179 -228q0 -103 126 -103q40 0 58 7l-20 -96q-28 -13 -83 -13q-95 0 -152 50zM1006 621q4 24 4 60q0 131 -78 214q-78 84 -203 84q-136 0 -243 -98q-106 -97 -147 -260h667z" />
    <glyph glyph-name="Ecaron" unicode="&#x11a;" horiz-adv-x="1196" 
d="M658 1874h142l126 -208h12l214 208h161l-316 -297h-150zM1015 0h-873l307 1443h873l-27 -124h-732l-112 -519h697l-26 -122h-696l-119 -554h734z" />
    <glyph glyph-name="ecaron" unicode="&#x11b;" horiz-adv-x="1176" 
d="M701 1228l-205 332h143l142 -243h11l245 243h163l-346 -332h-153zM304 98q-124 121 -124 326q0 294 159 483q158 188 402 188q172 0 286 -115q119 -120 119 -313q0 -87 -14 -154h-811q-5 -43 -5 -78q0 -162 91 -252q83 -81 214 -81q226 0 309 162h140q-38 -125 -158 -202
q-126 -80 -300 -80q-189 0 -308 116zM1006 621q4 24 4 60q0 127 -74 211q-79 87 -207 87q-138 0 -244 -99q-105 -98 -146 -259h667z" />
    <glyph glyph-name="Gcircumflex" unicode="&#x11c;" horiz-adv-x="1506" 
d="M1319 1577h-143l-126 208h-12l-214 -208h-160l315 297h151zM1446 529q-56 -270 -225 -414q-169 -145 -427 -145t-413 165q-156 166 -156 441q0 387 213 642t535 255q224 0 375 -124q150 -124 160 -314q1 -7 1 -28h-138q-8 150 -119 244q-113 95 -289 95q-252 0 -424 -218
t-172 -538q0 -230 119 -362q119 -131 326 -131q186 0 320 115q135 115 172 307l16 81h-434l26 121h573z" />
    <glyph glyph-name="gcircumflex" unicode="&#x11d;" horiz-adv-x="1247" 
d="M1137 1228h-143l-142 243h-12l-244 -243h-163l346 332h154zM231 -319q-118 82 -130 202h139q15 -75 92 -122q82 -50 205 -50q146 0 241 73q92 71 122 201l50 225h-12q-123 -199 -363 -199q-171 0 -281 119q-112 120 -112 311q0 281 156 468q156 186 387 186
q129 0 227 -73q97 -72 123 -187h12l50 233l127 -1l-238 -1107q-36 -171 -167 -267q-132 -96 -334 -96q-174 0 -294 84zM916 277q118 148 118 372q0 152 -83 241q-81 87 -218 87q-178 0 -295 -146q-119 -147 -119 -371q0 -156 79 -244q79 -89 216 -89q182 0 302 150z" />
    <glyph glyph-name="Gbreve" unicode="&#x11e;" horiz-adv-x="1506" 
d="M1446 529q-56 -270 -225 -414q-169 -145 -427 -145t-413 165q-156 166 -156 441q0 387 213 642t535 255q224 0 375 -124q150 -124 160 -314q1 -7 1 -28h-138q-8 150 -119 244q-113 95 -289 95q-252 0 -424 -218t-172 -538q0 -230 119 -362q119 -131 326 -131
q186 0 320 115q135 115 172 307l16 81h-434l26 121h573zM692 1851h116q-1 -5 -1 -15q0 -69 56 -114t143 -45q86 0 145 47q58 47 74 127h119q-19 -125 -114 -200q-94 -74 -228 -74q-139 0 -225 72t-86 188q0 11 1 14z" />
    <glyph glyph-name="gbreve" unicode="&#x11f;" horiz-adv-x="1247" 
d="M624 1538q-2 -18 -2 -31q0 -77 54 -121q54 -45 146 -45q98 0 158 52q61 51 73 145h120q-12 -134 -108 -216q-98 -82 -249 -82q-145 0 -229 74q-82 70 -82 185q0 11 2 39h117zM231 -319q-118 82 -130 202h139q15 -75 92 -122q82 -50 205 -50q146 0 241 73q92 71 122 201
l50 225h-12q-123 -199 -363 -199q-171 0 -281 119q-112 120 -112 311q0 281 156 468q156 186 387 186q129 0 227 -73q97 -72 123 -187h12l50 233l127 -1l-238 -1107q-36 -171 -167 -267q-132 -96 -334 -96q-174 0 -294 84zM916 277q118 148 118 372q0 152 -83 241
q-81 87 -218 87q-178 0 -295 -146q-119 -147 -119 -371q0 -156 79 -244q79 -89 216 -89q182 0 302 150z" />
    <glyph glyph-name="Gdotaccent" unicode="&#x120;" horiz-adv-x="1506" 
d="M941 1607q-31 31 -31 74q0 44 31 74q31 31 74 31t73 -31q31 -31 31 -74t-31 -74q-30 -30 -73 -30q-44 0 -74 30zM1446 529q-56 -270 -225 -414q-169 -145 -427 -145t-413 165q-156 166 -156 441q0 387 213 642t535 255q224 0 375 -124q150 -124 160 -314q1 -7 1 -28h-138
q-8 150 -119 244q-113 95 -289 95q-252 0 -424 -218t-172 -538q0 -230 119 -362q119 -131 326 -131q186 0 320 115q135 115 172 307l16 81h-434l26 121h573z" />
    <glyph glyph-name="gdotaccent" unicode="&#x121;" horiz-adv-x="1247" 
d="M752 1313q-32 32 -32 77t32 77t77 32t78 -32q32 -32 32 -77t-32 -77q-33 -33 -78 -33t-77 33zM231 -319q-118 82 -130 202h139q15 -75 92 -122q82 -50 205 -50q146 0 241 73q92 71 122 201l50 225h-12q-123 -199 -363 -199q-171 0 -281 119q-112 120 -112 311
q0 281 156 468q156 186 387 186q129 0 227 -73q97 -72 123 -187h12l50 233l127 -1l-238 -1107q-36 -171 -167 -267q-132 -96 -334 -96q-174 0 -294 84zM916 277q118 148 118 372q0 152 -83 241q-81 87 -218 87q-178 0 -295 -146q-119 -147 -119 -371q0 -156 79 -244
q79 -89 216 -89q182 0 302 150z" />
    <glyph glyph-name="uni0122" unicode="&#x122;" horiz-adv-x="1506" 
d="M550 -506l179 364h141l-193 -364h-127zM1446 529q-56 -270 -225 -414q-169 -145 -427 -145t-413 165q-156 166 -156 441q0 387 213 642t535 255q224 0 375 -124q150 -124 160 -314q1 -7 1 -28h-138q-8 150 -119 244q-113 95 -289 95q-252 0 -424 -218t-172 -538
q0 -230 119 -362q119 -131 326 -131q186 0 320 115q135 115 172 307l16 81h-434l26 121h573z" />
    <glyph glyph-name="uni0123" unicode="&#x123;" horiz-adv-x="1247" 
d="M1187 1647l-179 -364h-141l193 364h127zM231 -319q-118 82 -130 202h139q15 -75 92 -122q82 -50 205 -50q146 0 241 73q92 71 122 201l50 225h-12q-123 -199 -363 -199q-171 0 -281 119q-112 120 -112 311q0 281 156 468q156 186 387 186q129 0 227 -73q97 -72 123 -187
h12l50 233l127 -1l-238 -1107q-36 -171 -167 -267q-132 -96 -334 -96q-174 0 -294 84zM916 277q118 148 118 372q0 152 -83 241q-81 87 -218 87q-178 0 -295 -146q-119 -147 -119 -371q0 -156 79 -244q79 -89 216 -89q182 0 302 150z" />
    <glyph glyph-name="Hcircumflex" unicode="&#x124;" horiz-adv-x="1489" 
d="M1122 0l144 677h-841l-144 -677h-139l307 1443h140l-137 -642h841l137 642h139l-307 -1443h-140zM1365 1577h-143l-126 208h-12l-214 -208h-160l315 297h151z" />
    <glyph glyph-name="hcircumflex" unicode="&#x125;" horiz-adv-x="1229" 
d="M457 1506h133l-131 -611h12q132 200 356 200q156 0 255 -96q95 -92 95 -230q0 -60 -12 -116l-139 -653h-133l134 630q12 59 12 104q0 110 -71 176q-72 67 -193 67q-137 0 -239 -91q-98 -88 -127 -224l-141 -662h-133zM878 1640h-143l-126 208h-12l-214 -208h-160l315 297
h151z" />
    <glyph glyph-name="Hbar" unicode="&#x126;" horiz-adv-x="1453" 
d="M1339 1095h-841l-63 -294h841zM1620 1095h-142l-233 -1095h-140l144 677h-841l-144 -677h-139l233 1095h-145l24 111h145l50 237h140l-51 -237h841l51 237h139l-50 -237h141z" />
    <glyph glyph-name="hbar" unicode="&#x127;" horiz-adv-x="1235" 
d="M471 895q132 200 356 200q156 0 255 -96q95 -92 95 -230q0 -60 -12 -116l-139 -653h-133l134 630q12 59 12 104q0 110 -71 176q-72 67 -193 67q-137 0 -239 -91q-98 -88 -127 -224l-141 -662h-133l275 1285h-149l21 98h149l26 123h133l-26 -123h253l-20 -98h-254
l-84 -390h12z" />
    <glyph glyph-name="Itilde" unicode="&#x128;" horiz-adv-x="509" 
d="M142 0l307 1443h140l-307 -1443h-140zM553 1659q-80 81 -119 81q-96 0 -123 -127h-110q18 107 84 170q65 61 152 61q85 0 164 -80q80 -81 119 -81q97 0 123 126h110q-19 -108 -85 -171q-63 -60 -149 -60t-166 81z" />
    <glyph glyph-name="itilde" unicode="&#x129;" horiz-adv-x="489" 
d="M369 1077h131l-229 -1077h-131zM481 1309q-44 54 -54 64q-31 29 -65 29q-93 0 -122 -142h-110q15 116 81 182q64 65 156 65q90 0 165 -93q43 -54 55 -65q31 -29 65 -29q93 0 121 142h110q-16 -117 -81 -183q-63 -63 -154 -63t-167 93z" />
    <glyph glyph-name="Imacron" unicode="&#x12a;" horiz-adv-x="509" 
d="M142 0l307 1443h140l-307 -1443h-140zM234 1619l23 105h644l-22 -105h-645z" />
    <glyph glyph-name="imacron" unicode="&#x12b;" horiz-adv-x="489" 
d="M369 1077h131l-229 -1077h-131zM148 1292l22 106h663l-23 -106h-662z" />
    <glyph glyph-name="Ibreve" unicode="&#x12c;" horiz-adv-x="509" 
d="M142 0l307 1443h140l-307 -1443h-140zM248 1851h116q-1 -5 -1 -15q0 -69 56 -114t143 -45q86 0 145 47q58 47 74 127h119q-19 -125 -114 -200q-94 -74 -228 -74q-139 0 -225 72t-86 188q0 11 1 14z" />
    <glyph glyph-name="ibreve" unicode="&#x12d;" horiz-adv-x="489" 
d="M369 1077h131l-229 -1077h-131zM295 1538q-2 -18 -2 -31q0 -77 54 -121q54 -45 146 -45q98 0 158 52q61 51 73 145h120q-12 -134 -108 -216q-98 -82 -249 -82q-145 0 -229 74q-82 70 -82 185q0 11 2 39h117z" />
    <glyph glyph-name="Iogonek" unicode="&#x12e;" horiz-adv-x="508" 
d="M590 1443l-302 -1416q-205 -110 -205 -237q0 -49 31 -77q30 -29 81 -29q49 0 76 11l-20 -99q-39 -17 -94 -17q-92 0 -148 50q-55 51 -55 134q0 156 199 282l297 1398h140z" />
    <glyph glyph-name="iogonek" unicode="&#x12f;" horiz-adv-x="489" 
d="M435 1346q-28 28 -28 69q0 40 28 68q29 29 69 29t69 -29q28 -28 28 -68q0 -41 -28 -69q-29 -29 -69 -29t-69 29zM1 -371q-56 51 -56 134q0 153 204 282l221 1032h134l-225 -1050q-204 -110 -204 -237q0 -49 30 -77q30 -29 81 -29q48 0 77 11l-21 -99q-37 -17 -94 -17
q-92 0 -147 50z" />
    <glyph glyph-name="Idotaccent" unicode="&#x130;" horiz-adv-x="509" 
d="M142 0l307 1443h140l-307 -1443h-140zM496 1607q-31 31 -31 74q0 44 31 74q31 31 74 31t73 -31q31 -31 31 -74t-31 -74q-30 -30 -73 -30q-44 0 -74 30z" />
    <glyph glyph-name="dotlessi" unicode="&#x131;" horiz-adv-x="489" 
d="M369 1077h131l-229 -1077h-131z" />
    <glyph glyph-name="IJ" unicode="&#x132;" horiz-adv-x="1595" 
d="M142 0l307 1443h140l-307 -1443h-140zM767 330v-6q1 -103 71 -164q68 -62 181 -62q235 0 298 290l224 1055h136l-231 -1090q-39 -183 -152 -282q-115 -101 -291 -101q-169 0 -275 100q-106 101 -98 253v7h137z" />
    <glyph glyph-name="ij" unicode="&#x133;" horiz-adv-x="977" 
d="M369 1077h133l-230 -1077h-134zM434 1346q-28 28 -28 69q0 40 28 68q29 29 69 29t69 -29q28 -28 28 -68q0 -41 -28 -69q-29 -29 -69 -29t-69 29zM737 -103q-30 -144 -110 -210q-78 -64 -214 -64q-37 0 -76 3l25 117q30 -3 55 -3q83 0 127 40q45 40 65 134l247 1163h131z
M921 1346q-29 29 -29 69t29 68q28 29 68 29t69 -29q29 -28 29 -68t-29 -69q-28 -29 -69 -29q-40 0 -68 29z" />
    <glyph glyph-name="Jcircumflex" unicode="&#x134;" horiz-adv-x="1091" 
d="M268 330v-6q1 -103 70 -164q69 -62 182 -62q235 0 298 290l224 1055h136l-231 -1090q-39 -183 -153 -282q-115 -101 -290 -101q-169 0 -275 100q-106 101 -98 253v7h137zM1465 1577h-143l-126 208h-12l-214 -208h-160l315 297h151z" />
    <glyph glyph-name="jcircumflex" unicode="&#x135;" horiz-adv-x="487" 
d="M249 -103q-30 -144 -110 -210q-78 -64 -214 -64q-37 0 -76 3l25 117q30 -3 55 -3q83 0 127 40q45 40 65 134l247 1163h131zM808 1228h-143l-142 243h-12l-244 -243h-163l346 332h154z" />
    <glyph glyph-name="uni0136" unicode="&#x136;" horiz-adv-x="1311" 
d="M142 0l307 1443h136l-158 -743h12l833 743h180l-706 -631l458 -812h-159l-407 728l-250 -221l-109 -507h-137zM389 -506l179 364h141l-193 -364h-127z" />
    <glyph glyph-name="uni0137" unicode="&#x137;" horiz-adv-x="1092" 
d="M1022 1077h177l-583 -464l378 -613h-154l-330 539l-152 -112l-90 -427h-133l320 1506h133l-194 -912h12zM286 -506l179 364h141l-193 -364h-127z" />
    <glyph glyph-name="Lacute" unicode="&#x139;" horiz-adv-x="1139" 
d="M843 1874h174l-389 -297h-157zM1002 0h-860l307 1443h140l-282 -1319h721z" />
    <glyph glyph-name="lacute" unicode="&#x13a;" horiz-adv-x="490" 
d="M847 1937h174l-389 -297h-157zM455 1506h134l-320 -1506h-134z" />
    <glyph glyph-name="uni013B" unicode="&#x13b;" horiz-adv-x="1139" 
d="M319 -506l179 364h141l-193 -364h-127zM1002 0h-860l307 1443h140l-282 -1319h721z" />
    <glyph glyph-name="uni013C" unicode="&#x13c;" horiz-adv-x="490" 
d="M-50 -506l179 364h141l-193 -364h-127zM456 1506h134l-320 -1506h-134z" />
    <glyph glyph-name="Lcaron" unicode="&#x13d;" horiz-adv-x="1139" 
d="M965 1443l-137 -473h-93l101 473h129zM1002 0h-860l307 1443h140l-282 -1319h721z" />
    <glyph glyph-name="lcaron" unicode="&#x13e;" horiz-adv-x="557" 
d="M843 1496l-131 -444h-93l95 444h129zM455 1506h134l-320 -1506h-134z" />
    <glyph glyph-name="Lslash" unicode="&#x141;" horiz-adv-x="1105" 
d="M1028 124l-26 -124h-860l154 726l-184 -81l23 112l185 81l129 605h140l-115 -537l346 152l-24 -112l-346 -152l-143 -670h721z" />
    <glyph glyph-name="lslash" unicode="&#x142;" horiz-adv-x="489" 
d="M591 867l-153 -72l-169 -795h-134l154 725l-148 -70l23 113l149 70l142 668h134l-127 -598l152 71z" />
    <glyph glyph-name="Nacute" unicode="&#x143;" horiz-adv-x="1492" 
d="M1342 1874h174l-389 -297h-157zM142 0l307 1443h135l579 -1218h12l259 1218h138l-307 -1443h-133l-581 1220h-12l-259 -1220h-138z" />
    <glyph glyph-name="nacute" unicode="&#x144;" horiz-adv-x="1210" 
d="M1069 1594h169l-340 -327h-149zM354 1077h128l-39 -183h12q131 201 360 201q153 0 251 -95q95 -93 95 -228q0 -58 -13 -119l-139 -653h-133l134 630q13 63 13 107q0 108 -70 173q-71 67 -190 67q-135 0 -237 -91q-98 -88 -127 -224l-141 -662h-133z" />
    <glyph glyph-name="uni0145" unicode="&#x145;" horiz-adv-x="1492" 
d="M452 -506l179 364h141l-193 -364h-127zM142 0l307 1443h135l579 -1218h12l259 1218h138l-307 -1443h-133l-581 1220h-12l-259 -1220h-138z" />
    <glyph glyph-name="uni0146" unicode="&#x146;" horiz-adv-x="1210" 
d="M308 -506l179 364h141l-193 -364h-127zM354 1077h128l-39 -183h12q131 201 360 201q153 0 251 -95q95 -93 95 -228q0 -58 -13 -119l-139 -653h-133l134 630q13 63 13 107q0 108 -70 173q-71 67 -190 67q-135 0 -237 -91q-98 -88 -127 -224l-141 -662h-133z" />
    <glyph glyph-name="Ncaron" unicode="&#x147;" horiz-adv-x="1492" 
d="M790 1874h142l126 -208h12l214 208h161l-316 -297h-150zM142 0l307 1443h135l579 -1218h12l259 1218h138l-307 -1443h-133l-581 1220h-12l-259 -1220h-138z" />
    <glyph glyph-name="ncaron" unicode="&#x148;" horiz-adv-x="1210" 
d="M757 1228l-205 332h143l142 -243h11l245 243h163l-346 -332h-153zM354 1077h128l-39 -183h12q131 201 360 201q153 0 251 -95q95 -93 95 -228q0 -58 -13 -119l-139 -653h-133l134 630q13 63 13 107q0 108 -70 173q-71 67 -190 67q-135 0 -237 -91q-98 -88 -127 -224
l-141 -662h-133z" />
    <glyph glyph-name="Omacron" unicode="&#x14c;" horiz-adv-x="1564" 
d="M384 139q-161 170 -161 435q0 385 219 642t547 257q252 0 412 -169t160 -435q0 -387 -218 -643q-217 -256 -545 -256q-253 0 -414 169zM1298 1212q-121 134 -319 134q-260 0 -436 -219t-176 -542q0 -220 121 -354t320 -134q261 0 436 217q174 218 174 544q0 220 -120 354
zM699 1618l23 105h644l-22 -105h-645z" />
    <glyph glyph-name="omacron" unicode="&#x14d;" horiz-adv-x="1216" 
d="M458 1292l22 106h663l-23 -106h-662zM403 196q86 -95 230 -95q168 0 287 148q122 151 122 374q0 164 -83 259t-225 95q-186 0 -302 -155q-113 -150 -113 -380q0 -153 84 -246zM300 106q-120 123 -120 322q0 282 153 470q159 197 413 197q196 0 316 -123t120 -321
q0 -278 -152 -468q-159 -201 -413 -201q-196 0 -317 124z" />
    <glyph glyph-name="Obreve" unicode="&#x14e;" horiz-adv-x="1564" 
d="M384 139q-161 170 -161 435q0 385 219 642t547 257q252 0 412 -169t160 -435q0 -387 -218 -643q-217 -256 -545 -256q-253 0 -414 169zM1298 1212q-121 134 -319 134q-260 0 -436 -219t-176 -542q0 -220 121 -354t320 -134q261 0 436 217q174 218 174 544q0 220 -120 354
zM712 1850h116q-1 -5 -1 -15q0 -69 56 -114t143 -45q86 0 145 47q58 47 74 127h119q-19 -125 -114 -200q-94 -74 -228 -74q-139 0 -225 72t-86 188q0 11 1 14z" />
    <glyph glyph-name="obreve" unicode="&#x14f;" horiz-adv-x="1216" 
d="M605 1538q-2 -18 -2 -31q0 -77 54 -121q54 -45 146 -45q98 0 158 52q61 51 73 145h120q-12 -134 -108 -216q-98 -82 -249 -82q-145 0 -229 74q-82 70 -82 185q0 11 2 39h117zM403 196q86 -95 230 -95q168 0 287 148q122 151 122 374q0 164 -83 259t-225 95
q-186 0 -302 -155q-113 -150 -113 -380q0 -153 84 -246zM300 106q-120 123 -120 322q0 282 153 470q159 197 413 197q196 0 316 -123t120 -321q0 -278 -152 -468q-159 -201 -413 -201q-196 0 -317 124z" />
    <glyph glyph-name="Ohungarumlaut" unicode="&#x150;" horiz-adv-x="1564" 
d="M1477 1873h174l-389 -297h-157zM1114 1873h174l-389 -297h-157zM384 139q-161 170 -161 435q0 385 219 642t547 257q252 0 412 -169t160 -435q0 -387 -218 -643q-217 -256 -545 -256q-253 0 -414 169zM1298 1212q-121 134 -319 134q-260 0 -436 -219t-176 -542
q0 -220 121 -354t320 -134q261 0 436 217q174 218 174 544q0 220 -120 354z" />
    <glyph glyph-name="ohungarumlaut" unicode="&#x151;" horiz-adv-x="1216" 
d="M1201 1594h162l-341 -330h-141zM850 1594h161l-341 -330h-141zM403 196q86 -95 230 -95q168 0 287 148q122 151 122 374q0 164 -83 259t-225 95q-186 0 -302 -155q-113 -150 -113 -380q0 -153 84 -246zM300 106q-120 123 -120 322q0 282 153 470q159 197 413 197
q196 0 316 -123t120 -321q0 -278 -152 -468q-159 -201 -413 -201q-196 0 -317 124z" />
    <glyph glyph-name="OE" unicode="&#x152;" horiz-adv-x="2324" 
d="M1297 1212q-121 134 -318 134q-260 0 -436 -219t-176 -542q0 -220 121 -354t320 -134q261 0 436 217q174 218 174 544q0 220 -121 354zM1309 209l-12 -1q-189 -238 -499 -238q-252 0 -413 169q-162 169 -162 435q0 385 220 642q219 257 546 257q185 0 320 -101
q130 -97 179 -261h13l70 332h873l-27 -124h-733l-111 -519h697l-27 -122h-696l-118 -554h734l-26 -124h-873z" />
    <glyph glyph-name="oe" unicode="&#x153;" horiz-adv-x="2030" 
d="M1216 52q-103 70 -143 197h-12q-152 -267 -446 -267q-195 0 -315 123t-120 323q0 289 159 478q160 189 407 189q144 0 246 -73q101 -74 141 -208h12q146 281 446 281q178 0 292 -121q113 -120 114 -307q0 -84 -15 -154h-811q-5 -62 -5 -80q0 -151 84 -241q83 -90 221 -90
q227 0 309 162h140q-39 -129 -163 -205q-124 -77 -295 -77q-143 0 -246 70zM1856 620q4 17 4 61q0 131 -78 214q-78 84 -203 84q-136 0 -242 -98q-106 -97 -148 -261h667zM405 194q86 -93 228 -93q172 0 291 153q118 151 118 369q0 164 -83 259q-82 95 -225 95
q-183 0 -299 -151q-116 -150 -116 -384q0 -155 86 -248z" />
    <glyph glyph-name="Racute" unicode="&#x154;" horiz-adv-x="1311" 
d="M1159 1874h174l-389 -297h-157zM451 1443h474q194 0 308 -101q113 -100 113 -273t-110 -298t-293 -159l220 -612h-150l-206 591h-398l-127 -591h-140zM434 714h376q174 0 283 95t109 247q0 124 -75 194q-75 71 -207 71h-356z" />
    <glyph glyph-name="racute" unicode="&#x155;" horiz-adv-x="756" 
d="M868 1594h169l-340 -327h-149zM349 1077h127l-34 -157h13q108 175 300 175q91 0 135 -20l-28 -126q-51 19 -140 19q-127 0 -213 -81t-118 -232l-139 -655h-132z" />
    <glyph glyph-name="uni0156" unicode="&#x156;" horiz-adv-x="1311" 
d="M451 1443h474q194 0 308 -101q113 -100 113 -273t-110 -298t-293 -159l220 -612h-150l-206 591h-398l-127 -591h-140zM434 714h376q174 0 283 95t109 247q0 124 -75 194q-75 71 -207 71h-356zM385 -506l179 364h141l-193 -364h-127z" />
    <glyph glyph-name="uni0157" unicode="&#x157;" horiz-adv-x="756" 
d="M350 1077h127l-34 -157h13q108 175 300 175q91 0 135 -20l-28 -126q-51 19 -140 19q-127 0 -213 -81t-118 -232l-139 -655h-132zM-59 -506l179 364h141l-193 -364h-127z" />
    <glyph glyph-name="Rcaron" unicode="&#x158;" horiz-adv-x="1311" 
d="M451 1443h474q194 0 308 -101q113 -100 113 -273t-110 -298t-293 -159l220 -612h-150l-206 591h-398l-127 -591h-140zM434 714h376q174 0 283 95t109 247q0 124 -75 194q-75 71 -207 71h-356zM607 1874h142l126 -208h12l214 208h161l-316 -297h-150z" />
    <glyph glyph-name="rcaron" unicode="&#x159;" horiz-adv-x="756" 
d="M556 1228l-205 332h143l142 -243h11l245 243h163l-346 -332h-153zM349 1077h127l-34 -157h13q108 175 300 175q91 0 135 -20l-28 -126q-51 19 -140 19q-127 0 -213 -81t-118 -232l-139 -655h-132z" />
    <glyph glyph-name="Sacute" unicode="&#x15a;" horiz-adv-x="1267" 
d="M1201 1874h174l-389 -297h-157zM279 392q19 -134 130 -215q112 -82 276 -82q165 0 266 79q102 80 102 209q0 182 -263 274l-136 48q-319 112 -319 365q0 174 141 289q140 114 353 114q202 0 342 -112q139 -112 155 -286h-137q-23 124 -124 199q-100 74 -245 74
q-148 0 -244 -75q-97 -76 -97 -192q0 -168 257 -260l132 -47q329 -118 329 -376q0 -190 -146 -309q-145 -119 -377 -119q-222 0 -367 115t-166 307h138z" />
    <glyph glyph-name="sacute" unicode="&#x15b;" horiz-adv-x="1050" 
d="M260 281q19 -84 95 -135q78 -52 190 -52q121 0 200 55q78 55 78 141q0 116 -171 175l-143 48q-248 83 -248 273q0 136 112 223q111 86 280 86q161 0 267 -79q105 -77 123 -205h-130q-15 77 -87 125q-73 47 -177 47q-110 0 -182 -53q-73 -53 -73 -132q0 -111 174 -170
l129 -43q137 -47 199 -114q62 -68 62 -172q0 -138 -119 -227q-119 -90 -300 -90q-173 0 -288 83t-126 216h135zM943 1594h169l-340 -327h-149z" />
    <glyph glyph-name="Scircumflex" unicode="&#x15c;" horiz-adv-x="1267" 
d="M279 392q19 -134 130 -215q112 -82 276 -82q165 0 266 79q102 80 102 209q0 182 -263 274l-136 48q-319 112 -319 365q0 174 141 289q140 114 353 114q202 0 342 -112q139 -112 155 -286h-137q-23 124 -124 199q-100 74 -245 74q-148 0 -244 -75q-97 -76 -97 -192
q0 -168 257 -260l132 -47q329 -118 329 -376q0 -190 -146 -309q-145 -119 -377 -119q-222 0 -367 115t-166 307h138zM1223 1577h-143l-126 208h-12l-214 -208h-160l315 297h151z" />
    <glyph glyph-name="scircumflex" unicode="&#x15d;" horiz-adv-x="1050" 
d="M1040 1228h-143l-142 243h-12l-244 -243h-163l346 332h154zM260 281q19 -84 95 -135q78 -52 190 -52q121 0 200 55q78 55 78 141q0 116 -171 175l-143 48q-248 83 -248 273q0 136 112 223q111 86 280 86q161 0 267 -79q105 -77 123 -205h-130q-15 77 -87 125
q-73 47 -177 47q-110 0 -182 -53q-73 -53 -73 -132q0 -111 174 -170l129 -43q137 -47 199 -114q62 -68 62 -172q0 -138 -119 -227q-119 -90 -300 -90q-173 0 -288 83t-126 216h135z" />
    <glyph glyph-name="Scedilla" unicode="&#x15e;" horiz-adv-x="1267" 
d="M868 774q329 -118 329 -376q0 -183 -137 -302q-137 -118 -358 -126l-70 -109q179 -18 179 -155q0 -82 -65 -134q-66 -52 -167 -52q-96 0 -172 37l18 87q66 -32 151 -32q54 0 88 24q33 23 33 63q0 82 -137 87l-51 1l11 72l74 115q-191 21 -312 133q-122 112 -141 285h138
q19 -134 130 -215q112 -82 276 -82q165 0 266 79q102 80 102 209q0 182 -263 274l-136 48q-319 112 -319 365q0 174 141 289q140 114 353 114q202 0 342 -112q139 -112 155 -286h-137q-23 124 -124 199q-100 74 -245 74q-148 0 -244 -75q-97 -76 -97 -192q0 -168 257 -260z
" />
    <glyph glyph-name="scedilla" unicode="&#x15f;" horiz-adv-x="1050" 
d="M697 585q137 -47 199 -114q62 -68 62 -172q0 -131 -109 -220q-108 -88 -277 -96l-78 -122q179 -18 179 -155q0 -82 -65 -134q-66 -52 -167 -52q-96 0 -172 37l18 87q66 -32 151 -32q54 0 88 24q33 23 33 63q0 82 -137 87l-51 1l11 72l82 128q-145 17 -237 97t-102 197
h135q19 -84 95 -135q78 -52 190 -52q121 0 200 55q78 55 78 141q0 116 -171 175l-143 48q-248 83 -248 273q0 136 112 223q111 86 280 86q161 0 267 -79q105 -77 123 -205h-130q-15 77 -87 125q-73 47 -177 47q-110 0 -182 -53q-73 -53 -73 -132q0 -111 174 -170z" />
    <glyph glyph-name="Scaron" unicode="&#x160;" horiz-adv-x="1267" 
d="M279 392q19 -134 130 -215q112 -82 276 -82q165 0 266 79q102 80 102 209q0 182 -263 274l-136 48q-319 112 -319 365q0 174 141 289q140 114 353 114q202 0 342 -112q139 -112 155 -286h-137q-23 124 -124 199q-100 74 -245 74q-148 0 -244 -75q-97 -76 -97 -192
q0 -168 257 -260l132 -47q329 -118 329 -376q0 -190 -146 -309q-145 -119 -377 -119q-222 0 -367 115t-166 307h138zM649 1874h142l126 -208h12l214 208h161l-316 -297h-150z" />
    <glyph glyph-name="scaron" unicode="&#x161;" horiz-adv-x="1050" 
d="M631 1228l-205 332h143l142 -243h11l245 243h163l-346 -332h-153zM260 281q19 -84 95 -135q78 -52 190 -52q121 0 200 55q78 55 78 141q0 116 -171 175l-143 48q-248 83 -248 273q0 136 112 223q111 86 280 86q161 0 267 -79q105 -77 123 -205h-130q-15 77 -87 125
q-73 47 -177 47q-110 0 -182 -53q-73 -53 -73 -132q0 -111 174 -170l129 -43q137 -47 199 -114q62 -68 62 -172q0 -138 -119 -227q-119 -90 -300 -90q-173 0 -288 83t-126 216h135z" />
    <glyph glyph-name="uni0162" unicode="&#x162;" horiz-adv-x="1280" 
d="M1454 1443l-26 -124h-482l-281 -1319h-17l-89 -139q179 -18 179 -155q0 -82 -65 -134q-66 -52 -167 -52q-96 0 -172 37l18 87q66 -32 151 -32q54 0 88 24q33 23 33 63q0 82 -137 87l-51 1l11 72l90 141h-11l280 1319h-482l26 124h1104z" />
    <glyph glyph-name="uni0163" unicode="&#x163;" horiz-adv-x="724" 
d="M394 324q-11 -55 -11 -91q0 -123 149 -123q51 0 75 3l-24 -112q-42 -7 -96 -7q-35 0 -59 4l-88 -137q179 -18 179 -155q0 -82 -65 -134q-66 -52 -167 -52q-96 0 -172 37l18 87q66 -32 151 -32q54 0 88 24q33 23 33 63q0 82 -137 87l-51 1l11 72l108 169q-93 51 -93 168
q0 38 11 93l144 677h-173l24 111h173l57 276h134l-59 -276h257l-23 -111h-257z" />
    <glyph glyph-name="Tcaron" unicode="&#x164;" horiz-adv-x="1280" 
d="M680 1874h142l126 -208h12l214 208h161l-316 -297h-150zM526 0l280 1319h-482l26 124h1104l-26 -124h-482l-281 -1319h-139z" />
    <glyph glyph-name="tcaron" unicode="&#x165;" horiz-adv-x="724" 
d="M730 1233l94 444h130l-132 -444h-92zM311 45q-68 53 -68 151q0 38 11 93l144 677h-173l24 111h173l57 276h134l-59 -276h257l-23 -111h-257l-137 -642q-11 -55 -11 -91q0 -123 149 -123q51 0 75 3l-24 -112q-42 -7 -96 -7q-112 0 -176 51z" />
    <glyph glyph-name="Tbar" unicode="&#x166;" horiz-adv-x="1280" 
d="M946 1319l-113 -531h304l-23 -110h-305l-144 -678h-139l144 678h-300l24 110h299l113 531h-482l26 124h1104l-26 -124h-482z" />
    <glyph glyph-name="tbar" unicode="&#x167;" horiz-adv-x="705" 
d="M531 966l-67 -316h243l-24 -111h-243l-46 -215q-11 -55 -11 -91q0 -123 149 -123q51 0 75 3l-24 -112q-42 -7 -96 -7q-112 0 -176 51q-68 53 -68 151q0 38 11 93l53 250h-174l24 111h174l67 316h-173l24 111h173l57 276h134l-59 -276h257l-23 -111h-257z" />
    <glyph glyph-name="Utilde" unicode="&#x168;" horiz-adv-x="1499" 
d="M381 99q-128 120 -130 315q-1 60 13 132l189 897h140l-188 -890q-14 -66 -13 -132q3 -152 101 -236q98 -85 276 -85q175 0 300 102q127 105 165 285l204 956h140l-210 -981q-50 -233 -208 -359q-161 -129 -413 -129q-232 0 -366 125zM1049 1659q-80 81 -119 81
q-96 0 -123 -127h-110q18 107 85 170q64 61 151 61q85 0 165 -80q79 -81 118 -81q97 0 123 126h110q-19 -108 -84 -171q-64 -60 -150 -60t-166 81z" />
    <glyph glyph-name="utilde" unicode="&#x169;" horiz-adv-x="1210" 
d="M1002 0h-127l38 173h-12q-118 -191 -365 -191q-150 0 -246 91q-94 89 -94 225q0 64 14 129l137 650h134l-134 -629q-14 -68 -14 -118q0 -110 66 -170q65 -59 185 -59q139 0 243 92q102 90 131 230l140 654h133zM824 1309q-44 54 -54 64q-31 29 -65 29q-93 0 -122 -142
h-110q15 116 81 182q64 65 156 65q90 0 165 -93q43 -54 55 -65q31 -29 65 -29q93 0 121 142h110q-16 -117 -81 -183q-63 -63 -154 -63t-167 93z" />
    <glyph glyph-name="Umacron" unicode="&#x16a;" horiz-adv-x="1499" 
d="M381 99q-128 120 -130 315q-1 60 13 132l189 897h140l-188 -890q-14 -66 -13 -132q3 -152 101 -236q98 -85 276 -85q175 0 300 102q127 105 165 285l204 956h140l-210 -981q-50 -233 -208 -359q-161 -129 -413 -129q-232 0 -366 125zM730 1619l23 105h644l-22 -105h-645z
" />
    <glyph glyph-name="umacron" unicode="&#x16b;" horiz-adv-x="1210" 
d="M1002 0h-127l38 173h-12q-118 -191 -365 -191q-150 0 -246 91q-94 89 -94 225q0 64 14 129l137 650h134l-134 -629q-14 -68 -14 -118q0 -110 66 -170q65 -59 185 -59q139 0 243 92q102 90 131 230l140 654h133zM491 1292l22 106h663l-23 -106h-662z" />
    <glyph glyph-name="Ubreve" unicode="&#x16c;" horiz-adv-x="1499" 
d="M381 99q-128 120 -130 315q-1 60 13 132l189 897h140l-188 -890q-14 -66 -13 -132q3 -152 101 -236q98 -85 276 -85q175 0 300 102q127 105 165 285l204 956h140l-210 -981q-50 -233 -208 -359q-161 -129 -413 -129q-232 0 -366 125zM744 1851h116q-1 -5 -1 -15
q0 -69 56 -114t143 -45q86 0 145 47t74 127h119q-19 -125 -114 -200q-93 -74 -228 -74q-139 0 -225 72t-86 188q0 11 1 14z" />
    <glyph glyph-name="ubreve" unicode="&#x16d;" horiz-adv-x="1210" 
d="M1002 0h-127l38 173h-12q-118 -191 -365 -191q-150 0 -246 91q-94 89 -94 225q0 64 14 129l137 650h134l-134 -629q-14 -68 -14 -118q0 -110 66 -170q65 -59 185 -59q139 0 243 92q102 90 131 230l140 654h133zM638 1538q-2 -18 -2 -31q0 -77 54 -121q54 -45 146 -45
q98 0 158 52q61 51 73 145h120q-12 -134 -108 -216q-98 -82 -249 -82q-145 0 -229 74q-82 70 -82 185q0 11 2 39h117z" />
    <glyph glyph-name="Uring" unicode="&#x16e;" horiz-adv-x="1499" 
d="M936 1631q-62 61 -62 150q0 88 62 149t150 61q89 0 151 -61t62 -149q0 -89 -62 -150t-151 -61q-88 0 -150 61zM1175 1691q36 37 36 90t-36 89q-35 36 -89 36q-52 0 -88 -36t-36 -89t36 -90q36 -36 88 -36q53 0 89 36zM381 99q-128 120 -130 315q-1 60 13 132l189 897h140
l-188 -890q-14 -66 -13 -132q3 -152 101 -236q98 -85 276 -85q175 0 300 102q127 105 165 285l204 956h140l-210 -981q-50 -233 -208 -359q-161 -129 -413 -129q-232 0 -366 125z" />
    <glyph glyph-name="uring" unicode="&#x16f;" horiz-adv-x="1210" 
d="M1002 0h-127l38 173h-12q-118 -191 -365 -191q-150 0 -246 91q-94 89 -94 225q0 64 14 129l137 650h134l-134 -629q-14 -68 -14 -118q0 -110 66 -170q65 -59 185 -59q139 0 243 92q102 90 131 230l140 654h133zM703 1289q-62 61 -62 150q0 88 62 149t150 61q89 0 151 -61
t62 -149q0 -89 -62 -150t-151 -61q-88 0 -150 61zM942 1349q36 37 36 90t-36 89t-89 36t-88 -36q-36 -36 -36 -89t36 -90q36 -36 88 -36q53 0 89 36z" />
    <glyph glyph-name="Uhungarumlaut" unicode="&#x170;" horiz-adv-x="1499" 
d="M381 99q-128 120 -130 315q-1 60 13 132l189 897h140l-188 -890q-14 -66 -13 -132q3 -152 101 -236q98 -85 276 -85q175 0 300 102q127 105 165 285l204 956h140l-210 -981q-50 -233 -208 -359q-161 -129 -413 -129q-232 0 -366 125zM1508 1874h174l-389 -297h-157z
M1145 1874h174l-389 -297h-157z" />
    <glyph glyph-name="uhungarumlaut" unicode="&#x171;" horiz-adv-x="1210" 
d="M1234 1594h162l-341 -330h-141zM883 1594h161l-341 -330h-141zM1002 0h-127l38 173h-12q-118 -191 -365 -191q-150 0 -246 91q-94 89 -94 225q0 64 14 129l137 650h134l-134 -629q-14 -68 -14 -118q0 -110 66 -170q65 -59 185 -59q139 0 243 92q102 90 131 230l140 654
h133z" />
    <glyph glyph-name="Uogonek" unicode="&#x172;" horiz-adv-x="1499" 
d="M795 -372q-55 48 -55 133q0 107 114 204v14q-40 -9 -109 -9q-225 0 -360 120q-136 119 -136 320q0 66 13 132l191 901h139l-189 -894q-13 -56 -13 -132q0 -154 102 -238q100 -82 276 -82q175 0 300 104q126 104 164 283l205 959h140l-210 -985q-63 -293 -300 -417
q-92 -53 -147 -123q-54 -70 -54 -133q0 -104 123 -104q38 0 59 8l-21 -97q-28 -13 -82 -13q-95 0 -150 49z" />
    <glyph glyph-name="uogonek" unicode="&#x173;" horiz-adv-x="1210" 
d="M735 -373q-54 47 -54 126q0 154 197 261l35 159h-12q-118 -191 -365 -191q-149 0 -245 90q-95 89 -95 226q0 61 14 129l137 650h134l-134 -629q-14 -72 -14 -118q0 -109 65 -169q66 -60 186 -60q137 0 242 91q102 90 132 231l140 654h133l-227 -1064q-194 -109 -194 -231
q0 -45 29 -72q29 -26 78 -26q54 0 82 11l-21 -99q-41 -17 -100 -17q-89 0 -143 48z" />
    <glyph glyph-name="Wcircumflex" unicode="&#x174;" horiz-adv-x="1958" 
d="M1598 1577h-143l-126 208h-12l-214 -208h-160l315 297h151zM584 0h-133l-91 1443h126l69 -1230h9l609 1230h122l100 -1230h10l581 1230h141l-698 -1443h-133l-103 1206h-9z" />
    <glyph glyph-name="wcircumflex" unicode="&#x175;" horiz-adv-x="1567" 
d="M1340 1228h-143l-142 243h-12l-244 -243h-163l346 332h154zM1151 0h-139l-80 890h-12l-451 -890h-138l-78 1077h122l59 -908h12l451 908h139l71 -914h12l434 914h134z" />
    <glyph glyph-name="Ycircumflex" unicode="&#x176;" horiz-adv-x="1321" 
d="M549 0l133 624l-342 819h143l289 -685h12l568 685h159l-695 -837l-127 -606h-140zM1280 1577h-143l-126 208h-12l-214 -208h-160l315 297h151z" />
    <glyph glyph-name="ycircumflex" unicode="&#x177;" horiz-adv-x="1079" 
d="M67 -364l20 114q37 -11 85 -11q116 0 220 188l40 72l-179 1078h131l143 -913h12l515 913h145l-691 -1193q-86 -149 -165 -205q-72 -52 -179 -52q-43 0 -97 9zM1100 1228h-143l-142 243h-12l-244 -243h-163l346 332h154z" />
    <glyph glyph-name="Ydieresis" unicode="&#x178;" horiz-adv-x="1321" 
d="M549 0l133 624l-342 819h143l289 -685h12l568 685h159l-695 -837l-127 -606h-140zM718 1598q-30 29 -30 72t30 72q30 30 72 30q43 0 73 -30q30 -29 30 -72t-30 -72q-30 -30 -73 -30q-42 0 -72 30zM1082 1598q-30 29 -30 72t30 72q29 30 72 30q42 0 72 -30q30 -29 30 -72
t-30 -72q-30 -30 -72 -30q-43 0 -72 30z" />
    <glyph glyph-name="Zacute" unicode="&#x179;" horiz-adv-x="1328" 
d="M1249 1874h174l-389 -297h-157zM117 99l1111 1208l3 13h-826l26 123h1011l-21 -100l-1109 -1207l-2 -13h863l-26 -123h-1051z" />
    <glyph glyph-name="zacute" unicode="&#x17a;" horiz-adv-x="1082" 
d="M1006 1594h169l-340 -327h-149zM110 100l822 854l3 12h-639l24 111h816l-23 -101l-818 -853l-3 -12h640l-24 -111h-819z" />
    <glyph glyph-name="Zdotaccent" unicode="&#x17b;" horiz-adv-x="1328" 
d="M902 1607q-31 31 -31 74q0 44 31 74q31 31 74 31t73 -31q31 -31 31 -74t-31 -74q-30 -30 -73 -30q-44 0 -74 30zM117 99l1111 1208l3 13h-826l26 123h1011l-21 -100l-1109 -1207l-2 -13h863l-26 -123h-1051z" />
    <glyph glyph-name="zdotaccent" unicode="&#x17c;" horiz-adv-x="1082" 
d="M718 1313q-32 32 -32 77t32 77t77 32t78 -32q32 -32 32 -77t-32 -77q-33 -33 -78 -33t-77 33zM110 100l822 854l3 12h-639l24 111h816l-23 -101l-818 -853l-3 -12h640l-24 -111h-819z" />
    <glyph glyph-name="Zcaron" unicode="&#x17d;" horiz-adv-x="1328" 
d="M117 99l1111 1208l3 13h-826l26 123h1011l-21 -100l-1109 -1207l-2 -13h863l-26 -123h-1051zM697 1874h142l126 -208h12l214 208h161l-316 -297h-150z" />
    <glyph glyph-name="zcaron" unicode="&#x17e;" horiz-adv-x="1082" 
d="M694 1228l-205 332h143l142 -243h11l245 243h163l-346 -332h-153zM110 100l822 854l3 12h-639l24 111h816l-23 -101l-818 -853l-3 -12h640l-24 -111h-819z" />
    <glyph glyph-name="florin" unicode="&#x192;" horiz-adv-x="1321" 
d="M55 24l29 121q97 -41 193 -41q103 0 168 50q67 50 109 164l160 427h-364l23 111h381l104 275q126 338 431 338q111 0 206 -37l-27 -115q-82 32 -186 32q-209 0 -294 -228l-101 -265h393l-23 -111h-410l-164 -438q-63 -170 -163 -248q-100 -77 -254 -77q-81 0 -211 42z
" />
    <glyph glyph-name="Ohorn" unicode="&#x1a0;" horiz-adv-x="1624" 
d="M384 139q-161 169 -161 435q0 385 219 642t547 257q181 0 325 -92q145 -92 168 -92q134 0 167 156l32 156h122l-40 -191q-22 -107 -86 -164q-61 -54 -151 -54q-26 0 -57 11v-13q92 -136 92 -321q0 -387 -218 -643q-217 -256 -545 -256q-253 0 -414 169zM1297 1212
q-121 134 -318 134q-259 0 -436 -219q-176 -219 -176 -542q0 -220 121 -354t320 -134q261 0 436 217q174 217 174 544q0 220 -121 354z" />
    <glyph glyph-name="ohorn" unicode="&#x1a1;" horiz-adv-x="1358" 
d="M403 196q86 -95 230 -95q168 0 287 148q122 151 122 374q0 164 -83 259t-225 95q-186 0 -302 -155q-113 -150 -113 -380q0 -153 84 -246zM1030 183q-159 -201 -413 -201q-196 0 -317 124q-120 123 -120 322q0 282 153 470q159 197 413 197q141 0 257 -76q115 -77 152 -77
q120 0 154 158l32 153h121l-39 -189q-46 -218 -232 -218q-22 0 -49 9v-11q40 -84 40 -193q0 -278 -152 -468z" />
    <glyph glyph-name="Uhorn" unicode="&#x1af;" horiz-adv-x="1714" 
d="M1938 1621l-40 -188q-49 -231 -279 -231q-51 0 -89 18l-162 -758q-50 -233 -208 -359q-161 -129 -413 -129q-232 0 -366 125q-128 120 -130 315q-1 60 13 132l189 897h140l-188 -890q-14 -66 -13 -132q3 -152 101 -236q98 -85 276 -85q175 0 300 102q127 105 165 285
l204 956h140l-25 -118q29 -15 66 -15q132 0 166 158l32 153h121z" />
    <glyph glyph-name="uhorn" unicode="&#x1b0;" horiz-adv-x="1424" 
d="M1580 1238l-40 -188q-49 -231 -279 -231q-46 0 -82 15l-177 -834h-127l38 173h-12q-118 -191 -365 -191q-150 0 -246 91q-94 89 -94 225q0 64 14 129l137 650h134l-134 -629q-14 -68 -14 -118q0 -110 66 -170q65 -59 185 -59q139 0 243 92q102 90 131 230l140 654h133
l-29 -138q27 -12 59 -12q132 0 166 158l32 153h121z" />
    <glyph glyph-name="uni01C4" unicode="&#x1c4;" horiz-adv-x="2799" 
d="M862 1443q286 0 448 -163q160 -161 160 -444q0 -359 -223 -598q-222 -238 -555 -238h-548l305 1443h413zM308 122h390q272 0 452 201q180 202 180 506q0 230 -127 361q-128 131 -352 131h-288zM1588 99l1111 1208l3 13h-826l26 123h1011l-21 -100l-1109 -1207l-2 -13h863
l-26 -123h-1051zM2168 1874h142l126 -208h12l214 208h161l-316 -297h-150z" />
    <glyph glyph-name="uni01C5" unicode="&#x1c5;" horiz-adv-x="2553" 
d="M862 1443q286 0 448 -163q160 -161 160 -444q0 -359 -223 -598q-222 -238 -555 -238h-548l305 1443h413zM308 122h390q272 0 452 201q180 202 180 506q0 230 -127 361q-128 131 -352 131h-288zM2165 1228l-205 332h143l142 -243h11l245 243h163l-346 -332h-153zM1581 100
l822 854l3 12h-639l24 111h816l-23 -101l-818 -853l-3 -12h640l-24 -111h-819z" />
    <glyph glyph-name="uni01C6" unicode="&#x1c6;" horiz-adv-x="2337" 
d="M290 101q-113 122 -113 315q0 286 164 483q162 196 394 196q130 0 224 -72q95 -73 119 -189h12l142 672h134l-320 -1506h-127l39 185h-13q-63 -94 -163 -148q-101 -55 -214 -55q-167 0 -278 119zM918 262q124 158 124 385q0 151 -81 241q-81 89 -218 89q-178 0 -303 -156
q-126 -158 -126 -385q0 -150 81 -242q81 -93 213 -93q185 0 310 161zM1950 1228l-205 332h143l142 -243h11l245 243h163l-346 -332h-153zM1366 100l822 854l3 12h-639l24 111h816l-23 -101l-818 -853l-3 -12h640l-24 -111h-819z" />
    <glyph glyph-name="uni01C7" unicode="&#x1c7;" horiz-adv-x="2227" 
d="M1399 330v-6q1 -103 71 -164q68 -62 181 -62q235 0 298 290l224 1055h136l-231 -1090q-39 -183 -152 -282q-115 -101 -291 -101q-169 0 -275 100q-106 101 -98 253v7h137zM1002 0h-860l307 1443h140l-282 -1319h721z" />
    <glyph glyph-name="uni01C8" unicode="&#x1c8;" horiz-adv-x="1627" 
d="M1387 -103q-30 -144 -110 -210q-78 -64 -214 -64q-37 0 -76 3l25 117q30 -3 55 -3q83 0 127 40q45 40 65 134l247 1163h131zM1571 1346q-29 29 -29 69t29 68q28 29 68 29t69 -29q29 -28 29 -68t-29 -69q-28 -29 -69 -29q-40 0 -68 29zM1002 0h-860l307 1443h140
l-282 -1319h721z" />
    <glyph glyph-name="uni01C9" unicode="&#x1c9;" horiz-adv-x="977" 
d="M737 -103q-30 -144 -110 -210q-78 -64 -214 -64q-37 0 -76 3l25 117q30 -3 55 -3q83 0 127 40q45 40 65 134l247 1163h131zM921 1346q-29 29 -29 69t29 68q28 29 68 29t69 -29q29 -28 29 -68t-29 -69q-28 -29 -69 -29q-40 0 -68 29zM455 1506h134l-320 -1506h-134z" />
    <glyph glyph-name="uni01CA" unicode="&#x1ca;" horiz-adv-x="2582" 
d="M1754 330v-6q1 -103 71 -164q68 -62 181 -62q235 0 298 290l224 1055h136l-231 -1090q-39 -183 -152 -282q-115 -101 -291 -101q-169 0 -275 100q-106 101 -98 253v7h137zM142 0l307 1443h135l579 -1218h12l259 1218h138l-307 -1443h-133l-581 1220h-12l-259 -1220h-138z
" />
    <glyph glyph-name="uni01CB" unicode="&#x1cb;" horiz-adv-x="1983" 
d="M1742 -103q-30 -144 -110 -210q-78 -64 -214 -64q-37 0 -76 3l25 117q30 -3 55 -3q83 0 127 40q45 40 65 134l247 1163h131zM1926 1346q-29 29 -29 69t29 68q28 29 68 29t69 -29q29 -28 29 -68t-29 -69q-28 -29 -69 -29q-40 0 -68 29zM142 0l307 1443h135l579 -1218h12
l259 1218h138l-307 -1443h-133l-581 1220h-12l-259 -1220h-138z" />
    <glyph glyph-name="uni01CC" unicode="&#x1cc;" horiz-adv-x="1699" 
d="M1458 -103q-30 -144 -110 -210q-78 -64 -214 -64q-37 0 -76 3l25 117q30 -3 55 -3q83 0 127 40q45 40 65 134l247 1163h131zM1642 1346q-29 29 -29 69t29 68q28 29 68 29t69 -29q29 -28 29 -68t-29 -69q-28 -29 -69 -29q-40 0 -68 29zM354 1077h128l-39 -183h12
q131 201 360 201q153 0 251 -95q95 -93 95 -228q0 -58 -13 -119l-139 -653h-133l134 630q13 63 13 107q0 108 -70 173q-71 67 -190 67q-135 0 -237 -91q-98 -88 -127 -224l-141 -662h-133z" />
    <glyph glyph-name="uni01CD" unicode="&#x1cd;" horiz-adv-x="1363" 
d="M1044 443h-608l-254 -443h-149l851 1443h128l233 -1443h-134zM502 560h527l-110 702h-13zM720 1874h142l126 -208h12l214 208h161l-316 -297h-150z" />
    <glyph glyph-name="uni01CE" unicode="&#x1ce;" horiz-adv-x="1126" 
d="M740 178q106 80 132 202l32 149l-321 -17q-152 -8 -235 -68q-83 -59 -83 -158q0 -83 65 -136q66 -53 170 -53q135 0 240 81zM224 65q-94 83 -94 208q0 156 119 246q120 91 341 101l337 16l17 81q8 42 8 64q0 92 -67 144q-68 52 -188 52q-106 0 -181 -45t-100 -122h-139
q33 130 151 207q117 78 280 78q171 0 274 -81q103 -80 103 -216q0 -39 -10 -89l-150 -709h-128l35 165h-12q-57 -84 -153 -133q-97 -50 -206 -50q-142 0 -237 83zM684 1228l-205 332h143l142 -243h11l245 243h163l-346 -332h-153z" />
    <glyph glyph-name="uni01CF" unicode="&#x1cf;" horiz-adv-x="509" 
d="M142 0l307 1443h140l-307 -1443h-140zM292 1874h142l126 -208h12l214 208h161l-316 -297h-150z" />
    <glyph glyph-name="uni01D0" unicode="&#x1d0;" horiz-adv-x="489" 
d="M399 1228l-205 332h143l142 -243h11l245 243h163l-346 -332h-153zM369 1077h131l-229 -1077h-131z" />
    <glyph glyph-name="uni01D1" unicode="&#x1d1;" horiz-adv-x="1564" 
d="M756 1873h142l126 -208h12l214 208h161l-316 -297h-150zM384 139q-161 170 -161 435q0 385 219 642t547 257q252 0 412 -169t160 -435q0 -387 -218 -643q-217 -256 -545 -256q-253 0 -414 169zM1298 1212q-121 134 -319 134q-260 0 -436 -219t-176 -542q0 -220 121 -354
t320 -134q261 0 436 217q174 218 174 544q0 220 -120 354z" />
    <glyph glyph-name="uni01D2" unicode="&#x1d2;" horiz-adv-x="1216" 
d="M709 1228l-205 332h143l142 -243h11l245 243h163l-346 -332h-153zM403 196q86 -95 230 -95q168 0 287 148q122 151 122 374q0 164 -83 259t-225 95q-186 0 -302 -155q-113 -150 -113 -380q0 -153 84 -246zM300 106q-120 123 -120 322q0 282 153 470q159 197 413 197
q196 0 316 -123t120 -321q0 -278 -152 -468q-159 -201 -413 -201q-196 0 -317 124z" />
    <glyph glyph-name="uni01D3" unicode="&#x1d3;" horiz-adv-x="1499" 
d="M788 1874h142l126 -208h12l214 208h161l-316 -297h-150zM381 99q-128 120 -130 315q-1 60 13 132l189 897h140l-188 -890q-14 -66 -13 -132q3 -152 101 -236q98 -85 276 -85q175 0 300 102q127 105 165 285l204 956h140l-210 -981q-50 -233 -208 -359
q-161 -129 -413 -129q-232 0 -366 125z" />
    <glyph glyph-name="uni01D4" unicode="&#x1d4;" horiz-adv-x="1210" 
d="M742 1228l-205 332h143l142 -243h11l245 243h163l-346 -332h-153zM1002 0h-127l38 173h-12q-118 -191 -365 -191q-150 0 -246 91q-94 89 -94 225q0 64 14 129l137 650h134l-134 -629q-14 -68 -14 -118q0 -110 66 -170q65 -59 185 -59q139 0 243 92q102 90 131 230
l140 654h133z" />
    <glyph glyph-name="uni01D5" unicode="&#x1d5;" horiz-adv-x="1499" 
d="M381 99q-128 120 -130 315q-1 60 13 132l189 897h140l-188 -890q-14 -66 -13 -132q3 -152 101 -236q98 -85 276 -85q175 0 300 102q127 105 165 285l204 956h140l-210 -981q-50 -233 -208 -359q-161 -129 -413 -129q-232 0 -366 125zM815 2016h644l-22 -101h-644z
M817 1609q-30 29 -30 70t30 70q29 29 70 29q42 0 70 -29q29 -29 29 -70t-29 -70q-28 -29 -70 -29q-41 0 -70 29zM1180 1609q-29 29 -29 70t29 70t70 29q42 0 71 -29t29 -70t-29 -70t-71 -29q-41 0 -70 29z" />
    <glyph glyph-name="uni01D6" unicode="&#x1d6;" horiz-adv-x="1210" 
d="M1002 0h-127l38 173h-12q-118 -191 -365 -191q-150 0 -246 91q-94 89 -94 225q0 64 14 129l137 650h134l-134 -629q-14 -68 -14 -118q0 -110 66 -170q65 -59 185 -59q139 0 243 92q102 90 131 230l140 654h133zM579 1269q-29 29 -29 70q0 42 29 71q29 28 71 28
q41 0 70 -28q29 -29 29 -71q0 -41 -29 -70t-70 -29t-71 29zM943 1269q-29 29 -29 70q0 42 29 71q29 28 71 28q41 0 70 -28q29 -29 29 -71q0 -41 -29 -70t-70 -29q-42 0 -71 29zM559 1614l22 106h663l-23 -106h-662z" />
    <glyph glyph-name="uni01D7" unicode="&#x1d7;" horiz-adv-x="1499" 
d="M1267 2056h175l-310 -217h-137zM802 1598q-30 29 -30 72t30 72q30 30 72 30q43 0 73 -30q30 -29 30 -72t-30 -72q-30 -30 -73 -30q-42 0 -72 30zM1166 1598q-30 29 -30 72t30 72q30 30 72 30q43 0 72 -30q30 -29 30 -72t-30 -72q-29 -30 -72 -30q-42 0 -72 30zM381 99
q-128 120 -130 315q-1 60 13 132l189 897h140l-188 -890q-14 -66 -13 -132q3 -152 101 -236q98 -85 276 -85q175 0 300 102q127 105 165 285l204 956h140l-210 -981q-50 -233 -208 -359q-161 -129 -413 -129q-232 0 -366 125z" />
    <glyph glyph-name="uni01D8" unicode="&#x1d8;" horiz-adv-x="1210" 
d="M1054 1850h155l-292 -296h-133zM577 1258q-30 29 -30 72t30 72q30 30 72 30q43 0 73 -30q30 -29 30 -72t-30 -72q-30 -30 -73 -30q-42 0 -72 30zM941 1258q-30 29 -30 72t30 72q29 30 72 30q42 0 72 -30q30 -29 30 -72t-30 -72q-30 -30 -72 -30q-43 0 -72 30zM1002 0
h-127l38 173h-12q-118 -191 -365 -191q-150 0 -246 91q-94 89 -94 225q0 64 14 129l137 650h134l-134 -629q-14 -68 -14 -118q0 -110 66 -170q65 -59 185 -59q139 0 243 92q102 90 131 230l140 654h133z" />
    <glyph glyph-name="uni01D9" unicode="&#x1d9;" horiz-adv-x="1499" 
d="M814 1609q-29 29 -29 70t29 70t70 29q42 0 70 -29q29 -29 29 -70t-29 -70q-28 -29 -70 -29q-41 0 -70 29zM1178 1609q-30 29 -30 70t30 70q29 29 70 29q42 0 70 -29q29 -29 29 -70t-29 -70q-28 -29 -70 -29q-41 0 -70 29zM794 2056h164l150 -146h12l212 146h181
l-331 -224h-151zM381 99q-128 120 -130 315q-1 60 13 132l189 897h140l-188 -890q-14 -66 -13 -132q3 -152 101 -236q98 -85 276 -85q175 0 300 102q127 105 165 285l204 956h140l-210 -981q-50 -233 -208 -359q-161 -129 -413 -129q-232 0 -366 125z" />
    <glyph glyph-name="uni01DA" unicode="&#x1da;" horiz-adv-x="1210" 
d="M577 1257q-29 29 -29 70q0 42 29 71t70 29t71 -29q29 -29 29 -71q0 -41 -29 -70q-30 -29 -71 -29t-70 29zM941 1257q-29 29 -29 70q0 42 29 71t70 29t70 -29t29 -71q0 -41 -29 -70t-70 -29t-70 29zM573 1854h142l137 -217h12l228 217h163l-329 -306h-154zM1002 0h-127
l38 173h-12q-118 -191 -365 -191q-150 0 -246 91q-94 89 -94 225q0 64 14 129l137 650h134l-134 -629q-14 -68 -14 -118q0 -110 66 -170q65 -59 185 -59q139 0 243 92q102 90 131 230l140 654h133z" />
    <glyph glyph-name="uni01DB" unicode="&#x1db;" horiz-adv-x="1499" 
d="M1021 1839l-221 217h174l185 -217h-138zM818 1598q-30 29 -30 72t30 72q30 30 72 30q43 0 73 -30q30 -29 30 -72t-30 -72q-30 -30 -73 -30q-42 0 -72 30zM1182 1598q-30 29 -30 72t30 72q30 30 72 30q43 0 72 -30q30 -29 30 -72t-30 -72q-29 -30 -72 -30q-42 0 -72 30z
M381 99q-128 120 -130 315q-1 60 13 132l189 897h140l-188 -890q-14 -66 -13 -132q3 -152 101 -236q98 -85 276 -85q175 0 300 102q127 105 165 285l204 956h140l-210 -981q-50 -233 -208 -359q-161 -129 -413 -129q-232 0 -366 125z" />
    <glyph glyph-name="uni01DC" unicode="&#x1dc;" horiz-adv-x="1210" 
d="M786 1554l-167 296h153l144 -296h-130zM576 1258q-30 29 -30 72t30 72q30 30 72 30q43 0 73 -30q30 -29 30 -72t-30 -72q-30 -30 -73 -30q-42 0 -72 30zM940 1258q-30 29 -30 72t30 72q29 30 72 30q42 0 72 -30q30 -29 30 -72t-30 -72q-30 -30 -72 -30q-43 0 -72 30z
M1002 0h-127l38 173h-12q-118 -191 -365 -191q-150 0 -246 91q-94 89 -94 225q0 64 14 129l137 650h134l-134 -629q-14 -68 -14 -118q0 -110 66 -170q65 -59 185 -59q139 0 243 92q102 90 131 230l140 654h133z" />
    <glyph glyph-name="uni01DE" unicode="&#x1de;" horiz-adv-x="1363" 
d="M1044 443h-608l-254 -443h-149l851 1443h128l233 -1443h-134zM502 560h527l-110 702h-13zM747 2016h644l-22 -101h-644zM748 1609q-29 29 -29 70t29 70q30 29 71 29t70 -29t29 -70t-29 -70t-70 -29t-71 29zM1112 1609q-29 29 -29 70t29 70t70 29t71 -29q29 -29 29 -70
t-29 -70q-30 -29 -71 -29t-70 29z" />
    <glyph glyph-name="uni01DF" unicode="&#x1df;" horiz-adv-x="1126" 
d="M740 178q106 80 132 202l32 149l-321 -17q-152 -8 -235 -68q-83 -59 -83 -158q0 -83 65 -136q66 -53 170 -53q135 0 240 81zM224 65q-94 83 -94 208q0 156 119 246q120 91 341 101l337 16l17 81q8 42 8 64q0 92 -67 144q-68 52 -188 52q-106 0 -181 -45t-100 -122h-139
q33 130 151 207q117 78 280 78q171 0 274 -81q103 -80 103 -216q0 -39 -10 -89l-150 -709h-128l35 165h-12q-57 -84 -153 -133q-97 -50 -206 -50q-142 0 -237 83zM521 1269q-29 29 -29 70q0 42 29 71q29 28 71 28q41 0 70 -28q29 -29 29 -71q0 -41 -29 -70t-70 -29t-71 29z
M885 1269q-29 29 -29 70q0 42 29 71q29 28 71 28q41 0 70 -28q29 -29 29 -71q0 -41 -29 -70t-70 -29q-42 0 -71 29zM501 1614l22 106h663l-23 -106h-662z" />
    <glyph glyph-name="uni01E0" unicode="&#x1e0;" horiz-adv-x="1363" 
d="M1044 443h-608l-254 -443h-149l851 1443h128l233 -1443h-134zM502 560h527l-110 702h-13zM725 1915l22 101h644l-22 -101h-644zM924 1609q-30 30 -30 73t30 73q31 31 74 31t74 -31q30 -30 30 -73t-30 -73q-31 -31 -74 -31t-74 31z" />
    <glyph glyph-name="uni01E1" unicode="&#x1e1;" horiz-adv-x="1126" 
d="M740 178q106 80 132 202l32 149l-321 -17q-152 -8 -235 -68q-83 -59 -83 -158q0 -83 65 -136q66 -53 170 -53q135 0 240 81zM224 65q-94 83 -94 208q0 156 119 246q120 91 341 101l337 16l17 81q8 42 8 64q0 92 -67 144q-68 52 -188 52q-106 0 -181 -45t-100 -122h-139
q33 130 151 207q117 78 280 78q171 0 274 -81q103 -80 103 -216q0 -39 -10 -89l-150 -709h-128l35 165h-12q-57 -84 -153 -133q-97 -50 -206 -50q-142 0 -237 83zM697 1258q-30 30 -30 73t30 73q29 30 72 30q44 0 74 -30t30 -73t-30 -73t-74 -30q-43 0 -72 30zM495 1585
l22 106h663l-23 -106h-662z" />
    <glyph glyph-name="uni01E2" unicode="&#x1e2;" horiz-adv-x="1955" 
d="M1086 1327l-528 -766h526l164 766h-162zM1060 443h-581l-303 -443h-144l984 1443h1068l-27 -124h-675l-111 -526h638l-26 -122h-639l-116 -547h675l-26 -124h-812zM1158 1619l23 105h644l-22 -105h-645z" />
    <glyph glyph-name="uni01E3" unicode="&#x1e3;" horiz-adv-x="1904" 
d="M1075 55q-110 74 -147 198h-12q-56 -116 -175 -192q-125 -79 -266 -79q-152 0 -249 83q-96 82 -96 208q0 155 118 243t341 98l336 17l19 86q8 42 8 64q0 92 -67 144q-68 52 -188 52q-106 0 -181 -45t-100 -122h-139q33 130 151 207q117 78 280 78q133 0 224 -54t122 -152
h12q148 206 393 206q172 0 286 -115q119 -119 119 -313q0 -81 -13 -151h-812q-5 -48 -5 -83q0 -162 91 -251q83 -80 214 -80q226 0 309 162h140q-39 -126 -160 -202q-127 -80 -306 -80q-140 0 -247 73zM1725 623q3 18 3 58q0 127 -75 211q-78 87 -206 87q-137 0 -243 -98
q-104 -97 -146 -258h667zM740 178q106 80 132 202l31 143l-321 -16q-153 -8 -235 -65q-82 -58 -82 -156q0 -83 65 -136q66 -53 170 -53q134 0 240 81zM813 1292l22 106h663l-23 -106h-662z" />
    <glyph glyph-name="Gcaron" unicode="&#x1e6;" horiz-adv-x="1506" 
d="M736 1874h142l126 -208h12l214 208h161l-316 -297h-150zM1446 529q-56 -270 -225 -414q-169 -145 -427 -145t-413 165q-156 166 -156 441q0 387 213 642t535 255q224 0 375 -124q150 -124 160 -314q1 -7 1 -28h-138q-8 150 -119 244q-113 95 -289 95q-252 0 -424 -218
t-172 -538q0 -230 119 -362q119 -131 326 -131q186 0 320 115q135 115 172 307l16 81h-434l26 121h573z" />
    <glyph glyph-name="gcaron" unicode="&#x1e7;" horiz-adv-x="1247" 
d="M728 1228l-205 332h143l142 -243h11l245 243h163l-346 -332h-153zM231 -319q-118 82 -130 202h139q15 -75 92 -122q82 -50 205 -50q146 0 241 73q92 71 122 201l50 225h-12q-123 -199 -363 -199q-171 0 -281 119q-112 120 -112 311q0 281 156 468q156 186 387 186
q129 0 227 -73q97 -72 123 -187h12l50 233l127 -1l-238 -1107q-36 -171 -167 -267q-132 -96 -334 -96q-174 0 -294 84zM916 277q118 148 118 372q0 152 -83 241q-81 87 -218 87q-178 0 -295 -146q-119 -147 -119 -371q0 -156 79 -244q79 -89 216 -89q182 0 302 150z" />
    <glyph glyph-name="uni01E8" unicode="&#x1e8;" horiz-adv-x="1311" 
d="M142 0l307 1443h136l-158 -743h12l833 743h180l-706 -631l458 -812h-159l-407 728l-250 -221l-109 -507h-137zM655 1874h142l126 -208h12l214 208h161l-316 -297h-150z" />
    <glyph glyph-name="uni01E9" unicode="&#x1e9;" horiz-adv-x="1092" 
d="M1022 1077h177l-583 -464l378 -613h-154l-330 539l-152 -112l-90 -427h-133l320 1506h133l-194 -912h12zM257 1937h142l126 -208h12l214 208h161l-316 -297h-150z" />
    <glyph glyph-name="uni01EA" unicode="&#x1ea;" horiz-adv-x="1564" 
d="M835 -372q-54 48 -54 133q0 114 112 203v14q-50 -8 -95 -8q-253 0 -414 169q-161 170 -161 435q0 385 219 642t547 257q252 0 412 -169t160 -435q0 -530 -419 -816q-235 -155 -235 -268q0 -104 122 -104q38 0 59 8l-20 -97q-29 -13 -83 -13q-95 0 -150 49zM1298 1212
q-121 134 -319 134q-260 0 -436 -219t-176 -542q0 -220 121 -354t320 -134q261 0 436 217q174 218 174 544q0 220 -120 354z" />
    <glyph glyph-name="uni01EB" unicode="&#x1eb;" horiz-adv-x="1217" 
d="M599 -366q-55 48 -55 132q0 120 118 209v12q-21 -5 -45 -5q-196 0 -316 123q-121 123 -121 323q0 290 160 479q159 188 406 188q195 0 316 -123q120 -122 120 -321q0 -196 -83 -358q-82 -162 -225 -245q-92 -54 -148 -124q-55 -71 -55 -134q0 -103 125 -103q41 0 59 7
l-21 -96q-28 -13 -83 -13q-97 0 -152 49zM405 194q86 -93 228 -93q171 0 290 152t119 370q0 164 -82 259q-83 95 -226 95q-182 0 -298 -150q-117 -150 -117 -385q0 -155 86 -248z" />
    <glyph glyph-name="uni01EC" unicode="&#x1ec;" horiz-adv-x="1561" 
d="M835 -372q-54 48 -54 133q0 114 112 203v14q-50 -8 -95 -8q-253 0 -414 169q-161 170 -161 435q0 385 219 642t547 257q252 0 412 -169t160 -435q0 -530 -419 -816q-235 -155 -235 -268q0 -104 122 -104q38 0 59 8l-20 -97q-29 -13 -83 -13q-95 0 -150 49zM1298 1212
q-121 134 -319 134q-260 0 -436 -219t-176 -542q0 -220 121 -354t320 -134q261 0 436 217q174 218 174 544q0 220 -120 354zM699 1618l23 105h644l-22 -105h-645z" />
    <glyph glyph-name="uni01ED" unicode="&#x1ed;" horiz-adv-x="1217" 
d="M458 1292l22 106h663l-23 -106h-662zM599 -366q-55 48 -55 132q0 120 118 209v12q-21 -5 -45 -5q-196 0 -316 123q-121 123 -121 323q0 290 160 479q159 188 406 188q195 0 316 -123q120 -122 120 -321q0 -196 -83 -358q-82 -162 -225 -245q-92 -54 -148 -124
q-55 -71 -55 -134q0 -103 125 -103q41 0 59 7l-21 -96q-28 -13 -83 -13q-97 0 -152 49zM405 194q86 -93 228 -93q171 0 290 152t119 370q0 164 -82 259q-83 95 -226 95q-182 0 -298 -150q-117 -150 -117 -385q0 -155 86 -248z" />
    <glyph glyph-name="uni01F1" unicode="&#x1f1;" horiz-adv-x="2799" 
d="M1588 99l1111 1208l3 13h-826l26 123h1011l-21 -100l-1109 -1207l-2 -13h863l-26 -123h-1051zM862 1443q286 0 448 -163q160 -161 160 -444q0 -359 -223 -598q-222 -238 -555 -238h-548l305 1443h413zM308 122h390q272 0 452 201q180 202 180 506q0 230 -127 361
q-128 131 -352 131h-288z" />
    <glyph glyph-name="uni01F2" unicode="&#x1f2;" horiz-adv-x="2553" 
d="M1581 100l822 854l3 12h-639l24 111h816l-23 -101l-818 -853l-3 -12h640l-24 -111h-819zM862 1443q286 0 448 -163q160 -161 160 -444q0 -359 -223 -598q-222 -238 -555 -238h-548l305 1443h413zM308 122h390q272 0 452 201q180 202 180 506q0 230 -127 361
q-128 131 -352 131h-288z" />
    <glyph glyph-name="uni01F3" unicode="&#x1f3;" horiz-adv-x="2337" 
d="M1366 100l822 854l3 12h-639l24 111h816l-23 -101l-818 -853l-3 -12h640l-24 -111h-819zM290 101q-113 122 -113 315q0 286 164 483q162 196 394 196q130 0 224 -72q95 -73 119 -189h12l142 672h134l-320 -1506h-127l39 185h-13q-63 -94 -163 -148q-101 -55 -214 -55
q-167 0 -278 119zM918 262q124 158 124 385q0 151 -81 241q-81 89 -218 89q-178 0 -303 -156q-126 -158 -126 -385q0 -150 81 -242q81 -93 213 -93q185 0 310 161z" />
    <glyph glyph-name="uni01F4" unicode="&#x1f4;" horiz-adv-x="1506" 
d="M1288 1874h174l-389 -297h-157zM1446 529q-56 -270 -225 -414q-169 -145 -427 -145t-413 165q-156 166 -156 441q0 387 213 642t535 255q224 0 375 -124q150 -124 160 -314q1 -7 1 -28h-138q-8 150 -119 244q-113 95 -289 95q-252 0 -424 -218t-172 -538q0 -230 119 -362
q119 -131 326 -131q186 0 320 115q135 115 172 307l16 81h-434l26 121h573z" />
    <glyph glyph-name="uni01F5" unicode="&#x1f5;" horiz-adv-x="1247" 
d="M1040 1594h169l-340 -327h-149zM231 -319q-118 82 -130 202h139q15 -75 92 -122q82 -50 205 -50q146 0 241 73q92 71 122 201l50 225h-12q-123 -199 -363 -199q-171 0 -281 119q-112 120 -112 311q0 281 156 468q156 186 387 186q129 0 227 -73q97 -72 123 -187h12
l50 233l127 -1l-238 -1107q-36 -171 -167 -267q-132 -96 -334 -96q-174 0 -294 84zM916 277q118 148 118 372q0 152 -83 241q-81 87 -218 87q-178 0 -295 -146q-119 -147 -119 -371q0 -156 79 -244q79 -89 216 -89q182 0 302 150z" />
    <glyph glyph-name="uni01F8" unicode="&#x1f8;" horiz-adv-x="1492" 
d="M1106 1577h-144l-200 297h160zM142 0l307 1443h135l579 -1218h12l259 1218h138l-307 -1443h-133l-581 1220h-12l-259 -1220h-138z" />
    <glyph glyph-name="uni01F9" unicode="&#x1f9;" horiz-adv-x="1210" 
d="M743 1267l-199 327h163l180 -327h-144zM354 1077h128l-39 -183h12q131 201 360 201q153 0 251 -95q95 -93 95 -228q0 -58 -13 -119l-139 -653h-133l134 630q13 63 13 107q0 108 -70 173q-71 67 -190 67q-135 0 -237 -91q-98 -88 -127 -224l-141 -662h-133z" />
    <glyph glyph-name="Aringacute" unicode="&#x1fa;" horiz-adv-x="1363" 
d="M1044 443h-608l-254 -443h-149l851 1443h128l233 -1443h-134zM502 560h527l-110 702h-13zM931 1647q31 -31 75 -31q45 0 76 31q30 31 30 76t-30 76q-31 30 -76 30q-44 0 -75 -30q-30 -31 -30 -76t30 -76zM874 1592q-55 54 -55 131q0 78 55 132q54 53 132 53t133 -53
q55 -54 55 -132q0 -77 -55 -131t-133 -54q-77 0 -132 54zM1252 2138l-175 -169h-126l154 169h147z" />
    <glyph glyph-name="aringacute" unicode="&#x1fb;" horiz-adv-x="1126" 
d="M740 178q106 80 132 202l32 149l-321 -17q-152 -8 -235 -68q-83 -59 -83 -158q0 -83 65 -136q66 -53 170 -53q135 0 240 81zM224 65q-94 83 -94 208q0 156 119 246q120 91 341 101l337 16l17 81q8 42 8 64q0 92 -67 144q-68 52 -188 52q-106 0 -181 -45t-100 -122h-139
q33 130 151 207q117 78 280 78q171 0 274 -81q103 -80 103 -216q0 -39 -10 -89l-150 -709h-128l35 165h-12q-57 -84 -153 -133q-97 -50 -206 -50q-142 0 -237 83zM650 1264q-56 54 -56 133t56 133q55 55 135 55t135 -55q56 -54 56 -133t-56 -133q-55 -55 -135 -55t-135 55z
M708 1318q31 -31 77 -31q45 0 77 31q31 32 31 78q0 47 -31 78q-31 32 -77 32t-77 -32q-32 -32 -32 -78t32 -78zM928 1875h156l-233 -206h-131z" />
    <glyph glyph-name="AEacute" unicode="&#x1fc;" horiz-adv-x="1955" 
d="M1768 1874h174l-389 -297h-157zM1086 1327l-528 -766h526l164 766h-162zM1060 443h-581l-303 -443h-144l984 1443h1068l-27 -124h-675l-111 -526h638l-26 -122h-639l-116 -547h675l-26 -124h-812z" />
    <glyph glyph-name="aeacute" unicode="&#x1fd;" horiz-adv-x="1904" 
d="M1376 1594h169l-340 -327h-149zM1075 55q-110 74 -147 198h-12q-56 -116 -175 -192q-125 -79 -266 -79q-152 0 -249 83q-96 82 -96 208q0 155 118 243t341 98l336 17l19 86q8 42 8 64q0 92 -67 144q-68 52 -188 52q-106 0 -181 -45t-100 -122h-139q33 130 151 207
q117 78 280 78q133 0 224 -54t122 -152h12q148 206 393 206q172 0 286 -115q119 -119 119 -313q0 -81 -13 -151h-812q-5 -48 -5 -83q0 -162 91 -251q83 -80 214 -80q226 0 309 162h140q-39 -126 -160 -202q-127 -80 -306 -80q-140 0 -247 73zM1725 623q3 18 3 58
q0 127 -75 211q-78 87 -206 87q-137 0 -243 -98q-104 -97 -146 -258h667zM740 178q106 80 132 202l31 143l-321 -16q-153 -8 -235 -65q-82 -58 -82 -156q0 -83 65 -136q66 -53 170 -53q134 0 240 81z" />
    <glyph glyph-name="Oslashacute" unicode="&#x1fe;" horiz-adv-x="1530" 
d="M1093 1576h-157l372 297h174zM508 207q116 -110 296 -110q261 0 436 217q174 218 174 544q0 192 -93 319zM1257 1247q-113 99 -282 99q-260 0 -436 -219t-176 -542q0 -179 82 -303zM1413 1286q144 -166 144 -417q0 -387 -218 -643q-217 -256 -545 -256q-220 0 -374 132
l-144 -172l-78 59l154 183q-133 163 -133 402q0 385 219 642t547 257q211 0 360 -121l135 160l76 -55z" />
    <glyph glyph-name="oslashacute" unicode="&#x1ff;" horiz-adv-x="1194" 
d="M850 1267h-149l320 327h169zM414 187q86 -86 222 -86q168 0 287 148q122 151 122 374q0 118 -45 203zM949 896q-83 81 -212 81q-186 0 -302 -155q-113 -150 -113 -380q0 -102 40 -182zM1098 933q87 -115 87 -282q0 -278 -152 -468q-159 -201 -413 -201q-179 0 -298 105
l-132 -144l-70 55l143 156q-80 115 -80 274q0 282 153 470q159 197 413 197q175 0 291 -100l128 139l68 -51z" />
    <glyph glyph-name="uni0200" unicode="&#x200;" horiz-adv-x="1363" 
d="M1044 443h-608l-254 -443h-149l851 1443h128l233 -1443h-134zM502 560h527l-110 702h-13zM719 1577l-200 297h174l183 -297h-157zM1082 1577l-200 297h174l183 -297h-157z" />
    <glyph glyph-name="uni0201" unicode="&#x201;" horiz-adv-x="1126" 
d="M740 178q106 80 132 202l32 149l-321 -17q-152 -8 -235 -68q-83 -59 -83 -158q0 -83 65 -136q66 -53 170 -53q135 0 240 81zM224 65q-94 83 -94 208q0 156 119 246q120 91 341 101l337 16l17 81q8 42 8 64q0 92 -67 144q-68 52 -188 52q-106 0 -181 -45t-100 -122h-139
q33 130 151 207q117 78 280 78q171 0 274 -81q103 -80 103 -216q0 -39 -10 -89l-150 -709h-128l35 165h-12q-57 -84 -153 -133q-97 -50 -206 -50q-142 0 -237 83zM500 1267l-201 327h156l180 -327h-135zM842 1267l-201 327h156l181 -327h-136z" />
    <glyph glyph-name="uni0202" unicode="&#x202;" horiz-adv-x="1363" 
d="M1044 443h-608l-254 -443h-149l851 1443h128l233 -1443h-134zM502 560h527l-110 702h-13zM1333 1577h-115v14q0 70 -56 114q-56 45 -142 45t-146 -47q-58 -47 -74 -126h-119q20 124 115 199q94 75 228 75q138 0 224 -73q86 -72 86 -188q0 -10 -1 -13z" />
    <glyph glyph-name="uni0203" unicode="&#x203;" horiz-adv-x="1126" 
d="M740 178q106 80 132 202l32 149l-321 -17q-152 -8 -235 -68q-83 -59 -83 -158q0 -83 65 -136q66 -53 170 -53q135 0 240 81zM224 65q-94 83 -94 208q0 156 119 246q120 91 341 101l337 16l17 81q8 42 8 64q0 92 -67 144q-68 52 -188 52q-106 0 -181 -45t-100 -122h-139
q33 130 151 207q117 78 280 78q171 0 274 -81q103 -80 103 -216q0 -39 -10 -89l-150 -709h-128l35 165h-12q-57 -84 -153 -133q-97 -50 -206 -50q-142 0 -237 83zM986 1228q2 12 2 27q0 77 -54 123q-54 47 -146 47q-97 0 -158 -52q-60 -52 -73 -145h-120q12 133 108 215
q98 83 249 83q139 0 226 -76q85 -73 85 -187q0 -13 -2 -35h-117z" />
    <glyph glyph-name="uni0204" unicode="&#x204;" horiz-adv-x="1196" 
d="M656 1577l-200 297h174l183 -297h-157zM1019 1577l-200 297h174l183 -297h-157zM1015 0h-873l307 1443h873l-27 -124h-732l-112 -519h697l-26 -122h-696l-119 -554h734z" />
    <glyph glyph-name="uni0205" unicode="&#x205;" horiz-adv-x="1176" 
d="M304 98q-124 121 -124 326q0 294 159 483q158 188 402 188q172 0 286 -115q119 -120 119 -313q0 -87 -14 -154h-811q-5 -43 -5 -78q0 -162 91 -252q83 -81 214 -81q226 0 309 162h140q-38 -125 -158 -202q-126 -80 -300 -80q-189 0 -308 116zM1006 621q4 24 4 60
q0 127 -74 211q-79 87 -207 87q-138 0 -244 -99q-105 -98 -146 -259h667zM517 1267l-201 327h156l180 -327h-135zM859 1267l-201 327h156l181 -327h-136z" />
    <glyph glyph-name="uni0206" unicode="&#x206;" horiz-adv-x="1196" 
d="M1015 0h-873l307 1443h873l-27 -124h-732l-112 -519h697l-26 -122h-696l-119 -554h734zM1271 1577h-115v14q0 70 -56 114q-56 45 -142 45t-146 -47q-58 -47 -74 -126h-119q20 124 115 199q94 75 228 75q138 0 224 -73q86 -72 86 -188q0 -10 -1 -13z" />
    <glyph glyph-name="uni0207" unicode="&#x207;" horiz-adv-x="1176" 
d="M304 98q-124 121 -124 326q0 294 159 483q158 188 402 188q172 0 286 -115q119 -120 119 -313q0 -87 -14 -154h-811q-5 -43 -5 -78q0 -162 91 -252q83 -81 214 -81q226 0 309 162h140q-38 -125 -158 -202q-126 -80 -300 -80q-189 0 -308 116zM1006 621q4 24 4 60
q0 127 -74 211q-79 87 -207 87q-138 0 -244 -99q-105 -98 -146 -259h667zM1003 1228q2 12 2 27q0 77 -54 123q-54 47 -146 47q-97 0 -158 -52q-60 -52 -73 -145h-120q12 133 108 215q98 83 249 83q139 0 226 -76q85 -73 85 -187q0 -13 -2 -35h-117z" />
    <glyph glyph-name="uni0208" unicode="&#x208;" horiz-adv-x="509" 
d="M142 0l307 1443h140l-307 -1443h-140zM290 1577l-200 297h174l183 -297h-157zM653 1577l-200 297h174l183 -297h-157z" />
    <glyph glyph-name="uni0209" unicode="&#x209;" horiz-adv-x="489" 
d="M369 1077h131l-229 -1077h-131zM215 1267l-201 327h156l180 -327h-135zM557 1267l-201 327h156l181 -327h-136z" />
    <glyph glyph-name="uni020A" unicode="&#x20a;" horiz-adv-x="509" 
d="M142 0l307 1443h140l-307 -1443h-140zM905 1577h-115v14q0 70 -56 114q-56 45 -142 45t-146 -47q-58 -47 -74 -126h-119q20 124 115 199q94 75 228 75q138 0 224 -73q86 -72 86 -188q0 -10 -1 -13z" />
    <glyph glyph-name="uni020B" unicode="&#x20b;" horiz-adv-x="489" 
d="M369 1077h131l-229 -1077h-131zM701 1228q2 12 2 27q0 77 -54 123q-54 47 -146 47q-97 0 -158 -52q-60 -52 -73 -145h-120q12 133 108 215q98 83 249 83q139 0 226 -76q85 -73 85 -187q0 -13 -2 -35h-117z" />
    <glyph glyph-name="uni020C" unicode="&#x20c;" horiz-adv-x="1564" 
d="M754 1576l-200 297h174l183 -297h-157zM1117 1576l-200 297h174l183 -297h-157zM384 139q-161 170 -161 435q0 385 219 642t547 257q252 0 412 -169t160 -435q0 -387 -218 -643q-217 -256 -545 -256q-253 0 -414 169zM1298 1212q-121 134 -319 134q-260 0 -436 -219
t-176 -542q0 -220 121 -354t320 -134q261 0 436 217q174 218 174 544q0 220 -120 354z" />
    <glyph glyph-name="uni020D" unicode="&#x20d;" horiz-adv-x="1216" 
d="M403 196q86 -95 230 -95q168 0 287 148q122 151 122 374q0 164 -83 259t-225 95q-186 0 -302 -155q-113 -150 -113 -380q0 -153 84 -246zM300 106q-120 123 -120 322q0 282 153 470q159 197 413 197q196 0 316 -123t120 -321q0 -278 -152 -468q-159 -201 -413 -201
q-196 0 -317 124zM525 1267l-201 327h156l180 -327h-135zM867 1267l-201 327h156l181 -327h-136z" />
    <glyph glyph-name="uni020E" unicode="&#x20e;" horiz-adv-x="1564" 
d="M1369 1576h-115v14q0 70 -56 114q-56 45 -142 45t-146 -47q-58 -47 -74 -126h-119q20 124 115 199q94 75 228 75q138 0 224 -73q86 -72 86 -188q0 -10 -1 -13zM384 139q-161 170 -161 435q0 385 219 642t547 257q252 0 412 -169t160 -435q0 -387 -218 -643
q-217 -256 -545 -256q-253 0 -414 169zM1298 1212q-121 134 -319 134q-260 0 -436 -219t-176 -542q0 -220 121 -354t320 -134q261 0 436 217q174 218 174 544q0 220 -120 354z" />
    <glyph glyph-name="uni020F" unicode="&#x20f;" horiz-adv-x="1216" 
d="M403 196q86 -95 230 -95q168 0 287 148q122 151 122 374q0 164 -83 259t-225 95q-186 0 -302 -155q-113 -150 -113 -380q0 -153 84 -246zM300 106q-120 123 -120 322q0 282 153 470q159 197 413 197q196 0 316 -123t120 -321q0 -278 -152 -468q-159 -201 -413 -201
q-196 0 -317 124zM1011 1228q2 12 2 27q0 77 -54 123q-54 47 -146 47q-97 0 -158 -52q-60 -52 -73 -145h-120q12 133 108 215q98 83 249 83q139 0 226 -76q85 -73 85 -187q0 -13 -2 -35h-117z" />
    <glyph glyph-name="uni0210" unicode="&#x210;" horiz-adv-x="1311" 
d="M605 1577l-200 297h174l183 -297h-157zM968 1577l-200 297h174l183 -297h-157zM451 1443h474q194 0 308 -101q113 -100 113 -273t-110 -298t-293 -159l220 -612h-150l-206 591h-398l-127 -591h-140zM434 714h376q174 0 283 95t109 247q0 124 -75 194q-75 71 -207 71h-356
z" />
    <glyph glyph-name="uni0211" unicode="&#x211;" horiz-adv-x="756" 
d="M349 1077h127l-34 -157h13q108 175 300 175q91 0 135 -20l-28 -126q-51 19 -140 19q-127 0 -213 -81t-118 -232l-139 -655h-132zM372 1267l-201 327h156l180 -327h-135zM714 1267l-201 327h156l181 -327h-136z" />
    <glyph glyph-name="uni0212" unicode="&#x212;" horiz-adv-x="1311" 
d="M451 1443h474q194 0 308 -101q113 -100 113 -273t-110 -298t-293 -159l220 -612h-150l-206 591h-398l-127 -591h-140zM434 714h376q174 0 283 95t109 247q0 124 -75 194q-75 71 -207 71h-356zM1220 1577h-115v14q0 70 -56 114q-56 45 -142 45t-146 -47q-58 -47 -74 -126
h-119q20 124 115 199q94 75 228 75q138 0 224 -73q86 -72 86 -188q0 -10 -1 -13z" />
    <glyph glyph-name="uni0213" unicode="&#x213;" horiz-adv-x="756" 
d="M349 1077h127l-34 -157h13q108 175 300 175q91 0 135 -20l-28 -126q-51 19 -140 19q-127 0 -213 -81t-118 -232l-139 -655h-132zM858 1228q2 12 2 27q0 77 -54 123q-54 47 -146 47q-97 0 -158 -52q-60 -52 -73 -145h-120q12 133 108 215q98 83 249 83q139 0 226 -76
q85 -73 85 -187q0 -13 -2 -35h-117z" />
    <glyph glyph-name="uni0214" unicode="&#x214;" horiz-adv-x="1499" 
d="M786 1577l-200 297h174l183 -297h-157zM1149 1577l-200 297h174l183 -297h-157zM381 99q-128 120 -130 315q-1 60 13 132l189 897h140l-188 -890q-14 -66 -13 -132q3 -152 101 -236q98 -85 276 -85q175 0 300 102q127 105 165 285l204 956h140l-210 -981
q-50 -233 -208 -359q-161 -129 -413 -129q-232 0 -366 125z" />
    <glyph glyph-name="uni0215" unicode="&#x215;" horiz-adv-x="1210" 
d="M1002 0h-127l38 173h-12q-118 -191 -365 -191q-150 0 -246 91q-94 89 -94 225q0 64 14 129l137 650h134l-134 -629q-14 -68 -14 -118q0 -110 66 -170q65 -59 185 -59q139 0 243 92q102 90 131 230l140 654h133zM558 1267l-201 327h156l180 -327h-135zM900 1267l-201 327
h156l181 -327h-136z" />
    <glyph glyph-name="uni0216" unicode="&#x216;" horiz-adv-x="1499" 
d="M381 99q-128 120 -130 315q-1 60 13 132l189 897h140l-188 -890q-14 -66 -13 -132q3 -152 101 -236q98 -85 276 -85q175 0 300 102q127 105 165 285l204 956h140l-210 -981q-50 -233 -208 -359q-161 -129 -413 -129q-232 0 -366 125zM1401 1577h-115v14q0 70 -56 114
q-55 45 -142 45q-86 0 -145 -47t-75 -126h-119q21 124 115 199t228 75q139 0 225 -73q85 -72 85 -188q0 -10 -1 -13z" />
    <glyph glyph-name="uni0217" unicode="&#x217;" horiz-adv-x="1210" 
d="M1002 0h-127l38 173h-12q-118 -191 -365 -191q-150 0 -246 91q-94 89 -94 225q0 64 14 129l137 650h134l-134 -629q-14 -68 -14 -118q0 -110 66 -170q65 -59 185 -59q139 0 243 92q102 90 131 230l140 654h133zM1044 1228q2 12 2 27q0 77 -54 123q-54 47 -146 47
q-97 0 -158 -52q-60 -52 -73 -145h-120q12 133 108 215q98 83 249 83q139 0 226 -76q85 -73 85 -187q0 -13 -2 -35h-117z" />
    <glyph glyph-name="uni0218" unicode="&#x218;" horiz-adv-x="1267" 
d="M279 392q19 -134 130 -215q112 -82 276 -82q165 0 266 79q102 80 102 209q0 182 -263 274l-136 48q-319 112 -319 365q0 174 141 289q140 114 353 114q202 0 342 -112q139 -112 155 -286h-137q-23 124 -124 199q-100 74 -245 74q-148 0 -244 -75q-97 -76 -97 -192
q0 -168 257 -260l132 -47q329 -118 329 -376q0 -190 -146 -309q-145 -119 -377 -119q-222 0 -367 115t-166 307h138zM410 -506l179 364h141l-193 -364h-127z" />
    <glyph glyph-name="uni0219" unicode="&#x219;" horiz-adv-x="1050" 
d="M260 281q19 -84 95 -135q78 -52 190 -52q121 0 200 55q78 55 78 141q0 116 -171 175l-143 48q-248 83 -248 273q0 136 112 223q111 86 280 86q161 0 267 -79q105 -77 123 -205h-130q-15 77 -87 125q-73 47 -177 47q-110 0 -182 -53q-73 -53 -73 -132q0 -111 174 -170
l129 -43q137 -47 199 -114q62 -68 62 -172q0 -138 -119 -227q-119 -90 -300 -90q-173 0 -288 83t-126 216h135zM272 -506l179 364h141l-193 -364h-127z" />
    <glyph glyph-name="uni021A" unicode="&#x21a;" horiz-adv-x="1280" 
d="M344 -506l179 364h141l-193 -364h-127zM526 0l280 1319h-482l26 124h1104l-26 -124h-482l-281 -1319h-139z" />
    <glyph glyph-name="uni021B" unicode="&#x21b;" horiz-adv-x="729" 
d="M115 -506l179 364h141l-193 -364h-127zM311 45q-68 53 -68 151q0 38 11 93l144 677h-173l24 111h173l57 276h134l-59 -276h257l-23 -111h-257l-137 -642q-11 -55 -11 -91q0 -123 149 -123q51 0 75 3l-24 -112q-42 -7 -96 -7q-112 0 -176 51z" />
    <glyph glyph-name="uni021E" unicode="&#x21e;" horiz-adv-x="1489" 
d="M1122 0l144 677h-841l-144 -677h-139l307 1443h140l-137 -642h841l137 642h139l-307 -1443h-140zM782 1874h142l126 -208h12l214 208h161l-316 -297h-150z" />
    <glyph glyph-name="uni021F" unicode="&#x21f;" horiz-adv-x="1229" 
d="M457 1506h133l-131 -611h12q132 200 356 200q156 0 255 -96q95 -92 95 -230q0 -60 -12 -116l-139 -653h-133l134 630q12 59 12 104q0 110 -71 176q-72 67 -193 67q-137 0 -239 -91q-98 -88 -127 -224l-141 -662h-133zM295 1937h142l126 -208h12l214 208h161l-316 -297
h-150z" />
    <glyph glyph-name="uni0226" unicode="&#x226;" horiz-adv-x="1363" 
d="M1044 443h-608l-254 -443h-149l851 1443h128l233 -1443h-134zM502 560h527l-110 702h-13zM925 1607q-31 31 -31 74q0 44 31 74q31 31 74 31t73 -31q31 -31 31 -74t-31 -74q-30 -30 -73 -30q-44 0 -74 30z" />
    <glyph glyph-name="uni0227" unicode="&#x227;" horiz-adv-x="1126" 
d="M740 178q106 80 132 202l32 149l-321 -17q-152 -8 -235 -68q-83 -59 -83 -158q0 -83 65 -136q66 -53 170 -53q135 0 240 81zM224 65q-94 83 -94 208q0 156 119 246q120 91 341 101l337 16l17 81q8 42 8 64q0 92 -67 144q-68 52 -188 52q-106 0 -181 -45t-100 -122h-139
q33 130 151 207q117 78 280 78q171 0 274 -81q103 -80 103 -216q0 -39 -10 -89l-150 -709h-128l35 165h-12q-57 -84 -153 -133q-97 -50 -206 -50q-142 0 -237 83zM708 1313q-32 32 -32 77t32 77t77 32t78 -32q32 -32 32 -77t-32 -77q-33 -33 -78 -33t-77 33z" />
    <glyph glyph-name="uni0228" unicode="&#x228;" horiz-adv-x="1196" 
d="M563 1319l-112 -519h697l-26 -122h-696l-119 -554h734l-26 -124h-379l-89 -139q179 -18 179 -155q0 -82 -65 -134q-66 -52 -167 -52q-96 0 -172 37l18 87q66 -32 151 -32q54 0 88 24q33 23 33 63q0 82 -137 87l-51 1l11 72l90 141h-383l307 1443h873l-27 -124h-732z" />
    <glyph glyph-name="uni0229" unicode="&#x229;" horiz-adv-x="1175" 
d="M1006 621q4 24 4 60q0 127 -74 211q-79 87 -207 87q-138 0 -244 -99q-105 -98 -146 -259h667zM321 513q-5 -43 -5 -78q0 -162 91 -252q83 -81 214 -81q226 0 309 162h140q-36 -117 -144 -193q-112 -78 -270 -88l-78 -122q179 -18 179 -155q0 -82 -65 -134
q-66 -52 -167 -52q-96 0 -172 37l18 87q66 -32 151 -32q54 0 88 24q33 23 33 63q0 82 -137 87l-51 1l11 72l81 127q-164 20 -263 133q-104 119 -104 305q0 294 159 483q158 188 402 188q172 0 286 -115q119 -120 119 -313q0 -87 -14 -154h-811z" />
    <glyph glyph-name="uni022A" unicode="&#x22a;" horiz-adv-x="1564" 
d="M384 139q-161 170 -161 435q0 385 219 642t547 257q252 0 412 -169t160 -435q0 -387 -218 -643q-217 -256 -545 -256q-253 0 -414 169zM1298 1212q-121 134 -319 134q-260 0 -436 -219t-176 -542q0 -220 121 -354t320 -134q261 0 436 217q174 218 174 544q0 220 -120 354
zM783 2015h644l-22 -101h-644zM784 1608q-29 29 -29 70t29 70q30 29 71 29t70 -29t29 -70t-29 -70t-70 -29t-71 29zM1148 1608q-29 29 -29 70t29 70t70 29t71 -29q29 -29 29 -70t-29 -70q-30 -29 -71 -29t-70 29z" />
    <glyph glyph-name="uni022B" unicode="&#x22b;" horiz-adv-x="1216" 
d="M546 1269q-29 29 -29 70q0 42 29 71q29 28 71 28q41 0 70 -28q29 -29 29 -71q0 -41 -29 -70t-70 -29t-71 29zM910 1269q-29 29 -29 70q0 42 29 71q29 28 71 28q41 0 70 -28q29 -29 29 -71q0 -41 -29 -70t-70 -29q-42 0 -71 29zM526 1614l22 106h663l-23 -106h-662z
M403 196q86 -95 230 -95q168 0 287 148q122 151 122 374q0 164 -83 259t-225 95q-186 0 -302 -155q-113 -150 -113 -380q0 -153 84 -246zM300 106q-120 123 -120 322q0 282 153 470q159 197 413 197q196 0 316 -123t120 -321q0 -278 -152 -468q-159 -201 -413 -201
q-196 0 -317 124z" />
    <glyph glyph-name="uni022C" unicode="&#x22c;" horiz-adv-x="1564" 
d="M761 1914l22 101h644l-22 -101h-644zM1021 1640q-74 64 -112 64q-89 0 -120 -106h-110q17 97 84 155q64 56 146 56q70 0 145 -64q74 -64 111 -64q89 0 120 106h110q-17 -97 -84 -155q-64 -56 -146 -56q-70 0 -144 64zM384 139q-161 170 -161 435q0 385 219 642t547 257
q252 0 412 -169t160 -435q0 -387 -218 -643q-217 -256 -545 -256q-253 0 -414 169zM1298 1212q-121 134 -319 134q-260 0 -436 -219t-176 -542q0 -220 121 -354t320 -134q261 0 436 217q174 218 174 544q0 220 -120 354z" />
    <glyph glyph-name="uni022D" unicode="&#x22d;" horiz-adv-x="1216" 
d="M791 1309q-44 54 -54 64q-31 29 -65 29q-93 0 -122 -142h-110q15 116 81 182q64 65 156 65q90 0 165 -93q43 -54 55 -65q31 -29 65 -29q93 0 121 142h110q-16 -117 -81 -183q-63 -63 -154 -63t-167 93zM518 1618l22 106h663l-23 -106h-662zM403 196q86 -95 230 -95
q168 0 287 148q122 151 122 374q0 164 -83 259t-225 95q-186 0 -302 -155q-113 -150 -113 -380q0 -153 84 -246zM300 106q-120 123 -120 322q0 282 153 470q159 197 413 197q196 0 316 -123t120 -321q0 -278 -152 -468q-159 -201 -413 -201q-196 0 -317 124z" />
    <glyph glyph-name="uni022E" unicode="&#x22e;" horiz-adv-x="1564" 
d="M961 1606q-31 31 -31 74q0 44 31 74q31 31 74 31t73 -31q31 -31 31 -74t-31 -74q-30 -30 -73 -30q-44 0 -74 30zM384 139q-161 170 -161 435q0 385 219 642t547 257q252 0 412 -169t160 -435q0 -387 -218 -643q-217 -256 -545 -256q-253 0 -414 169zM1298 1212
q-121 134 -319 134q-260 0 -436 -219t-176 -542q0 -220 121 -354t320 -134q261 0 436 217q174 218 174 544q0 220 -120 354z" />
    <glyph glyph-name="uni022F" unicode="&#x22f;" horiz-adv-x="1216" 
d="M733 1313q-32 32 -32 77t32 77t77 32t78 -32q32 -32 32 -77t-32 -77q-33 -33 -78 -33t-77 33zM403 196q86 -95 230 -95q168 0 287 148q122 151 122 374q0 164 -83 259t-225 95q-186 0 -302 -155q-113 -150 -113 -380q0 -153 84 -246zM300 106q-120 123 -120 322
q0 282 153 470q159 197 413 197q196 0 316 -123t120 -321q0 -278 -152 -468q-159 -201 -413 -201q-196 0 -317 124z" />
    <glyph glyph-name="uni0230" unicode="&#x230;" horiz-adv-x="1564" 
d="M761 1914l22 101h644l-22 -101h-644zM960 1608q-30 30 -30 73t30 73q31 31 74 31t74 -31q30 -30 30 -73t-30 -73q-31 -31 -74 -31t-74 31zM384 139q-161 170 -161 435q0 385 219 642t547 257q252 0 412 -169t160 -435q0 -387 -218 -643q-217 -256 -545 -256
q-253 0 -414 169zM1298 1212q-121 134 -319 134q-260 0 -436 -219t-176 -542q0 -220 121 -354t320 -134q261 0 436 217q174 218 174 544q0 220 -120 354z" />
    <glyph glyph-name="uni0231" unicode="&#x231;" horiz-adv-x="1216" 
d="M403 196q86 -95 230 -95q168 0 287 148q122 151 122 374q0 164 -83 259t-225 95q-186 0 -302 -155q-113 -150 -113 -380q0 -153 84 -246zM300 106q-120 123 -120 322q0 282 153 470q159 197 413 197q196 0 316 -123t120 -321q0 -278 -152 -468q-159 -201 -413 -201
q-196 0 -317 124zM722 1258q-30 30 -30 73t30 73q29 30 72 30q44 0 74 -30t30 -73t-30 -73t-74 -30q-43 0 -72 30zM520 1585l22 106h663l-23 -106h-662z" />
    <glyph glyph-name="uni0232" unicode="&#x232;" horiz-adv-x="1321" 
d="M549 0l133 624l-342 819h143l289 -685h12l568 685h159l-695 -837l-127 -606h-140zM640 1619l23 105h644l-22 -105h-645z" />
    <glyph glyph-name="uni0233" unicode="&#x233;" horiz-adv-x="1079" 
d="M67 -364l20 114q37 -11 85 -11q116 0 220 188l40 72l-179 1078h131l143 -913h12l515 913h145l-691 -1193q-86 -149 -165 -205q-72 -52 -179 -52q-43 0 -97 9zM440 1292l22 106h663l-23 -106h-662z" />
    <glyph glyph-name="uni0237" unicode="&#x237;" horiz-adv-x="487" 
d="M249 -103q-30 -144 -110 -210q-78 -64 -214 -64q-37 0 -76 3l25 117q30 -3 55 -3q83 0 127 40q45 40 65 134l247 1163h131z" />
    <glyph glyph-name="circumflex" unicode="&#x2c6;" horiz-adv-x="1000" 
d="M1070 1228h-143l-142 243h-12l-244 -243h-163l346 332h154z" />
    <glyph glyph-name="caron" unicode="&#x2c7;" horiz-adv-x="1000" 
d="M642 1228l-205 332h143l142 -243h11l245 243h163l-346 -332h-153z" />
    <glyph glyph-name="breve" unicode="&#x2d8;" horiz-adv-x="1017" 
d="M585 1538q-2 -18 -2 -31q0 -77 54 -121q54 -45 146 -45q98 0 158 52q61 51 73 145h120q-12 -134 -108 -216q-98 -82 -249 -82q-145 0 -229 74q-82 70 -82 185q0 11 2 39h117z" />
    <glyph glyph-name="dotaccent" unicode="&#x2d9;" horiz-adv-x="1018" 
d="M685 1313q-32 32 -32 77t32 77t77 32t78 -32q32 -32 32 -77t-32 -77q-33 -33 -78 -33t-77 33z" />
    <glyph glyph-name="ring" unicode="&#x2da;" horiz-adv-x="1000" 
d="M613 1289q-62 61 -62 150q0 88 62 149t150 61q89 0 151 -61t62 -149q0 -89 -62 -150t-151 -61q-88 0 -150 61zM852 1349q36 37 36 90t-36 89t-89 36t-88 -36q-36 -36 -36 -89t36 -90q36 -36 88 -36q53 0 89 36z" />
    <glyph glyph-name="ogonek" unicode="&#x2db;" horiz-adv-x="919" 
d="M495 -408q-28 -13 -83 -13q-96 0 -151 49q-56 48 -56 132q0 81 60 162q61 80 163 135l94 -22q-190 -116 -190 -250q0 -104 125 -104q39 0 59 7z" />
    <glyph glyph-name="tilde" unicode="&#x2dc;" horiz-adv-x="1000" 
d="M738 1331q-44 54 -54 64q-31 29 -65 29q-93 0 -122 -142h-110q15 116 81 182q64 65 156 65q90 0 165 -93q43 -54 55 -65q31 -29 65 -29q93 0 121 142h110q-16 -117 -81 -183q-63 -63 -154 -63t-167 93z" />
    <glyph glyph-name="hungarumlaut" unicode="&#x2dd;" horiz-adv-x="1000" 
d="M1016 1594h162l-341 -330h-141zM665 1594h161l-341 -330h-141z" />
    <glyph glyph-name="gravecomb" unicode="&#x300;" 
d="M139 1267l-199 327h163l180 -327h-144z" />
    <glyph glyph-name="acutecomb" unicode="&#x301;" 
d="M464 1594h169l-340 -327h-149z" />
    <glyph glyph-name="uni0302" unicode="&#x302;" 
d="M562 1228h-143l-142 243h-12l-244 -243h-163l346 332h154z" />
    <glyph glyph-name="tildecomb" unicode="&#x303;" 
d="M235 1309q-44 54 -54 64q-31 29 -65 29q-93 0 -122 -142h-110q15 116 81 182q64 65 156 65q90 0 165 -93q43 -54 55 -65q31 -29 65 -29q93 0 121 142h110q-16 -117 -81 -183q-63 -63 -154 -63t-167 93z" />
    <glyph glyph-name="uni0304" unicode="&#x304;" 
d="M-98 1292l22 106h663l-23 -106h-662z" />
    <glyph glyph-name="uni0306" unicode="&#x306;" 
d="M49 1538q-2 -18 -2 -31q0 -77 54 -121q54 -45 146 -45q98 0 158 52q61 51 73 145h120q-12 -134 -108 -216q-98 -82 -249 -82q-145 0 -229 74q-82 70 -82 185q0 11 2 39h117z" />
    <glyph glyph-name="uni0307" unicode="&#x307;" 
d="M176 1313q-32 32 -32 77t32 77t77 32t78 -32q32 -32 32 -77t-32 -77q-33 -33 -78 -33t-77 33z" />
    <glyph glyph-name="uni0308" unicode="&#x308;" 
d="M-13 1258q-30 29 -30 72t30 72q30 30 72 30q43 0 73 -30q30 -29 30 -72t-30 -72q-30 -30 -73 -30q-42 0 -72 30zM351 1258q-30 29 -30 72t30 72q29 30 72 30q42 0 72 -30q30 -29 30 -72t-30 -72q-30 -30 -72 -30q-43 0 -72 30z" />
    <glyph glyph-name="hookabovecomb" unicode="&#x309;" 
d="M137 1548q38 15 98 15q91 0 145 -42t54 -114q0 -73 -52 -128q-53 -55 -146 -81l-42 83q123 31 123 112q0 35 -28 56q-28 20 -75 20q-51 0 -97 -14z" />
    <glyph glyph-name="uni030A" unicode="&#x30a;" 
d="M113 1289q-62 61 -62 150q0 88 62 149t150 61q89 0 151 -61t62 -149q0 -89 -62 -150t-151 -61q-88 0 -150 61zM352 1349q36 37 36 90t-36 89t-89 36t-88 -36q-36 -36 -36 -89t36 -90q36 -36 88 -36q53 0 89 36z" />
    <glyph glyph-name="uni030B" unicode="&#x30b;" 
d="M645 1594h162l-341 -330h-141zM294 1594h161l-341 -330h-141z" />
    <glyph glyph-name="uni030C" unicode="&#x30c;" 
d="M153 1228l-205 332h143l142 -243h11l245 243h163l-346 -332h-153z" />
    <glyph glyph-name="uni030F" unicode="&#x30f;" 
d="M-31 1267l-201 327h156l180 -327h-135zM311 1267l-201 327h156l181 -327h-136z" />
    <glyph glyph-name="uni0311" unicode="&#x311;" 
d="M455 1228q2 12 2 27q0 77 -54 123q-54 47 -146 47q-97 0 -158 -52q-60 -52 -73 -145h-120q12 133 108 215q98 83 249 83q139 0 226 -76q85 -73 85 -187q0 -13 -2 -35h-117z" />
    <glyph glyph-name="uni031B" unicode="&#x31b;" 
d="M17 1104q21 -30 84 -30q132 0 166 158l32 153h121l-40 -188q-49 -231 -279 -231q-75 0 -107 30z" />
    <glyph glyph-name="dotbelowcomb" unicode="&#x323;" 
d="M-170 -333q-31 31 -31 74t31 73q30 31 73 31t74 -31q31 -30 31 -73t-31 -74q-30 -31 -74 -31q-43 0 -73 31z" />
    <glyph glyph-name="uni0324" unicode="&#x324;" 
d="M-357 -362q-30 30 -30 72q0 43 30 72q30 30 72 30q43 0 72 -30q30 -29 30 -72q0 -42 -30 -72q-29 -30 -72 -30q-42 0 -72 30zM7 -362q-30 30 -30 72q0 43 30 72q29 30 72 30q42 0 72 -30q30 -29 30 -72q0 -42 -30 -72t-72 -30q-43 0 -72 30z" />
    <glyph glyph-name="uni0325" unicode="&#x325;" 
d="M-264 -488q-62 61 -62 150q0 88 62 149t150 61q89 0 151 -61t62 -149q0 -89 -62 -150t-151 -61q-88 0 -150 61zM-25 -428q36 37 36 90t-36 89t-89 36t-88 -36q-36 -36 -36 -89t36 -90q36 -36 88 -36q53 0 89 36z" />
    <glyph glyph-name="uni0326" unicode="&#x326;" 
d="M-295 -506l179 364h141l-193 -364h-127z" />
    <glyph glyph-name="uni0327" unicode="&#x327;" 
d="M-185 -141l111 173l109 -2l-108 -169q179 -18 179 -155q0 -82 -65 -134q-66 -52 -167 -52q-96 0 -172 37l18 87q66 -32 151 -32q54 0 88 24q33 23 33 63q0 82 -137 87l-51 1z" />
    <glyph glyph-name="uni0328" unicode="&#x328;" 
d="M-3 -408q-28 -13 -83 -13q-96 0 -151 49q-56 48 -56 132q0 81 60 162q61 80 163 135l94 -22q-190 -116 -190 -250q0 -104 125 -104q39 0 59 7z" />
    <glyph glyph-name="uni032D" unicode="&#x32d;" 
d="M218 -432h-155l-147 197h-12l-232 -197h-156l350 289h124z" />
    <glyph glyph-name="uni032E" unicode="&#x32e;" 
d="M217 -137q-20 -125 -114 -200q-94 -74 -228 -74q-139 0 -225 72q-85 72 -85 188v14h117q2 -79 54 -125q53 -48 143 -48q86 0 145 47q58 46 74 126h119z" />
    <glyph glyph-name="uni0330" unicode="&#x330;" 
d="M-120 -319q-80 83 -124 83q-96 0 -115 -136h-110q15 115 78 179q61 62 149 62q87 0 166 -83q80 -84 124 -84q97 0 116 136h110q-15 -115 -78 -180q-61 -61 -149 -61t-167 84z" />
    <glyph glyph-name="uni0331" unicode="&#x331;" 
d="M-429 -309l23 105h644l-22 -105h-645z" />
    <glyph glyph-name="uni037E" unicode="&#x37e;" horiz-adv-x="593" 
d="M39 -339l199 531h162l-246 -531h-115zM347 796q-33 32 -33 78t33 78q32 32 77 32q46 0 78 -32t32 -78t-32 -78q-32 -33 -78 -33q-45 0 -77 33z" />
    <glyph glyph-name="tonos" unicode="&#x384;" horiz-adv-x="891" 
d="M546 1252l157 328h159l-195 -328h-121z" />
    <glyph glyph-name="dieresistonos" unicode="&#x385;" horiz-adv-x="1202" 
d="M741 1252l110 328h152l-147 -328h-115zM501 1278q-26 26 -26 65q0 46 32 79q33 34 83 34q39 0 65 -26q26 -25 26 -63q0 -47 -32 -80q-33 -35 -83 -35q-39 0 -65 26zM1036 1278q-26 26 -26 65q0 46 32 79q33 34 82 34q39 0 65 -26q26 -25 26 -63q0 -47 -32 -80
q-33 -35 -82 -35q-39 0 -65 26z" />
    <glyph glyph-name="Alphatonos" unicode="&#x386;" horiz-adv-x="1365" 
d="M1045 443h-608l-254 -443h-149l851 1443h128l233 -1443h-134zM503 560h527l-110 702h-13zM273 1116l157 327h159l-194 -327h-122z" />
    <glyph glyph-name="anoteleia" unicode="&#x387;" horiz-adv-x="608" 
d="M382 875q-34 33 -34 84t34 85q33 33 84 33t84 -33q33 -34 33 -85t-33 -84q-33 -34 -84 -34t-84 34z" />
    <glyph glyph-name="Epsilontonos" unicode="&#x388;" horiz-adv-x="1513" 
d="M269 1116l157 327h159l-194 -327h-122zM1331 0h-873l307 1443h873l-27 -124h-732l-112 -519h697l-26 -122h-696l-119 -554h734z" />
    <glyph glyph-name="Etatonos" unicode="&#x389;" horiz-adv-x="1804" 
d="M269 1116l157 327h159l-194 -327h-122zM1438 0l144 677h-841l-144 -677h-139l307 1443h140l-137 -642h841l137 642h139l-307 -1443h-140z" />
    <glyph glyph-name="Iotatonos" unicode="&#x38a;" horiz-adv-x="823" 
d="M458 0l307 1443h140l-307 -1443h-140zM269 1116l157 327h159l-194 -327h-122z" />
    <glyph glyph-name="Omicrontonos" unicode="&#x38c;" horiz-adv-x="1798" 
d="M618 139q-161 170 -161 435q0 385 219 642t547 257q252 0 412 -169t160 -435q0 -387 -218 -643q-217 -256 -545 -256q-253 0 -414 169zM1532 1212q-121 134 -319 134q-260 0 -436 -219t-176 -542q0 -220 121 -354t320 -134q261 0 436 217q174 218 174 544q0 220 -120 354
zM269 1116l157 327h159l-194 -327h-122z" />
    <glyph glyph-name="Upsilontonos" unicode="&#x38e;" horiz-adv-x="1633" 
d="M269 1116l157 327h159l-194 -327h-122zM861 0l133 624l-342 819h143l289 -685h12l568 685h159l-695 -837l-127 -606h-140z" />
    <glyph glyph-name="Omegatonos" unicode="&#x38f;" horiz-adv-x="1842" 
d="M1185 161q232 111 357 298q127 190 127 432q0 207 -120 330q-122 125 -329 125q-270 0 -436 -191q-164 -187 -164 -480q0 -348 305 -514l-35 -161h-518l26 124h358l3 13q-280 179 -280 535q0 346 207 571q212 230 551 230q263 0 419 -156q155 -155 155 -413
q0 -247 -127 -453q-126 -206 -343 -314l-3 -13h372l-27 -124h-532zM269 1116l157 327h159l-194 -327h-122z" />
    <glyph glyph-name="iotadieresistonos" unicode="&#x390;" horiz-adv-x="569" 
d="M307 324q-11 -55 -11 -91q0 -126 148 -126q49 0 82 6l-24 -112q-62 -10 -103 -10q-114 0 -179 55q-65 54 -65 150q0 36 11 93l169 788h132zM378 1252l110 328h152l-147 -328h-115zM138 1278q-26 26 -26 65q0 46 32 79q33 34 83 34q39 0 65 -26q26 -25 26 -63
q0 -47 -32 -80q-33 -35 -83 -35q-39 0 -65 26zM673 1278q-26 26 -26 65q0 46 32 79q33 34 82 34q39 0 65 -26q26 -25 26 -63q0 -47 -32 -80q-33 -35 -82 -35q-39 0 -65 26z" />
    <glyph glyph-name="Alpha" unicode="&#x391;" horiz-adv-x="1363" 
d="M1044 443h-608l-254 -443h-149l851 1443h128l233 -1443h-134zM502 560h527l-110 702h-13z" />
    <glyph glyph-name="Beta" unicode="&#x392;" horiz-adv-x="1324" 
d="M142 0l307 1443h480q182 0 292 -86q108 -86 108 -225q0 -144 -92 -247q-91 -103 -240 -129l-3 -13q123 -20 195 -98q71 -78 71 -194q0 -195 -151 -322q-153 -129 -394 -129h-573zM453 807h347q170 0 278 83q109 83 109 214q0 104 -77 160q-79 58 -229 58h-319zM711 121
q175 0 291 93q114 91 114 226q0 119 -85 183q-85 65 -247 65h-357l-120 -567h404z" />
    <glyph glyph-name="Gamma" unicode="&#x393;" horiz-adv-x="1126" 
d="M142 0l307 1443h838l-27 -124h-697l-281 -1319h-140z" />
    <glyph glyph-name="uni0394" unicode="&#x394;" horiz-adv-x="1371" 
d="M57 0l20 96l811 1347h128l235 -1346l-21 -97h-1173zM245 136l-2 -12h867l2 10l-191 1138h-6z" />
    <glyph glyph-name="Epsilon" unicode="&#x395;" horiz-adv-x="1197" 
d="M1015 0h-873l307 1443h873l-27 -124h-732l-112 -519h697l-26 -122h-696l-119 -554h734z" />
    <glyph glyph-name="Zeta" unicode="&#x396;" horiz-adv-x="1328" 
d="M117 99l1111 1208l3 13h-826l26 123h1011l-21 -100l-1109 -1207l-2 -13h863l-26 -123h-1051z" />
    <glyph glyph-name="Eta" unicode="&#x397;" horiz-adv-x="1489" 
d="M1122 0l144 677h-841l-144 -677h-139l307 1443h140l-137 -642h841l137 642h139l-307 -1443h-140z" />
    <glyph glyph-name="Theta" unicode="&#x398;" horiz-adv-x="1572" 
d="M564 661l27 124h639l-27 -124h-639zM368 127q-147 156 -147 431q0 398 219 656q220 259 564 259q271 0 420 -156q147 -156 147 -439q0 -397 -224 -653q-223 -255 -567 -255q-264 0 -412 157zM1315 1219q-115 127 -328 127q-271 0 -449 -219q-177 -219 -177 -550
q0 -226 116 -353q117 -127 325 -127q268 0 448 216q180 218 180 547q0 233 -115 359z" />
    <glyph glyph-name="Iota" unicode="&#x399;" horiz-adv-x="509" 
d="M142 0l307 1443h140l-307 -1443h-140z" />
    <glyph glyph-name="Kappa" unicode="&#x39a;" horiz-adv-x="1311" 
d="M142 0l307 1443h136l-158 -743h12l833 743h180l-706 -631l458 -812h-159l-407 728l-250 -221l-109 -507h-137z" />
    <glyph glyph-name="Lambda" unicode="&#x39b;" horiz-adv-x="1349" 
d="M191 0h-148l834 1443h128l216 -1443h-134l-176 1262h-12z" />
    <glyph glyph-name="Mu" unicode="&#x39c;" horiz-adv-x="1763" 
d="M142 0l307 1443h150l267 -1256h12l797 1256h167l-307 -1443h-131l250 1177h-9l-745 -1170h-119l-248 1170h-10l-250 -1177h-131z" />
    <glyph glyph-name="Nu" unicode="&#x39d;" horiz-adv-x="1492" 
d="M142 0l307 1443h135l579 -1218h12l259 1218h138l-307 -1443h-133l-581 1220h-12l-259 -1220h-138z" />
    <glyph glyph-name="Xi" unicode="&#x39e;" horiz-adv-x="1323" 
d="M1447 1443l-27 -128h-1043l27 128h1043zM318 675l28 127h888l-28 -127h-888zM1167 128l-26 -128h-1043l27 128h1042z" />
    <glyph glyph-name="Omicron" unicode="&#x39f;" horiz-adv-x="1562" 
d="M383 139q-161 170 -161 435q0 385 219 642t547 257q252 0 412 -169t160 -435q0 -387 -218 -643q-217 -256 -545 -256q-253 0 -414 169zM1297 1212q-121 134 -319 134q-260 0 -436 -219t-176 -542q0 -220 121 -354t320 -134q261 0 436 217q174 218 174 544q0 220 -120 354
z" />
    <glyph glyph-name="Pi" unicode="&#x3a0;" horiz-adv-x="1469" 
d="M1102 0l281 1319h-821l-281 -1319h-139l307 1443h1100l-307 -1443h-140z" />
    <glyph glyph-name="Rho" unicode="&#x3a1;" horiz-adv-x="1277" 
d="M929 1443q181 0 297 -104q117 -105 117 -273q0 -237 -161 -381q-156 -141 -403 -141h-382l-115 -544h-140l309 1443h478zM423 666h349q193 0 310 103q118 105 118 285q0 123 -84 195q-85 72 -232 72h-320z" />
    <glyph glyph-name="Sigma" unicode="&#x3a3;" horiz-adv-x="1322" 
d="M300 124h867l-26 -124h-1045l21 99l565 653l-277 587l22 104h1001l-26 -124h-833l-2 -6l261 -554l-6 -24l-521 -605z" />
    <glyph glyph-name="Tau" unicode="&#x3a4;" horiz-adv-x="1280" 
d="M526 0l280 1319h-482l26 124h1104l-26 -124h-482l-281 -1319h-139z" />
    <glyph glyph-name="Upsilon" unicode="&#x3a5;" horiz-adv-x="1321" 
d="M549 0l133 624l-342 819h143l289 -685h12l568 685h159l-695 -837l-127 -606h-140z" />
    <glyph glyph-name="Phi" unicode="&#x3a6;" horiz-adv-x="1729" 
d="M769 79q-263 20 -407 162q-143 140 -143 372q0 323 224 531q227 211 598 217l29 134h139l-28 -134q263 -20 407 -162q142 -140 142 -373q0 -323 -223 -530q-227 -211 -598 -217l-30 -137h-139zM1015 1237q-299 -2 -478 -174q-176 -169 -176 -436q0 -190 109 -300
q113 -114 325 -125zM935 203q299 2 479 174q175 167 175 437q0 189 -110 299q-113 114 -324 125z" />
    <glyph glyph-name="Chi" unicode="&#x3a7;" horiz-adv-x="1367" 
d="M717 744l-338 699h156l282 -609h11l551 609h158l-659 -726l344 -717h-148l-295 618h-11l-558 -618h-157z" />
    <glyph glyph-name="Psi" unicode="&#x3a8;" horiz-adv-x="1633" 
d="M705 0l73 345q-231 17 -351 126t-120 300q0 63 15 133l113 539h139l-112 -535q-16 -73 -16 -136q0 -285 359 -301l207 972h139l-206 -972q232 2 363 119q123 109 170 332l110 521h139l-111 -526q-61 -290 -220 -423q-164 -138 -478 -149l-73 -345h-140z" />
    <glyph glyph-name="uni03A9" unicode="&#x3a9;" horiz-adv-x="1584" 
d="M927 161q232 111 357 298q127 190 127 432q0 207 -120 330q-122 125 -329 125q-270 0 -436 -191q-164 -187 -164 -480q0 -348 305 -514l-35 -161h-518l26 124h358l3 13q-280 179 -280 535q0 346 207 571q212 230 551 230q263 0 419 -156q155 -155 155 -413
q0 -247 -127 -453q-126 -206 -343 -314l-3 -13h372l-27 -124h-532z" />
    <glyph glyph-name="Iotadieresis" unicode="&#x3aa;" horiz-adv-x="507" 
d="M142 0l307 1443h140l-307 -1443h-140zM313 1598q-30 29 -30 72t30 72q30 30 72 30q43 0 73 -30q30 -29 30 -72t-30 -72q-30 -30 -73 -30q-42 0 -72 30zM677 1598q-30 29 -30 72t30 72q29 30 72 30q42 0 72 -30q30 -29 30 -72t-30 -72q-30 -30 -72 -30q-43 0 -72 30z" />
    <glyph glyph-name="Upsilondieresis" unicode="&#x3ab;" horiz-adv-x="1321" 
d="M549 0l133 624l-342 819h143l289 -685h12l568 685h159l-695 -837l-127 -606h-140zM718 1598q-30 29 -30 72t30 72q30 30 72 30q43 0 73 -30q30 -29 30 -72t-30 -72q-30 -30 -73 -30q-42 0 -72 30zM1082 1598q-30 29 -30 72t30 72q29 30 72 30q42 0 72 -30q30 -29 30 -72
t-30 -72q-30 -30 -72 -30q-43 0 -72 30z" />
    <glyph glyph-name="alphatonos" unicode="&#x3ac;" horiz-adv-x="1277" 
d="M266 102q-104 121 -104 312q0 284 155 483q156 198 379 198q139 0 231 -70t116 -193h13l53 245h127l-172 -811q-13 -58 -13 -87q0 -40 21 -56q21 -17 71 -17q31 0 58 6l-24 -112q-42 -10 -82 -10q-89 0 -130 39q-42 40 -42 128q0 12 9 57h-12q-58 -109 -161 -170
q-103 -62 -225 -62q-164 0 -268 120zM873 258q124 155 124 372q0 160 -78 253q-79 94 -213 94q-171 0 -289 -159t-118 -389q0 -149 74 -238q74 -90 196 -90q178 0 304 157zM693 1252l157 328h159l-195 -328h-121z" />
    <glyph glyph-name="epsilontonos" unicode="&#x3ad;" horiz-adv-x="1117" 
d="M663 1252l157 328h159l-195 -328h-121zM267 56q-120 79 -120 214q0 110 71 185q68 71 187 96l3 12q-153 52 -153 202q0 153 120 242q118 88 313 88q204 0 319 -88q105 -80 122 -223h-134q-44 193 -309 193q-139 0 -219 -59q-77 -57 -77 -149q0 -77 59 -119
q61 -43 175 -43h156l-25 -118h-176q-140 0 -217 -55q-75 -54 -75 -149q0 -85 74 -134q75 -50 204 -50q138 0 241 57q103 56 142 155h136q-44 -153 -183 -241q-141 -90 -347 -90q-175 0 -287 74z" />
    <glyph glyph-name="etatonos" unicode="&#x3ae;" horiz-adv-x="1291" 
d="M1101 637q10 55 10 93q0 112 -67 179q-68 68 -182 68q-138 0 -237 -91q-97 -88 -129 -238l-139 -648h-134l178 835q8 40 8 62q0 40 -21 57q-20 17 -70 17q-32 0 -59 -5l24 111q38 10 80 10q83 0 122 -31q41 -31 50 -105q0 -53 -2 -63h13q129 207 373 207q148 0 240 -94
q91 -93 91 -243q0 -55 -12 -112l-217 -1017h-134zM699 1252l157 328h159l-195 -328h-121z" />
    <glyph glyph-name="iotatonos" unicode="&#x3af;" horiz-adv-x="562" 
d="M307 324q-11 -55 -11 -91q0 -126 148 -126q49 0 82 6l-24 -112q-62 -10 -103 -10q-114 0 -179 55q-65 54 -65 150q0 36 11 93l169 788h132zM374 1252l157 328h159l-195 -328h-121z" />
    <glyph glyph-name="upsilondieresistonos" unicode="&#x3b0;" horiz-adv-x="1149" 
d="M661 1252l110 328h152l-147 -328h-115zM421 1278q-26 26 -26 65q0 46 32 79q33 34 83 34q39 0 65 -26q26 -25 26 -63q0 -47 -32 -80q-33 -35 -83 -35q-39 0 -65 26zM956 1278q-26 26 -26 65q0 46 32 79q33 34 82 34q39 0 65 -26q26 -25 26 -63q0 -47 -32 -80
q-33 -35 -82 -35q-39 0 -65 26zM1091 1077q29 -113 29 -295q0 -374 -163 -591q-158 -209 -419 -209q-171 0 -264 83q-94 82 -94 233q0 65 14 134l136 645h131l-134 -633q-17 -75 -15 -145q0 -197 231 -197q208 0 327 183q116 180 116 490q0 175 -31 302h136z" />
    <glyph glyph-name="alpha" unicode="&#x3b1;" horiz-adv-x="1277" 
d="M266 102q-104 121 -104 312q0 284 155 483q156 198 379 198q139 0 231 -70t116 -193h13l53 245h127l-172 -811q-13 -58 -13 -87q0 -40 21 -56q21 -17 71 -17q31 0 58 6l-24 -112q-42 -10 -82 -10q-89 0 -130 39q-42 40 -42 128q0 12 9 57h-12q-58 -109 -161 -170
q-103 -62 -225 -62q-164 0 -268 120zM873 258q124 155 124 372q0 160 -78 253q-79 94 -213 94q-171 0 -289 -159t-118 -389q0 -149 74 -238q74 -90 196 -90q178 0 304 157z" />
    <glyph glyph-name="beta" unicode="&#x3b2;" horiz-adv-x="1243" 
d="M343 1058q50 239 164 351q117 115 320 115q170 0 273 -90t103 -240q0 -136 -70 -231q-71 -96 -203 -137l-2 -13q266 -83 266 -340q0 -212 -141 -351q-142 -140 -360 -140q-144 0 -243 67q-100 68 -136 195h-12l-131 -615h-132zM631 872h101q150 0 244 84q94 83 94 216
q0 110 -62 170q-65 63 -192 63q-266 0 -343 -359l-107 -503q-16 -71 -16 -122q0 -145 94 -233q93 -87 245 -87q161 0 265 102q103 102 103 258q0 137 -89 215q-90 78 -249 78h-113z" />
    <glyph glyph-name="gamma" unicode="&#x3b3;" horiz-adv-x="1094" 
d="M974 538q-144 -236 -454 -561l-70 -328h-132l71 332l-146 1096h139l109 -956h15q493 542 493 892q0 37 -5 64h132q4 -22 4 -69q0 -213 -156 -470z" />
    <glyph glyph-name="delta" unicode="&#x3b4;" horiz-adv-x="1173" 
d="M265 102q-121 121 -121 318q0 235 134 393q137 163 365 182h10l3 14q-189 95 -189 239q0 127 107 201q107 75 289 75q231 0 332 -84l-28 -117q-127 85 -327 85q-112 0 -176 -40q-65 -41 -65 -113q0 -55 41 -96q43 -42 168 -108q180 -95 259 -203q81 -110 81 -266
q0 -250 -164 -425t-399 -175q-199 0 -320 120zM894 233q118 135 118 336q0 149 -89 244t-229 95q-177 0 -293 -133q-120 -136 -120 -348q0 -147 87 -238q88 -91 230 -91q177 0 296 135z" />
    <glyph glyph-name="epsilon" unicode="&#x3b5;" horiz-adv-x="1117" 
d="M267 56q-120 79 -120 214q0 110 71 185q68 71 187 96l3 12q-153 52 -153 202q0 153 120 242q118 88 313 88q204 0 319 -88q105 -80 122 -223h-134q-44 193 -309 193q-139 0 -219 -59q-77 -57 -77 -149q0 -77 59 -119q61 -43 175 -43h156l-25 -118h-176q-140 0 -217 -55
q-75 -54 -75 -149q0 -85 74 -134q75 -50 204 -50q138 0 241 57q103 56 142 155h136q-44 -153 -183 -241q-141 -90 -347 -90q-175 0 -287 74z" />
    <glyph glyph-name="zeta" unicode="&#x3b6;" horiz-adv-x="911" 
d="M625 -335q95 111 95 203q0 54 -37 92q-40 41 -139 82q-211 87 -300 191q-90 104 -90 265q0 236 190 464q183 220 526 412l3 13h-495l25 119h700l6 -126q-378 -182 -595 -411q-223 -234 -223 -461q0 -120 61 -192q63 -73 228 -145q160 -68 219 -129q56 -57 56 -145
q0 -141 -129 -269z" />
    <glyph glyph-name="eta" unicode="&#x3b7;" horiz-adv-x="1291" 
d="M1101 637q10 55 10 93q0 112 -67 179q-68 68 -182 68q-138 0 -237 -91q-97 -88 -129 -238l-139 -648h-134l178 835q8 40 8 62q0 40 -21 57q-20 17 -70 17q-32 0 -59 -5l24 111q38 10 80 10q83 0 122 -31q41 -31 50 -105q0 -53 -2 -63h13q129 207 373 207q148 0 240 -94
q91 -93 91 -243q0 -55 -12 -112l-217 -1017h-134z" />
    <glyph glyph-name="theta" unicode="&#x3b8;" horiz-adv-x="1225" 
d="M308 109q-104 128 -104 375q0 126 28 285q66 373 221 565q154 190 385 190q197 0 300 -128q102 -129 102 -376q0 -122 -28 -287q-65 -369 -219 -560t-386 -191q-196 0 -299 127zM897 248q112 147 173 454h-714q-18 -127 -18 -226q0 -176 67 -273q71 -102 209 -102
q171 0 283 147zM1089 820q16 101 16 199q0 386 -282 386q-328 0 -446 -585h712z" />
    <glyph glyph-name="iota" unicode="&#x3b9;" horiz-adv-x="562" 
d="M307 324q-11 -55 -11 -91q0 -126 148 -126q49 0 82 6l-24 -112q-62 -10 -103 -10q-114 0 -179 55q-65 54 -65 150q0 36 11 93l169 788h132z" />
    <glyph glyph-name="kappa" unicode="&#x3ba;" horiz-adv-x="1120" 
d="M1189 1077l-23 -111q-34 6 -58 6q-67 0 -153 -86l-214 -213l295 -673h-138l-249 583l-350 -346l-49 -237h-133l228 1077h133l-131 -614h13l475 475q91 91 145 120t128 29q50 0 81 -10z" />
    <glyph glyph-name="lambda" unicode="&#x3bb;" horiz-adv-x="1093" 
d="M1068 112l-24 -112q-38 -10 -80 -10q-90 0 -135 44q-46 44 -60 147l-89 654h-12l-495 -835h-153l631 1028l-21 144q-24 151 -56 194q-31 41 -116 41q-27 0 -59 -6l24 112q39 11 87 11q119 0 170 -68t79 -262l137 -982q7 -58 35 -82q27 -24 83 -24q26 0 54 6z" />
    <glyph glyph-name="uni03BC" unicode="&#x3bc;" horiz-adv-x="1271" 
d="M346 1077h133l-132 -623q-17 -76 -17 -128q0 -224 234 -224q134 0 245 101t143 252l132 622h131l-177 -834q-8 -35 -8 -66q0 -71 92 -71q33 0 58 6l-24 -112q-37 -10 -83 -10q-170 0 -170 162q0 19 7 48h-12q-58 -97 -156 -157q-101 -61 -211 -61q-91 0 -157 47
q-68 48 -79 123h-12l-112 -523h-132z" />
    <glyph glyph-name="nu" unicode="&#x3bd;" horiz-adv-x="1095" 
d="M981 549q-136 -227 -437 -549h-158l-143 1077h139l109 -956h15q493 542 493 892q0 37 -5 64h132q4 -22 4 -69q0 -211 -149 -459z" />
    <glyph glyph-name="xi" unicode="&#x3be;" horiz-adv-x="933" 
d="M628 -335q96 113 96 203q0 54 -38 92q-41 41 -140 82q-227 93 -319 183q-90 88 -90 214q0 145 97 240q94 93 271 128l3 11q-198 68 -198 242q0 233 309 316l2 11h-257l25 119h683l6 -107l-122 -10q-520 -51 -520 -312q0 -101 97 -155q96 -53 272 -53h94l-25 -118h-87
q-242 0 -376 -76q-135 -76 -135 -216q0 -85 65 -148q68 -65 241 -140q158 -67 216 -125q60 -58 60 -148q0 -141 -129 -270z" />
    <glyph glyph-name="omicron" unicode="&#x3bf;" horiz-adv-x="1183" 
d="M290 102q-123 124 -123 330q0 278 153 466q162 197 420 197q188 0 307 -128q114 -124 114 -310q0 -297 -163 -488q-159 -187 -398 -187q-190 0 -310 120zM900 249q122 151 122 374q0 160 -80 256q-82 98 -223 98q-183 0 -300 -154q-114 -149 -114 -372q0 -163 88 -259
q84 -91 218 -91q169 0 289 148z" />
    <glyph glyph-name="pi" unicode="&#x3c0;" horiz-adv-x="1365" 
d="M1076 959h-501l-204 -959h-127l203 959h-199l25 118h1173l-26 -118h-217l-149 -704q-11 -51 -11 -73q0 -42 20 -59q21 -17 73 -17q33 0 61 6l-24 -112q-40 -10 -92 -10q-170 0 -170 154q0 36 16 112z" />
    <glyph glyph-name="rho" unicode="&#x3c1;" horiz-adv-x="1211" 
d="M927 243q125 149 125 380q0 164 -83 258q-83 96 -229 96q-178 0 -293 -158q-110 -152 -110 -371q0 -154 86 -251q85 -96 215 -96q170 0 289 142zM1072 964q117 -127 117 -330q0 -278 -159 -466q-157 -186 -386 -186q-132 0 -230 76q-96 74 -120 187h-13l-131 -616h-132
l198 934q57 270 201 406q133 126 330 126q203 0 325 -131z" />
    <glyph glyph-name="sigma1" unicode="&#x3c2;" horiz-adv-x="1124" 
d="M743 -372l-101 37q96 113 96 203q0 55 -39 94q-41 40 -138 80q-212 87 -301 196t-89 279q0 247 146 408q154 170 407 170q182 0 300 -102q109 -95 122 -238h-132q-19 96 -95 158q-81 64 -197 64q-193 0 -309 -140q-105 -128 -105 -315q0 -129 67 -207q63 -75 222 -144
q156 -67 216 -126q59 -59 59 -148q0 -143 -129 -269z" />
    <glyph glyph-name="sigma" unicode="&#x3c3;" horiz-adv-x="1251" 
d="M279 102q-114 119 -114 317q0 283 153 467q160 191 424 191h604l-24 -118h-322l-3 -13q141 -98 141 -313q0 -272 -153 -459q-157 -192 -397 -192q-194 0 -309 120zM893 254q115 152 115 389q0 149 -71 232q-70 83 -197 83q-194 0 -316 -151q-123 -151 -123 -390
q0 -151 75 -234t211 -83q189 0 306 154z" />
    <glyph glyph-name="tau" unicode="&#x3c4;" horiz-adv-x="1054" 
d="M783 3q-46 -12 -129 -12q-111 0 -175 51q-67 54 -67 150q0 42 10 91l144 676h-354l25 118h898l-24 -118h-413l-135 -639q-11 -49 -11 -91q0 -122 148 -122q67 0 107 8z" />
    <glyph glyph-name="upsilon" unicode="&#x3c5;" horiz-adv-x="1149" 
d="M1091 1077q29 -113 29 -295q0 -374 -163 -591q-158 -209 -419 -209q-171 0 -264 83q-94 82 -94 233q0 65 14 134l136 645h131l-134 -633q-17 -75 -15 -145q0 -197 231 -197q208 0 327 183q116 180 116 490q0 175 -31 302h136z" />
    <glyph glyph-name="phi" unicode="&#x3c6;" horiz-adv-x="1504" 
d="M644 -13q-220 23 -345 144q-126 122 -126 314q0 289 195 468q196 180 510 180l61 284h130l-62 -290q218 -23 344 -144q125 -123 125 -313q0 -286 -195 -466q-197 -182 -508 -182l-75 -353h-129zM855 983q-246 -3 -397 -148t-151 -376q0 -151 95 -246q96 -95 266 -114z
M796 91q246 7 396 151q149 144 149 375q0 149 -95 244q-96 95 -263 114z" />
    <glyph glyph-name="chi" unicode="&#x3c7;" horiz-adv-x="1116" 
d="M804 -347q-44 33 -69 118l-134 455h-13l-445 -597h-144l561 735l-147 494q-19 65 -48 89t-87 24q-26 0 -52 -6l24 112q41 10 82 10q81 0 125 -35q46 -36 71 -122l133 -448h13l433 595h144l-548 -733l145 -496q19 -66 47 -89q28 -24 87 -24q21 0 52 6l-23 -112
q-37 -10 -79 -10q-85 0 -128 34z" />
    <glyph glyph-name="psi" unicode="&#x3c8;" horiz-adv-x="1434" 
d="M525 -371l74 352q-417 9 -417 321q0 71 17 156l131 619h131l-136 -641q-13 -59 -13 -119q0 -106 75 -159t236 -57l272 1276h128l-273 -1281q250 8 383 178q135 172 135 490q0 190 -32 313h135q32 -104 32 -315q0 -361 -167 -566q-177 -217 -510 -219l-74 -348h-127z" />
    <glyph glyph-name="omega" unicode="&#x3c9;" horiz-adv-x="1566" 
d="M1388 171q-130 -189 -324 -189q-215 0 -256 234h-14q-101 -234 -319 -234q-151 0 -230 98q-80 97 -80 282q0 195 78 396t200 319h146q-131 -131 -210 -325q-78 -194 -78 -391q0 -122 50 -191q50 -68 139 -68q208 0 270 289l79 367h131l-70 -335q-12 -52 -12 -101
q0 -104 50 -162t140 -58q134 0 220 153q85 154 85 396q0 256 -124 426h145q115 -155 115 -435q0 -281 -131 -471z" />
    <glyph glyph-name="iotadieresis" unicode="&#x3ca;" horiz-adv-x="569" 
d="M186 1258q-30 29 -30 72t30 72q30 30 72 30q43 0 73 -30q30 -29 30 -72t-30 -72q-30 -30 -73 -30q-42 0 -72 30zM550 1258q-30 29 -30 72t30 72q29 30 72 30q42 0 72 -30q30 -29 30 -72t-30 -72q-30 -30 -72 -30q-43 0 -72 30zM307 324q-11 -55 -11 -91q0 -126 148 -126
q49 0 82 6l-24 -112q-62 -10 -103 -10q-114 0 -179 55q-65 54 -65 150q0 36 11 93l169 788h132z" />
    <glyph glyph-name="upsilondieresis" unicode="&#x3cb;" horiz-adv-x="1149" 
d="M498 1258q-30 29 -30 72t30 72q30 30 72 30q43 0 73 -30q30 -29 30 -72t-30 -72q-30 -30 -73 -30q-42 0 -72 30zM862 1258q-30 29 -30 72t30 72q29 30 72 30q42 0 72 -30q30 -29 30 -72t-30 -72q-30 -30 -72 -30q-43 0 -72 30zM1091 1077q29 -113 29 -295
q0 -374 -163 -591q-158 -209 -419 -209q-171 0 -264 83q-94 82 -94 233q0 65 14 134l136 645h131l-134 -633q-17 -75 -15 -145q0 -197 231 -197q208 0 327 183q116 180 116 490q0 175 -31 302h136z" />
    <glyph glyph-name="omicrontonos" unicode="&#x3cc;" horiz-adv-x="1183" 
d="M290 102q-123 124 -123 330q0 278 153 466q162 197 420 197q188 0 307 -128q114 -124 114 -310q0 -297 -163 -488q-159 -187 -398 -187q-190 0 -310 120zM900 249q122 151 122 374q0 160 -80 256q-82 98 -223 98q-183 0 -300 -154q-114 -149 -114 -372q0 -163 88 -259
q84 -91 218 -91q169 0 289 148zM687 1252l157 328h159l-195 -328h-121z" />
    <glyph glyph-name="upsilontonos" unicode="&#x3cd;" horiz-adv-x="1149" 
d="M663 1252l157 328h159l-195 -328h-121zM1091 1077q29 -113 29 -295q0 -374 -163 -591q-158 -209 -419 -209q-171 0 -264 83q-94 82 -94 233q0 65 14 134l136 645h131l-134 -633q-17 -75 -15 -145q0 -197 231 -197q208 0 327 183q116 180 116 490q0 175 -31 302h136z" />
    <glyph glyph-name="omegatonos" unicode="&#x3ce;" horiz-adv-x="1566" 
d="M1388 171q-130 -189 -324 -189q-215 0 -256 234h-14q-101 -234 -319 -234q-151 0 -230 98q-80 97 -80 282q0 195 78 396t200 319h146q-131 -131 -210 -325q-78 -194 -78 -391q0 -122 50 -191q50 -68 139 -68q208 0 270 289l79 367h131l-70 -335q-12 -52 -12 -101
q0 -104 50 -162t140 -58q134 0 220 153q85 154 85 396q0 256 -124 426h145q115 -155 115 -435q0 -281 -131 -471zM909 1252l157 328h159l-195 -328h-121z" />
    <glyph glyph-name="uni0401" unicode="&#x401;" horiz-adv-x="1216" 
d="M689 1598q-30 29 -30 72t30 72q30 30 72 30q43 0 73 -30q30 -29 30 -72t-30 -72q-30 -30 -73 -30q-42 0 -72 30zM1053 1598q-30 29 -30 72t30 72q29 30 72 30q42 0 72 -30q30 -29 30 -72t-30 -72q-30 -30 -72 -30q-43 0 -72 30zM1025 0h-873l307 1443h873l-27 -124h-732
l-112 -519h697l-26 -122h-696l-119 -554h734z" />
    <glyph glyph-name="uni0402" unicode="&#x402;" horiz-adv-x="1715" 
d="M1485 127q-144 -141 -362 -141q-65 0 -140 15l26 123q65 -13 116 -13q158 0 261 107q102 104 102 260q0 134 -70 209q-76 79 -223 79q-115 0 -230 -63q-103 -55 -167 -135l-121 -568h-139l280 1320h-482l27 123h1104l-27 -123h-482l-123 -579h11q153 149 363 149
q203 0 313 -114q106 -108 106 -297q0 -212 -143 -352z" />
    <glyph glyph-name="uni0403" unicode="&#x403;" horiz-adv-x="1158" 
d="M1144 1874h174l-389 -297h-157zM152 0l307 1443h851l-27 -124h-710l-281 -1319h-140z" />
    <glyph glyph-name="uni0404" unicode="&#x404;" horiz-adv-x="1470" 
d="M1437 411q-67 -206 -232 -323q-166 -118 -390 -118q-287 0 -432 199q-150 206 -92 556q44 330 245 536q207 212 507 212q206 0 354 -125q152 -128 160 -323q1 -6 1 -23h-139q-4 152 -116 249q-110 95 -276 95q-210 0 -371 -151q-158 -149 -216 -394h693l-26 -124h-689
q-34 -264 78 -422q111 -158 333 -158q166 0 293 88q120 84 175 226h140z" />
    <glyph glyph-name="uni0405" unicode="&#x405;" horiz-adv-x="1287" 
d="M289 392q19 -134 130 -215q112 -82 276 -82q165 0 266 79q102 80 102 209q0 182 -263 274l-136 48q-319 112 -319 365q0 174 141 289q140 114 353 114q202 0 342 -112q139 -112 155 -286h-137q-23 124 -124 199q-100 74 -245 74q-148 0 -244 -75q-97 -76 -97 -192
q0 -168 257 -260l132 -47q329 -118 329 -376q0 -190 -146 -309q-145 -119 -377 -119q-222 0 -367 115t-166 307h138z" />
    <glyph glyph-name="uni0406" unicode="&#x406;" horiz-adv-x="528" 
d="M152 0l307 1443h140l-307 -1443h-140z" />
    <glyph glyph-name="uni0407" unicode="&#x407;" horiz-adv-x="529" 
d="M152 0l307 1443h140l-307 -1443h-140zM323 1598q-30 29 -30 72t30 72q30 30 72 30q43 0 73 -30q30 -29 30 -72t-30 -72q-30 -30 -73 -30q-42 0 -72 30zM687 1598q-30 29 -30 72t30 72q29 30 72 30q42 0 72 -30q30 -29 30 -72t-30 -72q-30 -30 -72 -30q-43 0 -72 30z" />
    <glyph glyph-name="uni0408" unicode="&#x408;" horiz-adv-x="1108" 
d="M278 330v-6q1 -103 70 -164q69 -62 182 -62q235 0 298 290l224 1055h136l-231 -1090q-39 -183 -153 -282q-115 -101 -290 -101q-169 0 -275 100q-106 101 -98 253v7h137z" />
    <glyph glyph-name="uni0409" unicode="&#x409;" horiz-adv-x="2144" 
d="M507 510q-73 -265 -167 -384q-108 -135 -280 -135q-38 0 -63 10l26 123q19 -7 53 -7q107 0 182 109q64 94 117 291l252 926h834l-116 -544h307q199 0 322 -106q125 -108 125 -285q0 -208 -151 -355q-157 -153 -395 -153h-538l281 1319h-568zM1320 777l-140 -655h360
q179 0 298 105t119 261q0 141 -92 217q-87 72 -240 72h-305z" />
    <glyph glyph-name="uni040A" unicode="&#x40a;" horiz-adv-x="2178" 
d="M1213 677h-781l-144 -677h-139l307 1443h139l-136 -642h780l136 642h140l-137 -643h320q188 0 305 -95q118 -97 118 -255q0 -186 -142 -315q-148 -135 -380 -135h-531zM1586 122q178 0 287 89q106 87 106 223q0 117 -85 182q-82 62 -223 62h-319l-118 -556h352z" />
    <glyph glyph-name="uni040B" unicode="&#x40b;" horiz-adv-x="1736" 
d="M962 703q-104 -55 -164 -135l-121 -568h-139l280 1319h-482l27 124h1104l-27 -124h-482l-123 -576h13q174 147 382 147q217 0 319 -135q103 -137 54 -369l-83 -386h-139l83 392q38 178 -33 277q-69 97 -225 97q-126 0 -244 -63z" />
    <glyph glyph-name="uni040C" unicode="&#x40c;" horiz-adv-x="1321" 
d="M1006 1577h-157l372 297h174zM599 733l605 -733h-161l-567 684h-39l-145 -684h-140l307 1443h140l-139 -650h40l786 650h181z" />
    <glyph glyph-name="uni040E" unicode="&#x40e;" horiz-adv-x="1303" 
d="M774 1851q-18 -83 27 -133q44 -49 129 -49q86 0 151 49q66 50 84 133h120q-27 -128 -126 -202q-98 -72 -238 -72q-144 0 -218 72q-76 75 -49 202h120zM210 2l26 124q25 -9 73 -9q158 0 302 208l-262 1118h145l214 -961h13l605 961h157l-693 -1072q-137 -211 -237 -291
q-113 -90 -270 -90q-53 0 -73 12z" />
    <glyph glyph-name="uni040F" unicode="&#x40f;" horiz-adv-x="1489" 
d="M152 0l307 1443h137l-281 -1318h825l280 1318h139l-307 -1443h-486l-61 -285h-128l61 285h-486z" />
    <glyph glyph-name="uni0410" unicode="&#x410;" horiz-adv-x="1383" 
d="M1054 443h-608l-254 -443h-149l851 1443h128l233 -1443h-134zM512 560h527l-110 702h-13z" />
    <glyph glyph-name="uni0411" unicode="&#x411;" horiz-adv-x="1295" 
d="M152 0l307 1443h838l-27 -124h-697l-100 -467h317q200 0 323 -101q123 -102 123 -267q0 -198 -150 -338q-157 -146 -396 -146h-538zM677 122q179 0 299 98q118 98 118 244q0 127 -90 197q-87 68 -241 68h-316l-130 -607h360z" />
    <glyph glyph-name="uni0412" unicode="&#x412;" horiz-adv-x="1343" 
d="M152 0l307 1443h480q182 0 292 -86q108 -86 108 -225q0 -144 -92 -247q-91 -103 -240 -129l-3 -13q123 -20 195 -98q71 -78 71 -194q0 -195 -151 -322q-153 -129 -394 -129h-573zM463 807h347q170 0 278 83q109 83 109 214q0 104 -77 160q-79 58 -229 58h-319zM721 121
q175 0 291 93q114 91 114 226q0 119 -85 183q-85 65 -247 65h-357l-120 -567h404z" />
    <glyph glyph-name="uni0413" unicode="&#x413;" horiz-adv-x="1158" 
d="M152 0l307 1443h851l-27 -124h-710l-281 -1319h-140z" />
    <glyph glyph-name="uni0414" unicode="&#x414;" horiz-adv-x="1485" 
d="M496 503q-75 -269 -188 -369l-2 -10h768l255 1195h-610zM65 -285h-127l87 409h102q154 72 238 384l255 935h875l-281 -1319h183l-87 -409h-128l61 285h-1117z" />
    <glyph glyph-name="uni0415" unicode="&#x415;" horiz-adv-x="1216" 
d="M1025 0h-873l307 1443h873l-27 -124h-732l-112 -519h697l-26 -122h-696l-119 -554h734z" />
    <glyph glyph-name="uni0416" unicode="&#x416;" horiz-adv-x="2004" 
d="M210 0h-188l878 760l-490 683h157l461 -652h40l139 652h136l-139 -652h40l739 652h180l-815 -708l539 -735h-161l-504 685h-40l-146 -685h-136l145 685h-39z" />
    <glyph glyph-name="uni0417" unicode="&#x417;" horiz-adv-x="1262" 
d="M544 805h201q161 0 268 85q107 84 107 212q0 118 -74 183q-76 66 -215 66q-133 0 -234 -72q-100 -72 -141 -196h-134q54 183 196 287q141 103 330 103q193 0 307 -101q109 -98 109 -256q0 -144 -96 -244q-95 -100 -255 -125l-3 -12q127 -24 197 -103q74 -83 74 -212
q0 -194 -153 -322t-389 -128q-226 0 -360 124q-121 111 -127 278h133q2 -113 93 -193q100 -88 263 -88q175 0 286 90q112 90 112 232q0 127 -88 197q-89 71 -248 71h-185z" />
    <glyph glyph-name="uni0418" unicode="&#x418;" horiz-adv-x="1513" 
d="M1394 1206h-12l-1092 -1206h-138l307 1443h138l-257 -1207h12l1093 1207h138l-307 -1443h-138z" />
    <glyph glyph-name="uni0419" unicode="&#x419;" horiz-adv-x="1513" 
d="M880 1851q-18 -83 27 -133q44 -49 129 -49q86 0 151 49q66 50 84 133h120q-27 -128 -126 -202q-98 -72 -238 -72q-144 0 -218 72q-76 75 -49 202h120zM1394 1206h-12l-1092 -1206h-138l307 1443h138l-257 -1207h12l1093 1207h138l-307 -1443h-138z" />
    <glyph glyph-name="uni041A" unicode="&#x41a;" horiz-adv-x="1321" 
d="M599 733l605 -733h-161l-567 684h-39l-145 -684h-140l307 1443h140l-139 -650h40l786 650h181z" />
    <glyph glyph-name="uni041B" unicode="&#x41b;" horiz-adv-x="1403" 
d="M1027 0l281 1319h-580l-221 -809q-70 -258 -161 -376q-110 -143 -286 -143q-35 0 -63 10l26 123q19 -7 53 -7q110 0 186 114q62 93 113 286l252 926h847l-307 -1443h-140z" />
    <glyph glyph-name="uni041C" unicode="&#x41c;" horiz-adv-x="1782" 
d="M152 0l307 1443h150l267 -1256h12l797 1256h167l-307 -1443h-131l250 1177h-9l-745 -1170h-119l-248 1170h-10l-250 -1177h-131z" />
    <glyph glyph-name="uni041D" unicode="&#x41d;" horiz-adv-x="1509" 
d="M1132 0l144 677h-841l-144 -677h-139l307 1443h140l-137 -642h841l137 642h139l-307 -1443h-140z" />
    <glyph glyph-name="uni041E" unicode="&#x41e;" horiz-adv-x="1591" 
d="M394 139q-161 170 -161 435q0 385 219 642t547 257q252 0 412 -169t160 -435q0 -387 -218 -643q-217 -256 -545 -256q-253 0 -414 169zM1308 1212q-121 134 -319 134q-260 0 -436 -219t-176 -542q0 -220 121 -354t320 -134q261 0 436 217q174 218 174 544q0 220 -120 354
z" />
    <glyph glyph-name="uni041F" unicode="&#x41f;" horiz-adv-x="1489" 
d="M1115 0l281 1318h-825l-280 -1318h-139l307 1443h1100l-307 -1443h-137z" />
    <glyph glyph-name="uni0420" unicode="&#x420;" horiz-adv-x="1291" 
d="M938 1443q181 0 297 -104q117 -105 117 -273q0 -237 -161 -381q-156 -141 -403 -141h-382l-115 -544h-140l309 1443h478zM432 666h349q193 0 310 103q118 105 118 285q0 123 -84 195q-85 72 -232 72h-320z" />
    <glyph glyph-name="uni0421" unicode="&#x421;" horiz-adv-x="1487" 
d="M383 130q-153 161 -153 424q0 394 218 657q217 262 542 262q225 0 377 -132q154 -134 158 -337q1 -4 1 -13h-139q-8 160 -122 259q-113 96 -284 96q-257 0 -433 -225q-177 -225 -177 -553q0 -215 116 -344q117 -129 314 -129q169 0 293 82q122 80 168 216h144
q-56 -198 -219 -311q-165 -114 -400 -114q-251 0 -404 162z" />
    <glyph glyph-name="uni0422" unicode="&#x422;" horiz-adv-x="1301" 
d="M536 0l280 1319h-482l26 124h1104l-26 -124h-482l-281 -1319h-139z" />
    <glyph glyph-name="uni0423" unicode="&#x423;" horiz-adv-x="1303" 
d="M210 2l26 124q25 -9 73 -9q158 0 302 208l-262 1118h145l214 -961h13l605 961h157l-693 -1072q-137 -211 -237 -291q-113 -90 -270 -90q-53 0 -73 12z" />
    <glyph glyph-name="uni0424" unicode="&#x424;" horiz-adv-x="1678" 
d="M725 -17l33 154q-250 8 -392 135t-142 344q0 297 221 494q222 196 563 203l31 147h135l-31 -147q250 -8 392 -135t142 -344q0 -297 -221 -494q-221 -196 -563 -203l-32 -154h-136zM475 359q112 -95 309 -99l198 930q-269 -7 -444 -168q-174 -161 -174 -403
q0 -165 111 -260zM1426 1091q-112 95 -309 99l-198 -930q270 7 445 168q174 161 174 403q0 165 -112 260z" />
    <glyph glyph-name="uni0425" unicode="&#x425;" horiz-adv-x="1386" 
d="M727 744l-338 699h156l282 -609h11l551 609h158l-659 -726l344 -717h-148l-295 618h-11l-558 -618h-157z" />
    <glyph glyph-name="uni0426" unicode="&#x426;" horiz-adv-x="1548" 
d="M1244 -285l61 285h-1154l309 1443h136l-280 -1318h821l281 1318h138l-281 -1319h183l-86 -409h-128z" />
    <glyph glyph-name="uni0427" unicode="&#x427;" horiz-adv-x="1380" 
d="M1041 0l150 704h-11q-178 -151 -419 -151q-226 0 -337 146q-110 145 -62 373l80 371h136l-79 -372q-37 -176 38 -282q77 -109 248 -109q144 0 270 64q109 55 174 141l119 558h137l-307 -1443h-137z" />
    <glyph glyph-name="uni0428" unicode="&#x428;" horiz-adv-x="1937" 
d="M459 1443h140l-282 -1319h566l281 1319h139l-281 -1319h565l281 1319h139l-307 -1443h-1548z" />
    <glyph glyph-name="uni0429" unicode="&#x429;" horiz-adv-x="2000" 
d="M1696 -285l61 285h-1604l307 1443h139l-281 -1319h565l281 1319h140l-281 -1319h565l281 1319h139l-281 -1319h183l-87 -409h-127z" />
    <glyph glyph-name="uni042A" unicode="&#x42a;" horiz-adv-x="1497" 
d="M367 0l281 1319h-340l27 124h478l-116 -544h307q201 0 324 -108q123 -107 123 -283q0 -207 -150 -354q-157 -154 -396 -154h-538zM672 777l-140 -655h360q179 0 298 105t119 261q0 139 -90 215q-88 74 -241 74h-306z" />
    <glyph glyph-name="uni042B" unicode="&#x42b;" horiz-adv-x="1709" 
d="M1333 0l307 1443h140l-307 -1443h-140zM457 777l-140 -655h360q179 0 299 105q118 105 118 261q0 141 -91 217q-87 72 -240 72h-306zM459 1443h140l-116 -544h307q199 0 322 -106q124 -108 124 -285q0 -208 -151 -355q-157 -153 -395 -153h-538z" />
    <glyph glyph-name="uni042C" unicode="&#x42c;" horiz-adv-x="1283" 
d="M457 777l-140 -655h360q179 0 299 105q118 105 118 261q0 141 -91 217q-87 72 -240 72h-306zM459 1443h140l-116 -544h307q199 0 322 -106q124 -108 124 -285q0 -208 -151 -355q-157 -153 -395 -153h-538z" />
    <glyph glyph-name="uni042D" unicode="&#x42d;" horiz-adv-x="1476" 
d="M344 92q-151 125 -164 319h140q15 -141 125 -228q108 -86 265 -86q219 0 382 162q161 159 212 418h-687l26 124h679q24 249 -88 397t-326 148q-172 0 -301 -95q-124 -91 -181 -249h-140q68 224 238 349q167 122 397 122q287 0 432 -199q150 -206 93 -556
q-44 -330 -245 -536q-208 -212 -507 -212q-204 0 -350 122z" />
    <glyph glyph-name="uni042E" unicode="&#x42e;" horiz-adv-x="2053" 
d="M1730 322q176 224 176 543q0 221 -122 353q-118 128 -308 128q-257 0 -431 -220q-174 -219 -174 -539q0 -227 122 -360q118 -130 309 -130q252 0 428 225zM753 801q61 297 256 481q202 191 477 191q241 0 400 -164q161 -166 161 -423q0 -379 -211 -645
q-215 -271 -534 -271q-252 0 -410 159q-163 164 -163 437q0 51 5 111h-299l-144 -677h-139l307 1443h140l-137 -642h291z" />
    <glyph glyph-name="uni042F" unicode="&#x42f;" horiz-adv-x="1330" 
d="M1101 687l134 634h-359q-179 0 -298 -101t-119 -252q0 -135 90 -209q87 -72 241 -72h311zM246 0h-179l536 587q-134 37 -210 132q-77 96 -77 229q0 202 150 345q157 150 396 150h539l-307 -1443h-140l120 565h-298q-10 0 -14 1z" />
    <glyph glyph-name="uni0430" unicode="&#x430;" horiz-adv-x="1146" 
d="M750 178q106 80 132 202l32 149l-321 -17q-152 -8 -235 -68q-83 -59 -83 -158q0 -83 65 -136q66 -53 170 -53q135 0 240 81zM234 65q-94 83 -94 208q0 156 119 246q120 91 341 101l337 16l17 81q8 42 8 64q0 92 -67 144q-68 52 -188 52q-106 0 -181 -45t-100 -122h-139
q33 130 151 207q117 78 280 78q171 0 274 -81q103 -80 103 -216q0 -39 -10 -89l-150 -709h-128l35 165h-12q-57 -84 -153 -133q-97 -50 -206 -50q-142 0 -237 83z" />
    <glyph glyph-name="uni0431" unicode="&#x431;" horiz-adv-x="1239" 
d="M1073 939q115 -123 115 -319q0 -270 -148 -449q-157 -189 -417 -189q-195 0 -314 124q-120 123 -120 323q0 145 67 383q91 320 219 461q154 169 432 177q44 0 152 6q133 8 246 49l-24 -117q-131 -48 -241 -53q-72 -8 -155 -8q-210 -6 -330 -129q-99 -102 -175 -333h12
q135 199 371 199q193 0 310 -125zM929 243q120 143 120 348q0 166 -82 260t-227 94q-185 0 -302 -148q-114 -144 -114 -360q0 -156 85 -246q84 -90 231 -90q170 0 289 142z" />
    <glyph glyph-name="uni0432" unicode="&#x432;" horiz-adv-x="1115" 
d="M364 1077h404q141 0 221 -64q79 -64 79 -173q0 -103 -70 -177q-67 -72 -176 -93l-2 -13q95 -12 150 -67q54 -56 54 -140q0 -152 -120 -249q-125 -101 -329 -101h-440zM375 501l-82 -390h303q132 0 212 66q79 63 79 164q0 160 -235 160h-277zM474 966l-75 -354h264
q123 0 198 63q70 59 70 147q0 144 -186 144h-271z" />
    <glyph glyph-name="uni0433" unicode="&#x433;" horiz-adv-x="945" 
d="M475 966l-206 -966h-134l229 1077h673l-23 -111h-539z" />
    <glyph glyph-name="uni0434" unicode="&#x434;" horiz-adv-x="1265" 
d="M1058 966h-471q-66 -246 -143 -503q-75 -251 -168 -340l-2 -12h602zM-58 -285l85 396h88q123 77 205 357q68 223 173 609h722l-205 -966h175l-85 -396h-124l61 285h-910l-61 -285h-124z" />
    <glyph glyph-name="uni0435" unicode="&#x435;" horiz-adv-x="1196" 
d="M314 98q-124 121 -124 326q0 294 159 483q158 188 402 188q172 0 286 -115q119 -120 119 -313q0 -87 -14 -154h-811q-5 -43 -5 -78q0 -162 91 -252q83 -81 214 -81q226 0 309 162h140q-38 -125 -158 -202q-126 -80 -300 -80q-189 0 -308 116zM1016 621q4 24 4 60
q0 127 -74 211q-79 87 -207 87q-138 0 -244 -99q-105 -98 -146 -259h667z" />
    <glyph glyph-name="uni0436" unicode="&#x436;" horiz-adv-x="1588" 
d="M1088 548l394 -548h-152l-362 502h-43l-107 -502h-132l107 502h-48l-549 -502h-172l622 572l-343 505h142l322 -474h47l101 474h132l-101 -474h44l525 474h169z" />
    <glyph glyph-name="uni0437" unicode="&#x437;" horiz-adv-x="1074" 
d="M848 80q-127 -99 -316 -99q-170 0 -277 92q-107 91 -112 239h130q5 -93 76 -152q73 -61 191 -61q129 0 216 66q86 66 88 166q4 171 -236 171h-167l26 111h167q114 0 189 55q73 55 75 139q5 169 -215 169q-232 0 -320 -214h-130q54 153 172 241q123 92 292 92
q162 0 252 -72t87 -195q-2 -98 -70 -170q-66 -69 -165 -86l-3 -12q87 -17 135 -74q50 -59 48 -149q-3 -157 -133 -257z" />
    <glyph glyph-name="uni0438" unicode="&#x438;" horiz-adv-x="1235" 
d="M135 0l229 1077h133l-185 -866h12l786 866h134l-229 -1077h-132l184 868h-12l-785 -868h-135z" />
    <glyph glyph-name="uni0439" unicode="&#x439;" horiz-adv-x="1235" 
d="M679 1538q-19 -88 21 -146q42 -60 130 -60q92 0 159 60q62 57 81 146h120q-29 -136 -121 -214q-99 -84 -251 -84q-139 0 -211 84q-73 84 -45 214h117zM135 0l229 1077h133l-185 -866h12l786 866h134l-229 -1077h-132l184 868h-12l-785 -868h-135z" />
    <glyph glyph-name="uni043A" unicode="&#x43a;" horiz-adv-x="1070" 
d="M534 552l429 -552h-156l-393 500h-39l-106 -500h-134l229 1077h134l-101 -472h39l557 472h171z" />
    <glyph glyph-name="uni043B" unicode="&#x43b;" horiz-adv-x="1180" 
d="M300 105q-89 -114 -233 -114q-30 0 -58 10l26 121q24 -8 52 -8q142 0 243 354q60 194 172 609h688l-229 -1077h-133l205 966h-435q-66 -246 -143 -503q-74 -254 -155 -358z" />
    <glyph glyph-name="uni043C" unicode="&#x43c;" horiz-adv-x="1523" 
d="M135 0l229 1077h156l234 -895h12l612 895h154l-229 -1077h-134l178 837h-14l-558 -816h-103l-214 816h-14l-178 -837h-131z" />
    <glyph glyph-name="uni043D" unicode="&#x43d;" horiz-adv-x="1215" 
d="M364 1077h134l-99 -462h592l99 462h134l-229 -1077h-134l107 504h-592l-107 -504h-134z" />
    <glyph glyph-name="uni043E" unicode="&#x43e;" horiz-adv-x="1237" 
d="M413 196q86 -95 230 -95q168 0 287 148q122 151 122 374q0 164 -83 259t-225 95q-186 0 -302 -155q-113 -150 -113 -380q0 -153 84 -246zM310 106q-120 123 -120 322q0 282 153 470q159 197 413 197q196 0 316 -123t120 -321q0 -278 -152 -468q-159 -201 -413 -201
q-196 0 -317 124z" />
    <glyph glyph-name="uni043F" unicode="&#x43f;" horiz-adv-x="1205" 
d="M1057 966h-582l-206 -966h-134l229 1077h850l-229 -1077h-134z" />
    <glyph glyph-name="uni0440" unicode="&#x440;" horiz-adv-x="1263" 
d="M968 264q122 162 122 394q0 149 -76 234q-77 85 -211 85q-186 0 -312 -166q-123 -160 -123 -381q0 -152 80 -240q81 -89 218 -89q179 0 302 163zM56 -371l308 1448h127l-39 -184h12q136 202 379 202q166 0 275 -117q109 -118 109 -301q0 -289 -160 -491
q-161 -204 -393 -204q-130 0 -224 73q-94 72 -117 189h-12l-133 -615h-132z" />
    <glyph glyph-name="uni0441" unicode="&#x441;" horiz-adv-x="1169" 
d="M1034 759q-14 92 -92 154q-81 63 -189 63q-189 0 -310 -155q-115 -148 -115 -363q0 -169 78 -263q80 -96 226 -96q108 0 196 61q80 56 123 148h141q-58 -146 -176 -234q-127 -93 -290 -93q-211 0 -324 127q-110 123 -110 341q0 264 154 450q161 195 411 195
q170 0 288 -102q110 -97 123 -233h-134z" />
    <glyph glyph-name="uni0442" unicode="&#x442;" horiz-adv-x="985" 
d="M1086 966h-363l-206 -966h-134l206 966h-363l23 111h860z" />
    <glyph glyph-name="uni0443" unicode="&#x443;" horiz-adv-x="1099" 
d="M77 -364l20 114q37 -11 85 -11q116 0 220 188l40 72l-179 1078h131l143 -913h12l515 913h145l-691 -1193q-86 -149 -165 -205q-72 -52 -179 -52q-43 0 -97 9z" />
    <glyph glyph-name="uni0444" unicode="&#x444;" horiz-adv-x="1540" 
d="M582 -371l75 352q-211 8 -339 131q-132 125 -132 329q0 276 187 458q196 191 520 196l77 358h131l-77 -358q211 -8 339 -131q132 -126 132 -330q0 -276 -187 -458q-196 -191 -520 -195l-75 -352h-131zM1261 880q-95 94 -261 99l-187 -882q248 8 400 161q145 146 145 360
q0 167 -97 262zM421 195q95 -93 260 -98l188 882q-249 -9 -400 -162q-145 -146 -145 -360q0 -166 97 -262z" />
    <glyph glyph-name="uni0445" unicode="&#x445;" horiz-adv-x="1069" 
d="M583 436l-384 -436h-157l495 546l-269 531h143l209 -432h12l382 432h158l-493 -539l268 -538h-138l-214 436h-12z" />
    <glyph glyph-name="uni0446" unicode="&#x446;" horiz-adv-x="1264" 
d="M974 -285l61 285h-900l229 1077h134l-206 -966h582l206 966h134l-206 -966h174l-84 -396h-124z" />
    <glyph glyph-name="uni0447" unicode="&#x447;" horiz-adv-x="1125" 
d="M798 0l108 509h-13q-136 -116 -301 -116q-172 0 -255 110q-82 109 -44 289l60 285h134l-61 -288q-28 -132 21 -203q51 -75 179 -75q188 0 312 149l89 417h134l-229 -1077h-134z" />
    <glyph glyph-name="uni0448" unicode="&#x448;" horiz-adv-x="1677" 
d="M364 1077h135l-206 -966h460l205 966h134l-205 -966h460l205 966h134l-229 -1077h-1322z" />
    <glyph glyph-name="uni0449" unicode="&#x449;" horiz-adv-x="1737" 
d="M1447 -285l61 285h-1373l229 1077h135l-206 -966h460l205 966h134l-205 -966h460l205 966h134l-205 -966h174l-84 -396h-124z" />
    <glyph glyph-name="uni044A" unicode="&#x44a;" horiz-adv-x="1211" 
d="M302 0l205 966h-287l23 111h422l-78 -366h228q155 0 244 -79q86 -77 86 -206q0 -184 -130 -303q-134 -123 -351 -123h-362zM563 599l-104 -488h228q146 0 237 90q87 86 87 210q0 90 -57 139t-163 49h-228z" />
    <glyph glyph-name="uni044B" unicode="&#x44b;" horiz-adv-x="1406" 
d="M1281 1077h134l-229 -1077h-134zM396 599l-103 -488h224q146 0 237 90q87 86 87 210q0 90 -57 139q-56 49 -162 49h-226zM364 1077h134l-78 -366h226q155 0 243 -79q86 -77 86 -206q0 -184 -129 -303q-134 -123 -352 -123h-359z" />
    <glyph glyph-name="uni044C" unicode="&#x44c;" horiz-adv-x="1041" 
d="M396 599l-103 -488h224q146 0 237 90q87 86 87 210q0 90 -57 139q-56 49 -162 49h-226zM364 1077h134l-78 -366h226q155 0 243 -79q86 -77 86 -206q0 -184 -129 -303q-134 -123 -352 -123h-359z" />
    <glyph glyph-name="uni044D" unicode="&#x44d;" horiz-adv-x="1185" 
d="M231 759q53 154 175 244q127 92 298 92q193 0 310 -119q118 -120 118 -320q0 -286 -154 -477q-160 -198 -415 -198q-179 0 -290 96q-104 90 -114 231h132q13 -92 87 -150q76 -59 190 -59q160 0 273 113q110 109 141 289h-525l24 112h513q1 8 1 26q2 155 -81 246
q-82 91 -226 91q-229 0 -324 -217h-133z" />
    <glyph glyph-name="uni044E" unicode="&#x44e;" horiz-adv-x="1669" 
d="M741 106q-119 123 -119 322q0 43 4 76h-250l-107 -504h-134l229 1077h134l-99 -462h243q47 214 187 344q146 136 352 136q193 0 312 -123q118 -123 118 -321q0 -278 -150 -468q-158 -201 -409 -201q-192 0 -311 124zM1351 249q120 152 120 374q0 164 -81 259t-221 95
q-182 0 -298 -157q-112 -153 -112 -383q0 -152 83 -244q85 -92 227 -92q165 0 282 148z" />
    <glyph glyph-name="uni044F" unicode="&#x44f;" horiz-adv-x="1076" 
d="M836 518l95 448h-231q-145 0 -234 -75q-86 -73 -86 -184q0 -189 226 -189h230zM812 407h-212l-377 -407h-170l404 431q-101 26 -156 95q-55 70 -55 173q0 163 123 267q130 111 354 111h365l-229 -1077h-134z" />
    <glyph glyph-name="uni0451" unicode="&#x451;" horiz-adv-x="1196" 
d="M314 98q-124 121 -124 326q0 294 159 483q158 188 402 188q172 0 286 -115q119 -120 119 -313q0 -87 -14 -154h-811q-5 -43 -5 -78q0 -162 91 -252q83 -81 214 -81q226 0 309 162h140q-38 -125 -158 -202q-126 -80 -300 -80q-189 0 -308 116zM1016 621q4 24 4 60
q0 127 -74 211q-79 87 -207 87q-138 0 -244 -99q-105 -98 -146 -259h667zM545 1258q-30 29 -30 72t30 72q30 30 72 30q43 0 73 -30q30 -29 30 -72t-30 -72q-30 -30 -73 -30q-42 0 -72 30zM909 1258q-30 29 -30 72t30 72q29 30 72 30q42 0 72 -30q30 -29 30 -72t-30 -72
q-30 -30 -72 -30q-43 0 -72 30z" />
    <glyph glyph-name="uni0452" unicode="&#x452;" horiz-adv-x="1257" 
d="M482 906q138 189 360 189q149 0 245 -91q100 -94 100 -248q0 -53 -11 -105l-160 -751q-32 -148 -106 -213q-75 -67 -214 -65l-81 1l28 124l46 -1q159 -5 195 167l153 720q10 53 10 87q2 120 -69 190q-70 67 -190 67q-136 0 -235 -85q-102 -88 -136 -244l-138 -648h-134
l275 1285h-149l21 98h149l26 123h132l-26 -123h254l-20 -98h-256l-81 -379h12z" />
    <glyph glyph-name="uni0453" unicode="&#x453;" horiz-adv-x="956" 
d="M922 1594h169l-340 -327h-149zM482 966l-206 -966h-134l229 1077h673l-23 -111h-539z" />
    <glyph glyph-name="uni0454" unicode="&#x454;" horiz-adv-x="1169" 
d="M1092 308q-58 -146 -176 -234q-127 -93 -290 -93q-211 0 -324 127q-110 123 -110 341q0 264 154 450q161 195 411 195q170 0 288 -102q110 -97 123 -233h-134q-14 92 -92 154q-81 63 -189 63q-152 0 -263 -103q-107 -99 -143 -258h527l-23 -111h-520q-3 -19 -3 -40
q-2 -171 76 -267q80 -98 228 -98q108 0 196 61q80 56 123 148h141z" />
    <glyph glyph-name="uni0455" unicode="&#x455;" horiz-adv-x="1070" 
d="M270 281q19 -84 95 -135q78 -52 190 -52q121 0 200 55q78 55 78 141q0 116 -171 175l-143 48q-248 83 -248 273q0 136 112 223q111 86 280 86q161 0 267 -79q105 -77 123 -205h-130q-15 77 -87 125q-73 47 -177 47q-110 0 -182 -53q-73 -53 -73 -132q0 -111 174 -170
l129 -43q137 -47 199 -114q62 -68 62 -172q0 -138 -119 -227q-119 -90 -300 -90q-173 0 -288 83t-126 216h135z" />
    <glyph glyph-name="uni0456" unicode="&#x456;" horiz-adv-x="509" 
d="M379 1077h133l-230 -1077h-134zM444 1346q-28 28 -28 69q0 40 28 68q29 29 69 29t69 -29q28 -28 28 -68q0 -41 -28 -69q-29 -29 -69 -29t-69 29z" />
    <glyph glyph-name="uni0457" unicode="&#x457;" horiz-adv-x="506" 
d="M393 1077h131l-229 -1077h-131zM257 1258q-30 29 -30 72t30 72q30 30 72 30q43 0 73 -30q30 -29 30 -72t-30 -72q-30 -30 -73 -30q-42 0 -72 30zM621 1258q-30 29 -30 72t30 72q29 30 72 30q42 0 72 -30q30 -29 30 -72t-30 -72q-30 -30 -72 -30q-43 0 -72 30z" />
    <glyph glyph-name="uni0458" unicode="&#x458;" horiz-adv-x="507" 
d="M259 -103q-30 -144 -110 -210q-78 -64 -214 -64q-37 0 -76 3l25 117q30 -3 55 -3q83 0 127 40q45 40 65 134l247 1163h131zM443 1346q-29 29 -29 69t29 68q28 29 68 29t69 -29q29 -28 29 -68t-29 -69q-28 -29 -69 -29q-40 0 -68 29z" />
    <glyph glyph-name="uni0459" unicode="&#x459;" horiz-adv-x="1732" 
d="M9 1l26 121q24 -8 52 -8q142 0 243 354q60 194 172 609h688l-78 -366h226q155 0 243 -79q86 -77 86 -206q0 -184 -129 -303q-134 -123 -352 -123h-359l205 966h-434q-66 -246 -143 -503q-74 -254 -155 -358q-89 -114 -233 -114q-30 0 -58 10zM1089 599l-104 -488h224
q146 0 237 90q87 86 87 210q0 90 -57 139q-56 49 -162 49h-225z" />
    <glyph glyph-name="uni045A" unicode="&#x45a;" horiz-adv-x="1760" 
d="M1243 111q136 0 224 71q84 68 84 167q0 82 -55 127q-55 43 -154 43h-243l-87 -408h231zM135 0l229 1077h134l-95 -447h586l95 447h134l-95 -446h243q146 0 234 -74q85 -73 85 -186q0 -163 -128 -266q-130 -105 -338 -105h-364l110 519h-586l-110 -519h-134z" />
    <glyph glyph-name="uni045B" unicode="&#x45b;" horiz-adv-x="1256" 
d="M481 895q132 200 356 200q156 0 255 -96q95 -92 95 -230q0 -60 -12 -116l-139 -653h-133l134 630q12 59 12 104q0 110 -71 176q-72 67 -193 67q-137 0 -239 -91q-98 -88 -127 -224l-141 -662h-133l275 1285h-149l21 98h149l26 123h133l-26 -123h253l-20 -98h-254
l-84 -390h12z" />
    <glyph glyph-name="uni045C" unicode="&#x45c;" horiz-adv-x="1070" 
d="M798 1267h-149l320 327h169zM534 552l429 -552h-156l-393 500h-39l-106 -500h-134l229 1077h134l-101 -472h39l557 472h171z" />
    <glyph glyph-name="uni045E" unicode="&#x45e;" horiz-adv-x="1099" 
d="M610 1538q-19 -88 21 -146q42 -60 130 -60q92 0 159 60q62 57 81 146h120q-29 -136 -121 -214q-99 -84 -251 -84q-139 0 -211 84q-73 84 -45 214h117zM77 -364l20 114q37 -11 85 -11q116 0 220 188l40 72l-179 1078h131l143 -913h12l515 913h145l-691 -1193
q-86 -149 -165 -205q-72 -52 -179 -52q-43 0 -97 9z" />
    <glyph glyph-name="uni045F" unicode="&#x45f;" horiz-adv-x="1205" 
d="M622 0l-61 -285h-124l61 285h-363l229 1077h134l-206 -966h582l206 966h134l-229 -1077h-363z" />
    <glyph glyph-name="uni0490" unicode="&#x490;" horiz-adv-x="1158" 
d="M292 0h-140l307 1443h723l58 273h127l-84 -397h-710z" />
    <glyph glyph-name="uni0491" unicode="&#x491;" horiz-adv-x="945" 
d="M475 966l-206 -966h-134l229 1077h549l58 274h124l-81 -385h-539z" />
    <glyph glyph-name="uni0E3F" unicode="&#xe3f;" horiz-adv-x="1321" 
d="M657 121q170 0 282 93q109 91 109 226q0 115 -75 179q-77 65 -223 69l-121 -567h28zM525 121l121 567h-231l-121 -567h231zM440 807h231l110 515h-232zM775 808q156 7 251 89q94 81 94 207q0 194 -236 216zM926 743q120 -21 192 -98q74 -80 74 -194q0 -195 -147 -322
q-149 -129 -384 -129h-58l-32 -153h-104l33 153h-371l307 1443h371l33 156h103l-33 -157q162 -8 257 -93q94 -85 94 -217q0 -144 -92 -247q-91 -103 -240 -129z" />
    <glyph glyph-name="uni1E00" unicode="&#x1e00;" horiz-adv-x="1363" 
d="M1044 443h-608l-254 -443h-149l851 1443h128l233 -1443h-134zM502 560h527l-110 702h-13zM422 -488q-62 61 -62 150q0 88 62 149t150 61q89 0 151 -61t62 -149q0 -89 -62 -150t-151 -61q-88 0 -150 61zM661 -428q36 37 36 90t-36 89t-89 36t-88 -36q-36 -36 -36 -89
t36 -90q36 -36 88 -36q53 0 89 36z" />
    <glyph glyph-name="uni1E01" unicode="&#x1e01;" horiz-adv-x="1126" 
d="M740 178q106 80 132 202l32 149l-321 -17q-152 -8 -235 -68q-83 -59 -83 -158q0 -83 65 -136q66 -53 170 -53q135 0 240 81zM224 65q-94 83 -94 208q0 156 119 246q120 91 341 101l337 16l17 81q8 42 8 64q0 92 -67 144q-68 52 -188 52q-106 0 -181 -45t-100 -122h-139
q33 130 151 207q117 78 280 78q171 0 274 -81q103 -80 103 -216q0 -39 -10 -89l-150 -709h-128l35 165h-12q-57 -84 -153 -133q-97 -50 -206 -50q-142 0 -237 83zM329 -488q-62 61 -62 150q0 88 62 149t150 61q89 0 151 -61t62 -149q0 -89 -62 -150t-151 -61q-88 0 -150 61z
M568 -428q36 37 36 90t-36 89t-89 36t-88 -36q-36 -36 -36 -89t36 -90q36 -36 88 -36q53 0 89 36z" />
    <glyph glyph-name="uni1E02" unicode="&#x1e02;" horiz-adv-x="1324" 
d="M835 1609q-31 31 -31 74q0 44 31 74q31 31 74 31t73 -31q31 -31 31 -74t-31 -74q-30 -30 -73 -30q-44 0 -74 30zM142 0l307 1443h480q182 0 292 -86q108 -86 108 -225q0 -144 -92 -247q-91 -103 -240 -129l-3 -13q123 -20 195 -98q71 -78 71 -194q0 -195 -151 -322
q-153 -129 -394 -129h-573zM453 807h347q170 0 278 83q109 83 109 214q0 104 -77 160q-79 58 -229 58h-319zM711 121q175 0 291 93q114 91 114 226q0 119 -85 183q-85 65 -247 65h-357l-120 -567h404z" />
    <glyph glyph-name="uni1E03" unicode="&#x1e03;" horiz-adv-x="1257" 
d="M497 1670q-31 31 -31 74q0 44 31 74q31 31 74 31t73 -31q31 -31 31 -74t-31 -74q-30 -30 -73 -30q-44 0 -74 30zM451 55q-99 74 -125 189h-12l-53 -244h-126l320 1506h131l-129 -613h13q133 202 371 202q167 0 276 -117q110 -118 110 -301q0 -290 -158 -491
q-160 -204 -392 -204q-128 0 -226 73zM969 264q121 162 121 394q0 149 -78 234t-213 85q-189 0 -314 -171q-117 -161 -117 -376q0 -151 82 -240q81 -89 219 -89q178 0 300 163z" />
    <glyph glyph-name="uni1E04" unicode="&#x1e04;" horiz-adv-x="1324" 
d="M469 -331q-31 31 -31 74t31 73q30 31 73 31t74 -31q31 -30 31 -73t-31 -74q-30 -31 -74 -31q-43 0 -73 31zM142 0l307 1443h480q182 0 292 -86q108 -86 108 -225q0 -144 -92 -247q-91 -103 -240 -129l-3 -13q123 -20 195 -98q71 -78 71 -194q0 -195 -151 -322
q-153 -129 -394 -129h-573zM453 807h347q170 0 278 83q109 83 109 214q0 104 -77 160q-79 58 -229 58h-319zM711 121q175 0 291 93q114 91 114 226q0 119 -85 183q-85 65 -247 65h-357l-120 -567h404z" />
    <glyph glyph-name="uni1E05" unicode="&#x1e05;" horiz-adv-x="1257" 
d="M483 -333q-31 31 -31 74t31 73q30 31 73 31t74 -31q31 -30 31 -73t-31 -74q-30 -31 -74 -31q-43 0 -73 31zM451 55q-99 74 -125 189h-12l-53 -244h-126l320 1506h131l-129 -613h13q133 202 371 202q167 0 276 -117q110 -118 110 -301q0 -290 -158 -491
q-160 -204 -392 -204q-128 0 -226 73zM969 264q121 162 121 394q0 149 -78 234t-213 85q-189 0 -314 -171q-117 -161 -117 -376q0 -151 82 -240q81 -89 219 -89q178 0 300 163z" />
    </font>
</defs>
</svg>
