<?xml version="1.0" standalone="no"?>
<!DOCTYPE svg PUBLIC "-//W3C//DTD SVG 1.1//EN" "http://www.w3.org/Graphics/SVG/1.1/DTD/svg11.dtd" >
<svg xmlns="http://www.w3.org/2000/svg" xmlns:xlink="http://www.w3.org/1999/xlink" version="1.1">
<metadata>
Created by FontForge 20170731 at Thu Apr  9 09:14:07 2020
 By Aleksey,,,
Copyright 2011 The Balsamiq Sans Project Authors (https://github.com/balsamiq/balsamiqsans)
</metadata>
<defs>
<font id="BalsamiqSans-BoldItalic" horiz-adv-x="0" >
  <font-face 
    font-family="Balsamiq Sans"
    font-weight="700"
    font-style="italic"
    font-stretch="normal"
    units-per-em="1000"
    panose-1="2 0 6 3 0 0 0 0 0 0"
    ascent="800"
    descent="-200"
    x-height="521"
    cap-height="723"
    bbox="-346 -293 1316.67 1207"
    underline-thickness="50"
    underline-position="-150"
    slope="-12"
    unicode-range="U+000D-FB02"
  />
<missing-glyph horiz-adv-x="464" 
d="M234 666h265l-141 -666h-265zM332 33l127 600h-199l-127 -600h199z" />
    <glyph glyph-name="fi" unicode="fi" horiz-adv-x="574" 
d="M109 0q-32 0 -48 24.5t-9 60.5l9 38q11 48 13 57l22 108l4 20t4 19q4 18 10 52h-12q-20 0 -36 14.5t-16 38.5q0 21 12 40.5t29.5 31t32.5 11.5h11l5 26q12 62 52.5 109.5t99 73t122.5 25.5q72 0 117 -22.5t45 -62.5q0 -34 -25 -57.5t-57 -23.5q-13 0 -23 3.5t-21 9.5
t-21 11q-27 12 -61 12q-36 0 -59.5 -20t-29.5 -53l-5 -27l43 -1q28 -1 42.5 -16t14.5 -37q0 -33 -25.5 -59.5t-64.5 -26.5h-31q-13 -68 -22 -113l-21 -102q-14 -68 -22 -96q-9 -30 -29.5 -49t-49.5 -19v0zM397 0q-30 0 -46 24.5t-9 63.5l24 118q18 90 59 259q8 32 31.5 49
t51.5 17q31 0 47.5 -20.5t8.5 -51.5q-17 -70 -37 -164l-21 -92q-4 -18 -7.5 -36.5t-7.5 -36.5l-12 -56q-8 -34 -29.5 -54t-52.5 -20v0z" />
    <glyph glyph-name="fl" unicode="fl" horiz-adv-x="583" 
d="M108 0q-32 0 -47.5 23t-9.5 59q4 22 22 98q14 72 22 108l4 20t4 19q4 18 10 52h-12q-21 0 -36 15t-15 39q0 21 11.5 40t29 30.5t32.5 11.5h11l5 26q13 59 53 104t97.5 69.5t121.5 24.5q88 0 140 -28.5t52 -80.5q0 -11 -3 -25l-31 -151q-2 -9 -4 -19l-4 -20
q-20 -93 -30 -139l-15 -70q-21 -103 -30 -138q-9 -34 -30 -51t-48 -17q-32 0 -48.5 22.5t-10.5 58.5q0 1 8 35l15 71l11 48q14 56 33 148l8 40q30 140 43 217l34 -70q-7 3 -20 14q-22 17 -43.5 26t-60.5 9q-42 0 -66.5 -19.5t-31.5 -53.5l-6 -27l43 -1q27 -1 41.5 -16.5
t14.5 -37.5q0 -33 -25.5 -59t-64.5 -26h-30q-13 -68 -22 -113l-8 -40q-9 -46 -13 -62q-10 -50 -22 -91q-9 -33 -28.5 -53t-50.5 -20v0z" />
    <glyph glyph-name="f_f" unicode="ff" horiz-adv-x="671" 
d="M119 0q-31 0 -47.5 23.5t-9.5 57.5l15 66l8 33l39 190h-22q-22 0 -38 15t-16 36q0 31 24.5 55t56.5 24h14l6 26q16 64 64 115q31 33 72 53t90 20q46 0 82 -13.5t73 -40.5l-80 -89q-40 23 -84 23q-34 0 -54.5 -16.5t-28.5 -51.5l-6 -26l79 -1l68 1l10 48q16 79 69 128
t127 49q57 0 96 -19.5t39 -53.5q0 -29 -19.5 -48.5t-46.5 -20.5q-12 -1 -36 5q-19 6 -38 6q-44 0 -57 -46q-3 -10 -9 -48h53q27 0 42.5 -14.5t15.5 -36.5q0 -32 -25.5 -55.5t-63.5 -23.5h-40l-21 -104q-24 -119 -41 -193q-7 -33 -29 -53t-50 -20q-33 0 -48.5 23t-9.5 56
q11 56 27 124l19 85l17 82h-144l-9 -37l-14 -65q-10 -52 -42 -196q-17 -72 -77 -72v0z" />
    <glyph glyph-name="f_f_i" unicode="ffi" horiz-adv-x="867" 
d="M403 0q-34 0 -50 24.5t-7 62.5l7 31q8 34 14 62q6 36 11 54l11 54l17 82h-12q-24 0 -40.5 18t-10.5 47q6 27 28 46.5t43 19.5h11l9 40q13 60 54 106.5t100 71.5t123 25q78 0 122 -25.5t35 -69.5q-6 -28 -29 -47t-51 -19q-16 0 -27 3.5t-30 13.5q-17 9 -31 14t-33 5
q-37 0 -61.5 -18t-32.5 -55l-9 -41l49 -1q33 -1 47 -20.5t8 -46.5q-6 -29 -29.5 -48t-57.5 -19h-36q-6 -32 -8 -43l-13 -61l-12 -60q-3 -14 -8 -42l-6 -28q-4 -17 -8 -35t-9 -37q-8 -30 -28.5 -47t-49.5 -17v0zM122 0q-32 0 -47.5 23t-8.5 56l12 53q8 32 11 48q8 36 11 54
l11 54l17 82h-22q-26 0 -44.5 18t-12.5 46q6 26 28 46.5t43 20.5h27l6 25q11 52 44.5 96.5t82.5 71t103 26.5q39 0 67.5 -8.5t42.5 -17t42 -28.5l-82 -93q-7 1 -28 11q-15 8 -27.5 12t-26.5 4q-68 0 -83 -69l-7 -30l203 -1l-29 -130h-192l-8 -40q-3 -15 -6 -31t-7 -33
l-12 -60q-2 -14 -8 -42l-6 -27l-16 -69q-7 -30 -27 -49t-51 -19v0zM693 0q-32 0 -49.5 22t-10.5 57q9 44 27 127q38 176 59 259q8 32 31.5 49t51.5 17q30 0 47 -19t8 -53q-29 -109 -58 -256l-27 -133q-7 -32 -28.5 -51t-50.5 -19v0z" />
    <glyph glyph-name=".notdef" horiz-adv-x="464" 
d="M234 666h265l-141 -666h-265zM332 33l127 600h-199l-127 -600h199z" />
    <glyph glyph-name=".null" 
 />
    <glyph glyph-name="nonmarkingreturn" unicode="&#xd;" horiz-adv-x="333" 
 />
    <glyph glyph-name="space" unicode=" " horiz-adv-x="270" 
 />
    <glyph glyph-name="exclam" unicode="!" horiz-adv-x="260" 
d="M139 634q6 29 31 49.5t54 20.5t45 -20.5t10 -49.5l-86 -408q-7 -29 -31 -49.5t-53.5 -21t-45.5 19.5t-11 49zM144 96q17 -20 10.5 -49t-31 -49.5t-53.5 -20.5t-45.5 20.5t-10 49.5t31 49.5t53.5 20.5t45 -21v0z" />
    <glyph glyph-name="quotedbl" unicode="&#x22;" horiz-adv-x="436" 
d="M234 469q-7 -28 -32 -48t-53.5 -19.5t-44 21.5t-9.5 50q21 90 36 166q6 29 30.5 49.5t53.5 21t45.5 -19.5t11.5 -49q-16 -78 -38 -172v0zM399 472q-7 -28 -32.5 -48t-53.5 -19.5t-43.5 21.5t-9.5 50q21 90 36 166q6 29 30.5 49.5t53.5 21t45.5 -19.5t10.5 -49
q-15 -78 -37 -172v0z" />
    <glyph glyph-name="numbersign" unicode="#" horiz-adv-x="643" 
d="M459 62q-9 -29 -35 -47t-54.5 -15t-42 25t-3.5 51q13 43 25 88h-66q-15 -52 -29 -95q-9 -29 -35.5 -47t-54.5 -14.5t-41.5 26t-2.5 51.5q11 36 23 75q-19 0 -39 -1q-29 -1 -45.5 19t-11.5 49t29.5 50t53.5 22q27 1 51 1l14 57l10 37q-8 -1 -16 -1q-29 0 -45 20t-10.5 49
t30 49.5t53.5 21.5h28q15 54 33 105q10 29 37 46.5t54.5 13.5t40 -27t2.5 -51q-13 -40 -26 -83q29 1 52 1q12 54 23 97q9 29 34 48.5t53.5 18t43.5 -22.5t8 -50q-11 -41 -22 -90q24 -1 46 -1q29 -1 44.5 -22t8 -50t-32.5 -49t-54 -19q-22 1 -44 1q-7 -29 -11 -50
q-5 -24 -11 -45q25 -1 49 -1q29 -1 44.5 -21.5t9 -49.5t-32 -49t-53.5 -20q-26 1 -52 1q-15 -53 -30 -102v0zM321 303q32 1 64 1l10 47q5 20 11 48q-26 -1 -60 -2l-12 -47l-13 -47v0z" />
    <glyph glyph-name="dollar" unicode="$" horiz-adv-x="659" 
d="M312 -48q-7 -29 -26 -47.5t-45 -18t-36 16.5t0 59l25 106l59 262l14 80l72 337q11 21 28.5 32t39.5 11q25 0 36 -14.5t8 -40.5l-27 -116l-64 -291l-76 -344l-8 -32v0zM288 -27q-118 0 -177 50t-59 131q0 59 25.5 88t60.5 29q23 0 40 -13.5t17 -38.5q0 -2 -3 -38l-2 -20
q0 -23 28.5 -39t83.5 -16q35 0 67.5 12t52.5 32t20 42q0 18 -14.5 34t-50.5 31l-39 15q-17 6 -37 13.5t-42 16.5q-150 61 -150 179q0 59 39 111t103 83t136 31q106 0 173 -51t67 -143q0 -49 -21 -75.5t-56 -26.5q-31 0 -49.5 16t-18.5 43q0 26 -1 36.5t-9 20.5
q-14 18 -44.5 31.5t-71.5 14.5q-49 0 -77 -20t-28 -47q0 -26 21.5 -41t81.5 -40q16 -6 24 -10q58 -22 98 -42q57 -28 83.5 -64t26.5 -92q0 -68 -44.5 -123.5t-114 -87.5t-139.5 -32v0v0z" />
    <glyph glyph-name="percent" unicode="%" horiz-adv-x="945" 
d="M307 20q-20 -26 -49 -34.5t-52 5t-25.5 41t15.5 52.5l468 619q18 26 47.5 34.5t53 -4.5t26 -40.5t-16.5 -53.5l-467 -619v0zM285 483q13 4 29.5 21.5t25.5 40.5q6 18 4 27q-2 5 -13 8l-9 -2q-4 -1 -10 -3q-8 -5 -21 -12l-20 -12l-12 -7q-16 -21 -4 -46q11 -21 30 -15v0z
M301 351q-61 -19 -108 1q-46 21 -69 65q-13 27 -16 59t9 69q11 37 37 69q23 29 63 53l9 5q23 28 56 33q5 1 14 3q21 5 22 5q40 10 70 3q71 -16 92 -77q17 -51 -7 -116q-21 -55 -67 -104.5t-105 -67.5v0zM683 136q8 0 23 8t28 22q16 18 8 29q-2 3 -14 7l-51 18
q-23 -14 -28 -34.5t5.5 -35t28.5 -14.5v0zM656 -4q-49 0 -84 19t-50.5 49t-16 69t13.5 77t43.5 73t69.5 57q26 14 60 21l20 4q7 1 12 2q24 7 44 -2t28 -29l3 -2q46 -15 67 -45q21 -32 21 -70t-14 -70q-15 -32 -40 -60q-34 -39 -82 -65q-48 -27 -95 -28v0z" />
    <glyph glyph-name="ampersand" unicode="&#x26;" horiz-adv-x="672" 
d="M510 -2q-33 0 -63 34l-97 111q-76 88 -126 180t-50 178q0 63 34 114.5t88 81t113 29.5q67 0 102.5 -33.5t35.5 -79.5q0 -66 -51 -121q-30 -32 -72.5 -65.5t-111.5 -78.5q-65 -42 -101 -79.5t-36 -77.5q0 -27 16.5 -42.5t44.5 -15.5q34 0 58.5 15.5t63.5 53.5l18 17
q27 24 61 74l19 28q13 20 33 32t41 12q24 0 39.5 -16.5t15.5 -40.5q0 -26 -15 -53.5t-33 -47.5t-59 -64q-66 -70 -130.5 -106.5t-135.5 -36.5q-53 0 -93 20.5t-62.5 56.5t-22.5 81q0 80 52 144.5t167 136.5q88 55 115 77q32 23 32 50q0 13 -8 20.5t-23 7.5q-26 0 -40 -17.5
t-14 -45.5q0 -38 26 -95t63 -112l15 -22q35 -50 48 -63l102 -106q14 -14 18.5 -25t4.5 -27q0 -36 -24 -59.5t-58 -23.5v0z" />
    <glyph glyph-name="quotesingle" unicode="'" horiz-adv-x="224" 
d="M201 392q-22 -20 -49.5 -22t-44 16.5t-13.5 45.5q13 82 43 225q6 27 29.5 46.5t50.5 19.5t42.5 -19.5t9.5 -46.5q-29 -139 -41 -217q-4 -27 -27 -48v0z" />
    <glyph glyph-name="parenleft" unicode="(" horiz-adv-x="359" 
d="M75 -156l-7 20q-4 10 -6 17q-14 36 -19 64q-19 89 -7 188.5t50 195t88 181.5t112 167q20 25 49.5 33t51.5 -6t24 -42t-17 -53q-58 -76 -101 -148q-44 -76 -74.5 -155t-40.5 -158.5t4 -148.5q4 -19 15 -48l21 -56q9 -26 -5 -53.5t-42.5 -41.5t-54.5 -6t-34 33z" />
    <glyph glyph-name="parenright" unicode=")" horiz-adv-x="346" 
d="M73 -164q-19 -26 -48 -35.5t-52.5 3t-27 39.5t13.5 53q78 111 122.5 196t62.5 161q38 150 -17 352q-6 26 9 53t43.5 39.5t53.5 3t33 -35.5q32 -118 36.5 -218.5t-19.5 -198.5q-24 -95 -75.5 -193.5t-134.5 -218.5v0z" />
    <glyph glyph-name="asterisk" unicode="*" horiz-adv-x="467" 
d="M246 373q-23 -23 -52.5 -25.5t-48.5 15.5t-15 47t26 51l27 26l-35 14q-25 9 -31.5 35.5t9 53.5t44.5 39t54 2l25 -9l5 31q6 29 30.5 49.5t53.5 21t45.5 -19.5t11.5 -49l-4 -16l15 5q30 8 53 -5t25.5 -41t-16 -53.5t-48.5 -34.5l29 -30q16 -20 11.5 -48.5t-28.5 -50
t-53 -23t-47 17.5l-38 43l-48 -46v0z" />
    <glyph glyph-name="plus" unicode="+" horiz-adv-x="628" 
d="M223 195q-48 -1 -111 -3q-29 -1 -45.5 19t-11.5 49t29.5 50t53.5 22l113 2l22 102q7 29 32 49t54 19.5t44.5 -21t9.5 -49.5q-11 -45 -23 -100l130 -2q29 -1 44 -22t8.5 -50t-32 -48.5t-54.5 -19.5q-66 2 -124 3q-15 -74 -24 -118q-6 -29 -31 -49.5t-54 -20.5t-45 20.5
t-10 49.5z" />
    <glyph glyph-name="comma" unicode="," horiz-adv-x="222" 
d="M-40 -187q-23 0 -38 15t-15 37q0 26 19 49l17 19q25 27 33 40q3 4 21 41q4 8 7.5 16t7.5 16q25 44 67 44q24 0 38.5 -14.5t14.5 -38.5q0 -33 -37 -98q-30 -53 -57 -84q-36 -42 -78 -42v0z" />
    <glyph glyph-name="hyphen" unicode="-" horiz-adv-x="409" 
d="M107 200q-29 0 -45 20.5t-10 49.5t31 49.5t54 20.5h167q29 0 45 -20.5t10 -49.5t-31 -49.5t-54 -20.5h-167v0z" />
    <glyph glyph-name="period" unicode="." horiz-adv-x="220" 
d="M134 124q18 -22 11 -53t-33.5 -53t-57.5 -22t-48.5 22t-10.5 53t33.5 53t57 22t48.5 -22v0z" />
    <glyph glyph-name="slash" unicode="/" horiz-adv-x="478" 
d="M157 48q-14 -28 -42 -42t-54.5 -6t-35 33t5.5 53l336 586q13 28 41 43.5t54.5 8.5t36.5 -31.5t-2 -52.5l-340 -592v0z" />
    <glyph glyph-name="zero" unicode="0" horiz-adv-x="603" 
d="M227 -3q-57 8 -97 37.5t-58.5 73.5t-24.5 93t0 101q13 106 68 211q54 104 136 166q23 17 61 32q2 0 15 5t21 9q24 11 45 6.5t34 -21.5q16 -2 23 -3q53 -10 85 -29q67 -45 66 -183q-1 -81 -21 -172q-29 -127 -110 -220q-47 -55 -110 -84q-63 -31 -133 -22v0zM274 144
q53 -6 97 43q47 56 66 138q16 74 17 139q1 26 -2.5 45.5t-7 28t-7.5 10.5q-12 7 -39 12q-5 0 -11 1t-13 2t-11 1q-18 4 -33 8q-8 -4 -11 -7q-43 -32 -80 -102t-47 -147q-8 -76 13 -121t69 -51v0z" />
    <glyph glyph-name="one" unicode="1" horiz-adv-x="401" 
d="M283 64q-7 -29 -32.5 -49t-54 -19t-44 22t-8.5 50q23 96 83 392l-57 -33q-27 -16 -54.5 -10.5t-38.5 29.5t1 52.5t39 44.5l35 20q20 11 25.5 14.5t16 11t18.5 15.5l19 21q8 6 11 24q13 26 28 42q37 38 84 35q36 -3 48 -35q3 -8 4 -17q0 -5 -0.5 -12t-1.5 -16
q-2 -15 -8 -42q-7 -39 -22 -113q-75 -360 -91 -427v0z" />
    <glyph glyph-name="two" unicode="2" horiz-adv-x="578" 
d="M444 -6q-17 1 -46.5 1.5t-54 1t-45.5 0.5q-28 0 -84 -2q-82 -3 -127 9q-66 18 -74 73q-9 49 35 105q26 31 180.5 167.5t167.5 155.5q10 15 10 34q0 47 -47 47q-25 0 -51 -13t-44 -35q-3 -4 -9 -16l-2 -6t-2.5 -6.5t-2.5 -6.5l-10 -26q-14 -28 -42 -43.5t-54 -8
t-36.5 32.5t2.5 54q3 5 6 14q9 21 9 22q14 37 35 62q44 56 107.5 87.5t124.5 31.5q68 -1 113.5 -41.5t46.5 -115.5q1 -68 -40 -129q-32 -44 -274 -260l-37 -29q-9 -8 -17 -17q23 -2 57 0q59 2 89 2q1 0 148 -3q29 -1 44.5 -22t9 -50.5t-32 -49.5t-53.5 -20v0z" />
    <glyph glyph-name="three" unicode="3" horiz-adv-x="565" 
d="M61 66q-15 20 -23 54l-5 21q-1 10 -3 15q-7 24 6.5 50t40.5 38.5t51.5 4.5t31.5 -33q3 -10 6 -24l4 -19q3 -13 6 -17q11 -14 37.5 -22t63 -4t65.5 18t43 32q8 11 14 46q11 76 -99 100q-34 -8 -54 14q-14 10 -19 27.5t1 36.5q10 27 35 44t52 14q3 -1 8 -2q8 2 16 3.5t12 2
t9 2t11 4.5q33 17 40 37q6 23 -12 48q-23 31 -61.5 37.5t-86.5 -19.5l-8 -7l-12 -14q-10 -12 -17 -19q-21 -21 -49.5 -24.5t-46 13.5t-15 44.5t24.5 48.5l9 9l13 16q25 28 50 43q65 38 129.5 42t111 -18t74.5 -62q48 -67 25 -147q-15 -57 -64 -100q72 -61 56 -166
q-10 -74 -47 -120q-40 -51 -100 -79.5t-121.5 -35.5t-116.5 9t-86 58v0z" />
    <glyph glyph-name="four" unicode="4" horiz-adv-x="564" 
d="M375 68q-7 -29 -32 -49t-53.5 -19.5t-44.5 21t-10 49.5q18 77 24 108h-4q-85 1 -134 11q-35 6 -57 18q-43 24 -41 70q4 54 61 99l17 12l7.5 5t3.5 2.5t4 2.5q137 141 228 265q4 4 7 8q10 23 30.5 38.5t44.5 17.5q29 3 47.5 -15.5t14.5 -47.5q-18 -155 -58 -345q70 3 72 3
q29 0 45 -20.5t10 -49.5t-31 -49.5t-54 -20.5q-2 0 -72 -2q-7 -34 -25 -112v0zM290 317q12 56 21 106l-95 -102q30 -3 71 -4h3z" />
    <glyph glyph-name="five" unicode="5" horiz-adv-x="557" 
d="M235 -1q-77 -3 -123 14q-12 5 -25 13l-59 33q-22 13 -25 40t15 52t47 33.5t51 -3.5l30 -19q16 -9 23.5 -13t16.5 -7q22 -9 72 -7q21 1 47 13q57 27 73 63q15 31 1 66q-15 41 -55 63t-84 13q-4 0 -16 -6q-38 -20 -40 -21q-13 -6 -28 -7q-12 -3 -25 -2q-27 4 -40 26t-4 50
q38 112 82 249q5 14 15 26q11 22 32 35.5t44 13.5q98 1 283 1q29 0 45 -20.5t10 -49.5t-31 -49.5t-54 -20.5h-230q-25 -80 -28 -89q90 13 159.5 -29.5t96.5 -113.5q31 -84 -8 -169q-44 -94 -160 -149q-56 -27 -108 -29v0z" />
    <glyph glyph-name="six" unicode="6" horiz-adv-x="587" 
d="M219 -2q-62 17 -102.5 57.5t-55 94.5t-13.5 113t17 118q16 58 45.5 114t70 106t97.5 84q56 34 119 41q29 3 52 0q24 -2 45 -13t30.5 -17.5t28.5 -23t21 -17.5q20 -16 19.5 -45.5t-22 -54t-51 -30.5t-50.5 11l-18 16l-15 12l-12 9q-8 5 -10 5.5t-9.5 3.5t-11.5 1.5
t-14 -0.5q-42 -5 -85 -45t-70 -105q12 8 26 15q54 26 114.5 21t103 -31t61 -65t20.5 -84.5t-14 -92.5q-15 -46 -44.5 -87t-71.5 -71.5t-93 -41.5t-108 2v0zM281 138q41 -11 74 12q33 21 47 63.5t-3.5 75t-74.5 36.5q-21 2 -34 -5q-22 -10 -57 -39l-40 -34q13 -89 88 -109v0z
" />
    <glyph glyph-name="seven" unicode="7" horiz-adv-x="532" 
d="M199 45q-17 -27 -46 -38t-53 0.5t-29.5 38.5t12.5 53l45 73q38 60 54 84l48 72q32 47 89 130t63 88q17 27 27 39h-72q-140 0 -178 -1q-29 0 -45.5 20t-11 49t30 49.5t53.5 21.5q77 1 182 1q68 0 113 -2q32 -1 42 -2t17 -3q7 -1 12 -4q20 -7 28 -23q23 -40 -11 -101
q-17 -38 -81.5 -125t-89.5 -120t-56 -77l-44 -67q-14 -22 -52 -82.5t-47 -73.5v0z" />
    <glyph glyph-name="eight" unicode="8" horiz-adv-x="581" 
d="M237 -4q-107 0 -161.5 51.5t-44.5 134.5q6 46 32 90t66 78q-25 35 -27 81t17 94q32 79 108.5 135t171.5 56q79 0 127 -45.5t54 -113.5q5 -50 -20 -106t-75 -96q45 -51 45.5 -114t-42.5 -121q-42 -57 -110 -90q-68 -34 -141 -34v0zM265 128q39 0 71.5 16t47.5 37
q31 42 -19 86q-11 11 -22 18q-16 -8 -33 -8q-2 0 -44 3q-14 1 -19 -1q-33 -8 -56 -33.5t-26 -52.5q-2 -10 1 -20t11.5 -21t31.5 -17.5t56 -6.5v0zM305 421q30 6 52 5q15 2 28 7q33 15 48 38t12 49q-2 28 -21.5 46t-52.5 18q-46 0 -80 -24.5t-47 -58.5q-12 -29 -3.5 -52
t41.5 -33z" />
    <glyph glyph-name="nine" unicode="9" horiz-adv-x="566" 
d="M438 66q-8 -28 -34.5 -46.5t-54.5 -16t-42 25t-4 51.5q23 77 51 188q-11 -4 -17 -5q-37 -10 -65 -10q-74 1 -123.5 30t-70.5 80q-19 47 -10.5 104t38.5 104q31 53 80 92q51 39 112 53q133 31 259 -66q15 -12 18 -32t-7 -40q-57 -265 -130 -512v0zM302 385q8 0 25 5
q48 13 50 13q7 2 13 2q18 75 35 159q-65 38 -122 24q-53 -13 -84 -64t-15 -92q20 -46 98 -47v0z" />
    <glyph glyph-name="colon" unicode=":" horiz-adv-x="240" 
d="M221 532q18 -22 11 -53t-33.5 -53t-57.5 -22t-48.5 22t-10.5 53t33.5 53t57 22t48.5 -22v0zM137 124q18 -22 11 -53t-33.5 -53t-57.5 -22t-48.5 22t-10.5 53t33.5 53t57 22t48.5 -22v0z" />
    <glyph glyph-name="semicolon" unicode=";" horiz-adv-x="225" 
d="M65 -126q-11 -27 -38.5 -41.5t-53 -8t-35 30t2.5 50.5l58 136q11 27 38.5 41.5t53 8t35 -30t-2.5 -50.5l-58 -136v0zM213 496q18 -22 11 -53t-33.5 -53t-57.5 -22t-48.5 22t-10.5 53t33.5 53t57 22t48.5 -22v0v0z" />
    <glyph glyph-name="less" unicode="&#x3c;" horiz-adv-x="751" 
d="M532 8q-79 43 -210 90l-71 26l-85 30q-37 13 -69 26q-24 9 -30.5 34t8.5 50q19 35 57 43h1l93 33l106 40l287 114q27 10 50 0t28.5 -35t-10 -50.5t-42.5 -36.5l-319 -126l65 -23q138 -50 225 -95q21 -12 24.5 -38t-13 -50.5t-44.5 -33.5t-51 2v0z" />
    <glyph glyph-name="equal" unicode="=" horiz-adv-x="675" 
d="M492 71q-59 2 -188 3q-134 1 -206 5q-28 2 -42.5 23.5t-7 50.5t33 48t54.5 18q72 -5 205 -5q132 -1 186 -3q28 -1 43.5 -22.5t8.5 -50t-33 -48.5t-54 -19v0zM146 282q-29 0 -45.5 19.5t-11 48.5t29.5 50t53 22q188 4 392 6q28 0 45 -20.5t11 -49t-31 -49.5t-54 -21
q-201 -1 -389 -6v0z" />
    <glyph glyph-name="greater" unicode="&#x3e;" horiz-adv-x="739" 
d="M99 6q-29 -7 -49.5 7t-21.5 40.5t17.5 50t46.5 30.5q94 23 238 76l92 34l-282 118q-24 9 -29 34.5t10 51t43 36t50 0.5l422 -175q24 -10 29.5 -35t-8.5 -50q-12 -20 -33 -32q-12 -11 -27 -16q-40 -13 -78 -27l-166 -62q-157 -56 -254 -81v0z" />
    <glyph glyph-name="question" unicode="?" horiz-adv-x="498" 
d="M311 256q-11 -29 -38 -46t-54.5 -12t-39.5 28.5t-1 51.5q2 6 3.5 11t3.5 11.5t4 10.5q10 33 25 56q24 39 77 82q8 7 32.5 25.5t37.5 29.5q25 21 31 33q3 7 -1.5 19t-23.5 20.5t-51 7.5q-30 0 -52.5 -9.5t-33.5 -20.5l-1 -6q-1 -2 -2 -5l-1 -6l-1 -5q-4 -15 -8 -26
q-10 -28 -36.5 -45.5t-54.5 -13.5t-40.5 27t-2.5 52q1 3 3 10l5 20q10 37 30 64q39 51 100 76q61 26 120 28q61 2 113 -21t72 -75q24 -65 -9 -130q-22 -45 -76 -91l-40 -31q-25 -20 -33 -27q-29 -23 -38 -36q-2 -4 -6 -16q-13 -39 -13 -41v0zM261 122q17 -20 11 -49
t-31 -49.5t-54 -20.5t-45 20.5t-10 49.5t31 49.5t54 20.5t44 -21v0z" />
    <glyph glyph-name="at" unicode="@" horiz-adv-x="922" 
d="M285 19q-63 21 -111.5 63.5t-73.5 100t-28 122.5t27 137q32 71 95 135q87 88 210 121t233 9q54 -11 99 -36t77.5 -63.5t44 -94.5t-5.5 -123l-2 -12q-3 -13 -5 -19.5t-6 -18.5t-8.5 -23t-11.5 -21q-30 -48 -81.5 -80t-104.5 -36.5t-99 20.5q-18 12 -29 28q-41 -32 -80 -48
q-29 -11 -55.5 -13t-54 9t-45.5 36q-22 29 -24 65t13 70.5t35.5 64t47.5 55.5q56 54 128 85t130 7q21 -8 41 -28l10 -10t13 -12q16 -14 15 -36.5t-18 -41.5q-10 -11 -22 -17v-1q-2 -12 -9 -30q-2 -3 -9 -19l-11 -27q-11 -33 -1 -39q23 -15 60 -2t55 42q6 9 17 56
q19 79 -22 132.5t-127 71.5t-177 -6q-90 -25 -147 -83q-50 -51 -69.5 -111t-8 -112.5t50.5 -96t98 -62.5q44 -17 99.5 -15t105 14t112.5 37q24 9 43.5 0t24 -30.5t-9 -43t-36.5 -30.5q-52 -20 -98 -33t-97 -21t-101.5 -4.5t-96.5 18.5v0zM403 283q35 14 68 51q28 30 42 65
q3 7 5.5 15.5t4.5 9.5q5 15 13 26q3 2 4 4q-1 0 -2 1q-17 6 -52.5 -8.5t-71.5 -50.5q-27 -25 -39.5 -47.5t-13.5 -36.5t5 -22q13 -16 37 -7v0z" />
    <glyph glyph-name="A" unicode="A" horiz-adv-x="607" 
d="M-36 41q-2 10 -2 15q0 19 12 38l347 567q34 55 82 55q28 0 45 -14.5t22 -40.5l28 -170l33 -215l29 -180q4 -26 -6.5 -48t-29 -35t-37.5 -13q-50 0 -59 43l-24 152l-222 -5l-87 -149q-13 -20 -33.5 -31.5t-41.5 -11.5q-20 0 -35.5 11t-20.5 32v0zM382 328l-20 145
l-95 -147z" />
    <glyph glyph-name="B" unicode="B" horiz-adv-x="697" 
d="M252 -4q-20 0 -70 2l-82 4q-3 -1 -8 -1q-17 0 -31 8q-27 15 -27 49q0 10 1 15q1 3 5 14l37 167q27 122 42.5 206.5t26.5 167.5q4 28 24.5 49.5t47.5 26.5q15 9 36 11l122 4q141 0 210 -46.5t69 -131.5q0 -52 -27.5 -95.5t-63.5 -56.5q48 -20 68.5 -52t20.5 -78
q0 -62 -27 -107q-30 -49 -95 -90q-98 -59 -239 -65q-13 -1 -40 -1v0zM315 134q59 3 93 9t61 22q26 16 34.5 30.5t7.5 41.5q-2 48 -80 57q-36 4 -97 3l-112 1l-33 -161q9 -1 16 -1t13 -1q74 -2 97 -1v0zM362 431q65 0 111 24q40 22 40 54q0 29 -37.5 47.5t-106.5 18.5
q-55 0 -92 -2l-7 -42l-16 -93q59 -7 108 -7v0z" />
    <glyph glyph-name="C" unicode="C" horiz-adv-x="690" 
d="M335 -1q-66 0 -121 19.5t-93 57.5q-36 36 -55.5 88.5t-19.5 117.5q0 117 62 216t163 157.5t213 58.5q49 0 94 -17.5t74 -48.5q30 -35 52 -74q9 -16 9 -31q0 -36 -26 -59t-63 -23q-29 0 -46 24q-4 6 -8.5 12.5t-8.5 13.5q-6 11 -14 23q-15 21 -39.5 32t-53.5 11
q-69 0 -131 -38.5t-99.5 -102t-37.5 -134.5q0 -85 44.5 -127t125.5 -42q43 0 75 12t50 33q16 17 22 32l19 40q13 23 32 34t41 11q25 0 42.5 -14.5t17.5 -38.5q0 -20 -21 -61q-46 -90 -126 -136t-173 -46v0z" />
    <glyph glyph-name="D" unicode="D" horiz-adv-x="693" 
d="M90 1q-27 1 -43 21t-10 49l60 288q30 151 63 279q7 27 32.5 47t54.5 19q16 4 59 7.5t94 3.5q134 0 214.5 -66.5t80.5 -193.5q0 -97 -48 -189t-122 -161q-61 -56 -137 -80.5t-154 -24.5q-117 0 -144 1v0zM190 132q59 0 78 1q76 4 124 27t86 71q39 50 58 103t19 100
q0 77 -45.5 113.5t-149.5 36.5q-34 0 -76 -3l-32 -146l-36 -177q-15 -75 -26 -126v0z" />
    <glyph glyph-name="E" unicode="E" horiz-adv-x="652" 
d="M497 -1q-148 0 -403 3q-20 0 -34 11.5t-19 28.5q-8 18 -3 39q8 35 59 282q37 180 69 283q4 13 11 24q12 20 31.5 32.5t42.5 13.5q73 1 197 0.5t197 0.5q29 0 45 -20t10 -48.5t-29.5 -49t-52.5 -20.5q-56 0 -167 0.5t-167 -0.5q-16 -61 -35 -144q48 1 296 1q29 0 45.5 -20
t10.5 -48.5t-31 -49t-54 -20.5q-249 0 -295 -1q-22 -112 -33 -158q203 -2 339 -2q29 0 44.5 -20t9.5 -49t-30.5 -49t-53.5 -20v0z" />
    <glyph glyph-name="F" unicode="F" horiz-adv-x="604" 
d="M40 70q5 21 30.5 138.5t34 160.5t25 126.5t27.5 149.5q5 29 29 50t53 23h5q139 2 372 0q28 0 45 -21q15 -21 9 -49.5t-31.5 -49t-54.5 -20.5q-185 2 -299 1q-12 -64 -26 -134q141 0 261 3q29 0 45.5 -20t11 -48.5t-30 -49.5t-52.5 -22q-120 -2 -264 -3l-28 -131l-22 -104
q-6 -29 -30.5 -49.5t-53.5 -20.5t-45.5 20.5t-10.5 49.5v0z" />
    <glyph glyph-name="G" unicode="G" horiz-adv-x="734" 
d="M598 115q-60 -58 -129.5 -87.5t-133.5 -29t-121 22.5t-98.5 67t-59.5 104q-22 73 -6 152.5t59 145.5q42 67 105 119q64 54 135 82q73 29 152 26t144 -47q18 -10 30.5 -22.5t23.5 -27.5t16 -23.5t15 -27.5t13 -24q12 -23 2 -51.5t-36.5 -45.5t-53.5 -13t-40 27l-15 26
l-11 22q-3 6 -9.5 15t-13 14.5t-15.5 12.5q-63 36 -130 24.5t-128 -63.5q-64 -52 -91.5 -120.5t-9.5 -136.5q19 -65 74 -96t122.5 -19.5t121.5 63.5q25 23 31 37q3 7 5 13q-28 1 -110 -3q-29 -1 -46 18t-12 48t28.5 50t52.5 22q82 3 184 3q29 0 45 -21q18 -21 10 -52l-5 -23
q-4 -24 -10.5 -47.5t-14.5 -41.5q-21 -45 -70 -92v0z" />
    <glyph glyph-name="H" unicode="H" horiz-adv-x="742" 
d="M178 69q-6 -28 -31 -48.5t-53.5 -20.5t-45 21t-10.5 61q18 66 58 269.5t63 298.5q7 29 32 48.5t54 19t44 -21.5t9 -50q-18 -76 -42 -194q206 6 312 6q24 112 41 191q8 29 32.5 49t53.5 19.5t44.5 -21t9.5 -49.5q-15 -65 -124 -578q-6 -29 -31 -49.5t-54 -20.5t-45 20.5
t-10 49.5l54 253q-104 1 -311 -6q-33 -166 -50 -247v0z" />
    <glyph glyph-name="I" unicode="I" horiz-adv-x="342" 
d="M59 -3q-29 0 -46 19.5t-12 48.5q6 26 27 46.5t46 24.5q38 174 93 441q-23 5 -35 24t-6 45q6 29 31 49t54 20l113 -1q29 0 44.5 -21t9.5 -50q-5 -25 -25.5 -44t-46.5 -24q-53 -263 -91 -436q24 -4 36.5 -23t8.5 -44q-6 -29 -30 -50t-53 -22l-118 -3v0z" />
    <glyph glyph-name="J" unicode="J" horiz-adv-x="542" 
d="M214 13q-42 -14 -79.5 -14t-71 21.5t-52.5 61.5q-12 25 -13 64q0 1 -1 24q0 11 -1 17q-3 28 15.5 53.5t48 34.5t52 -4t26.5 -40q1 -12 2 -28q-1 -1 0 -9v-13q1 -16 4 -21q13 -30 46 -18q21 8 42 26.5t32 40.5q21 42 36 85t25.5 96.5t15 83t15.5 104.5q-21 -1 -49.5 -2
t-46 19t-12.5 48.5t29.5 50t53.5 22.5q155 5 251 0q28 -2 42.5 -23.5t7 -50.5t-33 -48t-54.5 -18q-24 2 -48 2q-12 -88 -21 -139.5t-30 -122.5q-24 -82 -55 -145q-26 -53 -74 -96t-102 -62v0z" />
    <glyph glyph-name="K" unicode="K" horiz-adv-x="679" 
d="M314 309l-98 -69q-15 -81 -31 -175q-5 -28 -29 -49.5t-52.5 -23t-46 18t-13.5 48.5q51 308 117 600q7 29 31.5 49t53.5 19.5t44.5 -21t9.5 -49.5q-29 -127 -51 -239q186 134 352 285q24 21 53 22t46 -19t12 -48.5t-29 -50.5q-122 -112 -244 -205l167 -296q13 -22 3 -51
q-9 -29 -35.5 -47t-54.5 -14.5t-41 26.5z" />
    <glyph glyph-name="L" unicode="L" horiz-adv-x="576" 
d="M102 -1q-30 0 -48 24t-12 52l58 289l57 281q7 33 30.5 51.5t51.5 18.5q25 0 42 -14t17 -40q0 -9 -1 -14l-53 -262l-50 -254l277 2q27 0 43 -16t17 -37q0 -33 -25 -57t-61 -24h-128q-151 -2 -215 0v0z" />
    <glyph glyph-name="M" unicode="M" horiz-adv-x="862" 
d="M745 67q-7 -29 -32.5 -49t-54 -19t-44.5 22t-8 50q15 65 79 384q-94 -93 -188 -199q-22 -24 -51.5 -29.5t-49.5 10.5q-3 2 -4 4q-10 7 -16 17l-112 194q0 -2 -40.5 -191.5t-41.5 -190.5q-6 -29 -30.5 -49.5t-53.5 -20.5t-45.5 20.5t-10.5 49.5q9 42 30.5 141t33 153
t26.5 134q13 71 25 147q4 29 27.5 51t53.5 24q15 1 27 -4q27 -4 39 -27l163 -279q140 150 277 270q29 36 69 35q29 -1 44.5 -22t8.5 -50q-23 -95 -61.5 -290.5t-59.5 -285.5v0z" />
    <glyph glyph-name="N" unicode="N" horiz-adv-x="751" 
d="M551 4q-40 -7 -60 24q-50 79 -119 234q-77 157 -112 213q-7 -40 -32 -177.5t-45 -228.5q-6 -29 -31 -49.5t-54 -20.5t-45 20.5t-10 49.5q19 88 55 284.5t62 297.5q7 29 32.5 49t53.5 19q14 -1 26 -6q18 -6 28 -22q13 -21 41.5 -66.5t42.5 -68.5q43 -58 120 -214l34 -69
q52 232 81 377q6 29 30.5 49.5t53.5 21t45 -19.5t11 -49q-28 -136 -126 -579q-7 -28 -30 -47.5t-52 -21.5v0z" />
    <glyph glyph-name="O" unicode="O" horiz-adv-x="769" 
d="M364 1q-90 0 -161.5 36.5t-112.5 104t-41 155.5q0 115 56.5 213.5t153 156.5t209.5 58q26 0 38 -2t37 -10l25 -8q19 -6 39 -13t34 -16q57 -39 89 -105.5t32 -149.5q0 -108 -54.5 -205t-146 -156t-197.5 -59v0zM387 136q67 0 120.5 36.5t84 96t30.5 125.5q0 47 -21.5 98
t-53.5 72q-12 8 -44 15q-7 2 -15 4.5t-17 4.5q-26 2 -44 2q-63 0 -118 -37.5t-87 -99.5t-32 -131q0 -91 51.5 -138.5t145.5 -47.5v0z" />
    <glyph glyph-name="P" unicode="P" horiz-adv-x="635" 
d="M176 63q-6 -29 -31 -49.5t-54 -20.5t-45 20.5t-10 49.5t59.5 291t63.5 291q7 29 32 48.5t54 19.5q5 0 10 -1q2 0 5 1q126 20 194 16q135 -9 186 -95q40 -66 25 -141t-73 -126q-49 -43 -113 -67t-125 -27q-21 -1 -43.5 0t-54.5 4t-36 4q-30 -151 -44 -218v0zM377 413
q37 1 73 14.5t56 32.5q10 9 14.5 16.5t4.5 28.5t-11 41q-24 39 -98 43q-50 3 -132 -9q-15 -67 -35 -159h1l46 -5q25 -2 44 -3t37 0v0z" />
    <glyph glyph-name="Q" unicode="Q" horiz-adv-x="756" 
d="M580 -9q-54 24 -92 46q-32 -14 -61 -23q-79 -22 -133.5 -15.5t-116.5 38.5q-58 33 -92 84.5t-40 111t7.5 125t46 125.5t82 114t109.5 92q16 10 38.5 20t44.5 17.5t23 8.5q44 19 71 -9l11 2q46 6 69 5q42 -1 74 -18t63 -53q51 -58 65.5 -147t-11 -186t-85.5 -171
q-11 -13 -24 -26l31 -15q23 -11 29 -37t-11 -52t-45.5 -37.5t-52.5 0.5v0zM346 156q-18 18 -13 47q3 27 27 49t52.5 24t45.5 -18q32 -33 61 -57q20 15 31 28q57 70 63 173t-43 158q-31 35 -56 36q-13 0 -46 -4q-52 -7 -83 -10q-12 0 -23 3l-16 -8q-49 -31 -87 -76
q-38 -47 -55.5 -95.5t-18.5 -96t20 -86.5q20 -40 60 -62q56 -30 100 -26z" />
    <glyph glyph-name="R" unicode="R" horiz-adv-x="693" 
d="M468 53q-2 84 -6 133l-1 22q-3 46 -29 70.5t-74 24.5q-10 0 -40 -2q-36 -2 -61 -2h-30l-48 -230q-7 -33 -30.5 -51t-51.5 -18q-31 0 -47.5 19t-10.5 50l62 300l57 268q7 29 31 48.5t54 21.5l35 3q78 6 106 6q321 0 321 -169q0 -65 -45 -116t-121 -74q40 -31 56.5 -94.5
t15.5 -175.5q1 -38 -26 -62t-61 -24q-23 0 -39 13t-17 39v0zM258 427q52 6 96 6h61q32 0 66.5 11t57 29.5t22.5 38.5q0 37 -38 53t-129 16q-70 0 -109 -3q-14 -66 -30 -151h3v0z" />
    <glyph glyph-name="S" unicode="S" horiz-adv-x="612" 
d="M268 -8q-118 0 -177 50t-59 131q0 59 25.5 88t60.5 29q23 0 40 -13.5t17 -38.5q0 -2 -3 -38l-2 -20q0 -23 28.5 -39t83.5 -16q35 0 67.5 12t52.5 32t20 42q0 18 -14.5 34t-50.5 31l-39 15q-17 6 -37 13.5t-42 16.5q-150 61 -150 179q0 59 39 111t103 83t136 31
q106 0 173 -51t67 -143q0 -49 -21 -75.5t-56 -26.5q-31 0 -49.5 16t-18.5 43q0 26 -1 36.5t-9 20.5q-14 18 -44.5 31.5t-71.5 14.5q-49 0 -77 -20t-28 -47q0 -26 21.5 -41t81.5 -40q16 -6 24 -10q58 -22 98 -42q57 -28 83.5 -64t26.5 -92q0 -68 -44.5 -123.5t-114 -87.5
t-139.5 -32v0z" />
    <glyph glyph-name="T" unicode="T" horiz-adv-x="577" 
d="M309 69q-7 -29 -31.5 -49t-53.5 -19.5t-45 21t-9 49.5q7 31 59 283q26 129 51 225q-80 -1 -135 -1q-29 0 -45.5 19t-11 48t30 48.5t53.5 19.5q64 0 212 1t212 1q29 0 45.5 -18.5t11 -47t-30 -49t-52.5 -20.5q-63 0 -150 -1q-24 -92 -51 -224q-52 -255 -60 -286v0z" />
    <glyph glyph-name="U" unicode="U" horiz-adv-x="714" 
d="M299 -1q-67 0 -122 25t-88 74.5t-33 119.5q0 66 14.5 132.5t46.5 176.5q32 115 34 121q8 29 32.5 49t52.5 20q24 0 39 -15t15 -40q0 -17 -6.5 -43t-15.5 -56l-10 -32q-28 -96 -45 -174.5t-17 -115.5q0 -49 35.5 -78t97.5 -29q72 0 130.5 65.5t90.5 202.5q13 53 26 146
l16 97q7 34 31.5 52.5t53.5 18.5t45 -18.5t10 -48.5q-8 -38 -17 -102q-14 -97 -27 -149q-93 -399 -389 -399v0z" />
    <glyph glyph-name="V" unicode="V" horiz-adv-x="615" 
d="M279 -1q-29 -12 -54 -1t-30 37q-20 91 -33 176l-32 215q-22 143 -31 199q-3 27 14.5 53.5t46.5 36t53 -2.5t29 -39l32 -211q18 -135 30 -208q154 270 254 424q16 26 45.5 37t53.5 -0.5t29 -38.5t-12 -54q-68 -102 -122 -194l-120 -210q-67 -119 -102 -176
q-14 -25 -39 -37q-6 -4 -12 -6v0z" />
    <glyph glyph-name="W" unicode="W" horiz-adv-x="924" 
d="M183 -1q-27 -4 -46 12t-18 42q-1 91 -7 278q-7 174 -12 305q0 28 21 52t50 30t50 -10t21 -44q6 -112 15 -383q120 202 239 393q12 20 32.5 31.5t41.5 11.5q24 0 41 -14.5t17 -96.5l28 -201l14 -131q13 25 80 169t113 228q14 27 42.5 41t54 6t34.5 -33.5t-5 -53.5
q-46 -83 -99.5 -199t-69.5 -147l-61 -119l-57 -113q-11 -21 -31 -35t-41 -16q-28 -7 -49 5t-25 37q-25 144 -43 319q-3 30 -10 77l-235 -396q-14 -23 -37.5 -35.5t-47.5 -9.5v0z" />
    <glyph glyph-name="X" unicode="X" horiz-adv-x="593" 
d="M94 28q-21 -23 -50.5 -27t-49 13t-17.5 44.5t24 51.5l230 246q-85 164 -124 260q-11 22 -0.5 48t36 41.5t51.5 10.5t36 -28q39 -80 105 -224l200 223q22 23 51.5 27t48.5 -13.5t17 -45t-24 -50.5l-230 -253q80 -140 133 -253q10 -23 -1 -48.5t-37 -40.5t-51 -9.5
t-35 28.5q-51 92 -113 214l-200 -215v0z" />
    <glyph glyph-name="Y" unicode="Y" horiz-adv-x="593" 
d="M237 -1q-31 0 -47 18.5t-10 48.5l6 29q14 79 26 127l13 54l-61 160q-54 142 -70 189q-7 26 3 47t31 33.5t43 12.5q16 0 31 -12t21 -30l7 -21q14 -40 37.5 -105t49.5 -132l74 94l149 172q29 33 63 33q25 0 42.5 -16t17.5 -40q0 -26 -21 -51q-8 -11 -33.5 -39.5
t-66.5 -76.5l-53 -60q-79 -90 -125 -149q-24 -118 -20 -101l-24 -114q-6 -34 -30 -52.5t-53 -18.5v0z" />
    <glyph glyph-name="Z" unicode="Z" horiz-adv-x="617" 
d="M250 0q-136 0 -223 4q-27 1 -41 22t-7 49t33 48q35 32 119 120q304 278 347 334q-218 -4 -317 3q-28 2 -41.5 23t-5.5 50t32.5 47.5t51.5 16.5q65 -4 135.5 -5t162 1t136.5 2q27 0 42.5 -20t9.5 -48q-6 -26 -25 -45l-4 -6q-46 -69 -95.5 -119.5t-339.5 -314.5l-25 -25
q33 0 80 -2q192 4 231 4q27 0 42.5 -20t9.5 -47.5t-30 -47.5t-51 -20q-37 0 -227 -4v0z" />
    <glyph glyph-name="bracketleft" unicode="[" horiz-adv-x="389" 
d="M194 -194q-4 1 -15 2t-16 1q-30 4 -52 8q-88 19 -106 77q-11 34 6 81q3 8 6 14.5t4 8.5t1 4l1 6l19 90q2 10 9.5 46.5t19.5 95.5t21 104q23 116 35 170q7 34 12 52q2 11 5 18l2 9q3 11 10 22q52 77 128 98q15 4 35 6.5t41 4t24 1.5q29 4 48.5 -14t17 -46.5t-25.5 -51.5
t-52 -26q-20 -3 -37 -4t-24.5 -1.5t-15.5 -2.5q-9 -3 -17 -12l-1 -4l-10 -49q-12 -53 -35 -168q-10 -46 -21.5 -105t-19 -96t-9.5 -47l-19 -92q-4 -16 -16 -46q8 -3 22 -6q15 -3 38 -6q5 -1 13.5 -1.5t14 -1t9.5 -1.5q27 -4 39.5 -27t2.5 -51.5t-37 -46t-55 -13.5v0z" />
    <glyph glyph-name="backslash" unicode="\" horiz-adv-x="478" 
d="M232 45q-41 305 -90 575q-6 26 10.5 53t45.5 38.5t54 0.5t30 -38q51 -274 92 -583q3 -27 -15 -53t-47 -35.5t-52.5 3t-27.5 39.5v0z" />
    <glyph glyph-name="bracketright" unicode="]" horiz-adv-x="344" 
d="M3 -186q-30 -4 -49.5 13t-17 46t24 52t51.5 27q17 2 46 2q5 16 12 38q17 62 40 170q16 76 37 187t21 112q3 12 8 37t7 38q4 15 14 42q-27 0 -41 2q-27 5 -39 28.5t-1 52t38 45.5t55 12q6 -1 7.5 -1t11 0.5t22.5 0.5q63 -1 87 -40t2 -101l-8 -18q-2 -8 -3.5 -11t-2.5 -5.5
t-2 -6.5q-2 -12 -7 -37t-8 -38l-21 -111q-21 -112 -37 -188q-24 -112 -43 -180q-12 -43 -23 -69q-8 -17 -14 -30q-15 -25 -35 -40q-39 -28 -93 -29h-21q-9 0 -10 0.5t-8 -0.5v0z" />
    <glyph glyph-name="asciicircum" unicode="^" horiz-adv-x="527" 
d="M334 522q-74 -100 -143 -209q-16 -25 -44 -35t-50.5 0.5t-27 36t10.5 50.5q105 163 220 310q4 5 9 10q14 24 39 35q26 13 50.5 5t32.5 -32q35 -111 92 -328q6 -24 -8.5 -50t-41.5 -37.5t-51 -2.5t-31 34z" />
    <glyph glyph-name="underscore" unicode="_" horiz-adv-x="568" 
d="M-53 -176q-29 0 -45 20.5t-10 49.5t31 49.5t53 20.5h488q29 0 45 -20.5t10 -49.5t-31 -49.5t-54 -20.5h-487v0z" />
    <glyph glyph-name="grave" unicode="`" horiz-adv-x="258" 
d="M272 570q-28 2 -53 24l-86 81q-27 25 -30 52t14.5 47.5t43.5 21t53 -24.5l89 -85q24 -23 30 -50t-13.5 -47.5t-47.5 -18.5v0z" />
    <glyph glyph-name="a" unicode="a" horiz-adv-x="574" 
d="M181 -1q-79 0 -120.5 43t-41.5 112q0 89 51.5 179t131 148.5t157.5 58.5q60 0 100 -30q22 9 38 9q34 0 51.5 -20.5t10.5 -53.5l-81 -380q-7 -32 -25.5 -48.5t-44.5 -16.5q-29 0 -47 21t-14 53l1 8q-87 -83 -167 -83v0zM224 135q25 0 49.5 14t51.5 38q40 36 52 39l33 151
q-8 11 -25.5 19t-38.5 8q-39 0 -82 -35t-72.5 -84.5t-29.5 -88.5q0 -29 18 -45t44 -16v0z" />
    <glyph glyph-name="b" unicode="b" horiz-adv-x="586" 
d="M64 -5q-30 0 -43 22.5t-6 49.5q61 266 123 581q7 33 31 51.5t52 18.5q31 0 47 -20t11 -48l-30 -160q45 41 117 41q54 0 97 -29.5t66.5 -77t23.5 -100.5q0 -92 -40 -167.5t-106.5 -119.5t-142.5 -44q-46 0 -81.5 18t-50.5 50l-5 -16q-6 -23 -23 -36.5t-40 -13.5v0z
M283 129q35 0 64 20.5t46 58.5t17 86q0 46 -24 73.5t-58 27.5q-21 0 -33.5 -6t-38.5 -24l-39 -27l-28 -127q4 -6 7.5 -12.5t7.5 -13.5q3 -6 5.5 -12t4.5 -11q7 -13 26.5 -23t42.5 -10v0z" />
    <glyph glyph-name="c" unicode="c" horiz-adv-x="545" 
d="M321 13q-49 -16 -92 -12t-81 20q-59 26 -92 80.5t-24 125.5q8 59 44.5 120.5t89.5 105.5q38 32 80.5 51.5t92.5 24.5t95 -17q25 -11 50 -36q1 -2 10 -12l15 -15q19 -18 16.5 -45.5t-25 -50t-52 -26t-48.5 14.5q-2 1 -31 32q-10 10 -15 13q-50 22 -106 -27
q-29 -25 -50 -59t-24 -64q-4 -28 10.5 -53t45.5 -38q32 -13 57 -9.5t43 18.5q7 5 17 21q31 46 32 48q18 25 47.5 33.5t53 -4t26 -39.5t-15.5 -52q-4 -6 -8.5 -12.5t-9.5 -14.5t-9 -13q-24 -38 -50 -60q-42 -35 -92 -49v0z" />
    <glyph glyph-name="d" unicode="d" horiz-adv-x="587" 
d="M412 -7q-26 0 -40 19t-10 53q-29 -32 -64.5 -51t-83.5 -19q-37 0 -71 11t-58 33q-27 25 -41 65t-14 89q0 83 44.5 164t118.5 132t156 51q52 0 94 -18q11 49 17 80.5t9 44.5q6 32 30 51t55 19q30 0 46 -19t10 -49q-52 -264 -105 -514l-14 -67q-7 -36 -28 -55.5t-51 -19.5
v0zM256 128q41 0 69 24q13 11 20.5 22t20.5 33q9 15 20 23l24 128q-8 14 -29 30q-22 17 -62 17q-39 0 -72 -27.5t-52.5 -69.5t-19.5 -84q0 -38 16.5 -67t64.5 -29v0z" />
    <glyph glyph-name="e" unicode="e" horiz-adv-x="563" 
d="M330 5q-72 -9 -123 -1.5t-87.5 32.5t-58.5 67.5t-24 123.5q2 47 20 87q89 212 298 216q191 -1 195 -207q2 -43 -22 -70q-29 -34 -85 -38q-26 -3 -78 -4.5t-194 8.5q-10 -92 93 -107q61 -4 90 19q47 39 73 40.5t41 -11t18.5 -29t-6.5 -33.5q-7 -15 -31 -38
q-24 -19 -47.5 -32t-71.5 -23v0zM190 314q35 -1 73 -2t93 -0.5t71 7.5q3 16 -4.5 40.5t-44.5 45.5q-45 23 -108 -4q-61 -26 -80 -87v0z" />
    <glyph glyph-name="f" unicode="f" horiz-adv-x="388" 
d="M114 0q-31 0 -48 20.5t-8 53.5q22 93 49 214q12 56 17 86h-12q-25 0 -38.5 12.5t-13.5 34.5q0 33 21 61t50 28h14l12 55q16 75 64 116.5t118 43.5q62 0 101 -20t39 -57q0 -29 -22 -53t-49 -24q-13 0 -33 8q-22 10 -41 10q-22 0 -32.5 -12t-12.5 -36q-1 -8 -2.5 -14.5
t-2.5 -12.5l50 -1q27 -1 41.5 -15t14.5 -37q0 -35 -26 -61t-64 -26h-37q-14 -76 -21 -108q-22 -104 -45 -195q-8 -34 -30 -52.5t-53 -18.5v0z" />
    <glyph glyph-name="g" unicode="g" horiz-adv-x="572" 
d="M196 -206q-116 0 -165 54q-18 20 -25.5 33.5t-8.5 37.5q-1 27 17 51.5t50 24.5q22 0 37 -8t25 -27q14 -25 31 -35.5t47 -10.5q47 0 84.5 40.5t60.5 102.5q-38 -33 -70 -46.5t-74 -12.5q-45 2 -84.5 28t-63 72.5t-23.5 106.5q0 86 38.5 160.5t107.5 119.5t155 45
q29 0 56 -8.5t45 -21.5q12 14 29.5 21.5t36.5 7.5q26 0 42 -18t12 -45q-18 -112 -70 -348l-9 -40q-18 -84 -63.5 -149t-103.5 -100t-114 -35v0zM249 127q41 0 90 49q9 9 17.5 20.5t16.5 21.5q20 92 30 149q-14 4 -27 10l-32 16q-16 7 -34 7q-43 0 -75 -25.5t-49 -65
t-17 -79.5q0 -50 23.5 -76.5t56.5 -26.5v0z" />
    <glyph glyph-name="h" unicode="h" horiz-adv-x="557" 
d="M77 -1q-30 0 -45 18t-10 51q10 46 17 88q13 69 39 194q20 95 36 179q9 51 26 130q6 30 30 49.5t55 19.5q30 0 45 -17t10 -45q-13 -63 -26 -140l-9 -46q26 23 57 36.5t73 13.5q68 0 108 -37.5t40 -96.5q0 -64 -16 -133q-8 -39 -19 -88t-26 -100q-12 -39 -32.5 -57.5
t-52.5 -18.5q-34 0 -48.5 20.5t-7.5 47.5l27 105l19 71q17 74 17 109q0 20 -15 33t-43 13q-30 0 -59.5 -12t-47.5 -33q-29 -150 -30 -153l-27 -132q-6 -32 -31 -50.5t-54 -18.5v0z" />
    <glyph glyph-name="i" unicode="i" horiz-adv-x="241" 
d="M9 68q42 212 87 397q8 29 33.5 48.5t54 18.5t43.5 -22.5t8 -50.5q-46 -187 -86 -389q-6 -29 -30 -49.5t-53.5 -21t-45.5 19.5t-11 49v0zM260 699q17 -20 10.5 -49t-31 -49.5t-53.5 -20.5t-45.5 20.5t-10 49.5t31.5 49.5t54 20.5t44 -21v0z" />
    <glyph glyph-name="j" unicode="j" horiz-adv-x="253" 
d="M-82 -221q-29 0 -47.5 15.5t-18.5 43.5t17.5 51.5t51.5 30.5q34 8 52 23.5t26 41.5q14 48 37 152l23 126l23 133l11 64q6 35 30.5 53t53.5 18q24 0 41 -14t17 -39q0 -20 -11 -86l-6 -34q-14 -84 -44 -223q-39 -182 -70 -247q-23 -48 -76.5 -78.5t-109.5 -30.5v0zM175 580
q-22 0 -38.5 16t-16.5 40q0 32 25.5 59.5t61.5 27.5q24 0 40.5 -16.5t16.5 -41.5q0 -33 -25 -59t-64 -26v0z" />
    <glyph glyph-name="k" unicode="k" horiz-adv-x="524" 
d="M338 20q-65 85 -104 169l-48 -38q-3 -1 -5 -3l-17 -81q-7 -29 -32 -49t-54 -19.5t-44.5 21t-9.5 49.5q41 180 113 576q5 29 29 50t53 22.5t46 -18t13 -48.5q-31 -175 -57 -312q94 76 199 168q25 21 53.5 22t46 -19t12.5 -48.5t-30 -50.5l-145 -122q37 -89 101 -173
q16 -20 9.5 -49t-31.5 -49t-54 -19.5t-44 21.5v0z" />
    <glyph glyph-name="l" unicode="l" horiz-adv-x="251" 
d="M154 67q-7 -29 -32 -49t-54 -19.5t-44.5 21t-9.5 49.5q42 191 61 281l62 296q6 29 31 49.5t54 20.5t45 -20.5t10 -49.5q-17 -80 -41 -194t-43.5 -207t-38.5 -178v0z" />
    <glyph glyph-name="m" unicode="m" horiz-adv-x="852" 
d="M452 63q-7 -27 -31 -46t-50.5 -18t-41.5 21t-8 47q4 17 15 59l15 58q6 25 13 62.5t9 61.5q0 4 1 8q1 21 0 37q-2 19 -17.5 31.5t-42.5 14.5q-27 3 -52.5 -6.5t-40.5 -26.5q-1 -3 -5 -11l-1 -4q-37 -182 -58 -281q-6 -29 -30.5 -49.5t-53.5 -20.5t-45.5 20.5t-10.5 49.5
q21 95 80 388q6 29 30.5 49.5t53.5 21.5q28 0 45 -19q64 27 127 21q76 -7 119 -55q42 31 91 44t93 9q61 -6 104.5 -41t50.5 -97q3 -34 -4.5 -90.5t-14.5 -88t-22 -89.5t-15 -59q-7 -27 -31 -46t-50.5 -18t-41.5 21t-8 47q3 12 16.5 65.5t19.5 79.5t12.5 70t3.5 68
q-2 19 -17.5 31.5t-41.5 14.5q-27 3 -53 -6.5t-40 -26.5q-2 -3 -5 -11l-2 -6l-3 -8l-2 -6q-3 -9 -5 -16q-4 -31 -12 -75t-15 -71t-16.5 -62.5t-11.5 -45.5v0z" />
    <glyph glyph-name="n" unicode="n" horiz-adv-x="559" 
d="M381 -2q-33 0 -47.5 21t-7.5 48l15 60q16 62 20 80q21 88 21 128q0 30 -18.5 47t-50.5 17q-29 0 -54.5 -12.5t-43.5 -32.5l-16 -85q-37 -189 -39 -199q-9 -33 -31 -51t-50 -18q-34 0 -48.5 23t-7.5 57q55 254 71 374q5 37 24 56t50 19q25 0 42 -18t14 -45q64 62 143 62
q68 0 109.5 -44t41.5 -113q0 -71 -22 -164q-2 -8 -23 -96l-10 -39q-9 -37 -31 -56t-51 -19v0z" />
    <glyph glyph-name="o" unicode="o" horiz-adv-x="582" 
d="M254 0q-61 0 -111 27.5t-78.5 79t-27.5 120.5q1 77 38 147t102 112.5t146 42.5q28 0 43 -4t35 -14q15 -9 29 -14q53 -20 85.5 -73t32.5 -114q0 -79 -39 -150.5t-106.5 -115.5t-148.5 -44v0zM276 130q34 0 64.5 22.5t49 60t18.5 80.5q0 42 -28 67q-11 10 -35 18
q-13 5 -21 10t-13 15q-6 0 -9.5 -0.5t-5.5 -0.5q-31 -6 -58.5 -28t-44.5 -57t-17 -77q0 -53 27.5 -81.5t72.5 -28.5v0z" />
    <glyph glyph-name="p" unicode="p" horiz-adv-x="577" 
d="M111 -132q-7 -29 -31.5 -49t-53.5 -19.5t-44.5 21t-9.5 49.5q40 173 128 588q6 29 31 49.5t54 20.5q38 0 52 -33q120 60 209 16q78 -40 96 -142q7 -42 1 -87.5t-27 -94t-62 -91.5t-98 -68q-95 -43 -158 -23q-27 8 -50 26q-17 -77 -37 -163v0zM266 139q14 -5 55 13
q43 20 66 66t16 101q-11 49 -42 65t-67 3t-84 -68l-23 -110q12 -37 33.5 -53.5t45.5 -16.5v0z" />
    <glyph glyph-name="q" unicode="q" horiz-adv-x="575" 
d="M352 -201q-31 0 -48.5 20t-10.5 51l42 185q-52 -56 -141 -56q-71 0 -116.5 49t-45.5 144q0 92 38.5 170t101 123t129.5 45q47 0 81 -16t51 -42q6 23 28.5 40t44.5 18q30 0 45.5 -21t10.5 -48q-52 -260 -130 -595q-8 -33 -30.5 -50t-49.5 -17v0zM256 135q35 0 67 24t53 73
l21 98q-12 28 -36.5 46t-59.5 18t-65 -21.5t-48 -60.5t-18 -89q0 -46 21.5 -67t64.5 -21v0z" />
    <glyph glyph-name="r" unicode="r" horiz-adv-x="399" 
d="M72 0q-28 0 -45 21t-10 54l78 374q8 38 32.5 59t54.5 21q28 0 42.5 -19t10.5 -48q27 25 76 47t76 22q25 0 40 -15.5t15 -38.5q0 -25 -17.5 -47.5t-56.5 -30.5q-90 -19 -156 -64q-8 -23 -20 -86l-35 -178q-8 -31 -31 -51t-54 -20v0z" />
    <glyph glyph-name="s" unicode="s" horiz-adv-x="489" 
d="M202 -1q-61 0 -106 19.5t-68 51t-23 66.5q0 31 21 52t48 21q22 0 37 -10t22 -28q11 -28 33 -40t62 -12q35 0 56 11t21 30q0 15 -17.5 26t-47.5 23l-83 35q-37 17 -62 48.5t-25 74.5q0 44 29 81.5t77 60t102 22.5q52 0 87.5 -11.5t63.5 -33.5q45 -34 45 -76q0 -28 -21 -48
t-47 -20q-35 0 -62 30q-20 21 -42 30.5t-50 9.5q-21 0 -34 -8.5t-13 -19.5q0 -13 10.5 -23.5t35.5 -20.5l21 -9q62 -26 86 -39q80 -42 80 -119q0 -44 -32 -84t-86 -65t-118 -25v0z" />
    <glyph glyph-name="t" unicode="t" horiz-adv-x="343" 
d="M98 39q-29 20 -42.5 39.5t-13.5 47.5q0 52 34 198l11 49q5 23 10 42q-32 0 -47.5 14.5t-15.5 39.5q0 30 21 51.5t56 21.5h17l6 27l4 20q18 85 91 85q30 0 44.5 -20.5t7.5 -50.5l-13 -60h33q30 0 46.5 -14t16.5 -38q0 -31 -26.5 -53.5t-75.5 -22.5h-27l-19 -81
q-25 -119 -31 -165q8 -9 24 -18t31 -16q39 -20 39 -57q0 -34 -20.5 -55.5t-52.5 -21.5q-25 0 -49.5 8.5t-58.5 29.5v0z" />
    <glyph glyph-name="u" unicode="u" horiz-adv-x="558" 
d="M196 -1q-41 0 -76.5 20.5t-57.5 59.5t-22 93q0 45 10 91t27 101q5 18 12 37.5t13 37.5l11 32q9 28 30.5 42.5t45.5 14.5q33 0 48 -22.5t4 -50.5l-18 -52q-25 -74 -36.5 -116t-11.5 -84q0 -34 16.5 -53t43.5 -19q17 0 31 7t27 19t25 22q9 9 21 23.5t14 15.5q30 131 51 241
q7 33 31.5 51.5t52.5 18.5q30 0 46 -19t10 -49q-48 -242 -83 -401q-7 -29 -26.5 -44.5t-48.5 -15.5q-25 1 -41.5 22t-13.5 51q-26 -34 -61.5 -54t-73.5 -20v0z" />
    <glyph glyph-name="v" unicode="v" horiz-adv-x="467" 
d="M100 72q-5 68 -17.5 138t-31.5 159l-12 59q-5 23 3 47t27 39.5t46 15.5q22 0 36 -11.5t18 -31.5l11 -64q23 -130 30 -195l62 99q68 113 111 171q25 31 60 31q23 0 40 -15t17 -38q0 -17 -21 -49q-31 -47 -79 -117l-52 -76q-57 -84 -113 -175q-20 -33 -36 -46.5t-43 -13.5
q-50 0 -56 73v0z" />
    <glyph glyph-name="w" unicode="w" horiz-adv-x="657" 
d="M412 -2q-25 0 -40.5 14.5t-17.5 38.5l-24 216l-98 -195q-38 -75 -95 -75q-29 0 -45 20t-20 71q-13 141 -21 336q-2 42 25 72t64 30q52 0 53 -59q1 -77 6 -199l1 -27q48 87 108 217q14 30 36.5 45t45.5 15t38 -13.5t17 -42.5l12 -210l86 206q16 37 37.5 52.5t50.5 15.5
q37 0 48 -28.5t-6 -67.5q-63 -144 -110.5 -244.5t-63.5 -130.5q-14 -28 -38 -42.5t-49 -14.5v0z" />
    <glyph glyph-name="x" unicode="x" horiz-adv-x="444" 
d="M201 155q-40 -50 -58 -75l-36 -47q-29 -35 -66 -35q-25 0 -43 17t-18 42q0 26 20 50q27 34 87 100l52 58l-81 140q-8 14 -12 24.5t-4 24.5q0 32 23 53.5t56 21.5q20 0 33.5 -9t23.5 -29l60 -126l106 133q26 32 61 32q25 0 42.5 -17t17.5 -42q0 -29 -26 -58l-142 -155
l74 -138q10 -18 13 -28t3 -22q0 -31 -25 -52t-53 -21q-17 0 -31 9t-21 25z" />
    <glyph glyph-name="y" unicode="y" horiz-adv-x="466" 
d="M24 -181q-29 -19 -49 -19q-23 0 -39 16.5t-16 39.5q0 31 32 59l35 26q52 38 67 54q35 33 56 58q-26 140 -67 385q-5 34 15.5 63t54.5 29q58 0 66 -63l36 -278q30 48 140 287q12 26 29.5 39.5t37.5 13.5q35 0 49.5 -27.5t-3.5 -67.5q-67 -152 -120 -241l-35 -58
q-25 -42 -78 -114q-43 -57 -94 -108q-18 -18 -55.5 -48t-61.5 -46v0z" />
    <glyph glyph-name="z" unicode="z" horiz-adv-x="497" 
d="M53 0q-31 0 -49 14t-18 35q0 19 8 35.5t27 36.5q16 18 62.5 65.5t103.5 105.5l100 102h-56q-30 0 -59.5 -0.5t-57.5 0.5t-44.5 15t-16.5 37q0 30 23 52.5t60 22.5l280 -1q33 0 53 -16.5t20 -42.5q0 -24 -13.5 -46.5t-40.5 -49.5l-237 -238q80 0 192 5q27 2 41.5 -12.5
t14.5 -36.5q0 -29 -20.5 -52t-55.5 -26q-98 -5 -158 -5h-159v0z" />
    <glyph glyph-name="braceleft" unicode="{" horiz-adv-x="496" 
d="M306 -202q-111 11 -163 49q-73 55 -63 175q3 31 18 86q14 43 15 60q1 3 3 19l1 7q-24 5 -36 10q-23 9 -29.5 34t8.5 51q14 23 38 35q4 4 9 7q2 1 43 25q12 7 16 11q10 11 25 52q6 16 17 51t18 53q65 180 205 193q30 3 62 -13q1 0 16 -8q6 -2 8 -3q24 -9 31 -33t-7 -50
t-40.5 -38.5t-50.5 -4.5q-10 4 -22 10q-1 0 -5.5 2.5t-7.5 3.5l-3 2q-17 -2 -30.5 -18.5t-30.5 -62.5l-33 -103q-27 -73 -63 -111l-13 -13q11 -22 10 -54q0 -10 -2 -24t-2 -16q-3 -30 -20 -85q-13 -42 -14 -59q-5 -58 25 -80q27 -21 107 -28q26 -3 39 -24t5 -48t-33 -44.5
t-51 -15.5v0z" />
    <glyph glyph-name="bar" unicode="|" horiz-adv-x="246" 
d="M270 61q-2 -29 -23 -48.5t-50 -18t-48.5 22.5t-18.5 50q3 66 4.5 148.5t2 124t0 170.5t-0.5 148q0 29 20.5 49.5t49.5 20.5t49.5 -20.5t20.5 -49.5v-260q0 -42 -0.5 -107t-2 -120.5t-3.5 -109.5v0z" />
    <glyph glyph-name="braceright" unicode="}" horiz-adv-x="457" 
d="M61 -189q-44 -17 -70.5 -13.5t-39 25t-3 48.5t34.5 44q16 10 37 23l32 17q44 13 52 23q12 14 19 25t12 25l8 20q2 7 6 26l6 28q19 81 80 141q-8 9 -13 19q-6 11 -10.5 25t-7 25.5t-2.5 28.5l1 27q0 10 3 28.5t3.5 24.5t4 25t4.5 21q17 90 0 109l-8 3q-2 1 -25 1.5
t-26 1.5t-4 2q-14 4 -23 8q-24 10 -29 35t10.5 50.5t42.5 36t90 0.5l12 -3q16 -6 17 -6q33 -10 50 -29q20 -21 29.5 -47t8.5 -59t-3.5 -50.5t-9.5 -49.5q-10 -60 -12.5 -86.5t5.5 -41.5q2 -2 9 -6l12 -9q11 -7 16 -13q6 -5 11 -12q5 -5 8 -11q13 -22 3.5 -49t-34 -44
t-41 -31t-24.5 -27t-11 -20.5t-5 -20.5l-6 -25q-5 -24 -9 -36t-12.5 -36t-23.5 -48q-15 -23 -35 -46q-29 -34 -81 -64l-33 -18q-16 -9 -26 -15v0z" />
    <glyph glyph-name="asciitilde" unicode="~" horiz-adv-x="704" 
d="M473 177q-14 -2 -29 -3t-27 -1t-26.5 2.5t-23 4.5t-22.5 6.5t-19.5 6.5t-19 7.5t-15.5 6.5q-36 14 -56 16.5t-42 -5.5q-5 -2 -14 -9q-34 -26 -36 -27q-25 -18 -51 -15t-39 24.5t-4.5 48.5t34.5 44l9 8q4 3 9.5 7t9.5 7q28 22 53 32q31 13 60 16.5t56 -1t43 -9.5
q13 -3 39 -13q18 -7 24 -9.5t19.5 -7t19.5 -6t15.5 -3t17 -1t15.5 2.5q6 1 9.5 3t14.5 8t30 14q26 11 50.5 2t30.5 -33.5t-8.5 -50.5t-41.5 -38l-4 -2q-3 -1 -9 -4l-11 -6q-7 -3 -14.5 -6.5t-15 -6.5t-16.5 -5l-15 -5v0z" />
    <glyph glyph-name="uni00A0" unicode="&#xa0;" horiz-adv-x="270" 
 />
    <glyph glyph-name="exclamdown" unicode="&#xa1;" horiz-adv-x="279" 
d="M18 -14q15 88 27.5 153t26.5 125q7 29 31.5 49t53.5 19.5t44.5 -21t9.5 -49.5q-14 -60 -26.5 -124t-27.5 -149.5t-22 -123.5q-6 -29 -30 -50t-53 -21.5t-46 19t-12 48.5zM228 492q17 -20 10.5 -49t-31 -49.5t-53.5 -20.5t-45.5 20.5t-10 49.5t31.5 49.5t54 20.5t44 -21v0
z" />
    <glyph glyph-name="cent" unicode="&#xa2;" horiz-adv-x="570" 
d="M194 -69q-16 -28 -44.5 -40t-54 -2.5t-32 35.5t8.5 53l22 41q-50 42 -61 114q-12 73 10 145q36 118 130 187q81 60 177 58l16 33q13 28 41.5 42.5t54.5 7t35.5 -32.5t-4.5 -53l-16 -33q12 -9 23 -20.5t16 -19.5l15 -23l12 -20q15 -21 7 -50t-33.5 -48t-54 -17.5
t-42.5 23.5l-17 23q-56 -117 -105 -210q9 3 18 8t25 23l21 23q16 17 26 27q24 23 53 25.5t47.5 -16t15 -47t-26.5 -50.5q-7 -7 -18 -19l-22 -24q-35 -38 -68 -58q-63 -38 -141 -39h-8l-26 -46v0zM177 170q47 91 104 208q-20 -6 -38 -19q-45 -32 -63 -95q-17 -55 -3 -94v0z
" />
    <glyph glyph-name="sterling" unicode="&#xa3;" horiz-adv-x="623" 
d="M415 -16q-47 -2 -74 2t-47 17q-11 7 -12 8q-11 4 -36 8q-22 3 -84 -1l-27 -10q-27 -9 -47 -8q-50 2 -64 45q-14 46 26 89q16 17 42 31q2 2 10 6l12 6v1q45 48 51 87q-24 0 -45 -1q-29 0 -45.5 20t-11.5 49q6 28 29.5 48.5t51.5 22.5l1 1q-18 115 71 206q40 40 94.5 62.5
t108.5 24.5q57 3 104.5 -19t69.5 -71q10 -26 11 -64v-24q0 -10 1 -16q2 -27 -17 -52.5t-48.5 -34t-52 5t-25.5 41.5q-1 11 -1 28l1 8v13q-1 14 -3 19q-12 29 -64 27q-27 -1 -50.5 -11t-36.5 -23q-17 -17 -22 -33.5t0 -38.5q2 -15 9 -45q68 2 109 3q29 0 45 -20t10.5 -49
t-30 -49.5t-53.5 -21.5q-31 0 -71 -1q-9 -57 -44 -110q17 -1 32 -3q42 -6 66 -16q15 -6 30 -17q12 -2 50 0q6 0 10 1.5t16 5.5t32 9q30 8 52 -6.5t23.5 -42.5t-18.5 -53t-49 -32l-7 -2l-17 -6q-9 -3 -20.5 -6t-23.5 -5t-22 -3v0z" />
    <glyph glyph-name="currency" unicode="&#xa4;" horiz-adv-x="580" 
d="M139 113q-25 -20 -54 -19.5t-44.5 21t-8.5 49.5t32 49l33 27q-11 53 8 113q11 40 35 76l-31 35q-17 20 -11.5 49t30 50t53.5 22t46 -19l29 -34l10 4q31 12 68 10q1 0 19 -1h11q39 1 54 -30v1l70 51q26 19 54.5 16.5t43 -24t6 -50.5t-34.5 -48l-40 -29q26 -44 18 -98
t-41 -95l21 -27q14 -21 7.5 -50t-32 -48.5t-54 -19t-44.5 21.5l-17 23q-51 -24 -102.5 -25.5t-102.5 24.5l-31 -25v0zM250 268q29 -18 58.5 -14t55.5 26q49 41 19 75q-8 9 -32 18q-5 2 -9.5 3.5t-10 4t-9.5 3.5q-21 8 -35 14l-5 4q-29 -20 -41 -61q-8 -26 -4.5 -45t13.5 -28
v0z" />
    <glyph glyph-name="yen" unicode="&#xa5;" horiz-adv-x="616" 
d="M334 67q-7 -29 -32 -49t-54 -19.5t-44.5 21t-9.5 49.5q16 71 25 113h-103q-29 0 -45 20.5t-10 49.5t31 49.5t54 20.5h70l-10 29l-72 1q-28 1 -44 21.5t-10 49.5q7 27 29 46.5t49 21.5l-33 89q-10 25 3.5 53t41 43t54 7.5t36.5 -31.5l78 -218q93 111 200 225q21 23 51 28
t49.5 -12t18.5 -45.5t-23 -52.5l-78 -85q24 -4 37 -23.5t7 -46.5q-7 -29 -31.5 -49t-53.5 -20l-80 1l-30 -35q48 -2 93 -3q28 -1 43 -22.5t8 -50.5t-32.5 -48.5t-54.5 -18.5l-104 4q-9 -47 -24 -113v0z" />
    <glyph glyph-name="brokenbar" unicode="&#xa6;" horiz-adv-x="245" 
d="M234 49q-1 -21 -16 -35t-35.5 -13.5t-34.5 15.5t-14 35q1 23 1.5 65t1.5 76.5t2 64.5q1 21 16 35t36 13t35 -16t13 -36l-2 -65q-1 -34 -1.5 -75t-1.5 -64v0zM135 478q0 118 2 188q1 21 16 35.5t35.5 13.5t35 -16t13.5 -35q-2 -70 -2 -186q0 -21 -14.5 -35.5t-35.5 -14.5
t-35.5 14.5t-14.5 35.5v0z" />
    <glyph glyph-name="section" unicode="&#xa7;" horiz-adv-x="604" 
d="M242 -198q-60 -13 -116 4.5t-82 68.5q-12 25 -12 62l1 20v11q-2 28 17 53.5t48.5 33.5t52 -6t24.5 -41q1 -11 1 -26q-1 -1 -1 -7.5v-9.5v-8q6 -12 24 -18t43 -1q26 5 41 17t20 26q10 30 -26 67q-14 14 -31.5 28t-45.5 33t-42 30q-19 13 -31.5 24t-29 29t-25.5 40t-9 46
q-2 79 90 154q-5 16 -6 34q-3 80 46 137t120 80q39 13 80.5 13.5t80 -14t62.5 -43.5q19 -24 23 -64q1 -8 1 -14.5v-9t1 -6.5q6 -27 -11.5 -53.5t-46.5 -37.5t-53 0.5t-30 38.5q0 3 -4 43q1 2 0 4q-12 12 -35.5 15.5t-50.5 -4.5q-23 -7 -32 -18.5t-8 -30.5q0 -10 14 -24l3 -4
l20 -16q14 -10 49 -32l58 -36q78 -52 101 -105q38 -87 -37 -189q-20 -26 -52 -49q6 -39 -8 -82q-22 -67 -77.5 -109t-118.5 -54v0zM388 160q22 31 14 49q-11 25 -63 60l-56 34q-29 18 -49 32q-23 -17 -28 -28q5 -16 52 -51l36 -26q30 -20 52 -37.5t39 -34.5z" />
    <glyph glyph-name="dieresis" unicode="&#xa8;" horiz-adv-x="341" 
d="M342 601q-30 0 -48.5 16.5t-18.5 43.5q0 37 26 62t61 25q30 0 49 -16.5t19 -43.5q0 -37 -26.5 -62t-61.5 -25v0zM154 601q-30 0 -48.5 16.5t-18.5 43.5q0 37 26 62t61 25q30 0 49 -16.5t19 -43.5q0 -37 -26.5 -62t-61.5 -25v0z" />
    <glyph glyph-name="copyright" unicode="&#xa9;" horiz-adv-x="803" 
d="M312 1q-70 13 -125 50.5t-84 93.5t-33.5 120.5t27 137t96.5 137.5q119 118 232 136q9 1 22 2q23 15 46 10q7 -1 32 -5t47.5 -9.5t40.5 -12.5q74 -33 117.5 -118.5t39.5 -170.5q-5 -82 -47.5 -158t-107 -126.5t-145.5 -75t-158 -11.5v0zM352 107q53 -10 107.5 6.5t98 51
t72.5 85.5q27 50 30 104q3 62 -29 124q-32 63 -79 83q-18 8 -48 13q-9 -3 -18 -3q-13 -1 -39.5 0.5t-27.5 -1.5q-69 -10 -156 -96q-53 -52 -72 -113t-6 -112.5t57 -91t110 -50.5v0zM411 165q-39 -5 -69.5 4t-48 26.5t-29.5 41.5t-14 51t0.5 54t13.5 50q16 44 49.5 79
t82.5 48q95 27 195 -56q17 -14 16 -38t-19.5 -44t-43 -24t-41.5 10q-61 50 -98 40q-19 -6 -30 -34q-16 -42 -0.5 -68.5t46.5 -23.5q8 1 25 9l23 12q16 8 28 13q25 10 45.5 1.5t26 -30.5t-8 -44.5t-37.5 -32.5q-7 -3 -18 -9l-25 -12q-39 -20 -69 -23v0z" />
    <glyph glyph-name="ordfeminine" unicode="&#xaa;" horiz-adv-x="419" 
d="M197 397q-60 0 -91.5 38.5t-17.5 104.5q11 50 48 91.5t86.5 64.5t95.5 24q68 1 98 -32q9 -10 13.5 -26.5t-1.5 -32.5q13 -3 8 -28q-2 -10 -13 -32q-11 -24 -14 -39q-3 -14 3.5 -25t20.5 -23q19 -17 15 -37t-21 -33.5t-40 -13.5q-28 0 -49 18.5t-23 40.5q-52 -60 -118 -60
v0zM234 499q26 0 51.5 20t31.5 44q6 23 16 32q-3 1 -7 4t-6 5q-8 10 -9 10q-7 4 -20 4q-34 0 -62.5 -20t-34.5 -50q-5 -24 6.5 -36.5t33.5 -12.5v0z" />
    <glyph glyph-name="guillemotleft" unicode="&#xab;" horiz-adv-x="654" 
d="M442 98q-69 55 -92 79q-42 45 -32 93q2 9 6 18q18 45 87 86q16 9 54 30q40 21 59 32q4 2 7 3l1 1q27 15 54.5 9t37 -30.5t-2.5 -53t-40 -43.5l-94 -51q19 -17 66 -53q20 -16 19.5 -44.5t-21.5 -52.5q-13 -15 -32 -23q-19 -12 -40 -12t-37 12v0zM186 99q-70 55 -93 79
q-49 53 -26 111q18 45 87 86q16 9 55 30t58 32q28 15 55 9t37 -30.5t-2.5 -53t-40.5 -43.5l-94 -51q20 -17 66 -53q21 -16 20.5 -44.5t-22 -52.5t-51 -29.5t-49.5 10.5v0z" />
    <glyph glyph-name="logicalnot" unicode="&#xac;" horiz-adv-x="697" 
d="M468 164q17 90 23 109q-244 -4 -356 0q-29 1 -44 22.5t-8 50.5t32.5 48.5t54.5 18.5q109 -4 401 0q5 0 9 -1q9 2 18 2q29 -2 43.5 -23.5t7.5 -50.5q-8 -25 -13.5 -47t-7 -26t-3.5 -15l-3 -15q-1 -3 -5 -25l-8 -44q-6 -29 -30 -50t-53 -21.5t-46 19t-12 48.5v0z" />
    <glyph glyph-name="uni00AD" unicode="&#xad;" horiz-adv-x="450" 
d="M52 200q-29 0 -45 20.5t-10 49.5t31 49.5t54 20.5h167q29 0 45 -20.5t10 -49.5t-31 -49.5t-54 -20.5h-167v0z" />
    <glyph glyph-name="registered" unicode="&#xae;" horiz-adv-x="782" 
d="M298 -8q-79 11 -133.5 49t-78 92t-24.5 116.5t20 127.5q19 64 59 123.5t93.5 107.5t124.5 76.5t148 28.5q17 0 27 -12q3 0 15.5 -2.5t20 -3.5t21 -4t23.5 -5.5t21.5 -6t21.5 -7.5l17 -9q43 -28 81 -98q30 -59 30 -130t-25.5 -137t-73.5 -127t-107.5 -104t-134 -64.5
t-146.5 -10.5v0zM328 76q53 -7 109 9t101.5 49t82.5 79.5t56.5 97t20 104.5t-23.5 100q-29 54 -58 72q-8 6 -24 11t-27.5 7.5t-37 7t-32.5 5.5q-11 2 -17 9q-109 -4 -194.5 -79t-118.5 -180q-22 -69 -14.5 -129.5t52.5 -105.5t125 -57v0zM443 187q-4 16 -7.5 31t-4 17.5
t-2.5 10.5l-3 10q-1 2 -6 16l-9 29l-39 -4h-11q-10 -45 -21 -87q-6 -22 -25 -37t-40.5 -14t-33.5 17t-6 38q18 72 63 298q5 22 23.5 38t40.5 16h3q95 19 170 -3.5t93 -77.5q11 -38 -7 -73q-18 -36 -57 -61q-18 -12 -42 -22q12 -34 26 -100q5 -20 -7 -40.5t-34 -29t-41 -1
t-23 28.5v0zM383 402q1 1 3 1q94 7 132 32q2 2 5 3q-10 13 -42.5 24t-84.5 5q-10 -45 -13 -65v0z" />
    <glyph glyph-name="macron" unicode="&#xaf;" horiz-adv-x="383" 
d="M203 613q-19 0 -45 3q-28 -1 -47.5 14t-20.5 42.5t17.5 42.5t46.5 16q54 -3 121.5 -1t129.5 2q28 0 46.5 -13t19 -40.5t-17.5 -43.5t-46 -18q-63 -4 -115 -4h-89v0z" />
    <glyph glyph-name="degree" unicode="&#xb0;" horiz-adv-x="373" 
d="M157 427q-37 22 -52.5 65.5t1 95t66.5 90.5q24 19 60 26q9 2 16.5 3t10.5 2q25 7 42 -5q3 -1 6 -3q6 -3 16 -7q22 -8 23 -9q36 -14 52 -37q22 -28 17.5 -65t-23.5 -65t-45 -50t-56 -37t-67 -19t-67 15v0zM227 519q4 -6 22 -1t37 21l8.5 8.5t6 7t4 6t2.5 4.5t1.5 4t0 3
t0 2t0.5 2h-1q-4 5 -20 12q-2 1 -6 2.5l-8 3t-6 2.5q-12 4 -21 8q-3 0 -7.5 -1t-7 -1t-2.5 -1q-3 0 -5 -1q-19 -16 -19.5 -42t21.5 -39v0z" />
    <glyph glyph-name="plusminus" unicode="&#xb1;" horiz-adv-x="593" 
d="M225 237q11 52 14 84q-31 -1 -77 -1q-29 0 -45.5 20t-11 48.5t30 49.5t52.5 22q48 2 81 1q11 41 22 80q8 29 34.5 47.5t54.5 16t42 -25t5 -50.5q-11 -35 -20 -71q43 -4 83 -8q28 -3 41 -26t3.5 -51.5t-36 -46.5t-54.5 -14q-32 5 -65 6q-4 -29 -12 -73q-5 -29 -28.5 -50.5
t-53 -23t-48 17.5t-12.5 48v0zM391 -19q-99 11 -313 5q-27 0 -42 18.5t-10.5 45t27.5 46.5t49 20q199 0 331 -8q26 -2 38.5 -23t4 -47.5t-33.5 -43t-51 -13.5v0z" />
    <glyph glyph-name="uni00B2" unicode="&#xb2;" horiz-adv-x="418" 
d="M139 266q-36 0 -58.5 21t-22.5 52q0 48 43 87.5t110 73.5l24 12q47 23 69 37.5t22 32.5q0 12 -11 20.5t-29 8.5q-23 0 -40 -10t-38 -38q-24 -32 -53 -32q-19 0 -32 12.5t-13 31.5q0 33 29 66t74.5 54t92.5 21q60 0 96.5 -29.5t36.5 -76.5q0 -68 -56 -118
q-33 -28 -122 -68q-64 -29 -85 -57q22 6 53.5 10t56.5 4q60 0 88 -11q32 -13 32 -43q0 -27 -20 -44t-51 -17q-14 0 -42 4q-27 5 -50 5q-24 0 -56 -5q-34 -4 -48 -4v0z" />
    <glyph glyph-name="uni00B3" unicode="&#xb3;" horiz-adv-x="366" 
d="M110 286q-6 3 -13 7.5t-13 9.5l-11 9q-5 4 -8 8l-4 3q-16 12 -15.5 33.5t16.5 40t38 22.5t38 -8q9 -6 15 -11l6 -7l5 -4q2 -2 6 -3q29 -9 52.5 -1.5t34.5 21.5q4 7 2 14q-9 19 -49 35q-22 -4 -37 8t-14 33q1 22 16.5 40t37.5 23h1q9 3 17 4q38 10 55 24q3 3 4 5
q0 3 -5.5 8.5t-23.5 10.5t-43 2l-1 -1q-29 -23 -33 -25q-19 -13 -40.5 -10.5t-31 20t-2.5 39.5t28 35l4.5 3t6 5t10.5 9q31 25 60 29q69 11 121 -14t59 -77q7 -61 -51 -111q-4 -4 -9 -7q14 -14 20 -30q26 -60 -20 -122q-39 -52 -104.5 -72.5t-124.5 2.5v0z" />
    <glyph glyph-name="acute" unicode="&#xb4;" horiz-adv-x="218" 
d="M140 570q-28 -2 -46 17.5t-14 48t29 50.5l96 86q25 23 53 24t46 -18t14 -47.5t-29 -50.5l-96 -86q-25 -22 -53 -24v0z" />
    <glyph glyph-name="uni00B5" unicode="&#xb5;" horiz-adv-x="618" 
d="M48 -148q-11 -28 -38 -45t-54.5 -12t-39.5 28.5t-1 52.5q36 95 130 292q85 178 125 281q11 28 38 45t54.5 12t39.5 -28.5t1 -52.5q-33 -85 -92 -210l2 -2l10 -12q3 -2 4 -4q47 -8 134 85q64 69 147 198q17 27 46.5 38t52.5 -1q21 -10 28 -31.5t-2 -44.5q-2 -9 -5 -17
q-40 -100 -172 -389q-13 -28 -41.5 -43t-55 -8t-36 32t3.5 53l15 33q-95 -60 -178 -40q-11 3 -21 8q-58 -121 -95 -218v0z" />
    <glyph glyph-name="paragraph" unicode="&#xb6;" horiz-adv-x="662" 
d="M309 -132q-7 -29 -31.5 -49t-53.5 -19.5t-44.5 21t-9.5 49.5q34 151 76 351q-3 0 -5 1q-6 2 -15 4l-21 5q-37 8 -58 24q-44 33 -56 85.5t2 109.5q13 53 46 103q34 50 80 85q39 30 85 48t82.5 24.5t83 5t72.5 -5.5t66 -11q22 -4 34 -22q19 -20 13 -51q-27 -126 -77.5 -378
t-77.5 -378q-6 -29 -31 -49.5t-54 -20.5t-45 20.5t-10 49.5q26 125 73.5 359.5t69.5 340.5q-23 3 -41 5q-111 -523 -153 -707v0zM297 461l20 90q-14 -7 -28 -17q-19 -15 -34.5 -39t-22.5 -50q-13 -51 16 -72q3 -3 17 -6q3 -1 12 -3z" />
    <glyph glyph-name="periodcentered" unicode="&#xb7;" horiz-adv-x="162" 
d="M146 382q16 -20 10 -49t-31 -49.5t-54 -20.5t-45 20.5t-10 49.5t31 49.5t54 20.5t45 -21v0z" />
    <glyph glyph-name="cedilla" unicode="&#xb8;" horiz-adv-x="242" 
d="M19 -236q-47 0 -77.5 21t-30.5 52q0 20 13 33.5t30 13.5q13 0 20 -4.5t18 -15.5q19 -19 41 -19q15 0 26 10.5t11 25.5q0 17 -26 24q-7 2 -19 1.5t-24 -0.5q-17 1 -27 11t-10 27q0 20 41 58q46 42 68 55q14 -5 29.5 -11.5t24.5 -15.5q-26 -15 -47.5 -36t-25.5 -40l-20 16
q9 4 27 4q42 0 71 -24.5t29 -60.5q0 -31 -20 -60t-53 -47t-69 -18v0z" />
    <glyph glyph-name="uni00B9" unicode="&#xb9;" horiz-adv-x="287" 
d="M143 317q8 37 23.5 116t25.5 120l-24 -18q-19 -15 -41 -14t-33.5 17t-5.5 38t25 37l23 18q13 10 16 12t10 7.5t8.5 6.5t9.5 7t13.5 9.5t20.5 14.5l30 21q20 14 41.5 12t32 -19t3.5 -39q0 -7 -2 -14q-3 0 -37 -166l-33 -166q-5 -22 -23.5 -37.5t-40.5 -15.5t-34.5 15.5
t-7.5 37.5v0z" />
    <glyph glyph-name="ordmasculine" unicode="&#xba;" horiz-adv-x="387" 
d="M160 405q-40 18 -58.5 57t-12.5 84q6 47 37 89t83 65q25 11 54 13q33 19 59 0q14 -3 22 -13l17 -9q32 -17 48 -46q19 -32 16 -69t-20.5 -69t-45.5 -57q-42 -38 -95 -53t-104 8v0zM223 505q16 -7 35 -2.5t35 19.5q31 30 16 57q-4 7 -20 15q-3 2 -18 10h-20q-12 0 -16 -2
q-32 -14 -36 -47q-2 -17 4 -30.5t20 -19.5v0z" />
    <glyph glyph-name="guillemotright" unicode="&#xbb;" horiz-adv-x="655" 
d="M66 98q-15 8 -22 23q-11 24 0.5 52.5t39.5 44.5q61 36 88 53l-72 51q-22 15 -22 43.5t20.5 53t50 30.5t50.5 -9l1 -1q3 -1 5 -3q15 -11 45 -32t42 -30q51 -41 51 -86q0 -9 -2 -18q-10 -48 -72 -93q-33 -24 -126 -79q-20 -12 -41 -12t-36 12v0zM401 99
q-28 -16 -55.5 -10.5t-38 29.5t1 52.5t38.5 44.5q62 36 88 53l-72 51q-22 15 -21.5 43.5t20.5 53t50 30.5t50 -9q15 -11 46 -32q29 -21 41 -30q51 -41 51 -86q-1 -58 -74 -111q-33 -24 -125 -79v0z" />
    <glyph glyph-name="onequarter" unicode="&#xbc;" horiz-adv-x="905" 
d="M143 317q8 37 23.5 116t25.5 120l-24 -18q-19 -15 -41 -14t-33.5 17t-5.5 38t25 37l23 18q13 10 16 12t10 7.5t8.5 6.5t9.5 7t13.5 9.5t20.5 14.5l30 21q20 14 41.5 12t32 -19t3.5 -39q0 -7 -2 -14q-3 0 -37 -166l-33 -166q-5 -22 -23.5 -37.5t-40.5 -15.5t-34.5 15.5
t-7.5 37.5v0zM238 34q-17 -22 -42 -29.5t-44.5 4.5t-22 35.5t14.5 45.5q55 75 230 287q144 175 218 283q14 22 39.5 30.5t46 -2t24 -34t-12.5 -46.5q-73 -105 -227 -293q-167 -204 -224 -281v0zM674 -3q-20 0 -32 12.5t-7 34.5l13 61q-63 0 -126 5q-35 3 -49 19.5t-10 39.5
q4 18 13.5 33t33.5 37q115 107 188 178q21 21 36.5 31.5t33.5 10.5t30.5 -12t10.5 -28q-8 -50 -34 -176l-8 -39q10 1 19.5 0.5t19.5 -0.5q22 0 31.5 -14.5t5.5 -33.5q-5 -20 -20.5 -34t-37.5 -15l-39 -1l-4 -21q-5 -23 -10 -42q-6 -20 -22.5 -33t-35.5 -13v0zM592 200
q13 1 39 1h38q14 63 17 83q-56 -55 -94 -84v0z" />
    <glyph glyph-name="onehalf" unicode="&#xbd;" horiz-adv-x="926" 
d="M143 317q8 37 23.5 116t25.5 120l-24 -18q-19 -15 -41 -14t-33.5 17t-5.5 38t25 37l23 18q13 10 16 12t10 7.5t8.5 6.5t9.5 7t13.5 9.5t20.5 14.5l30 21q20 14 41.5 12t32 -19t3.5 -39q0 -7 -2 -14q-3 0 -37 -166l-33 -166q-5 -22 -23.5 -37.5t-40.5 -15.5t-34.5 15.5
t-7.5 37.5v0zM238 34q-17 -22 -42 -29.5t-44.5 4.5t-22 35.5t14.5 45.5q55 75 230 287q144 175 218 283q14 22 39.5 30.5t46 -2t24 -34t-12.5 -46.5q-73 -105 -227 -293q-167 -204 -224 -281v0zM582 -16q-36 0 -58.5 21t-22.5 52q0 48 43 87.5t110 73.5l24 12q47 23 69 37.5
t22 32.5q0 12 -11 20.5t-29 8.5q-23 0 -40 -10t-38 -38q-24 -32 -53 -32q-19 0 -32 12.5t-13 31.5q0 33 29 66t74.5 54t92.5 21q60 0 96.5 -29.5t36.5 -76.5q0 -68 -56 -118q-33 -28 -122 -68q-64 -29 -85 -57q22 6 53.5 10t56.5 4q60 0 88 -11q32 -13 32 -43q0 -27 -20 -44
t-51 -17q-14 0 -42 4q-27 5 -50 5q-24 0 -56 -5q-34 -4 -48 -4v0z" />
    <glyph glyph-name="threequarters" unicode="&#xbe;" horiz-adv-x="943" 
d="M22 286q-6 3 -13 7.5t-13 9.5l-11 9q-5 4 -8 8l-4 3q-16 12 -15.5 33.5t16.5 40t38 22.5t38 -8q9 -6 15 -11l6 -7l5 -4q2 -2 6 -3q29 -9 52.5 -1.5t34.5 21.5q4 7 2 14q-9 19 -49 35q-22 -4 -37 8t-14 33q1 22 16.5 40t37.5 23h1q9 3 17 4q38 10 55 24q3 3 4 5
q0 3 -5.5 8.5t-23.5 10.5t-43 2l-1 -1q-29 -23 -33 -25q-19 -13 -40.5 -10.5t-31 20t-2.5 39.5t28 35l4.5 3t6 5t10.5 9q31 25 60 29q69 11 121 -14t59 -77q7 -61 -51 -111q-4 -4 -9 -7q14 -14 20 -30q26 -60 -20 -122q-39 -52 -104.5 -72.5t-124.5 2.5v0zM309 34
q-17 -22 -42 -29.5t-44.5 4.5t-22 35.5t14.5 45.5q55 75 230 287q144 175 218 283q14 22 39.5 30.5t46 -2t24 -34t-12.5 -46.5q-73 -105 -227 -293q-167 -204 -224 -281v0zM729 -18q-20 0 -32 12.5t-7 34.5l13 61q-63 0 -126 5q-35 3 -49 19.5t-10 39.5q4 18 13.5 33
t33.5 37q115 107 188 178q21 21 36.5 31.5t33.5 10.5t30.5 -12t10.5 -28q-8 -50 -34 -176l-8 -39q10 1 19.5 0.5t19.5 -0.5q22 0 31.5 -14.5t5.5 -33.5q-5 -20 -20.5 -34t-37.5 -15l-39 -1l-4 -21q-5 -23 -10 -42q-6 -20 -22.5 -33t-35.5 -13v0zM647 185q13 1 39 1h38
q14 63 17 83q-56 -55 -94 -84v0z" />
    <glyph glyph-name="questiondown" unicode="&#xbf;" horiz-adv-x="428" 
d="M315 -107q-38 -39 -82 -61t-84.5 -25.5t-78 9.5t-63 39t-37 66t-3.5 87q21 121 120 183q12 7 32 18l25 14q15 9 21 17l2 10v4l2 5q1 13 4 23q8 25 30.5 41t47 14t36.5 -21t4 -44l-2 -9l-3 -17q-6 -33 -23 -57q-26 -37 -72 -65l-31 -17q-16 -9 -24 -14q-12 -7 -19.5 -14
t-15.5 -23.5t-13 -41.5q-7 -43 16 -67.5t60.5 -20t69.5 38.5l2 6q2 2 2 5l3 4q1 3 2 5q5 12 10 20q13 24 37 35t46.5 3t29 -30t-7.5 -46l-4 -9l-7 -16q-14 -29 -32 -49v0zM334 495q16 -20 10 -49t-31 -49.5t-54 -20.5t-45 20.5t-10 49.5t31 49.5t54 20.5t45 -21v0z" />
    <glyph glyph-name="Agrave" unicode="&#xc0;" horiz-adv-x="607" 
d="M-36 41q-2 10 -2 15q0 19 12 38l347 567q34 55 82 55q28 0 45 -14.5t22 -40.5l28 -170l33 -215l29 -180q4 -26 -6.5 -48t-29 -35t-37.5 -13q-50 0 -59 43l-24 152l-222 -5l-87 -149q-13 -20 -33.5 -31.5t-41.5 -11.5q-20 0 -35.5 11t-20.5 32v0zM382 328l-20 145
l-95 -147zM455 756q-18 0 -44 16l-119 71q-37 22 -37 63q0 24 18 43t44 19q15 0 27 -4.5t27 -14.5l119 -78q16 -11 23 -22.5t7 -30.5q0 -26 -21 -44t-44 -18v0z" />
    <glyph glyph-name="Aacute" unicode="&#xc1;" horiz-adv-x="607" 
d="M-36 41q-2 10 -2 15q0 19 12 38l347 567q34 55 82 55q28 0 45 -14.5t22 -40.5l28 -170l33 -215l29 -180q4 -26 -6.5 -48t-29 -35t-37.5 -13q-50 0 -59 43l-24 152l-222 -5l-87 -149q-13 -20 -33.5 -31.5t-41.5 -11.5q-20 0 -35.5 11t-20.5 32v0zM382 328l-20 145
l-95 -147zM399 759q-26 0 -41.5 16.5t-15.5 39.5q0 18 9 32.5t23 24.5l117 77q15 10 26.5 14.5t24.5 4.5q25 0 42 -17.5t17 -41.5q0 -18 -10 -35t-27 -28l-119 -71q-26 -16 -46 -16v0z" />
    <glyph glyph-name="Acircumflex" unicode="&#xc2;" horiz-adv-x="598" 
d="M92 45q-17 -27 -45.5 -38t-53 0.5t-30 38t12.5 53.5l345 570q11 19 29 30.5t37 13.5q4 2 9 3q29 8 49 -6t22 -42q7 -90 44 -289q34 -196 43 -290q3 -27 -16 -52.5t-48.5 -34t-52 5t-25.5 41.5q-6 58 -16 126q-107 3 -109.5 3t-113.5 -5l-81 -128v0zM262 316q53 2 110 0
l-2 12l-21 129l-87 -141v0zM305 760q-21 0 -36 14t-15 35q0 18 9.5 31.5t28.5 27.5l87 62q19 13 34 19t30 6q27 0 51 -27l56 -61q12 -13 19 -25.5t7 -21.5q0 -25 -18 -42.5t-41 -17.5q-12 0 -20 5t-18 15l-50 52l-73 -50q-32 -22 -51 -22v0z" />
    <glyph glyph-name="Atilde" unicode="&#xc3;" horiz-adv-x="607" 
d="M-36 41q-2 10 -2 15q0 19 12 38l347 567q34 55 82 55q28 0 45 -14.5t22 -40.5l28 -170l33 -215l29 -180q4 -26 -6.5 -48t-29 -35t-37.5 -13q-50 0 -59 43l-24 152l-222 -5l-87 -149q-13 -20 -33.5 -31.5t-41.5 -11.5q-20 0 -35.5 11t-20.5 32v0zM382 328l-20 145
l-95 -147zM249 767q-16 0 -28 11t-12 29q0 26 25 57.5t61.5 53.5t69.5 22q29 0 49 -8.5t42 -24.5q18 -12 29.5 -17.5t26.5 -5.5q14 0 23 6t21 20q14 16 25 23.5t30 7.5t30 -12.5t10 -32.5q-1 -22 -26.5 -53t-60.5 -53t-63 -22q-30 0 -49.5 9t-42.5 25q-17 13 -29 18.5
t-27 5.5t-24.5 -6.5t-22.5 -21.5q-14 -15 -26 -23t-31 -8v0z" />
    <glyph glyph-name="Adieresis" unicode="&#xc4;" horiz-adv-x="607" 
d="M-36 41q-2 10 -2 15q0 19 12 38l347 567q34 55 82 55q28 0 45 -14.5t22 -40.5l28 -170l33 -215l29 -180q4 -26 -6.5 -48t-29 -35t-37.5 -13q-50 0 -59 43l-24 152l-222 -5l-87 -149q-13 -20 -33.5 -31.5t-41.5 -11.5q-20 0 -35.5 11t-20.5 32v0zM382 328l-20 145
l-95 -147zM514 773q-30 0 -48.5 16.5t-18.5 43.5q0 37 26 62t61 25q30 0 49 -16.5t19 -43.5q0 -37 -26.5 -62t-61.5 -25v0zM326 773q-30 0 -48.5 16.5t-18.5 43.5q0 37 26 62t61 25q30 0 49 -16.5t19 -43.5q0 -37 -26.5 -62t-61.5 -25v0z" />
    <glyph glyph-name="Aring" unicode="&#xc5;" horiz-adv-x="607" 
d="M-36 41q-2 10 -2 15q0 19 12 38l347 567q34 55 82 55q28 0 45 -14.5t22 -40.5l28 -170l33 -215l29 -180q4 -26 -6.5 -48t-29 -35t-37.5 -13q-50 0 -59 43l-24 152l-222 -5l-87 -149q-13 -20 -33.5 -31.5t-41.5 -11.5q-20 0 -35.5 11t-20.5 32v0zM382 328l-20 145
l-95 -147zM420 738q-50 0 -81 28.5t-31 70.5q0 44 21.5 79.5t52.5 52.5q11 6 27 8q5 1 8.5 2t8.5 1t11 1t14 1q44 0 76 -30.5t32 -75.5q0 -37 -18.5 -68.5t-50.5 -50.5t-70 -19v0v0zM429 819q17 0 30 12t14 31q2 17 -8.5 27.5t-27.5 10.5q-18 0 -31 -12t-14 -30
q-2 -20 8 -29.5t29 -9.5v0v0z" />
    <glyph glyph-name="AE" unicode="&#xc6;" horiz-adv-x="951" 
d="M429 -7q-29 -1 -46 19t-12 49l2 5v1q9 50 20 110q-25 1 -53 2t-31 1h-20q-17 0 -21.5 -0.5t-35 -2t-59.5 -2.5l-81 -129q-16 -27 -45 -38t-53.5 0.5t-30 38t12.5 53.5l337 546l8 12q9 23 30.5 39.5t46.5 18.5q96 6 272 0q185 -6 258 -4q29 1 46 -19t11.5 -49t-30 -50
t-53.5 -22q-77 -2 -267 5q-18 1 -33 1q-11 -64 -26 -148q146 2 274 2q29 0 45.5 -20.5t10 -49.5t-31 -49.5t-53.5 -20.5q-128 0 -269 -1q-16 -96 -27 -156q143 4 302 4q29 0 45 -20.5t10 -49.5t-31 -49.5t-54 -20.5h-151q-16 0 -29.5 -0.5t-33 -1t-61.5 -1.5q-16 0 -93 -3v0
zM260 317q63 3 67.5 3t89.5 -3q31 178 46 263q-21 -1 -40 -1l-163 -262v0z" />
    <glyph glyph-name="Ccedilla" unicode="&#xc7;" horiz-adv-x="690" 
d="M275 -258q-47 0 -77.5 21t-30.5 52q0 20 13 33.5t30 13.5q13 0 20 -4.5t18 -15.5q19 -19 41 -19q15 0 26 10.5t11 25.5q0 17 -26 24q-7 2 -19 1.5t-24 -0.5q-13 1 -21 11.5t-8 26.5q0 23 31 56t66 62q18 -3 29 -7.5t24 -13.5q-21 -19 -38.5 -43t-21.5 -44l-20 16
q9 4 27 4q41 0 66.5 -24t25.5 -61q0 -31 -20 -60t-53 -47t-69 -18v0zM335 -1q-66 0 -121 19.5t-93 57.5q-36 36 -55.5 88.5t-19.5 117.5q0 117 62 216t163 157.5t213 58.5q49 0 94 -17.5t74 -48.5q30 -35 52 -74q9 -16 9 -31q0 -36 -26 -59t-63 -23q-29 0 -46 24
q-4 6 -8.5 12.5t-8.5 13.5q-6 11 -14 23q-15 21 -39.5 32t-53.5 11q-69 0 -131 -38.5t-99.5 -102t-37.5 -134.5q0 -85 44.5 -127t125.5 -42q43 0 75 12t50 33q16 17 22 32l19 40q13 23 32 34t41 11q25 0 42.5 -14.5t17.5 -38.5q0 -20 -21 -61q-46 -90 -126 -136t-173 -46v0
v0z" />
    <glyph glyph-name="Egrave" unicode="&#xc8;" horiz-adv-x="652" 
d="M497 -1q-148 0 -403 3q-20 0 -34 11.5t-19 28.5q-8 18 -3 39q8 35 59 282q37 180 69 283q4 13 11 24q12 20 31.5 32.5t42.5 13.5q73 1 197 0.5t197 0.5q29 0 45 -20t10 -48.5t-29.5 -49t-52.5 -20.5q-56 0 -167 0.5t-167 -0.5q-16 -61 -35 -144q48 1 296 1q29 0 45.5 -20
t10.5 -48.5t-31 -49t-54 -20.5q-249 0 -295 -1q-22 -112 -33 -158q203 -2 339 -2q29 0 44.5 -20t9.5 -49t-30.5 -49t-53.5 -20v0zM505 756q-18 0 -44 16l-119 71q-37 22 -37 63q0 24 18 43t44 19q15 0 27 -4.5t27 -14.5l119 -78q16 -11 23 -22.5t7 -30.5q0 -26 -21 -44
t-44 -18v0z" />
    <glyph glyph-name="Eacute" unicode="&#xc9;" horiz-adv-x="652" 
d="M497 -1q-148 0 -403 3q-20 0 -34 11.5t-19 28.5q-8 18 -3 39q8 35 59 282q37 180 69 283q4 13 11 24q12 20 31.5 32.5t42.5 13.5q73 1 197 0.5t197 0.5q29 0 45 -20t10 -48.5t-29.5 -49t-52.5 -20.5q-56 0 -167 0.5t-167 -0.5q-16 -61 -35 -144q48 1 296 1q29 0 45.5 -20
t10.5 -48.5t-31 -49t-54 -20.5q-249 0 -295 -1q-22 -112 -33 -158q203 -2 339 -2q29 0 44.5 -20t9.5 -49t-30.5 -49t-53.5 -20v0zM449 759q-26 0 -41.5 16.5t-15.5 39.5q0 18 9 32.5t23 24.5l117 77q15 10 26.5 14.5t24.5 4.5q25 0 42 -17.5t17 -41.5q0 -18 -10 -35t-27 -28
l-119 -71q-26 -16 -46 -16v0z" />
    <glyph glyph-name="Ecircumflex" unicode="&#xca;" horiz-adv-x="652" 
d="M497 -1q-148 0 -403 3q-20 0 -34 11.5t-19 28.5q-8 18 -3 39q8 35 59 282q37 180 69 283q4 13 11 24q12 20 31.5 32.5t42.5 13.5q73 1 197 0.5t197 0.5q29 0 45 -20t10 -48.5t-29.5 -49t-52.5 -20.5q-56 0 -167 0.5t-167 -0.5q-16 -61 -35 -144q48 1 296 1q29 0 45.5 -20
t10.5 -48.5t-31 -49t-54 -20.5q-249 0 -295 -1q-22 -112 -33 -158q203 -2 339 -2q29 0 44.5 -20t9.5 -49t-30.5 -49t-53.5 -20v0zM356 760q-21 0 -36 14t-15 35q0 18 9.5 31.5t28.5 27.5l87 62q19 13 34 19t30 6q27 0 51 -27l56 -61q12 -13 19 -25.5t7 -21.5
q0 -25 -18 -42.5t-41 -17.5q-12 0 -20 5t-18 15l-50 52l-73 -50q-32 -22 -51 -22v0z" />
    <glyph glyph-name="Edieresis" unicode="&#xcb;" horiz-adv-x="652" 
d="M497 -1q-148 0 -403 3q-20 0 -34 11.5t-19 28.5q-8 18 -3 39q8 35 59 282q37 180 69 283q4 13 11 24q12 20 31.5 32.5t42.5 13.5q73 1 197 0.5t197 0.5q29 0 45 -20t10 -48.5t-29.5 -49t-52.5 -20.5q-56 0 -167 0.5t-167 -0.5q-16 -61 -35 -144q48 1 296 1q29 0 45.5 -20
t10.5 -48.5t-31 -49t-54 -20.5q-249 0 -295 -1q-22 -112 -33 -158q203 -2 339 -2q29 0 44.5 -20t9.5 -49t-30.5 -49t-53.5 -20v0zM564 773q-30 0 -48.5 16.5t-18.5 43.5q0 37 26 62t61 25q30 0 49 -16.5t19 -43.5q0 -37 -26.5 -62t-61.5 -25v0zM376 773q-30 0 -48.5 16.5
t-18.5 43.5q0 37 26 62t61 25q30 0 49 -16.5t19 -43.5q0 -37 -26.5 -62t-61.5 -25v0z" />
    <glyph glyph-name="Igrave" unicode="&#xcc;" horiz-adv-x="291" 
d="M173 65q-6 -29 -31 -49t-54 -20t-44.5 21t-9.5 50q21 94 62 288.5t62 289.5q6 29 31 49t54 20t44.5 -21t9.5 -50q-20 -94 -61 -288.5t-63 -289.5v0zM296 756q-18 0 -44 16l-119 71q-37 22 -37 63q0 24 18 43t44 19q15 0 27 -4.5t27 -14.5l119 -78q16 -11 23 -22.5
t7 -30.5q0 -26 -21 -44t-44 -18v0z" />
    <glyph glyph-name="Iacute" unicode="&#xcd;" horiz-adv-x="291" 
d="M173 65q-6 -29 -31 -49t-54 -20t-44.5 21t-9.5 50q21 94 62 288.5t62 289.5q6 29 31 49t54 20t44.5 -21t9.5 -50q-20 -94 -61 -288.5t-63 -289.5v0zM240 759q-26 0 -41.5 16.5t-15.5 39.5q0 18 9 32.5t23 24.5l117 77q15 10 26.5 14.5t24.5 4.5q25 0 42 -17.5t17 -41.5
q0 -18 -10 -35t-27 -28l-119 -71q-26 -16 -46 -16v0z" />
    <glyph glyph-name="Icircumflex" unicode="&#xce;" horiz-adv-x="291" 
d="M173 65q-6 -29 -31 -49t-54 -20t-44.5 21t-9.5 50q21 94 62 288.5t62 289.5q6 29 31 49t54 20t44.5 -21t9.5 -50q-20 -94 -61 -288.5t-63 -289.5v0zM147 760q-21 0 -36 14t-15 35q0 18 9.5 31.5t28.5 27.5l87 62q19 13 34 19t30 6q27 0 51 -27l56 -61q12 -13 19 -25.5
t7 -21.5q0 -25 -18 -42.5t-41 -17.5q-12 0 -20 5t-18 15l-50 52l-73 -50q-32 -22 -51 -22v0z" />
    <glyph glyph-name="Idieresis" unicode="&#xcf;" horiz-adv-x="291" 
d="M173 65q-6 -29 -31 -49t-54 -20t-44.5 21t-9.5 50q21 94 62 288.5t62 289.5q6 29 31 49t54 20t44.5 -21t9.5 -50q-20 -94 -61 -288.5t-63 -289.5v0zM355 773q-30 0 -48.5 16.5t-18.5 43.5q0 37 26 62t61 25q30 0 49 -16.5t19 -43.5q0 -37 -26.5 -62t-61.5 -25v0zM167 773
q-30 0 -48.5 16.5t-18.5 43.5q0 37 26 62t61 25q30 0 49 -16.5t19 -43.5q0 -37 -26.5 -62t-61.5 -25v0z" />
    <glyph glyph-name="Eth" unicode="&#xd0;" horiz-adv-x="704" 
d="M68 298q-25 0 -39 17.5t-9 42.5q6 26 27.5 43t46.5 17h300q26 0 39 -16t7 -44q-6 -27 -26.5 -43.5t-45.5 -16.5h-300v0zM101 1q-27 1 -43 21t-10 49l60 288q30 151 63 279q7 27 32.5 47t54.5 19q16 4 59 7.5t94 3.5q134 0 214.5 -66.5t80.5 -193.5q0 -97 -48 -189
t-122 -161q-61 -56 -137 -80.5t-154 -24.5q-117 0 -144 1v0v0zM201 132q59 0 78 1q76 4 124 27t86 71q39 50 58 103t19 100q0 77 -45.5 113.5t-149.5 36.5q-34 0 -76 -3l-32 -146l-36 -177q-15 -75 -26 -126v0v0z" />
    <glyph glyph-name="Ntilde" unicode="&#xd1;" horiz-adv-x="751" 
d="M100 -4q-31 0 -47.5 19t-10.5 50q16 72 52 269q36 196 64 312q7 29 31.5 48.5t52.5 19.5q15 0 28 -6q18 -6 28 -22l41 -69l22 -38q14 -27 34 -59q45 -77 78 -143l60 -124q25 106 62 290l22 103q7 33 30.5 51.5t51.5 18.5q25 0 42 -14t17 -40q0 -9 -1 -14l-9 -49
q-27 -138 -52 -254.5t-65 -275.5q-8 -31 -33.5 -50.5t-54.5 -19.5q-25 0 -39 9t-25 29l-24 43q-48 80 -86 162q-58 125 -113 213q-12 -69 -36 -196.5t-38 -193.5q-7 -33 -30.5 -51t-51.5 -18v0zM325 767q-16 0 -28 11t-12 29q0 26 25 57.5t61.5 53.5t69.5 22q29 0 49 -8.5
t42 -24.5q18 -12 29.5 -17.5t26.5 -5.5q14 0 23 6t21 20q14 16 25 23.5t30 7.5t30 -12.5t10 -32.5q-1 -22 -26.5 -53t-60.5 -53t-63 -22q-30 0 -49.5 9t-42.5 25q-17 13 -29 18.5t-27 5.5t-24.5 -6.5t-22.5 -21.5q-14 -15 -26 -23t-31 -8v0z" />
    <glyph glyph-name="Ograve" unicode="&#xd2;" horiz-adv-x="769" 
d="M364 1q-90 0 -161.5 36.5t-112.5 104t-41 155.5q0 115 56.5 213.5t153 156.5t209.5 58q26 0 38 -2t37 -10l25 -8q19 -6 39 -13t34 -16q57 -39 89 -105.5t32 -149.5q0 -108 -54.5 -205t-146 -156t-197.5 -59v0zM387 136q67 0 120.5 36.5t84 96t30.5 125.5q0 47 -21.5 98
t-53.5 72q-12 8 -44 15q-7 2 -15 4.5t-17 4.5q-26 2 -44 2q-63 0 -118 -37.5t-87 -99.5t-32 -131q0 -91 51.5 -138.5t145.5 -47.5v0zM529 756q-18 0 -44 16l-119 71q-37 22 -37 63q0 24 18 43t44 19q15 0 27 -4.5t27 -14.5l119 -78q16 -11 23 -22.5t7 -30.5q0 -26 -21 -44
t-44 -18v0z" />
    <glyph glyph-name="Oacute" unicode="&#xd3;" horiz-adv-x="769" 
d="M364 1q-90 0 -161.5 36.5t-112.5 104t-41 155.5q0 115 56.5 213.5t153 156.5t209.5 58q26 0 38 -2t37 -10l25 -8q19 -6 39 -13t34 -16q57 -39 89 -105.5t32 -149.5q0 -108 -54.5 -205t-146 -156t-197.5 -59v0zM387 136q67 0 120.5 36.5t84 96t30.5 125.5q0 47 -21.5 98
t-53.5 72q-12 8 -44 15q-7 2 -15 4.5t-17 4.5q-26 2 -44 2q-63 0 -118 -37.5t-87 -99.5t-32 -131q0 -91 51.5 -138.5t145.5 -47.5v0zM473 759q-26 0 -41.5 16.5t-15.5 39.5q0 18 9 32.5t23 24.5l117 77q15 10 26.5 14.5t24.5 4.5q25 0 42 -17.5t17 -41.5q0 -18 -10 -35
t-27 -28l-119 -71q-26 -16 -46 -16v0z" />
    <glyph glyph-name="Ocircumflex" unicode="&#xd4;" horiz-adv-x="755" 
d="M370 -11q-85 -5 -154.5 28t-109.5 89t-53.5 131.5t8.5 156.5q11 41 22.5 72.5t31.5 71.5t51.5 75.5t72.5 63.5q33 22 81 39q87 20 137 -7l15 -1q13 -1 24 -2q-7 4 12.5 1t37.5 -9q41 -14 72.5 -37.5t63.5 -70.5q46 -69 58 -135q10 -57 -1 -120t-41.5 -122.5t-76 -108.5
t-111 -80t-140.5 -35v0zM394 129q46 2 88 26t70 63t42.5 88t5.5 101q-7 41 -40 89q-24 35 -41 48t-34 17q-15 4 -55 8q-63 6 -96 10q-4 0 -7 1q-15 -6 -23 -11q-42 -26 -64 -69t-41 -114q-18 -69 1.5 -129.5t71 -95.5t122.5 -32v0zM360 760q-21 0 -36 14t-15 35
q0 18 9.5 31.5t28.5 27.5l87 62q19 13 34 19t30 6q27 0 51 -27l56 -61q12 -13 19 -25.5t7 -21.5q0 -25 -18 -42.5t-41 -17.5q-12 0 -20 5t-18 15l-50 52l-73 -50q-32 -22 -51 -22v0z" />
    <glyph glyph-name="Otilde" unicode="&#xd5;" horiz-adv-x="769" 
d="M364 1q-90 0 -161.5 36.5t-112.5 104t-41 155.5q0 115 56.5 213.5t153 156.5t209.5 58q26 0 38 -2t37 -10l25 -8q19 -6 39 -13t34 -16q57 -39 89 -105.5t32 -149.5q0 -108 -54.5 -205t-146 -156t-197.5 -59v0zM387 136q67 0 120.5 36.5t84 96t30.5 125.5q0 47 -21.5 98
t-53.5 72q-12 8 -44 15q-7 2 -15 4.5t-17 4.5q-26 2 -44 2q-63 0 -118 -37.5t-87 -99.5t-32 -131q0 -91 51.5 -138.5t145.5 -47.5v0zM323 767q-16 0 -28 11t-12 29q0 26 25 57.5t61.5 53.5t69.5 22q29 0 49 -8.5t42 -24.5q18 -12 29.5 -17.5t26.5 -5.5q14 0 23 6t21 20
q14 16 25 23.5t30 7.5t30 -12.5t10 -32.5q-1 -22 -26.5 -53t-60.5 -53t-63 -22q-30 0 -49.5 9t-42.5 25q-17 13 -29 18.5t-27 5.5t-24.5 -6.5t-22.5 -21.5q-14 -15 -26 -23t-31 -8v0z" />
    <glyph glyph-name="Odieresis" unicode="&#xd6;" horiz-adv-x="769" 
d="M364 1q-90 0 -161.5 36.5t-112.5 104t-41 155.5q0 115 56.5 213.5t153 156.5t209.5 58q26 0 38 -2t37 -10l25 -8q19 -6 39 -13t34 -16q57 -39 89 -105.5t32 -149.5q0 -108 -54.5 -205t-146 -156t-197.5 -59v0zM387 136q67 0 120.5 36.5t84 96t30.5 125.5q0 47 -21.5 98
t-53.5 72q-12 8 -44 15q-7 2 -15 4.5t-17 4.5q-26 2 -44 2q-63 0 -118 -37.5t-87 -99.5t-32 -131q0 -91 51.5 -138.5t145.5 -47.5v0zM588 773q-30 0 -48.5 16.5t-18.5 43.5q0 37 26 62t61 25q30 0 49 -16.5t19 -43.5q0 -37 -26.5 -62t-61.5 -25v0zM400 773q-30 0 -48.5 16.5
t-18.5 43.5q0 37 26 62t61 25q30 0 49 -16.5t19 -43.5q0 -37 -26.5 -62t-61.5 -25v0z" />
    <glyph glyph-name="multiply" unicode="&#xd7;" horiz-adv-x="653" 
d="M304 167q-70 -62 -141 -130q-22 -22 -52 -25t-48 15t-15 47t26 51q73 71 152 140l-102 122q-17 20 -12 49t29.5 50t54 22t45.5 -19l103 -124l158 127q25 20 54 19t44.5 -22t8.5 -50t-33 -49l-154 -123l108 -146q16 -21 8 -50t-33 -48.5t-53.5 -18t-43.5 22.5z" />
    <glyph glyph-name="Oslash" unicode="&#xd8;" horiz-adv-x="769" 
d="M8 -30q-21 0 -35 16.5t-10 38.5q3 18 21 33l74 64l307 278l380 333q20 17 42 17q23 0 35.5 -17t7.5 -39q-6 -23 -21 -36l-379 -327l-313 -285l-65 -58q-19 -18 -44 -18v0zM364 1q-90 0 -161.5 36.5t-112.5 104t-41 155.5q0 115 56.5 213.5t153 156.5t209.5 58q26 0 38 -2
t37 -10l25 -8q19 -6 39 -13t34 -16q57 -39 89 -105.5t32 -149.5q0 -108 -54.5 -205t-146 -156t-197.5 -59v0v0zM387 136q67 0 120.5 36.5t84 96t30.5 125.5q0 47 -21.5 98t-53.5 72q-12 8 -44 15q-7 2 -15 4.5t-17 4.5q-26 2 -44 2q-63 0 -118 -37.5t-87 -99.5t-32 -131
q0 -91 51.5 -138.5t145.5 -47.5v0v0z" />
    <glyph glyph-name="Ugrave" unicode="&#xd9;" horiz-adv-x="714" 
d="M299 -1q-67 0 -122 25t-88 74.5t-33 119.5q0 66 14.5 132.5t46.5 176.5q32 115 34 121q8 29 32.5 49t52.5 20q24 0 39 -15t15 -40q0 -17 -6.5 -43t-15.5 -56l-10 -32q-28 -96 -45 -174.5t-17 -115.5q0 -49 35.5 -78t97.5 -29q72 0 130.5 65.5t90.5 202.5q13 53 26 146
l16 97q7 34 31.5 52.5t53.5 18.5t45 -18.5t10 -48.5q-8 -38 -17 -102q-14 -97 -27 -149q-93 -399 -389 -399v0zM501 756q-18 0 -44 16l-119 71q-37 22 -37 63q0 24 18 43t44 19q15 0 27 -4.5t27 -14.5l119 -78q16 -11 23 -22.5t7 -30.5q0 -26 -21 -44t-44 -18v0z" />
    <glyph glyph-name="Uacute" unicode="&#xda;" horiz-adv-x="714" 
d="M299 -1q-67 0 -122 25t-88 74.5t-33 119.5q0 66 14.5 132.5t46.5 176.5q32 115 34 121q8 29 32.5 49t52.5 20q24 0 39 -15t15 -40q0 -17 -6.5 -43t-15.5 -56l-10 -32q-28 -96 -45 -174.5t-17 -115.5q0 -49 35.5 -78t97.5 -29q72 0 130.5 65.5t90.5 202.5q13 53 26 146
l16 97q7 34 31.5 52.5t53.5 18.5t45 -18.5t10 -48.5q-8 -38 -17 -102q-14 -97 -27 -149q-93 -399 -389 -399v0zM445 759q-26 0 -41.5 16.5t-15.5 39.5q0 18 9 32.5t23 24.5l117 77q15 10 26.5 14.5t24.5 4.5q25 0 42 -17.5t17 -41.5q0 -18 -10 -35t-27 -28l-119 -71
q-26 -16 -46 -16v0z" />
    <glyph glyph-name="Ucircumflex" unicode="&#xdb;" horiz-adv-x="714" 
d="M299 -1q-67 0 -122 25t-88 74.5t-33 119.5q0 66 14.5 132.5t46.5 176.5q32 115 34 121q8 29 32.5 49t52.5 20q24 0 39 -15t15 -40q0 -17 -6.5 -43t-15.5 -56l-10 -32q-28 -96 -45 -174.5t-17 -115.5q0 -49 35.5 -78t97.5 -29q72 0 130.5 65.5t90.5 202.5q13 53 26 146
l16 97q7 34 31.5 52.5t53.5 18.5t45 -18.5t10 -48.5q-8 -38 -17 -102q-14 -97 -27 -149q-93 -399 -389 -399v0zM352 760q-21 0 -36 14t-15 35q0 18 9.5 31.5t28.5 27.5l87 62q19 13 34 19t30 6q27 0 51 -27l56 -61q12 -13 19 -25.5t7 -21.5q0 -25 -18 -42.5t-41 -17.5
q-12 0 -20 5t-18 15l-50 52l-73 -50q-32 -22 -51 -22v0z" />
    <glyph glyph-name="Udieresis" unicode="&#xdc;" horiz-adv-x="714" 
d="M299 -1q-67 0 -122 25t-88 74.5t-33 119.5q0 66 14.5 132.5t46.5 176.5q32 115 34 121q8 29 32.5 49t52.5 20q24 0 39 -15t15 -40q0 -17 -6.5 -43t-15.5 -56l-10 -32q-28 -96 -45 -174.5t-17 -115.5q0 -49 35.5 -78t97.5 -29q72 0 130.5 65.5t90.5 202.5q13 53 26 146
l16 97q7 34 31.5 52.5t53.5 18.5t45 -18.5t10 -48.5q-8 -38 -17 -102q-14 -97 -27 -149q-93 -399 -389 -399v0zM560 773q-30 0 -48.5 16.5t-18.5 43.5q0 37 26 62t61 25q30 0 49 -16.5t19 -43.5q0 -37 -26.5 -62t-61.5 -25v0zM372 773q-30 0 -48.5 16.5t-18.5 43.5
q0 37 26 62t61 25q30 0 49 -16.5t19 -43.5q0 -37 -26.5 -62t-61.5 -25v0z" />
    <glyph glyph-name="Yacute" unicode="&#xdd;" horiz-adv-x="593" 
d="M237 -1q-31 0 -47 18.5t-10 48.5l6 29q14 79 26 127l13 54l-61 160q-54 142 -70 189q-7 26 3 47t31 33.5t43 12.5q16 0 31 -12t21 -30l7 -21q14 -40 37.5 -105t49.5 -132l74 94l149 172q29 33 63 33q25 0 42.5 -16t17.5 -40q0 -26 -21 -51q-8 -11 -33.5 -39.5
t-66.5 -76.5l-53 -60q-79 -90 -125 -149q-24 -118 -20 -101l-24 -114q-6 -34 -30 -52.5t-53 -18.5v0zM373 759q-26 0 -41.5 16.5t-15.5 39.5q0 18 9 32.5t23 24.5l117 77q15 10 26.5 14.5t24.5 4.5q25 0 42 -17.5t17 -41.5q0 -18 -10 -35t-27 -28l-119 -71q-26 -16 -46 -16
v0z" />
    <glyph glyph-name="Thorn" unicode="&#xde;" horiz-adv-x="653" 
d="M38 65q66 345 119 576q9 39 34 59t53.5 19.5t44.5 -21t7 -59.5l-1 -5q184 5 259 -27q50 -22 80 -62.5t33 -92.5q3 -56 -27 -111q-28 -54 -85 -99q-76 -59 -198 -69q-32 -3 -86 -3q-51 0 -69 -2h-4q-8 -42 -19 -99q-6 -29 -30 -50t-53 -21.5t-46 19t-12 48.5v0zM225 308
q21 1 74 1q49 1 77 3q73 6 104 30q46 37 44 74q-3 40 -50 61q-33 15 -94.5 17.5t-115.5 -0.5q-19 -88 -39 -186v0z" />
    <glyph glyph-name="germandbls" unicode="&#xdf;" horiz-adv-x="597" 
d="M238 -26q-29 -2 -46.5 16.5t-13 47t27 49.5t51.5 23q21 1 41 0.5t21 2.5q45 11 67.5 49.5t7.5 85.5q-4 16 -22 34q-2 0 -18 6q-62 22 -55 81q5 44 46 72q17 11 40 19l12 4q24 26 15 58q-5 22 -25 35t-50 12q-27 0 -50 -12t-36 -34q-9 -35 -19 -78q-2 -9 -4 -23.5
t-3 -18.5q-2 -12 -8 -23q-54 -242 -75 -321q-8 -28 -33 -47t-52.5 -17t-42 23t-6.5 49q15 56 29.5 117t32 142t26.5 118q2 15 5 27q13 66 30 97q39 67 103.5 102t130.5 35q66 1 117 -31.5t66 -95.5q26 -105 -62 -197q30 -32 42 -67q15 -46 8.5 -98t-31.5 -98.5t-72 -83.5
t-107 -53q-11 -3 -27 -4.5t-27.5 -2t-22.5 -0.5h-11v0z" />
    <glyph glyph-name="agrave" unicode="&#xe0;" horiz-adv-x="574" 
d="M399 1q-23 -1 -39 11.5t-20 33.5q-119 -72 -220 -33q-52 20 -79 59q-26 40 -24.5 87t17 95.5t43 90.5t64 79t84.5 66t98.5 37.5t104.5 -5.5q22 -6 41 -21h5q30 4 48.5 -14t15.5 -47q-3 -34 -7.5 -69t-12 -80t-12.5 -70l-13 -78q-9 -53 -12 -69q-5 -29 -29.5 -50.5
t-52.5 -22.5v0zM194 145q41 -16 94 18q9 5 16 11l20 18l28 24q8 6 17 10q14 80 21 138l-9 7l-11 11l-8 6q-38 12 -85.5 -15t-84.5 -87q-35 -58 -32.5 -93.5t34.5 -47.5v0zM411 570q-28 2 -53 24l-86 81q-27 25 -30 52t14.5 47.5t43.5 21t53 -24.5l89 -85q24 -23 30 -50
t-13.5 -47.5t-47.5 -18.5v0z" />
    <glyph glyph-name="aacute" unicode="&#xe1;" horiz-adv-x="574" 
d="M181 -1q-79 0 -120.5 43t-41.5 112q0 89 51.5 179t131 148.5t157.5 58.5q60 0 100 -30q22 9 38 9q34 0 51.5 -20.5t10.5 -53.5l-81 -380q-7 -32 -25.5 -48.5t-44.5 -16.5q-29 0 -47 21t-14 53l1 8q-87 -83 -167 -83v0zM224 135q25 0 49.5 14t51.5 38q40 36 52 39l33 151
q-8 11 -25.5 19t-38.5 8q-39 0 -82 -35t-72.5 -84.5t-29.5 -88.5q0 -29 18 -45t44 -16v0zM385 570q-28 -2 -46 17.5t-14 48t29 50.5l96 86q25 23 53 24t46 -18t14 -47.5t-29 -50.5l-96 -86q-25 -22 -53 -24v0z" />
    <glyph glyph-name="acircumflex" unicode="&#xe2;" horiz-adv-x="574" 
d="M181 -1q-79 0 -120.5 43t-41.5 112q0 89 51.5 179t131 148.5t157.5 58.5q60 0 100 -30q22 9 38 9q34 0 51.5 -20.5t10.5 -53.5l-81 -380q-7 -32 -25.5 -48.5t-44.5 -16.5q-29 0 -47 21t-14 53l1 8q-87 -83 -167 -83v0zM224 135q25 0 49.5 14t51.5 38q40 36 52 39l33 151
q-8 11 -25.5 19t-38.5 8q-39 0 -82 -35t-72.5 -84.5t-29.5 -88.5q0 -29 18 -45t44 -16v0zM288 581q-21 0 -36 14t-15 35q0 18 9.5 31.5t28.5 27.5l87 62q19 13 34 19t30 6q27 0 51 -27l56 -61q12 -13 19 -25.5t7 -21.5q0 -25 -18 -42.5t-41 -17.5q-12 0 -20 5t-18 15l-50 52
l-73 -50q-32 -22 -51 -22v0z" />
    <glyph glyph-name="atilde" unicode="&#xe3;" horiz-adv-x="574" 
d="M181 -1q-79 0 -120.5 43t-41.5 112q0 89 51.5 179t131 148.5t157.5 58.5q60 0 100 -30q22 9 38 9q34 0 51.5 -20.5t10.5 -53.5l-81 -380q-7 -32 -25.5 -48.5t-44.5 -16.5q-29 0 -47 21t-14 53l1 8q-87 -83 -167 -83v0zM224 135q25 0 49.5 14t51.5 38q40 36 52 39l33 151
q-8 11 -25.5 19t-38.5 8q-39 0 -82 -35t-72.5 -84.5t-29.5 -88.5q0 -29 18 -45t44 -16v0zM227 587q-16 0 -28 11t-12 29q0 26 25 57.5t61.5 53.5t69.5 22q29 0 49 -8.5t42 -24.5q18 -12 29.5 -17.5t26.5 -5.5q14 0 23 6t21 20q14 16 25 23.5t30 7.5t30 -12.5t10 -32.5
q-1 -22 -26.5 -53t-60.5 -53t-63 -22q-30 0 -49.5 9t-42.5 25q-17 13 -29 18.5t-27 5.5t-24.5 -6.5t-22.5 -21.5q-14 -15 -26 -23t-31 -8v0z" />
    <glyph glyph-name="adieresis" unicode="&#xe4;" horiz-adv-x="574" 
d="M181 -1q-79 0 -120.5 43t-41.5 112q0 89 51.5 179t131 148.5t157.5 58.5q60 0 100 -30q22 9 38 9q34 0 51.5 -20.5t10.5 -53.5l-81 -380q-7 -32 -25.5 -48.5t-44.5 -16.5q-29 0 -47 21t-14 53l1 8q-87 -83 -167 -83v0zM224 135q25 0 49.5 14t51.5 38q40 36 52 39l33 151
q-8 11 -25.5 19t-38.5 8q-39 0 -82 -35t-72.5 -84.5t-29.5 -88.5q0 -29 18 -45t44 -16v0zM489 591q-30 0 -48.5 16.5t-18.5 43.5q0 37 26 62t61 25q30 0 49 -16.5t19 -43.5q0 -37 -26.5 -62t-61.5 -25v0zM301 591q-30 0 -48.5 16.5t-18.5 43.5q0 37 26 62t61 25
q30 0 49 -16.5t19 -43.5q0 -37 -26.5 -62t-61.5 -25v0z" />
    <glyph glyph-name="aring" unicode="&#xe5;" horiz-adv-x="574" 
d="M181 -1q-79 0 -120.5 43t-41.5 112q0 89 51.5 179t131 148.5t157.5 58.5q60 0 100 -30q22 9 38 9q34 0 51.5 -20.5t10.5 -53.5l-81 -380q-7 -32 -25.5 -48.5t-44.5 -16.5q-29 0 -47 21t-14 53l1 8q-87 -83 -167 -83v0zM224 135q25 0 49.5 14t51.5 38q40 36 52 39l33 151
q-8 11 -25.5 19t-38.5 8q-39 0 -82 -35t-72.5 -84.5t-29.5 -88.5q0 -29 18 -45t44 -16v0zM397 570q-50 0 -81 27.5t-31 69.5q0 43 21.5 77.5t52.5 51.5q11 6 27 8q5 1 8.5 2t8.5 1t11 1t14 1q44 0 76 -30t32 -74q0 -36 -18.5 -67t-50.5 -49.5t-70 -18.5v0zM406 649
q17 0 30 12t14 30q2 17 -8.5 27t-27.5 10q-18 0 -31 -11.5t-14 -29.5q-2 -19 8 -28.5t29 -9.5v0z" />
    <glyph glyph-name="ae" unicode="&#xe6;" horiz-adv-x="915" 
d="M190 -1q-45 -2 -87 13t-64 44q-27 36 -21.5 81.5t47.5 93.5q72 83 224 103q45 6 101 8q6 11 12 23l-2 6l-6 13l-5 8q-18 17 -64.5 20.5t-77.5 -6.5q-9 -2 -26 -17l-24 -18q-19 -16 -32 -24q-25 -16 -52.5 -14.5t-41.5 21.5t-6.5 45t32.5 42q7 5 19 15l26 21q43 33 83 45
t88.5 14.5t99.5 -9t82 -36.5l10 -11q98 72 212 49q1 -1 8 -2.5t11 -1.5t12 -2t14 -4l13 -5q7 -3 13.5 -6t13.5 -8t12 -9q53 -44 67 -88q3 -11 6 -23.5t4 -21.5l2 -24l3 -21q2 -16 -5 -31q-7 -21 -25.5 -35.5t-40.5 -17.5q-72 -12 -166 -13.5t-157 2.5q2 -17 10 -31
q27 -44 100 -47q13 -1 21.5 0t21 5.5t21.5 8t29 14.5l36 16q27 13 52.5 5.5t34 -29.5t-5 -47t-38.5 -37q-6 -2 -28.5 -13t-38 -17.5t-39.5 -14.5t-48.5 -12t-49.5 -3q-112 6 -170 68q-40 -22 -69 -35q-96 -47 -151 -50v0zM210 122q20 1 84 33q28 14 68 36q-1 14 -1 27
q-43 -2 -76 -6q-88 -12 -118 -46q-16 -18 -9 -26q15 -20 52 -18v0zM531 342q17 -1 55 -1.5t59 -1t51.5 0t53.5 2.5q0 2 -1 5q-7 20 -39 48q-6 6 -48 13q-35 7 -70.5 -10.5t-60.5 -55.5v0z" />
    <glyph glyph-name="ccedilla" unicode="&#xe7;" horiz-adv-x="545" 
d="M204 -242q-47 0 -77.5 21t-30.5 52q0 20 13 33.5t30 13.5q13 0 20 -4.5t18 -15.5q19 -19 41 -19q15 0 26 10.5t11 25.5q0 17 -26 24q-7 2 -19 1.5t-24 -0.5q-17 1 -27 11t-10 27q0 20 41 58q46 42 68 55q14 -5 29.5 -11.5t24.5 -15.5q-26 -15 -47.5 -36t-25.5 -40l-20 16
q9 4 27 4q42 0 71 -24.5t29 -60.5q0 -31 -20 -60t-53 -47t-69 -18v0zM321 13q-49 -16 -92 -12t-81 20q-59 26 -92 80.5t-24 125.5q8 59 44.5 120.5t89.5 105.5q38 32 80.5 51.5t92.5 24.5t95 -17q25 -11 50 -36q1 -2 10 -12l15 -15q19 -18 16.5 -45.5t-25 -50t-52 -26
t-48.5 14.5q-2 1 -31 32q-10 10 -15 13q-50 22 -106 -27q-29 -25 -50 -59t-24 -64q-4 -28 10.5 -53t45.5 -38q32 -13 57 -9.5t43 18.5q7 5 17 21q31 46 32 48q18 25 47.5 33.5t53 -4t26 -39.5t-15.5 -52q-4 -6 -8.5 -12.5t-9.5 -14.5t-9 -13q-24 -38 -50 -60
q-42 -35 -92 -49v0v0z" />
    <glyph glyph-name="egrave" unicode="&#xe8;" horiz-adv-x="563" 
d="M330 5q-72 -9 -123 -1.5t-87.5 32.5t-58.5 67.5t-24 123.5q2 47 20 87q89 212 298 216q191 -1 195 -207q2 -43 -22 -70q-29 -34 -85 -38q-26 -3 -78 -4.5t-194 8.5q-10 -92 93 -107q61 -4 90 19q47 39 73 40.5t41 -11t18.5 -29t-6.5 -33.5q-7 -15 -31 -38
q-24 -19 -47.5 -32t-71.5 -23v0zM190 314q35 -1 73 -2t93 -0.5t71 7.5q3 16 -4.5 40.5t-44.5 45.5q-45 23 -108 -4q-61 -26 -80 -87v0zM382 570q-28 2 -53 24l-86 81q-27 25 -30 52t14.5 47.5t43.5 21t53 -24.5l89 -85q24 -23 30 -50t-13.5 -47.5t-47.5 -18.5v0z" />
    <glyph glyph-name="eacute" unicode="&#xe9;" horiz-adv-x="568" 
d="M326 -1q-73 -9 -125 -1.5t-87 33.5t-57 70.5t-24 127.5q-19 10 -13 43q12 44 34 48q91 220 301 224q190 -1 193 -215q2 -44 -22 -73q-30 -36 -86 -39q-27 -3 -78 -4.5t-195 7.5q-11 -95 94 -109q61 -4 90 19q46 40 72.5 41.5t41 -11t18.5 -29.5t-6 -35q-7 -16 -33 -40
q-23 -20 -47.5 -33.5t-70.5 -23.5v0zM187 320q36 -1 74.5 -1.5t93.5 0t71 6.5q3 16 -4 41.5t-46 48.5q-43 23 -108 -4q-61 -28 -81 -91v0zM349 570q-28 -2 -46 17.5t-14 48t29 50.5l96 86q25 23 53 24t46 -18t14 -47.5t-29 -50.5l-96 -86q-25 -22 -53 -24v0z" />
    <glyph glyph-name="ecircumflex" unicode="&#xea;" horiz-adv-x="563" 
d="M330 5q-72 -9 -123 -1.5t-87.5 32.5t-58.5 67.5t-24 123.5q2 47 20 87q89 212 298 216q191 -1 195 -207q2 -43 -22 -70q-29 -34 -85 -38q-26 -3 -78 -4.5t-194 8.5q-10 -92 93 -107q61 -4 90 19q47 39 73 40.5t41 -11t18.5 -29t-6.5 -33.5q-7 -15 -31 -38
q-24 -19 -47.5 -32t-71.5 -23v0zM190 314q35 -1 73 -2t93 -0.5t71 7.5q3 16 -4.5 40.5t-44.5 45.5q-45 23 -108 -4q-61 -26 -80 -87v0zM252 581q-21 0 -36 14t-15 35q0 18 9.5 31.5t28.5 27.5l87 62q19 13 34 19t30 6q27 0 51 -27l56 -61q12 -13 19 -25.5t7 -21.5
q0 -25 -18 -42.5t-41 -17.5q-12 0 -20 5t-18 15l-50 52l-73 -50q-32 -22 -51 -22v0z" />
    <glyph glyph-name="edieresis" unicode="&#xeb;" horiz-adv-x="571" 
d="M332 -1q-73 -9 -125 -1.5t-87 33.5t-57 70.5t-24 127.5q-19 10 -13 43q12 44 34 48q91 220 301 224q190 -1 193 -215q2 -44 -22 -73q-30 -36 -86 -39q-27 -3 -78 -4.5t-195 7.5q-11 -95 94 -109q61 -4 90 19q46 40 72.5 41.5t41 -11t18.5 -29.5t-6 -35q-7 -16 -33 -40
q-23 -20 -47.5 -33.5t-70.5 -23.5v0zM193 320q36 -1 74.5 -1.5t93.5 0t71 6.5q3 16 -4 41.5t-46 48.5q-43 23 -108 -4q-61 -28 -81 -91v0zM458 591q-30 0 -48.5 16.5t-18.5 43.5q0 37 26 62t61 25q30 0 49 -16.5t19 -43.5q0 -37 -26.5 -62t-61.5 -25v0zM270 591
q-30 0 -48.5 16.5t-18.5 43.5q0 37 26 62t61 25q30 0 49 -16.5t19 -43.5q0 -37 -26.5 -62t-61.5 -25v0z" />
    <glyph glyph-name="igrave" unicode="&#xec;" horiz-adv-x="254" 
d="M224 570q-27 2 -50 24l-82 81q-25 25 -28 52t13.5 47.5t41 21t50.5 -24.5l84 -85q22 -23 28 -50t-12.5 -47.5t-44.5 -18.5v0zM79 -1q-28 0 -44 16.5t-16 47.5q0 16 9 63.5t19 93.5l6 31q25 126 44 209q8 33 32 51.5t52 18.5q24 0 40.5 -14t16.5 -40q0 -12 -13 -75
l-15 -69q-21 -105 -28 -145q-6 -27 -13 -75l-7 -39q-6 -33 -28.5 -53.5t-54.5 -20.5v0v0z" />
    <glyph glyph-name="iacute" unicode="&#xed;" horiz-adv-x="254" 
d="M79 -1q-28 0 -44 16.5t-16 47.5q0 16 9 63.5t19 93.5l6 31q25 126 44 209q8 33 32 51.5t52 18.5q24 0 40.5 -14t16.5 -40q0 -12 -13 -75l-15 -69q-21 -105 -28 -145q-6 -27 -13 -75l-7 -39q-6 -33 -28.5 -53.5t-54.5 -20.5v0zM193 570q-28 -2 -46 17.5t-14 48t29 50.5
l96 86q25 23 53 24t46 -18t14 -47.5t-29 -50.5l-96 -86q-25 -22 -53 -24v0z" />
    <glyph glyph-name="icircumflex" unicode="&#xee;" horiz-adv-x="254" 
d="M101 581q-20 0 -34 14t-14 35q0 18 8.5 31.5t26.5 27.5l82 62q18 13 32.5 19t28.5 6q25 0 48 -27l53 -61q11 -13 17.5 -25.5t6.5 -21.5q0 -25 -17 -42.5t-38 -17.5q-12 0 -19.5 5t-16.5 15l-47 52l-69 -50q-30 -22 -48 -22v0zM79 -1q-28 0 -44 16.5t-16 47.5q0 16 9 63.5
t19 93.5l6 31q25 126 44 209q8 33 32 51.5t52 18.5q24 0 40.5 -14t16.5 -40q0 -12 -13 -75l-15 -69q-21 -105 -28 -145q-6 -27 -13 -75l-7 -39q-6 -33 -28.5 -53.5t-54.5 -20.5v0z" />
    <glyph glyph-name="idieresis" unicode="&#xef;" horiz-adv-x="254" 
d="M287 595q-29 0 -46.5 15.5t-17.5 41.5q0 34 24.5 58t58.5 24q28 0 46 -15.5t18 -41.5q0 -35 -25 -58.5t-58 -23.5v0zM109 595q-28 0 -45.5 15.5t-17.5 41.5q0 34 24.5 58t57.5 24q28 0 46 -15.5t18 -41.5q0 -35 -25 -58.5t-58 -23.5v0zM79 -1q-28 0 -44 16.5t-16 47.5
q0 16 9 63.5t19 93.5l6 31q25 126 44 209q8 33 32 51.5t52 18.5q24 0 40.5 -14t16.5 -40q0 -12 -13 -75l-15 -69q-21 -105 -28 -145q-6 -27 -13 -75l-7 -39q-6 -33 -28.5 -53.5t-54.5 -20.5v0z" />
    <glyph glyph-name="eth" unicode="&#xf0;" horiz-adv-x="625" 
d="M226 -10q-65 0 -113 27.5t-73 76t-25 109.5q0 79 41 153.5t107.5 121.5t137.5 47q24 0 47 -7t40 -19q-21 55 -48 92.5t-67 83.5q-28 31 -40 48t-12 35q0 29 22 51.5t50 22.5q27 0 44.5 -12.5t40.5 -41.5q58 -70 114 -170q66 -122 66 -246q0 -84 -43 -171t-119.5 -144
t-169.5 -57v0zM255 122q38 0 75.5 31.5t61.5 82.5t24 106q0 8 -2 26q-5 0 -8.5 -0.5t-6.5 -0.5q-6 0 -12 3l-35 18q-25 12 -69 12q-31 0 -61 -27t-49 -67.5t-19 -77.5q0 -53 26.5 -79.5t74.5 -26.5v0zM198 550q-24 0 -37 12t-13 33q0 19 11.5 37.5t32.5 31.5
q101 62 155.5 93t110.5 56q18 7 34 7q25 0 37 -12t12 -33q0 -45 -52 -74l-113 -61l-134 -75q-25 -15 -44 -15v0z" />
    <glyph glyph-name="ntilde" unicode="&#xf1;" horiz-adv-x="559" 
d="M381 -2q-33 0 -47.5 21t-7.5 48l15 60q16 62 20 80q21 88 21 128q0 30 -18.5 47t-50.5 17q-29 0 -54.5 -12.5t-43.5 -32.5l-16 -85q-37 -189 -39 -199q-9 -33 -31 -51t-50 -18q-34 0 -48.5 23t-7.5 57q55 254 71 374q5 37 24 56t50 19q25 0 42 -18t14 -45q64 62 143 62
q68 0 109.5 -44t41.5 -113q0 -71 -22 -164q-2 -8 -23 -96l-10 -39q-9 -37 -31 -56t-51 -19v0zM183 587q-16 0 -28 11t-12 29q0 26 25 57.5t61.5 53.5t69.5 22q29 0 49 -8.5t42 -24.5q18 -12 29.5 -17.5t26.5 -5.5q14 0 23 6t21 20q14 16 25 23.5t30 7.5t30 -12.5t10 -32.5
q-1 -22 -26.5 -53t-60.5 -53t-63 -22q-30 0 -49.5 9t-42.5 25q-17 13 -29 18.5t-27 5.5t-24.5 -6.5t-22.5 -21.5q-14 -15 -26 -23t-31 -8v0z" />
    <glyph glyph-name="ograve" unicode="&#xf2;" horiz-adv-x="582" 
d="M254 0q-61 0 -111 27.5t-78.5 79t-27.5 120.5q1 77 38 147t102 112.5t146 42.5q28 0 43 -4t35 -14q15 -9 29 -14q53 -20 85.5 -73t32.5 -114q0 -79 -39 -150.5t-106.5 -115.5t-148.5 -44v0zM276 130q34 0 64.5 22.5t49 60t18.5 80.5q0 42 -28 67q-11 10 -35 18
q-13 5 -21 10t-13 15q-6 0 -9.5 -0.5t-5.5 -0.5q-31 -6 -58.5 -28t-44.5 -57t-17 -77q0 -53 27.5 -81.5t72.5 -28.5v0zM379 570q-28 2 -53 24l-86 81q-27 25 -30 52t14.5 47.5t43.5 21t53 -24.5l89 -85q24 -23 30 -50t-13.5 -47.5t-47.5 -18.5v0z" />
    <glyph glyph-name="oacute" unicode="&#xf3;" horiz-adv-x="582" 
d="M254 0q-61 0 -111 27.5t-78.5 79t-27.5 120.5q1 77 38 147t102 112.5t146 42.5q28 0 43 -4t35 -14q15 -9 29 -14q53 -20 85.5 -73t32.5 -114q0 -79 -39 -150.5t-106.5 -115.5t-148.5 -44v0zM276 130q34 0 64.5 22.5t49 60t18.5 80.5q0 42 -28 67q-11 10 -35 18
q-13 5 -21 10t-13 15q-6 0 -9.5 -0.5t-5.5 -0.5q-31 -6 -58.5 -28t-44.5 -57t-17 -77q0 -53 27.5 -81.5t72.5 -28.5v0zM346 570q-28 -2 -46 17.5t-14 48t29 50.5l96 86q25 23 53 24t46 -18t14 -47.5t-29 -50.5l-96 -86q-25 -22 -53 -24v0z" />
    <glyph glyph-name="ocircumflex" unicode="&#xf4;" horiz-adv-x="582" 
d="M254 0q-61 0 -111 27.5t-78.5 79t-27.5 120.5q1 77 38 147t102 112.5t146 42.5q28 0 43 -4t35 -14q15 -9 29 -14q53 -20 85.5 -73t32.5 -114q0 -79 -39 -150.5t-106.5 -115.5t-148.5 -44v0zM276 130q34 0 64.5 22.5t49 60t18.5 80.5q0 42 -28 67q-11 10 -35 18
q-13 5 -21 10t-13 15q-6 0 -9.5 -0.5t-5.5 -0.5q-31 -6 -58.5 -28t-44.5 -57t-17 -77q0 -53 27.5 -81.5t72.5 -28.5v0zM249 581q-21 0 -36 14t-15 35q0 18 9.5 31.5t28.5 27.5l87 62q19 13 34 19t30 6q27 0 51 -27l56 -61q12 -13 19 -25.5t7 -21.5q0 -25 -18 -42.5
t-41 -17.5q-12 0 -20 5t-18 15l-50 52l-73 -50q-32 -22 -51 -22v0z" />
    <glyph glyph-name="otilde" unicode="&#xf5;" horiz-adv-x="582" 
d="M254 0q-61 0 -111 27.5t-78.5 79t-27.5 120.5q1 77 38 147t102 112.5t146 42.5q28 0 43 -4t35 -14q15 -9 29 -14q53 -20 85.5 -73t32.5 -114q0 -79 -39 -150.5t-106.5 -115.5t-148.5 -44v0zM276 130q34 0 64.5 22.5t49 60t18.5 80.5q0 42 -28 67q-11 10 -35 18
q-13 5 -21 10t-13 15q-6 0 -9.5 -0.5t-5.5 -0.5q-31 -6 -58.5 -28t-44.5 -57t-17 -77q0 -53 27.5 -81.5t72.5 -28.5v0zM188 587q-16 0 -28 11t-12 29q0 26 25 57.5t61.5 53.5t69.5 22q29 0 49 -8.5t42 -24.5q18 -12 29.5 -17.5t26.5 -5.5q14 0 23 6t21 20q14 16 25 23.5
t30 7.5t30 -12.5t10 -32.5q-1 -22 -26.5 -53t-60.5 -53t-63 -22q-30 0 -49.5 9t-42.5 25q-17 13 -29 18.5t-27 5.5t-24.5 -6.5t-22.5 -21.5q-14 -15 -26 -23t-31 -8v0z" />
    <glyph glyph-name="odieresis" unicode="&#xf6;" horiz-adv-x="582" 
d="M254 0q-61 0 -111 27.5t-78.5 79t-27.5 120.5q1 77 38 147t102 112.5t146 42.5q28 0 43 -4t35 -14q15 -9 29 -14q53 -20 85.5 -73t32.5 -114q0 -79 -39 -150.5t-106.5 -115.5t-148.5 -44v0zM276 130q34 0 64.5 22.5t49 60t18.5 80.5q0 42 -28 67q-11 10 -35 18
q-13 5 -21 10t-13 15q-6 0 -9.5 -0.5t-5.5 -0.5q-31 -6 -58.5 -28t-44.5 -57t-17 -77q0 -53 27.5 -81.5t72.5 -28.5v0zM450 591q-30 0 -48.5 16.5t-18.5 43.5q0 37 26 62t61 25q30 0 49 -16.5t19 -43.5q0 -37 -26.5 -62t-61.5 -25v0zM262 591q-30 0 -48.5 16.5t-18.5 43.5
q0 37 26 62t61 25q30 0 49 -16.5t19 -43.5q0 -37 -26.5 -62t-61.5 -25v0z" />
    <glyph glyph-name="divide" unicode="&#xf7;" horiz-adv-x="676" 
d="M123 186q-29 -1 -46.5 18t-13 48t28 50.5t53.5 23.5q109 6 411 6q29 0 45 -20.5t10 -49.5t-31 -49.5t-54 -20.5q-298 0 -403 -6v0zM351 125q17 -20 10.5 -49t-31 -49.5t-53.5 -20.5t-45.5 20.5t-10 49.5t31.5 49.5t54 20.5t44 -21v0zM426 484q17 -20 11 -49t-31 -49.5
t-54 -20.5t-45 20.5t-10 49.5t31 49.5t54 20.5t44 -21v0z" />
    <glyph glyph-name="oslash" unicode="&#xf8;" horiz-adv-x="567" 
d="M36 -29q-16 0 -26 11t-10 27q0 21 16 36l92 87l175 173l236 228q18 18 36 18q16 0 27 -11t11 -26t-15 -30l-248 -245l-166 -157l-92 -93q-18 -18 -36 -18v0zM254 0q-60 -1 -110 26.5t-79 79.5t-28 121q1 77 38 147t102 112.5t146 42.5q57 0 109 -30t84 -80.5t32 -108.5
q0 -79 -39 -150t-106 -115t-149 -45v0zM276 130q34 0 64.5 22.5t49 60t18.5 80.5q0 29 -14.5 54t-38.5 40t-49 15q-34 0 -64 -22.5t-48 -60t-18 -79.5q0 -53 27.5 -81.5t72.5 -28.5v0z" />
    <glyph glyph-name="ugrave" unicode="&#xf9;" horiz-adv-x="558" 
d="M196 -1q-41 0 -76.5 20.5t-57.5 59.5t-22 93q0 45 10 91t27 101q5 18 12 37.5t13 37.5l11 32q9 28 30.5 42.5t45.5 14.5q33 0 48 -22.5t4 -50.5l-18 -52q-25 -74 -36.5 -116t-11.5 -84q0 -34 16.5 -53t43.5 -19q17 0 31 7t27 19t25 22q9 9 21 23.5t14 15.5q30 131 51 241
q7 33 31.5 51.5t52.5 18.5q30 0 46 -19t10 -49q-48 -242 -83 -401q-7 -29 -26.5 -44.5t-48.5 -15.5q-25 1 -41.5 22t-13.5 51q-26 -34 -61.5 -54t-73.5 -20v0zM377 570q-28 2 -53 24l-86 81q-27 25 -30 52t14.5 47.5t43.5 21t53 -24.5l89 -85q24 -23 30 -50t-13.5 -47.5
t-47.5 -18.5v0z" />
    <glyph glyph-name="uacute" unicode="&#xfa;" horiz-adv-x="558" 
d="M196 -1q-41 0 -76.5 20.5t-57.5 59.5t-22 93q0 45 10 91t27 101q5 18 12 37.5t13 37.5l11 32q9 28 30.5 42.5t45.5 14.5q33 0 48 -22.5t4 -50.5l-18 -52q-25 -74 -36.5 -116t-11.5 -84q0 -34 16.5 -53t43.5 -19q17 0 31 7t27 19t25 22q9 9 21 23.5t14 15.5q30 131 51 241
q7 33 31.5 51.5t52.5 18.5q30 0 46 -19t10 -49q-48 -242 -83 -401q-7 -29 -26.5 -44.5t-48.5 -15.5q-25 1 -41.5 22t-13.5 51q-26 -34 -61.5 -54t-73.5 -20v0zM344 570q-28 -2 -46 17.5t-14 48t29 50.5l96 86q25 23 53 24t46 -18t14 -47.5t-29 -50.5l-96 -86
q-25 -22 -53 -24v0z" />
    <glyph glyph-name="ucircumflex" unicode="&#xfb;" horiz-adv-x="558" 
d="M196 -1q-41 0 -76.5 20.5t-57.5 59.5t-22 93q0 45 10 91t27 101q5 18 12 37.5t13 37.5l11 32q9 28 30.5 42.5t45.5 14.5q33 0 48 -22.5t4 -50.5l-18 -52q-25 -74 -36.5 -116t-11.5 -84q0 -34 16.5 -53t43.5 -19q17 0 31 7t27 19t25 22q9 9 21 23.5t14 15.5q30 131 51 241
q7 33 31.5 51.5t52.5 18.5q30 0 46 -19t10 -49q-48 -242 -83 -401q-7 -29 -26.5 -44.5t-48.5 -15.5q-25 1 -41.5 22t-13.5 51q-26 -34 -61.5 -54t-73.5 -20v0zM247 581q-21 0 -36 14t-15 35q0 18 9.5 31.5t28.5 27.5l87 62q19 13 34 19t30 6q27 0 51 -27l56 -61
q12 -13 19 -25.5t7 -21.5q0 -25 -18 -42.5t-41 -17.5q-12 0 -20 5t-18 15l-50 52l-73 -50q-32 -22 -51 -22v0z" />
    <glyph glyph-name="udieresis" unicode="&#xfc;" horiz-adv-x="558" 
d="M196 -1q-41 0 -76.5 20.5t-57.5 59.5t-22 93q0 45 10 91t27 101q5 18 12 37.5t13 37.5l11 32q9 28 30.5 42.5t45.5 14.5q33 0 48 -22.5t4 -50.5l-18 -52q-25 -74 -36.5 -116t-11.5 -84q0 -34 16.5 -53t43.5 -19q17 0 31 7t27 19t25 22q9 9 21 23.5t14 15.5q30 131 51 241
q7 33 31.5 51.5t52.5 18.5q30 0 46 -19t10 -49q-48 -242 -83 -401q-7 -29 -26.5 -44.5t-48.5 -15.5q-25 1 -41.5 22t-13.5 51q-26 -34 -61.5 -54t-73.5 -20v0zM448 591q-30 0 -48.5 16.5t-18.5 43.5q0 37 26 62t61 25q30 0 49 -16.5t19 -43.5q0 -37 -26.5 -62t-61.5 -25v0z
M260 591q-30 0 -48.5 16.5t-18.5 43.5q0 37 26 62t61 25q30 0 49 -16.5t19 -43.5q0 -37 -26.5 -62t-61.5 -25v0z" />
    <glyph glyph-name="yacute" unicode="&#xfd;" horiz-adv-x="466" 
d="M24 -181q-29 -19 -49 -19q-23 0 -39 16.5t-16 39.5q0 31 32 59l35 26q52 38 67 54q35 33 56 58q-26 140 -67 385q-5 34 15.5 63t54.5 29q58 0 66 -63l36 -278q30 48 140 287q12 26 29.5 39.5t37.5 13.5q35 0 49.5 -27.5t-3.5 -67.5q-67 -152 -120 -241l-35 -58
q-25 -42 -78 -114q-43 -57 -94 -108q-18 -18 -55.5 -48t-61.5 -46v0zM288 570q-28 -2 -46 17.5t-14 48t29 50.5l96 86q25 23 53 24t46 -18t14 -47.5t-29 -50.5l-96 -86q-25 -22 -53 -24v0z" />
    <glyph glyph-name="thorn" unicode="&#xfe;" horiz-adv-x="577" 
d="M-25 -134q21 101 52.5 258.5t58.5 283.5q28 124 57 244q7 29 33 48.5t54.5 18.5t43.5 -22.5t8 -50.5q-21 -83 -24 -100q8 4 16 7q92 33 168 -13q67 -41 92 -128.5t-4 -190.5q-20 -72 -69.5 -127.5t-114.5 -81.5q-52 -22 -104 -19t-94 31q-16 -78 -33 -158
q-6 -29 -31 -49.5t-54 -20.5t-45 20.5t-10 49.5v0zM320 121q31 13 56 41t36 67q20 71 4 127t-54 79q-32 19 -68 7q-37 -14 -73 -59q-15 -70 -35 -167q2 -45 22 -68q45 -54 112 -27v0z" />
    <glyph glyph-name="ydieresis" unicode="&#xff;" horiz-adv-x="466" 
d="M24 -181q-29 -19 -49 -19q-23 0 -39 16.5t-16 39.5q0 31 32 59l35 26q52 38 67 54q35 33 56 58q-26 140 -67 385q-5 34 15.5 63t54.5 29q58 0 66 -63l36 -278q30 48 140 287q12 26 29.5 39.5t37.5 13.5q35 0 49.5 -27.5t-3.5 -67.5q-67 -152 -120 -241l-35 -58
q-25 -42 -78 -114q-43 -57 -94 -108q-18 -18 -55.5 -48t-61.5 -46v0zM392 591q-30 0 -48.5 16.5t-18.5 43.5q0 37 26 62t61 25q30 0 49 -16.5t19 -43.5q0 -37 -26.5 -62t-61.5 -25v0zM204 591q-30 0 -48.5 16.5t-18.5 43.5q0 37 26 62t61 25q30 0 49 -16.5t19 -43.5
q0 -37 -26.5 -62t-61.5 -25v0z" />
    <glyph glyph-name="Amacron" unicode="&#x100;" horiz-adv-x="609" 
d="M401 208q-198 -4 -213 -5l-95 -159q-16 -27 -45 -38.5t-54 -1.5t-30.5 36.5t9.5 53.5l356 589q15 27 39 38.5t49 1.5q9 -3 14 -9q21 -10 27 -35q9 -87 77 -400l28 -183q6 -27 -6 -53.5t-41 -38t-53 0t-29 37.5zM271 343q27 1 113 3l-31 153l-82 -156v0zM342 793
q-19 0 -45 3q-28 -1 -47.5 14t-20.5 42.5t17.5 42.5t46.5 16q54 -3 121.5 -1t129.5 2q28 0 46.5 -13t19 -40.5t-17.5 -43.5t-46 -18q-63 -4 -115 -4h-89v0z" />
    <glyph glyph-name="amacron" unicode="&#x101;" horiz-adv-x="574" 
d="M181 -1q-79 0 -120.5 43t-41.5 112q0 89 51.5 179t131 148.5t157.5 58.5q60 0 100 -30q22 9 38 9q34 0 51.5 -20.5t10.5 -53.5l-81 -380q-7 -32 -25.5 -48.5t-44.5 -16.5q-29 0 -47 21t-14 53l1 8q-87 -83 -167 -83v0zM224 135q25 0 49.5 14t51.5 38q40 36 52 39l33 151
q-8 11 -25.5 19t-38.5 8q-39 0 -82 -35t-72.5 -84.5t-29.5 -88.5q0 -29 18 -45t44 -16v0zM331 613q-19 0 -45 3q-28 -1 -47.5 14t-20.5 42.5t17.5 42.5t46.5 16q54 -3 121.5 -1t129.5 2q28 0 46.5 -13t19 -40.5t-17.5 -43.5t-46 -18q-63 -4 -115 -4h-89v0z" />
    <glyph glyph-name="Abreve" unicode="&#x102;" horiz-adv-x="607" 
d="M-36 41q-2 10 -2 15q0 19 12 38l347 567q34 55 82 55q28 0 45 -14.5t22 -40.5l28 -170l33 -215l29 -180q4 -26 -6.5 -48t-29 -35t-37.5 -13q-50 0 -59 43l-24 152l-222 -5l-87 -149q-13 -20 -33.5 -31.5t-41.5 -11.5q-20 0 -35.5 11t-20.5 32v0zM382 328l-20 145
l-95 -147zM414 762q-33 0 -66 17t-54.5 45.5t-21.5 61.5t23 55.5t51 22.5q20 0 30 -9t11 -12.5t7 -30.5q4 -15 16.5 -23.5t27.5 -8.5q35 0 60 28q9 11 18 23t21 19t31 7q23 0 35 -16t9 -38q-5 -34 -35.5 -67t-74.5 -53.5t-88 -20.5v0z" />
    <glyph glyph-name="abreve" unicode="&#x103;" horiz-adv-x="574" 
d="M181 -1q-79 0 -120.5 43t-41.5 112q0 89 51.5 179t131 148.5t157.5 58.5q60 0 100 -30q22 9 38 9q34 0 51.5 -20.5t10.5 -53.5l-81 -380q-7 -32 -25.5 -48.5t-44.5 -16.5q-29 0 -47 21t-14 53l1 8q-87 -83 -167 -83v0zM224 135q25 0 49.5 14t51.5 38q40 36 52 39l33 151
q-8 11 -25.5 19t-38.5 8q-39 0 -82 -35t-72.5 -84.5t-29.5 -88.5q0 -29 18 -45t44 -16v0zM398 585q-39 0 -73.5 16t-55.5 43.5t-21 60.5q0 34 21.5 56.5t50.5 22.5q40 0 45 -43q2 -20 14 -31t33 -11t34.5 10t28.5 31q14 22 30 32.5t36 10.5q21 0 34 -12.5t13 -31.5
q0 -34 -28.5 -70.5t-73 -60t-88.5 -23.5v0z" />
    <glyph glyph-name="Aogonek" unicode="&#x104;" horiz-adv-x="607" 
d="M409 -196q-53 0 -85.5 30t-32.5 77q0 53 39.5 95.5t90 67t73.5 24.5q20 0 33.5 -10t13.5 -28q0 -28 -31 -43q-10 -5 -28 -11q-30 -10 -49 -22q-20 -12 -30 -25t-10 -30q0 -16 11.5 -25t27.5 -9q11 0 19 4t19 12q13 9 22 13t22 4q16 0 26.5 -10.5t10.5 -25.5
q0 -24 -19.5 -44t-52.5 -32t-70 -12v0zM-36 41q-2 10 -2 15q0 19 12 38l347 567q34 55 82 55q28 0 45 -14.5t22 -40.5l28 -170l33 -215l29 -180q4 -26 -6.5 -48t-29 -35t-37.5 -13q-50 0 -59 43l-24 152l-222 -5l-87 -149q-13 -20 -33.5 -31.5t-41.5 -11.5q-20 0 -35.5 11
t-20.5 32v0v0zM362 473l-95 -147l115 2z" />
    <glyph glyph-name="aogonek" unicode="&#x105;" horiz-adv-x="574" 
d="M340 -204q-52 0 -83.5 29t-31.5 75q0 51 38.5 92.5t87.5 65.5t71 24q20 0 33 -10t13 -27q0 -27 -30 -42q-10 -5 -27 -11q-30 -9 -48 -21q-19 -12 -29 -24.5t-10 -28.5t11.5 -24.5t26.5 -8.5q11 0 18.5 3.5t18.5 11.5q13 9 21.5 13t21.5 4q15 0 25.5 -10.5t10.5 -24.5
q0 -24 -19 -43.5t-51 -31t-68 -11.5v0zM181 -1q-79 0 -120.5 43t-41.5 112q0 89 51.5 179t131 148.5t157.5 58.5q60 0 100 -30q22 9 38 9q34 0 51.5 -20.5t10.5 -53.5l-81 -380q-7 -32 -25.5 -48.5t-44.5 -16.5q-29 0 -47 21t-14 53l1 8q-87 -83 -167 -83v0v0zM224 135
q25 0 49.5 14t51.5 38q40 36 52 39l33 151q-8 11 -25.5 19t-38.5 8q-39 0 -82 -35t-72.5 -84.5t-29.5 -88.5q0 -29 18 -45t44 -16v0v0z" />
    <glyph glyph-name="Cacute" unicode="&#x106;" horiz-adv-x="690" 
d="M335 -1q-66 0 -121 19.5t-93 57.5q-36 36 -55.5 88.5t-19.5 117.5q0 117 62 216t163 157.5t213 58.5q49 0 94 -17.5t74 -48.5q30 -35 52 -74q9 -16 9 -31q0 -36 -26 -59t-63 -23q-29 0 -46 24q-4 6 -8.5 12.5t-8.5 13.5q-6 11 -14 23q-15 21 -39.5 32t-53.5 11
q-69 0 -131 -38.5t-99.5 -102t-37.5 -134.5q0 -85 44.5 -127t125.5 -42q43 0 75 12t50 33q16 17 22 32l19 40q13 23 32 34t41 11q25 0 42.5 -14.5t17.5 -38.5q0 -20 -21 -61q-46 -90 -126 -136t-173 -46v0zM488 759q-26 0 -41.5 16.5t-15.5 39.5q0 18 9 32.5t23 24.5l117 77
q15 10 26.5 14.5t24.5 4.5q25 0 42 -17.5t17 -41.5q0 -18 -10 -35t-27 -28l-119 -71q-26 -16 -46 -16v0z" />
    <glyph glyph-name="cacute" unicode="&#x107;" horiz-adv-x="545" 
d="M321 13q-49 -16 -92 -12t-81 20q-59 26 -92 80.5t-24 125.5q8 59 44.5 120.5t89.5 105.5q38 32 80.5 51.5t92.5 24.5t95 -17q25 -11 50 -36q1 -2 10 -12l15 -15q19 -18 16.5 -45.5t-25 -50t-52 -26t-48.5 14.5q-2 1 -31 32q-10 10 -15 13q-50 22 -106 -27
q-29 -25 -50 -59t-24 -64q-4 -28 10.5 -53t45.5 -38q32 -13 57 -9.5t43 18.5q7 5 17 21q31 46 32 48q18 25 47.5 33.5t53 -4t26 -39.5t-15.5 -52q-4 -6 -8.5 -12.5t-9.5 -14.5t-9 -13q-24 -38 -50 -60q-42 -35 -92 -49v0zM339 570q-28 -2 -46 17.5t-14 48t29 50.5l96 86
q25 23 53 24t46 -18t14 -47.5t-29 -50.5l-96 -86q-25 -22 -53 -24v0z" />
    <glyph glyph-name="Ccircumflex" unicode="&#x108;" horiz-adv-x="690" 
d="M335 -1q-66 0 -121 19.5t-93 57.5q-36 36 -55.5 88.5t-19.5 117.5q0 117 62 216t163 157.5t213 58.5q49 0 94 -17.5t74 -48.5q30 -35 52 -74q9 -16 9 -31q0 -36 -26 -59t-63 -23q-29 0 -46 24q-4 6 -8.5 12.5t-8.5 13.5q-6 11 -14 23q-15 21 -39.5 32t-53.5 11
q-69 0 -131 -38.5t-99.5 -102t-37.5 -134.5q0 -85 44.5 -127t125.5 -42q43 0 75 12t50 33q16 17 22 32l19 40q13 23 32 34t41 11q25 0 42.5 -14.5t17.5 -38.5q0 -20 -21 -61q-46 -90 -126 -136t-173 -46v0zM395 760q-21 0 -36 14t-15 35q0 18 9.5 31.5t28.5 27.5l87 62
q19 13 34 19t30 6q27 0 51 -27l56 -61q12 -13 19 -25.5t7 -21.5q0 -25 -18 -42.5t-41 -17.5q-12 0 -20 5t-18 15l-50 52l-73 -50q-32 -22 -51 -22v0z" />
    <glyph glyph-name="ccircumflex" unicode="&#x109;" horiz-adv-x="545" 
d="M321 13q-49 -16 -92 -12t-81 20q-59 26 -92 80.5t-24 125.5q8 59 44.5 120.5t89.5 105.5q38 32 80.5 51.5t92.5 24.5t95 -17q25 -11 50 -36q1 -2 10 -12l15 -15q19 -18 16.5 -45.5t-25 -50t-52 -26t-48.5 14.5q-2 1 -31 32q-10 10 -15 13q-50 22 -106 -27
q-29 -25 -50 -59t-24 -64q-4 -28 10.5 -53t45.5 -38q32 -13 57 -9.5t43 18.5q7 5 17 21q31 46 32 48q18 25 47.5 33.5t53 -4t26 -39.5t-15.5 -52q-4 -6 -8.5 -12.5t-9.5 -14.5t-9 -13q-24 -38 -50 -60q-42 -35 -92 -49v0zM242 581q-21 0 -36 14t-15 35q0 18 9.5 31.5
t28.5 27.5l87 62q19 13 34 19t30 6q27 0 51 -27l56 -61q12 -13 19 -25.5t7 -21.5q0 -25 -18 -42.5t-41 -17.5q-12 0 -20 5t-18 15l-50 52l-73 -50q-32 -22 -51 -22v0z" />
    <glyph glyph-name="Cdotaccent" unicode="&#x10a;" horiz-adv-x="690" 
d="M335 -1q-66 0 -121 19.5t-93 57.5q-36 36 -55.5 88.5t-19.5 117.5q0 117 62 216t163 157.5t213 58.5q49 0 94 -17.5t74 -48.5q30 -35 52 -74q9 -16 9 -31q0 -36 -26 -59t-63 -23q-29 0 -46 24q-4 6 -8.5 12.5t-8.5 13.5q-6 11 -14 23q-15 21 -39.5 32t-53.5 11
q-69 0 -131 -38.5t-99.5 -102t-37.5 -134.5q0 -85 44.5 -127t125.5 -42q43 0 75 12t50 33q16 17 22 32l19 40q13 23 32 34t41 11q25 0 42.5 -14.5t17.5 -38.5q0 -20 -21 -61q-46 -90 -126 -136t-173 -46v0zM517 784q-32 0 -55 18.5t-23 47.5q0 40 30 67.5t73 27.5
q33 0 50.5 -21t17.5 -48q0 -38 -26.5 -65t-66.5 -27v0v0z" />
    <glyph glyph-name="cdotaccent" unicode="&#x10b;" horiz-adv-x="545" 
d="M321 13q-49 -16 -92 -12t-81 20q-59 26 -92 80.5t-24 125.5q8 59 44.5 120.5t89.5 105.5q38 32 80.5 51.5t92.5 24.5t95 -17q25 -11 50 -36q1 -2 10 -12l15 -15q19 -18 16.5 -45.5t-25 -50t-52 -26t-48.5 14.5q-2 1 -31 32q-10 10 -15 13q-50 22 -106 -27
q-29 -25 -50 -59t-24 -64q-4 -28 10.5 -53t45.5 -38q32 -13 57 -9.5t43 18.5q7 5 17 21q31 46 32 48q18 25 47.5 33.5t53 -4t26 -39.5t-15.5 -52q-4 -6 -8.5 -12.5t-9.5 -14.5t-9 -13q-24 -38 -50 -60q-42 -35 -92 -49v0zM354 583q-34 0 -58 19.5t-24 49.5q0 42 31.5 71
t76.5 29q34 0 52.5 -22t18.5 -51q0 -39 -27.5 -67.5t-69.5 -28.5v0z" />
    <glyph glyph-name="Ccaron" unicode="&#x10c;" horiz-adv-x="690" 
d="M335 -1q-66 0 -121 19.5t-93 57.5q-36 36 -55.5 88.5t-19.5 117.5q0 117 62 216t163 157.5t213 58.5q49 0 94 -17.5t74 -48.5q30 -35 52 -74q9 -16 9 -31q0 -36 -26 -59t-63 -23q-29 0 -46 24q-4 6 -8.5 12.5t-8.5 13.5q-6 11 -14 23q-15 21 -39.5 32t-53.5 11
q-69 0 -131 -38.5t-99.5 -102t-37.5 -134.5q0 -85 44.5 -127t125.5 -42q43 0 75 12t50 33q16 17 22 32l19 40q13 23 32 34t41 11q25 0 42.5 -14.5t17.5 -38.5q0 -20 -21 -61q-46 -90 -126 -136t-173 -46v0zM503 765q-26 0 -50 27l-55 61q-12 13 -19 25.5t-7 21.5
q0 24 17 41.5t43 17.5q11 0 22 -5.5t18 -13.5l50 -57l81 62q20 15 40 15q21 0 36 -14t15 -35q0 -18 -9.5 -31t-28.5 -27l-99 -67q-16 -11 -28 -16t-26 -5v0z" />
    <glyph glyph-name="ccaron" unicode="&#x10d;" horiz-adv-x="545" 
d="M321 13q-49 -16 -92 -12t-81 20q-59 26 -92 80.5t-24 125.5q8 59 44.5 120.5t89.5 105.5q38 32 80.5 51.5t92.5 24.5t95 -17q25 -11 50 -36q1 -2 10 -12l15 -15q19 -18 16.5 -45.5t-25 -50t-52 -26t-48.5 14.5q-2 1 -31 32q-10 10 -15 13q-50 22 -106 -27
q-29 -25 -50 -59t-24 -64q-4 -28 10.5 -53t45.5 -38q32 -13 57 -9.5t43 18.5q7 5 17 21q31 46 32 48q18 25 47.5 33.5t53 -4t26 -39.5t-15.5 -52q-4 -6 -8.5 -12.5t-9.5 -14.5t-9 -13q-24 -38 -50 -60q-42 -35 -92 -49v0zM343 581q-26 0 -50 27l-55 61q-12 13 -19 25.5
t-7 21.5q0 24 17 41.5t43 17.5q11 0 22 -5.5t18 -13.5l50 -57l81 62q20 15 40 15q21 0 36 -14t15 -35q0 -18 -9.5 -31t-28.5 -27l-99 -67q-16 -11 -28 -16t-26 -5v0z" />
    <glyph glyph-name="Dcaron" unicode="&#x10e;" horiz-adv-x="748" 
d="M107 1q-20 -1 -35 10q-21 7 -30 24t-5 39q17 74 60.5 289t63.5 290q7 27 32 45.5t55 18.5q12 5 24 5q5 0 15 1q46 3 72.5 4.5t75.5 0.5t82.5 -7t73.5 -21q39 -15 69 -38q68 -56 85 -139q16 -85 -13 -177q-28 -89 -91 -167q-65 -79 -152 -124t-209 -52q-32 -2 -93 -1
q-56 1 -80 -1v0zM217 133q56 0 84 2q85 4 137 31q54 28 95.5 80t61.5 112q19 62 9 114.5t-49 83.5q-28 21 -70.5 31.5t-90.5 9.5t-106 -4q-13 -48 -49.5 -228.5t-47.5 -229.5q10 0 26 -2v0zM434 754l-10 2q-10 3 -19 9l-82 66q-18 15 -18 39.5t19 46t45 26.5t45 -10l55 -46
l73 47q24 14 47.5 9.5t34.5 -25.5t1 -45q-9 -26 -34 -40l-109 -70q-24 -14 -48 -9v0z" />
    <glyph glyph-name="dcaron" unicode="&#x10f;" horiz-adv-x="739" 
d="M415 -7q-26 0 -40 19t-10 53q-29 -32 -64.5 -51t-83.5 -19q-37 0 -71 11t-58 33q-27 25 -41 65t-14 89q0 83 44.5 164t118.5 132t156 51q52 0 94 -18q11 49 17 80.5t9 44.5q6 32 30 51t55 19q30 0 46 -19t10 -49q-52 -264 -105 -514l-14 -67q-7 -36 -28 -55.5t-51 -19.5
v0zM259 128q41 0 69 24q13 11 20.5 22t20.5 33q9 15 20 23l24 128q-8 14 -29 30q-22 17 -62 17q-39 0 -72 -27.5t-52.5 -69.5t-19.5 -84q0 -38 16.5 -67t64.5 -29v0zM686 467q-22 0 -37.5 14.5t-15.5 35.5q0 8 4.5 18t9.5 21q11 20 17 37q9 27 9 78q0 31 19.5 51.5
t47.5 20.5q29 0 42.5 -18.5t13.5 -45.5q0 -49 -10.5 -87.5t-31.5 -77.5q-12 -22 -30 -34.5t-38 -12.5v0z" />
    <glyph glyph-name="Dcroat" unicode="&#x110;" horiz-adv-x="792" 
d="M151 1q-20 -1 -35 10q-21 7 -30 24t-5 39q15 64 50 237h-28q-29 0 -45.5 20.5t-10 49.5t31 49.5t53.5 20.5h27q31 144 46 202q7 27 32 45.5t55 18.5q12 5 24 5q5 0 15 1q46 3 72.5 4.5t75.5 0.5t82.5 -7t73.5 -21q39 -15 69 -38q68 -56 85 -139q16 -85 -13 -177
q-28 -89 -91 -167q-65 -79 -152 -124t-209 -52q-32 -2 -93 -1q-56 1 -80 -1v0zM261 133q56 0 84 2q85 4 137 31q54 28 95.5 80t61.5 112q19 62 9 114.5t-49 83.5q-28 21 -70.5 31.5t-90.5 9.5t-106 -4q-9 -33 -32 -142q28 -1 44 -21q17 -20 10.5 -49t-31 -49.5t-51.5 -20.5
q-28 -135 -37 -176q10 0 26 -2v0z" />
    <glyph glyph-name="dcroat" unicode="&#x111;" horiz-adv-x="607" 
d="M207 -10q-36 0 -73 17t-63 44q-62 67 -37 190q17 79 63.5 145.5t112 106t136.5 39.5q29 0 50 -7.5t42 -20.5l34 171q7 33 32 51.5t53 18.5t45 -18t11 -50q-64 -332 -125 -609q-7 -36 -28 -55.5t-51 -19.5q-26 0 -40 17.5t-10 49.5q-28 -31 -66.5 -50.5t-85.5 -19.5v0z
M260 123q21 0 33.5 5t27.5 16q11 7 18.5 17.5t19.5 28.5l20 30q2 4 4 5l24 126q-2 2 -9 10.5t-20 19.5q-22 17 -62 17q-51 0 -89.5 -43t-51.5 -103q-13 -63 10.5 -96t74.5 -33v0zM390 564q-27 -1 -40.5 16t-9.5 40t23 39.5t44 17.5l250 7q27 1 39 -16t7 -42
q-5 -22 -24.5 -38t-45.5 -17l-243 -7v0z" />
    <glyph glyph-name="Emacron" unicode="&#x112;" horiz-adv-x="652" 
d="M497 -1q-148 0 -403 3q-20 0 -34 11.5t-19 28.5q-8 18 -3 39q8 35 59 282q37 180 69 283q4 13 11 24q12 20 31.5 32.5t42.5 13.5q73 1 197 0.5t197 0.5q29 0 45 -20t10 -48.5t-29.5 -49t-52.5 -20.5q-56 0 -167 0.5t-167 -0.5q-16 -61 -35 -144q48 1 296 1q29 0 45.5 -20
t10.5 -48.5t-31 -49t-54 -20.5q-249 0 -295 -1q-22 -112 -33 -158q203 -2 339 -2q29 0 44.5 -20t9.5 -49t-30.5 -49t-53.5 -20v0zM392 793q-19 0 -45 3q-28 -1 -47.5 14t-20.5 42.5t17.5 42.5t46.5 16q54 -3 121.5 -1t129.5 2q28 0 46.5 -13t19 -40.5t-17.5 -43.5t-46 -18
q-63 -4 -115 -4h-89v0z" />
    <glyph glyph-name="emacron" unicode="&#x113;" horiz-adv-x="563" 
d="M330 5q-72 -9 -123 -1.5t-87.5 32.5t-58.5 67.5t-24 123.5q2 47 20 87q89 212 298 216q191 -1 195 -207q2 -43 -22 -70q-29 -34 -85 -38q-26 -3 -78 -4.5t-194 8.5q-10 -92 93 -107q61 -4 90 19q47 39 73 40.5t41 -11t18.5 -29t-6.5 -33.5q-7 -15 -31 -38
q-24 -19 -47.5 -32t-71.5 -23v0zM190 314q35 -1 73 -2t93 -0.5t71 7.5q3 16 -4.5 40.5t-44.5 45.5q-45 23 -108 -4q-61 -26 -80 -87v0zM295 613q-19 0 -45 3q-28 -1 -47.5 14t-20.5 42.5t17.5 42.5t46.5 16q54 -3 121.5 -1t129.5 2q28 0 46.5 -13t19 -40.5t-17.5 -43.5
t-46 -18q-63 -4 -115 -4h-89v0z" />
    <glyph glyph-name="Ebreve" unicode="&#x114;" horiz-adv-x="652" 
d="M497 -1q-148 0 -403 3q-20 0 -34 11.5t-19 28.5q-8 18 -3 39q8 35 59 282q37 180 69 283q4 13 11 24q12 20 31.5 32.5t42.5 13.5q73 1 197 0.5t197 0.5q29 0 45 -20t10 -48.5t-29.5 -49t-52.5 -20.5q-56 0 -167 0.5t-167 -0.5q-16 -61 -35 -144q48 1 296 1q29 0 45.5 -20
t10.5 -48.5t-31 -49t-54 -20.5q-249 0 -295 -1q-22 -112 -33 -158q203 -2 339 -2q29 0 44.5 -20t9.5 -49t-30.5 -49t-53.5 -20v0zM464 762q-33 0 -66 17t-54.5 45.5t-21.5 61.5t23 55.5t51 22.5q20 0 30 -9t11 -12.5t7 -30.5q4 -15 16.5 -23.5t27.5 -8.5q35 0 60 28
q9 11 18 23t21 19t31 7q23 0 35 -16t9 -38q-5 -34 -35.5 -67t-74.5 -53.5t-88 -20.5v0z" />
    <glyph glyph-name="ebreve" unicode="&#x115;" horiz-adv-x="563" 
d="M330 5q-72 -9 -123 -1.5t-87.5 32.5t-58.5 67.5t-24 123.5q2 47 20 87q89 212 298 216q191 -1 195 -207q2 -43 -22 -70q-29 -34 -85 -38q-26 -3 -78 -4.5t-194 8.5q-10 -92 93 -107q61 -4 90 19q47 39 73 40.5t41 -11t18.5 -29t-6.5 -33.5q-7 -15 -31 -38
q-24 -19 -47.5 -32t-71.5 -23v0zM190 314q35 -1 73 -2t93 -0.5t71 7.5q3 16 -4.5 40.5t-44.5 45.5q-45 23 -108 -4q-61 -26 -80 -87v0zM362 585q-39 0 -73.5 16t-55.5 43.5t-21 60.5q0 34 21.5 56.5t50.5 22.5q40 0 45 -43q2 -20 14 -31t33 -11t34.5 10t28.5 31
q14 22 30 32.5t36 10.5q21 0 34 -12.5t13 -31.5q0 -34 -28.5 -70.5t-73 -60t-88.5 -23.5v0z" />
    <glyph glyph-name="Edotaccent" unicode="&#x116;" horiz-adv-x="652" 
d="M497 -1q-148 0 -403 3q-20 0 -34 11.5t-19 28.5q-8 18 -3 39q8 35 59 282q37 180 69 283q4 13 11 24q12 20 31.5 32.5t42.5 13.5q73 1 197 0.5t197 0.5q29 0 45 -20t10 -48.5t-29.5 -49t-52.5 -20.5q-56 0 -167 0.5t-167 -0.5q-16 -61 -35 -144q48 1 296 1q29 0 45.5 -20
t10.5 -48.5t-31 -49t-54 -20.5q-249 0 -295 -1q-22 -112 -33 -158q203 -2 339 -2q29 0 44.5 -20t9.5 -49t-30.5 -49t-53.5 -20v0zM478 784q-32 0 -55 18.5t-23 47.5q0 40 30 67.5t73 27.5q33 0 50.5 -21t17.5 -48q0 -38 -26.5 -65t-66.5 -27v0v0z" />
    <glyph glyph-name="edotaccent" unicode="&#x117;" horiz-adv-x="563" 
d="M330 5q-72 -9 -123 -1.5t-87.5 32.5t-58.5 67.5t-24 123.5q2 47 20 87q89 212 298 216q191 -1 195 -207q2 -43 -22 -70q-29 -34 -85 -38q-26 -3 -78 -4.5t-194 8.5q-10 -92 93 -107q61 -4 90 19q47 39 73 40.5t41 -11t18.5 -29t-6.5 -33.5q-7 -15 -31 -38
q-24 -19 -47.5 -32t-71.5 -23v0zM190 314q35 -1 73 -2t93 -0.5t71 7.5q3 16 -4.5 40.5t-44.5 45.5q-45 23 -108 -4q-61 -26 -80 -87v0zM364 583q-34 0 -58 19.5t-24 49.5q0 42 31.5 71t76.5 29q34 0 52.5 -22t18.5 -51q0 -39 -27.5 -67.5t-69.5 -28.5v0z" />
    <glyph glyph-name="Eogonek" unicode="&#x118;" horiz-adv-x="652" 
d="M430 -206q-53 0 -85.5 30t-32.5 77q0 53 39.5 95.5t90 67t73.5 24.5q20 0 33.5 -10t13.5 -28q0 -28 -31 -43q-10 -5 -28 -11q-30 -10 -49 -22q-20 -12 -30 -25t-10 -30q0 -16 11.5 -25t27.5 -9q11 0 19 4t19 12q13 9 22 13t22 4q16 0 26.5 -10.5t10.5 -25.5
q0 -24 -19.5 -44t-52.5 -32t-70 -12v0zM497 -1q-148 0 -403 3q-20 0 -34 11.5t-19 28.5q-8 18 -3 39q8 35 59 282q37 180 69 283q4 13 11 24q12 20 31.5 32.5t42.5 13.5q73 1 197 0.5t197 0.5q29 0 45 -20t10 -48.5t-29.5 -49t-52.5 -20.5q-56 0 -167 0.5t-167 -0.5
q-16 -61 -35 -144q48 1 296 1q29 0 45.5 -20t10.5 -48.5t-31 -49t-54 -20.5q-249 0 -295 -1q-22 -112 -33 -158q203 -2 339 -2q29 0 44.5 -20t9.5 -49t-30.5 -49t-53.5 -20v0v0z" />
    <glyph glyph-name="eogonek" unicode="&#x119;" horiz-adv-x="563" 
d="M291 -186q-52 0 -83.5 29t-31.5 75q0 51 38.5 92.5t87.5 65.5t71 24q20 0 33 -10t13 -27q0 -27 -30 -42q-10 -5 -27 -11q-30 -9 -48 -21q-19 -12 -29 -24.5t-10 -28.5t11.5 -24.5t26.5 -8.5q11 0 18.5 3.5t18.5 11.5q13 9 21.5 13t21.5 4q15 0 25.5 -10.5t10.5 -24.5
q0 -24 -19 -43.5t-51 -31t-68 -11.5v0zM330 5q-72 -9 -123 -1.5t-87.5 32.5t-58.5 67.5t-24 123.5q2 47 20 87q89 212 298 216q191 -1 195 -207q2 -43 -22 -70q-29 -34 -85 -38q-26 -3 -78 -4.5t-194 8.5q-10 -92 93 -107q61 -4 90 19q47 39 73 40.5t41 -11t18.5 -29
t-6.5 -33.5q-7 -15 -31 -38q-24 -19 -47.5 -32t-71.5 -23v0v0zM190 314q35 -1 73 -2t93 -0.5t71 7.5q3 16 -4.5 40.5t-44.5 45.5q-45 23 -108 -4q-61 -26 -80 -87v0v0z" />
    <glyph glyph-name="Ecaron" unicode="&#x11a;" horiz-adv-x="652" 
d="M497 -1q-148 0 -403 3q-20 0 -34 11.5t-19 28.5q-8 18 -3 39q8 35 59 282q37 180 69 283q4 13 11 24q12 20 31.5 32.5t42.5 13.5q73 1 197 0.5t197 0.5q29 0 45 -20t10 -48.5t-29.5 -49t-52.5 -20.5q-56 0 -167 0.5t-167 -0.5q-16 -61 -35 -144q48 1 296 1q29 0 45.5 -20
t10.5 -48.5t-31 -49t-54 -20.5q-249 0 -295 -1q-22 -112 -33 -158q203 -2 339 -2q29 0 44.5 -20t9.5 -49t-30.5 -49t-53.5 -20v0zM464 765q-26 0 -50 27l-55 61q-12 13 -19 25.5t-7 21.5q0 24 17 41.5t43 17.5q11 0 22 -5.5t18 -13.5l50 -57l81 62q20 15 40 15q21 0 36 -14
t15 -35q0 -18 -9.5 -31t-28.5 -27l-99 -67q-16 -11 -28 -16t-26 -5v0z" />
    <glyph glyph-name="ecaron" unicode="&#x11b;" horiz-adv-x="571" 
d="M332 -1q-73 -9 -125 -1.5t-87 33.5t-57 70.5t-24 127.5q-22 10 -16 43q12 44 37 48q91 220 301 224q190 -1 193 -215q2 -44 -22 -73q-30 -36 -86 -39q-27 -3 -78 -4.5t-195 7.5q-11 -95 94 -109q61 -4 90 19q46 40 72.5 41.5t41 -11t18.5 -29.5t-6 -35q-7 -16 -33 -40
q-23 -20 -47.5 -33.5t-70.5 -23.5v0zM193 320q36 -1 74.5 -1.5t93.5 0t71 6.5q3 16 -4 41.5t-46 48.5q-43 23 -108 -4q-61 -28 -81 -91v0zM359 581q-26 0 -50 27l-55 61q-12 13 -19 25.5t-7 21.5q0 24 17 41.5t43 17.5q11 0 22 -5.5t18 -13.5l50 -57l81 62q20 15 40 15
q21 0 36 -14t15 -35q0 -18 -9.5 -31t-28.5 -27l-99 -67q-16 -11 -28 -16t-26 -5v0z" />
    <glyph glyph-name="Gcircumflex" unicode="&#x11c;" horiz-adv-x="734" 
d="M598 115q-60 -58 -129.5 -87.5t-133.5 -29t-121 22.5t-98.5 67t-59.5 104q-22 73 -6 152.5t59 145.5q42 67 105 119q64 54 135 82q73 29 152 26t144 -47q18 -10 30.5 -22.5t23.5 -27.5t16 -23.5t15 -27.5t13 -24q12 -23 2 -51.5t-36.5 -45.5t-53.5 -13t-40 27l-15 26
l-11 22q-3 6 -9.5 15t-13 14.5t-15.5 12.5q-63 36 -130 24.5t-128 -63.5q-64 -52 -91.5 -120.5t-9.5 -136.5q19 -65 74 -96t122.5 -19.5t121.5 63.5q25 23 31 37q3 7 5 13q-28 1 -110 -3q-29 -1 -46 18t-12 48t28.5 50t52.5 22q82 3 184 3q29 0 45 -21q18 -21 10 -52l-5 -23
q-4 -24 -10.5 -47.5t-14.5 -41.5q-21 -45 -70 -92v0zM397 760q-21 0 -36 14t-15 35q0 18 9.5 31.5t28.5 27.5l87 62q19 13 34 19t30 6q27 0 51 -27l56 -61q12 -13 19 -25.5t7 -21.5q0 -25 -18 -42.5t-41 -17.5q-12 0 -20 5t-18 15l-50 52l-73 -50q-32 -22 -51 -22v0z" />
    <glyph glyph-name="gcircumflex" unicode="&#x11d;" horiz-adv-x="572" 
d="M196 -206q-116 0 -165 54q-18 20 -25.5 33.5t-8.5 37.5q-1 27 17 51.5t50 24.5q22 0 37 -8t25 -27q14 -25 31 -35.5t47 -10.5q47 0 84.5 40.5t60.5 102.5q-38 -33 -70 -46.5t-74 -12.5q-45 2 -84.5 28t-63 72.5t-23.5 106.5q0 86 38.5 160.5t107.5 119.5t155 45
q29 0 56 -8.5t45 -21.5q12 14 29.5 21.5t36.5 7.5q26 0 42 -18t12 -45q-18 -112 -70 -348l-9 -40q-18 -84 -63.5 -149t-103.5 -100t-114 -35v0zM249 127q41 0 90 49q9 9 17.5 20.5t16.5 21.5q20 92 30 149q-14 4 -27 10l-32 16q-16 7 -34 7q-43 0 -75 -25.5t-49 -65
t-17 -79.5q0 -50 23.5 -76.5t56.5 -26.5v0zM256 581q-21 0 -36 14t-15 35q0 18 9.5 31.5t28.5 27.5l87 62q19 13 34 19t30 6q27 0 51 -27l56 -61q12 -13 19 -25.5t7 -21.5q0 -25 -18 -42.5t-41 -17.5q-12 0 -20 5t-18 15l-50 52l-73 -50q-32 -22 -51 -22v0z" />
    <glyph glyph-name="Gbreve" unicode="&#x11e;" horiz-adv-x="734" 
d="M598 115q-60 -58 -129.5 -87.5t-133.5 -29t-121 22.5t-98.5 67t-59.5 104q-22 73 -6 152.5t59 145.5q42 67 105 119q64 54 135 82q73 29 152 26t144 -47q18 -10 30.5 -22.5t23.5 -27.5t16 -23.5t15 -27.5t13 -24q12 -23 2 -51.5t-36.5 -45.5t-53.5 -13t-40 27l-15 26
l-11 22q-3 6 -9.5 15t-13 14.5t-15.5 12.5q-63 36 -130 24.5t-128 -63.5q-64 -52 -91.5 -120.5t-9.5 -136.5q19 -65 74 -96t122.5 -19.5t121.5 63.5q25 23 31 37q3 7 5 13q-28 1 -110 -3q-29 -1 -46 18t-12 48t28.5 50t52.5 22q82 3 184 3q29 0 45 -21q18 -21 10 -52l-5 -23
q-4 -24 -10.5 -47.5t-14.5 -41.5q-21 -45 -70 -92v0zM505 762q-33 0 -66 17t-54.5 45.5t-21.5 61.5t23 55.5t51 22.5q20 0 30 -9t11 -12.5t7 -30.5q4 -15 16.5 -23.5t27.5 -8.5q35 0 60 28q9 11 18 23t21 19t31 7q23 0 35 -16t9 -38q-5 -34 -35.5 -67t-74.5 -53.5t-88 -20.5
v0z" />
    <glyph glyph-name="gbreve" unicode="&#x11f;" horiz-adv-x="572" 
d="M196 -206q-116 0 -165 54q-18 20 -25.5 33.5t-8.5 37.5q-1 27 17 51.5t50 24.5q22 0 37 -8t25 -27q14 -25 31 -35.5t47 -10.5q47 0 84.5 40.5t60.5 102.5q-38 -33 -70 -46.5t-74 -12.5q-45 2 -84.5 28t-63 72.5t-23.5 106.5q0 86 38.5 160.5t107.5 119.5t155 45
q29 0 56 -8.5t45 -21.5q12 14 29.5 21.5t36.5 7.5q26 0 42 -18t12 -45q-18 -112 -70 -348l-9 -40q-18 -84 -63.5 -149t-103.5 -100t-114 -35v0zM249 127q41 0 90 49q9 9 17.5 20.5t16.5 21.5q20 92 30 149q-14 4 -27 10l-32 16q-16 7 -34 7q-43 0 -75 -25.5t-49 -65
t-17 -79.5q0 -50 23.5 -76.5t56.5 -26.5v0zM366 585q-39 0 -73.5 16t-55.5 43.5t-21 60.5q0 34 21.5 56.5t50.5 22.5q40 0 45 -43q2 -20 14 -31t33 -11t34.5 10t28.5 31q14 22 30 32.5t36 10.5q21 0 34 -12.5t13 -31.5q0 -34 -28.5 -70.5t-73 -60t-88.5 -23.5v0z" />
    <glyph glyph-name="Gdotaccent" unicode="&#x120;" horiz-adv-x="734" 
d="M598 115q-60 -58 -129.5 -87.5t-133.5 -29t-121 22.5t-98.5 67t-59.5 104q-22 73 -6 152.5t59 145.5q42 67 105 119q64 54 135 82q73 29 152 26t144 -47q18 -10 30.5 -22.5t23.5 -27.5t16 -23.5t15 -27.5t13 -24q12 -23 2 -51.5t-36.5 -45.5t-53.5 -13t-40 27l-15 26
l-11 22q-3 6 -9.5 15t-13 14.5t-15.5 12.5q-63 36 -130 24.5t-128 -63.5q-64 -52 -91.5 -120.5t-9.5 -136.5q19 -65 74 -96t122.5 -19.5t121.5 63.5q25 23 31 37q3 7 5 13q-28 1 -110 -3q-29 -1 -46 18t-12 48t28.5 50t52.5 22q82 3 184 3q29 0 45 -21q18 -21 10 -52l-5 -23
q-4 -24 -10.5 -47.5t-14.5 -41.5q-21 -45 -70 -92v0zM519 784q-32 0 -55 18.5t-23 47.5q0 40 30 67.5t73 27.5q33 0 50.5 -21t17.5 -48q0 -38 -26.5 -65t-66.5 -27v0v0z" />
    <glyph glyph-name="gdotaccent" unicode="&#x121;" horiz-adv-x="572" 
d="M196 -206q-116 0 -165 54q-18 20 -25.5 33.5t-8.5 37.5q-1 27 17 51.5t50 24.5q22 0 37 -8t25 -27q14 -25 31 -35.5t47 -10.5q47 0 84.5 40.5t60.5 102.5q-38 -33 -70 -46.5t-74 -12.5q-45 2 -84.5 28t-63 72.5t-23.5 106.5q0 86 38.5 160.5t107.5 119.5t155 45
q29 0 56 -8.5t45 -21.5q12 14 29.5 21.5t36.5 7.5q26 0 42 -18t12 -45q-18 -112 -70 -348l-9 -40q-18 -84 -63.5 -149t-103.5 -100t-114 -35v0zM249 127q41 0 90 49q9 9 17.5 20.5t16.5 21.5q20 92 30 149q-14 4 -27 10l-32 16q-16 7 -34 7q-43 0 -75 -25.5t-49 -65
t-17 -79.5q0 -50 23.5 -76.5t56.5 -26.5v0zM368 583q-34 0 -58 19.5t-24 49.5q0 42 31.5 71t76.5 29q34 0 52.5 -22t18.5 -51q0 -39 -27.5 -67.5t-69.5 -28.5v0z" />
    <glyph glyph-name="uni0122" unicode="&#x122;" horiz-adv-x="734" 
d="M598 115q-60 -58 -129.5 -87.5t-133.5 -29t-121 22.5t-98.5 67t-59.5 104q-22 73 -6 152.5t59 145.5q42 67 105 119q64 54 135 82q73 29 152 26t144 -47q18 -10 30.5 -22.5t23.5 -27.5t16 -23.5t15 -27.5t13 -24q12 -23 2 -51.5t-36.5 -45.5t-53.5 -13t-40 27l-15 26
l-11 22q-3 6 -9.5 15t-13 14.5t-15.5 12.5q-63 36 -130 24.5t-128 -63.5q-64 -52 -91.5 -120.5t-9.5 -136.5q19 -65 74 -96t122.5 -19.5t121.5 63.5q25 23 31 37q3 7 5 13q-28 1 -110 -3q-29 -1 -46 18t-12 48t28.5 50t52.5 22q82 3 184 3q29 0 45 -21q18 -21 10 -52l-5 -23
q-4 -24 -10.5 -47.5t-14.5 -41.5q-21 -45 -70 -92v0zM222 -293q-15 0 -26.5 11t-11.5 26q0 12 6 22t20 24q27 28 34 38q-18 8 -26.5 24.5t-8.5 34.5q0 32 24.5 54t55.5 22q33 0 54 -20.5t21 -50.5q0 -35 -21.5 -73t-51.5 -69q-26 -27 -39.5 -35t-29.5 -8v0z" />
    <glyph glyph-name="uni0123" unicode="&#x123;" horiz-adv-x="572" 
d="M196 -206q-116 0 -165 54q-18 20 -25.5 33.5t-8.5 37.5q-1 27 17 51.5t50 24.5q22 0 37 -8t25 -27q14 -25 31 -35.5t47 -10.5q47 0 84.5 40.5t60.5 102.5q-38 -33 -70 -46.5t-74 -12.5q-45 2 -84.5 28t-63 72.5t-23.5 106.5q0 86 38.5 160.5t107.5 119.5t155 45
q29 0 56 -8.5t45 -21.5q12 14 29.5 21.5t36.5 7.5q26 0 42 -18t12 -45q-18 -112 -70 -348l-9 -40q-18 -84 -63.5 -149t-103.5 -100t-114 -35v0zM249 127q41 0 90 49q9 9 17.5 20.5t16.5 21.5q20 92 30 149q-14 4 -27 10l-32 16q-16 7 -34 7q-43 0 -75 -25.5t-49 -65
t-17 -79.5q0 -50 23.5 -76.5t56.5 -26.5v0zM369 572q-39 0 -62 20.5t-23 56.5q0 66 90 156q22 21 37 29.5t31 7.5q18 -1 28 -12t10 -28q0 -16 -8 -27t-23 -26q-9 -8 -17.5 -18t-15.5 -21q19 -8 30 -22.5t11 -32.5q0 -36 -25 -59.5t-63 -23.5v0z" />
    <glyph glyph-name="Hcircumflex" unicode="&#x124;" horiz-adv-x="742" 
d="M178 69q-6 -28 -31 -48.5t-53.5 -20.5t-45 21t-10.5 61q18 66 58 269.5t63 298.5q7 29 32 48.5t54 19t44 -21.5t9 -50q-18 -76 -42 -194q206 6 312 6q24 112 41 191q8 29 32.5 49t53.5 19.5t44.5 -21t9.5 -49.5q-15 -65 -124 -578q-6 -29 -31 -49.5t-54 -20.5t-45 20.5
t-10 49.5l54 253q-104 1 -311 -6q-33 -166 -50 -247v0zM371 760q-21 0 -36 14t-15 35q0 18 9.5 31.5t28.5 27.5l87 62q19 13 34 19t30 6q27 0 51 -27l56 -61q12 -13 19 -25.5t7 -21.5q0 -25 -18 -42.5t-41 -17.5q-12 0 -20 5t-18 15l-50 52l-73 -50q-32 -22 -51 -22v0z" />
    <glyph glyph-name="hcircumflex" unicode="&#x125;" horiz-adv-x="557" 
d="M77 -1q-30 0 -45 18t-10 51q10 46 17 88q13 69 39 194q20 95 36 179q9 51 26 130q6 30 30 49.5t55 19.5q30 0 45 -17t10 -45q-13 -63 -26 -140l-9 -46q26 23 57 36.5t73 13.5q68 0 108 -37.5t40 -96.5q0 -64 -16 -133q-8 -39 -19 -88t-26 -100q-12 -39 -32.5 -57.5
t-52.5 -18.5q-34 0 -48.5 20.5t-7.5 47.5l27 105l19 71q17 74 17 109q0 20 -15 33t-43 13q-30 0 -59.5 -12t-47.5 -33q-29 -150 -30 -153l-27 -132q-6 -32 -31 -50.5t-54 -18.5v0zM108 760q-21 0 -36 14t-15 35q0 18 9.5 31.5t28.5 27.5l87 62q19 13 34 19t30 6q27 0 51 -27
l56 -61q12 -13 19 -25.5t7 -21.5q0 -25 -18 -42.5t-41 -17.5q-12 0 -20 5t-18 15l-50 52l-73 -50q-32 -22 -51 -22v0z" />
    <glyph glyph-name="Hbar" unicode="&#x126;" horiz-adv-x="753" 
d="M723 502q-59 0 -135 3q-43 1 -85 2t-81 1l-283 -1q-29 0 -44 13.5t-15 39.5q0 29 23.5 49.5t58.5 20.5h292q192 0 297 -5q24 -2 38 -15.5t14 -36.5q0 -30 -23.5 -50.5t-56.5 -20.5v0zM182 69q-6 -28 -31 -48.5t-53.5 -20.5t-45 21t-10.5 61q18 66 58 269.5t63 298.5
q7 29 32 48.5t54 19t44 -21.5t9 -50q-18 -76 -42 -194q206 6 312 6q24 112 41 191q8 29 32.5 49t53.5 19.5t44.5 -21t9.5 -49.5q-15 -65 -124 -578q-6 -29 -31 -49.5t-54 -20.5t-45 20.5t-10 49.5l54 253q-104 1 -311 -6q-33 -166 -50 -247v0v0z" />
    <glyph glyph-name="hbar" unicode="&#x127;" horiz-adv-x="547" 
d="M100 560q-22 0 -36 12.5t-14 34.5t19 39.5t49 18.5l247 4q22 1 36 -12t14 -32q0 -26 -19 -43t-51 -18l-245 -4v0zM77 -1q-30 0 -45 18t-10 51q10 46 17 88q13 69 39 194q20 95 36 179q9 51 26 130q6 30 30 49.5t55 19.5q30 0 45 -17t10 -45q-13 -63 -26 -140l-9 -46
q26 23 57 36.5t73 13.5q68 0 108 -37.5t40 -96.5q0 -64 -16 -133q-8 -39 -19 -88t-26 -100q-12 -39 -32.5 -57.5t-52.5 -18.5q-34 0 -48.5 20.5t-7.5 47.5l27 105l19 71q17 74 17 109q0 20 -15 33t-43 13q-30 0 -59.5 -12t-47.5 -33q-29 -150 -30 -153l-27 -132
q-6 -32 -31 -50.5t-54 -18.5v0v0z" />
    <glyph glyph-name="Itilde" unicode="&#x128;" horiz-adv-x="291" 
d="M173 65q-6 -29 -31 -49t-54 -20t-44.5 21t-9.5 50q21 94 62 288.5t62 289.5q6 29 31 49t54 20t44.5 -21t9.5 -50q-20 -94 -61 -288.5t-63 -289.5v0zM90 767q-16 0 -28 11t-12 29q0 26 25 57.5t61.5 53.5t69.5 22q29 0 49 -8.5t42 -24.5q18 -12 29.5 -17.5t26.5 -5.5
q14 0 23 6t21 20q14 16 25 23.5t30 7.5t30 -12.5t10 -32.5q-1 -22 -26.5 -53t-60.5 -53t-63 -22q-30 0 -49.5 9t-42.5 25q-17 13 -29 18.5t-27 5.5t-24.5 -6.5t-22.5 -21.5q-14 -15 -26 -23t-31 -8v0z" />
    <glyph glyph-name="itilde" unicode="&#x129;" horiz-adv-x="254" 
d="M252 593q-16 0 -28 5.5t-30 16.5q-13 9 -22.5 13t-18.5 4q-12 0 -21 -3.5t-19 -11.5q-20 -17 -42 -17q-17 0 -27.5 10.5t-10.5 28.5q0 26 28 53q60 54 106 54q18 0 32.5 -6t31.5 -17q10 -6 21 -11t20 -5q11 0 18 5t20 18q16 16 36 16q15 0 26 -10.5t11 -24.5
q0 -16 -8 -31t-28 -34q-55 -53 -95 -53v0zM79 -1q-28 0 -44 16.5t-16 47.5q0 16 9 63.5t19 93.5l6 31q25 126 44 209q8 33 32 51.5t52 18.5q24 0 40.5 -14t16.5 -40q0 -12 -13 -75l-15 -69q-21 -105 -28 -145q-6 -27 -13 -75l-7 -39q-6 -33 -28.5 -53.5t-54.5 -20.5v0v0z
" />
    <glyph glyph-name="Imacron" unicode="&#x12a;" horiz-adv-x="291" 
d="M173 65q-6 -29 -31 -49t-54 -20t-44.5 21t-9.5 50q21 94 62 288.5t62 289.5q6 29 31 49t54 20t44.5 -21t9.5 -50q-20 -94 -61 -288.5t-63 -289.5v0zM183 793q-19 0 -45 3q-28 -1 -47.5 14t-20.5 42.5t17.5 42.5t46.5 16q54 -3 121.5 -1t129.5 2q28 0 46.5 -13t19 -40.5
t-17.5 -43.5t-46 -18q-63 -4 -115 -4h-89v0z" />
    <glyph glyph-name="imacron" unicode="&#x12b;" horiz-adv-x="254" 
d="M170 612q-22 1 -52 5q-26 3 -40 18t-13 40q0 28 21 50.5t57 21.5l36 -1q30 -2 45 -2h37q26 2 39 1q28 0 43.5 -15.5t14.5 -39.5q0 -31 -24 -52t-55 -23q-29 -3 -82 -3h-27zM79 -1q-28 0 -44 16.5t-16 47.5q0 16 9 63.5t19 93.5l6 31q25 126 44 209q8 33 32 51.5t52 18.5
q24 0 40.5 -14t16.5 -40q0 -12 -13 -75l-15 -69q-21 -105 -28 -145q-6 -27 -13 -75l-7 -39q-6 -33 -28.5 -53.5t-54.5 -20.5v0v0z" />
    <glyph glyph-name="Ibreve" unicode="&#x12c;" horiz-adv-x="291" 
d="M173 65q-6 -29 -31 -49t-54 -20t-44.5 21t-9.5 50q21 94 62 288.5t62 289.5q6 29 31 49t54 20t44.5 -21t9.5 -50q-20 -94 -61 -288.5t-63 -289.5v0zM255 762q-33 0 -66 17t-54.5 45.5t-21.5 61.5t23 55.5t51 22.5q20 0 30 -9t11 -12.5t7 -30.5q4 -15 16.5 -23.5
t27.5 -8.5q35 0 60 28q9 11 18 23t21 19t31 7q23 0 35 -16t9 -38q-5 -34 -35.5 -67t-74.5 -53.5t-88 -20.5v0z" />
    <glyph glyph-name="ibreve" unicode="&#x12d;" horiz-adv-x="254" 
d="M205 585q-37 0 -69.5 16t-52 43.5t-19.5 60.5q0 34 20 56.5t47 22.5q38 0 43 -43q2 -20 13 -31t31 -11t33 10t27 31q13 22 28 32.5t34 10.5q20 0 32 -12.5t12 -31.5q0 -34 -27 -70.5t-68.5 -60t-83.5 -23.5v0zM79 -1q-28 0 -44 16.5t-16 47.5q0 16 9 63.5t19 93.5l6 31
q25 126 44 209q8 33 32 51.5t52 18.5q24 0 40.5 -14t16.5 -40q0 -12 -13 -75l-15 -69q-21 -105 -28 -145q-6 -27 -13 -75l-7 -39q-6 -33 -28.5 -53.5t-54.5 -20.5v0z" />
    <glyph glyph-name="Iogonek" unicode="&#x12e;" horiz-adv-x="291" 
d="M28 -207q-53 0 -85.5 30t-32.5 77q0 53 39.5 95.5t90 67t73.5 24.5q20 0 33.5 -10t13.5 -28q0 -28 -31 -43q-10 -5 -28 -11q-30 -10 -49 -22q-20 -12 -30 -25t-10 -30q0 -16 11.5 -25t27.5 -9q11 0 19 4t19 12q13 9 22 13t22 4q16 0 26.5 -10.5t10.5 -25.5
q0 -24 -19.5 -44t-52.5 -32t-70 -12v0zM173 65q-6 -29 -31 -49t-54 -20t-44.5 21t-9.5 50q21 94 62 288.5t62 289.5q6 29 31 49t54 20t44.5 -21t9.5 -50q-20 -94 -61 -288.5t-63 -289.5v0z" />
    <glyph glyph-name="iogonek" unicode="&#x12f;" horiz-adv-x="254" 
d="M20 -198q-52 0 -83.5 29t-31.5 75q0 51 38.5 92.5t87.5 65.5t71 24q20 0 33 -10t13 -27q0 -27 -30 -42q-10 -5 -27 -11q-30 -9 -48 -21q-19 -12 -29 -24.5t-10 -28.5t11.5 -24.5t26.5 -8.5q11 0 18.5 3.5t18.5 11.5q13 9 21.5 13t21.5 4q15 0 25.5 -10.5t10.5 -24.5
q0 -24 -19 -43.5t-51 -31t-68 -11.5v0zM79 -1q-28 0 -44 16.5t-16 47.5q0 16 9 63.5t19 93.5l6 31q25 126 44 209q8 33 32 51.5t52 18.5q24 0 40.5 -14t16.5 -40q0 -12 -13 -75l-15 -69q-21 -105 -28 -145q-6 -27 -13 -75l-7 -39q-6 -33 -28.5 -53.5t-54.5 -20.5v0v0z
M208 583q-34 0 -58 19.5t-24 49.5q0 42 31.5 71t76.5 29q34 0 52.5 -22t18.5 -51q0 -39 -27.5 -67.5t-69.5 -28.5v0z" />
    <glyph glyph-name="Idotaccent" unicode="&#x130;" horiz-adv-x="291" 
d="M173 65q-6 -29 -31 -49t-54 -20t-44.5 21t-9.5 50q21 94 62 288.5t62 289.5q6 29 31 49t54 20t44.5 -21t9.5 -50q-20 -94 -61 -288.5t-63 -289.5v0zM269 784q-32 0 -55 18.5t-23 47.5q0 40 30 67.5t73 27.5q33 0 50.5 -21t17.5 -48q0 -38 -26.5 -65t-66.5 -27v0v0z" />
    <glyph glyph-name="dotlessi" unicode="&#x131;" horiz-adv-x="254" 
d="M79 -1q-28 0 -44 16.5t-16 47.5q0 16 9 63.5t19 93.5l6 31q25 126 44 209q8 33 32 51.5t52 18.5q24 0 40.5 -14t16.5 -40q0 -12 -13 -75l-15 -69q-21 -105 -28 -145q-6 -27 -13 -75l-7 -39q-6 -33 -28.5 -53.5t-54.5 -20.5v0z" />
    <glyph glyph-name="IJ" unicode="&#x132;" horiz-adv-x="871" 
d="M59 -3q-29 0 -46 19.5t-12 48.5q6 26 27 46.5t46 24.5q38 174 93 441q-23 5 -35 24t-6 45q6 29 31 49t54 20l113 -1q29 0 44.5 -21t9.5 -50q-5 -25 -25.5 -44t-46.5 -24q-53 -263 -91 -436q24 -4 36.5 -23t8.5 -44q-6 -29 -30 -50t-53 -22l-118 -3v0zM543 13
q-42 -14 -79.5 -14t-71 21.5t-52.5 61.5q-12 25 -13 64q0 1 -1 24q0 11 -1 17q-3 28 15.5 53.5t48 34.5t52 -4t26.5 -40q1 -12 2 -28q-1 -1 0 -9v-13q1 -16 4 -21q13 -30 46 -18q21 8 42 26.5t32 40.5q21 42 36 85t25.5 96.5t15 83t15.5 104.5q-21 -1 -49.5 -2t-46 19
t-12.5 48.5t29.5 50t53.5 22.5q155 5 251 0q28 -2 42.5 -23.5t7 -50.5t-33 -48t-54.5 -18q-24 2 -48 2q-12 -88 -21 -139.5t-30 -122.5q-24 -82 -55 -145q-26 -53 -74 -96t-102 -62v0z" />
    <glyph glyph-name="ij" unicode="&#x133;" horiz-adv-x="494" 
d="M9 68q42 212 87 397q8 29 33.5 48.5t54 18.5t43.5 -22.5t8 -50.5q-46 -187 -86 -389q-6 -29 -30 -49.5t-53.5 -21t-45.5 19.5t-11 49v0zM260 699q17 -20 10.5 -49t-31 -49.5t-53.5 -20.5t-45.5 20.5t-10 49.5t31.5 49.5t54 20.5t44 -21v0zM159 -221q-29 0 -47.5 15.5
t-18.5 43.5t17.5 51.5t51.5 30.5q34 8 52 23.5t26 41.5q14 48 37 152l23 126l23 133l11 64q6 35 30.5 53t53.5 18q24 0 41 -14t17 -39q0 -20 -11 -86l-6 -34q-14 -84 -44 -223q-39 -182 -70 -247q-23 -48 -76.5 -78.5t-109.5 -30.5v0zM416 580q-22 0 -38.5 16t-16.5 40
q0 32 25.5 59.5t61.5 27.5q24 0 40.5 -16.5t16.5 -41.5q0 -33 -25 -59t-64 -26v0z" />
    <glyph glyph-name="Jcircumflex" unicode="&#x134;" horiz-adv-x="541" 
d="M166 -10q-50 0 -89.5 22.5t-61.5 61t-22 85.5q0 19 4.5 47t12.5 54q11 36 33.5 55t50.5 19t46 -17t12 -47q-4 -18 -7 -27q-9 -34 -9 -60q0 -30 16 -45.5t42 -15.5q65 0 110 94q14 30 27 71t32 107q18 64 42 187l7 35q9 50 29 75t55 25q34 0 48.5 -23t9.5 -61
q-10 -67 -45 -209l-8 -34q-14 -56 -29 -103t-39 -107q-20 -49 -59.5 -92.5t-93.5 -70t-114 -26.5v0zM396 760q-21 0 -36 14t-15 35q0 18 9.5 31.5t28.5 27.5l87 62q19 13 34 19t30 6q27 0 51 -27l56 -61q12 -13 19 -25.5t7 -21.5q0 -25 -18 -42.5t-41 -17.5q-12 0 -20 5
t-18 15l-50 52l-73 -50q-32 -22 -51 -22v0z" />
    <glyph glyph-name="jcircumflex" unicode="&#x135;" horiz-adv-x="253" 
d="M88 581q-20 0 -33.5 14t-12.5 35q0 18 9.5 31.5t27.5 27.5l85 62q18 13 32.5 19t28.5 6q25 0 47 -27l51 -61q11 -13 17 -25.5t6 -21.5q-1 -25 -18.5 -42.5t-39.5 -17.5q-11 0 -18.5 5t-16.5 15l-46 52l-70 -50q-31 -22 -49 -22v0zM-82 -221q-29 0 -47.5 15.5t-18.5 43.5
t17.5 51.5t51.5 30.5q34 8 52 23.5t26 41.5q14 48 37 152l23 126l23 133l11 64q6 35 30.5 53t53.5 18q24 0 41 -14t17 -39q0 -20 -11 -86l-6 -34q-14 -84 -44 -223q-39 -182 -70 -247q-23 -48 -76.5 -78.5t-109.5 -30.5v0z" />
    <glyph glyph-name="uni0136" unicode="&#x136;" horiz-adv-x="679" 
d="M314 309l-98 -69q-15 -81 -31 -175q-5 -28 -29 -49.5t-52.5 -23t-46 18t-13.5 48.5q51 308 117 600q7 29 31.5 49t53.5 19.5t44.5 -21t9.5 -49.5q-29 -127 -51 -239q186 134 352 285q24 21 53 22t46 -19t12 -48.5t-29 -50.5q-122 -112 -244 -205l167 -296q13 -22 3 -51
q-9 -29 -35.5 -47t-54.5 -14.5t-41 26.5zM226 -293q-15 0 -26.5 11t-11.5 26q0 12 6 22t20 24q27 28 34 38q-18 8 -26.5 24.5t-8.5 34.5q0 32 24.5 54t55.5 22q33 0 54 -20.5t21 -50.5q0 -35 -21.5 -73t-51.5 -69q-26 -27 -39.5 -35t-29.5 -8v0z" />
    <glyph glyph-name="uni0137" unicode="&#x137;" horiz-adv-x="524" 
d="M338 20q-65 85 -104 169l-48 -38q-3 -1 -5 -3l-17 -81q-7 -29 -32 -49t-54 -19.5t-44.5 21t-9.5 49.5q41 180 113 576q5 29 29 50t53 22.5t46 -18t13 -48.5q-31 -175 -57 -312q94 76 199 168q25 21 53.5 22t46 -19t12.5 -48.5t-30 -50.5l-145 -122q37 -89 101 -173
q16 -20 9.5 -49t-31.5 -49t-54 -19.5t-44 21.5v0zM117 -293q-15 0 -26.5 11t-11.5 26q0 12 6 22t20 24q27 28 34 38q-18 8 -26.5 24.5t-8.5 34.5q0 32 24.5 54t55.5 22q33 0 54 -20.5t21 -50.5q0 -35 -21.5 -73t-51.5 -69q-26 -27 -39.5 -35t-29.5 -8v0z" />
    <glyph glyph-name="kgreenlandic" unicode="&#x138;" horiz-adv-x="502" 
d="M295 62l-75 155l-45 -38q-17 -74 -28 -118q-7 -29 -31.5 -49t-53.5 -19.5t-44.5 21t-9.5 49.5q15 61 46 202.5t45 202.5q7 29 32 49t53.5 19.5t44.5 -21t10 -49.5q-9 -34 -21 -88l163 135q25 21 53.5 21t45 -20.5t10.5 -49t-30 -49.5l-119 -98l108 -204q14 -22 6.5 -51
t-33.5 -48t-54.5 -17.5t-42.5 22.5z" />
    <glyph glyph-name="Lacute" unicode="&#x139;" horiz-adv-x="576" 
d="M102 -1q-30 0 -48 24t-12 52l58 289l57 281q7 33 30.5 51.5t51.5 18.5q25 0 42 -14t17 -40q0 -9 -1 -14l-53 -262l-50 -254l277 2q27 0 43 -16t17 -37q0 -33 -25 -57t-61 -24h-128q-151 -2 -215 0v0zM238 759q-26 0 -41.5 16.5t-15.5 39.5q0 18 9 32.5t23 24.5l117 77
q15 10 26.5 14.5t24.5 4.5q25 0 42 -17.5t17 -41.5q0 -18 -10 -35t-27 -28l-119 -71q-26 -16 -46 -16v0z" />
    <glyph glyph-name="lacute" unicode="&#x13a;" horiz-adv-x="251" 
d="M154 67q-7 -29 -32 -49t-54 -19.5t-44.5 21t-9.5 49.5q42 191 61 281l62 296q6 29 31 49.5t54 20.5t45 -20.5t10 -49.5q-17 -80 -41 -194t-43.5 -207t-38.5 -178v0zM219 759q-26 0 -41.5 16.5t-15.5 39.5q0 18 9 32.5t23 24.5l117 77q15 10 26.5 14.5t24.5 4.5
q25 0 42 -17.5t17 -41.5q0 -18 -10 -35t-27 -28l-119 -71q-26 -16 -46 -16v0z" />
    <glyph glyph-name="uni013B" unicode="&#x13b;" horiz-adv-x="576" 
d="M102 -1q-30 0 -48 24t-12 52l58 289l57 281q7 33 30.5 51.5t51.5 18.5q25 0 42 -14t17 -40q0 -9 -1 -14l-53 -262l-50 -254l277 2q27 0 43 -16t17 -37q0 -33 -25 -57t-61 -24h-128q-151 -2 -215 0v0zM206 -293q-15 0 -26.5 11t-11.5 26q0 12 6 22t20 24q27 28 34 38
q-18 8 -26.5 24.5t-8.5 34.5q0 32 24.5 54t55.5 22q33 0 54 -20.5t21 -50.5q0 -35 -21.5 -73t-51.5 -69q-26 -27 -39.5 -35t-29.5 -8v0z" />
    <glyph glyph-name="uni013C" unicode="&#x13c;" horiz-adv-x="251" 
d="M154 67q-7 -29 -32 -49t-54 -19.5t-44.5 21t-9.5 49.5q42 191 61 281l62 296q6 29 31 49.5t54 20.5t45 -20.5t10 -49.5q-17 -80 -41 -194t-43.5 -207t-38.5 -178v0zM-19 -293q-15 0 -26.5 11t-11.5 26q0 12 6 22t20 24q27 28 34 38q-18 8 -26.5 24.5t-8.5 34.5
q0 32 24.5 54t55.5 22q33 0 54 -20.5t21 -50.5q0 -35 -21.5 -73t-51.5 -69q-26 -27 -39.5 -35t-29.5 -8v0z" />
    <glyph glyph-name="Lcaron" unicode="&#x13d;" horiz-adv-x="576" 
d="M102 -1q-30 0 -48 24t-12 52l58 289l57 281q7 33 30.5 51.5t51.5 18.5q25 0 42 -14t17 -40q0 -9 -1 -14l-53 -262l-50 -254l277 2q27 0 43 -16t17 -37q0 -33 -25 -57t-61 -24h-128q-151 -2 -215 0v0zM493 439q-22 0 -37.5 14.5t-15.5 35.5q0 8 4.5 18t9.5 21q11 20 17 37
q9 27 9 78q0 31 19.5 51.5t47.5 20.5q29 0 42.5 -18.5t13.5 -45.5q0 -49 -10.5 -87.5t-31.5 -77.5q-12 -22 -30 -34.5t-38 -12.5v0z" />
    <glyph glyph-name="lcaron" unicode="&#x13e;" horiz-adv-x="390" 
d="M154 67q-7 -29 -32 -49t-54 -19.5t-44.5 21t-9.5 49.5q42 191 61 281l62 296q6 29 31 49.5t54 20.5t45 -20.5t10 -49.5q-17 -80 -41 -194t-43.5 -207t-38.5 -178v0zM366 439q-22 0 -37.5 14.5t-15.5 35.5q0 8 4.5 18t9.5 21q11 20 17 37q9 27 9 78q0 31 19.5 51.5
t47.5 20.5q29 0 42.5 -18.5t13.5 -45.5q0 -49 -10.5 -87.5t-31.5 -77.5q-12 -22 -30 -34.5t-38 -12.5v0z" />
    <glyph glyph-name="Ldot" unicode="&#x13f;" horiz-adv-x="576" 
d="M102 -1q-30 0 -48 24t-12 52l58 289l57 281q7 33 30.5 51.5t51.5 18.5q25 0 42 -14t17 -40q0 -9 -1 -14l-53 -262l-50 -254l277 2q27 0 43 -16t17 -37q0 -33 -25 -57t-61 -24h-128q-151 -2 -215 0v0zM462 415q16 -20 10 -49t-31 -49.5t-54 -20.5t-45 20.5t-10 49.5
t31 49.5t54 20.5t45 -21v0z" />
    <glyph glyph-name="ldot" unicode="&#x140;" horiz-adv-x="414" 
d="M154 67q-7 -29 -32 -49t-54 -19.5t-44.5 21t-9.5 49.5q42 191 61 281l62 296q6 29 31 49.5t54 20.5t45 -20.5t10 -49.5q-17 -80 -41 -194t-43.5 -207t-38.5 -178v0zM416 429q16 -20 10 -49t-31 -49.5t-54 -20.5t-45 20.5t-10 49.5t31 49.5t54 20.5t45 -21v0z" />
    <glyph glyph-name="Lslash" unicode="&#x141;" horiz-adv-x="576" 
d="M24 232q-21 0 -35 15.5t-14 36.5q0 35 34 55q6 4 186 96q40 21 71 37t46 24q28 15 49 15q20 0 33.5 -14.5t13.5 -34.5q0 -37 -36 -57q-21 -12 -129 -66q-139 -68 -179 -94q-20 -13 -40 -13v0zM102 -1q-30 0 -48 24t-12 52l58 289l57 281q7 33 30.5 51.5t51.5 18.5
q25 0 42 -14t17 -40q0 -9 -1 -14l-53 -262l-50 -254l277 2q27 0 43 -16t17 -37q0 -33 -25 -57t-61 -24h-128q-151 -2 -215 0v0v0z" />
    <glyph glyph-name="lslash" unicode="&#x142;" horiz-adv-x="371" 
d="M64 224q-23 0 -38.5 15t-15.5 39q0 50 50 77l200 110q42 23 59.5 31t33.5 8q22 0 37 -16t15 -37q0 -24 -13 -44.5t-37 -33.5l-218 -118q-21 -12 -40.5 -21.5t-32.5 -9.5v0zM215 67q-7 -29 -32 -49t-54 -19.5t-44.5 21t-9.5 49.5q42 191 61 281l62 296q6 29 31 49.5
t54 20.5t45 -20.5t10 -49.5q-17 -80 -41 -194t-43.5 -207t-38.5 -178v0v0z" />
    <glyph glyph-name="Nacute" unicode="&#x143;" horiz-adv-x="751" 
d="M551 4q-40 -7 -60 24q-50 79 -119 234q-77 157 -112 213q-7 -40 -32 -177.5t-45 -228.5q-6 -29 -31 -49.5t-54 -20.5t-45 20.5t-10 49.5q19 88 55 284.5t62 297.5q7 29 32.5 49t53.5 19q14 -1 26 -6q18 -6 28 -22q13 -21 41.5 -66.5t42.5 -68.5q43 -58 120 -214l34 -69
q52 232 81 377q6 29 30.5 49.5t53.5 21t45 -19.5t11 -49q-28 -136 -126 -579q-7 -28 -30 -47.5t-52 -21.5v0zM475 759q-26 0 -41.5 16.5t-15.5 39.5q0 18 9 32.5t23 24.5l117 77q15 10 26.5 14.5t24.5 4.5q25 0 42 -17.5t17 -41.5q0 -18 -10 -35t-27 -28l-119 -71
q-26 -16 -46 -16v0z" />
    <glyph glyph-name="nacute" unicode="&#x144;" horiz-adv-x="559" 
d="M381 -2q-33 0 -47.5 21t-7.5 48l15 60q16 62 20 80q21 88 21 128q0 30 -18.5 47t-50.5 17q-29 0 -54.5 -12.5t-43.5 -32.5l-16 -85q-37 -189 -39 -199q-9 -33 -31 -51t-50 -18q-34 0 -48.5 23t-7.5 57q55 254 71 374q5 37 24 56t50 19q25 0 42 -18t14 -45q64 62 143 62
q68 0 109.5 -44t41.5 -113q0 -71 -22 -164q-2 -8 -23 -96l-10 -39q-9 -37 -31 -56t-51 -19v0zM341 570q-28 -2 -46 17.5t-14 48t29 50.5l96 86q25 23 53 24t46 -18t14 -47.5t-29 -50.5l-96 -86q-25 -22 -53 -24v0z" />
    <glyph glyph-name="uni0145" unicode="&#x145;" horiz-adv-x="759" 
d="M488 -3q-61 7 -78 77q-3 13 -5 24l-3 14q0 4 -2 8q-13 27 -47.5 87.5t-49.5 93.5q-16 33 -40 102l-9 23l-5 -26q-28 -114 -28 -117q-22 -93 -46 -215q-6 -29 -30.5 -50t-53.5 -21t-46 20t-10 49q25 125 46 219q1 2 28 119q33 139 37 155q10 38 16 59q4 14 6.5 22t6.5 14
q3 8 9 15q22 30 56 36q78 15 104 -66q2 -9 10 -36q3 -15 6 -19q16 -34 39 -112q24 -69 35 -91l25 -48l31 -55q16 -30 25 -47q2 10 4 26q14 95 20 122q11 45 17 69t14.5 50.5t12 35.5t20.5 53t26 70q11 29 38.5 45.5t55 11.5t39 -29t0.5 -52l-28 -75l-18 -44q-3 -8 -10.5 -32
t-12 -43.5t-15.5 -63.5q-5 -20 -18 -108q-11 -82 -31 -131q0 -1 -7 -23q-8 -21 -15 -36l-7 -14q-4 -7 -15.5 -21.5t-24 -24.5t-32 -16.5t-40.5 -3.5v0zM314 -213q-15 -24 -43.5 -34.5t-54 -1.5t-32 32.5t9.5 47.5q13 21 30 44l-24 20q-17 18 -13 43t27.5 44.5t52 20.5
t47.5 -16q4 -4 37 -33q31 -27 27 -59q-2 -23 -28 -57q-21 -28 -36 -51v0z" />
    <glyph glyph-name="uni0146" unicode="&#x146;" horiz-adv-x="559" 
d="M381 -2q-33 0 -47.5 21t-7.5 48l15 60q16 62 20 80q21 88 21 128q0 30 -18.5 47t-50.5 17q-29 0 -54.5 -12.5t-43.5 -32.5l-16 -85q-37 -189 -39 -199q-9 -33 -31 -51t-50 -18q-34 0 -48.5 23t-7.5 57q55 254 71 374q5 37 24 56t50 19q25 0 42 -18t14 -45q64 62 143 62
q68 0 109.5 -44t41.5 -113q0 -71 -22 -164q-2 -8 -23 -96l-10 -39q-9 -37 -31 -56t-51 -19v0zM131 -293q-15 0 -26.5 11t-11.5 26q0 12 6 22t20 24q27 28 34 38q-18 8 -26.5 24.5t-8.5 34.5q0 32 24.5 54t55.5 22q33 0 54 -20.5t21 -50.5q0 -35 -21.5 -73t-51.5 -69
q-26 -27 -39.5 -35t-29.5 -8v0z" />
    <glyph glyph-name="Ncaron" unicode="&#x147;" horiz-adv-x="751" 
d="M551 4q-40 -7 -60 24q-50 79 -119 234q-77 157 -112 213q-7 -40 -32 -177.5t-45 -228.5q-6 -29 -31 -49.5t-54 -20.5t-45 20.5t-10 49.5q19 88 55 284.5t62 297.5q7 29 32.5 49t53.5 19q14 -1 26 -6q18 -6 28 -22q13 -21 41.5 -66.5t42.5 -68.5q43 -58 120 -214l34 -69
q52 232 81 377q6 29 30.5 49.5t53.5 21t45 -19.5t11 -49q-28 -136 -126 -579q-7 -28 -30 -47.5t-52 -21.5v0zM490 765q-26 0 -50 27l-55 61q-12 13 -19 25.5t-7 21.5q0 24 17 41.5t43 17.5q11 0 22 -5.5t18 -13.5l50 -57l81 62q20 15 40 15q21 0 36 -14t15 -35
q0 -18 -9.5 -31t-28.5 -27l-99 -67q-16 -11 -28 -16t-26 -5v0z" />
    <glyph glyph-name="ncaron" unicode="&#x148;" horiz-adv-x="559" 
d="M381 -2q-33 0 -47.5 21t-7.5 48l15 60q16 62 20 80q21 88 21 128q0 30 -18.5 47t-50.5 17q-29 0 -54.5 -12.5t-43.5 -32.5l-16 -85q-37 -189 -39 -199q-9 -33 -31 -51t-50 -18q-34 0 -48.5 23t-7.5 57q55 254 71 374q5 37 24 56t50 19q25 0 42 -18t14 -45q64 62 143 62
q68 0 109.5 -44t41.5 -113q0 -71 -22 -164q-2 -8 -23 -96l-10 -39q-9 -37 -31 -56t-51 -19v0zM344 581q-26 0 -50 27l-55 61q-12 13 -19 25.5t-7 21.5q0 24 17 41.5t43 17.5q11 0 22 -5.5t18 -13.5l50 -57l81 62q20 15 40 15q21 0 36 -14t15 -35q0 -18 -9.5 -31t-28.5 -27
l-99 -67q-16 -11 -28 -16t-26 -5v0z" />
    <glyph glyph-name="napostrophe" unicode="&#x149;" horiz-adv-x="628" 
d="M450 -2q-33 0 -47.5 21t-7.5 48l15 60q16 62 20 80q21 88 21 128q0 30 -18.5 47t-50.5 17q-29 0 -54.5 -12.5t-43.5 -32.5l-16 -85q-37 -189 -39 -199q-9 -33 -31 -51t-50 -18q-34 0 -48.5 23t-7.5 57q55 254 71 374q5 37 24 56t50 19q25 0 42 -18t14 -45q64 62 143 62
q68 0 109.5 -44t41.5 -113q0 -71 -22 -164q-2 -8 -23 -96l-10 -39q-9 -37 -31 -56t-51 -19v0zM115 542q-16 0 -25.5 10.5t-9.5 25.5q0 22 21 41q16 16 48 54q-18 3 -29 15t-11 33q0 34 26 57.5t61 23.5q32 0 50 -18t18 -50q0 -38 -31 -86.5t-63 -76.5q-33 -29 -55 -29v0z
" />
    <glyph glyph-name="Eng" unicode="&#x14a;" horiz-adv-x="755" 
d="M406 -254q-24 0 -41.5 16t-17.5 40q0 26 21 51l65 71q29 32 39 52q5 6 6 12q-11 8 -15 17l-69 151q-56 118 -88 196l-55 132q-14 -92 -27 -157q-6 -30 -29 -170l-15 -86q-7 -34 -31.5 -52.5t-52.5 -18.5q-25 0 -41.5 14t-16.5 39q0 9 19 118.5t33 182.5q11 58 30 148
t33 139q11 42 40 64t61 22q47 0 79 -70l51 -124q44 -107 45 -109q24 -63 78 -182l19 -44l16 77q18 95 33 161l48 220q7 32 30 50.5t54 18.5q27 0 43.5 -22.5t11.5 -48.5q-11 -57 -53 -240q-38 -166 -58 -285q-11 -65 -25.5 -117t-28.5 -78q-24 -48 -67 -91q-32 -32 -59 -64
q-29 -33 -65 -33v0z" />
    <glyph glyph-name="eng" unicode="&#x14b;" horiz-adv-x="559" 
d="M221 -230q-27 1 -41.5 16t-14.5 39q0 22 13.5 41t45.5 39q44 28 66 60t40 94q16 55 34 146.5t18 126.5q0 66 -75 66q-36 0 -62 -23t-35 -63q-7 -28 -29 -140q-12 -65 -21 -102q-9 -33 -31 -51t-50 -18q-34 0 -48.5 23t-7.5 57q16 70 38 182t32 184q5 37 22.5 56t46.5 19
q23 0 38.5 -17t12.5 -45q32 35 67.5 52t77.5 17q70 0 114.5 -47t44.5 -122q0 -60 -23 -168t-46 -179q-22 -66 -57.5 -120t-69.5 -78q-31 -22 -54 -34t-46 -11v0z" />
    <glyph glyph-name="Omacron" unicode="&#x14c;" horiz-adv-x="755" 
d="M370 -11q-85 -5 -154.5 28t-109.5 89t-53.5 131.5t8.5 156.5q11 41 22.5 72.5t31.5 71.5t51.5 75.5t72.5 63.5q33 22 81 39q87 20 137 -7l15 -1q13 -1 24 -2q-7 4 12.5 1t37.5 -9q41 -14 72.5 -37.5t63.5 -70.5q46 -69 58 -135q10 -57 -1 -120t-41.5 -122.5t-76 -108.5
t-111 -80t-140.5 -35v0zM394 129q46 2 88 26t70 63t42.5 88t5.5 101q-7 41 -40 89q-24 35 -41 48t-34 17q-15 4 -55 8q-63 6 -96 10q-4 0 -7 1q-15 -6 -23 -11q-42 -26 -64 -69t-41 -114q-18 -69 1.5 -129.5t71 -95.5t122.5 -32v0zM376 793q-19 0 -45 3q-28 -1 -47.5 14
t-20.5 42.5t17.5 42.5t46.5 16q54 -3 121.5 -1t129.5 2q28 0 46.5 -13t19 -40.5t-17.5 -43.5t-46 -18q-63 -4 -115 -4h-89v0z" />
    <glyph glyph-name="omacron" unicode="&#x14d;" horiz-adv-x="582" 
d="M254 0q-61 0 -111 27.5t-78.5 79t-27.5 120.5q1 77 38 147t102 112.5t146 42.5q28 0 43 -4t35 -14q15 -9 29 -14q53 -20 85.5 -73t32.5 -114q0 -79 -39 -150.5t-106.5 -115.5t-148.5 -44v0zM276 130q34 0 64.5 22.5t49 60t18.5 80.5q0 42 -28 67q-11 10 -35 18
q-13 5 -21 10t-13 15q-6 0 -9.5 -0.5t-5.5 -0.5q-31 -6 -58.5 -28t-44.5 -57t-17 -77q0 -53 27.5 -81.5t72.5 -28.5v0zM292 613q-19 0 -45 3q-28 -1 -47.5 14t-20.5 42.5t17.5 42.5t46.5 16q54 -3 121.5 -1t129.5 2q28 0 46.5 -13t19 -40.5t-17.5 -43.5t-46 -18
q-63 -4 -115 -4h-89v0z" />
    <glyph glyph-name="Obreve" unicode="&#x14e;" horiz-adv-x="769" 
d="M364 1q-90 0 -161.5 36.5t-112.5 104t-41 155.5q0 115 56.5 213.5t153 156.5t209.5 58q26 0 38 -2t37 -10l25 -8q19 -6 39 -13t34 -16q57 -39 89 -105.5t32 -149.5q0 -108 -54.5 -205t-146 -156t-197.5 -59v0zM387 136q67 0 120.5 36.5t84 96t30.5 125.5q0 47 -21.5 98
t-53.5 72q-12 8 -44 15q-7 2 -15 4.5t-17 4.5q-26 2 -44 2q-63 0 -118 -37.5t-87 -99.5t-32 -131q0 -91 51.5 -138.5t145.5 -47.5v0zM488 762q-33 0 -66 17t-54.5 45.5t-21.5 61.5t23 55.5t51 22.5q20 0 30 -9t11 -12.5t7 -30.5q4 -15 16.5 -23.5t27.5 -8.5q35 0 60 28
q9 11 18 23t21 19t31 7q23 0 35 -16t9 -38q-5 -34 -35.5 -67t-74.5 -53.5t-88 -20.5v0z" />
    <glyph glyph-name="obreve" unicode="&#x14f;" horiz-adv-x="567" 
d="M257 -1q-70 0 -120 29t-75.5 77.5t-25.5 107.5q0 82 41 155t108 117.5t142 44.5q29 0 46.5 -5.5t41.5 -16.5l19 -9q56 -24 87.5 -78.5t31.5 -106.5q0 -87 -41 -159t-109 -114t-146 -42v0zM281 129q35 0 65.5 23.5t48.5 60.5t18 75q0 32 -14 50t-39 31q-13 8 -26 15.5
t-19 16.5q-17 0 -29.5 -3.5t-32.5 -15.5q-31 -18 -53.5 -58.5t-23.5 -86.5q0 -52 27 -80t78 -28v0zM362 585q-39 0 -73.5 16t-55.5 43.5t-21 60.5q0 34 21.5 56.5t50.5 22.5q40 0 45 -43q2 -20 14 -31t33 -11t34.5 10t28.5 31q14 22 30 32.5t36 10.5q21 0 34 -12.5t13 -31.5
q0 -34 -28.5 -70.5t-73 -60t-88.5 -23.5v0z" />
    <glyph glyph-name="Ohungarumlaut" unicode="&#x150;" horiz-adv-x="755" 
d="M370 -11q-85 -5 -154.5 28t-109.5 89t-53.5 131.5t8.5 156.5q11 41 22.5 72.5t31.5 71.5t51.5 75.5t72.5 63.5q33 22 81 39q87 20 137 -7l15 -1q13 -1 24 -2q-7 4 12.5 1t37.5 -9q41 -14 72.5 -37.5t63.5 -70.5q46 -69 58 -135q10 -57 -1 -120t-41.5 -122.5t-76 -108.5
t-111 -80t-140.5 -35v0zM394 129q46 2 88 26t70 63t42.5 88t5.5 101q-7 41 -40 89q-24 35 -41 48t-34 17q-15 4 -55 8q-63 6 -96 10q-4 0 -7 1q-15 -6 -23 -11q-42 -26 -64 -69t-41 -114q-18 -69 1.5 -129.5t71 -95.5t122.5 -32v0zM379 754q-22 0 -36.5 14.5t-14.5 34.5
q0 27 23 54l76 91q26 30 56 30q24 0 39 -16.5t15 -37.5q0 -14 -4.5 -23.5t-13.5 -19.5l-87 -102q-10 -12 -24.5 -18.5t-28.5 -6.5v0zM563 753q-21 0 -35.5 14t-14.5 34q0 14 6 26.5t20 26.5l73 77q25 25 53 25q22 0 37.5 -14.5t15.5 -36.5q0 -26 -23 -51l-80 -77
q-24 -24 -52 -24v0z" />
    <glyph glyph-name="ohungarumlaut" unicode="&#x151;" horiz-adv-x="582" 
d="M254 0q-61 0 -111 27.5t-78.5 79t-27.5 120.5q1 77 38 147t102 112.5t146 42.5q28 0 43 -4t35 -14q15 -9 29 -14q53 -20 85.5 -73t32.5 -114q0 -79 -39 -150.5t-106.5 -115.5t-148.5 -44v0zM276 130q34 0 64.5 22.5t49 60t18.5 80.5q0 42 -28 67q-11 10 -35 18
q-13 5 -21 10t-13 15q-6 0 -9.5 -0.5t-5.5 -0.5q-31 -6 -58.5 -28t-44.5 -57t-17 -77q0 -53 27.5 -81.5t72.5 -28.5v0zM273 570q-22 0 -36.5 14.5t-14.5 34.5q0 27 23 54l76 91q26 30 56 30q24 0 39 -16.5t15 -37.5q0 -14 -4.5 -23.5t-13.5 -19.5l-87 -102
q-10 -12 -24.5 -18.5t-28.5 -6.5v0zM457 569q-21 0 -35.5 14t-14.5 34q0 14 6 26.5t20 26.5l73 77q25 25 53 25q22 0 37.5 -14.5t15.5 -36.5q0 -26 -23 -51l-80 -77q-24 -24 -52 -24v0z" />
    <glyph glyph-name="OE" unicode="&#x152;" horiz-adv-x="1089" 
d="M580 -14q-18 0 -31.5 8.5t-19.5 23.5q-10 10 -13 26q-43 -31 -81.5 -44t-97.5 -13q-77 0 -143.5 39.5t-106.5 110t-40 159.5q0 108 63.5 207t166 160t212.5 61q40 0 73.5 -8.5t68.5 -23.5l5 11q26 36 69 38q28 1 46 -21q42 1 135 1h152q28 0 43 -17t14 -42
q-2 -29 -25 -51.5t-60 -23.5q-44 -1 -85 -1h-81h-98q7 -11 7 -28q0 -15 -7 -31t-20 -28l-9 -66l225 2q28 1 43 -15.5t15 -39.5q0 -29 -23 -53t-61 -25l-222 -1q-15 -95 -21 -165l130 -1q35 1 66.5 0.5t57.5 -0.5h37q27 0 41 -16t14 -38q0 -32 -23 -56.5t-62 -24.5
q-259 0 -310 -1q-20 -13 -44 -13v0zM373 123q25 0 53 11.5t38 26.5l28 42q3 4 17 25q15 25 41 36l14 86q-3 9 -3 20l1 10q3 17 13 31q1 12 4 29t7 39l9 51q-12 19 -23 27q-45 33 -103 33q-73 0 -138.5 -40.5t-104.5 -105.5t-39 -134q0 -58 26 -100.5t68.5 -64.5t91.5 -22v0z
" />
    <glyph glyph-name="oe" unicode="&#x153;" horiz-adv-x="918" 
d="M621 0q-103 0 -156 59.5t-53 167.5q0 74 40.5 144t106 113.5t135.5 43.5q96 1 153.5 -56t57.5 -156q0 -47 -30 -74t-90 -27q-177 0 -259 4q-1 -5 -1 -25q0 -36 30.5 -60t78.5 -24q28 0 51 7t44 24q18 15 34 22t35 7q20 0 33.5 -12t13.5 -31q0 -34 -34 -63.5t-86 -46.5
t-104 -17v0zM245 0q-64 0 -111 28.5t-72 79.5t-25 115q0 78 36.5 148.5t101 114t143.5 43.5q59 0 107 -30t75.5 -80t27.5 -109q0 -79 -37 -151t-102 -115.5t-144 -43.5v0zM274 130q35 0 65.5 22t49.5 60t19 81q0 45 -28.5 77t-71.5 32q-35 0 -65 -22.5t-48 -60t-18 -79.5
q0 -53 24.5 -81.5t72.5 -28.5v0zM618 311q92 -4 164 2q3 6 3 23q0 34 -25.5 57t-71.5 23q-45 0 -85.5 -28.5t-57.5 -73.5l73 -3v0z" />
    <glyph glyph-name="Racute" unicode="&#x154;" horiz-adv-x="693" 
d="M468 53q-2 84 -6 133l-1 22q-3 46 -29 70.5t-74 24.5q-10 0 -40 -2q-36 -2 -61 -2h-30l-48 -230q-7 -33 -30.5 -51t-51.5 -18q-31 0 -47.5 19t-10.5 50l62 300l57 268q7 29 31 48.5t54 21.5l35 3q78 6 106 6q321 0 321 -169q0 -65 -45 -116t-121 -74q40 -31 56.5 -94.5
t15.5 -175.5q1 -38 -26 -62t-61 -24q-23 0 -39 13t-17 39v0zM258 427q52 6 96 6h61q32 0 66.5 11t57 29.5t22.5 38.5q0 37 -38 53t-129 16q-70 0 -109 -3q-14 -66 -30 -151h3v0zM436 759q-26 0 -41.5 16.5t-15.5 39.5q0 18 9 32.5t23 24.5l117 77q15 10 26.5 14.5t24.5 4.5
q25 0 42 -17.5t17 -41.5q0 -18 -10 -35t-27 -28l-119 -71q-26 -16 -46 -16v0z" />
    <glyph glyph-name="racute" unicode="&#x155;" horiz-adv-x="399" 
d="M72 0q-28 0 -45 21t-10 54l78 374q8 38 32.5 59t54.5 21q28 0 42.5 -19t10.5 -48q27 25 76 47t76 22q25 0 40 -15.5t15 -38.5q0 -25 -17.5 -47.5t-56.5 -30.5q-90 -19 -156 -64q-8 -23 -20 -86l-35 -178q-8 -31 -31 -51t-54 -20v0zM276 570q-28 -2 -46 17.5t-14 48
t29 50.5l96 86q25 23 53 24t46 -18t14 -47.5t-29 -50.5l-96 -86q-25 -22 -53 -24v0z" />
    <glyph glyph-name="uni0156" unicode="&#x156;" horiz-adv-x="693" 
d="M468 53q-2 84 -6 133l-1 22q-3 46 -29 70.5t-74 24.5q-10 0 -40 -2q-36 -2 -61 -2h-30l-48 -230q-7 -33 -30.5 -51t-51.5 -18q-31 0 -47.5 19t-10.5 50l62 300l57 268q7 29 31 48.5t54 21.5l35 3q78 6 106 6q321 0 321 -169q0 -65 -45 -116t-121 -74q40 -31 56.5 -94.5
t15.5 -175.5q1 -38 -26 -62t-61 -24q-23 0 -39 13t-17 39v0zM258 427q52 6 96 6h61q32 0 66.5 11t57 29.5t22.5 38.5q0 37 -38 53t-129 16q-70 0 -109 -3q-14 -66 -30 -151h3v0zM228 -293q-15 0 -26.5 11t-11.5 26q0 12 6 22t20 24q27 28 34 38q-18 8 -26.5 24.5t-8.5 34.5
q0 32 24.5 54t55.5 22q33 0 54 -20.5t21 -50.5q0 -35 -21.5 -73t-51.5 -69q-26 -27 -39.5 -35t-29.5 -8v0z" />
    <glyph glyph-name="uni0157" unicode="&#x157;" horiz-adv-x="399" 
d="M72 0q-28 0 -45 21t-10 54l78 374q8 38 32.5 59t54.5 21q28 0 42.5 -19t10.5 -48q27 25 76 47t76 22q25 0 40 -15.5t15 -38.5q0 -25 -17.5 -47.5t-56.5 -30.5q-90 -19 -156 -64q-8 -23 -20 -86l-35 -178q-8 -31 -31 -51t-54 -20v0zM-18 -293q-15 0 -26.5 11t-11.5 26
q0 12 6 22t20 24q27 28 34 38q-18 8 -26.5 24.5t-8.5 34.5q0 32 24.5 54t55.5 22q33 0 54 -20.5t21 -50.5q0 -35 -21.5 -73t-51.5 -69q-26 -27 -39.5 -35t-29.5 -8v0z" />
    <glyph glyph-name="Rcaron" unicode="&#x158;" horiz-adv-x="693" 
d="M468 53q-2 84 -6 133l-1 22q-3 46 -29 70.5t-74 24.5q-10 0 -40 -2q-36 -2 -61 -2h-30l-48 -230q-7 -33 -30.5 -51t-51.5 -18q-31 0 -47.5 19t-10.5 50l62 300l57 268q7 29 31 48.5t54 21.5l35 3q78 6 106 6q321 0 321 -169q0 -65 -45 -116t-121 -74q40 -31 56.5 -94.5
t15.5 -175.5q1 -38 -26 -62t-61 -24q-23 0 -39 13t-17 39v0zM258 427q52 6 96 6h61q32 0 66.5 11t57 29.5t22.5 38.5q0 37 -38 53t-129 16q-70 0 -109 -3q-14 -66 -30 -151h3v0zM451 765q-26 0 -50 27l-55 61q-12 13 -19 25.5t-7 21.5q0 24 17 41.5t43 17.5q11 0 22 -5.5
t18 -13.5l50 -57l81 62q20 15 40 15q21 0 36 -14t15 -35q0 -18 -9.5 -31t-28.5 -27l-99 -67q-16 -11 -28 -16t-26 -5v0z" />
    <glyph glyph-name="rcaron" unicode="&#x159;" horiz-adv-x="399" 
d="M72 0q-28 0 -45 21t-10 54l78 374q8 38 32.5 59t54.5 21q28 0 42.5 -19t10.5 -48q27 25 76 47t76 22q25 0 40 -15.5t15 -38.5q0 -25 -17.5 -47.5t-56.5 -30.5q-90 -19 -156 -64q-8 -23 -20 -86l-35 -178q-8 -31 -31 -51t-54 -20v0zM279 581q-26 0 -50 27l-55 61
q-12 13 -19 25.5t-7 21.5q0 24 17 41.5t43 17.5q11 0 22 -5.5t18 -13.5l50 -57l81 62q20 15 40 15q21 0 36 -14t15 -35q0 -18 -9.5 -31t-28.5 -27l-99 -67q-16 -11 -28 -16t-26 -5v0z" />
    <glyph glyph-name="Sacute" unicode="&#x15a;" horiz-adv-x="612" 
d="M268 -8q-118 0 -177 50t-59 131q0 59 25.5 88t60.5 29q23 0 40 -13.5t17 -38.5q0 -2 -3 -38l-2 -20q0 -23 28.5 -39t83.5 -16q35 0 67.5 12t52.5 32t20 42q0 18 -14.5 34t-50.5 31l-39 15q-17 6 -37 13.5t-42 16.5q-150 61 -150 179q0 59 39 111t103 83t136 31
q106 0 173 -51t67 -143q0 -49 -21 -75.5t-56 -26.5q-31 0 -49.5 16t-18.5 43q0 26 -1 36.5t-9 20.5q-14 18 -44.5 31.5t-71.5 14.5q-49 0 -77 -20t-28 -47q0 -26 21.5 -41t81.5 -40q16 -6 24 -10q58 -22 98 -42q57 -28 83.5 -64t26.5 -92q0 -68 -44.5 -123.5t-114 -87.5
t-139.5 -32v0zM383 759q-26 0 -41.5 16.5t-15.5 39.5q0 18 9 32.5t23 24.5l117 77q15 10 26.5 14.5t24.5 4.5q25 0 42 -17.5t17 -41.5q0 -18 -10 -35t-27 -28l-119 -71q-26 -16 -46 -16v0z" />
    <glyph glyph-name="sacute" unicode="&#x15b;" horiz-adv-x="489" 
d="M202 -1q-61 0 -106 19.5t-68 51t-23 66.5q0 31 21 52t48 21q22 0 37 -10t22 -28q11 -28 33 -40t62 -12q35 0 56 11t21 30q0 15 -17.5 26t-47.5 23l-83 35q-37 17 -62 48.5t-25 74.5q0 44 29 81.5t77 60t102 22.5q52 0 87.5 -11.5t63.5 -33.5q45 -34 45 -76q0 -28 -21 -48
t-47 -20q-35 0 -62 30q-20 21 -42 30.5t-50 9.5q-21 0 -34 -8.5t-13 -19.5q0 -13 10.5 -23.5t35.5 -20.5l21 -9q62 -26 86 -39q80 -42 80 -119q0 -44 -32 -84t-86 -65t-118 -25v0zM310 570q-28 -2 -46 17.5t-14 48t29 50.5l96 86q25 23 53 24t46 -18t14 -47.5t-29 -50.5
l-96 -86q-25 -22 -53 -24v0z" />
    <glyph glyph-name="Scircumflex" unicode="&#x15c;" horiz-adv-x="607" 
d="M241 -9q-41 -1 -80 7t-70.5 31t-47.5 60q-10 27 -10 68v26q1 12 0 19q-2 28 17.5 53t49 33t51.5 -6t25 -42q1 -13 0 -30v-10v-14q-1 -18 3 -25q7 -18 42 -27t96 2q55 12 80.5 34t27.5 43q1 23 -33 44q-25 16 -118 50q-100 36 -136 70q-74 68 -35 175q17 47 47.5 82.5
t68 55t75 28.5t74.5 9q74 0 138 -32t89 -90q11 -21 12 -54q0 -2 0.5 -13t0.5 -18q3 -27 -15.5 -53t-47.5 -35t-52 4t-26 40q-1 2 -3 40q-1 10 -1 13q-11 23 -46 40.5t-80 18.5q-81 0 -100 -56q-6 -15 -4 -24.5t13 -19.5q23 -21 100 -49q106 -38 139 -59q87 -54 82 -145
q-2 -50 -27 -92.5t-63 -70.5t-77 -45q-40 -18 -79 -27q-40 -9 -80 -9v0zM487 741q-8 0 -16 2.5t-14 8.5l-53 47l-74 -46q-18 -11 -38 -11q-29 0 -41.5 19t-7.5 43q7 31 39 51l110 66q12 6 23 9l11 2q4 1 12 1q18 0 32 -10l79 -70q11 -8 15 -22t1 -30q-6 -25 -30 -42.5
t-48 -17.5v0z" />
    <glyph glyph-name="scircumflex" unicode="&#x15d;" horiz-adv-x="489" 
d="M202 -1q-61 0 -106 19.5t-68 51t-23 66.5q0 31 21 52t48 21q22 0 37 -10t22 -28q11 -28 33 -40t62 -12q35 0 56 11t21 30q0 15 -17.5 26t-47.5 23l-83 35q-37 17 -62 48.5t-25 74.5q0 44 29 81.5t77 60t102 22.5q52 0 87.5 -11.5t63.5 -33.5q45 -34 45 -76q0 -28 -21 -48
t-47 -20q-35 0 -62 30q-20 21 -42 30.5t-50 9.5q-21 0 -34 -8.5t-13 -19.5q0 -13 10.5 -23.5t35.5 -20.5l21 -9q62 -26 86 -39q80 -42 80 -119q0 -44 -32 -84t-86 -65t-118 -25v0zM213 581q-21 0 -36 14t-15 35q0 18 9.5 31.5t28.5 27.5l87 62q19 13 34 19t30 6q27 0 51 -27
l56 -61q12 -13 19 -25.5t7 -21.5q0 -25 -18 -42.5t-41 -17.5q-12 0 -20 5t-18 15l-50 52l-73 -50q-32 -22 -51 -22v0z" />
    <glyph glyph-name="Scedilla" unicode="&#x15e;" horiz-adv-x="612" 
d="M222 -258q-47 0 -77.5 21t-30.5 52q0 20 13 33.5t30 13.5q13 0 20 -4.5t18 -15.5q19 -19 41 -19q15 0 26 10.5t11 25.5q0 17 -26 24q-7 2 -19 1.5t-24 -0.5q-13 1 -21 11.5t-8 26.5q0 23 31 56t66 62q18 -3 29 -7.5t24 -13.5q-21 -19 -38.5 -43t-21.5 -44l-20 16
q9 4 27 4q41 0 66.5 -24t25.5 -61q0 -31 -20 -60t-53 -47t-69 -18v0zM268 -8q-118 0 -177 50t-59 131q0 59 25.5 88t60.5 29q23 0 40 -13.5t17 -38.5q0 -2 -3 -38l-2 -20q0 -23 28.5 -39t83.5 -16q35 0 67.5 12t52.5 32t20 42q0 18 -14.5 34t-50.5 31l-39 15q-17 6 -37 13.5
t-42 16.5q-150 61 -150 179q0 59 39 111t103 83t136 31q106 0 173 -51t67 -143q0 -49 -21 -75.5t-56 -26.5q-31 0 -49.5 16t-18.5 43q0 26 -1 36.5t-9 20.5q-14 18 -44.5 31.5t-71.5 14.5q-49 0 -77 -20t-28 -47q0 -26 21.5 -41t81.5 -40q16 -6 24 -10q58 -22 98 -42
q57 -28 83.5 -64t26.5 -92q0 -68 -44.5 -123.5t-114 -87.5t-139.5 -32v0v0z" />
    <glyph glyph-name="scedilla" unicode="&#x15f;" horiz-adv-x="489" 
d="M162 -243q-47 0 -77.5 21t-30.5 52q0 20 13 33.5t30 13.5q13 0 20 -4.5t18 -15.5q19 -19 41 -19q15 0 26 10.5t11 25.5q0 17 -26 24q-7 2 -19 1.5t-24 -0.5q-17 1 -27 11t-10 27q0 20 41 58q46 42 68 55q14 -5 29.5 -11.5t24.5 -15.5q-26 -15 -47.5 -36t-25.5 -40l-20 16
q9 4 27 4q42 0 71 -24.5t29 -60.5q0 -31 -20 -60t-53 -47t-69 -18v0zM202 -1q-61 0 -106 19.5t-68 51t-23 66.5q0 31 21 52t48 21q22 0 37 -10t22 -28q11 -28 33 -40t62 -12q35 0 56 11t21 30q0 15 -17.5 26t-47.5 23l-83 35q-37 17 -62 48.5t-25 74.5q0 44 29 81.5t77 60
t102 22.5q52 0 87.5 -11.5t63.5 -33.5q45 -34 45 -76q0 -28 -21 -48t-47 -20q-35 0 -62 30q-20 21 -42 30.5t-50 9.5q-21 0 -34 -8.5t-13 -19.5q0 -13 10.5 -23.5t35.5 -20.5l21 -9q62 -26 86 -39q80 -42 80 -119q0 -44 -32 -84t-86 -65t-118 -25v0v0z" />
    <glyph glyph-name="Scaron" unicode="&#x160;" horiz-adv-x="612" 
d="M268 -8q-118 0 -177 50t-59 131q0 59 25.5 88t60.5 29q23 0 40 -13.5t17 -38.5q0 -2 -3 -38l-2 -20q0 -23 28.5 -39t83.5 -16q35 0 67.5 12t52.5 32t20 42q0 18 -14.5 34t-50.5 31l-39 15q-17 6 -37 13.5t-42 16.5q-150 61 -150 179q0 59 39 111t103 83t136 31
q106 0 173 -51t67 -143q0 -49 -21 -75.5t-56 -26.5q-31 0 -49.5 16t-18.5 43q0 26 -1 36.5t-9 20.5q-14 18 -44.5 31.5t-71.5 14.5q-49 0 -77 -20t-28 -47q0 -26 21.5 -41t81.5 -40q16 -6 24 -10q58 -22 98 -42q57 -28 83.5 -64t26.5 -92q0 -68 -44.5 -123.5t-114 -87.5
t-139.5 -32v0zM398 765q-26 0 -50 27l-55 61q-12 13 -19 25.5t-7 21.5q0 24 17 41.5t43 17.5q11 0 22 -5.5t18 -13.5l50 -57l81 62q20 15 40 15q21 0 36 -14t15 -35q0 -18 -9.5 -31t-28.5 -27l-99 -67q-16 -11 -28 -16t-26 -5v0z" />
    <glyph glyph-name="scaron" unicode="&#x161;" horiz-adv-x="489" 
d="M202 -1q-61 0 -106 19.5t-68 51t-23 66.5q0 31 21 52t48 21q22 0 37 -10t22 -28q11 -28 33 -40t62 -12q35 0 56 11t21 30q0 15 -17.5 26t-47.5 23l-83 35q-37 17 -62 48.5t-25 74.5q0 44 29 81.5t77 60t102 22.5q52 0 87.5 -11.5t63.5 -33.5q45 -34 45 -76q0 -28 -21 -48
t-47 -20q-35 0 -62 30q-20 21 -42 30.5t-50 9.5q-21 0 -34 -8.5t-13 -19.5q0 -13 10.5 -23.5t35.5 -20.5l21 -9q62 -26 86 -39q80 -42 80 -119q0 -44 -32 -84t-86 -65t-118 -25v0zM314 581q-26 0 -50 27l-55 61q-12 13 -19 25.5t-7 21.5q0 24 17 41.5t43 17.5q11 0 22 -5.5
t18 -13.5l50 -57l81 62q20 15 40 15q21 0 36 -14t15 -35q0 -18 -9.5 -31t-28.5 -27l-99 -67q-16 -11 -28 -16t-26 -5v0z" />
    <glyph glyph-name="uni0162" unicode="&#x162;" horiz-adv-x="577" 
d="M173 -258q-47 0 -77.5 21t-30.5 52q0 20 13 33.5t30 13.5q13 0 20 -4.5t18 -15.5q19 -19 41 -19q15 0 26 10.5t11 25.5q0 17 -26 24q-7 2 -19 1.5t-24 -0.5q-13 1 -21 11.5t-8 26.5q0 23 31 56t66 62q18 -3 29 -7.5t24 -13.5q-21 -19 -38.5 -43t-21.5 -44l-20 16
q9 4 27 4q41 0 66.5 -24t25.5 -61q0 -31 -20 -60t-53 -47t-69 -18v0zM309 69q-7 -29 -31.5 -49t-53.5 -19.5t-45 21t-9 49.5q7 31 59 283q26 129 51 225q-80 -1 -135 -1q-29 0 -45.5 19t-11 48t30 48.5t53.5 19.5q64 0 212 1t212 1q29 0 45.5 -18.5t11 -47t-30 -49
t-52.5 -20.5q-63 0 -150 -1q-24 -92 -51 -224q-52 -255 -60 -286v0v0z" />
    <glyph glyph-name="uni0163" unicode="&#x163;" horiz-adv-x="343" 
d="M108 -243q-47 0 -77.5 21t-30.5 52q0 20 13 33.5t30 13.5q13 0 20 -4.5t18 -15.5q19 -19 41 -19q15 0 26 10.5t11 25.5q0 17 -26 24q-7 2 -19 1.5t-24 -0.5q-17 1 -27 11t-10 27q0 20 41 58q46 42 68 55q14 -5 29.5 -11.5t24.5 -15.5q-26 -15 -47.5 -36t-25.5 -40l-20 16
q9 4 27 4q42 0 71 -24.5t29 -60.5q0 -31 -20 -60t-53 -47t-69 -18v0zM98 39q-29 20 -42.5 39.5t-13.5 47.5q0 52 34 198l11 49q5 23 10 42q-32 0 -47.5 14.5t-15.5 39.5q0 30 21 51.5t56 21.5h17l6 27l4 20q18 85 91 85q30 0 44.5 -20.5t7.5 -50.5l-13 -60h33q30 0 46.5 -14
t16.5 -38q0 -31 -26.5 -53.5t-75.5 -22.5h-27l-19 -81q-25 -119 -31 -165q8 -9 24 -18t31 -16q39 -20 39 -57q0 -34 -20.5 -55.5t-52.5 -21.5q-25 0 -49.5 8.5t-58.5 29.5v0v0z" />
    <glyph glyph-name="Tcaron" unicode="&#x164;" horiz-adv-x="577" 
d="M309 69q-7 -29 -31.5 -49t-53.5 -19.5t-45 21t-9 49.5q7 31 59 283q26 129 51 225q-80 -1 -135 -1q-29 0 -45.5 19t-11 48t30 48.5t53.5 19.5q64 0 212 1t212 1q29 0 45.5 -18.5t11 -47t-30 -49t-52.5 -20.5q-63 0 -150 -1q-24 -92 -51 -224q-52 -255 -60 -286v0z
M397 765q-26 0 -50 27l-55 61q-12 13 -19 25.5t-7 21.5q0 24 17 41.5t43 17.5q11 0 22 -5.5t18 -13.5l50 -57l81 62q20 15 40 15q21 0 36 -14t15 -35q0 -18 -9.5 -31t-28.5 -27l-99 -67q-16 -11 -28 -16t-26 -5v0z" />
    <glyph glyph-name="tcaron" unicode="&#x165;" horiz-adv-x="346" 
d="M98 39q-29 20 -42.5 39.5t-13.5 47.5q0 52 34 198l11 49q5 23 10 42q-32 0 -47.5 14.5t-15.5 39.5q0 30 21 51.5t56 21.5h17l6 27l4 20q18 85 91 85q30 0 44.5 -20.5t7.5 -50.5l-13 -60h33q30 0 46.5 -14t16.5 -38q0 -31 -26.5 -53.5t-75.5 -22.5h-27l-19 -81
q-25 -119 -31 -165q8 -9 24 -18t31 -16q39 -20 39 -57q0 -34 -20.5 -55.5t-52.5 -21.5q-25 0 -49.5 8.5t-58.5 29.5v0zM386 574q-22 0 -37.5 14.5t-15.5 35.5q0 8 4.5 18t9.5 21q11 20 17 37q9 27 9 78q0 31 19.5 51.5t47.5 20.5q29 0 42.5 -18.5t13.5 -45.5
q0 -49 -10.5 -87.5t-31.5 -77.5q-12 -22 -30 -34.5t-38 -12.5v0z" />
    <glyph glyph-name="Tbar" unicode="&#x166;" horiz-adv-x="577" 
d="M145 293q-25 0 -39 17.5t-9 42.5q6 26 27.5 43t46.5 17h300q26 0 39 -16t7 -44q-6 -27 -26.5 -43.5t-45.5 -16.5h-300v0zM309 69q-7 -29 -31.5 -49t-53.5 -19.5t-45 21t-9 49.5q7 31 59 283q26 129 51 225q-80 -1 -135 -1q-29 0 -45.5 19t-11 48t30 48.5t53.5 19.5
q64 0 212 1t212 1q29 0 45.5 -18.5t11 -47t-30 -49t-52.5 -20.5q-63 0 -150 -1q-24 -92 -51 -224q-52 -255 -60 -286v0v0z" />
    <glyph glyph-name="tbar" unicode="&#x167;" horiz-adv-x="361" 
d="M82 246q-26 0 -41 13t-15 35q0 30 23 53.5t65 22.5l176 -2q24 0 37 -13t13 -35q0 -30 -23.5 -52.5t-56.5 -22.5zM113 39q-29 20 -42.5 39.5t-13.5 47.5q0 52 34 198l11 49q5 23 10 42q-32 0 -47.5 14.5t-15.5 39.5q0 30 21 51.5t56 21.5h17l6 27l4 20q18 85 91 85
q30 0 44.5 -20.5t7.5 -50.5l-13 -60h33q30 0 46.5 -14t16.5 -38q0 -31 -26.5 -53.5t-75.5 -22.5h-27l-19 -81q-25 -119 -31 -165q8 -9 24 -18t31 -16q39 -20 39 -57q0 -34 -20.5 -55.5t-52.5 -21.5q-25 0 -49.5 8.5t-58.5 29.5v0v0z" />
    <glyph glyph-name="Utilde" unicode="&#x168;" horiz-adv-x="714" 
d="M299 -1q-67 0 -122 25t-88 74.5t-33 119.5q0 66 14.5 132.5t46.5 176.5q32 115 34 121q8 29 32.5 49t52.5 20q24 0 39 -15t15 -40q0 -17 -6.5 -43t-15.5 -56l-10 -32q-28 -96 -45 -174.5t-17 -115.5q0 -49 35.5 -78t97.5 -29q72 0 130.5 65.5t90.5 202.5q13 53 26 146
l16 97q7 34 31.5 52.5t53.5 18.5t45 -18.5t10 -48.5q-8 -38 -17 -102q-14 -97 -27 -149q-93 -399 -389 -399v0zM295 767q-16 0 -28 11t-12 29q0 26 25 57.5t61.5 53.5t69.5 22q29 0 49 -8.5t42 -24.5q18 -12 29.5 -17.5t26.5 -5.5q14 0 23 6t21 20q14 16 25 23.5t30 7.5
t30 -12.5t10 -32.5q-1 -22 -26.5 -53t-60.5 -53t-63 -22q-30 0 -49.5 9t-42.5 25q-17 13 -29 18.5t-27 5.5t-24.5 -6.5t-22.5 -21.5q-14 -15 -26 -23t-31 -8v0z" />
    <glyph glyph-name="utilde" unicode="&#x169;" horiz-adv-x="558" 
d="M196 -1q-41 0 -76.5 20.5t-57.5 59.5t-22 93q0 45 10 91t27 101q5 18 12 37.5t13 37.5l11 32q9 28 30.5 42.5t45.5 14.5q33 0 48 -22.5t4 -50.5l-18 -52q-25 -74 -36.5 -116t-11.5 -84q0 -34 16.5 -53t43.5 -19q17 0 31 7t27 19t25 22q9 9 21 23.5t14 15.5q30 131 51 241
q7 33 31.5 51.5t52.5 18.5q30 0 46 -19t10 -49q-48 -242 -83 -401q-7 -29 -26.5 -44.5t-48.5 -15.5q-25 1 -41.5 22t-13.5 51q-26 -34 -61.5 -54t-73.5 -20v0zM186 587q-16 0 -28 11t-12 29q0 26 25 57.5t61.5 53.5t69.5 22q29 0 49 -8.5t42 -24.5q18 -12 29.5 -17.5
t26.5 -5.5q14 0 23 6t21 20q14 16 25 23.5t30 7.5t30 -12.5t10 -32.5q-1 -22 -26.5 -53t-60.5 -53t-63 -22q-30 0 -49.5 9t-42.5 25q-17 13 -29 18.5t-27 5.5t-24.5 -6.5t-22.5 -21.5q-14 -15 -26 -23t-31 -8v0z" />
    <glyph glyph-name="Umacron" unicode="&#x16a;" horiz-adv-x="714" 
d="M299 -1q-67 0 -122 25t-88 74.5t-33 119.5q0 66 14.5 132.5t46.5 176.5q32 115 34 121q8 29 32.5 49t52.5 20q24 0 39 -15t15 -40q0 -17 -6.5 -43t-15.5 -56l-10 -32q-28 -96 -45 -174.5t-17 -115.5q0 -49 35.5 -78t97.5 -29q72 0 130.5 65.5t90.5 202.5q13 53 26 146
l16 97q7 34 31.5 52.5t53.5 18.5t45 -18.5t10 -48.5q-8 -38 -17 -102q-14 -97 -27 -149q-93 -399 -389 -399v0zM388 793q-19 0 -45 3q-28 -1 -47.5 14t-20.5 42.5t17.5 42.5t46.5 16q54 -3 121.5 -1t129.5 2q28 0 46.5 -13t19 -40.5t-17.5 -43.5t-46 -18q-63 -4 -115 -4h-89
v0z" />
    <glyph glyph-name="umacron" unicode="&#x16b;" horiz-adv-x="558" 
d="M196 -1q-41 0 -76.5 20.5t-57.5 59.5t-22 93q0 45 10 91t27 101q5 18 12 37.5t13 37.5l11 32q9 28 30.5 42.5t45.5 14.5q33 0 48 -22.5t4 -50.5l-18 -52q-25 -74 -36.5 -116t-11.5 -84q0 -34 16.5 -53t43.5 -19q17 0 31 7t27 19t25 22q9 9 21 23.5t14 15.5q30 131 51 241
q7 33 31.5 51.5t52.5 18.5q30 0 46 -19t10 -49q-48 -242 -83 -401q-7 -29 -26.5 -44.5t-48.5 -15.5q-25 1 -41.5 22t-13.5 51q-26 -34 -61.5 -54t-73.5 -20v0zM290 613q-19 0 -45 3q-28 -1 -47.5 14t-20.5 42.5t17.5 42.5t46.5 16q54 -3 121.5 -1t129.5 2q28 0 46.5 -13
t19 -40.5t-17.5 -43.5t-46 -18q-63 -4 -115 -4h-89v0z" />
    <glyph glyph-name="Ubreve" unicode="&#x16c;" horiz-adv-x="713" 
d="M368 12q-46 -10 -82.5 -11t-82 22t-66.5 51t-35 64q-44 113 -5 312.5t40 202.5q10 29 35.5 47t54 15.5t41 -25t4.5 -51.5q-3 -11 -36.5 -177t0.5 -252q18 -45 46.5 -60t74.5 -4q110 26 174 216q40 118 69 288q5 29 29 50.5t53 23t46 -18t13 -47.5q-27 -188 -76 -318
q-101 -274 -297 -328v0zM454 762q-33 0 -66 17t-54.5 45.5t-21.5 61.5t23 55.5t51 22.5q20 0 30 -9t11 -12.5t7 -30.5q4 -15 16.5 -23.5t27.5 -8.5q35 0 60 28q9 11 18 23t21 19t31 7q23 0 35 -16t9 -38q-5 -34 -35.5 -67t-74.5 -53.5t-88 -20.5v0z" />
    <glyph glyph-name="ubreve" unicode="&#x16d;" horiz-adv-x="558" 
d="M196 -1q-41 0 -76.5 20.5t-57.5 59.5t-22 93q0 45 10 91t27 101q5 18 12 37.5t13 37.5l11 32q9 28 30.5 42.5t45.5 14.5q33 0 48 -22.5t4 -50.5l-18 -52q-25 -74 -36.5 -116t-11.5 -84q0 -34 16.5 -53t43.5 -19q17 0 31 7t27 19t25 22q9 9 21 23.5t14 15.5q30 131 51 241
q7 33 31.5 51.5t52.5 18.5q30 0 46 -19t10 -49q-48 -242 -83 -401q-7 -29 -26.5 -44.5t-48.5 -15.5q-25 1 -41.5 22t-13.5 51q-26 -34 -61.5 -54t-73.5 -20v0zM357 585q-39 0 -73.5 16t-55.5 43.5t-21 60.5q0 34 21.5 56.5t50.5 22.5q40 0 45 -43q2 -20 14 -31t33 -11
t34.5 10t28.5 31q14 22 30 32.5t36 10.5q21 0 34 -12.5t13 -31.5q0 -34 -28.5 -70.5t-73 -60t-88.5 -23.5v0z" />
    <glyph glyph-name="Uring" unicode="&#x16e;" horiz-adv-x="714" 
d="M299 -1q-67 0 -122 25t-88 74.5t-33 119.5q0 66 14.5 132.5t46.5 176.5q32 115 34 121q8 29 32.5 49t52.5 20q24 0 39 -15t15 -40q0 -17 -6.5 -43t-15.5 -56l-10 -32q-28 -96 -45 -174.5t-17 -115.5q0 -49 35.5 -78t97.5 -29q72 0 130.5 65.5t90.5 202.5q13 53 26 146
l16 97q7 34 31.5 52.5t53.5 18.5t45 -18.5t10 -48.5q-8 -38 -17 -102q-14 -97 -27 -149q-93 -399 -389 -399v0zM466 738q-50 0 -81 28.5t-31 70.5q0 44 21.5 79.5t52.5 52.5q11 6 27 8q5 1 8.5 2t8.5 1t11 1t14 1q44 0 76 -30.5t32 -75.5q0 -37 -18.5 -68.5t-50.5 -50.5
t-70 -19v0v0zM475 819q17 0 30 12t14 31q2 17 -8.5 27.5t-27.5 10.5q-18 0 -31 -12t-14 -30q-2 -20 8 -29.5t29 -9.5v0v0z" />
    <glyph glyph-name="uring" unicode="&#x16f;" horiz-adv-x="558" 
d="M196 -1q-41 0 -76.5 20.5t-57.5 59.5t-22 93q0 45 10 91t27 101q5 18 12 37.5t13 37.5l11 32q9 28 30.5 42.5t45.5 14.5q33 0 48 -22.5t4 -50.5l-18 -52q-25 -74 -36.5 -116t-11.5 -84q0 -34 16.5 -53t43.5 -19q17 0 31 7t27 19t25 22q9 9 21 23.5t14 15.5q30 131 51 241
q7 33 31.5 51.5t52.5 18.5q30 0 46 -19t10 -49q-48 -242 -83 -401q-7 -29 -26.5 -44.5t-48.5 -15.5q-25 1 -41.5 22t-13.5 51q-26 -34 -61.5 -54t-73.5 -20v0zM356 570q-50 0 -81 27.5t-31 69.5q0 43 21.5 77.5t52.5 51.5q11 6 27 8q5 1 8.5 2t8.5 1t11 1t14 1q44 0 76 -30
t32 -74q0 -36 -18.5 -67t-50.5 -49.5t-70 -18.5v0zM365 649q17 0 30 12t14 30q2 17 -8.5 27t-27.5 10q-18 0 -31 -11.5t-14 -29.5q-2 -19 8 -28.5t29 -9.5v0z" />
    <glyph glyph-name="Uhungarumlaut" unicode="&#x170;" horiz-adv-x="713" 
d="M368 12q-46 -10 -82.5 -11t-82 22t-67 51t-34.5 64q-44 113 -5 312.5t40 202.5q8 29 34.5 47t55 15.5t41.5 -25t4 -51.5q-3 -11 -36.5 -177t0.5 -252q18 -45 46.5 -61t74.5 -3q105 29 174 216q44 117 69 288q5 29 29 50.5t53 23t46 -18t13 -47.5q-28 -188 -76 -318
q-102 -274 -297 -328v0zM368 754q-22 0 -36.5 14.5t-14.5 34.5q0 27 23 54l76 91q26 30 56 30q24 0 39 -16.5t15 -37.5q0 -14 -4.5 -23.5t-13.5 -19.5l-87 -102q-10 -12 -24.5 -18.5t-28.5 -6.5v0zM552 753q-21 0 -35.5 14t-14.5 34q0 14 6 26.5t20 26.5l73 77q25 25 53 25
q22 0 37.5 -14.5t15.5 -36.5q0 -26 -23 -51l-80 -77q-24 -24 -52 -24v0z" />
    <glyph glyph-name="uhungarumlaut" unicode="&#x171;" horiz-adv-x="558" 
d="M196 -1q-41 0 -76.5 20.5t-57.5 59.5t-22 93q0 45 10 91t27 101q5 18 12 37.5t13 37.5l11 32q9 28 30.5 42.5t45.5 14.5q33 0 48 -22.5t4 -50.5l-18 -52q-25 -74 -36.5 -116t-11.5 -84q0 -34 16.5 -53t43.5 -19q17 0 31 7t27 19t25 22q9 9 21 23.5t14 15.5q30 131 51 241
q7 33 31.5 51.5t52.5 18.5q30 0 46 -19t10 -49q-48 -242 -83 -401q-7 -29 -26.5 -44.5t-48.5 -15.5q-25 1 -41.5 22t-13.5 51q-26 -34 -61.5 -54t-73.5 -20v0zM271 570q-22 0 -36.5 14.5t-14.5 34.5q0 27 23 54l76 91q26 30 56 30q24 0 39 -16.5t15 -37.5q0 -14 -4.5 -23.5
t-13.5 -19.5l-87 -102q-10 -12 -24.5 -18.5t-28.5 -6.5v0zM455 569q-21 0 -35.5 14t-14.5 34q0 14 6 26.5t20 26.5l73 77q25 25 53 25q22 0 37.5 -14.5t15.5 -36.5q0 -26 -23 -51l-80 -77q-24 -24 -52 -24v0z" />
    <glyph glyph-name="Uogonek" unicode="&#x172;" horiz-adv-x="714" 
d="M245 -204q-53 0 -85.5 30t-32.5 77q0 53 39.5 95.5t90 67t73.5 24.5q20 0 33.5 -10t13.5 -28q0 -28 -31 -43q-10 -5 -28 -11q-30 -10 -49 -22q-20 -12 -30 -25t-10 -30q0 -16 11.5 -25t27.5 -9q11 0 19 4t19 12q13 9 22 13t22 4q16 0 26.5 -10.5t10.5 -25.5
q0 -24 -19.5 -44t-52.5 -32t-70 -12v0zM299 -1q-67 0 -122 25t-88 74.5t-33 119.5q0 66 14.5 132.5t46.5 176.5q32 115 34 121q8 29 32.5 49t52.5 20q24 0 39 -15t15 -40q0 -17 -6.5 -43t-15.5 -56l-10 -32q-28 -96 -45 -174.5t-17 -115.5q0 -49 35.5 -78t97.5 -29
q72 0 130.5 65.5t90.5 202.5q13 53 26 146l16 97q7 34 31.5 52.5t53.5 18.5t45 -18.5t10 -48.5q-8 -38 -17 -102q-14 -97 -27 -149q-93 -399 -389 -399v0v0z" />
    <glyph glyph-name="uogonek" unicode="&#x173;" horiz-adv-x="558" 
d="M331 -221q-52 0 -83.5 29t-31.5 75q0 51 38.5 92.5t87.5 65.5t71 24q20 0 33 -10t13 -27q0 -27 -30 -42q-10 -5 -27 -11q-30 -9 -48 -21q-19 -12 -29 -24.5t-10 -28.5t11.5 -24.5t26.5 -8.5q11 0 18.5 3.5t18.5 11.5q13 9 21.5 13t21.5 4q15 0 25.5 -10.5t10.5 -24.5
q0 -24 -19 -43.5t-51 -31t-68 -11.5v0zM196 -1q-41 0 -76.5 20.5t-57.5 59.5t-22 93q0 45 10 91t27 101q5 18 12 37.5t13 37.5l11 32q9 28 30.5 42.5t45.5 14.5q33 0 48 -22.5t4 -50.5l-18 -52q-25 -74 -36.5 -116t-11.5 -84q0 -34 16.5 -53t43.5 -19q17 0 31 7t27 19t25 22
q9 9 21 23.5t14 15.5q30 131 51 241q7 33 31.5 51.5t52.5 18.5q30 0 46 -19t10 -49q-48 -242 -83 -401q-7 -29 -26.5 -44.5t-48.5 -15.5q-25 1 -41.5 22t-13.5 51q-26 -34 -61.5 -54t-73.5 -20v0v0z" />
    <glyph glyph-name="Wcircumflex" unicode="&#x174;" horiz-adv-x="924" 
d="M183 -1q-27 -4 -46 12t-18 42q-1 91 -7 278q-7 174 -12 305q0 28 21 52t50 30t50 -10t21 -44q6 -112 15 -383q120 202 239 393q12 20 32.5 31.5t41.5 11.5q24 0 41 -14.5t17 -96.5l28 -201l14 -131q13 25 80 169t113 228q14 27 42.5 41t54 6t34.5 -33.5t-5 -53.5
q-46 -83 -99.5 -199t-69.5 -147l-61 -119l-57 -113q-11 -21 -31 -35t-41 -16q-28 -7 -49 5t-25 37q-25 144 -43 319q-3 30 -10 77l-235 -396q-14 -23 -37.5 -35.5t-47.5 -9.5v0zM462 760q-21 0 -36 14t-15 35q0 18 9.5 31.5t28.5 27.5l87 62q19 13 34 19t30 6q27 0 51 -27
l56 -61q12 -13 19 -25.5t7 -21.5q0 -25 -18 -42.5t-41 -17.5q-12 0 -20 5t-18 15l-50 52l-73 -50q-32 -22 -51 -22v0z" />
    <glyph glyph-name="wcircumflex" unicode="&#x175;" horiz-adv-x="657" 
d="M412 -2q-25 0 -40.5 14.5t-17.5 38.5l-24 216l-98 -195q-38 -75 -95 -75q-29 0 -45 20t-20 71q-13 141 -21 336q-2 42 25 72t64 30q52 0 53 -59q1 -77 6 -199l1 -27q48 87 108 217q14 30 36.5 45t45.5 15t38 -13.5t17 -42.5l12 -210l86 206q16 37 37.5 52.5t50.5 15.5
q37 0 48 -28.5t-6 -67.5q-63 -144 -110.5 -244.5t-63.5 -130.5q-14 -28 -38 -42.5t-49 -14.5v0zM295 581q-21 0 -36 14t-15 35q0 18 9.5 31.5t28.5 27.5l87 62q19 13 34 19t30 6q27 0 51 -27l56 -61q12 -13 19 -25.5t7 -21.5q0 -25 -18 -42.5t-41 -17.5q-12 0 -20 5t-18 15
l-50 52l-73 -50q-32 -22 -51 -22v0z" />
    <glyph glyph-name="Ycircumflex" unicode="&#x176;" horiz-adv-x="593" 
d="M237 -1q-31 0 -47 18.5t-10 48.5l6 29q14 79 26 127l13 54l-61 160q-54 142 -70 189q-7 26 3 47t31 33.5t43 12.5q16 0 31 -12t21 -30l7 -21q14 -40 37.5 -105t49.5 -132l74 94l149 172q29 33 63 33q25 0 42.5 -16t17.5 -40q0 -26 -21 -51q-8 -11 -33.5 -39.5
t-66.5 -76.5l-53 -60q-79 -90 -125 -149q-24 -118 -20 -101l-24 -114q-6 -34 -30 -52.5t-53 -18.5v0zM280 760q-21 0 -36 14t-15 35q0 18 9.5 31.5t28.5 27.5l87 62q19 13 34 19t30 6q27 0 51 -27l56 -61q12 -13 19 -25.5t7 -21.5q0 -25 -18 -42.5t-41 -17.5q-12 0 -20 5
t-18 15l-50 52l-73 -50q-32 -22 -51 -22v0z" />
    <glyph glyph-name="ycircumflex" unicode="&#x177;" horiz-adv-x="466" 
d="M24 -181q-29 -19 -49 -19q-23 0 -39 16.5t-16 39.5q0 31 32 59l35 26q52 38 67 54q35 33 56 58q-26 140 -67 385q-5 34 15.5 63t54.5 29q58 0 66 -63l36 -278q30 48 140 287q12 26 29.5 39.5t37.5 13.5q35 0 49.5 -27.5t-3.5 -67.5q-67 -152 -120 -241l-35 -58
q-25 -42 -78 -114q-43 -57 -94 -108q-18 -18 -55.5 -48t-61.5 -46v0zM191 581q-21 0 -36 14t-15 35q0 18 9.5 31.5t28.5 27.5l87 62q19 13 34 19t30 6q27 0 51 -27l56 -61q12 -13 19 -25.5t7 -21.5q0 -25 -18 -42.5t-41 -17.5q-12 0 -20 5t-18 15l-50 52l-73 -50
q-32 -22 -51 -22v0z" />
    <glyph glyph-name="Ydieresis" unicode="&#x178;" horiz-adv-x="593" 
d="M237 -1q-31 0 -47 18.5t-10 48.5l6 29q14 79 26 127l13 54l-61 160q-54 142 -70 189q-7 26 3 47t31 33.5t43 12.5q16 0 31 -12t21 -30l7 -21q14 -40 37.5 -105t49.5 -132l74 94l149 172q29 33 63 33q25 0 42.5 -16t17.5 -40q0 -26 -21 -51q-8 -11 -33.5 -39.5
t-66.5 -76.5l-53 -60q-79 -90 -125 -149q-24 -118 -20 -101l-24 -114q-6 -34 -30 -52.5t-53 -18.5v0zM488 773q-30 0 -48.5 16.5t-18.5 43.5q0 37 26 62t61 25q30 0 49 -16.5t19 -43.5q0 -37 -26.5 -62t-61.5 -25v0zM300 773q-30 0 -48.5 16.5t-18.5 43.5q0 37 26 62t61 25
q30 0 49 -16.5t19 -43.5q0 -37 -26.5 -62t-61.5 -25v0z" />
    <glyph glyph-name="Zacute" unicode="&#x179;" horiz-adv-x="617" 
d="M250 0q-136 0 -223 4q-27 1 -41 22t-7 49t33 48q35 32 119 120q304 278 347 334q-218 -4 -317 3q-28 2 -41.5 23t-5.5 50t32.5 47.5t51.5 16.5q65 -4 135.5 -5t162 1t136.5 2q27 0 42.5 -20t9.5 -48q-6 -26 -25 -45l-4 -6q-46 -69 -95.5 -119.5t-339.5 -314.5l-25 -25
q33 0 80 -2q192 4 231 4q27 0 42.5 -20t9.5 -47.5t-30 -47.5t-51 -20q-37 0 -227 -4v0zM402 759q-26 0 -41.5 16.5t-15.5 39.5q0 18 9 32.5t23 24.5l117 77q15 10 26.5 14.5t24.5 4.5q25 0 42 -17.5t17 -41.5q0 -18 -10 -35t-27 -28l-119 -71q-26 -16 -46 -16v0z" />
    <glyph glyph-name="zacute" unicode="&#x17a;" horiz-adv-x="497" 
d="M53 0q-31 0 -49 14t-18 35q0 19 8 35.5t27 36.5q16 18 62.5 65.5t103.5 105.5l100 102h-56q-30 0 -59.5 -0.5t-57.5 0.5t-44.5 15t-16.5 37q0 30 23 52.5t60 22.5l280 -1q33 0 53 -16.5t20 -42.5q0 -24 -13.5 -46.5t-40.5 -49.5l-237 -238q80 0 192 5q27 2 41.5 -12.5
t14.5 -36.5q0 -29 -20.5 -52t-55.5 -26q-98 -5 -158 -5h-159v0zM316 570q-28 -2 -46 17.5t-14 48t29 50.5l96 86q25 23 53 24t46 -18t14 -47.5t-29 -50.5l-96 -86q-25 -22 -53 -24v0z" />
    <glyph glyph-name="Zdotaccent" unicode="&#x17b;" horiz-adv-x="617" 
d="M250 0q-136 0 -223 4q-27 1 -41 22t-7 49t33 48q35 32 119 120q304 278 347 334q-218 -4 -317 3q-28 2 -41.5 23t-5.5 50t32.5 47.5t51.5 16.5q65 -4 135.5 -5t162 1t136.5 2q27 0 42.5 -20t9.5 -48q-6 -26 -25 -45l-4 -6q-46 -69 -95.5 -119.5t-339.5 -314.5l-25 -25
q33 0 80 -2q192 4 231 4q27 0 42.5 -20t9.5 -47.5t-30 -47.5t-51 -20q-37 0 -227 -4v0zM431 784q-32 0 -55 18.5t-23 47.5q0 40 30 67.5t73 27.5q33 0 50.5 -21t17.5 -48q0 -38 -26.5 -65t-66.5 -27v0v0z" />
    <glyph glyph-name="zdotaccent" unicode="&#x17c;" horiz-adv-x="497" 
d="M53 0q-31 0 -49 14t-18 35q0 19 8 35.5t27 36.5q16 18 62.5 65.5t103.5 105.5l100 102h-56q-30 0 -59.5 -0.5t-57.5 0.5t-44.5 15t-16.5 37q0 30 23 52.5t60 22.5l280 -1q33 0 53 -16.5t20 -42.5q0 -24 -13.5 -46.5t-40.5 -49.5l-237 -238q80 0 192 5q27 2 41.5 -12.5
t14.5 -36.5q0 -29 -20.5 -52t-55.5 -26q-98 -5 -158 -5h-159v0zM331 583q-34 0 -58 19.5t-24 49.5q0 42 31.5 71t76.5 29q34 0 52.5 -22t18.5 -51q0 -39 -27.5 -67.5t-69.5 -28.5v0z" />
    <glyph glyph-name="Zcaron" unicode="&#x17d;" horiz-adv-x="617" 
d="M250 0q-136 0 -223 4q-27 1 -41 22t-7 49t33 48q35 32 119 120q304 278 347 334q-218 -4 -317 3q-28 2 -41.5 23t-5.5 50t32.5 47.5t51.5 16.5q65 -4 135.5 -5t162 1t136.5 2q27 0 42.5 -20t9.5 -48q-6 -26 -25 -45l-4 -6q-46 -69 -95.5 -119.5t-339.5 -314.5l-25 -25
q33 0 80 -2q192 4 231 4q27 0 42.5 -20t9.5 -47.5t-30 -47.5t-51 -20q-37 0 -227 -4v0zM417 765q-26 0 -50 27l-55 61q-12 13 -19 25.5t-7 21.5q0 24 17 41.5t43 17.5q11 0 22 -5.5t18 -13.5l50 -57l81 62q20 15 40 15q21 0 36 -14t15 -35q0 -18 -9.5 -31t-28.5 -27l-99 -67
q-16 -11 -28 -16t-26 -5v0z" />
    <glyph glyph-name="zcaron" unicode="&#x17e;" horiz-adv-x="497" 
d="M53 0q-31 0 -49 14t-18 35q0 19 8 35.5t27 36.5q16 18 62.5 65.5t103.5 105.5l100 102h-56q-30 0 -59.5 -0.5t-57.5 0.5t-44.5 15t-16.5 37q0 30 23 52.5t60 22.5l280 -1q33 0 53 -16.5t20 -42.5q0 -24 -13.5 -46.5t-40.5 -49.5l-237 -238q80 0 192 5q27 2 41.5 -12.5
t14.5 -36.5q0 -29 -20.5 -52t-55.5 -26q-98 -5 -158 -5h-159v0zM319 581q-26 0 -50 27l-55 61q-12 13 -19 25.5t-7 21.5q0 24 17 41.5t43 17.5q11 0 22 -5.5t18 -13.5l50 -57l81 62q20 15 40 15q21 0 36 -14t15 -35q0 -18 -9.5 -31t-28.5 -27l-99 -67q-16 -11 -28 -16
t-26 -5v0z" />
    <glyph glyph-name="longs" unicode="&#x17f;" horiz-adv-x="293" 
d="M72 155q10 108 21 176q6 39 13 74h-6q-29 0 -45.5 20.5t-10 49.5t31 49.5t53.5 20.5q7 0 14 -1q28 70 66 111q31 34 85 55q12 5 29 10q15 6 23 10q28 14 54 6t35 -33t-5 -53t-42 -42q-4 -2 -66 -26l-19 -9q-18 -20 -37 -81q-17 -58 -31 -152q-12 -72 -20 -174
q-7 -87 -8 -95q-4 -29 -27 -51t-52.5 -24.5t-47.5 16t-14 47.5z" />
    <glyph glyph-name="uni0180" unicode="&#x180;" horiz-adv-x="640" 
d="M101 -13q-29 0 -45 20.5t-10 49.5q7 36 13 57q-20 12 -27.5 27t-2.5 42q4 22 20.5 39.5t38.5 25.5q39 144 96 468q6 34 31.5 53t54.5 19q28 0 44.5 -17t10.5 -49l-13 -69l-31 -155q20 23 53.5 35.5t61.5 12.5q69 0 122.5 -43.5t76 -116.5t2.5 -154
q-29 -116 -102.5 -180.5t-166.5 -64.5q-45 0 -87.5 14t-71.5 40q-9 -24 -29 -39t-39 -15v0zM356 116q38 0 64 31t37 83q10 49 -0.5 92t-34.5 68.5t-52 25.5q-21 0 -41 -10.5t-36 -30.5l-19 -24q-9 -11 -15 -19t-16 -17l-31 -140q19 -19 39 -30.5t49 -19.5q31 -9 56 -9v0z
M127 579q-28 -1 -44 17.5t-10 47.5q5 24 27.5 44.5t50.5 21.5l308 10q29 1 44 -18.5t10 -48.5q-4 -23 -28 -42.5t-48 -20.5l-310 -11v0z" />
    <glyph glyph-name="uni0181" unicode="&#x181;" horiz-adv-x="807" 
d="M210 9q-29 0 -45 20.5t-10 49.5q65 306 104 551q-13 -8 -22 -17q-2 -2 -7 -17q-2 -4 -3 -8.5t-2.5 -9.5t-2.5 -8q-7 -21 -13 -35q-12 -28 -39.5 -43.5t-54.5 -9.5t-37 30.5t2 52.5q2 6 6 19q9 28 9 29q16 50 47 82q60 63 155 88.5t192 20.5t179 -38q81 -33 114 -96
q37 -73 12 -151q-26 -79 -95 -130q23 -20 37 -42q53 -79 4 -174q-76 -146 -262 -163q-25 -3 -63.5 -1.5t-61.5 3.5t-54 5.5t-40 3.5q-3 1 -6 1q-21 -13 -43 -13v0zM495 149q48 5 76.5 20.5t43.5 45.5q11 20 -2 40q-17 25 -58 47q-22 12 -50 17q-40 -5 -92 -6q-5 0 -10 1
q-6 0 -12 1q-17 5 -29 19q-8 11 -10 25q-19 -96 -40 -200q13 -1 44.5 -4.5t45 -4.5t46 -2.5t47.5 1.5v0zM361 405q5 12 15 22q13 12 28 19q7 3 16 6q10 3 30 6q47 7 73 4q7 0 14 -1q27 4 49 12q59 20 73 62q7 24 -7 53t-68.5 51t-129.5 26q-26 1 -49 0q-20 -124 -44 -260v0z
" />
    <glyph glyph-name="uni0181" unicode="&#x253;" horiz-adv-x="807" 
d="M210 9q-29 0 -45 20.5t-10 49.5q65 306 104 551q-13 -8 -22 -17q-2 -2 -7 -17q-2 -4 -3 -8.5t-2.5 -9.5t-2.5 -8q-7 -21 -13 -35q-12 -28 -39.5 -43.5t-54.5 -9.5t-37 30.5t2 52.5q2 6 6 19q9 28 9 29q16 50 47 82q60 63 155 88.5t192 20.5t179 -38q81 -33 114 -96
q37 -73 12 -151q-26 -79 -95 -130q23 -20 37 -42q53 -79 4 -174q-76 -146 -262 -163q-25 -3 -63.5 -1.5t-61.5 3.5t-54 5.5t-40 3.5q-3 1 -6 1q-21 -13 -43 -13v0zM495 149q48 5 76.5 20.5t43.5 45.5q11 20 -2 40q-17 25 -58 47q-22 12 -50 17q-40 -5 -92 -6q-5 0 -10 1
q-6 0 -12 1q-17 5 -29 19q-8 11 -10 25q-19 -96 -40 -200q13 -1 44.5 -4.5t45 -4.5t46 -2.5t47.5 1.5v0zM361 405q5 12 15 22q13 12 28 19q7 3 16 6q10 3 30 6q47 7 73 4q7 0 14 -1q27 4 49 12q59 20 73 62q7 24 -7 53t-68.5 51t-129.5 26q-26 1 -49 0q-20 -124 -44 -260v0z
" />
    <glyph glyph-name="uni0182" unicode="&#x182;" horiz-adv-x="694" 
d="M284 -1q-6 0 -135 7q-22 2 -36 15q-26 2 -40 20t-11 44q13 107 50 315.5t49 309.5q5 29 28.5 51t52.5 25q30 2 48 -18q65 2 201 7t210 6q29 0 45 -20t10.5 -49t-30 -49.5t-53.5 -21.5q-71 -1 -200 -5.5t-183 -5.5q-9 -63 -26 -157q81 13 133 14q134 2 204 -68
q43 -45 56 -102q11 -59 -12 -120q-22 -60 -74 -107q-53 -47 -124 -71q-60 -20 -163 -20v0zM316 139q76 -1 110 10q68 24 86 71q18 48 -24 93q-35 36 -119 35q-44 -1 -129 -15q-19 -111 -30 -189q74 -5 106 -5v0z" />
    <glyph glyph-name="uni0183" unicode="&#x183;" horiz-adv-x="627" 
d="M93 -4q-26 -1 -42 16t-16 41q0 5 2 17q7 20 12 40q-7 7 -9 11q-14 16 -14 36q0 16 8 33t23 29q11 10 23 16q18 66 27 111q-9 14 -9 31q0 33 27 58q17 93 33 202q-23 15 -23 43q0 34 27 60.5t60 26.5h338q27 0 41 -16t14 -39q0 -33 -23 -59t-62 -26h-233l-16 -107
q30 23 57.5 33.5t70.5 10.5q50 0 93 -27.5t69 -79t26 -119.5q0 -106 -50 -181t-113 -112q-78 -45 -166 -45q-35 0 -65 12t-45 27q-8 -11 -16.5 -21t-19.5 -15.5t-29 -6.5v0zM288 133q60 0 97 27q31 22 50.5 64.5t19.5 95.5q0 52 -26 80.5t-65 28.5q-27 0 -56 -13.5
t-53 -37.5l-3 -3q-29 -140 -49 -214q16 -13 39.5 -20.5t45.5 -7.5v0z" />
    <glyph glyph-name="uni0184" unicode="&#x184;" horiz-adv-x="601" 
d="M95 -12q-21 0 -36 12t-18 32q-8 15 5 27q0 2 -4.5 8t-3.5 9q4 15 14 29l32 148l34 159q39 187 53 299q3 24 15.5 41.5t28 26.5t27.5 9q28 0 51 -16.5t20 -44.5q-11 -96 -38 -227q46 4 55 4q17 0 35 -2q106 -13 168 -89q33 -40 42 -95l2 -18t3 -18q0 -17 -7 -39t-15 -43
q-36 -91 -105 -141q-86 -63 -226 -63q-32 0 -74 3l-14 2q-22 -13 -44 -13v0zM262 136q87 0 124 27q23 16 40 59q4 8 6 16t5 16q0 28 -25 58q-35 45 -99 52q-21 2 -67 -4l-23 -110l-24 -111q36 -3 63 -3v0z" />
    <glyph glyph-name="uni0185" unicode="&#x185;" horiz-adv-x="537" 
d="M235 0q-27 -1 -55.5 1.5t-59.5 6.5t-35 5q-27 2 -41 24q-20 21 -13 53q33 157 45 218q-1 8 -1 16q2 16 10 31q17 94 26 176q4 29 26.5 51.5t52 25t48.5 -15.5t14 -47q-7 -61 -17 -129q35 5 59 3q48 -5 97.5 -30t81.5 -64q39 -51 35 -111q-5 -73 -70 -139
q-73 -74 -203 -75v0zM263 139q63 1 84 22q18 18 19 32q1 15 -13 33q-18 21 -47.5 36t-53.5 17q-18 2 -43 -3q-10 -53 -27 -131q48 -6 81 -6v0z" />
    <glyph glyph-name="uni0186" unicode="&#x186;" horiz-adv-x="715" 
d="M316 0q-29 -5 -46.5 -6.5t-45.5 0.5t-48 11q-41 17 -80 61l-26 31l-23 24q-19 18 -16.5 46.5t25.5 51.5t52 26.5t49 -14.5l30 -33l24 -29q24 -26 42 -34q7 -3 16.5 -3t18 1t29.5 4t40 5q82 10 139 76.5t73 164.5q15 99 -20.5 170t-109.5 82q-39 6 -90 -9.5t-80 -42.5
q-8 -8 -21 -29q-3 -4 -5.5 -8.5t-5 -10t-4.5 -9.5q-11 -20 -20 -33q-17 -27 -46.5 -37t-53.5 1.5t-28 38.5t12 53q6 8 14 22q15 29 16 30q26 46 56 74q61 56 148.5 82t157.5 16q68 -10 118 -48t74 -92.5t31.5 -116t-2.5 -125.5q-8 -51 -27 -101.5t-50.5 -99t-73 -87
t-97 -65.5t-119.5 -34l-27 -4v0z" />
    <glyph glyph-name="uni0186" unicode="&#x254;" horiz-adv-x="715" 
d="M316 0q-29 -5 -46.5 -6.5t-45.5 0.5t-48 11q-41 17 -80 61l-26 31l-23 24q-19 18 -16.5 46.5t25.5 51.5t52 26.5t49 -14.5l30 -33l24 -29q24 -26 42 -34q7 -3 16.5 -3t18 1t29.5 4t40 5q82 10 139 76.5t73 164.5q15 99 -20.5 170t-109.5 82q-39 6 -90 -9.5t-80 -42.5
q-8 -8 -21 -29q-3 -4 -5.5 -8.5t-5 -10t-4.5 -9.5q-11 -20 -20 -33q-17 -27 -46.5 -37t-53.5 1.5t-28 38.5t12 53q6 8 14 22q15 29 16 30q26 46 56 74q61 56 148.5 82t157.5 16q68 -10 118 -48t74 -92.5t31.5 -116t-2.5 -125.5q-8 -51 -27 -101.5t-50.5 -99t-73 -87
t-97 -65.5t-119.5 -34l-27 -4v0z" />
    <glyph glyph-name="uni0187" unicode="&#x187;" horiz-adv-x="743" 
d="M311 -11q-68 4 -120 28.5t-82 63t-46.5 88t-17 101.5t10.5 104q12 54 37.5 106t65 101t90.5 87t117.5 62.5t140.5 28.5t104 -1q18 27 50 45q42 23 117 29q15 2 58 5l53 5q31 2 50.5 -14.5t17 -44t-26 -48t-53.5 -23.5q-33 -2 -54 -5q-43 -3 -58 -5q-19 -1 -32 -4
q-1 -18 4 -55q18 -24 7 -51q0 -22 -17.5 -41.5t-41.5 -27.5q-31 -9 -56.5 1.5t-29.5 36.5l-4 18l-21 35q-8 11 -11 15q-13 3 -75 -1q-109 -5 -186 -77.5t-101 -178t16.5 -176.5t130.5 -76q34 -2 50 -1q19 1 22 3l5 2q6 2 22 18q49 52 54 56q22 21 52.5 25t51.5 -12t19 -43
t-24 -49q-1 -1 -50 -52q-32 -31 -58 -47q-38 -23 -79 -28.5t-102 -2.5v0z" />
    <glyph glyph-name="uni0188" unicode="&#x188;" horiz-adv-x="676" 
d="M353 -1q-79 -30 -175 3q-65 21 -101 63t-43 93.5t5 104.5t40 103q27 48 68.5 91t95.5 74t114 37.5t123 -15.5q11 -4 21 -9q21 28 51 41q20 10 68 17q50 7 97 18q30 7 52 -7t24 -40.5t-18 -49t-51 -30.5q-52 -11 -108 -20l-11 -1l-27 -41q-5 -25 -26 -44
q-23 -20 -53 -22.5t-48 15.5h-1q-6 4 -9 11l-9 10l-14 17q-9 11 -14 13q-51 20 -106.5 -9t-93.5 -96q-39 -66 -27.5 -123t71.5 -78q50 -16 75 -6q4 2 17 15q1 2 12 13l19 22q11 11 21 20q22 20 52 22.5t48.5 -14.5t15 -44.5t-26.5 -47.5q-5 -5 -9 -10l-13 -15l-17 -18
q-43 -46 -89 -63v0z" />
    <glyph glyph-name="uni0189" unicode="&#x189;" horiz-adv-x="794" 
d="M202 -11q-43 6 -52 7q-26 3 -39.5 21t-9.5 42q-12 21 -7 46q40 167 45 191l-38 -2q-28 -1 -46.5 17t-14 45.5t28 48.5t52.5 23l44 3q17 108 15 196q0 27 20 50.5t49 29.5q7 2 15 2q6 2 11 3q19 3 50 9.5t51 9.5t36 4q47 4 141 -19q69 -17 121 -62t79 -104t30 -129.5
t-19 -139t-74.5 -134t-129.5 -111.5q-36 -21 -78 -34.5t-73.5 -18.5t-76 -4.5t-66 2.5t-64.5 8v0zM238 124q52 -7 76.5 -9.5t63 -2.5t67.5 8t57 26q55 32 90.5 83.5t44 106.5t-2.5 106t-48.5 90.5t-94.5 52.5q-73 19 -98 17q-10 0 -71 -13q-4 -72 -16 -156h74q29 0 45 -20
t10 -47.5t-30.5 -47.5t-53.5 -20h-72q-9 -41 -41 -174v0z" />
    <glyph glyph-name="uni0189" unicode="&#x256;" horiz-adv-x="794" 
d="M202 -11q-43 6 -52 7q-26 3 -39.5 21t-9.5 42q-12 21 -7 46q40 167 45 191l-38 -2q-28 -1 -46.5 17t-14 45.5t28 48.5t52.5 23l44 3q17 108 15 196q0 27 20 50.5t49 29.5q7 2 15 2q6 2 11 3q19 3 50 9.5t51 9.5t36 4q47 4 141 -19q69 -17 121 -62t79 -104t30 -129.5
t-19 -139t-74.5 -134t-129.5 -111.5q-36 -21 -78 -34.5t-73.5 -18.5t-76 -4.5t-66 2.5t-64.5 8v0zM238 124q52 -7 76.5 -9.5t63 -2.5t67.5 8t57 26q55 32 90.5 83.5t44 106.5t-2.5 106t-48.5 90.5t-94.5 52.5q-73 19 -98 17q-10 0 -71 -13q-4 -72 -16 -156h74q29 0 45 -20
t10 -47.5t-30.5 -47.5t-53.5 -20h-72q-9 -41 -41 -174v0z" />
    <glyph glyph-name="uni018A" unicode="&#x18a;" horiz-adv-x="853" 
d="M170 -9q-29 1 -44.5 21.5t-9.5 49.5q13 60 40.5 170.5t34.5 139.5q31 131 48 221q-3 -4 -5 -7q-4 -4 -7 -19q-2 -4 -3 -8l-2 -9l-1 -7q-5 -19 -10 -33q-10 -28 -36.5 -45.5t-54.5 -13.5t-40.5 27t-2.5 52q2 6 5 18q7 26 7 27q12 46 35 77q87 116 263 142q82 12 160 -1
t141 -50.5t105.5 -93t55.5 -134.5t-10 -170q-21 -77 -53 -132.5t-98 -107.5q-53 -43 -123 -69q-68 -26 -132 -35q-63 -9 -223 1q-20 -11 -40 -11v0zM442 139q46 6 93 24t78 42q38 31 55 61q18 30 32 85q25 96 -12 171q-34 76 -115 112t-184 24q-19 -121 -59 -289
q-10 -40 -28.5 -116.5t-27.5 -112.5q123 -7 168 -1v0z" />
    <glyph glyph-name="uni018A" unicode="&#x257;" horiz-adv-x="853" 
d="M170 -9q-29 1 -44.5 21.5t-9.5 49.5q13 60 40.5 170.5t34.5 139.5q31 131 48 221q-3 -4 -5 -7q-4 -4 -7 -19q-2 -4 -3 -8l-2 -9l-1 -7q-5 -19 -10 -33q-10 -28 -36.5 -45.5t-54.5 -13.5t-40.5 27t-2.5 52q2 6 5 18q7 26 7 27q12 46 35 77q87 116 263 142q82 12 160 -1
t141 -50.5t105.5 -93t55.5 -134.5t-10 -170q-21 -77 -53 -132.5t-98 -107.5q-53 -43 -123 -69q-68 -26 -132 -35q-63 -9 -223 1q-20 -11 -40 -11v0zM442 139q46 6 93 24t78 42q38 31 55 61q18 30 32 85q25 96 -12 171q-34 76 -115 112t-184 24q-19 -121 -59 -289
q-10 -40 -28.5 -116.5t-27.5 -112.5q123 -7 168 -1v0z" />
    <glyph glyph-name="uni018B" unicode="&#x18b;" horiz-adv-x="692" 
d="M470 -14q-7 1 -32.5 2.5t-56 3t-56.5 4.5q-127 11 -174 35q-59 30 -89 79q-31 48 -24 109q7 62 50.5 117.5t113.5 97.5q81 48 208 49q33 0 90 -4l18 -1l6 30q4 16 11 38q0 3 4 13.5t5 16.5q7 22 6 32q-2 10 -15 15h-3q-19 2 -42 3q-42 1 -111 1q-47 0 -116.5 -1t-79.5 -1
q-29 0 -45 20.5t-10 49.5t31 49.5t54 20.5q10 0 79.5 1t116.5 1q72 0 115 -2q64 -2 85 -10q31 -12 54.5 -39t27.5 -64q4 -36 -10 -87l-6 -18t-4 -14q-4 -15 -6 -23q-52 -253 -91 -435q-5 -25 -25 -44q-12 -21 -34.5 -33.5t-44.5 -11.5v0zM446 129q21 97 43 209q-8 1 -26 2
q-54 3 -83 3q-84 0 -125 -25q-71 -42 -75 -85q-5 -44 56 -76q26 -13 130 -22q36 -3 80 -6v0z" />
    <glyph glyph-name="uni018C" unicode="&#x18c;" horiz-adv-x="622" 
d="M433 -25q-21 0 -36 11t-20 29q-30 -15 -58 -24q-79 -23 -165 21q-55 28 -85 81q-28 53 -31 113t15 121q14 46 41 89t65 78t90.5 56t111.5 21q76 0 128 -27q4 18 6 34q8 40 8 65q-39 -8 -59 -8l-146 4q-28 1 -44 22t-8.5 50t32.5 49t54 19q16 -1 45 -2t53 -1.5t46 -0.5
q4 0 7.5 0.5t13.5 2.5t24 4q65 11 98 -21q29 -27 27 -90q-1 -36 -10 -88q-6 -33 -10 -54l-11 -43q-5 -23 -6 -25q0 -3 -59 -254q3 -4 4 -7q9 -21 2.5 -44.5t-26.5 -41.5q-8 -35 -14 -67q-5 -29 -29.5 -50t-53.5 -22v0zM305 125q25 7 65 34l35 24q7 33 22.5 95t18.5 79
l-11 19l-11 20q-8 14 -15 18q-27 17 -78 17q-52 0 -88.5 -31.5t-53.5 -85.5q-17 -57 -3.5 -106t53.5 -70q41 -21 66 -13v0z" />
    <glyph glyph-name="uni018D" unicode="&#x18d;" horiz-adv-x="591" 
d="M56 4q-28 1 -43 22.5t-8 50.5t32.5 48.5t54.5 18.5q84 -4 144 -5l-37 36q-52 52 -88 102t-49 107q-36 156 126 301q70 62 134 78q56 13 104 10t84.5 -24.5t62 -52.5t37 -73t10.5 -86t-17.5 -92.5t-47.5 -91.5q-68 -94 -186 -126l38 -37q27 -27 41 -44q11 -14 15 -27
q14 -41 -15 -78q-15 -20 -38 -30q-8 -4 -17.5 -6t-21.5 -3q-15 -2 -42 -3q-41 -1 -110 0zM260 337q7 3 14 5q22 6 48 12t37.5 8.5t26 7.5t22.5 10.5t17 14t19 22.5q24 34 32 70t-0.5 64t-28.5 50.5t-50.5 28.5t-67.5 -1q-21 -6 -57 -38q-34 -30 -51.5 -58.5t-20.5 -49
t2 -43.5q10 -46 58 -103v0z" />
    <glyph glyph-name="uni018E" unicode="&#x18e;" horiz-adv-x="710" 
d="M428 -16l-2 1h-8l-29 2l-88 7q-127 10 -134 10q-14 1 -31.5 0t-38 -2t-32.5 -2q-30 -1 -47 19t-12 48.5t29.5 50t52.5 22.5q110 4 113 4q9 0 141 -11l87 -6l20 -2q2 4 4 10q5 14 9 39q7 40 8 47q5 17 23 76q-287 9 -358 12q-28 2 -42.5 23.5t-7 50.5t33 48t54.5 18
q63 -4 361 -13q3 14 7 27q15 59 17 94q1 13 1 22q-11 1 -26 1q-49 1 -139 2q-37 0 -95 0.5t-88 1t-36 0.5q-29 1 -44 22.5t-8 50.5t33 48.5t54 18.5q5 -1 35 -1t86 -0.5t95 -1.5q90 -1 138 -2q31 0 48 -1q10 0 16 -1h7q4 -1 6 -2q12 -2 23 -10q43 -34 36 -129
q-2 -48 -21 -118q-15 -59 -41.5 -147t-28.5 -96l-6 -36q-7 -36 -15 -61q-7 -20 -16.5 -38t-26 -38t-41 -35t-54.5 -21l-16 -2h-6v0z" />
    <glyph glyph-name="uni018F" unicode="&#x18f;" horiz-adv-x="742" 
d="M472 24q-104 -40 -185 -27t-135 65.5t-69 132.5q-1 5 -5 23q-6 21 -8 34q-9 59 27 104q40 50 113 52q10 0 34 -1h18q122 13 346 -3q1 15 -1 33q-7 91 -65 134q-58 44 -153 20q-62 -17 -74 -27q-5 -5 -15 -22q-3 -5 -10 -16q-6 -11 -13 -22l-13 -21q-16 -24 -44.5 -34.5
t-53.5 -0.5t-31.5 34t9.5 49q7 10 13.5 20t12 20t8.5 15q21 34 41 53q28 28 64.5 44t91.5 30q91 21 158.5 10t113.5 -49.5t71.5 -90.5t31.5 -112q3 -44 -4 -90q22 -21 13 -52q-8 -29 -38 -47q-31 -83 -94 -151t-155 -107v0zM296 135q59 -28 138 5q95 38 143 135
q-73 6 -114.5 8.5t-102 2.5t-109.5 -5q-15 -2 -38 -1l3 -10q6 -21 8 -31q14 -76 72 -104v0z" />
    <glyph glyph-name="uni018F" unicode="&#x259;" horiz-adv-x="742" 
d="M472 24q-104 -40 -185 -27t-135 65.5t-69 132.5q-1 5 -5 23q-6 21 -8 34q-9 59 27 104q40 50 113 52q10 0 34 -1h18q122 13 346 -3q1 15 -1 33q-7 91 -65 134q-58 44 -153 20q-62 -17 -74 -27q-5 -5 -15 -22q-3 -5 -10 -16q-6 -11 -13 -22l-13 -21q-16 -24 -44.5 -34.5
t-53.5 -0.5t-31.5 34t9.5 49q7 10 13.5 20t12 20t8.5 15q21 34 41 53q28 28 64.5 44t91.5 30q91 21 158.5 10t113.5 -49.5t71.5 -90.5t31.5 -112q3 -44 -4 -90q22 -21 13 -52q-8 -29 -38 -47q-31 -83 -94 -151t-155 -107v0zM296 135q59 -28 138 5q95 38 143 135
q-73 6 -114.5 8.5t-102 2.5t-109.5 -5q-15 -2 -38 -1l3 -10q6 -21 8 -31q14 -76 72 -104v0z" />
    <glyph glyph-name="uni0190" unicode="&#x190;" horiz-adv-x="624" 
d="M286 -7q-42 0 -84 10.5t-76.5 35t-56.5 57.5t-25.5 80t16.5 100l141 101q-19 9 -31 23q-46 53 -34 144q12 84 63 146q50 59 115 87t124.5 23.5t110.5 -31.5t77 -73q15 -28 18 -73q0 -1 1 -28q0 -12 1 -19q4 -25 -14 -50.5t-47.5 -34t-53 3.5t-26.5 38q-2 13 -2 33
q-1 3 -0.5 8t-0.5 9v8q-1 18 -5 24q-18 33 -55.5 44.5t-75 1t-62.5 -40.5q-21 -25 -27 -66q-4 -33 6 -51q2 -1 29 -4q32 -3 50 -13q22 -11 31 -34q9 -25 -2 -54l-197 -143q-21 -53 14 -90t105 -36q6 0 10.5 1t6.5 2h2q19 16 36 34.5t40 47.5t44 51.5t50.5 28.5t50 -10
t20.5 -43t-21 -51q-8 -9 -35 -41.5t-53.5 -61t-51.5 -49.5q-53 -44 -126 -45v0z" />
    <glyph glyph-name="uni0190" unicode="&#x25b;" horiz-adv-x="624" 
d="M286 -7q-42 0 -84 10.5t-76.5 35t-56.5 57.5t-25.5 80t16.5 100l141 101q-19 9 -31 23q-46 53 -34 144q12 84 63 146q50 59 115 87t124.5 23.5t110.5 -31.5t77 -73q15 -28 18 -73q0 -1 1 -28q0 -12 1 -19q4 -25 -14 -50.5t-47.5 -34t-53 3.5t-26.5 38q-2 13 -2 33
q-1 3 -0.5 8t-0.5 9v8q-1 18 -5 24q-18 33 -55.5 44.5t-75 1t-62.5 -40.5q-21 -25 -27 -66q-4 -33 6 -51q2 -1 29 -4q32 -3 50 -13q22 -11 31 -34q9 -25 -2 -54l-197 -143q-21 -53 14 -90t105 -36q6 0 10.5 1t6.5 2h2q19 16 36 34.5t40 47.5t44 51.5t50.5 28.5t50 -10
t20.5 -43t-21 -51q-8 -9 -35 -41.5t-53.5 -61t-51.5 -49.5q-53 -44 -126 -45v0z" />
    <glyph glyph-name="uni0191" unicode="&#x191;" horiz-adv-x="617" 
d="M-30 -255q-25 -20 -54 -19t-44.5 22t-8 50t32.5 49t52.5 38t43 30t29.5 28q14 15 37 104q23 86 45 221l3 17q-17 21 -12 51q6 27 27 47q17 125 28 232q-4 16 -1 33q2 8 6 16q5 26 26.5 46.5t49.5 23.5q33 5 52 -18q95 -1 330 3q29 0 45.5 -20t10.5 -49t-30 -49.5
t-53 -21.5q-215 -3 -300 -2q-9 -84 -21 -169q217 4 280 4q29 0 45 -20.5t10 -49.5t-31 -49.5t-54 -20.5q-67 0 -271 -4q-22 -133 -47 -228q-34 -128 -75 -175q-20 -23 -50 -47t-63 -46.5t-38 -26.5v0z" />
    <glyph glyph-name="florin" unicode="&#x192;" horiz-adv-x="526" 
d="M-101 -270q-28 -15 -54.5 -8t-36 32t3 53t41.5 43q74 40 118.5 75t72.5 74q27 37 49 87t54 141q5 16 17 53.5t16 50.5l5 16q-32 2 -61 3q-29 2 -44 23.5t-7 50t33.5 48t53.5 18.5l78 -5q72 167 171 223q38 22 90 25q11 0 21.5 0.5t16 0.5t10.5 1q30 4 49.5 -13
t17.5 -45.5t-24 -52t-51 -27.5q-4 -1 -62 -3l-17 -2q-36 -21 -76 -102l25 2q29 1 46.5 -18t13 -48t-28 -50.5t-53.5 -23.5q-31 -1 -60 -3q-6 -15 -11 -33q-4 -12 -17 -51.5t-18 -55.5q-34 -98 -61 -160t-66 -115q-43 -59 -103.5 -107t-151.5 -97v0z" />
    <glyph glyph-name="uni0193" unicode="&#x193;" horiz-adv-x="830" 
d="M249 13q-79 34 -128 104t-48 160q2 104 63 203q58 98 151 164q63 43 127 65q68 22 139 17.5t132 -41.5l22 13q33 20 55 24q22 6 57 2q46 -4 69 -5q28 -2 43 -23.5t7 -48.5t-34 -46t-54 -17q-26 2 -73 7h-1l24 -44q11 -23 0.5 -50.5t-37.5 -43.5t-54.5 -11.5t-38.5 26.5
l-13 24l-10 21q-3 7 -8 14t-10 13q-19 7 -29 23q-60 36 -122 29t-122.5 -50t-100 -108t-39.5 -132q-2 -54 28.5 -98.5t83.5 -66.5q48 -22 104.5 -14t106.5 48q31 25 40 43q11 19 19 51q-6 0 -17 1q-33 0 -82 -3q-33 -2 -59 -4q-30 -1 -47 17t-12.5 46t27.5 48.5t52 22.5
q22 1 48.5 2.5t33.5 2t18 1t20 0.5h119q29 0 45.5 -19.5t10.5 -47.5q-1 -3 -2 -7q-1 -7 -3 -14q-1 -5 -9 -33.5t-17.5 -56t-20.5 -48.5q-26 -48 -85 -96q-60 -49 -127.5 -71t-127.5 -19t-114 26v0z" />
    <glyph glyph-name="uni0193" unicode="&#x260;" horiz-adv-x="830" 
d="M249 13q-79 34 -128 104t-48 160q2 104 63 203q58 98 151 164q63 43 127 65q68 22 139 17.5t132 -41.5l22 13q33 20 55 24q22 6 57 2q46 -4 69 -5q28 -2 43 -23.5t7 -48.5t-34 -46t-54 -17q-26 2 -73 7h-1l24 -44q11 -23 0.5 -50.5t-37.5 -43.5t-54.5 -11.5t-38.5 26.5
l-13 24l-10 21q-3 7 -8 14t-10 13q-19 7 -29 23q-60 36 -122 29t-122.5 -50t-100 -108t-39.5 -132q-2 -54 28.5 -98.5t83.5 -66.5q48 -22 104.5 -14t106.5 48q31 25 40 43q11 19 19 51q-6 0 -17 1q-33 0 -82 -3q-33 -2 -59 -4q-30 -1 -47 17t-12.5 46t27.5 48.5t52 22.5
q22 1 48.5 2.5t33.5 2t18 1t20 0.5h119q29 0 45.5 -19.5t10.5 -47.5q-1 -3 -2 -7q-1 -7 -3 -14q-1 -5 -9 -33.5t-17.5 -56t-20.5 -48.5q-26 -48 -85 -96q-60 -49 -127.5 -71t-127.5 -19t-114 26v0z" />
    <glyph glyph-name="uni0194" unicode="&#x194;" horiz-adv-x="651" 
d="M198 -138q19 111 25 146q0 3 -1 5q-19 202 -24 278q-1 22 -1.5 81t-1.5 88q-4 97 -22 124q-6 8 -23 18l-22 12q-16 9 -27 16q-21 15 -22 43.5t19 53t50 31.5t51 -8q6 -5 18 -11l24 -13q37 -22 56 -48q35 -53 41 -183q1 -30 1 -87q0 -56 1 -79l5 -68q162 288 265 455
q16 27 45 38.5t54 0.5t30.5 -37.5t-10.5 -53.5l-72 -118l-77 -132l-140 -246l-66 -120q-2 -4 -5 -7q-11 -64 -30 -173q-5 -29 -29 -50.5t-53 -22.5t-46.5 18.5t-12.5 48.5v0z" />
    <glyph glyph-name="uni0194" unicode="&#x263;" horiz-adv-x="651" 
d="M198 -138q19 111 25 146q0 3 -1 5q-19 202 -24 278q-1 22 -1.5 81t-1.5 88q-4 97 -22 124q-6 8 -23 18l-22 12q-16 9 -27 16q-21 15 -22 43.5t19 53t50 31.5t51 -8q6 -5 18 -11l24 -13q37 -22 56 -48q35 -53 41 -183q1 -30 1 -87q0 -56 1 -79l5 -68q162 288 265 455
q16 27 45 38.5t54 0.5t30.5 -37.5t-10.5 -53.5l-72 -118l-77 -132l-140 -246l-66 -120q-2 -4 -5 -7q-11 -64 -30 -173q-5 -29 -29 -50.5t-53 -22.5t-46.5 18.5t-12.5 48.5v0z" />
    <glyph glyph-name="uni0195" unicode="&#x195;" horiz-adv-x="826" 
d="M524 -50q-65 -6 -121 43q-50 46 -45 161q2 30 9 84q7 58 9 78q5 69 -7 86q-6 12 -58 -5q-24 -8 -48 -38.5t-44 -76.5q-19 -107 -46 -215q-2 -5 -3 -9q-2 -4 -4 -9q-6 -15 -20 -29q-29 -26 -62 -24q-30 1 -45 24q-7 11 -8 24q-1 6 -1 12q0 9 3 26q5 36 14 79q20 94 72 369
q19 115 28 175q6 29 30.5 50.5t53 22.5t46 -19t12.5 -48q-14 -80 -32 -197q18 9 36 15q142 47 198 -31q37 -51 27 -165q-2 -22 -9 -83q-6 -47 -8 -74q-4 -60 10 -71q8 -8 15 -12t10 -4h4q3 0 13 9q34 32 66 109q18 44 34 114t25 125q6 29 31 50t53.5 21t45.5 -20.5t11 -48.5
q-8 -46 -27 -130q-19 -82 -42 -137q-47 -114 -110 -173q-55 -52 -116 -58v0z" />
    <glyph glyph-name="uni0196" unicode="&#x196;" horiz-adv-x="350" 
d="M170 -12q-7 8 -21 20l-26 25q-41 38 -55 75q-8 21 -6 59q2 27 8 67q10 64 32 168q15 67 36.5 158t24.5 106q6 29 31 49.5t54 20.5t45 -20.5t10 -49.5q-3 -15 -25 -106t-36 -158q-21 -100 -31 -160q-5 -33 -6 -53v-14q6 -13 26 -32l26 -23q18 -16 29 -28
q17 -20 12.5 -48.5t-28.5 -50t-53 -23t-47 17.5v0z" />
    <glyph glyph-name="uni0196" unicode="&#x269;" horiz-adv-x="350" 
d="M170 -12q-7 8 -21 20l-26 25q-41 38 -55 75q-8 21 -6 59q2 27 8 67q10 64 32 168q15 67 36.5 158t24.5 106q6 29 31 49.5t54 20.5t45 -20.5t10 -49.5q-3 -15 -25 -106t-36 -158q-21 -100 -31 -160q-5 -33 -6 -53v-14q6 -13 26 -32l26 -23q18 -16 29 -28
q17 -20 12.5 -48.5t-28.5 -50t-53 -23t-47 17.5v0z" />
    <glyph glyph-name="uni0197" unicode="&#x197;" horiz-adv-x="391" 
d="M86 335q-25 0 -37.5 16t-7.5 39t24.5 39t44.5 16h262q25 0 36.5 -15t6.5 -40t-23.5 -40t-43.5 -15h-262v0zM223 65q-6 -29 -31 -49t-54 -20t-44.5 21t-9.5 50q21 94 62 288.5t62 289.5q6 29 31 49t54 20t44.5 -21t9.5 -50q-20 -94 -61 -288.5t-63 -289.5v0z" />
    <glyph glyph-name="uni0197" unicode="&#x268;" horiz-adv-x="391" 
d="M86 335q-25 0 -37.5 16t-7.5 39t24.5 39t44.5 16h262q25 0 36.5 -15t6.5 -40t-23.5 -40t-43.5 -15h-262v0zM223 65q-6 -29 -31 -49t-54 -20t-44.5 21t-9.5 50q21 94 62 288.5t62 289.5q6 29 31 49t54 20t44.5 -21t9.5 -50q-20 -94 -61 -288.5t-63 -289.5v0z" />
    <glyph glyph-name="uni0198" unicode="&#x198;" horiz-adv-x="743" 
d="M335 192l-85 107l-10 14q-19 -92 -49 -232q-6 -29 -31 -49q-25 -21 -54 -21t-45 20.5t-10 49.5q93 439 122 637q4 29 28.5 51t53 24t46.5 -17.5t14 -47.5q-15 -105 -38 -225q10 7 18 12.5t11.5 7.5t6.5 4.5t6 5.5q9 9 65 72q48 52 83 83q121 105 243 93q36 -3 71 -30
l20 -16q8 -6 14 -9q22 -14 24.5 -41.5t-16.5 -53t-48 -34t-53 4.5q-10 7 -25 18l-17 14l-14 9q-54 5 -117 -50q-27 -24 -67 -68q-70 -77 -71 -78q-16 -16 -49 -39l9 -11l84 -105l143 -174q15 -21 9 -49.5t-31.5 -49t-54 -20.5t-44.5 21z" />
    <glyph glyph-name="uni0199" unicode="&#x199;" horiz-adv-x="502" 
d="M319 18q-4 5 -21 25l-39 43l-37 45q-23 27 -40 53l-11.5 -69t-6.5 -44q-6 -29 -29.5 -50t-53 -22.5t-46.5 18t-13 48.5q35 211 53 299q22 115 40 182q25 97 50 137q52 84 123 118q38 18 87 17q1 0 29 -1q12 -1 18 0q29 2 47 -17t14 -47.5t-27.5 -50.5t-53.5 -25
q-14 -1 -34 0q-1 0 -10 0.5t-14 0.5l-17 -1q-22 -10 -43 -46q-12 -17 -31 -92q-17 -66 -33 -148l3 2q10 6 18.5 10.5t12 6t6.5 3.5t5 4l72 57q9 7 15 13q4 3 57 62q21 24 50.5 29t50 -11.5t19.5 -45t-23 -52.5q-59 -66 -70 -75q-6 -6 -16 -14l-78 -63q-15 -12 -44 -28
q14 -23 43 -58l37 -44l37 -43q17 -19 22 -24q17 -20 12 -48.5t-29.5 -50t-53.5 -22.5t-47 19v0z" />
    <glyph glyph-name="uni019A" unicode="&#x19a;" horiz-adv-x="363" 
d="M93 346q-26 0 -41 13t-15 35q0 30 23 53t65 23l214 -2q24 0 37 -13t13 -35q0 -30 -23.5 -52.5t-56.5 -22.5zM211 67q-7 -29 -32 -49t-54 -19.5t-44.5 21t-9.5 49.5q42 191 61 281l62 296q6 29 31 49.5t54 20.5t45 -20.5t10 -49.5q-17 -80 -41 -194t-43.5 -207t-38.5 -178
v0v0z" />
    <glyph glyph-name="uni019B" unicode="&#x19b;" horiz-adv-x="597" 
d="M452 -14l-20 12l-23 12l-20 10q-50 26 -74 57q-35 40 -48 134q-5 36 -8 89l-165 -259q-17 -27 -46 -38.5t-53.5 -0.5t-30 38t10.5 53l114 177q82 127 124 197l-96 -33q-29 -9 -52.5 3t-27 39.5t14 53.5t47.5 36l115 39q-4 1 -8 3q-3 1 -7 2t-8.5 2t-7.5 2q-19 5 -32 10
q-25 10 -30.5 36.5t10 53.5t44.5 38.5t54 1.5q5 -2 16 -5q25 -7 26 -7q45 -13 68 -40q16 -18 27 -46q60 19 111 33q30 8 52 -6t24 -42t-17.5 -53t-49.5 -33q-44 -12 -94 -28q4 -42 7 -121q4 -108 10 -149q8 -61 23 -80q13 -14 44 -31l69 -38q22 -14 24.5 -42t-17 -53
t-49 -33t-51.5 6v0z" />
    <glyph glyph-name="uni019C" unicode="&#x19c;" horiz-adv-x="929" 
d="M731 -9q-25 -1 -41 12t-18 35q-12 -8 -22 -14q-72 -39 -135 -21q-55 17 -92 78q-70 -75 -165 -82q-65 -6 -106 24q-41 28 -58 79q-25 75 -9 206q7 50 19 110.5t23 102.5t23 85t15 53q6 26 31.5 45.5t54 18.5t44 -21.5t8.5 -48.5q-4 -14 -16 -56.5t-22 -81t-21.5 -94.5
t-17.5 -102q-12 -104 5 -153q7 -23 17 -29.5t26 -5.5q50 5 90 86q27 57 55 182q16 68 22 103q1 5 1.5 14.5t0.5 24.5l2 30q2 32 9 51q1 2 2 5t7.5 13t14 17.5t20.5 14.5t28 10q41 7 65 -23q13 -14 15 -37q0 -11 -1 -26q-2 -21 -9 -56q-3 -22 -14 -72l-15 -71
q-19 -93 -24 -148q-6 -61 4 -79q18 -32 34 -37q5 -2 17 4q20 11 45 41q25 29 44 66q24 47 44 127q9 40 19 81q10 53 31 196q5 28 28.5 48.5t53 22t47 -16.5t13.5 -46q-19 -120 -31 -183.5t-20 -100.5q-32 -142 -60 -311q-4 -28 -28 -48t-53 -22v0z" />
    </font>
</defs>
</svg>
